<svg width="427" height="89" viewBox="0 0 427 89" fill="none" xmlns="http://www.w3.org/2000/svg">
<mask id="path-1-outside-1_654_221" maskUnits="userSpaceOnUse" x="-10" y="-10" width="447" height="109" fill="black">
<rect fill="white" x="-10" y="-10" width="447" height="109"/>
<path d="M55.7495 0.903996V4.744H59.0135V15.112H55.7495V18.952H50.3735V32.488H64.6775V4.744H68.5175V0.903996H82.0535V4.744H85.8935V84.52H82.0535V88.36H68.5175V84.52H64.6775V50.92H50.3735V66.472H55.7495V70.408H59.0135V80.776H55.7495V84.616H4.0055V80.776H0.7415V70.408H4.0055V66.472H9.1895V18.952H4.0055V15.112H0.7415V4.744H4.0055V0.903996H55.7495ZM32.1335 66.472V18.952H27.3335V66.472H32.1335ZM101.607 4.07199V0.903996H175.143V4.07199H178.407V11.272H175.143V14.248H160.647V15.592H164.871V17.32H169.479V19.336H174.663V21.448H178.407V28.744H174.663V31.24H156.807V28.744H151.335V25.96H146.055V23.368H141.063V20.968H135.687V23.368H130.695V25.96H125.415V28.744H119.943V31.24H102.087V28.744H98.3428V21.448H102.087V19.336H107.271V17.32H111.879V15.592H116.103V14.248H101.607V11.272H98.3428V4.07199H101.607ZM95.1748 43.912V37.48H98.4388V34.216H178.311V37.48H181.575V43.912H178.311V47.176H98.4388V43.912H95.1748ZM119.559 74.44V77.32H176.679V80.008H179.751V85.672H176.679V88.36H102.183V85.192H99.1108V67.048H102.183V63.88H156.807V61.192H102.183V58.504H99.1108V52.744H102.183V50.056H174.183V53.224H177.351V71.368H174.183V74.44H119.559ZM261.733 35.272V38.344H254.533V42.568H270.757V46.024H274.213V54.76H270.757V58.312H217.669V54.76H214.117V46.024H217.669V42.568H235.717V38.344H227.749V35.272H224.197V32.104H220.645V28.84H217.285V10.312H220.645V7.048H224.197V3.88H227.749V0.903996H261.733V3.88H265.381V7.048H268.837V10.312H272.197V28.84H268.837V32.104H265.381V35.272H261.733ZM281.221 0.903996H294.373V4.744H298.117V22.504H303.589V25.96H306.277V36.808H303.589V40.264H298.117V60.616H294.373V64.456H281.221V60.616H277.381V4.744H281.221V0.903996ZM253.381 22.312V16.84H250.405V14.536H239.077V16.84H236.197V22.312H239.077V24.712H250.405V22.312H253.381ZM296.389 88.36H223.525V84.52H219.589V65.416H223.525V62.152H236.773V65.416H240.613V72.616H296.389V76.072H300.229V84.904H296.389V88.36ZM358.086 30.28H362.214V41.704H358.47V45.16H348.102V41.704H344.166V38.44H340.806V35.176H337.638V32.008H333.894V35.176H330.726V38.44H327.366V41.704H323.43V45.16H311.622V41.704H307.878V30.184H312.102V26.152H316.614V22.312H320.838V18.568H324.294V4.84H328.326V0.903996H342.726V4.84H346.758V19.432H350.214V23.08H353.958V26.632H358.086V30.28ZM370.95 26.632H359.91V22.888H355.686V13.672H359.91V10.024H370.95V4.168H374.886V0.903996H388.134V4.744H391.974V41.896H388.134V45.832H374.886V41.896H370.95V26.632ZM323.622 53.128V49.864H381.414V53.128H385.446V56.488H389.286V60.232H392.838V77.992H389.286V81.736H385.446V85.096H381.414V88.36H323.622V85.096H319.59V81.736H315.75V77.992H312.198V60.232H315.75V56.488H319.59V53.128H323.622ZM336.966 73.768H368.07V71.08H371.622V67.144H368.07V64.456H336.966V67.144H333.414V71.08H336.966V73.768ZM423.239 0.903996V4.36H426.983V56.68H423.431V60.136H409.415V56.68H405.959V4.36H409.703V0.903996H423.239ZM423.431 67.048V70.504H426.983V84.904H423.431V88.36H409.415V84.904H405.959V70.504H409.415V67.048H423.431Z"/>
</mask>
<path d="M55.7495 0.903996V4.744H59.0135V15.112H55.7495V18.952H50.3735V32.488H64.6775V4.744H68.5175V0.903996H82.0535V4.744H85.8935V84.52H82.0535V88.36H68.5175V84.52H64.6775V50.92H50.3735V66.472H55.7495V70.408H59.0135V80.776H55.7495V84.616H4.0055V80.776H0.7415V70.408H4.0055V66.472H9.1895V18.952H4.0055V15.112H0.7415V4.744H4.0055V0.903996H55.7495ZM32.1335 66.472V18.952H27.3335V66.472H32.1335ZM101.607 4.07199V0.903996H175.143V4.07199H178.407V11.272H175.143V14.248H160.647V15.592H164.871V17.32H169.479V19.336H174.663V21.448H178.407V28.744H174.663V31.24H156.807V28.744H151.335V25.96H146.055V23.368H141.063V20.968H135.687V23.368H130.695V25.96H125.415V28.744H119.943V31.24H102.087V28.744H98.3428V21.448H102.087V19.336H107.271V17.32H111.879V15.592H116.103V14.248H101.607V11.272H98.3428V4.07199H101.607ZM95.1748 43.912V37.48H98.4388V34.216H178.311V37.48H181.575V43.912H178.311V47.176H98.4388V43.912H95.1748ZM119.559 74.44V77.32H176.679V80.008H179.751V85.672H176.679V88.36H102.183V85.192H99.1108V67.048H102.183V63.88H156.807V61.192H102.183V58.504H99.1108V52.744H102.183V50.056H174.183V53.224H177.351V71.368H174.183V74.44H119.559ZM261.733 35.272V38.344H254.533V42.568H270.757V46.024H274.213V54.76H270.757V58.312H217.669V54.76H214.117V46.024H217.669V42.568H235.717V38.344H227.749V35.272H224.197V32.104H220.645V28.84H217.285V10.312H220.645V7.048H224.197V3.88H227.749V0.903996H261.733V3.88H265.381V7.048H268.837V10.312H272.197V28.84H268.837V32.104H265.381V35.272H261.733ZM281.221 0.903996H294.373V4.744H298.117V22.504H303.589V25.96H306.277V36.808H303.589V40.264H298.117V60.616H294.373V64.456H281.221V60.616H277.381V4.744H281.221V0.903996ZM253.381 22.312V16.84H250.405V14.536H239.077V16.84H236.197V22.312H239.077V24.712H250.405V22.312H253.381ZM296.389 88.36H223.525V84.52H219.589V65.416H223.525V62.152H236.773V65.416H240.613V72.616H296.389V76.072H300.229V84.904H296.389V88.36ZM358.086 30.28H362.214V41.704H358.47V45.16H348.102V41.704H344.166V38.44H340.806V35.176H337.638V32.008H333.894V35.176H330.726V38.44H327.366V41.704H323.43V45.16H311.622V41.704H307.878V30.184H312.102V26.152H316.614V22.312H320.838V18.568H324.294V4.84H328.326V0.903996H342.726V4.84H346.758V19.432H350.214V23.08H353.958V26.632H358.086V30.28ZM370.95 26.632H359.91V22.888H355.686V13.672H359.91V10.024H370.95V4.168H374.886V0.903996H388.134V4.744H391.974V41.896H388.134V45.832H374.886V41.896H370.95V26.632ZM323.622 53.128V49.864H381.414V53.128H385.446V56.488H389.286V60.232H392.838V77.992H389.286V81.736H385.446V85.096H381.414V88.36H323.622V85.096H319.59V81.736H315.75V77.992H312.198V60.232H315.75V56.488H319.59V53.128H323.622ZM336.966 73.768H368.07V71.08H371.622V67.144H368.07V64.456H336.966V67.144H333.414V71.08H336.966V73.768ZM423.239 0.903996V4.36H426.983V56.68H423.431V60.136H409.415V56.68H405.959V4.36H409.703V0.903996H423.239ZM423.431 67.048V70.504H426.983V84.904H423.431V88.36H409.415V84.904H405.959V70.504H409.415V67.048H423.431Z" fill="white"/>
<path d="M55.7495 0.903996H65.7495V-9.096H55.7495V0.903996ZM55.7495 4.744H45.7495V14.744H55.7495V4.744ZM59.0135 4.744H69.0135V-5.256H59.0135V4.744ZM59.0135 15.112V25.112H69.0135V15.112H59.0135ZM55.7495 15.112V5.112H45.7495V15.112H55.7495ZM55.7495 18.952V28.952H65.7495V18.952H55.7495ZM50.3735 18.952V8.952H40.3735V18.952H50.3735ZM50.3735 32.488H40.3735V42.488H50.3735V32.488ZM64.6775 32.488V42.488H74.6775V32.488H64.6775ZM64.6775 4.744V-5.256H54.6775V4.744H64.6775ZM68.5175 4.744V14.744H78.5175V4.744H68.5175ZM68.5175 0.903996V-9.096H58.5175V0.903996H68.5175ZM82.0535 0.903996H92.0535V-9.096H82.0535V0.903996ZM82.0535 4.744H72.0535V14.744H82.0535V4.744ZM85.8935 4.744H95.8935V-5.256H85.8935V4.744ZM85.8935 84.52V94.52H95.8935V84.52H85.8935ZM82.0535 84.52V74.52H72.0535V84.52H82.0535ZM82.0535 88.36V98.36H92.0535V88.36H82.0535ZM68.5175 88.36H58.5175V98.36H68.5175V88.36ZM68.5175 84.52H78.5175V74.52H68.5175V84.52ZM64.6775 84.52H54.6775V94.52H64.6775V84.52ZM64.6775 50.92H74.6775V40.92H64.6775V50.92ZM50.3735 50.92V40.92H40.3735V50.92H50.3735ZM50.3735 66.472H40.3735V76.472H50.3735V66.472ZM55.7495 66.472H65.7495V56.472H55.7495V66.472ZM55.7495 70.408H45.7495V80.408H55.7495V70.408ZM59.0135 70.408H69.0135V60.408H59.0135V70.408ZM59.0135 80.776V90.776H69.0135V80.776H59.0135ZM55.7495 80.776V70.776H45.7495V80.776H55.7495ZM55.7495 84.616V94.616H65.7495V84.616H55.7495ZM4.0055 84.616H-5.9945V94.616H4.0055V84.616ZM4.0055 80.776H14.0055V70.776H4.0055V80.776ZM0.7415 80.776H-9.2585V90.776H0.7415V80.776ZM0.7415 70.408V60.408H-9.2585V70.408H0.7415ZM4.0055 70.408V80.408H14.0055V70.408H4.0055ZM4.0055 66.472V56.472H-5.9945V66.472H4.0055ZM9.1895 66.472V76.472H19.1895V66.472H9.1895ZM9.1895 18.952H19.1895V8.952H9.1895V18.952ZM4.0055 18.952H-5.9945V28.952H4.0055V18.952ZM4.0055 15.112H14.0055V5.112H4.0055V15.112ZM0.7415 15.112H-9.2585V25.112H0.7415V15.112ZM0.7415 4.744V-5.256H-9.2585V4.744H0.7415ZM4.0055 4.744V14.744H14.0055V4.744H4.0055ZM4.0055 0.903996V-9.096H-5.9945V0.903996H4.0055ZM32.1335 66.472V76.472H42.1335V66.472H32.1335ZM32.1335 18.952H42.1335V8.952H32.1335V18.952ZM27.3335 18.952V8.952H17.3335V18.952H27.3335ZM27.3335 66.472H17.3335V76.472H27.3335V66.472ZM45.7495 0.903996V4.744H65.7495V0.903996H45.7495ZM55.7495 14.744H59.0135V-5.256H55.7495V14.744ZM49.0135 4.744V15.112H69.0135V4.744H49.0135ZM59.0135 5.112H55.7495V25.112H59.0135V5.112ZM45.7495 15.112V18.952H65.7495V15.112H45.7495ZM55.7495 8.952H50.3735V28.952H55.7495V8.952ZM40.3735 18.952V32.488H60.3735V18.952H40.3735ZM50.3735 42.488H64.6775V22.488H50.3735V42.488ZM74.6775 32.488V4.744H54.6775V32.488H74.6775ZM64.6775 14.744H68.5175V-5.256H64.6775V14.744ZM78.5175 4.744V0.903996H58.5175V4.744H78.5175ZM68.5175 10.904H82.0535V-9.096H68.5175V10.904ZM72.0535 0.903996V4.744H92.0535V0.903996H72.0535ZM82.0535 14.744H85.8935V-5.256H82.0535V14.744ZM75.8935 4.744V84.52H95.8935V4.744H75.8935ZM85.8935 74.52H82.0535V94.52H85.8935V74.52ZM72.0535 84.52V88.36H92.0535V84.52H72.0535ZM82.0535 78.36H68.5175V98.36H82.0535V78.36ZM78.5175 88.36V84.52H58.5175V88.36H78.5175ZM68.5175 74.52H64.6775V94.52H68.5175V74.52ZM74.6775 84.52V50.92H54.6775V84.52H74.6775ZM64.6775 40.92H50.3735V60.92H64.6775V40.92ZM40.3735 50.92V66.472H60.3735V50.92H40.3735ZM50.3735 76.472H55.7495V56.472H50.3735V76.472ZM45.7495 66.472V70.408H65.7495V66.472H45.7495ZM55.7495 80.408H59.0135V60.408H55.7495V80.408ZM49.0135 70.408V80.776H69.0135V70.408H49.0135ZM59.0135 70.776H55.7495V90.776H59.0135V70.776ZM45.7495 80.776V84.616H65.7495V80.776H45.7495ZM55.7495 74.616H4.0055V94.616H55.7495V74.616ZM14.0055 84.616V80.776H-5.9945V84.616H14.0055ZM4.0055 70.776H0.7415V90.776H4.0055V70.776ZM10.7415 80.776V70.408H-9.2585V80.776H10.7415ZM0.7415 80.408H4.0055V60.408H0.7415V80.408ZM14.0055 70.408V66.472H-5.9945V70.408H14.0055ZM4.0055 76.472H9.1895V56.472H4.0055V76.472ZM19.1895 66.472V18.952H-0.8105V66.472H19.1895ZM9.1895 8.952H4.0055V28.952H9.1895V8.952ZM14.0055 18.952V15.112H-5.9945V18.952H14.0055ZM4.0055 5.112H0.7415V25.112H4.0055V5.112ZM10.7415 15.112V4.744H-9.2585V15.112H10.7415ZM0.7415 14.744H4.0055V-5.256H0.7415V14.744ZM14.0055 4.744V0.903996H-5.9945V4.744H14.0055ZM4.0055 10.904H55.7495V-9.096H4.0055V10.904ZM42.1335 66.472V18.952H22.1335V66.472H42.1335ZM32.1335 8.952H27.3335V28.952H32.1335V8.952ZM17.3335 18.952V66.472H37.3335V18.952H17.3335ZM27.3335 76.472H32.1335V56.472H27.3335V76.472ZM101.607 4.07199V14.072H111.607V4.07199H101.607ZM101.607 0.903996V-9.096H91.6068V0.903996H101.607ZM175.143 0.903996H185.143V-9.096H175.143V0.903996ZM175.143 4.07199H165.143V14.072H175.143V4.07199ZM178.407 4.07199H188.407V-5.92801H178.407V4.07199ZM178.407 11.272V21.272H188.407V11.272H178.407ZM175.143 11.272V1.272H165.143V11.272H175.143ZM175.143 14.248V24.248H185.143V14.248H175.143ZM160.647 14.248V4.248H150.647V14.248H160.647ZM160.647 15.592H150.647V25.592H160.647V15.592ZM164.871 15.592H174.871V5.592H164.871V15.592ZM164.871 17.32H154.871V27.32H164.871V17.32ZM169.479 17.32H179.479V7.32H169.479V17.32ZM169.479 19.336H159.479V29.336H169.479V19.336ZM174.663 19.336H184.663V9.336H174.663V19.336ZM174.663 21.448H164.663V31.448H174.663V21.448ZM178.407 21.448H188.407V11.448H178.407V21.448ZM178.407 28.744V38.744H188.407V28.744H178.407ZM174.663 28.744V18.744H164.663V28.744H174.663ZM174.663 31.24V41.24H184.663V31.24H174.663ZM156.807 31.24H146.807V41.24H156.807V31.24ZM156.807 28.744H166.807V18.744H156.807V28.744ZM151.335 28.744H141.335V38.744H151.335V28.744ZM151.335 25.96H161.335V15.96H151.335V25.96ZM146.055 25.96H136.055V35.96H146.055V25.96ZM146.055 23.368H156.055V13.368H146.055V23.368ZM141.063 23.368H131.063V33.368H141.063V23.368ZM141.063 20.968H151.063V10.968H141.063V20.968ZM135.687 20.968V10.968H125.687V20.968H135.687ZM135.687 23.368V33.368H145.687V23.368H135.687ZM130.695 23.368V13.368H120.695V23.368H130.695ZM130.695 25.96V35.96H140.695V25.96H130.695ZM125.415 25.96V15.96H115.415V25.96H125.415ZM125.415 28.744V38.744H135.415V28.744H125.415ZM119.943 28.744V18.744H109.943V28.744H119.943ZM119.943 31.24V41.24H129.943V31.24H119.943ZM102.087 31.24H92.0868V41.24H102.087V31.24ZM102.087 28.744H112.087V18.744H102.087V28.744ZM98.3428 28.744H88.3428V38.744H98.3428V28.744ZM98.3428 21.448V11.448H88.3428V21.448H98.3428ZM102.087 21.448V31.448H112.087V21.448H102.087ZM102.087 19.336V9.336H92.0868V19.336H102.087ZM107.271 19.336V29.336H117.271V19.336H107.271ZM107.271 17.32V7.32H97.2708V17.32H107.271ZM111.879 17.32V27.32H121.879V17.32H111.879ZM111.879 15.592V5.592H101.879V15.592H111.879ZM116.103 15.592V25.592H126.103V15.592H116.103ZM116.103 14.248H126.103V4.248H116.103V14.248ZM101.607 14.248H91.6068V24.248H101.607V14.248ZM101.607 11.272H111.607V1.272H101.607V11.272ZM98.3428 11.272H88.3428V21.272H98.3428V11.272ZM98.3428 4.07199V-5.92801H88.3428V4.07199H98.3428ZM95.1748 43.912H85.1748V53.912H95.1748V43.912ZM95.1748 37.48V27.48H85.1748V37.48H95.1748ZM98.4388 37.48V47.48H108.439V37.48H98.4388ZM98.4388 34.216V24.216H88.4388V34.216H98.4388ZM178.311 34.216H188.311V24.216H178.311V34.216ZM178.311 37.48H168.311V47.48H178.311V37.48ZM181.575 37.48H191.575V27.48H181.575V37.48ZM181.575 43.912V53.912H191.575V43.912H181.575ZM178.311 43.912V33.912H168.311V43.912H178.311ZM178.311 47.176V57.176H188.311V47.176H178.311ZM98.4388 47.176H88.4388V57.176H98.4388V47.176ZM98.4388 43.912H108.439V33.912H98.4388V43.912ZM119.559 74.44V64.44H109.559V74.44H119.559ZM119.559 77.32H109.559V87.32H119.559V77.32ZM176.679 77.32H186.679V67.32H176.679V77.32ZM176.679 80.008H166.679V90.008H176.679V80.008ZM179.751 80.008H189.751V70.008H179.751V80.008ZM179.751 85.672V95.672H189.751V85.672H179.751ZM176.679 85.672V75.672H166.679V85.672H176.679ZM176.679 88.36V98.36H186.679V88.36H176.679ZM102.183 88.36H92.1827V98.36H102.183V88.36ZM102.183 85.192H112.183V75.192H102.183V85.192ZM99.1107 85.192H89.1107V95.192H99.1107V85.192ZM99.1107 67.048V57.048H89.1107V67.048H99.1107ZM102.183 67.048V77.048H112.183V67.048H102.183ZM102.183 63.88V53.88H92.1827V63.88H102.183ZM156.807 63.88V73.88H166.807V63.88H156.807ZM156.807 61.192H166.807V51.192H156.807V61.192ZM102.183 61.192H92.1827V71.192H102.183V61.192ZM102.183 58.504H112.183V48.504H102.183V58.504ZM99.1107 58.504H89.1107V68.504H99.1107V58.504ZM99.1107 52.744V42.744H89.1107V52.744H99.1107ZM102.183 52.744V62.744H112.183V52.744H102.183ZM102.183 50.056V40.056H92.1827V50.056H102.183ZM174.183 50.056H184.183V40.056H174.183V50.056ZM174.183 53.224H164.183V63.224H174.183V53.224ZM177.351 53.224H187.351V43.224H177.351V53.224ZM177.351 71.368V81.368H187.351V71.368H177.351ZM174.183 71.368V61.368H164.183V71.368H174.183ZM174.183 74.44V84.44H184.183V74.44H174.183ZM111.607 4.07199V0.903996H91.6068V4.07199H111.607ZM101.607 10.904H175.143V-9.096H101.607V10.904ZM165.143 0.903996V4.07199H185.143V0.903996H165.143ZM175.143 14.072H178.407V-5.92801H175.143V14.072ZM168.407 4.07199V11.272H188.407V4.07199H168.407ZM178.407 1.272H175.143V21.272H178.407V1.272ZM165.143 11.272V14.248H185.143V11.272H165.143ZM175.143 4.248H160.647V24.248H175.143V4.248ZM150.647 14.248V15.592H170.647V14.248H150.647ZM160.647 25.592H164.871V5.592H160.647V25.592ZM154.871 15.592V17.32H174.871V15.592H154.871ZM164.871 27.32H169.479V7.32H164.871V27.32ZM159.479 17.32V19.336H179.479V17.32H159.479ZM169.479 29.336H174.663V9.336H169.479V29.336ZM164.663 19.336V21.448H184.663V19.336H164.663ZM174.663 31.448H178.407V11.448H174.663V31.448ZM168.407 21.448V28.744H188.407V21.448H168.407ZM178.407 18.744H174.663V38.744H178.407V18.744ZM164.663 28.744V31.24H184.663V28.744H164.663ZM174.663 21.24H156.807V41.24H174.663V21.24ZM166.807 31.24V28.744H146.807V31.24H166.807ZM156.807 18.744H151.335V38.744H156.807V18.744ZM161.335 28.744V25.96H141.335V28.744H161.335ZM151.335 15.96H146.055V35.96H151.335V15.96ZM156.055 25.96V23.368H136.055V25.96H156.055ZM146.055 13.368H141.063V33.368H146.055V13.368ZM151.063 23.368V20.968H131.063V23.368H151.063ZM141.063 10.968H135.687V30.968H141.063V10.968ZM125.687 20.968V23.368H145.687V20.968H125.687ZM135.687 13.368H130.695V33.368H135.687V13.368ZM120.695 23.368V25.96H140.695V23.368H120.695ZM130.695 15.96H125.415V35.96H130.695V15.96ZM115.415 25.96V28.744H135.415V25.96H115.415ZM125.415 18.744H119.943V38.744H125.415V18.744ZM109.943 28.744V31.24H129.943V28.744H109.943ZM119.943 21.24H102.087V41.24H119.943V21.24ZM112.087 31.24V28.744H92.0868V31.24H112.087ZM102.087 18.744H98.3428V38.744H102.087V18.744ZM108.343 28.744V21.448H88.3428V28.744H108.343ZM98.3428 31.448H102.087V11.448H98.3428V31.448ZM112.087 21.448V19.336H92.0868V21.448H112.087ZM102.087 29.336H107.271V9.336H102.087V29.336ZM117.271 19.336V17.32H97.2708V19.336H117.271ZM107.271 27.32H111.879V7.32H107.271V27.32ZM121.879 17.32V15.592H101.879V17.32H121.879ZM111.879 25.592H116.103V5.592H111.879V25.592ZM126.103 15.592V14.248H106.103V15.592H126.103ZM116.103 4.248H101.607V24.248H116.103V4.248ZM111.607 14.248V11.272H91.6068V14.248H111.607ZM101.607 1.272H98.3428V21.272H101.607V1.272ZM108.343 11.272V4.07199H88.3428V11.272H108.343ZM98.3428 14.072H101.607V-5.92801H98.3428V14.072ZM105.175 43.912V37.48H85.1748V43.912H105.175ZM95.1748 47.48H98.4388V27.48H95.1748V47.48ZM108.439 37.48V34.216H88.4388V37.48H108.439ZM98.4388 44.216H178.311V24.216H98.4388V44.216ZM168.311 34.216V37.48H188.311V34.216H168.311ZM178.311 47.48H181.575V27.48H178.311V47.48ZM171.575 37.48V43.912H191.575V37.48H171.575ZM181.575 33.912H178.311V53.912H181.575V33.912ZM168.311 43.912V47.176H188.311V43.912H168.311ZM178.311 37.176H98.4388V57.176H178.311V37.176ZM108.439 47.176V43.912H88.4388V47.176H108.439ZM98.4388 33.912H95.1748V53.912H98.4388V33.912ZM109.559 74.44V77.32H129.559V74.44H109.559ZM119.559 87.32H176.679V67.32H119.559V87.32ZM166.679 77.32V80.008H186.679V77.32H166.679ZM176.679 90.008H179.751V70.008H176.679V90.008ZM169.751 80.008V85.672H189.751V80.008H169.751ZM179.751 75.672H176.679V95.672H179.751V75.672ZM166.679 85.672V88.36H186.679V85.672H166.679ZM176.679 78.36H102.183V98.36H176.679V78.36ZM112.183 88.36V85.192H92.1827V88.36H112.183ZM102.183 75.192H99.1107V95.192H102.183V75.192ZM109.111 85.192V67.048H89.1107V85.192H109.111ZM99.1107 77.048H102.183V57.048H99.1107V77.048ZM112.183 67.048V63.88H92.1827V67.048H112.183ZM102.183 73.88H156.807V53.88H102.183V73.88ZM166.807 63.88V61.192H146.807V63.88H166.807ZM156.807 51.192H102.183V71.192H156.807V51.192ZM112.183 61.192V58.504H92.1827V61.192H112.183ZM102.183 48.504H99.1107V68.504H102.183V48.504ZM109.111 58.504V52.744H89.1107V58.504H109.111ZM99.1107 62.744H102.183V42.744H99.1107V62.744ZM112.183 52.744V50.056H92.1827V52.744H112.183ZM102.183 60.056H174.183V40.056H102.183V60.056ZM164.183 50.056V53.224H184.183V50.056H164.183ZM174.183 63.224H177.351V43.224H174.183V63.224ZM167.351 53.224V71.368H187.351V53.224H167.351ZM177.351 61.368H174.183V81.368H177.351V61.368ZM164.183 71.368V74.44H184.183V71.368H164.183ZM174.183 64.44H119.559V84.44H174.183V64.44ZM261.733 35.272V25.272H251.732V35.272H261.733ZM261.733 38.344V48.344H271.733V38.344H261.733ZM254.533 38.344V28.344H244.533V38.344H254.533ZM254.533 42.568H244.533V52.568H254.533V42.568ZM270.757 42.568H280.757V32.568H270.757V42.568ZM270.757 46.024H260.757V56.024H270.757V46.024ZM274.212 46.024H284.212V36.024H274.212V46.024ZM274.212 54.76V64.76H284.212V54.76H274.212ZM270.757 54.76V44.76H260.757V54.76H270.757ZM270.757 58.312V68.312H280.757V58.312H270.757ZM217.669 58.312H207.669V68.312H217.669V58.312ZM217.669 54.76H227.669V44.76H217.669V54.76ZM214.117 54.76H204.117V64.76H214.117V54.76ZM214.117 46.024V36.024H204.117V46.024H214.117ZM217.669 46.024V56.024H227.669V46.024H217.669ZM217.669 42.568V32.568H207.669V42.568H217.669ZM235.717 42.568V52.568H245.717V42.568H235.717ZM235.717 38.344H245.717V28.344H235.717V38.344ZM227.749 38.344H217.749V48.344H227.749V38.344ZM227.749 35.272H237.749V25.272H227.749V35.272ZM224.197 35.272H214.197V45.272H224.197V35.272ZM224.197 32.104H234.197V22.104H224.197V32.104ZM220.645 32.104H210.645V42.104H220.645V32.104ZM220.645 28.84H230.645V18.84H220.645V28.84ZM217.285 28.84H207.285V38.84H217.285V28.84ZM217.285 10.312V0.311995H207.285V10.312H217.285ZM220.645 10.312V20.312H230.645V10.312H220.645ZM220.645 7.048V-2.952H210.645V7.048H220.645ZM224.197 7.048V17.048H234.197V7.048H224.197ZM224.197 3.88V-6.12H214.197V3.88H224.197ZM227.749 3.88V13.88H237.749V3.88H227.749ZM227.749 0.903996V-9.096H217.749V0.903996H227.749ZM261.733 0.903996H271.733V-9.096H261.733V0.903996ZM261.733 3.88H251.732V13.88H261.733V3.88ZM265.38 3.88H275.38V-6.12H265.38V3.88ZM265.38 7.048H255.38V17.048H265.38V7.048ZM268.837 7.048H278.837V-2.952H268.837V7.048ZM268.837 10.312H258.837V20.312H268.837V10.312ZM272.197 10.312H282.197V0.311995H272.197V10.312ZM272.197 28.84V38.84H282.197V28.84H272.197ZM268.837 28.84V18.84H258.837V28.84H268.837ZM268.837 32.104V42.104H278.837V32.104H268.837ZM265.38 32.104V22.104H255.38V32.104H265.38ZM265.38 35.272V45.272H275.38V35.272H265.38ZM281.221 0.903996V-9.096H271.221V0.903996H281.221ZM294.372 0.903996H304.372V-9.096H294.372V0.903996ZM294.372 4.744H284.372V14.744H294.372V4.744ZM298.117 4.744H308.117V-5.256H298.117V4.744ZM298.117 22.504H288.117V32.504H298.117V22.504ZM303.589 22.504H313.589V12.504H303.589V22.504ZM303.589 25.96H293.589V35.96H303.589V25.96ZM306.276 25.96H316.276V15.96H306.276V25.96ZM306.276 36.808V46.808H316.276V36.808H306.276ZM303.589 36.808V26.808H293.589V36.808H303.589ZM303.589 40.264V50.264H313.589V40.264H303.589ZM298.117 40.264V30.264H288.117V40.264H298.117ZM298.117 60.616V70.616H308.117V60.616H298.117ZM294.372 60.616V50.616H284.372V60.616H294.372ZM294.372 64.456V74.456H304.372V64.456H294.372ZM281.221 64.456H271.221V74.456H281.221V64.456ZM281.221 60.616H291.221V50.616H281.221V60.616ZM277.38 60.616H267.38V70.616H277.38V60.616ZM277.38 4.744V-5.256H267.38V4.744H277.38ZM281.221 4.744V14.744H291.221V4.744H281.221ZM253.381 22.312V32.312H263.38V22.312H253.381ZM253.381 16.84H263.38V6.84H253.381V16.84ZM250.404 16.84H240.404V26.84H250.404V16.84ZM250.404 14.536H260.405V4.536H250.404V14.536ZM239.077 14.536V4.536H229.077V14.536H239.077ZM239.077 16.84V26.84H249.077V16.84H239.077ZM236.197 16.84V6.84H226.197V16.84H236.197ZM236.197 22.312H226.197V32.312H236.197V22.312ZM239.077 22.312H249.077V12.312H239.077V22.312ZM239.077 24.712H229.077V34.712H239.077V24.712ZM250.404 24.712V34.712H260.405V24.712H250.404ZM250.404 22.312V12.312H240.404V22.312H250.404ZM296.388 88.36V98.36H306.388V88.36H296.388ZM223.525 88.36H213.525V98.36H223.525V88.36ZM223.525 84.52H233.525V74.52H223.525V84.52ZM219.589 84.52H209.589V94.52H219.589V84.52ZM219.589 65.416V55.416H209.589V65.416H219.589ZM223.525 65.416V75.416H233.525V65.416H223.525ZM223.525 62.152V52.152H213.525V62.152H223.525ZM236.773 62.152H246.773V52.152H236.773V62.152ZM236.773 65.416H226.773V75.416H236.773V65.416ZM240.613 65.416H250.613V55.416H240.613V65.416ZM240.613 72.616H230.613V82.616H240.613V72.616ZM296.388 72.616H306.388V62.616H296.388V72.616ZM296.388 76.072H286.388V86.072H296.388V76.072ZM300.229 76.072H310.229V66.072H300.229V76.072ZM300.229 84.904V94.904H310.229V84.904H300.229ZM296.388 84.904V74.904H286.388V84.904H296.388ZM251.732 35.272V38.344H271.733V35.272H251.732ZM261.733 28.344H254.533V48.344H261.733V28.344ZM244.533 38.344V42.568H264.533V38.344H244.533ZM254.533 52.568H270.757V32.568H254.533V52.568ZM260.757 42.568V46.024H280.757V42.568H260.757ZM270.757 56.024H274.212V36.024H270.757V56.024ZM264.212 46.024V54.76H284.212V46.024H264.212ZM274.212 44.76H270.757V64.76H274.212V44.76ZM260.757 54.76V58.312H280.757V54.76H260.757ZM270.757 48.312H217.669V68.312H270.757V48.312ZM227.669 58.312V54.76H207.669V58.312H227.669ZM217.669 44.76H214.117V64.76H217.669V44.76ZM224.117 54.76V46.024H204.117V54.76H224.117ZM214.117 56.024H217.669V36.024H214.117V56.024ZM227.669 46.024V42.568H207.669V46.024H227.669ZM217.669 52.568H235.717V32.568H217.669V52.568ZM245.717 42.568V38.344H225.717V42.568H245.717ZM235.717 28.344H227.749V48.344H235.717V28.344ZM237.749 38.344V35.272H217.749V38.344H237.749ZM227.749 25.272H224.197V45.272H227.749V25.272ZM234.197 35.272V32.104H214.197V35.272H234.197ZM224.197 22.104H220.645V42.104H224.197V22.104ZM230.645 32.104V28.84H210.645V32.104H230.645ZM220.645 18.84H217.285V38.84H220.645V18.84ZM227.285 28.84V10.312H207.285V28.84H227.285ZM217.285 20.312H220.645V0.311995H217.285V20.312ZM230.645 10.312V7.048H210.645V10.312H230.645ZM220.645 17.048H224.197V-2.952H220.645V17.048ZM234.197 7.048V3.88H214.197V7.048H234.197ZM224.197 13.88H227.749V-6.12H224.197V13.88ZM237.749 3.88V0.903996H217.749V3.88H237.749ZM227.749 10.904H261.733V-9.096H227.749V10.904ZM251.732 0.903996V3.88H271.733V0.903996H251.732ZM261.733 13.88H265.38V-6.12H261.733V13.88ZM255.38 3.88V7.048H275.38V3.88H255.38ZM265.38 17.048H268.837V-2.952H265.38V17.048ZM258.837 7.048V10.312H278.837V7.048H258.837ZM268.837 20.312H272.197V0.311995H268.837V20.312ZM262.197 10.312V28.84H282.197V10.312H262.197ZM272.197 18.84H268.837V38.84H272.197V18.84ZM258.837 28.84V32.104H278.837V28.84H258.837ZM268.837 22.104H265.38V42.104H268.837V22.104ZM255.38 32.104V35.272H275.38V32.104H255.38ZM265.38 25.272H261.733V45.272H265.38V25.272ZM281.221 10.904H294.372V-9.096H281.221V10.904ZM284.372 0.903996V4.744H304.372V0.903996H284.372ZM294.372 14.744H298.117V-5.256H294.372V14.744ZM288.117 4.744V22.504H308.117V4.744H288.117ZM298.117 32.504H303.589V12.504H298.117V32.504ZM293.589 22.504V25.96H313.589V22.504H293.589ZM303.589 35.96H306.276V15.96H303.589V35.96ZM296.276 25.96V36.808H316.276V25.96H296.276ZM306.276 26.808H303.589V46.808H306.276V26.808ZM293.589 36.808V40.264H313.589V36.808H293.589ZM303.589 30.264H298.117V50.264H303.589V30.264ZM288.117 40.264V60.616H308.117V40.264H288.117ZM298.117 50.616H294.372V70.616H298.117V50.616ZM284.372 60.616V64.456H304.372V60.616H284.372ZM294.372 54.456H281.221V74.456H294.372V54.456ZM291.221 64.456V60.616H271.221V64.456H291.221ZM281.221 50.616H277.38V70.616H281.221V50.616ZM287.38 60.616V4.744H267.38V60.616H287.38ZM277.38 14.744H281.221V-5.256H277.38V14.744ZM291.221 4.744V0.903996H271.221V4.744H291.221ZM263.38 22.312V16.84H243.381V22.312H263.38ZM253.381 6.84H250.404V26.84H253.381V6.84ZM260.405 16.84V14.536H240.404V16.84H260.405ZM250.404 4.536H239.077V24.536H250.404V4.536ZM229.077 14.536V16.84H249.077V14.536H229.077ZM239.077 6.84H236.197V26.84H239.077V6.84ZM226.197 16.84V22.312H246.197V16.84H226.197ZM236.197 32.312H239.077V12.312H236.197V32.312ZM229.077 22.312V24.712H249.077V22.312H229.077ZM239.077 34.712H250.404V14.712H239.077V34.712ZM260.405 24.712V22.312H240.404V24.712H260.405ZM250.404 32.312H253.381V12.312H250.404V32.312ZM296.388 78.36H223.525V98.36H296.388V78.36ZM233.525 88.36V84.52H213.525V88.36H233.525ZM223.525 74.52H219.589V94.52H223.525V74.52ZM229.589 84.52V65.416H209.589V84.52H229.589ZM219.589 75.416H223.525V55.416H219.589V75.416ZM233.525 65.416V62.152H213.525V65.416H233.525ZM223.525 72.152H236.773V52.152H223.525V72.152ZM226.773 62.152V65.416H246.773V62.152H226.773ZM236.773 75.416H240.613V55.416H236.773V75.416ZM230.613 65.416V72.616H250.613V65.416H230.613ZM240.613 82.616H296.388V62.616H240.613V82.616ZM286.388 72.616V76.072H306.388V72.616H286.388ZM296.388 86.072H300.229V66.072H296.388V86.072ZM290.229 76.072V84.904H310.229V76.072H290.229ZM300.229 74.904H296.388V94.904H300.229V74.904ZM286.388 84.904V88.36H306.388V84.904H286.388ZM358.086 30.28H348.086V40.28H358.086V30.28ZM362.214 30.28H372.214V20.28H362.214V30.28ZM362.214 41.704V51.704H372.214V41.704H362.214ZM358.47 41.704V31.704H348.47V41.704H358.47ZM358.47 45.16V55.16H368.47V45.16H358.47ZM348.102 45.16H338.102V55.16H348.102V45.16ZM348.102 41.704H358.102V31.704H348.102V41.704ZM344.166 41.704H334.166V51.704H344.166V41.704ZM344.166 38.44H354.166V28.44H344.166V38.44ZM340.806 38.44H330.806V48.44H340.806V38.44ZM340.806 35.176H350.806V25.176H340.806V35.176ZM337.638 35.176H327.638V45.176H337.638V35.176ZM337.638 32.008H347.638V22.008H337.638V32.008ZM333.894 32.008V22.008H323.894V32.008H333.894ZM333.894 35.176V45.176H343.894V35.176H333.894ZM330.726 35.176V25.176H320.726V35.176H330.726ZM330.726 38.44V48.44H340.726V38.44H330.726ZM327.366 38.44V28.44H317.366V38.44H327.366ZM327.366 41.704V51.704H337.366V41.704H327.366ZM323.43 41.704V31.704H313.43V41.704H323.43ZM323.43 45.16V55.16H333.43V45.16H323.43ZM311.622 45.16H301.622V55.16H311.622V45.16ZM311.622 41.704H321.622V31.704H311.622V41.704ZM307.878 41.704H297.878V51.704H307.878V41.704ZM307.878 30.184V20.184H297.878V30.184H307.878ZM312.102 30.184V40.184H322.102V30.184H312.102ZM312.102 26.152V16.152H302.102V26.152H312.102ZM316.614 26.152V36.152H326.614V26.152H316.614ZM316.614 22.312V12.312H306.614V22.312H316.614ZM320.838 22.312V32.312H330.838V22.312H320.838ZM320.838 18.568V8.568H310.838V18.568H320.838ZM324.294 18.568V28.568H334.294V18.568H324.294ZM324.294 4.84V-5.16H314.294V4.84H324.294ZM328.326 4.84V14.84H338.326V4.84H328.326ZM328.326 0.903996V-9.096H318.326V0.903996H328.326ZM342.726 0.903996H352.726V-9.096H342.726V0.903996ZM342.726 4.84H332.726V14.84H342.726V4.84ZM346.758 4.84H356.758V-5.16H346.758V4.84ZM346.758 19.432H336.758V29.432H346.758V19.432ZM350.214 19.432H360.214V9.432H350.214V19.432ZM350.214 23.08H340.214V33.08H350.214V23.08ZM353.958 23.08H363.958V13.08H353.958V23.08ZM353.958 26.632H343.958V36.632H353.958V26.632ZM358.086 26.632H368.086V16.632H358.086V26.632ZM370.95 26.632H380.95V16.632H370.95V26.632ZM359.91 26.632H349.91V36.632H359.91V26.632ZM359.91 22.888H369.91V12.888H359.91V22.888ZM355.686 22.888H345.686V32.888H355.686V22.888ZM355.686 13.672V3.672H345.686V13.672H355.686ZM359.91 13.672V23.672H369.91V13.672H359.91ZM359.91 10.024V0.0239983H349.91V10.024H359.91ZM370.95 10.024V20.024H380.95V10.024H370.95ZM370.95 4.168V-5.832H360.95V4.168H370.95ZM374.886 4.168V14.168H384.886V4.168H374.886ZM374.886 0.903996V-9.096H364.886V0.903996H374.886ZM388.134 0.903996H398.134V-9.096H388.134V0.903996ZM388.134 4.744H378.134V14.744H388.134V4.744ZM391.974 4.744H401.974V-5.256H391.974V4.744ZM391.974 41.896V51.896H401.974V41.896H391.974ZM388.134 41.896V31.896H378.134V41.896H388.134ZM388.134 45.832V55.832H398.134V45.832H388.134ZM374.886 45.832H364.886V55.832H374.886V45.832ZM374.886 41.896H384.886V31.896H374.886V41.896ZM370.95 41.896H360.95V51.896H370.95V41.896ZM323.622 53.128V63.128H333.622V53.128H323.622ZM323.622 49.864V39.864H313.622V49.864H323.622ZM381.414 49.864H391.414V39.864H381.414V49.864ZM381.414 53.128H371.414V63.128H381.414V53.128ZM385.446 53.128H395.446V43.128H385.446V53.128ZM385.446 56.488H375.446V66.488H385.446V56.488ZM389.286 56.488H399.286V46.488H389.286V56.488ZM389.286 60.232H379.286V70.232H389.286V60.232ZM392.838 60.232H402.838V50.232H392.838V60.232ZM392.838 77.992V87.992H402.838V77.992H392.838ZM389.286 77.992V67.992H379.286V77.992H389.286ZM389.286 81.736V91.736H399.286V81.736H389.286ZM385.446 81.736V71.736H375.446V81.736H385.446ZM385.446 85.096V95.096H395.446V85.096H385.446ZM381.414 85.096V75.096H371.414V85.096H381.414ZM381.414 88.36V98.36H391.414V88.36H381.414ZM323.622 88.36H313.622V98.36H323.622V88.36ZM323.622 85.096H333.622V75.096H323.622V85.096ZM319.59 85.096H309.59V95.096H319.59V85.096ZM319.59 81.736H329.59V71.736H319.59V81.736ZM315.75 81.736H305.75V91.736H315.75V81.736ZM315.75 77.992H325.75V67.992H315.75V77.992ZM312.198 77.992H302.198V87.992H312.198V77.992ZM312.198 60.232V50.232H302.198V60.232H312.198ZM315.75 60.232V70.232H325.75V60.232H315.75ZM315.75 56.488V46.488H305.75V56.488H315.75ZM319.59 56.488V66.488H329.59V56.488H319.59ZM319.59 53.128V43.128H309.59V53.128H319.59ZM336.966 73.768H326.966V83.768H336.966V73.768ZM368.07 73.768V83.768H378.07V73.768H368.07ZM368.07 71.08V61.08H358.07V71.08H368.07ZM371.622 71.08V81.08H381.622V71.08H371.622ZM371.622 67.144H381.622V57.144H371.622V67.144ZM368.07 67.144H358.07V77.144H368.07V67.144ZM368.07 64.456H378.07V54.456H368.07V64.456ZM336.966 64.456V54.456H326.966V64.456H336.966ZM336.966 67.144V77.144H346.966V67.144H336.966ZM333.414 67.144V57.144H323.414V67.144H333.414ZM333.414 71.08H323.414V81.08H333.414V71.08ZM336.966 71.08H346.966V61.08H336.966V71.08ZM358.086 40.28H362.214V20.28H358.086V40.28ZM352.214 30.28V41.704H372.214V30.28H352.214ZM362.214 31.704H358.47V51.704H362.214V31.704ZM348.47 41.704V45.16H368.47V41.704H348.47ZM358.47 35.16H348.102V55.16H358.47V35.16ZM358.102 45.16V41.704H338.102V45.16H358.102ZM348.102 31.704H344.166V51.704H348.102V31.704ZM354.166 41.704V38.44H334.166V41.704H354.166ZM344.166 28.44H340.806V48.44H344.166V28.44ZM350.806 38.44V35.176H330.806V38.44H350.806ZM340.806 25.176H337.638V45.176H340.806V25.176ZM347.638 35.176V32.008H327.638V35.176H347.638ZM337.638 22.008H333.894V42.008H337.638V22.008ZM323.894 32.008V35.176H343.894V32.008H323.894ZM333.894 25.176H330.726V45.176H333.894V25.176ZM320.726 35.176V38.44H340.726V35.176H320.726ZM330.726 28.44H327.366V48.44H330.726V28.44ZM317.366 38.44V41.704H337.366V38.44H317.366ZM327.366 31.704H323.43V51.704H327.366V31.704ZM313.43 41.704V45.16H333.43V41.704H313.43ZM323.43 35.16H311.622V55.16H323.43V35.16ZM321.622 45.16V41.704H301.622V45.16H321.622ZM311.622 31.704H307.878V51.704H311.622V31.704ZM317.878 41.704V30.184H297.878V41.704H317.878ZM307.878 40.184H312.102V20.184H307.878V40.184ZM322.102 30.184V26.152H302.102V30.184H322.102ZM312.102 36.152H316.614V16.152H312.102V36.152ZM326.614 26.152V22.312H306.614V26.152H326.614ZM316.614 32.312H320.838V12.312H316.614V32.312ZM330.838 22.312V18.568H310.838V22.312H330.838ZM320.838 28.568H324.294V8.568H320.838V28.568ZM334.294 18.568V4.84H314.294V18.568H334.294ZM324.294 14.84H328.326V-5.16H324.294V14.84ZM338.326 4.84V0.903996H318.326V4.84H338.326ZM328.326 10.904H342.726V-9.096H328.326V10.904ZM332.726 0.903996V4.84H352.726V0.903996H332.726ZM342.726 14.84H346.758V-5.16H342.726V14.84ZM336.758 4.84V19.432H356.758V4.84H336.758ZM346.758 29.432H350.214V9.432H346.758V29.432ZM340.214 19.432V23.08H360.214V19.432H340.214ZM350.214 33.08H353.958V13.08H350.214V33.08ZM343.958 23.08V26.632H363.958V23.08H343.958ZM353.958 36.632H358.086V16.632H353.958V36.632ZM348.086 26.632V30.28H368.086V26.632H348.086ZM370.95 16.632H359.91V36.632H370.95V16.632ZM369.91 26.632V22.888H349.91V26.632H369.91ZM359.91 12.888H355.686V32.888H359.91V12.888ZM365.686 22.888V13.672H345.686V22.888H365.686ZM355.686 23.672H359.91V3.672H355.686V23.672ZM369.91 13.672V10.024H349.91V13.672H369.91ZM359.91 20.024H370.95V0.0239983H359.91V20.024ZM380.95 10.024V4.168H360.95V10.024H380.95ZM370.95 14.168H374.886V-5.832H370.95V14.168ZM384.886 4.168V0.903996H364.886V4.168H384.886ZM374.886 10.904H388.134V-9.096H374.886V10.904ZM378.134 0.903996V4.744H398.134V0.903996H378.134ZM388.134 14.744H391.974V-5.256H388.134V14.744ZM381.974 4.744V41.896H401.974V4.744H381.974ZM391.974 31.896H388.134V51.896H391.974V31.896ZM378.134 41.896V45.832H398.134V41.896H378.134ZM388.134 35.832H374.886V55.832H388.134V35.832ZM384.886 45.832V41.896H364.886V45.832H384.886ZM374.886 31.896H370.95V51.896H374.886V31.896ZM380.95 41.896V26.632H360.95V41.896H380.95ZM333.622 53.128V49.864H313.622V53.128H333.622ZM323.622 59.864H381.414V39.864H323.622V59.864ZM371.414 49.864V53.128H391.414V49.864H371.414ZM381.414 63.128H385.446V43.128H381.414V63.128ZM375.446 53.128V56.488H395.446V53.128H375.446ZM385.446 66.488H389.286V46.488H385.446V66.488ZM379.286 56.488V60.232H399.286V56.488H379.286ZM389.286 70.232H392.838V50.232H389.286V70.232ZM382.838 60.232V77.992H402.838V60.232H382.838ZM392.838 67.992H389.286V87.992H392.838V67.992ZM379.286 77.992V81.736H399.286V77.992H379.286ZM389.286 71.736H385.446V91.736H389.286V71.736ZM375.446 81.736V85.096H395.446V81.736H375.446ZM385.446 75.096H381.414V95.096H385.446V75.096ZM371.414 85.096V88.36H391.414V85.096H371.414ZM381.414 78.36H323.622V98.36H381.414V78.36ZM333.622 88.36V85.096H313.622V88.36H333.622ZM323.622 75.096H319.59V95.096H323.622V75.096ZM329.59 85.096V81.736H309.59V85.096H329.59ZM319.59 71.736H315.75V91.736H319.59V71.736ZM325.75 81.736V77.992H305.75V81.736H325.75ZM315.75 67.992H312.198V87.992H315.75V67.992ZM322.198 77.992V60.232H302.198V77.992H322.198ZM312.198 70.232H315.75V50.232H312.198V70.232ZM325.75 60.232V56.488H305.75V60.232H325.75ZM315.75 66.488H319.59V46.488H315.75V66.488ZM329.59 56.488V53.128H309.59V56.488H329.59ZM319.59 63.128H323.622V43.128H319.59V63.128ZM336.966 83.768H368.07V63.768H336.966V83.768ZM378.07 73.768V71.08H358.07V73.768H378.07ZM368.07 81.08H371.622V61.08H368.07V81.08ZM381.622 71.08V67.144H361.622V71.08H381.622ZM371.622 57.144H368.07V77.144H371.622V57.144ZM378.07 67.144V64.456H358.07V67.144H378.07ZM368.07 54.456H336.966V74.456H368.07V54.456ZM326.966 64.456V67.144H346.966V64.456H326.966ZM336.966 57.144H333.414V77.144H336.966V57.144ZM323.414 67.144V71.08H343.414V67.144H323.414ZM333.414 81.08H336.966V61.08H333.414V81.08ZM326.966 71.08V73.768H346.966V71.08H326.966ZM423.239 0.903996H433.239V-9.096H423.239V0.903996ZM423.239 4.36H413.239V14.36H423.239V4.36ZM426.983 4.36H436.983V-5.64H426.983V4.36ZM426.983 56.68V66.68H436.983V56.68H426.983ZM423.431 56.68V46.68H413.431V56.68H423.431ZM423.431 60.136V70.136H433.431V60.136H423.431ZM409.415 60.136H399.415V70.136H409.415V60.136ZM409.415 56.68H419.415V46.68H409.415V56.68ZM405.959 56.68H395.959V66.68H405.959V56.68ZM405.959 4.36V-5.64H395.959V4.36H405.959ZM409.703 4.36V14.36H419.703V4.36H409.703ZM409.703 0.903996V-9.096H399.703V0.903996H409.703ZM423.431 67.048H433.431V57.048H423.431V67.048ZM423.431 70.504H413.431V80.504H423.431V70.504ZM426.983 70.504H436.983V60.504H426.983V70.504ZM426.983 84.904V94.904H436.983V84.904H426.983ZM423.431 84.904V74.904H413.431V84.904H423.431ZM423.431 88.36V98.36H433.431V88.36H423.431ZM409.415 88.36H399.415V98.36H409.415V88.36ZM409.415 84.904H419.415V74.904H409.415V84.904ZM405.959 84.904H395.959V94.904H405.959V84.904ZM405.959 70.504V60.504H395.959V70.504H405.959ZM409.415 70.504V80.504H419.415V70.504H409.415ZM409.415 67.048V57.048H399.415V67.048H409.415ZM413.239 0.903996V4.36H433.239V0.903996H413.239ZM423.239 14.36H426.983V-5.64H423.239V14.36ZM416.983 4.36V56.68H436.983V4.36H416.983ZM426.983 46.68H423.431V66.68H426.983V46.68ZM413.431 56.68V60.136H433.431V56.68H413.431ZM423.431 50.136H409.415V70.136H423.431V50.136ZM419.415 60.136V56.68H399.415V60.136H419.415ZM409.415 46.68H405.959V66.68H409.415V46.68ZM415.959 56.68V4.36H395.959V56.68H415.959ZM405.959 14.36H409.703V-5.64H405.959V14.36ZM419.703 4.36V0.903996H399.703V4.36H419.703ZM409.703 10.904H423.239V-9.096H409.703V10.904ZM413.431 67.048V70.504H433.431V67.048H413.431ZM423.431 80.504H426.983V60.504H423.431V80.504ZM416.983 70.504V84.904H436.983V70.504H416.983ZM426.983 74.904H423.431V94.904H426.983V74.904ZM413.431 84.904V88.36H433.431V84.904H413.431ZM423.431 78.36H409.415V98.36H423.431V78.36ZM419.415 88.36V84.904H399.415V88.36H419.415ZM409.415 74.904H405.959V94.904H409.415V74.904ZM415.959 84.904V70.504H395.959V84.904H415.959ZM405.959 80.504H409.415V60.504H405.959V80.504ZM419.415 70.504V67.048H399.415V70.504H419.415ZM409.415 77.048H423.431V57.048H409.415V77.048Z" fill="#FF6161" mask="url(#path-1-outside-1_654_221)"/>
</svg>
