<svg width="752" height="181" viewBox="0 0 752 181" fill="none" xmlns="http://www.w3.org/2000/svg">
<g filter="url(#filter0_d_998_84)">
<mask id="path-1-outside-1_998_84" maskUnits="userSpaceOnUse" x="4.25928" y="23.7998" width="702" height="108" fill="black">
<rect fill="white" x="4.25928" y="23.7998" width="702" height="108"/>
<path d="M58.2433 110.904C51.0753 110.904 44.9313 109.624 39.8113 107.064C34.7553 104.44 30.8833 100.76 28.1953 96.0238C25.5713 91.2238 24.2593 85.5918 24.2593 79.1278C24.2593 72.9198 25.2513 67.6078 27.2353 63.1918C29.2833 58.7118 31.9713 55.0638 35.2993 52.2478C38.6273 49.3678 42.3073 47.2558 46.3393 45.9118C50.3713 44.5038 54.4353 43.7998 58.5313 43.7998C63.9073 43.7998 68.5153 44.5998 72.3553 46.1998C76.1953 47.7358 79.1393 49.7518 81.1873 52.2478C83.2353 54.7438 84.2593 57.3358 84.2593 60.0238C84.2593 62.9038 83.7153 65.1438 82.6273 66.7438C81.6033 68.3438 80.2593 69.4638 78.5953 70.1038C76.9953 70.7438 75.3313 71.0638 73.6033 71.0638C71.4273 71.0638 69.6993 70.8398 68.4193 70.3918C67.2033 69.8798 65.9553 69.3998 64.6753 68.9518C63.3953 68.5038 61.6673 68.2798 59.4913 68.2798C55.3313 68.2798 52.0033 69.5278 49.5073 72.0238C47.0753 74.5198 45.8593 78.1038 45.8593 82.7758C45.8593 85.5278 46.4353 87.7998 47.5873 89.5918C48.7393 91.3838 50.2433 92.7278 52.0993 93.6238C54.0193 94.5198 56.0673 94.9678 58.2433 94.9678C60.4193 94.9678 62.2113 94.7118 63.6193 94.1998C65.0913 93.6238 66.1793 93.0158 66.8833 92.3758C67.5873 91.7358 67.9393 91.2558 67.9393 90.9358C63.6513 90.9358 60.1953 90.4558 57.5713 89.4958C54.9473 88.4718 53.6353 86.5198 53.6353 83.6398C53.6353 81.2078 54.4993 79.1918 56.2273 77.5918C57.9553 75.9278 61.1553 75.0958 65.8273 75.0958C70.3713 75.0958 73.9233 75.6398 76.4833 76.7278C79.1073 77.7518 80.9313 79.3838 81.9553 81.6238C83.0433 83.8638 83.5873 86.7758 83.5873 90.3598C83.5873 94.1998 82.4353 97.6878 80.1313 100.824C77.8273 103.96 74.7553 106.456 70.9153 108.312C67.0753 110.104 62.8513 110.968 58.2433 110.904Z"/>
<path d="M104.017 111.192C99.6005 111.192 96.1125 109.048 93.5525 104.76C91.0565 100.472 89.5845 94.8398 89.1365 87.8638C88.6245 79.2238 89.5525 71.6078 91.9205 65.0158C94.3525 58.3598 98.0005 53.1758 102.865 49.4638C107.729 45.7518 113.521 43.8958 120.241 43.8958C127.025 43.8958 132.817 45.7518 137.617 49.4638C142.481 53.1758 146.097 58.3278 148.465 64.9198C150.897 71.5118 151.825 79.1598 151.249 87.8638C150.801 95.0318 149.297 100.696 146.737 104.856C144.241 109.016 140.785 111.096 136.369 111.096C133.873 111.096 131.953 110.648 130.609 109.752C129.265 108.792 128.305 107.608 127.729 106.2C127.217 104.728 126.961 103.256 126.961 101.784C126.961 100.248 127.057 98.9358 127.249 97.8478C125.201 97.9118 122.801 97.9758 120.049 98.0398C117.297 98.0398 114.993 97.9758 113.137 97.8478C113.329 98.9358 113.425 100.248 113.425 101.784C113.425 103.256 113.137 104.728 112.561 106.2C112.049 107.608 111.121 108.792 109.777 109.752C108.433 110.712 106.513 111.192 104.017 111.192ZM112.465 80.7598C117.521 80.5678 122.577 80.5678 127.633 80.7598C127.953 78.5198 127.921 76.3758 127.537 74.3278C127.153 72.2798 126.353 70.6158 125.137 69.3358C123.921 68.0558 122.193 67.4158 119.953 67.4158C117.713 67.4158 115.985 68.0558 114.769 69.3358C113.617 70.6158 112.849 72.2798 112.465 74.3278C112.145 76.3118 112.145 78.4558 112.465 80.7598Z"/>
<path d="M191.443 111C189.203 111 187.347 110.424 185.875 109.272C184.467 108.056 183.507 106.552 182.995 104.76C182.483 102.968 182.163 100.984 182.035 98.8078C181.907 96.5678 181.843 94.3278 181.843 92.0878C181.907 89.7838 181.907 87.6718 181.843 85.7518C181.779 83.8318 181.587 82.2958 181.267 81.1438C180.947 79.9918 180.339 79.4158 179.443 79.4158C178.163 79.4158 177.267 79.9598 176.755 81.0478C176.243 82.0718 175.987 83.4798 175.987 85.2718C175.987 86.9998 176.083 88.8878 176.275 90.9358C176.531 92.9838 176.787 95.0318 177.043 97.0798C177.299 99.0638 177.427 100.824 177.427 102.36C177.427 105.56 176.691 107.768 175.219 108.984C173.811 110.2 171.859 110.808 169.363 110.808C166.867 110.808 164.659 109.784 162.739 107.736C160.883 105.624 159.315 102.936 158.035 99.6718C156.819 96.3438 155.891 92.7598 155.251 88.9198C154.611 85.0798 154.291 81.4318 154.291 77.9758C154.291 73.7518 154.739 69.6558 155.635 65.6878C156.595 61.7198 158.003 58.1678 159.859 55.0318C161.779 51.8958 164.147 49.3998 166.963 47.5438C169.779 45.6878 173.107 44.7598 176.947 44.7598C179.955 44.7598 182.451 45.4318 184.435 46.7758C186.419 48.0558 187.987 49.6878 189.139 51.6718C190.355 53.6558 191.187 55.6718 191.635 57.7198C192.083 55.6718 192.883 53.6558 194.035 51.6718C195.187 49.6878 196.755 48.0558 198.739 46.7758C200.723 45.4318 203.187 44.7598 206.131 44.7598C210.995 44.7598 215.123 46.2638 218.515 49.2718C221.971 52.2798 224.595 56.4398 226.387 61.7518C228.179 66.9998 229.075 73.1118 229.075 80.0878C229.075 83.3518 228.723 86.8078 228.019 90.4558C227.315 94.0398 226.291 97.3998 224.947 100.536C223.667 103.608 222.099 106.136 220.243 108.12C218.387 110.04 216.275 111 213.907 111C211.347 111 209.331 110.36 207.859 109.08C206.387 107.8 205.651 105.56 205.651 102.36C205.651 100.824 205.779 99.0638 206.035 97.0798C206.291 95.0318 206.547 92.9838 206.803 90.9358C207.059 88.8878 207.187 86.9998 207.187 85.2718C207.187 83.4798 206.931 82.0718 206.419 81.0478C205.971 79.9598 205.107 79.4158 203.827 79.4158C202.931 79.4158 202.291 79.9918 201.907 81.1438C201.587 82.2958 201.363 83.8318 201.235 85.7518C201.171 87.6078 201.139 89.6878 201.139 91.9918C201.139 94.2318 201.075 96.4718 200.947 98.7118C200.883 100.952 200.595 102.968 200.083 104.76C199.635 106.552 198.675 108.056 197.203 109.272C195.731 110.424 193.811 111 191.443 111Z"/>
<path d="M264.841 111C262.217 111 259.401 110.808 256.393 110.424C253.449 110.04 250.537 109.24 247.657 108.024C244.777 106.808 242.153 105.016 239.785 102.648C237.417 100.28 235.529 97.1438 234.121 93.2398C232.713 89.2718 232.009 84.3758 232.009 78.5518C232.009 72.1518 233.097 66.3278 235.273 61.0798C237.449 55.8318 240.745 51.6398 245.161 48.5038C249.577 45.3678 255.113 43.7998 261.769 43.7998C266.569 43.7998 270.473 44.2158 273.481 45.0478C276.553 45.8798 278.953 46.9678 280.681 48.3118C282.409 49.6558 283.593 51.1278 284.233 52.7278C284.937 54.3278 285.289 55.9278 285.289 57.5278C285.289 59.1918 284.841 60.7918 283.945 62.3278C283.113 63.8638 281.769 65.0798 279.913 65.9758C278.121 66.8078 276.265 67.1918 274.345 67.1278C272.425 66.9998 270.697 66.9358 269.161 66.9358C265.833 66.9358 263.209 67.5438 261.289 68.7598C259.433 69.9118 258.121 71.7038 257.353 74.1358C258.377 74.0718 259.497 74.0398 260.713 74.0398C261.993 73.9758 263.305 73.9438 264.649 73.9438C267.273 73.9438 269.769 74.0078 272.137 74.1358C274.569 74.1998 276.265 74.3278 277.225 74.5198C279.465 74.9678 281.161 75.8638 282.313 77.2078C283.465 78.4878 284.041 79.9598 284.041 81.6238C284.041 83.2238 283.497 84.6638 282.409 85.9438C281.321 87.2238 279.561 88.1198 277.129 88.6318C276.233 88.8238 274.505 88.9838 271.945 89.1118C269.449 89.1758 266.825 89.2078 264.073 89.2078C262.985 89.2078 261.929 89.2078 260.905 89.2078C259.881 89.1438 258.953 89.1118 258.121 89.1118C259.017 91.0958 260.361 92.6638 262.153 93.8158C264.009 94.9038 266.377 95.4478 269.257 95.4478C270.345 95.4478 271.913 95.3518 273.961 95.1598C276.009 94.9038 277.993 95.0638 279.913 95.6398C282.985 96.5998 284.521 98.6158 284.521 101.688C284.521 103.352 283.945 104.92 282.793 106.392C281.705 107.8 279.721 108.92 276.841 109.752C274.025 110.584 270.025 111 264.841 111Z"/>
<path d="M351.844 110.808C345.764 110.808 340.228 109.592 335.236 107.16C330.244 104.664 326.276 100.92 323.332 95.9278C320.388 90.9358 318.916 84.6958 318.916 77.2078C318.916 72.7918 319.684 68.5998 321.22 64.6318C322.756 60.5998 324.9 57.0158 327.652 53.8798C330.468 50.7438 333.764 48.2798 337.54 46.4878C341.316 44.6958 345.476 43.7998 350.02 43.7998C355.716 43.7998 360.708 44.8558 364.996 46.9678C369.284 49.0158 372.612 51.8318 374.98 55.4158C377.412 58.9998 378.628 62.9998 378.628 67.4158C378.628 69.1438 378.276 70.8078 377.572 72.4078C376.932 73.9438 375.908 75.2238 374.5 76.2478C373.156 77.2718 371.396 77.7838 369.22 77.7838C367.172 77.7838 365.54 77.4638 364.324 76.8238C363.172 76.1838 362.18 75.4158 361.348 74.5198C360.58 73.5598 359.78 72.5998 358.948 71.6398C358.116 70.6798 357.092 69.8798 355.876 69.2398C354.66 68.5998 352.996 68.2798 350.884 68.2798C348.9 68.2798 347.076 68.7918 345.412 69.8158C343.748 70.8398 342.404 72.2478 341.38 74.0398C340.42 75.7678 339.94 77.7518 339.94 79.9918C339.94 83.3198 340.804 86.2318 342.532 88.7278C344.324 91.2238 346.852 92.4718 350.116 92.4718C352.676 92.4718 354.692 92.0878 356.164 91.3198C357.7 90.5518 358.98 89.6878 360.004 88.7278C361.092 87.7038 362.244 86.8078 363.46 86.0398C364.74 85.2718 366.372 84.8878 368.356 84.8878C371.172 84.8878 373.284 85.8158 374.692 87.6718C376.164 89.5278 376.772 91.7998 376.516 94.4878C376.26 97.2398 375.044 99.8638 372.868 102.36C370.756 104.856 367.876 106.904 364.228 108.504C360.644 110.04 356.516 110.808 351.844 110.808Z"/>
<path d="M415.31 111C412.686 111 409.87 110.808 406.862 110.424C403.918 110.04 401.006 109.24 398.126 108.024C395.246 106.808 392.622 105.016 390.254 102.648C387.886 100.28 385.998 97.1438 384.59 93.2398C383.182 89.2718 382.478 84.3758 382.478 78.5518C382.478 72.1518 383.566 66.3278 385.742 61.0798C387.918 55.8318 391.214 51.6398 395.63 48.5038C400.046 45.3678 405.582 43.7998 412.238 43.7998C417.038 43.7998 420.942 44.2158 423.95 45.0478C427.022 45.8798 429.422 46.9678 431.15 48.3118C432.878 49.6558 434.062 51.1278 434.702 52.7278C435.406 54.3278 435.758 55.9278 435.758 57.5278C435.758 59.1918 435.31 60.7918 434.414 62.3278C433.582 63.8638 432.238 65.0798 430.382 65.9758C428.59 66.8078 426.734 67.1918 424.814 67.1278C422.894 66.9998 421.166 66.9358 419.63 66.9358C416.302 66.9358 413.678 67.5438 411.758 68.7598C409.902 69.9118 408.59 71.7038 407.822 74.1358C408.846 74.0718 409.966 74.0398 411.182 74.0398C412.462 73.9758 413.774 73.9438 415.118 73.9438C417.742 73.9438 420.238 74.0078 422.606 74.1358C425.038 74.1998 426.734 74.3278 427.694 74.5198C429.934 74.9678 431.63 75.8638 432.782 77.2078C433.934 78.4878 434.51 79.9598 434.51 81.6238C434.51 83.2238 433.966 84.6638 432.878 85.9438C431.79 87.2238 430.03 88.1198 427.598 88.6318C426.702 88.8238 424.974 88.9838 422.414 89.1118C419.918 89.1758 417.294 89.2078 414.542 89.2078C413.454 89.2078 412.398 89.2078 411.374 89.2078C410.35 89.1438 409.422 89.1118 408.59 89.1118C409.486 91.0958 410.83 92.6638 412.622 93.8158C414.478 94.9038 416.846 95.4478 419.726 95.4478C420.814 95.4478 422.382 95.3518 424.43 95.1598C426.478 94.9038 428.462 95.0638 430.382 95.6398C433.454 96.5998 434.99 98.6158 434.99 101.688C434.99 103.352 434.414 104.92 433.262 106.392C432.174 107.8 430.19 108.92 427.31 109.752C424.494 110.584 420.494 111 415.31 111Z"/>
<path d="M450.753 111C448.769 111 447.009 110.2 445.473 108.6C444.001 107 442.753 104.888 441.729 102.264C440.769 99.6398 439.969 96.7598 439.329 93.6238C438.753 90.4878 438.337 87.3518 438.081 84.2158C437.825 81.0158 437.697 78.1358 437.697 75.5758C437.697 72.3118 437.953 68.8558 438.465 65.2078C438.977 61.5598 439.873 58.1358 441.153 54.9358C442.433 51.6718 444.193 49.0158 446.433 46.9678C448.673 44.9198 451.553 43.8958 455.073 43.8958C457.505 43.8958 459.617 44.6958 461.409 46.2958C463.265 47.8318 464.929 50.0078 466.401 52.8238C467.873 55.5758 469.281 58.7438 470.625 62.3278C471.969 65.9118 473.409 69.7198 474.945 73.7518C474.689 68.2478 474.849 63.2558 475.425 58.7758C476.065 54.2318 477.345 50.6158 479.265 47.9278C481.185 45.2398 483.905 43.8958 487.425 43.8958C490.433 43.8958 492.833 44.9198 494.625 46.9678C496.481 49.0158 497.889 51.6718 498.849 54.9358C499.809 58.1358 500.449 61.5598 500.769 65.2078C501.153 68.8558 501.345 72.3118 501.345 75.5758C501.345 78.1998 501.153 81.0798 500.769 84.2158C500.385 87.3518 499.745 90.4878 498.849 93.6238C497.953 96.7598 496.737 99.6398 495.201 102.264C493.665 104.888 491.777 107 489.537 108.6C487.361 110.2 484.737 111 481.665 111C478.913 111 476.545 110.136 474.561 108.408C472.641 106.616 470.913 104.28 469.377 101.4C467.905 98.4558 466.529 95.2238 465.249 91.7038C463.969 88.1838 462.625 84.6638 461.217 81.1438C461.281 85.5598 461.281 89.6238 461.217 93.3358C461.153 96.9838 460.801 100.12 460.161 102.744C459.585 105.368 458.561 107.416 457.089 108.888C455.617 110.296 453.505 111 450.753 111Z"/>
<path d="M536.828 110.808C533.628 110.808 531.196 109.752 529.532 107.64C527.868 105.528 526.716 102.392 526.076 98.2318C525.5 94.0078 525.212 88.7918 525.212 82.5838C525.212 80.3438 525.244 78.2318 525.308 76.2478C525.372 74.2638 525.436 72.4078 525.5 70.6798C517.82 70.2958 512.188 69.2078 508.604 67.4158C505.02 65.6238 503.228 62.5198 503.228 58.1038C503.228 52.5998 506.012 48.8878 511.58 46.9678C517.212 45.0478 525.66 44.0878 536.924 44.0878C548.252 44.0878 556.764 45.0478 562.46 46.9678C568.22 48.8878 571.1 52.5998 571.1 58.1038C571.1 62.4558 569.276 65.5598 565.628 67.4158C562.044 69.2078 556.444 70.2958 548.828 70.6798C548.956 72.4078 549.052 74.2638 549.116 76.2478C549.18 78.2318 549.212 80.3438 549.212 82.5838C549.212 92.3758 548.348 99.5438 546.62 104.088C544.892 108.568 541.628 110.808 536.828 110.808Z"/>
<path d="M603.935 111C601.311 111 598.495 110.808 595.487 110.424C592.543 110.04 589.631 109.24 586.751 108.024C583.871 106.808 581.247 105.016 578.879 102.648C576.511 100.28 574.623 97.1438 573.215 93.2398C571.807 89.2718 571.103 84.3758 571.103 78.5518C571.103 72.1518 572.191 66.3278 574.367 61.0798C576.543 55.8318 579.839 51.6398 584.255 48.5038C588.671 45.3678 594.207 43.7998 600.863 43.7998C605.663 43.7998 609.567 44.2158 612.575 45.0478C615.647 45.8798 618.047 46.9678 619.775 48.3118C621.503 49.6558 622.687 51.1278 623.327 52.7278C624.031 54.3278 624.383 55.9278 624.383 57.5278C624.383 59.1918 623.935 60.7918 623.039 62.3278C622.207 63.8638 620.863 65.0798 619.007 65.9758C617.215 66.8078 615.359 67.1918 613.439 67.1278C611.519 66.9998 609.791 66.9358 608.255 66.9358C604.927 66.9358 602.303 67.5438 600.383 68.7598C598.527 69.9118 597.215 71.7038 596.447 74.1358C597.471 74.0718 598.591 74.0398 599.807 74.0398C601.087 73.9758 602.399 73.9438 603.743 73.9438C606.367 73.9438 608.863 74.0078 611.231 74.1358C613.663 74.1998 615.359 74.3278 616.319 74.5198C618.559 74.9678 620.255 75.8638 621.407 77.2078C622.559 78.4878 623.135 79.9598 623.135 81.6238C623.135 83.2238 622.591 84.6638 621.503 85.9438C620.415 87.2238 618.655 88.1198 616.223 88.6318C615.327 88.8238 613.599 88.9838 611.039 89.1118C608.543 89.1758 605.919 89.2078 603.167 89.2078C602.079 89.2078 601.023 89.2078 599.999 89.2078C598.975 89.1438 598.047 89.1118 597.215 89.1118C598.111 91.0958 599.455 92.6638 601.247 93.8158C603.103 94.9038 605.471 95.4478 608.351 95.4478C609.439 95.4478 611.007 95.3518 613.055 95.1598C615.103 94.9038 617.087 95.0638 619.007 95.6398C622.079 96.5998 623.615 98.6158 623.615 101.688C623.615 103.352 623.039 104.92 621.887 106.392C620.799 107.8 618.815 108.92 615.935 109.752C613.119 110.584 609.119 111 603.935 111Z"/>
<path d="M641.849 111.096C638.969 111.096 636.569 110.168 634.649 108.312C632.793 106.392 631.321 103.864 630.233 100.728C629.145 97.5278 628.377 94.0398 627.929 90.2638C627.545 86.4878 627.353 82.7438 627.353 79.0318C627.353 74.6798 627.929 70.4238 629.081 66.2638C630.297 62.1038 632.121 58.3598 634.553 55.0318C637.049 51.6398 640.185 48.9518 643.961 46.9678C647.737 44.9838 652.217 43.9918 657.401 43.9918C662.649 43.9918 667.385 45.0798 671.609 47.2558C675.897 49.4318 679.321 52.5358 681.881 56.5678C684.441 60.5998 685.721 65.3998 685.721 70.9678C685.721 75.8318 684.985 80.0558 683.513 83.6398C682.105 87.1598 680.217 90.0718 677.849 92.3758C678.809 93.8478 679.577 95.4158 680.153 97.0798C680.729 98.7438 681.017 100.344 681.017 101.88C681.017 103.672 680.537 105.272 679.577 106.68C678.617 108.024 677.369 109.08 675.833 109.848C674.361 110.616 672.793 111 671.129 111C669.721 111 668.409 110.776 667.193 110.328C665.977 109.88 664.633 109.112 663.161 108.024C661.817 107 660.633 105.656 659.609 103.992C658.585 102.264 657.753 100.568 657.113 98.9038C654.873 98.6478 652.761 98.1038 650.777 97.2718C651.097 98.8078 651.257 100.376 651.257 101.976C651.321 103.576 651.065 105.08 650.489 106.488C649.977 107.832 649.017 108.952 647.609 109.848C646.265 110.68 644.345 111.096 641.849 111.096ZM658.361 83.6398C660.665 83.6398 662.649 82.8398 664.313 81.2398C666.041 79.5758 666.905 77.6558 666.905 75.4798C666.905 73.2398 666.041 71.3198 664.313 69.7198C662.649 68.0558 660.665 67.2238 658.361 67.2238C656.057 67.2238 654.041 68.0558 652.313 69.7198C650.649 71.3198 649.817 73.2398 649.817 75.4798C649.817 77.6558 650.649 79.5758 652.313 81.2398C654.041 82.8398 656.057 83.6398 658.361 83.6398Z"/>
</mask>
<path d="M58.2433 110.904C51.0753 110.904 44.9313 109.624 39.8113 107.064C34.7553 104.44 30.8833 100.76 28.1953 96.0238C25.5713 91.2238 24.2593 85.5918 24.2593 79.1278C24.2593 72.9198 25.2513 67.6078 27.2353 63.1918C29.2833 58.7118 31.9713 55.0638 35.2993 52.2478C38.6273 49.3678 42.3073 47.2558 46.3393 45.9118C50.3713 44.5038 54.4353 43.7998 58.5313 43.7998C63.9073 43.7998 68.5153 44.5998 72.3553 46.1998C76.1953 47.7358 79.1393 49.7518 81.1873 52.2478C83.2353 54.7438 84.2593 57.3358 84.2593 60.0238C84.2593 62.9038 83.7153 65.1438 82.6273 66.7438C81.6033 68.3438 80.2593 69.4638 78.5953 70.1038C76.9953 70.7438 75.3313 71.0638 73.6033 71.0638C71.4273 71.0638 69.6993 70.8398 68.4193 70.3918C67.2033 69.8798 65.9553 69.3998 64.6753 68.9518C63.3953 68.5038 61.6673 68.2798 59.4913 68.2798C55.3313 68.2798 52.0033 69.5278 49.5073 72.0238C47.0753 74.5198 45.8593 78.1038 45.8593 82.7758C45.8593 85.5278 46.4353 87.7998 47.5873 89.5918C48.7393 91.3838 50.2433 92.7278 52.0993 93.6238C54.0193 94.5198 56.0673 94.9678 58.2433 94.9678C60.4193 94.9678 62.2113 94.7118 63.6193 94.1998C65.0913 93.6238 66.1793 93.0158 66.8833 92.3758C67.5873 91.7358 67.9393 91.2558 67.9393 90.9358C63.6513 90.9358 60.1953 90.4558 57.5713 89.4958C54.9473 88.4718 53.6353 86.5198 53.6353 83.6398C53.6353 81.2078 54.4993 79.1918 56.2273 77.5918C57.9553 75.9278 61.1553 75.0958 65.8273 75.0958C70.3713 75.0958 73.9233 75.6398 76.4833 76.7278C79.1073 77.7518 80.9313 79.3838 81.9553 81.6238C83.0433 83.8638 83.5873 86.7758 83.5873 90.3598C83.5873 94.1998 82.4353 97.6878 80.1313 100.824C77.8273 103.96 74.7553 106.456 70.9153 108.312C67.0753 110.104 62.8513 110.968 58.2433 110.904Z" fill="white"/>
<path d="M104.017 111.192C99.6005 111.192 96.1125 109.048 93.5525 104.76C91.0565 100.472 89.5845 94.8398 89.1365 87.8638C88.6245 79.2238 89.5525 71.6078 91.9205 65.0158C94.3525 58.3598 98.0005 53.1758 102.865 49.4638C107.729 45.7518 113.521 43.8958 120.241 43.8958C127.025 43.8958 132.817 45.7518 137.617 49.4638C142.481 53.1758 146.097 58.3278 148.465 64.9198C150.897 71.5118 151.825 79.1598 151.249 87.8638C150.801 95.0318 149.297 100.696 146.737 104.856C144.241 109.016 140.785 111.096 136.369 111.096C133.873 111.096 131.953 110.648 130.609 109.752C129.265 108.792 128.305 107.608 127.729 106.2C127.217 104.728 126.961 103.256 126.961 101.784C126.961 100.248 127.057 98.9358 127.249 97.8478C125.201 97.9118 122.801 97.9758 120.049 98.0398C117.297 98.0398 114.993 97.9758 113.137 97.8478C113.329 98.9358 113.425 100.248 113.425 101.784C113.425 103.256 113.137 104.728 112.561 106.2C112.049 107.608 111.121 108.792 109.777 109.752C108.433 110.712 106.513 111.192 104.017 111.192ZM112.465 80.7598C117.521 80.5678 122.577 80.5678 127.633 80.7598C127.953 78.5198 127.921 76.3758 127.537 74.3278C127.153 72.2798 126.353 70.6158 125.137 69.3358C123.921 68.0558 122.193 67.4158 119.953 67.4158C117.713 67.4158 115.985 68.0558 114.769 69.3358C113.617 70.6158 112.849 72.2798 112.465 74.3278C112.145 76.3118 112.145 78.4558 112.465 80.7598Z" fill="white"/>
<path d="M191.443 111C189.203 111 187.347 110.424 185.875 109.272C184.467 108.056 183.507 106.552 182.995 104.76C182.483 102.968 182.163 100.984 182.035 98.8078C181.907 96.5678 181.843 94.3278 181.843 92.0878C181.907 89.7838 181.907 87.6718 181.843 85.7518C181.779 83.8318 181.587 82.2958 181.267 81.1438C180.947 79.9918 180.339 79.4158 179.443 79.4158C178.163 79.4158 177.267 79.9598 176.755 81.0478C176.243 82.0718 175.987 83.4798 175.987 85.2718C175.987 86.9998 176.083 88.8878 176.275 90.9358C176.531 92.9838 176.787 95.0318 177.043 97.0798C177.299 99.0638 177.427 100.824 177.427 102.36C177.427 105.56 176.691 107.768 175.219 108.984C173.811 110.2 171.859 110.808 169.363 110.808C166.867 110.808 164.659 109.784 162.739 107.736C160.883 105.624 159.315 102.936 158.035 99.6718C156.819 96.3438 155.891 92.7598 155.251 88.9198C154.611 85.0798 154.291 81.4318 154.291 77.9758C154.291 73.7518 154.739 69.6558 155.635 65.6878C156.595 61.7198 158.003 58.1678 159.859 55.0318C161.779 51.8958 164.147 49.3998 166.963 47.5438C169.779 45.6878 173.107 44.7598 176.947 44.7598C179.955 44.7598 182.451 45.4318 184.435 46.7758C186.419 48.0558 187.987 49.6878 189.139 51.6718C190.355 53.6558 191.187 55.6718 191.635 57.7198C192.083 55.6718 192.883 53.6558 194.035 51.6718C195.187 49.6878 196.755 48.0558 198.739 46.7758C200.723 45.4318 203.187 44.7598 206.131 44.7598C210.995 44.7598 215.123 46.2638 218.515 49.2718C221.971 52.2798 224.595 56.4398 226.387 61.7518C228.179 66.9998 229.075 73.1118 229.075 80.0878C229.075 83.3518 228.723 86.8078 228.019 90.4558C227.315 94.0398 226.291 97.3998 224.947 100.536C223.667 103.608 222.099 106.136 220.243 108.12C218.387 110.04 216.275 111 213.907 111C211.347 111 209.331 110.36 207.859 109.08C206.387 107.8 205.651 105.56 205.651 102.36C205.651 100.824 205.779 99.0638 206.035 97.0798C206.291 95.0318 206.547 92.9838 206.803 90.9358C207.059 88.8878 207.187 86.9998 207.187 85.2718C207.187 83.4798 206.931 82.0718 206.419 81.0478C205.971 79.9598 205.107 79.4158 203.827 79.4158C202.931 79.4158 202.291 79.9918 201.907 81.1438C201.587 82.2958 201.363 83.8318 201.235 85.7518C201.171 87.6078 201.139 89.6878 201.139 91.9918C201.139 94.2318 201.075 96.4718 200.947 98.7118C200.883 100.952 200.595 102.968 200.083 104.76C199.635 106.552 198.675 108.056 197.203 109.272C195.731 110.424 193.811 111 191.443 111Z" fill="white"/>
<path d="M264.841 111C262.217 111 259.401 110.808 256.393 110.424C253.449 110.04 250.537 109.24 247.657 108.024C244.777 106.808 242.153 105.016 239.785 102.648C237.417 100.28 235.529 97.1438 234.121 93.2398C232.713 89.2718 232.009 84.3758 232.009 78.5518C232.009 72.1518 233.097 66.3278 235.273 61.0798C237.449 55.8318 240.745 51.6398 245.161 48.5038C249.577 45.3678 255.113 43.7998 261.769 43.7998C266.569 43.7998 270.473 44.2158 273.481 45.0478C276.553 45.8798 278.953 46.9678 280.681 48.3118C282.409 49.6558 283.593 51.1278 284.233 52.7278C284.937 54.3278 285.289 55.9278 285.289 57.5278C285.289 59.1918 284.841 60.7918 283.945 62.3278C283.113 63.8638 281.769 65.0798 279.913 65.9758C278.121 66.8078 276.265 67.1918 274.345 67.1278C272.425 66.9998 270.697 66.9358 269.161 66.9358C265.833 66.9358 263.209 67.5438 261.289 68.7598C259.433 69.9118 258.121 71.7038 257.353 74.1358C258.377 74.0718 259.497 74.0398 260.713 74.0398C261.993 73.9758 263.305 73.9438 264.649 73.9438C267.273 73.9438 269.769 74.0078 272.137 74.1358C274.569 74.1998 276.265 74.3278 277.225 74.5198C279.465 74.9678 281.161 75.8638 282.313 77.2078C283.465 78.4878 284.041 79.9598 284.041 81.6238C284.041 83.2238 283.497 84.6638 282.409 85.9438C281.321 87.2238 279.561 88.1198 277.129 88.6318C276.233 88.8238 274.505 88.9838 271.945 89.1118C269.449 89.1758 266.825 89.2078 264.073 89.2078C262.985 89.2078 261.929 89.2078 260.905 89.2078C259.881 89.1438 258.953 89.1118 258.121 89.1118C259.017 91.0958 260.361 92.6638 262.153 93.8158C264.009 94.9038 266.377 95.4478 269.257 95.4478C270.345 95.4478 271.913 95.3518 273.961 95.1598C276.009 94.9038 277.993 95.0638 279.913 95.6398C282.985 96.5998 284.521 98.6158 284.521 101.688C284.521 103.352 283.945 104.92 282.793 106.392C281.705 107.8 279.721 108.92 276.841 109.752C274.025 110.584 270.025 111 264.841 111Z" fill="white"/>
<path d="M351.844 110.808C345.764 110.808 340.228 109.592 335.236 107.16C330.244 104.664 326.276 100.92 323.332 95.9278C320.388 90.9358 318.916 84.6958 318.916 77.2078C318.916 72.7918 319.684 68.5998 321.22 64.6318C322.756 60.5998 324.9 57.0158 327.652 53.8798C330.468 50.7438 333.764 48.2798 337.54 46.4878C341.316 44.6958 345.476 43.7998 350.02 43.7998C355.716 43.7998 360.708 44.8558 364.996 46.9678C369.284 49.0158 372.612 51.8318 374.98 55.4158C377.412 58.9998 378.628 62.9998 378.628 67.4158C378.628 69.1438 378.276 70.8078 377.572 72.4078C376.932 73.9438 375.908 75.2238 374.5 76.2478C373.156 77.2718 371.396 77.7838 369.22 77.7838C367.172 77.7838 365.54 77.4638 364.324 76.8238C363.172 76.1838 362.18 75.4158 361.348 74.5198C360.58 73.5598 359.78 72.5998 358.948 71.6398C358.116 70.6798 357.092 69.8798 355.876 69.2398C354.66 68.5998 352.996 68.2798 350.884 68.2798C348.9 68.2798 347.076 68.7918 345.412 69.8158C343.748 70.8398 342.404 72.2478 341.38 74.0398C340.42 75.7678 339.94 77.7518 339.94 79.9918C339.94 83.3198 340.804 86.2318 342.532 88.7278C344.324 91.2238 346.852 92.4718 350.116 92.4718C352.676 92.4718 354.692 92.0878 356.164 91.3198C357.7 90.5518 358.98 89.6878 360.004 88.7278C361.092 87.7038 362.244 86.8078 363.46 86.0398C364.74 85.2718 366.372 84.8878 368.356 84.8878C371.172 84.8878 373.284 85.8158 374.692 87.6718C376.164 89.5278 376.772 91.7998 376.516 94.4878C376.26 97.2398 375.044 99.8638 372.868 102.36C370.756 104.856 367.876 106.904 364.228 108.504C360.644 110.04 356.516 110.808 351.844 110.808Z" fill="white"/>
<path d="M415.31 111C412.686 111 409.87 110.808 406.862 110.424C403.918 110.04 401.006 109.24 398.126 108.024C395.246 106.808 392.622 105.016 390.254 102.648C387.886 100.28 385.998 97.1438 384.59 93.2398C383.182 89.2718 382.478 84.3758 382.478 78.5518C382.478 72.1518 383.566 66.3278 385.742 61.0798C387.918 55.8318 391.214 51.6398 395.63 48.5038C400.046 45.3678 405.582 43.7998 412.238 43.7998C417.038 43.7998 420.942 44.2158 423.95 45.0478C427.022 45.8798 429.422 46.9678 431.15 48.3118C432.878 49.6558 434.062 51.1278 434.702 52.7278C435.406 54.3278 435.758 55.9278 435.758 57.5278C435.758 59.1918 435.31 60.7918 434.414 62.3278C433.582 63.8638 432.238 65.0798 430.382 65.9758C428.59 66.8078 426.734 67.1918 424.814 67.1278C422.894 66.9998 421.166 66.9358 419.63 66.9358C416.302 66.9358 413.678 67.5438 411.758 68.7598C409.902 69.9118 408.59 71.7038 407.822 74.1358C408.846 74.0718 409.966 74.0398 411.182 74.0398C412.462 73.9758 413.774 73.9438 415.118 73.9438C417.742 73.9438 420.238 74.0078 422.606 74.1358C425.038 74.1998 426.734 74.3278 427.694 74.5198C429.934 74.9678 431.63 75.8638 432.782 77.2078C433.934 78.4878 434.51 79.9598 434.51 81.6238C434.51 83.2238 433.966 84.6638 432.878 85.9438C431.79 87.2238 430.03 88.1198 427.598 88.6318C426.702 88.8238 424.974 88.9838 422.414 89.1118C419.918 89.1758 417.294 89.2078 414.542 89.2078C413.454 89.2078 412.398 89.2078 411.374 89.2078C410.35 89.1438 409.422 89.1118 408.59 89.1118C409.486 91.0958 410.83 92.6638 412.622 93.8158C414.478 94.9038 416.846 95.4478 419.726 95.4478C420.814 95.4478 422.382 95.3518 424.43 95.1598C426.478 94.9038 428.462 95.0638 430.382 95.6398C433.454 96.5998 434.99 98.6158 434.99 101.688C434.99 103.352 434.414 104.92 433.262 106.392C432.174 107.8 430.19 108.92 427.31 109.752C424.494 110.584 420.494 111 415.31 111Z" fill="white"/>
<path d="M450.753 111C448.769 111 447.009 110.2 445.473 108.6C444.001 107 442.753 104.888 441.729 102.264C440.769 99.6398 439.969 96.7598 439.329 93.6238C438.753 90.4878 438.337 87.3518 438.081 84.2158C437.825 81.0158 437.697 78.1358 437.697 75.5758C437.697 72.3118 437.953 68.8558 438.465 65.2078C438.977 61.5598 439.873 58.1358 441.153 54.9358C442.433 51.6718 444.193 49.0158 446.433 46.9678C448.673 44.9198 451.553 43.8958 455.073 43.8958C457.505 43.8958 459.617 44.6958 461.409 46.2958C463.265 47.8318 464.929 50.0078 466.401 52.8238C467.873 55.5758 469.281 58.7438 470.625 62.3278C471.969 65.9118 473.409 69.7198 474.945 73.7518C474.689 68.2478 474.849 63.2558 475.425 58.7758C476.065 54.2318 477.345 50.6158 479.265 47.9278C481.185 45.2398 483.905 43.8958 487.425 43.8958C490.433 43.8958 492.833 44.9198 494.625 46.9678C496.481 49.0158 497.889 51.6718 498.849 54.9358C499.809 58.1358 500.449 61.5598 500.769 65.2078C501.153 68.8558 501.345 72.3118 501.345 75.5758C501.345 78.1998 501.153 81.0798 500.769 84.2158C500.385 87.3518 499.745 90.4878 498.849 93.6238C497.953 96.7598 496.737 99.6398 495.201 102.264C493.665 104.888 491.777 107 489.537 108.6C487.361 110.2 484.737 111 481.665 111C478.913 111 476.545 110.136 474.561 108.408C472.641 106.616 470.913 104.28 469.377 101.4C467.905 98.4558 466.529 95.2238 465.249 91.7038C463.969 88.1838 462.625 84.6638 461.217 81.1438C461.281 85.5598 461.281 89.6238 461.217 93.3358C461.153 96.9838 460.801 100.12 460.161 102.744C459.585 105.368 458.561 107.416 457.089 108.888C455.617 110.296 453.505 111 450.753 111Z" fill="white"/>
<path d="M536.828 110.808C533.628 110.808 531.196 109.752 529.532 107.64C527.868 105.528 526.716 102.392 526.076 98.2318C525.5 94.0078 525.212 88.7918 525.212 82.5838C525.212 80.3438 525.244 78.2318 525.308 76.2478C525.372 74.2638 525.436 72.4078 525.5 70.6798C517.82 70.2958 512.188 69.2078 508.604 67.4158C505.02 65.6238 503.228 62.5198 503.228 58.1038C503.228 52.5998 506.012 48.8878 511.58 46.9678C517.212 45.0478 525.66 44.0878 536.924 44.0878C548.252 44.0878 556.764 45.0478 562.46 46.9678C568.22 48.8878 571.1 52.5998 571.1 58.1038C571.1 62.4558 569.276 65.5598 565.628 67.4158C562.044 69.2078 556.444 70.2958 548.828 70.6798C548.956 72.4078 549.052 74.2638 549.116 76.2478C549.18 78.2318 549.212 80.3438 549.212 82.5838C549.212 92.3758 548.348 99.5438 546.62 104.088C544.892 108.568 541.628 110.808 536.828 110.808Z" fill="white"/>
<path d="M603.935 111C601.311 111 598.495 110.808 595.487 110.424C592.543 110.04 589.631 109.24 586.751 108.024C583.871 106.808 581.247 105.016 578.879 102.648C576.511 100.28 574.623 97.1438 573.215 93.2398C571.807 89.2718 571.103 84.3758 571.103 78.5518C571.103 72.1518 572.191 66.3278 574.367 61.0798C576.543 55.8318 579.839 51.6398 584.255 48.5038C588.671 45.3678 594.207 43.7998 600.863 43.7998C605.663 43.7998 609.567 44.2158 612.575 45.0478C615.647 45.8798 618.047 46.9678 619.775 48.3118C621.503 49.6558 622.687 51.1278 623.327 52.7278C624.031 54.3278 624.383 55.9278 624.383 57.5278C624.383 59.1918 623.935 60.7918 623.039 62.3278C622.207 63.8638 620.863 65.0798 619.007 65.9758C617.215 66.8078 615.359 67.1918 613.439 67.1278C611.519 66.9998 609.791 66.9358 608.255 66.9358C604.927 66.9358 602.303 67.5438 600.383 68.7598C598.527 69.9118 597.215 71.7038 596.447 74.1358C597.471 74.0718 598.591 74.0398 599.807 74.0398C601.087 73.9758 602.399 73.9438 603.743 73.9438C606.367 73.9438 608.863 74.0078 611.231 74.1358C613.663 74.1998 615.359 74.3278 616.319 74.5198C618.559 74.9678 620.255 75.8638 621.407 77.2078C622.559 78.4878 623.135 79.9598 623.135 81.6238C623.135 83.2238 622.591 84.6638 621.503 85.9438C620.415 87.2238 618.655 88.1198 616.223 88.6318C615.327 88.8238 613.599 88.9838 611.039 89.1118C608.543 89.1758 605.919 89.2078 603.167 89.2078C602.079 89.2078 601.023 89.2078 599.999 89.2078C598.975 89.1438 598.047 89.1118 597.215 89.1118C598.111 91.0958 599.455 92.6638 601.247 93.8158C603.103 94.9038 605.471 95.4478 608.351 95.4478C609.439 95.4478 611.007 95.3518 613.055 95.1598C615.103 94.9038 617.087 95.0638 619.007 95.6398C622.079 96.5998 623.615 98.6158 623.615 101.688C623.615 103.352 623.039 104.92 621.887 106.392C620.799 107.8 618.815 108.92 615.935 109.752C613.119 110.584 609.119 111 603.935 111Z" fill="white"/>
<path d="M641.849 111.096C638.969 111.096 636.569 110.168 634.649 108.312C632.793 106.392 631.321 103.864 630.233 100.728C629.145 97.5278 628.377 94.0398 627.929 90.2638C627.545 86.4878 627.353 82.7438 627.353 79.0318C627.353 74.6798 627.929 70.4238 629.081 66.2638C630.297 62.1038 632.121 58.3598 634.553 55.0318C637.049 51.6398 640.185 48.9518 643.961 46.9678C647.737 44.9838 652.217 43.9918 657.401 43.9918C662.649 43.9918 667.385 45.0798 671.609 47.2558C675.897 49.4318 679.321 52.5358 681.881 56.5678C684.441 60.5998 685.721 65.3998 685.721 70.9678C685.721 75.8318 684.985 80.0558 683.513 83.6398C682.105 87.1598 680.217 90.0718 677.849 92.3758C678.809 93.8478 679.577 95.4158 680.153 97.0798C680.729 98.7438 681.017 100.344 681.017 101.88C681.017 103.672 680.537 105.272 679.577 106.68C678.617 108.024 677.369 109.08 675.833 109.848C674.361 110.616 672.793 111 671.129 111C669.721 111 668.409 110.776 667.193 110.328C665.977 109.88 664.633 109.112 663.161 108.024C661.817 107 660.633 105.656 659.609 103.992C658.585 102.264 657.753 100.568 657.113 98.9038C654.873 98.6478 652.761 98.1038 650.777 97.2718C651.097 98.8078 651.257 100.376 651.257 101.976C651.321 103.576 651.065 105.08 650.489 106.488C649.977 107.832 649.017 108.952 647.609 109.848C646.265 110.68 644.345 111.096 641.849 111.096ZM658.361 83.6398C660.665 83.6398 662.649 82.8398 664.313 81.2398C666.041 79.5758 666.905 77.6558 666.905 75.4798C666.905 73.2398 666.041 71.3198 664.313 69.7198C662.649 68.0558 660.665 67.2238 658.361 67.2238C656.057 67.2238 654.041 68.0558 652.313 69.7198C650.649 71.3198 649.817 73.2398 649.817 75.4798C649.817 77.6558 650.649 79.5758 652.313 81.2398C654.041 82.8398 656.057 83.6398 658.361 83.6398Z" fill="white"/>
<path d="M58.2433 110.904C51.0753 110.904 44.9313 109.624 39.8113 107.064C34.7553 104.44 30.8833 100.76 28.1953 96.0238C25.5713 91.2238 24.2593 85.5918 24.2593 79.1278C24.2593 72.9198 25.2513 67.6078 27.2353 63.1918C29.2833 58.7118 31.9713 55.0638 35.2993 52.2478C38.6273 49.3678 42.3073 47.2558 46.3393 45.9118C50.3713 44.5038 54.4353 43.7998 58.5313 43.7998C63.9073 43.7998 68.5153 44.5998 72.3553 46.1998C76.1953 47.7358 79.1393 49.7518 81.1873 52.2478C83.2353 54.7438 84.2593 57.3358 84.2593 60.0238C84.2593 62.9038 83.7153 65.1438 82.6273 66.7438C81.6033 68.3438 80.2593 69.4638 78.5953 70.1038C76.9953 70.7438 75.3313 71.0638 73.6033 71.0638C71.4273 71.0638 69.6993 70.8398 68.4193 70.3918C67.2033 69.8798 65.9553 69.3998 64.6753 68.9518C63.3953 68.5038 61.6673 68.2798 59.4913 68.2798C55.3313 68.2798 52.0033 69.5278 49.5073 72.0238C47.0753 74.5198 45.8593 78.1038 45.8593 82.7758C45.8593 85.5278 46.4353 87.7998 47.5873 89.5918C48.7393 91.3838 50.2433 92.7278 52.0993 93.6238C54.0193 94.5198 56.0673 94.9678 58.2433 94.9678C60.4193 94.9678 62.2113 94.7118 63.6193 94.1998C65.0913 93.6238 66.1793 93.0158 66.8833 92.3758C67.5873 91.7358 67.9393 91.2558 67.9393 90.9358C63.6513 90.9358 60.1953 90.4558 57.5713 89.4958C54.9473 88.4718 53.6353 86.5198 53.6353 83.6398C53.6353 81.2078 54.4993 79.1918 56.2273 77.5918C57.9553 75.9278 61.1553 75.0958 65.8273 75.0958C70.3713 75.0958 73.9233 75.6398 76.4833 76.7278C79.1073 77.7518 80.9313 79.3838 81.9553 81.6238C83.0433 83.8638 83.5873 86.7758 83.5873 90.3598C83.5873 94.1998 82.4353 97.6878 80.1313 100.824C77.8273 103.96 74.7553 106.456 70.9153 108.312C67.0753 110.104 62.8513 110.968 58.2433 110.904Z" stroke="#6C95FF" stroke-width="40" mask="url(#path-1-outside-1_998_84)"/>
<path d="M104.017 111.192C99.6005 111.192 96.1125 109.048 93.5525 104.76C91.0565 100.472 89.5845 94.8398 89.1365 87.8638C88.6245 79.2238 89.5525 71.6078 91.9205 65.0158C94.3525 58.3598 98.0005 53.1758 102.865 49.4638C107.729 45.7518 113.521 43.8958 120.241 43.8958C127.025 43.8958 132.817 45.7518 137.617 49.4638C142.481 53.1758 146.097 58.3278 148.465 64.9198C150.897 71.5118 151.825 79.1598 151.249 87.8638C150.801 95.0318 149.297 100.696 146.737 104.856C144.241 109.016 140.785 111.096 136.369 111.096C133.873 111.096 131.953 110.648 130.609 109.752C129.265 108.792 128.305 107.608 127.729 106.2C127.217 104.728 126.961 103.256 126.961 101.784C126.961 100.248 127.057 98.9358 127.249 97.8478C125.201 97.9118 122.801 97.9758 120.049 98.0398C117.297 98.0398 114.993 97.9758 113.137 97.8478C113.329 98.9358 113.425 100.248 113.425 101.784C113.425 103.256 113.137 104.728 112.561 106.2C112.049 107.608 111.121 108.792 109.777 109.752C108.433 110.712 106.513 111.192 104.017 111.192ZM112.465 80.7598C117.521 80.5678 122.577 80.5678 127.633 80.7598C127.953 78.5198 127.921 76.3758 127.537 74.3278C127.153 72.2798 126.353 70.6158 125.137 69.3358C123.921 68.0558 122.193 67.4158 119.953 67.4158C117.713 67.4158 115.985 68.0558 114.769 69.3358C113.617 70.6158 112.849 72.2798 112.465 74.3278C112.145 76.3118 112.145 78.4558 112.465 80.7598Z" stroke="#6C95FF" stroke-width="40" mask="url(#path-1-outside-1_998_84)"/>
<path d="M191.443 111C189.203 111 187.347 110.424 185.875 109.272C184.467 108.056 183.507 106.552 182.995 104.76C182.483 102.968 182.163 100.984 182.035 98.8078C181.907 96.5678 181.843 94.3278 181.843 92.0878C181.907 89.7838 181.907 87.6718 181.843 85.7518C181.779 83.8318 181.587 82.2958 181.267 81.1438C180.947 79.9918 180.339 79.4158 179.443 79.4158C178.163 79.4158 177.267 79.9598 176.755 81.0478C176.243 82.0718 175.987 83.4798 175.987 85.2718C175.987 86.9998 176.083 88.8878 176.275 90.9358C176.531 92.9838 176.787 95.0318 177.043 97.0798C177.299 99.0638 177.427 100.824 177.427 102.36C177.427 105.56 176.691 107.768 175.219 108.984C173.811 110.2 171.859 110.808 169.363 110.808C166.867 110.808 164.659 109.784 162.739 107.736C160.883 105.624 159.315 102.936 158.035 99.6718C156.819 96.3438 155.891 92.7598 155.251 88.9198C154.611 85.0798 154.291 81.4318 154.291 77.9758C154.291 73.7518 154.739 69.6558 155.635 65.6878C156.595 61.7198 158.003 58.1678 159.859 55.0318C161.779 51.8958 164.147 49.3998 166.963 47.5438C169.779 45.6878 173.107 44.7598 176.947 44.7598C179.955 44.7598 182.451 45.4318 184.435 46.7758C186.419 48.0558 187.987 49.6878 189.139 51.6718C190.355 53.6558 191.187 55.6718 191.635 57.7198C192.083 55.6718 192.883 53.6558 194.035 51.6718C195.187 49.6878 196.755 48.0558 198.739 46.7758C200.723 45.4318 203.187 44.7598 206.131 44.7598C210.995 44.7598 215.123 46.2638 218.515 49.2718C221.971 52.2798 224.595 56.4398 226.387 61.7518C228.179 66.9998 229.075 73.1118 229.075 80.0878C229.075 83.3518 228.723 86.8078 228.019 90.4558C227.315 94.0398 226.291 97.3998 224.947 100.536C223.667 103.608 222.099 106.136 220.243 108.12C218.387 110.04 216.275 111 213.907 111C211.347 111 209.331 110.36 207.859 109.08C206.387 107.8 205.651 105.56 205.651 102.36C205.651 100.824 205.779 99.0638 206.035 97.0798C206.291 95.0318 206.547 92.9838 206.803 90.9358C207.059 88.8878 207.187 86.9998 207.187 85.2718C207.187 83.4798 206.931 82.0718 206.419 81.0478C205.971 79.9598 205.107 79.4158 203.827 79.4158C202.931 79.4158 202.291 79.9918 201.907 81.1438C201.587 82.2958 201.363 83.8318 201.235 85.7518C201.171 87.6078 201.139 89.6878 201.139 91.9918C201.139 94.2318 201.075 96.4718 200.947 98.7118C200.883 100.952 200.595 102.968 200.083 104.76C199.635 106.552 198.675 108.056 197.203 109.272C195.731 110.424 193.811 111 191.443 111Z" stroke="#6C95FF" stroke-width="40" mask="url(#path-1-outside-1_998_84)"/>
<path d="M264.841 111C262.217 111 259.401 110.808 256.393 110.424C253.449 110.04 250.537 109.24 247.657 108.024C244.777 106.808 242.153 105.016 239.785 102.648C237.417 100.28 235.529 97.1438 234.121 93.2398C232.713 89.2718 232.009 84.3758 232.009 78.5518C232.009 72.1518 233.097 66.3278 235.273 61.0798C237.449 55.8318 240.745 51.6398 245.161 48.5038C249.577 45.3678 255.113 43.7998 261.769 43.7998C266.569 43.7998 270.473 44.2158 273.481 45.0478C276.553 45.8798 278.953 46.9678 280.681 48.3118C282.409 49.6558 283.593 51.1278 284.233 52.7278C284.937 54.3278 285.289 55.9278 285.289 57.5278C285.289 59.1918 284.841 60.7918 283.945 62.3278C283.113 63.8638 281.769 65.0798 279.913 65.9758C278.121 66.8078 276.265 67.1918 274.345 67.1278C272.425 66.9998 270.697 66.9358 269.161 66.9358C265.833 66.9358 263.209 67.5438 261.289 68.7598C259.433 69.9118 258.121 71.7038 257.353 74.1358C258.377 74.0718 259.497 74.0398 260.713 74.0398C261.993 73.9758 263.305 73.9438 264.649 73.9438C267.273 73.9438 269.769 74.0078 272.137 74.1358C274.569 74.1998 276.265 74.3278 277.225 74.5198C279.465 74.9678 281.161 75.8638 282.313 77.2078C283.465 78.4878 284.041 79.9598 284.041 81.6238C284.041 83.2238 283.497 84.6638 282.409 85.9438C281.321 87.2238 279.561 88.1198 277.129 88.6318C276.233 88.8238 274.505 88.9838 271.945 89.1118C269.449 89.1758 266.825 89.2078 264.073 89.2078C262.985 89.2078 261.929 89.2078 260.905 89.2078C259.881 89.1438 258.953 89.1118 258.121 89.1118C259.017 91.0958 260.361 92.6638 262.153 93.8158C264.009 94.9038 266.377 95.4478 269.257 95.4478C270.345 95.4478 271.913 95.3518 273.961 95.1598C276.009 94.9038 277.993 95.0638 279.913 95.6398C282.985 96.5998 284.521 98.6158 284.521 101.688C284.521 103.352 283.945 104.92 282.793 106.392C281.705 107.8 279.721 108.92 276.841 109.752C274.025 110.584 270.025 111 264.841 111Z" stroke="#6C95FF" stroke-width="40" mask="url(#path-1-outside-1_998_84)"/>
<path d="M351.844 110.808C345.764 110.808 340.228 109.592 335.236 107.16C330.244 104.664 326.276 100.92 323.332 95.9278C320.388 90.9358 318.916 84.6958 318.916 77.2078C318.916 72.7918 319.684 68.5998 321.22 64.6318C322.756 60.5998 324.9 57.0158 327.652 53.8798C330.468 50.7438 333.764 48.2798 337.54 46.4878C341.316 44.6958 345.476 43.7998 350.02 43.7998C355.716 43.7998 360.708 44.8558 364.996 46.9678C369.284 49.0158 372.612 51.8318 374.98 55.4158C377.412 58.9998 378.628 62.9998 378.628 67.4158C378.628 69.1438 378.276 70.8078 377.572 72.4078C376.932 73.9438 375.908 75.2238 374.5 76.2478C373.156 77.2718 371.396 77.7838 369.22 77.7838C367.172 77.7838 365.54 77.4638 364.324 76.8238C363.172 76.1838 362.18 75.4158 361.348 74.5198C360.58 73.5598 359.78 72.5998 358.948 71.6398C358.116 70.6798 357.092 69.8798 355.876 69.2398C354.66 68.5998 352.996 68.2798 350.884 68.2798C348.9 68.2798 347.076 68.7918 345.412 69.8158C343.748 70.8398 342.404 72.2478 341.38 74.0398C340.42 75.7678 339.94 77.7518 339.94 79.9918C339.94 83.3198 340.804 86.2318 342.532 88.7278C344.324 91.2238 346.852 92.4718 350.116 92.4718C352.676 92.4718 354.692 92.0878 356.164 91.3198C357.7 90.5518 358.98 89.6878 360.004 88.7278C361.092 87.7038 362.244 86.8078 363.46 86.0398C364.74 85.2718 366.372 84.8878 368.356 84.8878C371.172 84.8878 373.284 85.8158 374.692 87.6718C376.164 89.5278 376.772 91.7998 376.516 94.4878C376.26 97.2398 375.044 99.8638 372.868 102.36C370.756 104.856 367.876 106.904 364.228 108.504C360.644 110.04 356.516 110.808 351.844 110.808Z" stroke="#6C95FF" stroke-width="40" mask="url(#path-1-outside-1_998_84)"/>
<path d="M415.31 111C412.686 111 409.87 110.808 406.862 110.424C403.918 110.04 401.006 109.24 398.126 108.024C395.246 106.808 392.622 105.016 390.254 102.648C387.886 100.28 385.998 97.1438 384.59 93.2398C383.182 89.2718 382.478 84.3758 382.478 78.5518C382.478 72.1518 383.566 66.3278 385.742 61.0798C387.918 55.8318 391.214 51.6398 395.63 48.5038C400.046 45.3678 405.582 43.7998 412.238 43.7998C417.038 43.7998 420.942 44.2158 423.95 45.0478C427.022 45.8798 429.422 46.9678 431.15 48.3118C432.878 49.6558 434.062 51.1278 434.702 52.7278C435.406 54.3278 435.758 55.9278 435.758 57.5278C435.758 59.1918 435.31 60.7918 434.414 62.3278C433.582 63.8638 432.238 65.0798 430.382 65.9758C428.59 66.8078 426.734 67.1918 424.814 67.1278C422.894 66.9998 421.166 66.9358 419.63 66.9358C416.302 66.9358 413.678 67.5438 411.758 68.7598C409.902 69.9118 408.59 71.7038 407.822 74.1358C408.846 74.0718 409.966 74.0398 411.182 74.0398C412.462 73.9758 413.774 73.9438 415.118 73.9438C417.742 73.9438 420.238 74.0078 422.606 74.1358C425.038 74.1998 426.734 74.3278 427.694 74.5198C429.934 74.9678 431.63 75.8638 432.782 77.2078C433.934 78.4878 434.51 79.9598 434.51 81.6238C434.51 83.2238 433.966 84.6638 432.878 85.9438C431.79 87.2238 430.03 88.1198 427.598 88.6318C426.702 88.8238 424.974 88.9838 422.414 89.1118C419.918 89.1758 417.294 89.2078 414.542 89.2078C413.454 89.2078 412.398 89.2078 411.374 89.2078C410.35 89.1438 409.422 89.1118 408.59 89.1118C409.486 91.0958 410.83 92.6638 412.622 93.8158C414.478 94.9038 416.846 95.4478 419.726 95.4478C420.814 95.4478 422.382 95.3518 424.43 95.1598C426.478 94.9038 428.462 95.0638 430.382 95.6398C433.454 96.5998 434.99 98.6158 434.99 101.688C434.99 103.352 434.414 104.92 433.262 106.392C432.174 107.8 430.19 108.92 427.31 109.752C424.494 110.584 420.494 111 415.31 111Z" stroke="#6C95FF" stroke-width="40" mask="url(#path-1-outside-1_998_84)"/>
<path d="M450.753 111C448.769 111 447.009 110.2 445.473 108.6C444.001 107 442.753 104.888 441.729 102.264C440.769 99.6398 439.969 96.7598 439.329 93.6238C438.753 90.4878 438.337 87.3518 438.081 84.2158C437.825 81.0158 437.697 78.1358 437.697 75.5758C437.697 72.3118 437.953 68.8558 438.465 65.2078C438.977 61.5598 439.873 58.1358 441.153 54.9358C442.433 51.6718 444.193 49.0158 446.433 46.9678C448.673 44.9198 451.553 43.8958 455.073 43.8958C457.505 43.8958 459.617 44.6958 461.409 46.2958C463.265 47.8318 464.929 50.0078 466.401 52.8238C467.873 55.5758 469.281 58.7438 470.625 62.3278C471.969 65.9118 473.409 69.7198 474.945 73.7518C474.689 68.2478 474.849 63.2558 475.425 58.7758C476.065 54.2318 477.345 50.6158 479.265 47.9278C481.185 45.2398 483.905 43.8958 487.425 43.8958C490.433 43.8958 492.833 44.9198 494.625 46.9678C496.481 49.0158 497.889 51.6718 498.849 54.9358C499.809 58.1358 500.449 61.5598 500.769 65.2078C501.153 68.8558 501.345 72.3118 501.345 75.5758C501.345 78.1998 501.153 81.0798 500.769 84.2158C500.385 87.3518 499.745 90.4878 498.849 93.6238C497.953 96.7598 496.737 99.6398 495.201 102.264C493.665 104.888 491.777 107 489.537 108.6C487.361 110.2 484.737 111 481.665 111C478.913 111 476.545 110.136 474.561 108.408C472.641 106.616 470.913 104.28 469.377 101.4C467.905 98.4558 466.529 95.2238 465.249 91.7038C463.969 88.1838 462.625 84.6638 461.217 81.1438C461.281 85.5598 461.281 89.6238 461.217 93.3358C461.153 96.9838 460.801 100.12 460.161 102.744C459.585 105.368 458.561 107.416 457.089 108.888C455.617 110.296 453.505 111 450.753 111Z" stroke="#6C95FF" stroke-width="40" mask="url(#path-1-outside-1_998_84)"/>
<path d="M536.828 110.808C533.628 110.808 531.196 109.752 529.532 107.64C527.868 105.528 526.716 102.392 526.076 98.2318C525.5 94.0078 525.212 88.7918 525.212 82.5838C525.212 80.3438 525.244 78.2318 525.308 76.2478C525.372 74.2638 525.436 72.4078 525.5 70.6798C517.82 70.2958 512.188 69.2078 508.604 67.4158C505.02 65.6238 503.228 62.5198 503.228 58.1038C503.228 52.5998 506.012 48.8878 511.58 46.9678C517.212 45.0478 525.66 44.0878 536.924 44.0878C548.252 44.0878 556.764 45.0478 562.46 46.9678C568.22 48.8878 571.1 52.5998 571.1 58.1038C571.1 62.4558 569.276 65.5598 565.628 67.4158C562.044 69.2078 556.444 70.2958 548.828 70.6798C548.956 72.4078 549.052 74.2638 549.116 76.2478C549.18 78.2318 549.212 80.3438 549.212 82.5838C549.212 92.3758 548.348 99.5438 546.62 104.088C544.892 108.568 541.628 110.808 536.828 110.808Z" stroke="#6C95FF" stroke-width="40" mask="url(#path-1-outside-1_998_84)"/>
<path d="M603.935 111C601.311 111 598.495 110.808 595.487 110.424C592.543 110.04 589.631 109.24 586.751 108.024C583.871 106.808 581.247 105.016 578.879 102.648C576.511 100.28 574.623 97.1438 573.215 93.2398C571.807 89.2718 571.103 84.3758 571.103 78.5518C571.103 72.1518 572.191 66.3278 574.367 61.0798C576.543 55.8318 579.839 51.6398 584.255 48.5038C588.671 45.3678 594.207 43.7998 600.863 43.7998C605.663 43.7998 609.567 44.2158 612.575 45.0478C615.647 45.8798 618.047 46.9678 619.775 48.3118C621.503 49.6558 622.687 51.1278 623.327 52.7278C624.031 54.3278 624.383 55.9278 624.383 57.5278C624.383 59.1918 623.935 60.7918 623.039 62.3278C622.207 63.8638 620.863 65.0798 619.007 65.9758C617.215 66.8078 615.359 67.1918 613.439 67.1278C611.519 66.9998 609.791 66.9358 608.255 66.9358C604.927 66.9358 602.303 67.5438 600.383 68.7598C598.527 69.9118 597.215 71.7038 596.447 74.1358C597.471 74.0718 598.591 74.0398 599.807 74.0398C601.087 73.9758 602.399 73.9438 603.743 73.9438C606.367 73.9438 608.863 74.0078 611.231 74.1358C613.663 74.1998 615.359 74.3278 616.319 74.5198C618.559 74.9678 620.255 75.8638 621.407 77.2078C622.559 78.4878 623.135 79.9598 623.135 81.6238C623.135 83.2238 622.591 84.6638 621.503 85.9438C620.415 87.2238 618.655 88.1198 616.223 88.6318C615.327 88.8238 613.599 88.9838 611.039 89.1118C608.543 89.1758 605.919 89.2078 603.167 89.2078C602.079 89.2078 601.023 89.2078 599.999 89.2078C598.975 89.1438 598.047 89.1118 597.215 89.1118C598.111 91.0958 599.455 92.6638 601.247 93.8158C603.103 94.9038 605.471 95.4478 608.351 95.4478C609.439 95.4478 611.007 95.3518 613.055 95.1598C615.103 94.9038 617.087 95.0638 619.007 95.6398C622.079 96.5998 623.615 98.6158 623.615 101.688C623.615 103.352 623.039 104.92 621.887 106.392C620.799 107.8 618.815 108.92 615.935 109.752C613.119 110.584 609.119 111 603.935 111Z" stroke="#6C95FF" stroke-width="40" mask="url(#path-1-outside-1_998_84)"/>
<path d="M641.849 111.096C638.969 111.096 636.569 110.168 634.649 108.312C632.793 106.392 631.321 103.864 630.233 100.728C629.145 97.5278 628.377 94.0398 627.929 90.2638C627.545 86.4878 627.353 82.7438 627.353 79.0318C627.353 74.6798 627.929 70.4238 629.081 66.2638C630.297 62.1038 632.121 58.3598 634.553 55.0318C637.049 51.6398 640.185 48.9518 643.961 46.9678C647.737 44.9838 652.217 43.9918 657.401 43.9918C662.649 43.9918 667.385 45.0798 671.609 47.2558C675.897 49.4318 679.321 52.5358 681.881 56.5678C684.441 60.5998 685.721 65.3998 685.721 70.9678C685.721 75.8318 684.985 80.0558 683.513 83.6398C682.105 87.1598 680.217 90.0718 677.849 92.3758C678.809 93.8478 679.577 95.4158 680.153 97.0798C680.729 98.7438 681.017 100.344 681.017 101.88C681.017 103.672 680.537 105.272 679.577 106.68C678.617 108.024 677.369 109.08 675.833 109.848C674.361 110.616 672.793 111 671.129 111C669.721 111 668.409 110.776 667.193 110.328C665.977 109.88 664.633 109.112 663.161 108.024C661.817 107 660.633 105.656 659.609 103.992C658.585 102.264 657.753 100.568 657.113 98.9038C654.873 98.6478 652.761 98.1038 650.777 97.2718C651.097 98.8078 651.257 100.376 651.257 101.976C651.321 103.576 651.065 105.08 650.489 106.488C649.977 107.832 649.017 108.952 647.609 109.848C646.265 110.68 644.345 111.096 641.849 111.096ZM658.361 83.6398C660.665 83.6398 662.649 82.8398 664.313 81.2398C666.041 79.5758 666.905 77.6558 666.905 75.4798C666.905 73.2398 666.041 71.3198 664.313 69.7198C662.649 68.0558 660.665 67.2238 658.361 67.2238C656.057 67.2238 654.041 68.0558 652.313 69.7198C650.649 71.3198 649.817 73.2398 649.817 75.4798C649.817 77.6558 650.649 79.5758 652.313 81.2398C654.041 82.8398 656.057 83.6398 658.361 83.6398Z" stroke="#6C95FF" stroke-width="40" mask="url(#path-1-outside-1_998_84)"/>
</g>
<g filter="url(#filter1_d_998_84)">
<path d="M723.489 43.1381C722.499 43.1381 721.312 42.8842 719.927 42.3766C719.65 44.212 719.135 45.6179 718.384 46.5941C717.632 47.5314 716.524 48 715.059 48C713.437 48 712.25 47.5119 711.498 46.5356C710.785 45.5593 710.311 44.1729 710.073 42.3766C708.688 42.8842 707.501 43.1381 706.511 43.1381C705.562 43.1381 704.75 42.9038 704.078 42.4351C703.405 41.9275 702.89 41.3222 702.534 40.6192C702.218 39.9163 702.059 39.2329 702.059 38.569C702.059 37.749 702.317 36.9679 702.831 36.2259C703.385 35.484 704.157 34.742 705.146 34C704.117 33.1799 703.326 32.3794 702.772 31.5983C702.257 30.8173 702 30.0167 702 29.1967C702 28.5328 702.178 27.8689 702.534 27.205C702.89 26.5021 703.405 25.9163 704.078 25.4477C704.75 24.94 705.522 24.6862 706.393 24.6862C707.382 24.6862 708.609 24.9791 710.073 25.5649C710.35 23.7685 710.865 22.4017 711.616 21.4644C712.368 20.4881 713.536 20 715.119 20C716.543 20 717.612 20.4881 718.324 21.4644C719.076 22.4017 719.61 23.7685 719.927 25.5649C721.391 24.9791 722.618 24.6862 723.607 24.6862C724.557 24.6862 725.349 24.94 725.982 25.4477C726.654 25.9554 727.149 26.5607 727.466 27.2636C727.822 27.9665 728 28.6109 728 29.1967C728 30.0167 727.723 30.8173 727.169 31.5983C726.654 32.3794 725.883 33.1799 724.854 34C725.843 34.742 726.595 35.484 727.11 36.2259C727.664 36.9679 727.941 37.749 727.941 38.569C727.941 39.6234 727.545 40.6583 726.753 41.6736C725.962 42.6499 724.874 43.1381 723.489 43.1381Z" fill="white"/>
<path d="M704.088 14.8743C702.001 15.2191 699.998 16.0396 698.214 17.3468C696.338 18.6863 694.771 20.4453 693.668 22.5793C692.668 24.477 692 26.7163 692 29.1967C692 30.9115 692.314 32.5131 692.845 33.9745C692.344 35.3966 692.059 36.9373 692.059 38.569C692.059 40.8592 692.611 42.9386 693.416 44.7258L693.51 44.9347L693.614 45.139C694.707 47.2953 696.251 49.0567 698.054 50.4174L698.206 50.532L698.362 50.6407C700.092 51.8455 701.945 52.5515 703.774 52.8899C706.976 56.8562 711.474 58 715.059 58C718.806 58 723.078 56.6851 726.14 52.9054C729.27 52.3468 732.256 50.7654 734.521 47.9711L734.582 47.8969L734.64 47.8216C736.49 45.4484 737.941 42.3088 737.941 38.569C737.941 36.9227 737.646 35.3821 737.138 33.9719C737.676 32.5233 738 30.9233 738 29.1967C738 26.6936 737.277 24.5557 736.481 22.9348C735.433 20.7091 733.893 18.9152 732.113 17.5472C730.145 16.0071 727.967 15.1833 725.846 14.8564C722.922 11.3492 718.845 10 715.119 10C711.55 10 707.228 11.1528 704.088 14.8743Z" stroke="#6C95FF" stroke-width="20"/>
</g>
<g filter="url(#filter2_d_998_84)">
<path d="M577.489 148.138C576.499 148.138 575.312 147.884 573.927 147.377C573.65 149.212 573.135 150.618 572.384 151.594C571.632 152.531 570.524 153 569.059 153C567.437 153 566.25 152.512 565.498 151.536C564.785 150.559 564.311 149.173 564.073 147.377C562.688 147.884 561.501 148.138 560.511 148.138C559.562 148.138 558.75 147.904 558.078 147.435C557.405 146.927 556.89 146.322 556.534 145.619C556.218 144.916 556.059 144.233 556.059 143.569C556.059 142.749 556.317 141.968 556.831 141.226C557.385 140.484 558.157 139.742 559.146 139C558.117 138.18 557.326 137.379 556.772 136.598C556.257 135.817 556 135.017 556 134.197C556 133.533 556.178 132.869 556.534 132.205C556.89 131.502 557.405 130.916 558.078 130.448C558.75 129.94 559.522 129.686 560.393 129.686C561.382 129.686 562.609 129.979 564.073 130.565C564.35 128.768 564.865 127.402 565.616 126.464C566.368 125.488 567.536 125 569.119 125C570.543 125 571.612 125.488 572.324 126.464C573.076 127.402 573.61 128.768 573.927 130.565C575.391 129.979 576.618 129.686 577.607 129.686C578.557 129.686 579.349 129.94 579.982 130.448C580.654 130.955 581.149 131.561 581.466 132.264C581.822 132.967 582 133.611 582 134.197C582 135.017 581.723 135.817 581.169 136.598C580.654 137.379 579.883 138.18 578.854 139C579.843 139.742 580.595 140.484 581.11 141.226C581.664 141.968 581.941 142.749 581.941 143.569C581.941 144.623 581.545 145.658 580.753 146.674C579.962 147.65 578.874 148.138 577.489 148.138Z" fill="white"/>
<path d="M558.088 119.874C556.001 120.219 553.998 121.04 552.214 122.347C550.338 123.686 548.771 125.445 547.668 127.579C546.668 129.477 546 131.716 546 134.197C546 135.911 546.314 137.513 546.845 138.975C546.344 140.397 546.059 141.937 546.059 143.569C546.059 145.859 546.611 147.939 547.416 149.726L547.51 149.935L547.614 150.139C548.707 152.295 550.251 154.057 552.054 155.417L552.206 155.532L552.362 155.641C554.092 156.845 555.945 157.551 557.774 157.89C560.976 161.856 565.474 163 569.059 163C572.806 163 577.078 161.685 580.14 157.905C583.27 157.347 586.256 155.765 588.521 152.971L588.582 152.897L588.64 152.822C590.49 150.448 591.941 147.309 591.941 143.569C591.941 141.923 591.646 140.382 591.138 138.972C591.676 137.523 592 135.923 592 134.197C592 131.694 591.277 129.556 590.481 127.935C589.433 125.709 587.893 123.915 586.113 122.547C584.145 121.007 581.967 120.183 579.846 119.856C576.922 116.349 572.845 115 569.119 115C565.55 115 561.228 116.153 558.088 119.874Z" stroke="#6C95FF" stroke-width="20"/>
</g>
<defs>
<filter id="filter0_d_998_84" x="0.259277" y="23.7998" width="709.462" height="115.392" filterUnits="userSpaceOnUse" color-interpolation-filters="sRGB">
<feFlood flood-opacity="0" result="BackgroundImageFix"/>
<feColorMatrix in="SourceAlpha" type="matrix" values="0 0 0 0 0 0 0 0 0 0 0 0 0 0 0 0 0 0 127 0" result="hardAlpha"/>
<feOffset dy="4"/>
<feGaussianBlur stdDeviation="2"/>
<feComposite in2="hardAlpha" operator="out"/>
<feColorMatrix type="matrix" values="0 0 0 0 0 0 0 0 0 0 0 0 0 0 0 0 0 0 0.25 0"/>
<feBlend mode="normal" in2="BackgroundImageFix" result="effect1_dropShadow_998_84"/>
<feBlend mode="normal" in="SourceGraphic" in2="effect1_dropShadow_998_84" result="shape"/>
</filter>
<filter id="filter1_d_998_84" x="678" y="0" width="74" height="76" filterUnits="userSpaceOnUse" color-interpolation-filters="sRGB">
<feFlood flood-opacity="0" result="BackgroundImageFix"/>
<feColorMatrix in="SourceAlpha" type="matrix" values="0 0 0 0 0 0 0 0 0 0 0 0 0 0 0 0 0 0 127 0" result="hardAlpha"/>
<feOffset dy="4"/>
<feGaussianBlur stdDeviation="2"/>
<feComposite in2="hardAlpha" operator="out"/>
<feColorMatrix type="matrix" values="0 0 0 0 0 0 0 0 0 0 0 0 0 0 0 0 0 0 0.25 0"/>
<feBlend mode="normal" in2="BackgroundImageFix" result="effect1_dropShadow_998_84"/>
<feBlend mode="normal" in="SourceGraphic" in2="effect1_dropShadow_998_84" result="shape"/>
</filter>
<filter id="filter2_d_998_84" x="532" y="105" width="74" height="76" filterUnits="userSpaceOnUse" color-interpolation-filters="sRGB">
<feFlood flood-opacity="0" result="BackgroundImageFix"/>
<feColorMatrix in="SourceAlpha" type="matrix" values="0 0 0 0 0 0 0 0 0 0 0 0 0 0 0 0 0 0 127 0" result="hardAlpha"/>
<feOffset dy="4"/>
<feGaussianBlur stdDeviation="2"/>
<feComposite in2="hardAlpha" operator="out"/>
<feColorMatrix type="matrix" values="0 0 0 0 0 0 0 0 0 0 0 0 0 0 0 0 0 0 0.25 0"/>
<feBlend mode="normal" in2="BackgroundImageFix" result="effect1_dropShadow_998_84"/>
<feBlend mode="normal" in="SourceGraphic" in2="effect1_dropShadow_998_84" result="shape"/>
</filter>
</defs>
</svg>
