<svg width="78" height="78" viewBox="0 0 78 78" fill="none" xmlns="http://www.w3.org/2000/svg">
<g filter="url(#filter0_d_998_88)">
<path d="M39 60C45.6304 60 51.9893 57.3661 56.6777 52.6777C61.3661 47.9893 64 41.6304 64 35C64 28.3696 61.3661 22.0107 56.6777 17.3223C51.9893 12.6339 45.6304 10 39 10C32.3696 10 26.0107 12.6339 21.3223 17.3223C16.6339 22.0107 14 28.3696 14 35C14 41.6304 16.6339 47.9893 21.3223 52.6777C26.0107 57.3661 32.3696 60 39 60ZM30.582 26.1426C31.3535 23.9648 33.4238 22.5 35.7383 22.5H41.4316C44.8398 22.5 47.5938 25.2637 47.5938 28.6621C47.5938 30.8691 46.4121 32.9102 44.498 34.0137L41.3438 35.8203C41.3242 37.0898 40.2793 38.125 39 38.125C37.7012 38.125 36.6562 37.0801 36.6562 35.7812V34.4629C36.6562 33.623 37.1055 32.8516 37.8379 32.4316L42.1641 29.9512C42.623 29.6875 42.9062 29.1992 42.9062 28.6719C42.9062 27.8516 42.2422 27.1973 41.4316 27.1973H35.7383C35.4063 27.1973 35.1133 27.4023 35.0059 27.7148L34.9668 27.832C34.5371 29.0527 33.1895 29.6875 31.9785 29.2578C30.7676 28.8281 30.123 27.4805 30.5527 26.2695L30.5918 26.1523L30.582 26.1426ZM35.875 44.375C35.875 43.5462 36.2042 42.7513 36.7903 42.1653C37.3763 41.5792 38.1712 41.25 39 41.25C39.8288 41.25 40.6237 41.5792 41.2097 42.1653C41.7958 42.7513 42.125 43.5462 42.125 44.375C42.125 45.2038 41.7958 45.9987 41.2097 46.5847C40.6237 47.1708 39.8288 47.5 39 47.5C38.1712 47.5 37.3763 47.1708 36.7903 46.5847C36.2042 45.9987 35.875 45.2038 35.875 44.375Z" fill="white"/>
<path d="M37.6742 43.0492C37.6865 43.0368 37.699 43.0247 37.7117 43.0127C38.1299 43.0865 38.5604 43.125 39 43.125C39.4393 43.125 39.8696 43.0863 40.2878 43.0122C40.3006 43.0243 40.3133 43.0366 40.3258 43.0492C40.6775 43.4008 40.875 43.8777 40.875 44.375C40.875 44.8723 40.6775 45.3492 40.3258 45.7008C39.9742 46.0525 39.4973 46.25 39 46.25C38.5027 46.25 38.0258 46.0525 37.6742 45.7008C37.3225 45.3492 37.125 44.8723 37.125 44.375C37.125 43.8777 37.3225 43.4008 37.6742 43.0492ZM39 65C46.9565 65 54.5871 61.8393 60.2132 56.2132C65.8393 50.5871 69 42.9565 69 35C69 27.0435 65.8393 19.4129 60.2132 13.7868C54.5871 8.16071 46.9565 5 39 5C31.0435 5 23.4129 8.16071 17.7868 13.7868C12.1607 19.4129 9 27.0435 9 35C9 42.9565 12.1607 50.5871 17.7868 56.2132C23.4129 61.8393 31.0435 65 39 65Z" stroke="#6C95FF" stroke-width="10"/>
</g>
<defs>
<filter id="filter0_d_998_88" x="0" y="0" width="78" height="78" filterUnits="userSpaceOnUse" color-interpolation-filters="sRGB">
<feFlood flood-opacity="0" result="BackgroundImageFix"/>
<feColorMatrix in="SourceAlpha" type="matrix" values="0 0 0 0 0 0 0 0 0 0 0 0 0 0 0 0 0 0 127 0" result="hardAlpha"/>
<feOffset dy="4"/>
<feGaussianBlur stdDeviation="2"/>
<feComposite in2="hardAlpha" operator="out"/>
<feColorMatrix type="matrix" values="0 0 0 0 0 0 0 0 0 0 0 0 0 0 0 0 0 0 0.25 0"/>
<feBlend mode="normal" in2="BackgroundImageFix" result="effect1_dropShadow_998_88"/>
<feBlend mode="normal" in="SourceGraphic" in2="effect1_dropShadow_998_88" result="shape"/>
</filter>
</defs>
</svg>
