<svg width="85" height="78" viewBox="0 0 85 78" fill="none" xmlns="http://www.w3.org/2000/svg">
<g filter="url(#filter0_d_998_86)">
<path d="M70.2305 34.9512C70.2305 36.709 68.7656 38.0859 67.1055 38.0859H63.9805L64.0488 53.7305C64.0488 53.9941 64.0293 54.2578 64 54.5215V56.0938C64 58.252 62.252 60 60.0937 60H58.5312C58.4238 60 58.3164 60 58.209 59.9902C58.0723 60 57.9355 60 57.7988 60H54.625H52.2812C50.123 60 48.375 58.252 48.375 56.0938V53.75V47.5C48.375 45.7715 46.9785 44.375 45.25 44.375H39C37.2715 44.375 35.875 45.7715 35.875 47.5V53.75V56.0938C35.875 58.252 34.127 60 31.9687 60H29.625H26.5098C26.3633 60 26.2168 59.9902 26.0703 59.9805C25.9531 59.9902 25.8359 60 25.7187 60H24.1562C21.998 60 20.25 58.252 20.25 56.0938V45.1562C20.25 45.0684 20.25 44.9707 20.2598 44.8828V38.0859H17.125C15.3672 38.0859 14 36.7188 14 34.9512C14 34.0723 14.293 33.291 14.9766 32.6074L40.0156 10.7812C40.6992 10.0977 41.4805 10 42.1641 10C42.8477 10 43.6289 10.1953 44.2148 10.6836L69.1562 32.6074C69.9375 33.291 70.3281 34.0723 70.2305 34.9512Z" fill="white"/>
<path d="M9 34.9512C9 38.8283 11.647 42.0409 15.2598 42.875V44.7165C15.2485 44.9369 15.2497 45.1059 15.25 45.1478C15.25 45.1518 15.25 45.1546 15.25 45.1562V56.0938C15.25 61.0134 19.2366 65 24.1562 65H25.7187C25.853 65 25.9823 64.9958 26.0959 64.9903C26.2196 64.9957 26.362 65 26.5098 65H29.625H31.9687C36.8884 65 40.875 61.0134 40.875 56.0938V53.75V49.375H43.375V53.75V56.0938C43.375 61.0134 47.3616 65 52.2812 65H54.625H57.7988L57.8225 65C57.8961 65.0001 58.029 65.0003 58.1916 64.9957C58.343 65.0005 58.4602 65.0002 58.5134 65C58.5205 65 58.5265 65 58.5312 65H60.0937C65.0134 65 69 61.0134 69 56.0938V54.7705C69.0281 54.459 69.0488 54.1079 69.0488 53.7305V53.7195L69.0488 53.7086L69.0014 42.8578C72.4113 42.0263 75.1043 39.0074 75.2262 35.2195C75.4358 32.3842 74.0059 30.2093 72.4546 28.8496C72.4526 28.8479 72.4507 28.8462 72.4488 28.8445L47.5159 6.92819L47.4664 6.88468L47.4158 6.84249C45.6946 5.40816 43.667 5 42.1641 5C41.0018 5 38.6707 5.16358 36.6317 7.09799L11.6911 28.8384L11.5621 28.9508L11.441 29.0719C9.78526 30.7277 9 32.7958 9 34.9512Z" stroke="#6C95FF" stroke-width="10"/>
</g>
<defs>
<filter id="filter0_d_998_86" x="0" y="0" width="84.2483" height="78" filterUnits="userSpaceOnUse" color-interpolation-filters="sRGB">
<feFlood flood-opacity="0" result="BackgroundImageFix"/>
<feColorMatrix in="SourceAlpha" type="matrix" values="0 0 0 0 0 0 0 0 0 0 0 0 0 0 0 0 0 0 127 0" result="hardAlpha"/>
<feOffset dy="4"/>
<feGaussianBlur stdDeviation="2"/>
<feComposite in2="hardAlpha" operator="out"/>
<feColorMatrix type="matrix" values="0 0 0 0 0 0 0 0 0 0 0 0 0 0 0 0 0 0 0.25 0"/>
<feBlend mode="normal" in2="BackgroundImageFix" result="effect1_dropShadow_998_86"/>
<feBlend mode="normal" in="SourceGraphic" in2="effect1_dropShadow_998_86" result="shape"/>
</filter>
</defs>
</svg>
