<svg width="40" height="36" viewBox="0 0 40 36" fill="none" xmlns="http://www.w3.org/2000/svg">
<path d="M25.2969 0.217315C22.3125 -0.634247 19.1953 1.09231 18.3438 4.07669L17.8984 5.63919C17.6094 6.65482 17.0859 7.59232 16.375 8.37356L12.3672 12.7798C11.6719 13.5454 11.7266 14.7329 12.4922 15.4283C13.2578 16.1236 14.4453 16.0689 15.1406 15.3033L19.1484 10.897C20.25 9.68607 21.0547 8.24075 21.5 6.67044L21.9453 5.10794C22.2266 4.11575 23.2656 3.53763 24.2656 3.81888C25.2656 4.10013 25.8359 5.13919 25.5547 6.13919L25.1094 7.70169C24.6641 9.25638 23.9609 10.7251 23.0312 12.0376C22.625 12.6079 22.5781 13.3579 22.8984 13.9829C23.2188 14.6079 23.8594 14.9986 24.5625 14.9986H35C35.6875 14.9986 36.25 15.5611 36.25 16.2486C36.25 16.7798 35.9141 17.2408 35.4375 17.4204C34.8594 17.6392 34.4219 18.1236 34.2734 18.7251C34.125 19.3267 34.2812 19.9595 34.6875 20.4204C34.8828 20.6392 35 20.9283 35 21.2486C35 21.8579 34.5625 22.3658 33.9844 22.4751C33.3438 22.6001 32.8047 23.0454 32.5781 23.6626C32.3516 24.2798 32.4531 24.9673 32.8594 25.4829C33.0234 25.6939 33.125 25.9595 33.125 26.2564C33.125 26.7798 32.7969 27.2408 32.3281 27.4204C31.4297 27.772 30.9453 28.7408 31.2031 29.6704C31.2344 29.772 31.25 29.8892 31.25 30.0064C31.25 30.6939 30.6875 31.2564 30 31.2564H22.3828C21.3984 31.2564 20.4297 30.9673 19.6094 30.4204L14.7891 27.2095C13.9297 26.6314 12.7656 26.8658 12.1875 27.7329C11.6094 28.6001 11.8438 29.7564 12.7109 30.3345L17.5312 33.5454C18.9688 34.5064 20.6562 35.0142 22.3828 35.0142H30C32.7109 35.0142 34.9141 32.8579 35 30.1704C36.1406 29.2564 36.875 27.8501 36.875 26.2642C36.875 25.9126 36.8359 25.5767 36.7734 25.2486C37.9766 24.3345 38.75 22.8892 38.75 21.2642C38.75 20.7564 38.6719 20.2642 38.5312 19.8033C39.4375 18.8814 40 17.6314 40 16.2486C40 13.4908 37.7656 11.2486 35 11.2486H27.7891C28.1562 10.4361 28.4688 9.59232 28.7109 8.73294L29.1562 7.17044C30.0078 4.18607 28.2812 1.06888 25.2969 0.217315ZM2.5 12.4986C1.11719 12.4986 0 13.6158 0 14.9986V32.4986C0 33.8814 1.11719 34.9986 2.5 34.9986H7.5C8.88281 34.9986 10 33.8814 10 32.4986V14.9986C10 13.6158 8.88281 12.4986 7.5 12.4986H2.5Z" fill="white"/>
</svg>
