<svg width="43" height="37" viewBox="0 0 43 37" fill="none" xmlns="http://www.w3.org/2000/svg">
<path d="M18.9637 35.8619L18.7537 35.6687L4.03965 22.0044C1.46133 19.6109 0 16.2515 0 12.7326V12.4554C0 6.54291 4.19922 1.47025 10.0109 0.361657C13.3199 -0.276624 16.7045 0.487633 19.4004 2.38568C20.1562 2.92318 20.8617 3.54467 21.5 4.25853C21.8527 3.85541 22.2307 3.48588 22.6338 3.14154C22.9445 2.87279 23.2637 2.62084 23.5996 2.38568C26.2955 0.487633 29.6801 -0.276624 32.9891 0.353259C38.8008 1.46185 43 6.54291 43 12.4554V12.7326C43 16.2515 41.5387 19.6109 38.9604 22.0044L24.2463 35.6687L24.0363 35.8619C23.3477 36.5001 22.4406 36.8613 21.5 36.8613C20.5594 36.8613 19.6523 36.5085 18.9637 35.8619ZM20.0807 8.7181C20.0471 8.69291 20.0219 8.65931 19.9967 8.62572L18.5018 6.94603L18.4934 6.93763C16.5533 4.76244 13.6223 3.77142 10.7668 4.31732C6.85313 5.06478 4.03125 8.47455 4.03125 12.4554V12.7326C4.03125 15.1261 5.03066 17.4189 6.78594 19.0482L21.5 32.7124L36.2141 19.0482C37.9693 17.4189 38.9688 15.1261 38.9688 12.7326V12.4554C38.9688 8.48295 36.1469 5.06478 32.2416 4.31732C29.3861 3.77142 26.4467 4.77084 24.515 6.93763C24.515 6.93763 24.515 6.93763 24.5066 6.94603C24.4982 6.95443 24.5066 6.94603 24.4982 6.95443L23.0033 8.63412C22.9781 8.66771 22.9445 8.69291 22.9193 8.7265C22.5414 9.10443 22.0291 9.31439 21.5 9.31439C20.9709 9.31439 20.4586 9.10443 20.0807 8.7265V8.7181Z" fill="black"/>
</svg>
