<svg width="16" height="14" viewBox="0 0 16 14" fill="none" xmlns="http://www.w3.org/2000/svg">
<path d="M1.4875 8.38669L7.13438 13.6586C7.36875 13.8773 7.67812 13.9992 8 13.9992C8.32188 13.9992 8.63125 13.8773 8.86563 13.6586L14.5125 8.38669C15.4625 7.50232 16 6.26169 16 4.96482V4.78357C16 2.59919 14.4219 0.736691 12.2688 0.377316C10.8438 0.139816 9.39375 0.605441 8.375 1.62419L8 1.99919L7.625 1.62419C6.60625 0.605441 5.15625 0.139816 3.73125 0.377316C1.57812 0.736691 0 2.59919 0 4.78357V4.96482C0 6.26169 0.5375 7.50232 1.4875 8.38669Z" fill="black"/>
</svg>
