<svg width="30" height="26" viewBox="0 0 30 26" fill="none" xmlns="http://www.w3.org/2000/svg">
<path d="M1.45161 0.417969C0.647177 0.417969 0 1.06515 0 1.86958V4.77281C0 5.57724 0.647177 6.22442 1.45161 6.22442H4.35484C5.15927 6.22442 5.80645 5.57724 5.80645 4.77281V1.86958C5.80645 1.06515 5.15927 0.417969 4.35484 0.417969H1.45161ZM10.6452 1.38571C9.5746 1.38571 8.70968 2.25063 8.70968 3.32119C8.70968 4.39176 9.5746 5.25668 10.6452 5.25668H28.0645C29.1351 5.25668 30 4.39176 30 3.32119C30 2.25063 29.1351 1.38571 28.0645 1.38571H10.6452ZM10.6452 11.0631C9.5746 11.0631 8.70968 11.9281 8.70968 12.9986C8.70968 14.0692 9.5746 14.9341 10.6452 14.9341H28.0645C29.1351 14.9341 30 14.0692 30 12.9986C30 11.9281 29.1351 11.0631 28.0645 11.0631H10.6452ZM10.6452 20.7406C9.5746 20.7406 8.70968 21.6055 8.70968 22.676C8.70968 23.7466 9.5746 24.6115 10.6452 24.6115H28.0645C29.1351 24.6115 30 23.7466 30 22.676C30 21.6055 29.1351 20.7406 28.0645 20.7406H10.6452ZM0 11.547V14.4502C0 15.2547 0.647177 15.9018 1.45161 15.9018H4.35484C5.15927 15.9018 5.80645 15.2547 5.80645 14.4502V11.547C5.80645 10.7426 5.15927 10.0954 4.35484 10.0954H1.45161C0.647177 10.0954 0 10.7426 0 11.547ZM1.45161 19.7728C0.647177 19.7728 0 20.42 0 21.2244V24.1276C0 24.9321 0.647177 25.5793 1.45161 25.5793H4.35484C5.15927 25.5793 5.80645 24.9321 5.80645 24.1276V21.2244C5.80645 20.42 5.15927 19.7728 4.35484 19.7728H1.45161Z" fill="black"/>
</svg>
