<svg width="45" height="44" viewBox="0 0 45 44" fill="none" xmlns="http://www.w3.org/2000/svg">
<path d="M36.3107 17.7486C36.3107 21.6652 35.0393 25.2832 32.8975 28.2186L43.7002 39.0298C44.7668 40.0965 44.7668 41.8287 43.7002 42.8953C42.6336 43.9619 40.9014 43.9619 39.8348 42.8953L29.032 32.084C26.0967 34.2343 22.4787 35.4972 18.5621 35.4972C8.75768 35.4972 0.813477 27.553 0.813477 17.7486C0.813477 7.9442 8.75768 0 18.5621 0C28.3665 0 36.3107 7.9442 36.3107 17.7486ZM18.5621 30.0361C20.1757 30.0361 21.7735 29.7183 23.2643 29.1008C24.7551 28.4833 26.1096 27.5782 27.2506 26.4372C28.3916 25.2962 29.2967 23.9416 29.9142 22.4508C30.5317 20.96 30.8496 19.3622 30.8496 17.7486C30.8496 16.135 30.5317 14.5372 29.9142 13.0464C29.2967 11.5556 28.3916 10.201 27.2506 9.06003C26.1096 7.91903 24.7551 7.01394 23.2643 6.39644C21.7735 5.77893 20.1757 5.46111 18.5621 5.46111C16.9485 5.46111 15.3506 5.77893 13.8599 6.39644C12.3691 7.01394 11.0145 7.91903 9.8735 9.06003C8.73251 10.201 7.82742 11.5556 7.20991 13.0464C6.59241 14.5372 6.27458 16.135 6.27458 17.7486C6.27458 19.3622 6.59241 20.96 7.20991 22.4508C7.82742 23.9416 8.73251 25.2962 9.8735 26.4372C11.0145 27.5782 12.3691 28.4833 13.8599 29.1008C15.3506 29.7183 16.9485 30.0361 18.5621 30.0361Z" fill="white"/>
</svg>
