<svg width="44" height="44" viewBox="0 0 44 44" fill="none" xmlns="http://www.w3.org/2000/svg">
<path d="M35.8107 17.7486C35.8107 21.6652 34.5393 25.2832 32.3975 28.2186L43.2002 39.0298C44.2668 40.0965 44.2668 41.8287 43.2002 42.8953C42.1336 43.9619 40.4014 43.9619 39.3348 42.8953L28.532 32.084C25.5967 34.2343 21.9787 35.4972 18.0621 35.4972C8.25768 35.4972 0.313477 27.553 0.313477 17.7486C0.313477 7.9442 8.25768 0 18.0621 0C27.8665 0 35.8107 7.9442 35.8107 17.7486ZM18.0621 30.0361C19.6757 30.0361 21.2735 29.7183 22.7643 29.1008C24.2551 28.4833 25.6096 27.5782 26.7506 26.4372C27.8916 25.2962 28.7967 23.9416 29.4142 22.4508C30.0317 20.96 30.3496 19.3622 30.3496 17.7486C30.3496 16.135 30.0317 14.5372 29.4142 13.0464C28.7967 11.5556 27.8916 10.201 26.7506 9.06003C25.6096 7.91903 24.2551 7.01394 22.7643 6.39644C21.2735 5.77893 19.6757 5.46111 18.0621 5.46111C16.4485 5.46111 14.8506 5.77893 13.3599 6.39644C11.8691 7.01394 10.5145 7.91903 9.3735 9.06003C8.23251 10.201 7.32742 11.5556 6.70991 13.0464C6.09241 14.5372 5.77458 16.135 5.77458 17.7486C5.77458 19.3622 6.09241 20.96 6.70991 22.4508C7.32742 23.9416 8.23251 25.2962 9.3735 26.4372C10.5145 27.5782 11.8691 28.4833 13.3599 29.1008C14.8506 29.7183 16.4485 30.0361 18.0621 30.0361Z" fill="black"/>
</svg>
