<svg width="44" height="45" viewBox="0 0 44 45" fill="none" xmlns="http://www.w3.org/2000/svg">
<path d="M30.4596 0.847656C29.3686 0.847656 28.3791 1.50734 27.9562 2.52223C27.5334 3.53712 27.7702 4.69579 28.5398 5.47388L32.0412 8.9668L17.7227 23.2937C16.6656 24.3509 16.6656 26.0677 17.7227 27.1249C18.7799 28.1821 20.4968 28.1821 21.554 27.1249L35.8724 12.798L39.3738 16.2994C40.1519 17.0775 41.3105 17.3058 42.3254 16.883C43.3403 16.4601 44 15.479 44 14.3796V3.55404C44 2.05707 42.7906 0.847656 41.2936 0.847656H30.4596ZM7.4554 3.55404C3.71722 3.55404 0.689453 6.5818 0.689453 10.32V37.3838C0.689453 41.122 3.71722 44.1497 7.4554 44.1497H34.5192C38.2574 44.1497 41.2852 41.122 41.2852 37.3838V27.9115C41.2852 26.4145 40.0757 25.2051 38.5788 25.2051C37.0818 25.2051 35.8724 26.4145 35.8724 27.9115V37.3838C35.8724 38.128 35.2635 38.737 34.5192 38.737H7.4554C6.71115 38.737 6.10221 38.128 6.10221 37.3838V10.32C6.10221 9.57573 6.71115 8.9668 7.4554 8.9668H16.9277C18.4247 8.9668 19.6341 7.75738 19.6341 6.26042C19.6341 4.76345 18.4247 3.55404 16.9277 3.55404H7.4554Z" fill="black"/>
</svg>
