<svg width="81" height="81" viewBox="0 0 81 81" fill="none" xmlns="http://www.w3.org/2000/svg">
<path d="M74.5718 2.59721C71.1089 -0.865735 65.5113 -0.865735 62.0483 2.59721L57.2887 7.34096L72.7692 22.8214L77.5288 18.0618C80.9917 14.5989 80.9917 9.00128 77.5288 5.53833L74.5718 2.59721ZM27.2608 37.3847C26.2962 38.3493 25.553 39.5352 25.1261 40.8477L20.4456 54.8892C19.987 56.2491 20.3507 57.7513 21.3627 58.7791C22.3747 59.8069 23.8769 60.1548 25.2526 59.6962L39.2941 55.0157C40.5907 54.5888 41.7767 53.8456 42.757 52.881L69.2114 26.4109L53.7151 10.9146L27.2608 37.3847ZM15.18 9.2859C6.79938 9.2859 0 16.0853 0 24.4659V64.946C0 73.3266 6.79938 80.126 15.18 80.126H55.6601C64.0407 80.126 70.8401 73.3266 70.8401 64.946V49.7659C70.8401 46.9671 68.5789 44.7059 65.7801 44.7059C62.9813 44.7059 60.7201 46.9671 60.7201 49.7659V64.946C60.7201 67.7448 58.4589 70.006 55.6601 70.006H15.18C12.3812 70.006 10.12 67.7448 10.12 64.946V24.4659C10.12 21.6671 12.3812 19.4059 15.18 19.4059H30.36C33.1589 19.4059 35.42 17.1447 35.42 14.3459C35.42 11.5471 33.1589 9.2859 30.36 9.2859H15.18Z" fill="white"/>
</svg>
