<svg width="81" height="81" viewBox="0 0 81 81" fill="none" xmlns="http://www.w3.org/2000/svg">
<path d="M74.5718 3.29252C71.1089 -0.170423 65.5113 -0.170423 62.0483 3.29252L57.2887 8.03627L72.7692 23.5167L77.5288 18.7572C80.9917 15.2942 80.9917 9.69659 77.5288 6.23365L74.5718 3.29252ZM27.2608 38.0801C26.2962 39.0446 25.553 40.2306 25.1261 41.543L20.4456 55.5845C19.987 56.9444 20.3507 58.4466 21.3627 59.4744C22.3747 60.5022 23.8769 60.8501 25.2526 60.3915L39.2941 55.711C40.5907 55.2841 41.7767 54.5409 42.757 53.5763L69.2114 27.1062L53.7151 11.6099L27.2608 38.0801ZM15.18 9.98121C6.79938 9.98121 0 16.7806 0 25.1612V65.6413C0 74.0219 6.79938 80.8213 15.18 80.8213H55.6601C64.0407 80.8213 70.8401 74.0219 70.8401 65.6413V50.4613C70.8401 47.6624 68.5789 45.4013 65.7801 45.4013C62.9813 45.4013 60.7201 47.6624 60.7201 50.4613V65.6413C60.7201 68.4401 58.4589 70.7013 55.6601 70.7013H15.18C12.3812 70.7013 10.12 68.4401 10.12 65.6413V25.1612C10.12 22.3624 12.3812 20.1012 15.18 20.1012H30.36C33.1589 20.1012 35.42 17.84 35.42 15.0412C35.42 12.2424 33.1589 9.98121 30.36 9.98121H15.18Z" fill="black"/>
</svg>
