<svg width="758" height="404" viewBox="0 0 758 404" fill="none" xmlns="http://www.w3.org/2000/svg">
<g filter="url(#filter0_d_372_1368)">
<mask id="path-1-outside-1_372_1368" maskUnits="userSpaceOnUse" x="4" y="0" width="750" height="396" fill="black">
<rect fill="white" x="4" width="750" height="396"/>
<path d="M117.263 146.648C98.8085 146.537 84.9677 141.976 75.7404 132.964C66.6244 123.953 62.0663 109.323 62.0663 89.075C62.0663 70.7184 66.5132 56.3112 75.4069 45.8535C84.3006 35.2845 96.863 30 113.094 30C123.1 30 131.827 31.5019 139.275 34.5057C146.724 37.5095 152.449 41.7928 156.451 47.3554C160.453 52.918 162.454 59.4819 162.454 67.047C162.454 73.0547 161.12 78.3948 158.452 83.0674C155.895 87.74 152.06 91.912 146.946 95.5833C151.059 96.2508 154.617 98.4758 157.618 102.258C160.731 106.041 162.288 110.435 162.288 115.442C162.288 120.782 160.842 125.844 157.952 130.628C155.173 135.3 150.392 139.139 143.611 142.142C136.94 145.146 128.158 146.648 117.263 146.648ZM105.757 84.4024C107.758 85.4037 110.259 85.9043 113.261 85.9043C116.818 85.9043 119.876 85.0699 122.433 83.4011C125.101 81.6211 126.435 79.0067 126.435 75.5579C126.435 72.2203 125.101 69.7171 122.433 68.0483C119.876 66.2683 116.763 65.3783 113.094 65.3783C110.204 65.3783 107.758 65.8789 105.757 66.8802C104.2 67.5477 103.033 68.7158 102.255 70.3846C101.477 72.0534 101.088 73.8334 101.088 75.7247C101.088 77.616 101.477 79.3961 102.255 81.0648C103.033 82.6224 104.2 83.7349 105.757 84.4024ZM105.757 123.452C107.869 124.342 110.37 124.787 113.261 124.787C116.818 124.787 119.876 124.064 122.433 122.618C125.101 121.06 126.435 118.779 126.435 115.776C126.435 112.883 125.101 110.658 122.433 109.1C119.764 107.543 116.652 106.764 113.094 106.764C110.315 106.764 107.869 107.209 105.757 108.099C104.2 108.767 103.033 109.824 102.255 111.27C101.477 112.605 101.088 114.107 101.088 115.776C101.088 117.444 101.477 119.002 102.255 120.448C103.033 121.783 104.2 122.784 105.757 123.452Z"/>
<path d="M268.981 77.2266C268.981 85.3481 267.758 92.5238 265.312 98.754C262.978 104.984 259.643 110.213 255.307 114.441C258.976 120.114 260.81 125.621 260.81 130.962C260.81 135.523 259.031 139.305 255.474 142.309C252.027 145.313 248.081 146.815 243.634 146.815C241.077 146.815 238.742 146.426 236.63 145.647C234.518 144.868 232.239 143.533 229.793 141.642C227.681 139.973 225.68 137.692 223.79 134.8C221.9 131.907 220.399 128.903 219.287 125.788C215.619 125.343 211.95 124.398 208.281 122.951C208.948 126.511 209.282 129.237 209.282 131.128C209.282 141.697 203.779 146.982 192.773 146.982C183.546 146.982 177.042 141.586 173.262 130.795C169.482 120.003 167.593 106.82 167.593 91.2444C167.593 80.6755 169.482 70.774 173.262 61.5401C177.153 52.1949 183.045 44.6853 190.939 39.0114C198.832 33.2263 208.448 30.3338 219.788 30.3338C228.904 30.3338 237.186 32.2807 244.634 36.1745C252.083 39.9571 257.975 45.4085 262.311 52.5286C266.758 59.6488 268.981 67.8814 268.981 77.2266ZM206.614 85.0699C206.614 88.8525 208.115 92.1901 211.116 95.0826C214.118 97.864 217.564 99.2546 221.455 99.2546C225.457 99.2546 228.904 97.864 231.794 95.0826C234.796 92.1901 236.297 88.8525 236.297 85.0699C236.297 81.1761 234.796 77.8385 231.794 75.0572C228.904 72.1647 225.457 70.7184 221.455 70.7184C217.564 70.7184 214.118 72.1647 211.116 75.0572C208.115 77.9498 206.614 81.2874 206.614 85.0699Z"/>
<path d="M323.077 116.61C328.747 117.278 333.138 118.724 336.251 120.949C339.475 123.063 341.087 126.456 341.087 131.128C341.087 135.801 339.419 139.25 336.084 141.475C332.86 143.7 328.969 145.091 324.411 145.647C319.853 146.092 313.961 146.314 306.735 146.314C299.62 146.314 293.783 146.092 289.225 145.647C284.667 145.091 280.776 143.7 277.552 141.475C274.328 139.25 272.716 135.801 272.716 131.128C272.716 126.567 274.217 123.229 277.219 121.116C280.331 118.891 284.556 117.389 289.892 116.61C289.336 110.157 289.058 100.923 289.058 88.9081C289.058 78.1167 289.281 69.439 289.725 62.8751C283.277 62.2076 278.219 60.65 274.55 58.2025C270.882 55.7549 269.047 51.9167 269.047 46.6879C269.047 41.5703 270.826 37.7877 274.384 35.3401C277.941 32.8926 282.221 31.3907 287.224 30.8344C292.227 30.2781 298.675 30 306.568 30C314.461 30 320.909 30.2781 325.912 30.8344C330.914 31.3907 335.195 32.8926 338.752 35.3401C342.421 37.7877 344.255 41.5703 344.255 46.6879C344.255 51.9167 342.365 55.7549 338.585 58.2025C334.917 60.65 329.803 62.2076 323.244 62.8751C323.799 68.994 324.077 77.6717 324.077 88.9081C324.077 99.6996 323.744 108.934 323.077 116.61Z"/>
<path d="M396.191 146.815C381.85 146.815 371.4 145.091 364.84 141.642C358.281 138.193 354.057 132.686 352.167 125.121C350.277 117.556 349.332 105.763 349.332 89.7425C349.332 73.4997 350.221 61.4288 352 53.5299C353.89 45.5197 358.059 39.6233 364.507 35.8408C371.066 31.9469 381.461 30 395.691 30C404.251 30 412.978 32.0025 421.872 36.0076C430.765 39.9015 438.269 46.3541 444.384 55.3655C450.498 64.377 453.555 75.8916 453.555 89.9094C453.555 103.371 450.443 114.385 444.217 122.951C437.991 131.407 430.487 137.525 421.705 141.308C412.922 144.979 404.418 146.815 396.191 146.815ZM385.852 117.444C389.409 117.889 391.966 118.112 393.523 118.112C401.416 118.112 407.53 115.998 411.866 111.771C416.202 107.543 418.37 101.702 418.37 94.2483C418.37 87.5731 416.257 82.3999 412.033 78.7285C407.808 74.946 401.861 73.0547 394.19 73.0547C391.299 73.0547 388.52 73.2772 385.852 73.7222V117.444Z"/>
<path d="M520.432 146.648C507.758 146.648 496.919 144.423 487.914 139.973C478.909 135.523 472.017 129.182 467.236 120.949C462.567 112.605 460.232 102.759 460.232 91.4113C460.232 77.8385 463.067 66.4352 468.737 57.2012C474.518 47.9673 481.966 41.1252 491.082 36.6751C500.198 32.225 509.759 30 519.765 30C528.658 30 536.496 31.335 543.277 34.0051C550.059 36.6751 555.284 40.1796 558.953 44.5184C562.621 48.8573 564.456 53.4186 564.456 58.2025C564.456 65.1001 562.677 70.0509 559.119 73.0547C555.562 75.9472 551.171 77.3935 545.946 77.3935C543.5 77.3935 541.332 77.171 539.442 76.726C537.663 76.281 535.773 75.6691 533.772 74.8903C531.549 74.1116 529.548 73.5553 527.769 73.2216C526.101 72.7765 523.989 72.554 521.432 72.554C514.095 72.554 508.314 74.7791 504.089 79.2292C499.865 83.568 497.753 89.7425 497.753 97.7527C497.753 104.539 499.809 109.768 503.923 113.439C508.036 117.111 513.15 118.946 519.264 118.946C522.711 118.946 525.712 118.501 528.269 117.611C530.826 116.721 532.772 115.72 534.106 114.607C535.44 113.495 536.107 112.605 536.107 111.937C527.991 111.937 521.821 110.992 517.597 109.1C513.372 107.209 511.26 103.927 511.26 99.2546C511.26 94.582 512.872 90.9663 516.096 88.4075C519.32 85.7374 524.767 84.4024 532.438 84.4024C540.331 84.4024 546.501 85.3481 550.948 87.2394C555.395 89.0194 558.564 91.8563 560.453 95.7502C562.343 99.5327 563.288 104.595 563.288 110.936C563.288 117.389 561.343 123.341 557.452 128.792C553.672 134.243 548.447 138.582 541.777 141.809C535.218 145.035 528.103 146.648 520.432 146.648Z"/>
<path d="M652.716 120.114C658.052 121.783 660.72 125.288 660.72 130.628C660.72 135.634 658.163 139.584 653.049 142.476C647.936 145.369 639.097 146.815 626.535 146.815C610.86 146.815 597.408 143.032 586.18 135.467C575.063 127.902 569.504 112.883 569.504 90.41C569.504 79.0623 571.449 68.8271 575.341 59.7044C579.232 50.5817 585.012 43.3503 592.683 38.0102C600.465 32.6701 609.97 30 621.199 30C636.207 30 646.768 32.3363 652.883 37.0089C658.997 41.5702 662.054 47.1885 662.054 53.8636C662.054 56.9787 661.276 59.8713 659.72 62.5413C658.163 65.1001 655.829 67.1027 652.716 68.549C650.048 69.884 646.602 70.5515 642.377 70.5515L637.875 70.3846C636.985 70.2734 635.707 70.2177 634.039 70.2177C628.258 70.2177 623.7 71.2746 620.365 73.3884C617.03 75.391 614.751 78.506 613.528 82.7336C618.197 82.5111 622.422 82.3999 626.202 82.3999C637.43 82.3999 644.712 82.7336 648.047 83.4011C651.827 84.1799 654.717 85.6818 656.718 87.9069C658.83 90.1319 659.887 92.7463 659.887 95.7502C659.887 98.754 658.886 101.368 656.885 103.593C654.884 105.707 651.882 107.154 647.88 107.932C644.767 108.6 637.207 108.934 625.201 108.934C620.309 108.934 616.863 108.878 614.862 108.767C618.308 116.109 624.756 119.781 634.206 119.781C634.762 119.781 636.04 119.669 638.041 119.447C640.709 119.224 642.988 119.113 644.878 119.113C648.102 119.113 650.715 119.447 652.716 120.114Z"/>
<path d="M238.345 221.743C238.345 229.086 235.288 234.426 229.174 237.764C223.17 240.99 213.332 242.937 199.658 243.605C200.102 248.945 200.325 255.842 200.325 264.298C200.325 276.09 199.657 285.547 198.323 292.667C197.101 299.676 194.933 304.905 191.82 308.353C188.707 311.691 184.371 313.36 178.813 313.36C173.365 313.36 169.196 311.58 166.306 308.02C163.416 304.46 161.414 299.175 160.303 292.166C159.191 285.157 158.635 275.868 158.635 264.298C158.635 256.51 158.802 249.612 159.135 243.605C149.908 243.16 142.46 242.214 136.79 240.768C131.231 239.21 127.118 236.929 124.45 233.926C121.782 230.922 120.448 226.861 120.448 221.743C120.448 215.513 122.56 210.618 126.784 207.058C131.009 203.498 137.346 200.995 145.795 199.549C154.244 198.102 165.305 197.379 178.98 197.379C192.765 197.379 203.938 198.102 212.498 199.549C221.058 200.995 227.506 203.498 231.842 207.058C236.177 210.618 238.345 215.513 238.345 221.743Z"/>
<path d="M260.945 314.027C253.496 314.027 247.493 310.412 242.935 303.18C238.488 295.838 235.876 285.936 235.097 273.476C234.986 271.696 234.931 269.081 234.931 265.633C234.931 252.171 237.154 240.267 241.601 229.921C246.048 219.463 252.329 211.397 260.444 205.723C268.671 199.938 278.232 197.045 289.127 197.045C300.022 197.045 309.527 199.938 317.642 205.723C325.869 211.397 332.15 219.407 336.486 229.754C340.933 240.1 343.156 252.06 343.156 265.633C343.156 269.081 343.101 271.696 342.989 273.476C342.211 286.159 339.599 296.06 335.152 303.18C330.705 310.3 324.702 313.86 317.142 313.86C311.028 313.86 306.747 312.192 304.302 308.854C301.967 305.517 300.8 301.456 300.8 296.672C300.8 294.447 300.967 292.5 301.3 290.831C295.519 291.054 290.405 291.165 285.958 291.165C283.179 291.165 280.122 291.054 276.787 290.831C277.12 292.5 277.287 294.447 277.287 296.672C277.287 301.567 276.064 305.683 273.618 309.021C271.284 312.359 267.059 314.027 260.945 314.027ZM275.619 261.127C281.623 260.904 286.014 260.793 288.793 260.793C291.795 260.793 296.186 260.904 301.967 261.127C302.189 259.903 302.301 258.067 302.301 255.62C302.301 250.391 301.189 246.163 298.965 242.937C296.742 239.599 293.296 237.931 288.626 237.931C284.068 237.931 280.678 239.544 278.454 242.77C276.231 245.996 275.119 250.168 275.119 255.286C275.119 257.177 275.286 259.124 275.619 261.127Z"/>
<path d="M397.889 313.694C386.661 313.694 377.156 311.413 369.374 306.852C361.592 302.179 356.478 295.226 354.032 285.992C353.031 282.209 352.364 277.592 352.031 272.141C351.697 266.689 351.53 259.736 351.53 251.281C351.53 234.704 353.309 221.521 356.867 211.731C360.535 201.829 367.762 196.879 378.545 196.879C385.216 196.879 390.441 199.215 394.22 203.887C398.111 208.56 400.057 214.345 400.057 221.243C400.057 228.586 399.445 236.429 398.223 244.773C397 253.117 395.277 263.241 393.053 275.145C399.946 272.92 407.505 271.807 415.732 271.807C424.292 271.807 431.407 273.365 437.077 276.48C442.858 279.595 445.748 284.657 445.748 291.666C445.748 298.452 443.525 303.458 439.078 306.685C434.631 309.911 429.24 311.914 422.903 312.692C416.566 313.36 408.228 313.694 397.889 313.694Z"/>
<path d="M513.069 256.454C522.963 261.016 531.357 266.523 538.249 272.975C545.253 279.428 548.755 286.437 548.755 294.002C548.755 300.677 546.921 305.628 543.252 308.854C539.583 312.08 535.081 313.694 529.745 313.694C522.074 313.694 514.848 310.189 508.066 303.18C501.396 296.06 494.948 286.771 488.722 275.312C488.722 283.21 488.278 289.83 487.388 295.17C486.61 300.51 484.831 304.96 482.052 308.52C479.273 311.969 475.104 313.694 469.545 313.694C463.764 313.694 459.484 311.524 456.705 307.185C454.037 302.846 452.369 297.618 451.702 291.499C451.146 285.38 450.868 277.37 450.868 267.468C450.868 260.459 450.924 252.171 451.035 242.603C451.258 232.924 451.48 226.917 451.702 224.58C451.925 216.236 453.648 209.561 456.872 204.555C460.096 199.437 464.654 196.879 470.546 196.879C477.327 196.879 482.052 199.771 484.72 205.556C487.499 211.341 488.889 220.186 488.889 232.09V237.096C494.559 226.861 501.118 217.683 508.566 209.561C516.015 201.44 523.464 197.379 530.912 197.379C536.137 197.379 540.417 199.382 543.752 203.387C547.199 207.281 548.922 212.12 548.922 217.905C548.922 225.693 545.587 233.147 538.916 240.267C532.357 247.276 523.741 252.672 513.069 256.454Z"/>
<path d="M564.379 204.722C567.603 199.493 572.995 196.879 580.555 196.879C587.781 196.879 593.006 199.382 596.23 204.388C599.565 209.394 601.233 215.458 601.233 222.578C601.233 228.474 600.677 235.038 599.565 242.27C598.453 249.39 596.897 255.787 594.896 261.461C593.896 264.242 592.172 266.689 589.727 268.803C587.392 270.806 584.335 271.807 580.555 271.807C576.775 271.807 573.662 270.806 571.216 268.803C568.771 266.689 567.048 264.242 566.047 261.461C564.046 255.898 562.49 249.668 561.378 242.77C560.266 235.761 559.71 229.42 559.71 223.746C559.71 216.181 561.267 209.839 564.379 204.722ZM592.561 307.686C589.115 311.135 585.057 312.859 580.388 312.859C575.719 312.859 571.661 311.135 568.215 307.686C564.769 304.237 563.045 300.176 563.045 295.504C563.045 290.831 564.769 286.771 568.215 283.322C571.661 279.873 575.719 278.148 580.388 278.148C585.057 278.148 589.115 279.873 592.561 283.322C596.008 286.771 597.731 290.831 597.731 295.504C597.731 300.176 596.008 304.237 592.561 307.686Z"/>
<path d="M75.089 191.866C76.9389 193.361 78.3264 194.785 79.2513 196.138C80.1762 197.419 80.6387 198.772 80.6387 200.196C80.6387 202.261 79.8917 204.183 78.3975 205.963C76.9034 207.672 74.9823 208.527 72.6344 208.527C70.9979 208.527 68.8634 208.064 66.2309 207.138C65.6617 210.556 64.7012 213.119 63.3493 214.828C62.0686 216.537 60.1831 217.391 57.6929 217.391C54.8469 217.391 52.7124 216.572 51.2894 214.935C49.8664 213.226 48.9415 210.627 48.5146 207.138C45.882 208.064 43.7475 208.527 42.1111 208.527C39.692 208.527 37.7354 207.672 36.2412 205.963C34.8182 204.183 34.1067 202.261 34.1067 200.196C34.1067 198.772 34.5692 197.419 35.4941 196.138C36.4191 194.785 37.8065 193.361 39.6564 191.866C35.8855 188.733 34 185.813 34 183.108C34 181.185 34.7471 179.334 36.2412 177.554C37.7354 175.774 39.6208 174.884 41.8976 174.884C43.8187 174.884 46.0243 175.418 48.5146 176.486C49.0126 173.068 49.9376 170.541 51.2894 168.903C52.6413 167.194 54.669 166.34 57.3727 166.34C59.9341 166.34 61.8907 167.194 63.2426 168.903C64.6656 170.541 65.6617 173.068 66.2309 176.486C68.7923 175.418 70.9979 174.884 72.8478 174.884C74.4131 174.884 75.8005 175.347 77.0101 176.272C78.2196 177.127 79.1446 178.195 79.7849 179.476C80.4253 180.758 80.7454 181.969 80.7454 183.108C80.7454 185.813 78.86 188.733 75.089 191.866Z"/>
<path d="M719.758 73.1748C721.145 74.2963 722.186 75.3643 722.879 76.3789C723.573 77.3401 723.92 78.3547 723.92 79.4228C723.92 80.9714 723.36 82.4132 722.239 83.7483C721.118 85.0299 719.678 85.6707 717.917 85.6707C716.689 85.6707 715.088 85.3236 713.114 84.6294C712.687 87.1926 711.967 89.1151 710.953 90.3967C709.992 91.6783 708.578 92.3191 706.711 92.3191C704.576 92.3191 702.975 91.705 701.908 90.4768C700.841 89.1952 700.147 87.246 699.827 84.6294C697.852 85.3236 696.252 85.6707 695.024 85.6707C693.21 85.6707 691.742 85.0299 690.622 83.7483C689.555 82.4132 689.021 80.9714 689.021 79.4228C689.021 78.3547 689.368 77.3401 690.062 76.3789C690.755 75.3643 691.796 74.2963 693.183 73.1748C690.355 70.8252 688.941 68.6357 688.941 66.6065C688.941 65.1647 689.501 63.7762 690.622 62.4412C691.742 61.1062 693.156 60.4387 694.864 60.4387C696.305 60.4387 697.959 60.8392 699.827 61.6402C700.2 59.0769 700.894 57.1812 701.908 55.953C702.922 54.6713 704.443 54.0305 706.47 54.0305C708.391 54.0305 709.859 54.6713 710.873 55.953C711.94 57.1812 712.687 59.0769 713.114 61.6402C715.035 60.8392 716.689 60.4387 718.077 60.4387C719.251 60.4387 720.291 60.7858 721.198 61.48C722.106 62.1208 722.799 62.9218 723.28 63.883C723.76 64.8443 724 65.7521 724 66.6065C724 68.6357 722.586 70.8252 719.758 73.1748Z"/>
<path d="M668.745 286.152C670.595 287.647 671.983 289.071 672.908 290.424C673.833 291.706 674.295 293.059 674.295 294.483C674.295 296.547 673.548 298.47 672.054 300.25C670.56 301.959 668.639 302.813 666.291 302.813C664.654 302.813 662.52 302.35 659.887 301.425C659.318 304.842 658.358 307.406 657.006 309.114C655.725 310.823 653.84 311.678 651.349 311.678C648.503 311.678 646.369 310.859 644.946 309.221C643.523 307.512 642.598 304.914 642.171 301.425C639.539 302.35 637.404 302.813 635.768 302.813C633.348 302.813 631.392 301.959 629.898 300.25C628.475 298.47 627.763 296.547 627.763 294.483C627.763 293.059 628.226 291.706 629.151 290.424C630.076 289.071 631.463 287.647 633.313 286.152C629.542 283.019 627.656 280.1 627.656 277.394C627.656 275.472 628.404 273.62 629.898 271.84C631.392 270.06 633.277 269.17 635.554 269.17C637.475 269.17 639.681 269.704 642.171 270.772C642.669 267.355 643.594 264.827 644.946 263.189C646.298 261.481 648.326 260.626 651.029 260.626C653.591 260.626 655.547 261.481 656.899 263.189C658.322 264.827 659.318 267.355 659.887 270.772C662.449 269.704 664.654 269.17 666.504 269.17C668.07 269.17 669.457 269.633 670.667 270.559C671.876 271.413 672.801 272.481 673.441 273.763C674.082 275.045 674.402 276.255 674.402 277.394C674.402 280.1 672.516 283.019 668.745 286.152Z"/>
<path d="M231.158 346.856C232.546 347.977 233.586 349.045 234.28 350.06C234.974 351.021 235.321 352.036 235.321 353.104C235.321 354.652 234.76 356.094 233.64 357.429C232.519 358.711 231.078 359.352 229.317 359.352C228.09 359.352 226.489 359.004 224.515 358.31C224.088 360.873 223.367 362.796 222.354 364.078C221.393 365.359 219.979 366 218.111 366C215.977 366 214.376 365.386 213.309 364.158C212.241 362.876 211.548 360.927 211.228 358.31C209.253 359.004 207.652 359.352 206.425 359.352C204.611 359.352 203.143 358.711 202.022 357.429C200.955 356.094 200.422 354.652 200.422 353.104C200.422 352.036 200.768 351.021 201.462 350.06C202.156 349.045 203.196 347.977 204.584 346.856C201.756 344.506 200.342 342.317 200.342 340.287C200.342 338.846 200.902 337.457 202.022 336.122C203.143 334.787 204.557 334.12 206.265 334.12C207.706 334.12 209.36 334.52 211.228 335.321C211.601 332.758 212.295 330.862 213.309 329.634C214.323 328.352 215.843 327.711 217.871 327.711C219.792 327.711 221.26 328.352 222.274 329.634C223.341 330.862 224.088 332.758 224.515 335.321C226.436 334.52 228.09 334.12 229.477 334.12C230.651 334.12 231.692 334.467 232.599 335.161C233.506 335.802 234.2 336.603 234.68 337.564C235.161 338.525 235.401 339.433 235.401 340.287C235.401 342.317 233.987 344.506 231.158 346.856Z"/>
</mask>
<path d="M117.263 146.648C98.8085 146.537 84.9677 141.976 75.7404 132.964C66.6244 123.953 62.0663 109.323 62.0663 89.075C62.0663 70.7184 66.5132 56.3112 75.4069 45.8535C84.3006 35.2845 96.863 30 113.094 30C123.1 30 131.827 31.5019 139.275 34.5057C146.724 37.5095 152.449 41.7928 156.451 47.3554C160.453 52.918 162.454 59.4819 162.454 67.047C162.454 73.0547 161.12 78.3948 158.452 83.0674C155.895 87.74 152.06 91.912 146.946 95.5833C151.059 96.2508 154.617 98.4758 157.618 102.258C160.731 106.041 162.288 110.435 162.288 115.442C162.288 120.782 160.842 125.844 157.952 130.628C155.173 135.3 150.392 139.139 143.611 142.142C136.94 145.146 128.158 146.648 117.263 146.648ZM105.757 84.4024C107.758 85.4037 110.259 85.9043 113.261 85.9043C116.818 85.9043 119.876 85.0699 122.433 83.4011C125.101 81.6211 126.435 79.0067 126.435 75.5579C126.435 72.2203 125.101 69.7171 122.433 68.0483C119.876 66.2683 116.763 65.3783 113.094 65.3783C110.204 65.3783 107.758 65.8789 105.757 66.8802C104.2 67.5477 103.033 68.7158 102.255 70.3846C101.477 72.0534 101.088 73.8334 101.088 75.7247C101.088 77.616 101.477 79.3961 102.255 81.0648C103.033 82.6224 104.2 83.7349 105.757 84.4024ZM105.757 123.452C107.869 124.342 110.37 124.787 113.261 124.787C116.818 124.787 119.876 124.064 122.433 122.618C125.101 121.06 126.435 118.779 126.435 115.776C126.435 112.883 125.101 110.658 122.433 109.1C119.764 107.543 116.652 106.764 113.094 106.764C110.315 106.764 107.869 107.209 105.757 108.099C104.2 108.767 103.033 109.824 102.255 111.27C101.477 112.605 101.088 114.107 101.088 115.776C101.088 117.444 101.477 119.002 102.255 120.448C103.033 121.783 104.2 122.784 105.757 123.452Z" fill="white"/>
<path d="M268.981 77.2266C268.981 85.3481 267.758 92.5238 265.312 98.754C262.978 104.984 259.643 110.213 255.307 114.441C258.976 120.114 260.81 125.621 260.81 130.962C260.81 135.523 259.031 139.305 255.474 142.309C252.027 145.313 248.081 146.815 243.634 146.815C241.077 146.815 238.742 146.426 236.63 145.647C234.518 144.868 232.239 143.533 229.793 141.642C227.681 139.973 225.68 137.692 223.79 134.8C221.9 131.907 220.399 128.903 219.287 125.788C215.619 125.343 211.95 124.398 208.281 122.951C208.948 126.511 209.282 129.237 209.282 131.128C209.282 141.697 203.779 146.982 192.773 146.982C183.546 146.982 177.042 141.586 173.262 130.795C169.482 120.003 167.593 106.82 167.593 91.2444C167.593 80.6755 169.482 70.774 173.262 61.5401C177.153 52.1949 183.045 44.6853 190.939 39.0114C198.832 33.2263 208.448 30.3338 219.788 30.3338C228.904 30.3338 237.186 32.2807 244.634 36.1745C252.083 39.9571 257.975 45.4085 262.311 52.5286C266.758 59.6488 268.981 67.8814 268.981 77.2266ZM206.614 85.0699C206.614 88.8525 208.115 92.1901 211.116 95.0826C214.118 97.864 217.564 99.2546 221.455 99.2546C225.457 99.2546 228.904 97.864 231.794 95.0826C234.796 92.1901 236.297 88.8525 236.297 85.0699C236.297 81.1761 234.796 77.8385 231.794 75.0572C228.904 72.1647 225.457 70.7184 221.455 70.7184C217.564 70.7184 214.118 72.1647 211.116 75.0572C208.115 77.9498 206.614 81.2874 206.614 85.0699Z" fill="white"/>
<path d="M323.077 116.61C328.747 117.278 333.138 118.724 336.251 120.949C339.475 123.063 341.087 126.456 341.087 131.128C341.087 135.801 339.419 139.25 336.084 141.475C332.86 143.7 328.969 145.091 324.411 145.647C319.853 146.092 313.961 146.314 306.735 146.314C299.62 146.314 293.783 146.092 289.225 145.647C284.667 145.091 280.776 143.7 277.552 141.475C274.328 139.25 272.716 135.801 272.716 131.128C272.716 126.567 274.217 123.229 277.219 121.116C280.331 118.891 284.556 117.389 289.892 116.61C289.336 110.157 289.058 100.923 289.058 88.9081C289.058 78.1167 289.281 69.439 289.725 62.8751C283.277 62.2076 278.219 60.65 274.55 58.2025C270.882 55.7549 269.047 51.9167 269.047 46.6879C269.047 41.5703 270.826 37.7877 274.384 35.3401C277.941 32.8926 282.221 31.3907 287.224 30.8344C292.227 30.2781 298.675 30 306.568 30C314.461 30 320.909 30.2781 325.912 30.8344C330.914 31.3907 335.195 32.8926 338.752 35.3401C342.421 37.7877 344.255 41.5703 344.255 46.6879C344.255 51.9167 342.365 55.7549 338.585 58.2025C334.917 60.65 329.803 62.2076 323.244 62.8751C323.799 68.994 324.077 77.6717 324.077 88.9081C324.077 99.6996 323.744 108.934 323.077 116.61Z" fill="white"/>
<path d="M396.191 146.815C381.85 146.815 371.4 145.091 364.84 141.642C358.281 138.193 354.057 132.686 352.167 125.121C350.277 117.556 349.332 105.763 349.332 89.7425C349.332 73.4997 350.221 61.4288 352 53.5299C353.89 45.5197 358.059 39.6233 364.507 35.8408C371.066 31.9469 381.461 30 395.691 30C404.251 30 412.978 32.0025 421.872 36.0076C430.765 39.9015 438.269 46.3541 444.384 55.3655C450.498 64.377 453.555 75.8916 453.555 89.9094C453.555 103.371 450.443 114.385 444.217 122.951C437.991 131.407 430.487 137.525 421.705 141.308C412.922 144.979 404.418 146.815 396.191 146.815ZM385.852 117.444C389.409 117.889 391.966 118.112 393.523 118.112C401.416 118.112 407.53 115.998 411.866 111.771C416.202 107.543 418.37 101.702 418.37 94.2483C418.37 87.5731 416.257 82.3999 412.033 78.7285C407.808 74.946 401.861 73.0547 394.19 73.0547C391.299 73.0547 388.52 73.2772 385.852 73.7222V117.444Z" fill="white"/>
<path d="M520.432 146.648C507.758 146.648 496.919 144.423 487.914 139.973C478.909 135.523 472.017 129.182 467.236 120.949C462.567 112.605 460.232 102.759 460.232 91.4113C460.232 77.8385 463.067 66.4352 468.737 57.2012C474.518 47.9673 481.966 41.1252 491.082 36.6751C500.198 32.225 509.759 30 519.765 30C528.658 30 536.496 31.335 543.277 34.0051C550.059 36.6751 555.284 40.1796 558.953 44.5184C562.621 48.8573 564.456 53.4186 564.456 58.2025C564.456 65.1001 562.677 70.0509 559.119 73.0547C555.562 75.9472 551.171 77.3935 545.946 77.3935C543.5 77.3935 541.332 77.171 539.442 76.726C537.663 76.281 535.773 75.6691 533.772 74.8903C531.549 74.1116 529.548 73.5553 527.769 73.2216C526.101 72.7765 523.989 72.554 521.432 72.554C514.095 72.554 508.314 74.7791 504.089 79.2292C499.865 83.568 497.753 89.7425 497.753 97.7527C497.753 104.539 499.809 109.768 503.923 113.439C508.036 117.111 513.15 118.946 519.264 118.946C522.711 118.946 525.712 118.501 528.269 117.611C530.826 116.721 532.772 115.72 534.106 114.607C535.44 113.495 536.107 112.605 536.107 111.937C527.991 111.937 521.821 110.992 517.597 109.1C513.372 107.209 511.26 103.927 511.26 99.2546C511.26 94.582 512.872 90.9663 516.096 88.4075C519.32 85.7374 524.767 84.4024 532.438 84.4024C540.331 84.4024 546.501 85.3481 550.948 87.2394C555.395 89.0194 558.564 91.8563 560.453 95.7502C562.343 99.5327 563.288 104.595 563.288 110.936C563.288 117.389 561.343 123.341 557.452 128.792C553.672 134.243 548.447 138.582 541.777 141.809C535.218 145.035 528.103 146.648 520.432 146.648Z" fill="white"/>
<path d="M652.716 120.114C658.052 121.783 660.72 125.288 660.72 130.628C660.72 135.634 658.163 139.584 653.049 142.476C647.936 145.369 639.097 146.815 626.535 146.815C610.86 146.815 597.408 143.032 586.18 135.467C575.063 127.902 569.504 112.883 569.504 90.41C569.504 79.0623 571.449 68.8271 575.341 59.7044C579.232 50.5817 585.012 43.3503 592.683 38.0102C600.465 32.6701 609.97 30 621.199 30C636.207 30 646.768 32.3363 652.883 37.0089C658.997 41.5702 662.054 47.1885 662.054 53.8636C662.054 56.9787 661.276 59.8713 659.72 62.5413C658.163 65.1001 655.829 67.1027 652.716 68.549C650.048 69.884 646.602 70.5515 642.377 70.5515L637.875 70.3846C636.985 70.2734 635.707 70.2177 634.039 70.2177C628.258 70.2177 623.7 71.2746 620.365 73.3884C617.03 75.391 614.751 78.506 613.528 82.7336C618.197 82.5111 622.422 82.3999 626.202 82.3999C637.43 82.3999 644.712 82.7336 648.047 83.4011C651.827 84.1799 654.717 85.6818 656.718 87.9069C658.83 90.1319 659.887 92.7463 659.887 95.7502C659.887 98.754 658.886 101.368 656.885 103.593C654.884 105.707 651.882 107.154 647.88 107.932C644.767 108.6 637.207 108.934 625.201 108.934C620.309 108.934 616.863 108.878 614.862 108.767C618.308 116.109 624.756 119.781 634.206 119.781C634.762 119.781 636.04 119.669 638.041 119.447C640.709 119.224 642.988 119.113 644.878 119.113C648.102 119.113 650.715 119.447 652.716 120.114Z" fill="white"/>
<path d="M238.345 221.743C238.345 229.086 235.288 234.426 229.174 237.764C223.17 240.99 213.332 242.937 199.658 243.605C200.102 248.945 200.325 255.842 200.325 264.298C200.325 276.09 199.657 285.547 198.323 292.667C197.101 299.676 194.933 304.905 191.82 308.353C188.707 311.691 184.371 313.36 178.813 313.36C173.365 313.36 169.196 311.58 166.306 308.02C163.416 304.46 161.414 299.175 160.303 292.166C159.191 285.157 158.635 275.868 158.635 264.298C158.635 256.51 158.802 249.612 159.135 243.605C149.908 243.16 142.46 242.214 136.79 240.768C131.231 239.21 127.118 236.929 124.45 233.926C121.782 230.922 120.448 226.861 120.448 221.743C120.448 215.513 122.56 210.618 126.784 207.058C131.009 203.498 137.346 200.995 145.795 199.549C154.244 198.102 165.305 197.379 178.98 197.379C192.765 197.379 203.938 198.102 212.498 199.549C221.058 200.995 227.506 203.498 231.842 207.058C236.177 210.618 238.345 215.513 238.345 221.743Z" fill="white"/>
<path d="M260.945 314.027C253.496 314.027 247.493 310.412 242.935 303.18C238.488 295.838 235.876 285.936 235.097 273.476C234.986 271.696 234.931 269.081 234.931 265.633C234.931 252.171 237.154 240.267 241.601 229.921C246.048 219.463 252.329 211.397 260.444 205.723C268.671 199.938 278.232 197.045 289.127 197.045C300.022 197.045 309.527 199.938 317.642 205.723C325.869 211.397 332.15 219.407 336.486 229.754C340.933 240.1 343.156 252.06 343.156 265.633C343.156 269.081 343.101 271.696 342.989 273.476C342.211 286.159 339.599 296.06 335.152 303.18C330.705 310.3 324.702 313.86 317.142 313.86C311.028 313.86 306.747 312.192 304.302 308.854C301.967 305.517 300.8 301.456 300.8 296.672C300.8 294.447 300.967 292.5 301.3 290.831C295.519 291.054 290.405 291.165 285.958 291.165C283.179 291.165 280.122 291.054 276.787 290.831C277.12 292.5 277.287 294.447 277.287 296.672C277.287 301.567 276.064 305.683 273.618 309.021C271.284 312.359 267.059 314.027 260.945 314.027ZM275.619 261.127C281.623 260.904 286.014 260.793 288.793 260.793C291.795 260.793 296.186 260.904 301.967 261.127C302.189 259.903 302.301 258.067 302.301 255.62C302.301 250.391 301.189 246.163 298.965 242.937C296.742 239.599 293.296 237.931 288.626 237.931C284.068 237.931 280.678 239.544 278.454 242.77C276.231 245.996 275.119 250.168 275.119 255.286C275.119 257.177 275.286 259.124 275.619 261.127Z" fill="white"/>
<path d="M397.889 313.694C386.661 313.694 377.156 311.413 369.374 306.852C361.592 302.179 356.478 295.226 354.032 285.992C353.031 282.209 352.364 277.592 352.031 272.141C351.697 266.689 351.53 259.736 351.53 251.281C351.53 234.704 353.309 221.521 356.867 211.731C360.535 201.829 367.762 196.879 378.545 196.879C385.216 196.879 390.441 199.215 394.22 203.887C398.111 208.56 400.057 214.345 400.057 221.243C400.057 228.586 399.445 236.429 398.223 244.773C397 253.117 395.277 263.241 393.053 275.145C399.946 272.92 407.505 271.807 415.732 271.807C424.292 271.807 431.407 273.365 437.077 276.48C442.858 279.595 445.748 284.657 445.748 291.666C445.748 298.452 443.525 303.458 439.078 306.685C434.631 309.911 429.24 311.914 422.903 312.692C416.566 313.36 408.228 313.694 397.889 313.694Z" fill="white"/>
<path d="M513.069 256.454C522.963 261.016 531.357 266.523 538.249 272.975C545.253 279.428 548.755 286.437 548.755 294.002C548.755 300.677 546.921 305.628 543.252 308.854C539.583 312.08 535.081 313.694 529.745 313.694C522.074 313.694 514.848 310.189 508.066 303.18C501.396 296.06 494.948 286.771 488.722 275.312C488.722 283.21 488.278 289.83 487.388 295.17C486.61 300.51 484.831 304.96 482.052 308.52C479.273 311.969 475.104 313.694 469.545 313.694C463.764 313.694 459.484 311.524 456.705 307.185C454.037 302.846 452.369 297.618 451.702 291.499C451.146 285.38 450.868 277.37 450.868 267.468C450.868 260.459 450.924 252.171 451.035 242.603C451.258 232.924 451.48 226.917 451.702 224.58C451.925 216.236 453.648 209.561 456.872 204.555C460.096 199.437 464.654 196.879 470.546 196.879C477.327 196.879 482.052 199.771 484.72 205.556C487.499 211.341 488.889 220.186 488.889 232.09V237.096C494.559 226.861 501.118 217.683 508.566 209.561C516.015 201.44 523.464 197.379 530.912 197.379C536.137 197.379 540.417 199.382 543.752 203.387C547.199 207.281 548.922 212.12 548.922 217.905C548.922 225.693 545.587 233.147 538.916 240.267C532.357 247.276 523.741 252.672 513.069 256.454Z" fill="white"/>
<path d="M564.379 204.722C567.603 199.493 572.995 196.879 580.555 196.879C587.781 196.879 593.006 199.382 596.23 204.388C599.565 209.394 601.233 215.458 601.233 222.578C601.233 228.474 600.677 235.038 599.565 242.27C598.453 249.39 596.897 255.787 594.896 261.461C593.896 264.242 592.172 266.689 589.727 268.803C587.392 270.806 584.335 271.807 580.555 271.807C576.775 271.807 573.662 270.806 571.216 268.803C568.771 266.689 567.048 264.242 566.047 261.461C564.046 255.898 562.49 249.668 561.378 242.77C560.266 235.761 559.71 229.42 559.71 223.746C559.71 216.181 561.267 209.839 564.379 204.722ZM592.561 307.686C589.115 311.135 585.057 312.859 580.388 312.859C575.719 312.859 571.661 311.135 568.215 307.686C564.769 304.237 563.045 300.176 563.045 295.504C563.045 290.831 564.769 286.771 568.215 283.322C571.661 279.873 575.719 278.148 580.388 278.148C585.057 278.148 589.115 279.873 592.561 283.322C596.008 286.771 597.731 290.831 597.731 295.504C597.731 300.176 596.008 304.237 592.561 307.686Z" fill="white"/>
<path d="M75.089 191.866C76.9389 193.361 78.3264 194.785 79.2513 196.138C80.1762 197.419 80.6387 198.772 80.6387 200.196C80.6387 202.261 79.8917 204.183 78.3975 205.963C76.9034 207.672 74.9823 208.527 72.6344 208.527C70.9979 208.527 68.8634 208.064 66.2309 207.138C65.6617 210.556 64.7012 213.119 63.3493 214.828C62.0686 216.537 60.1831 217.391 57.6929 217.391C54.8469 217.391 52.7124 216.572 51.2894 214.935C49.8664 213.226 48.9415 210.627 48.5146 207.138C45.882 208.064 43.7475 208.527 42.1111 208.527C39.692 208.527 37.7354 207.672 36.2412 205.963C34.8182 204.183 34.1067 202.261 34.1067 200.196C34.1067 198.772 34.5692 197.419 35.4941 196.138C36.4191 194.785 37.8065 193.361 39.6564 191.866C35.8855 188.733 34 185.813 34 183.108C34 181.185 34.7471 179.334 36.2412 177.554C37.7354 175.774 39.6208 174.884 41.8976 174.884C43.8187 174.884 46.0243 175.418 48.5146 176.486C49.0126 173.068 49.9376 170.541 51.2894 168.903C52.6413 167.194 54.669 166.34 57.3727 166.34C59.9341 166.34 61.8907 167.194 63.2426 168.903C64.6656 170.541 65.6617 173.068 66.2309 176.486C68.7923 175.418 70.9979 174.884 72.8478 174.884C74.4131 174.884 75.8005 175.347 77.0101 176.272C78.2196 177.127 79.1446 178.195 79.7849 179.476C80.4253 180.758 80.7454 181.969 80.7454 183.108C80.7454 185.813 78.86 188.733 75.089 191.866Z" fill="white"/>
<path d="M719.758 73.1748C721.145 74.2963 722.186 75.3643 722.879 76.3789C723.573 77.3401 723.92 78.3547 723.92 79.4228C723.92 80.9714 723.36 82.4132 722.239 83.7483C721.118 85.0299 719.678 85.6707 717.917 85.6707C716.689 85.6707 715.088 85.3236 713.114 84.6294C712.687 87.1926 711.967 89.1151 710.953 90.3967C709.992 91.6783 708.578 92.3191 706.711 92.3191C704.576 92.3191 702.975 91.705 701.908 90.4768C700.841 89.1952 700.147 87.246 699.827 84.6294C697.852 85.3236 696.252 85.6707 695.024 85.6707C693.21 85.6707 691.742 85.0299 690.622 83.7483C689.555 82.4132 689.021 80.9714 689.021 79.4228C689.021 78.3547 689.368 77.3401 690.062 76.3789C690.755 75.3643 691.796 74.2963 693.183 73.1748C690.355 70.8252 688.941 68.6357 688.941 66.6065C688.941 65.1647 689.501 63.7762 690.622 62.4412C691.742 61.1062 693.156 60.4387 694.864 60.4387C696.305 60.4387 697.959 60.8392 699.827 61.6402C700.2 59.0769 700.894 57.1812 701.908 55.953C702.922 54.6713 704.443 54.0305 706.47 54.0305C708.391 54.0305 709.859 54.6713 710.873 55.953C711.94 57.1812 712.687 59.0769 713.114 61.6402C715.035 60.8392 716.689 60.4387 718.077 60.4387C719.251 60.4387 720.291 60.7858 721.198 61.48C722.106 62.1208 722.799 62.9218 723.28 63.883C723.76 64.8443 724 65.7521 724 66.6065C724 68.6357 722.586 70.8252 719.758 73.1748Z" fill="white"/>
<path d="M668.745 286.152C670.595 287.647 671.983 289.071 672.908 290.424C673.833 291.706 674.295 293.059 674.295 294.483C674.295 296.547 673.548 298.47 672.054 300.25C670.56 301.959 668.639 302.813 666.291 302.813C664.654 302.813 662.52 302.35 659.887 301.425C659.318 304.842 658.358 307.406 657.006 309.114C655.725 310.823 653.84 311.678 651.349 311.678C648.503 311.678 646.369 310.859 644.946 309.221C643.523 307.512 642.598 304.914 642.171 301.425C639.539 302.35 637.404 302.813 635.768 302.813C633.348 302.813 631.392 301.959 629.898 300.25C628.475 298.47 627.763 296.547 627.763 294.483C627.763 293.059 628.226 291.706 629.151 290.424C630.076 289.071 631.463 287.647 633.313 286.152C629.542 283.019 627.656 280.1 627.656 277.394C627.656 275.472 628.404 273.62 629.898 271.84C631.392 270.06 633.277 269.17 635.554 269.17C637.475 269.17 639.681 269.704 642.171 270.772C642.669 267.355 643.594 264.827 644.946 263.189C646.298 261.481 648.326 260.626 651.029 260.626C653.591 260.626 655.547 261.481 656.899 263.189C658.322 264.827 659.318 267.355 659.887 270.772C662.449 269.704 664.654 269.17 666.504 269.17C668.07 269.17 669.457 269.633 670.667 270.559C671.876 271.413 672.801 272.481 673.441 273.763C674.082 275.045 674.402 276.255 674.402 277.394C674.402 280.1 672.516 283.019 668.745 286.152Z" fill="white"/>
<path d="M231.158 346.856C232.546 347.977 233.586 349.045 234.28 350.06C234.974 351.021 235.321 352.036 235.321 353.104C235.321 354.652 234.76 356.094 233.64 357.429C232.519 358.711 231.078 359.352 229.317 359.352C228.09 359.352 226.489 359.004 224.515 358.31C224.088 360.873 223.367 362.796 222.354 364.078C221.393 365.359 219.979 366 218.111 366C215.977 366 214.376 365.386 213.309 364.158C212.241 362.876 211.548 360.927 211.228 358.31C209.253 359.004 207.652 359.352 206.425 359.352C204.611 359.352 203.143 358.711 202.022 357.429C200.955 356.094 200.422 354.652 200.422 353.104C200.422 352.036 200.768 351.021 201.462 350.06C202.156 349.045 203.196 347.977 204.584 346.856C201.756 344.506 200.342 342.317 200.342 340.287C200.342 338.846 200.902 337.457 202.022 336.122C203.143 334.787 204.557 334.12 206.265 334.12C207.706 334.12 209.36 334.52 211.228 335.321C211.601 332.758 212.295 330.862 213.309 329.634C214.323 328.352 215.843 327.711 217.871 327.711C219.792 327.711 221.26 328.352 222.274 329.634C223.341 330.862 224.088 332.758 224.515 335.321C226.436 334.52 228.09 334.12 229.477 334.12C230.651 334.12 231.692 334.467 232.599 335.161C233.506 335.802 234.2 336.603 234.68 337.564C235.161 338.525 235.401 339.433 235.401 340.287C235.401 342.317 233.987 344.506 231.158 346.856Z" fill="white"/>
<path d="M117.263 146.648C98.8085 146.537 84.9677 141.976 75.7404 132.964C66.6244 123.953 62.0663 109.323 62.0663 89.075C62.0663 70.7184 66.5132 56.3112 75.4069 45.8535C84.3006 35.2845 96.863 30 113.094 30C123.1 30 131.827 31.5019 139.275 34.5057C146.724 37.5095 152.449 41.7928 156.451 47.3554C160.453 52.918 162.454 59.4819 162.454 67.047C162.454 73.0547 161.12 78.3948 158.452 83.0674C155.895 87.74 152.06 91.912 146.946 95.5833C151.059 96.2508 154.617 98.4758 157.618 102.258C160.731 106.041 162.288 110.435 162.288 115.442C162.288 120.782 160.842 125.844 157.952 130.628C155.173 135.3 150.392 139.139 143.611 142.142C136.94 145.146 128.158 146.648 117.263 146.648ZM105.757 84.4024C107.758 85.4037 110.259 85.9043 113.261 85.9043C116.818 85.9043 119.876 85.0699 122.433 83.4011C125.101 81.6211 126.435 79.0067 126.435 75.5579C126.435 72.2203 125.101 69.7171 122.433 68.0483C119.876 66.2683 116.763 65.3783 113.094 65.3783C110.204 65.3783 107.758 65.8789 105.757 66.8802C104.2 67.5477 103.033 68.7158 102.255 70.3846C101.477 72.0534 101.088 73.8334 101.088 75.7247C101.088 77.616 101.477 79.3961 102.255 81.0648C103.033 82.6224 104.2 83.7349 105.757 84.4024ZM105.757 123.452C107.869 124.342 110.37 124.787 113.261 124.787C116.818 124.787 119.876 124.064 122.433 122.618C125.101 121.06 126.435 118.779 126.435 115.776C126.435 112.883 125.101 110.658 122.433 109.1C119.764 107.543 116.652 106.764 113.094 106.764C110.315 106.764 107.869 107.209 105.757 108.099C104.2 108.767 103.033 109.824 102.255 111.27C101.477 112.605 101.088 114.107 101.088 115.776C101.088 117.444 101.477 119.002 102.255 120.448C103.033 121.783 104.2 122.784 105.757 123.452Z" stroke="#FF6161" stroke-width="60" mask="url(#path-1-outside-1_372_1368)"/>
<path d="M268.981 77.2266C268.981 85.3481 267.758 92.5238 265.312 98.754C262.978 104.984 259.643 110.213 255.307 114.441C258.976 120.114 260.81 125.621 260.81 130.962C260.81 135.523 259.031 139.305 255.474 142.309C252.027 145.313 248.081 146.815 243.634 146.815C241.077 146.815 238.742 146.426 236.63 145.647C234.518 144.868 232.239 143.533 229.793 141.642C227.681 139.973 225.68 137.692 223.79 134.8C221.9 131.907 220.399 128.903 219.287 125.788C215.619 125.343 211.95 124.398 208.281 122.951C208.948 126.511 209.282 129.237 209.282 131.128C209.282 141.697 203.779 146.982 192.773 146.982C183.546 146.982 177.042 141.586 173.262 130.795C169.482 120.003 167.593 106.82 167.593 91.2444C167.593 80.6755 169.482 70.774 173.262 61.5401C177.153 52.1949 183.045 44.6853 190.939 39.0114C198.832 33.2263 208.448 30.3338 219.788 30.3338C228.904 30.3338 237.186 32.2807 244.634 36.1745C252.083 39.9571 257.975 45.4085 262.311 52.5286C266.758 59.6488 268.981 67.8814 268.981 77.2266ZM206.614 85.0699C206.614 88.8525 208.115 92.1901 211.116 95.0826C214.118 97.864 217.564 99.2546 221.455 99.2546C225.457 99.2546 228.904 97.864 231.794 95.0826C234.796 92.1901 236.297 88.8525 236.297 85.0699C236.297 81.1761 234.796 77.8385 231.794 75.0572C228.904 72.1647 225.457 70.7184 221.455 70.7184C217.564 70.7184 214.118 72.1647 211.116 75.0572C208.115 77.9498 206.614 81.2874 206.614 85.0699Z" stroke="#FF6161" stroke-width="60" mask="url(#path-1-outside-1_372_1368)"/>
<path d="M323.077 116.61C328.747 117.278 333.138 118.724 336.251 120.949C339.475 123.063 341.087 126.456 341.087 131.128C341.087 135.801 339.419 139.25 336.084 141.475C332.86 143.7 328.969 145.091 324.411 145.647C319.853 146.092 313.961 146.314 306.735 146.314C299.62 146.314 293.783 146.092 289.225 145.647C284.667 145.091 280.776 143.7 277.552 141.475C274.328 139.25 272.716 135.801 272.716 131.128C272.716 126.567 274.217 123.229 277.219 121.116C280.331 118.891 284.556 117.389 289.892 116.61C289.336 110.157 289.058 100.923 289.058 88.9081C289.058 78.1167 289.281 69.439 289.725 62.8751C283.277 62.2076 278.219 60.65 274.55 58.2025C270.882 55.7549 269.047 51.9167 269.047 46.6879C269.047 41.5703 270.826 37.7877 274.384 35.3401C277.941 32.8926 282.221 31.3907 287.224 30.8344C292.227 30.2781 298.675 30 306.568 30C314.461 30 320.909 30.2781 325.912 30.8344C330.914 31.3907 335.195 32.8926 338.752 35.3401C342.421 37.7877 344.255 41.5703 344.255 46.6879C344.255 51.9167 342.365 55.7549 338.585 58.2025C334.917 60.65 329.803 62.2076 323.244 62.8751C323.799 68.994 324.077 77.6717 324.077 88.9081C324.077 99.6996 323.744 108.934 323.077 116.61Z" stroke="#FF6161" stroke-width="60" mask="url(#path-1-outside-1_372_1368)"/>
<path d="M396.191 146.815C381.85 146.815 371.4 145.091 364.84 141.642C358.281 138.193 354.057 132.686 352.167 125.121C350.277 117.556 349.332 105.763 349.332 89.7425C349.332 73.4997 350.221 61.4288 352 53.5299C353.89 45.5197 358.059 39.6233 364.507 35.8408C371.066 31.9469 381.461 30 395.691 30C404.251 30 412.978 32.0025 421.872 36.0076C430.765 39.9015 438.269 46.3541 444.384 55.3655C450.498 64.377 453.555 75.8916 453.555 89.9094C453.555 103.371 450.443 114.385 444.217 122.951C437.991 131.407 430.487 137.525 421.705 141.308C412.922 144.979 404.418 146.815 396.191 146.815ZM385.852 117.444C389.409 117.889 391.966 118.112 393.523 118.112C401.416 118.112 407.53 115.998 411.866 111.771C416.202 107.543 418.37 101.702 418.37 94.2483C418.37 87.5731 416.257 82.3999 412.033 78.7285C407.808 74.946 401.861 73.0547 394.19 73.0547C391.299 73.0547 388.52 73.2772 385.852 73.7222V117.444Z" stroke="#FF6161" stroke-width="60" mask="url(#path-1-outside-1_372_1368)"/>
<path d="M520.432 146.648C507.758 146.648 496.919 144.423 487.914 139.973C478.909 135.523 472.017 129.182 467.236 120.949C462.567 112.605 460.232 102.759 460.232 91.4113C460.232 77.8385 463.067 66.4352 468.737 57.2012C474.518 47.9673 481.966 41.1252 491.082 36.6751C500.198 32.225 509.759 30 519.765 30C528.658 30 536.496 31.335 543.277 34.0051C550.059 36.6751 555.284 40.1796 558.953 44.5184C562.621 48.8573 564.456 53.4186 564.456 58.2025C564.456 65.1001 562.677 70.0509 559.119 73.0547C555.562 75.9472 551.171 77.3935 545.946 77.3935C543.5 77.3935 541.332 77.171 539.442 76.726C537.663 76.281 535.773 75.6691 533.772 74.8903C531.549 74.1116 529.548 73.5553 527.769 73.2216C526.101 72.7765 523.989 72.554 521.432 72.554C514.095 72.554 508.314 74.7791 504.089 79.2292C499.865 83.568 497.753 89.7425 497.753 97.7527C497.753 104.539 499.809 109.768 503.923 113.439C508.036 117.111 513.15 118.946 519.264 118.946C522.711 118.946 525.712 118.501 528.269 117.611C530.826 116.721 532.772 115.72 534.106 114.607C535.44 113.495 536.107 112.605 536.107 111.937C527.991 111.937 521.821 110.992 517.597 109.1C513.372 107.209 511.26 103.927 511.26 99.2546C511.26 94.582 512.872 90.9663 516.096 88.4075C519.32 85.7374 524.767 84.4024 532.438 84.4024C540.331 84.4024 546.501 85.3481 550.948 87.2394C555.395 89.0194 558.564 91.8563 560.453 95.7502C562.343 99.5327 563.288 104.595 563.288 110.936C563.288 117.389 561.343 123.341 557.452 128.792C553.672 134.243 548.447 138.582 541.777 141.809C535.218 145.035 528.103 146.648 520.432 146.648Z" stroke="#FF6161" stroke-width="60" mask="url(#path-1-outside-1_372_1368)"/>
<path d="M652.716 120.114C658.052 121.783 660.72 125.288 660.72 130.628C660.72 135.634 658.163 139.584 653.049 142.476C647.936 145.369 639.097 146.815 626.535 146.815C610.86 146.815 597.408 143.032 586.18 135.467C575.063 127.902 569.504 112.883 569.504 90.41C569.504 79.0623 571.449 68.8271 575.341 59.7044C579.232 50.5817 585.012 43.3503 592.683 38.0102C600.465 32.6701 609.97 30 621.199 30C636.207 30 646.768 32.3363 652.883 37.0089C658.997 41.5702 662.054 47.1885 662.054 53.8636C662.054 56.9787 661.276 59.8713 659.72 62.5413C658.163 65.1001 655.829 67.1027 652.716 68.549C650.048 69.884 646.602 70.5515 642.377 70.5515L637.875 70.3846C636.985 70.2734 635.707 70.2177 634.039 70.2177C628.258 70.2177 623.7 71.2746 620.365 73.3884C617.03 75.391 614.751 78.506 613.528 82.7336C618.197 82.5111 622.422 82.3999 626.202 82.3999C637.43 82.3999 644.712 82.7336 648.047 83.4011C651.827 84.1799 654.717 85.6818 656.718 87.9069C658.83 90.1319 659.887 92.7463 659.887 95.7502C659.887 98.754 658.886 101.368 656.885 103.593C654.884 105.707 651.882 107.154 647.88 107.932C644.767 108.6 637.207 108.934 625.201 108.934C620.309 108.934 616.863 108.878 614.862 108.767C618.308 116.109 624.756 119.781 634.206 119.781C634.762 119.781 636.04 119.669 638.041 119.447C640.709 119.224 642.988 119.113 644.878 119.113C648.102 119.113 650.715 119.447 652.716 120.114Z" stroke="#FF6161" stroke-width="60" mask="url(#path-1-outside-1_372_1368)"/>
<path d="M238.345 221.743C238.345 229.086 235.288 234.426 229.174 237.764C223.17 240.99 213.332 242.937 199.658 243.605C200.102 248.945 200.325 255.842 200.325 264.298C200.325 276.09 199.657 285.547 198.323 292.667C197.101 299.676 194.933 304.905 191.82 308.353C188.707 311.691 184.371 313.36 178.813 313.36C173.365 313.36 169.196 311.58 166.306 308.02C163.416 304.46 161.414 299.175 160.303 292.166C159.191 285.157 158.635 275.868 158.635 264.298C158.635 256.51 158.802 249.612 159.135 243.605C149.908 243.16 142.46 242.214 136.79 240.768C131.231 239.21 127.118 236.929 124.45 233.926C121.782 230.922 120.448 226.861 120.448 221.743C120.448 215.513 122.56 210.618 126.784 207.058C131.009 203.498 137.346 200.995 145.795 199.549C154.244 198.102 165.305 197.379 178.98 197.379C192.765 197.379 203.938 198.102 212.498 199.549C221.058 200.995 227.506 203.498 231.842 207.058C236.177 210.618 238.345 215.513 238.345 221.743Z" stroke="#FF6161" stroke-width="60" mask="url(#path-1-outside-1_372_1368)"/>
<path d="M260.945 314.027C253.496 314.027 247.493 310.412 242.935 303.18C238.488 295.838 235.876 285.936 235.097 273.476C234.986 271.696 234.931 269.081 234.931 265.633C234.931 252.171 237.154 240.267 241.601 229.921C246.048 219.463 252.329 211.397 260.444 205.723C268.671 199.938 278.232 197.045 289.127 197.045C300.022 197.045 309.527 199.938 317.642 205.723C325.869 211.397 332.15 219.407 336.486 229.754C340.933 240.1 343.156 252.06 343.156 265.633C343.156 269.081 343.101 271.696 342.989 273.476C342.211 286.159 339.599 296.06 335.152 303.18C330.705 310.3 324.702 313.86 317.142 313.86C311.028 313.86 306.747 312.192 304.302 308.854C301.967 305.517 300.8 301.456 300.8 296.672C300.8 294.447 300.967 292.5 301.3 290.831C295.519 291.054 290.405 291.165 285.958 291.165C283.179 291.165 280.122 291.054 276.787 290.831C277.12 292.5 277.287 294.447 277.287 296.672C277.287 301.567 276.064 305.683 273.618 309.021C271.284 312.359 267.059 314.027 260.945 314.027ZM275.619 261.127C281.623 260.904 286.014 260.793 288.793 260.793C291.795 260.793 296.186 260.904 301.967 261.127C302.189 259.903 302.301 258.067 302.301 255.62C302.301 250.391 301.189 246.163 298.965 242.937C296.742 239.599 293.296 237.931 288.626 237.931C284.068 237.931 280.678 239.544 278.454 242.77C276.231 245.996 275.119 250.168 275.119 255.286C275.119 257.177 275.286 259.124 275.619 261.127Z" stroke="#FF6161" stroke-width="60" mask="url(#path-1-outside-1_372_1368)"/>
<path d="M397.889 313.694C386.661 313.694 377.156 311.413 369.374 306.852C361.592 302.179 356.478 295.226 354.032 285.992C353.031 282.209 352.364 277.592 352.031 272.141C351.697 266.689 351.53 259.736 351.53 251.281C351.53 234.704 353.309 221.521 356.867 211.731C360.535 201.829 367.762 196.879 378.545 196.879C385.216 196.879 390.441 199.215 394.22 203.887C398.111 208.56 400.057 214.345 400.057 221.243C400.057 228.586 399.445 236.429 398.223 244.773C397 253.117 395.277 263.241 393.053 275.145C399.946 272.92 407.505 271.807 415.732 271.807C424.292 271.807 431.407 273.365 437.077 276.48C442.858 279.595 445.748 284.657 445.748 291.666C445.748 298.452 443.525 303.458 439.078 306.685C434.631 309.911 429.24 311.914 422.903 312.692C416.566 313.36 408.228 313.694 397.889 313.694Z" stroke="#FF6161" stroke-width="60" mask="url(#path-1-outside-1_372_1368)"/>
<path d="M513.069 256.454C522.963 261.016 531.357 266.523 538.249 272.975C545.253 279.428 548.755 286.437 548.755 294.002C548.755 300.677 546.921 305.628 543.252 308.854C539.583 312.08 535.081 313.694 529.745 313.694C522.074 313.694 514.848 310.189 508.066 303.18C501.396 296.06 494.948 286.771 488.722 275.312C488.722 283.21 488.278 289.83 487.388 295.17C486.61 300.51 484.831 304.96 482.052 308.52C479.273 311.969 475.104 313.694 469.545 313.694C463.764 313.694 459.484 311.524 456.705 307.185C454.037 302.846 452.369 297.618 451.702 291.499C451.146 285.38 450.868 277.37 450.868 267.468C450.868 260.459 450.924 252.171 451.035 242.603C451.258 232.924 451.48 226.917 451.702 224.58C451.925 216.236 453.648 209.561 456.872 204.555C460.096 199.437 464.654 196.879 470.546 196.879C477.327 196.879 482.052 199.771 484.72 205.556C487.499 211.341 488.889 220.186 488.889 232.09V237.096C494.559 226.861 501.118 217.683 508.566 209.561C516.015 201.44 523.464 197.379 530.912 197.379C536.137 197.379 540.417 199.382 543.752 203.387C547.199 207.281 548.922 212.12 548.922 217.905C548.922 225.693 545.587 233.147 538.916 240.267C532.357 247.276 523.741 252.672 513.069 256.454Z" stroke="#FF6161" stroke-width="60" mask="url(#path-1-outside-1_372_1368)"/>
<path d="M564.379 204.722C567.603 199.493 572.995 196.879 580.555 196.879C587.781 196.879 593.006 199.382 596.23 204.388C599.565 209.394 601.233 215.458 601.233 222.578C601.233 228.474 600.677 235.038 599.565 242.27C598.453 249.39 596.897 255.787 594.896 261.461C593.896 264.242 592.172 266.689 589.727 268.803C587.392 270.806 584.335 271.807 580.555 271.807C576.775 271.807 573.662 270.806 571.216 268.803C568.771 266.689 567.048 264.242 566.047 261.461C564.046 255.898 562.49 249.668 561.378 242.77C560.266 235.761 559.71 229.42 559.71 223.746C559.71 216.181 561.267 209.839 564.379 204.722ZM592.561 307.686C589.115 311.135 585.057 312.859 580.388 312.859C575.719 312.859 571.661 311.135 568.215 307.686C564.769 304.237 563.045 300.176 563.045 295.504C563.045 290.831 564.769 286.771 568.215 283.322C571.661 279.873 575.719 278.148 580.388 278.148C585.057 278.148 589.115 279.873 592.561 283.322C596.008 286.771 597.731 290.831 597.731 295.504C597.731 300.176 596.008 304.237 592.561 307.686Z" stroke="#FF6161" stroke-width="60" mask="url(#path-1-outside-1_372_1368)"/>
<path d="M75.089 191.866C76.9389 193.361 78.3264 194.785 79.2513 196.138C80.1762 197.419 80.6387 198.772 80.6387 200.196C80.6387 202.261 79.8917 204.183 78.3975 205.963C76.9034 207.672 74.9823 208.527 72.6344 208.527C70.9979 208.527 68.8634 208.064 66.2309 207.138C65.6617 210.556 64.7012 213.119 63.3493 214.828C62.0686 216.537 60.1831 217.391 57.6929 217.391C54.8469 217.391 52.7124 216.572 51.2894 214.935C49.8664 213.226 48.9415 210.627 48.5146 207.138C45.882 208.064 43.7475 208.527 42.1111 208.527C39.692 208.527 37.7354 207.672 36.2412 205.963C34.8182 204.183 34.1067 202.261 34.1067 200.196C34.1067 198.772 34.5692 197.419 35.4941 196.138C36.4191 194.785 37.8065 193.361 39.6564 191.866C35.8855 188.733 34 185.813 34 183.108C34 181.185 34.7471 179.334 36.2412 177.554C37.7354 175.774 39.6208 174.884 41.8976 174.884C43.8187 174.884 46.0243 175.418 48.5146 176.486C49.0126 173.068 49.9376 170.541 51.2894 168.903C52.6413 167.194 54.669 166.34 57.3727 166.34C59.9341 166.34 61.8907 167.194 63.2426 168.903C64.6656 170.541 65.6617 173.068 66.2309 176.486C68.7923 175.418 70.9979 174.884 72.8478 174.884C74.4131 174.884 75.8005 175.347 77.0101 176.272C78.2196 177.127 79.1446 178.195 79.7849 179.476C80.4253 180.758 80.7454 181.969 80.7454 183.108C80.7454 185.813 78.86 188.733 75.089 191.866Z" stroke="#FF6161" stroke-width="60" mask="url(#path-1-outside-1_372_1368)"/>
<path d="M719.758 73.1748C721.145 74.2963 722.186 75.3643 722.879 76.3789C723.573 77.3401 723.92 78.3547 723.92 79.4228C723.92 80.9714 723.36 82.4132 722.239 83.7483C721.118 85.0299 719.678 85.6707 717.917 85.6707C716.689 85.6707 715.088 85.3236 713.114 84.6294C712.687 87.1926 711.967 89.1151 710.953 90.3967C709.992 91.6783 708.578 92.3191 706.711 92.3191C704.576 92.3191 702.975 91.705 701.908 90.4768C700.841 89.1952 700.147 87.246 699.827 84.6294C697.852 85.3236 696.252 85.6707 695.024 85.6707C693.21 85.6707 691.742 85.0299 690.622 83.7483C689.555 82.4132 689.021 80.9714 689.021 79.4228C689.021 78.3547 689.368 77.3401 690.062 76.3789C690.755 75.3643 691.796 74.2963 693.183 73.1748C690.355 70.8252 688.941 68.6357 688.941 66.6065C688.941 65.1647 689.501 63.7762 690.622 62.4412C691.742 61.1062 693.156 60.4387 694.864 60.4387C696.305 60.4387 697.959 60.8392 699.827 61.6402C700.2 59.0769 700.894 57.1812 701.908 55.953C702.922 54.6713 704.443 54.0305 706.47 54.0305C708.391 54.0305 709.859 54.6713 710.873 55.953C711.94 57.1812 712.687 59.0769 713.114 61.6402C715.035 60.8392 716.689 60.4387 718.077 60.4387C719.251 60.4387 720.291 60.7858 721.198 61.48C722.106 62.1208 722.799 62.9218 723.28 63.883C723.76 64.8443 724 65.7521 724 66.6065C724 68.6357 722.586 70.8252 719.758 73.1748Z" stroke="#FF6161" stroke-width="60" mask="url(#path-1-outside-1_372_1368)"/>
<path d="M668.745 286.152C670.595 287.647 671.983 289.071 672.908 290.424C673.833 291.706 674.295 293.059 674.295 294.483C674.295 296.547 673.548 298.47 672.054 300.25C670.56 301.959 668.639 302.813 666.291 302.813C664.654 302.813 662.52 302.35 659.887 301.425C659.318 304.842 658.358 307.406 657.006 309.114C655.725 310.823 653.84 311.678 651.349 311.678C648.503 311.678 646.369 310.859 644.946 309.221C643.523 307.512 642.598 304.914 642.171 301.425C639.539 302.35 637.404 302.813 635.768 302.813C633.348 302.813 631.392 301.959 629.898 300.25C628.475 298.47 627.763 296.547 627.763 294.483C627.763 293.059 628.226 291.706 629.151 290.424C630.076 289.071 631.463 287.647 633.313 286.152C629.542 283.019 627.656 280.1 627.656 277.394C627.656 275.472 628.404 273.62 629.898 271.84C631.392 270.06 633.277 269.17 635.554 269.17C637.475 269.17 639.681 269.704 642.171 270.772C642.669 267.355 643.594 264.827 644.946 263.189C646.298 261.481 648.326 260.626 651.029 260.626C653.591 260.626 655.547 261.481 656.899 263.189C658.322 264.827 659.318 267.355 659.887 270.772C662.449 269.704 664.654 269.17 666.504 269.17C668.07 269.17 669.457 269.633 670.667 270.559C671.876 271.413 672.801 272.481 673.441 273.763C674.082 275.045 674.402 276.255 674.402 277.394C674.402 280.1 672.516 283.019 668.745 286.152Z" stroke="#FF6161" stroke-width="60" mask="url(#path-1-outside-1_372_1368)"/>
<path d="M231.158 346.856C232.546 347.977 233.586 349.045 234.28 350.06C234.974 351.021 235.321 352.036 235.321 353.104C235.321 354.652 234.76 356.094 233.64 357.429C232.519 358.711 231.078 359.352 229.317 359.352C228.09 359.352 226.489 359.004 224.515 358.31C224.088 360.873 223.367 362.796 222.354 364.078C221.393 365.359 219.979 366 218.111 366C215.977 366 214.376 365.386 213.309 364.158C212.241 362.876 211.548 360.927 211.228 358.31C209.253 359.004 207.652 359.352 206.425 359.352C204.611 359.352 203.143 358.711 202.022 357.429C200.955 356.094 200.422 354.652 200.422 353.104C200.422 352.036 200.768 351.021 201.462 350.06C202.156 349.045 203.196 347.977 204.584 346.856C201.756 344.506 200.342 342.317 200.342 340.287C200.342 338.846 200.902 337.457 202.022 336.122C203.143 334.787 204.557 334.12 206.265 334.12C207.706 334.12 209.36 334.52 211.228 335.321C211.601 332.758 212.295 330.862 213.309 329.634C214.323 328.352 215.843 327.711 217.871 327.711C219.792 327.711 221.26 328.352 222.274 329.634C223.341 330.862 224.088 332.758 224.515 335.321C226.436 334.52 228.09 334.12 229.477 334.12C230.651 334.12 231.692 334.467 232.599 335.161C233.506 335.802 234.2 336.603 234.68 337.564C235.161 338.525 235.401 339.433 235.401 340.287C235.401 342.317 233.987 344.506 231.158 346.856Z" stroke="#FF6161" stroke-width="60" mask="url(#path-1-outside-1_372_1368)"/>
</g>
<defs>
<filter id="filter0_d_372_1368" x="0" y="0" width="758" height="404" filterUnits="userSpaceOnUse" color-interpolation-filters="sRGB">
<feFlood flood-opacity="0" result="BackgroundImageFix"/>
<feColorMatrix in="SourceAlpha" type="matrix" values="0 0 0 0 0 0 0 0 0 0 0 0 0 0 0 0 0 0 127 0" result="hardAlpha"/>
<feOffset dy="4"/>
<feGaussianBlur stdDeviation="2"/>
<feComposite in2="hardAlpha" operator="out"/>
<feColorMatrix type="matrix" values="0 0 0 0 0 0 0 0 0 0 0 0 0 0 0 0 0 0 0.25 0"/>
<feBlend mode="normal" in2="BackgroundImageFix" result="effect1_dropShadow_372_1368"/>
<feBlend mode="normal" in="SourceGraphic" in2="effect1_dropShadow_372_1368" result="shape"/>
</filter>
</defs>
</svg>
