<svg width="153" height="140" viewBox="0 0 153 140" fill="none" xmlns="http://www.w3.org/2000/svg">
<path d="M10 69.9023C10 77.6567 15.294 84.0818 22.5195 85.75V89.4329C22.4971 89.8737 22.4993 90.2118 22.4999 90.2956C22.5 90.3036 22.5 90.3092 22.5 90.3125V112.188C22.5 122.027 30.4732 130 40.3125 130H43.4375C43.7059 130 43.9645 129.992 44.1918 129.981C44.4391 129.991 44.7241 130 45.0195 130H51.25H55.9375C65.7768 130 73.75 122.027 73.75 112.188V107.5V98.75H78.75V107.5V112.188C78.75 122.027 86.7232 130 96.5625 130H101.25H107.598L107.645 130C107.792 130 108.058 130.001 108.383 129.991C108.686 130.001 108.92 130 109.027 130C109.041 130 109.053 130 109.062 130H112.188C122.027 130 130 122.027 130 112.188V109.541C130.056 108.918 130.098 108.216 130.098 107.461V107.439L130.098 107.417L130.003 85.7157C136.823 84.0527 142.209 78.0148 142.452 70.4389C142.872 64.7669 140.01 60.4162 136.907 57.697C136.904 57.6944 136.901 57.6917 136.898 57.6891L87.0318 13.8564L86.9328 13.7694L86.8315 13.685C83.3891 10.8163 79.334 10 76.3281 10C74.0036 10 69.3415 10.3272 65.2635 14.196L15.3822 57.6767L15.1242 57.9017L14.8821 58.1438C11.5705 61.4553 10 65.5915 10 69.9023Z" fill="white" stroke="#FF6161" stroke-width="20"/>
</svg>
