<svg width="69" height="61" viewBox="0 0 69 61" fill="none" xmlns="http://www.w3.org/2000/svg">
<path d="M29.183 10.3973L45.6295 26.8437C46.5938 27.808 47.1429 29.1339 47.1429 30.5C47.1429 31.8661 46.5938 33.192 45.6295 34.1562L29.183 50.6027C28.3259 51.4598 27.1741 51.9286 25.9687 51.9286C23.4643 51.9286 21.4286 49.8929 21.4286 47.3884V39.0714H4.28571C1.91518 39.0714 0 37.1562 0 34.7857V26.2143C0 23.8438 1.91518 21.9286 4.28571 21.9286H21.4286V13.6116C21.4286 11.1071 23.4643 9.07143 25.9687 9.07143C27.1741 9.07143 28.3259 9.55357 29.183 10.3973ZM47.1429 51.9286H55.7143C58.0848 51.9286 60 50.0134 60 47.6429V13.3571C60 10.9866 58.0848 9.07143 55.7143 9.07143H47.1429C44.7723 9.07143 42.8571 7.15625 42.8571 4.78571C42.8571 2.41518 44.7723 0.5 47.1429 0.5H55.7143C62.8125 0.5 68.5714 6.25893 68.5714 13.3571V47.6429C68.5714 54.7411 62.8125 60.5 55.7143 60.5H47.1429C44.7723 60.5 42.8571 58.5848 42.8571 56.2143C42.8571 53.8438 44.7723 51.9286 47.1429 51.9286Z" fill="white"/>
</svg>
