<svg width="75" height="61" viewBox="0 0 75 61" fill="none" xmlns="http://www.w3.org/2000/svg">
<path d="M11.25 15.5C11.25 11.5218 12.8304 7.70644 15.6434 4.8934C18.4564 2.08035 22.2718 0.5 26.25 0.5C30.2282 0.5 34.0436 2.08035 36.8566 4.8934C39.6696 7.70644 41.25 11.5218 41.25 15.5C41.25 19.4782 39.6696 23.2936 36.8566 26.1066C34.0436 28.9196 30.2282 30.5 26.25 30.5C22.2718 30.5 18.4564 28.9196 15.6434 26.1066C12.8304 23.2936 11.25 19.4782 11.25 15.5ZM0 57.0195C0 45.4766 9.35156 36.125 20.8945 36.125H31.6055C43.1484 36.125 52.5 45.4766 52.5 57.0195C52.5 58.9414 50.9414 60.5 49.0195 60.5H3.48047C1.55859 60.5 0 58.9414 0 57.0195ZM59.0625 37.0625V29.5625H51.5625C50.0039 29.5625 48.75 28.3086 48.75 26.75C48.75 25.1914 50.0039 23.9375 51.5625 23.9375H59.0625V16.4375C59.0625 14.8789 60.3164 13.625 61.875 13.625C63.4336 13.625 64.6875 14.8789 64.6875 16.4375V23.9375H72.1875C73.7461 23.9375 75 25.1914 75 26.75C75 28.3086 73.7461 29.5625 72.1875 29.5625H64.6875V37.0625C64.6875 38.6211 63.4336 39.875 61.875 39.875C60.3164 39.875 59.0625 38.6211 59.0625 37.0625Z" fill="white"/>
</svg>
