<svg width="1365" height="130" viewBox="0 0 1365 130" fill="none" xmlns="http://www.w3.org/2000/svg">
<g filter="url(#filter0_d_2032_56)">
<mask id="path-1-outside-1_2032_56" maskUnits="userSpaceOnUse" x="4.86874" y="0.799805" width="1356" height="121" fill="black">
<rect fill="white" x="4.86874" y="0.799805" width="1356" height="121"/>
<path d="M50.1167 87.9998C44.9967 87.9998 40.5167 86.5918 36.6767 83.7758C32.9007 80.9598 29.9887 76.9598 27.9407 71.7758C25.8927 66.5918 24.8687 60.4798 24.8687 53.4398C24.8687 49.3438 25.5407 44.9598 26.8847 40.2878C28.2927 35.6158 30.2767 31.6798 32.8367 28.4798C35.4607 25.2158 38.5007 23.5838 41.9567 23.5838C44.7727 23.5838 47.1087 24.6078 48.9647 26.6558C50.8207 28.7038 51.7487 31.2318 51.7487 34.2398C51.7487 35.1358 51.5247 36.3518 51.0767 37.8878C50.6927 39.3598 50.2447 40.8958 49.7327 42.4958C48.7727 45.2478 48.0367 47.6798 47.5247 49.7918C47.0127 51.8398 46.7567 53.8238 46.7567 55.7438C46.7567 58.5598 47.1727 60.6078 48.0047 61.8878C48.8367 63.1678 49.8607 63.8078 51.0767 63.8078C52.6767 63.8078 53.7967 63.0078 54.4367 61.4078C55.1407 59.7438 55.4927 56.7038 55.4927 52.2878L55.3967 45.6638C55.3967 40.5438 56.0687 36.4798 57.4127 33.4718C58.7567 30.3998 61.4447 28.8638 65.4767 28.8638C68.4847 28.8638 70.7567 29.6958 72.2927 31.3598C73.8287 33.0238 74.8207 35.1358 75.2687 37.6958C75.7167 40.1918 75.9407 43.2318 75.9407 46.8158V51.7118C75.9407 56.3838 76.3247 59.7118 77.0927 61.6958C77.9247 63.6158 79.2367 64.5758 81.0287 64.5758C82.2447 64.5758 83.1727 63.9678 83.8127 62.7518C84.5167 61.4718 84.8687 59.5838 84.8687 57.0878C84.8687 55.2318 84.6447 53.3758 84.1967 51.5198C83.7487 49.6638 83.0447 47.2958 82.0847 44.4158C81.2527 41.6638 80.6447 39.6158 80.2607 38.2718C79.9407 36.8638 79.7807 35.5198 79.7807 34.2398C79.7807 31.2318 80.7407 28.7358 82.6607 26.7518C84.6447 24.7678 86.9487 23.7758 89.5727 23.7758C93.3487 23.7758 96.5167 25.3758 99.0767 28.5758C101.701 31.7118 103.653 35.5838 104.933 40.1918C106.213 44.7998 106.853 49.2158 106.853 53.4398C106.853 60.4798 105.829 66.5918 103.781 71.7758C101.733 76.9598 98.7887 80.9598 94.9487 83.7758C91.1727 86.5278 86.7247 87.9038 81.6047 87.9038C78.7887 87.9038 76.0367 87.2638 73.3487 85.9838C70.6607 84.7038 68.1647 82.7838 65.8607 80.2238C63.5567 82.7838 61.0287 84.7358 58.2767 86.0798C55.5887 87.3598 52.8687 87.9998 50.1167 87.9998Z"/>
<path d="M158.648 72.6398C161.72 73.5998 163.256 75.6158 163.256 78.6878C163.256 81.5678 161.784 83.8398 158.84 85.5038C155.896 87.1678 150.808 87.9998 143.576 87.9998C134.552 87.9998 126.808 85.8238 120.344 81.4718C113.944 77.1198 110.744 68.4798 110.744 55.5518C110.744 49.0238 111.864 43.1358 114.104 37.8878C116.344 32.6398 119.672 28.4798 124.088 25.4078C128.568 22.3358 134.04 20.7998 140.504 20.7998C149.144 20.7998 155.224 22.1438 158.744 24.8318C162.264 27.4558 164.024 30.6878 164.024 34.5278C164.024 36.3198 163.576 37.9838 162.68 39.5198C161.784 40.9918 160.44 42.1438 158.648 42.9758C157.112 43.7438 155.128 44.1278 152.696 44.1278L150.104 44.0318C149.592 43.9678 148.856 43.9358 147.896 43.9358C144.568 43.9358 141.944 44.5438 140.024 45.7598C138.104 46.9118 136.792 48.7038 136.088 51.1358C138.776 51.0078 141.208 50.9438 143.384 50.9438C149.848 50.9438 154.04 51.1358 155.96 51.5198C158.136 51.9678 159.8 52.8318 160.952 54.1118C162.168 55.3918 162.776 56.8958 162.776 58.6238C162.776 60.3518 162.2 61.8558 161.048 63.1358C159.896 64.3518 158.168 65.1838 155.864 65.6318C154.072 66.0158 149.72 66.2078 142.808 66.2078C139.992 66.2078 138.008 66.1758 136.856 66.1118C138.84 70.3358 142.552 72.4478 147.992 72.4478C148.312 72.4478 149.048 72.3838 150.2 72.2558C151.736 72.1278 153.048 72.0638 154.136 72.0638C155.992 72.0638 157.496 72.2558 158.648 72.6398Z"/>
<path d="M195.557 87.9998C189.093 87.9998 183.621 86.6878 179.141 84.0638C174.661 81.3758 171.717 77.3758 170.309 72.0638C169.733 69.8878 169.349 67.2318 169.157 64.0958C168.965 60.9598 168.869 56.9598 168.869 52.0958C168.869 42.5598 169.893 34.9758 171.941 29.3438C174.053 23.6478 178.213 20.7998 184.421 20.7998C188.261 20.7998 191.269 22.1438 193.445 24.8318C195.685 27.5198 196.805 30.8478 196.805 34.8158C196.805 39.0398 196.453 43.5518 195.749 48.3518C195.045 53.1518 194.053 58.9758 192.773 65.8238C196.741 64.5438 201.093 63.9038 205.829 63.9038C210.757 63.9038 214.853 64.7998 218.117 66.5918C221.445 68.3838 223.109 71.2958 223.109 75.3278C223.109 79.2318 221.829 82.1118 219.269 83.9678C216.709 85.8238 213.605 86.9758 209.957 87.4238C206.309 87.8078 201.509 87.9998 195.557 87.9998Z"/>
<path d="M256.078 87.8078C249.806 87.8078 244.174 86.5598 239.182 84.0638C234.254 81.5038 230.35 77.7278 227.47 72.7358C224.59 67.6798 223.15 61.5038 223.15 54.2078C223.15 48.3198 224.494 42.8158 227.182 37.6958C229.87 32.5758 233.582 28.4798 238.318 25.4078C243.054 22.3358 248.366 20.7998 254.254 20.7998C259.822 20.7998 264.782 21.8558 269.134 23.9678C273.486 26.0158 276.846 28.8318 279.214 32.4158C281.646 35.9998 282.862 39.9998 282.862 44.4158C282.862 47.2318 282.03 49.6638 280.366 51.7118C278.766 53.7598 276.462 54.7838 273.454 54.7838C271.214 54.7838 269.486 54.3998 268.27 53.6318C267.054 52.8638 265.774 51.6798 264.43 50.0798C263.086 48.4798 261.774 47.2958 260.494 46.5278C259.278 45.6958 257.486 45.2798 255.118 45.2798C252.11 45.2798 249.518 46.4318 247.342 48.7358C245.23 50.9758 244.174 53.7278 244.174 56.9918C244.174 60.5118 245.07 63.4878 246.862 65.9198C248.718 68.2878 251.214 69.4718 254.35 69.4718C256.782 69.4718 258.702 69.1198 260.11 68.4158C261.582 67.7118 263.118 66.6878 264.718 65.3438C266.062 64.1918 267.278 63.3278 268.366 62.7518C269.518 62.1758 270.926 61.8878 272.59 61.8878C275.15 61.8878 277.166 62.6878 278.638 64.2878C280.11 65.8238 280.846 67.8398 280.846 70.3358C280.846 73.2798 279.758 76.0958 277.582 78.7838C275.47 81.4718 272.526 83.6478 268.75 85.3118C264.974 86.9758 260.75 87.8078 256.078 87.8078Z"/>
<path d="M318.511 88.0958C312.687 88.1598 307.279 86.7198 302.287 83.7758C297.359 80.8318 293.391 76.7998 290.383 71.6798C287.439 66.4958 285.903 60.7678 285.775 54.4958C285.711 48.4798 287.119 42.9118 289.999 37.7918C292.879 32.6718 296.847 28.6078 301.903 25.5998C306.959 22.5278 312.495 20.9918 318.511 20.9918C324.399 20.9278 329.839 22.3998 334.831 25.4078C339.887 28.4158 343.887 32.5438 346.831 37.7918C349.775 43.0398 351.247 48.8318 351.247 55.1678C351.247 61.1198 349.775 66.5918 346.831 71.5838C343.887 76.5758 339.887 80.5438 334.831 83.4878C329.839 86.4318 324.399 87.9678 318.511 88.0958ZM318.799 69.3758C321.743 69.3758 324.239 68.3198 326.287 66.2078C328.399 64.0958 329.423 61.3438 329.359 57.9518C329.359 54.4958 328.335 51.7118 326.287 49.5998C324.239 47.4878 321.743 46.4318 318.799 46.4318C315.855 46.4318 313.359 47.4878 311.311 49.5998C309.263 51.7118 308.239 54.4958 308.239 57.9518C308.239 61.3438 309.263 64.0958 311.311 66.2078C313.359 68.3198 315.855 69.3758 318.799 69.3758Z"/>
<path d="M391.365 87.9998C389.189 87.9998 387.364 87.4558 385.892 86.3678C384.484 85.2158 383.493 83.6798 382.917 81.7598C382.405 79.9678 382.084 78.0158 381.956 75.9038C381.892 73.7918 381.861 70.8158 381.861 66.9758C381.861 63.3918 381.7 60.7358 381.38 59.0078C381.124 57.2798 380.453 56.4158 379.365 56.4158C378.085 56.4158 377.188 56.9918 376.676 58.1438C376.164 59.2318 375.909 60.7998 375.909 62.8478C375.909 64.7038 376.164 67.6158 376.676 71.5838C376.74 72.3518 376.868 73.5678 377.06 75.2318C377.252 76.8958 377.348 78.2718 377.348 79.3598C377.348 82.4318 376.644 84.6078 375.236 85.8878C373.892 87.1678 371.908 87.8078 369.284 87.8078C366.148 87.8078 363.428 86.1118 361.124 82.7198C358.82 79.3278 357.092 75.1038 355.94 70.0478C354.788 64.9278 354.212 59.9038 354.212 54.9758C354.212 49.0878 355.044 43.6158 356.708 38.5598C358.436 33.5038 360.996 29.4398 364.388 26.3678C367.844 23.2958 372.004 21.7598 376.868 21.7598C380.965 21.7598 384.228 23.0398 386.66 25.5998C389.092 28.0958 390.724 31.1358 391.556 34.7198C392.26 31.1998 393.828 28.1598 396.26 25.5998C398.756 23.0398 402.02 21.7598 406.052 21.7598C410.852 21.7598 414.948 23.2638 418.34 26.2718C421.796 29.2158 424.42 33.3438 426.212 38.6558C428.068 43.9678 428.996 50.1118 428.996 57.0878C428.996 61.6318 428.357 66.3358 427.077 71.1998C425.797 75.9998 424.005 79.9998 421.701 83.1998C419.396 86.3998 416.772 87.9998 413.828 87.9998C411.14 87.9998 409.093 87.3278 407.685 85.9838C406.277 84.6398 405.572 82.4318 405.572 79.3598C405.572 77.9518 405.828 75.3278 406.34 71.4878C406.852 67.3918 407.108 64.4478 407.108 62.6558C407.108 58.4958 405.989 56.4158 403.749 56.4158C402.597 56.4158 401.86 57.3438 401.54 59.1998C401.284 61.0558 401.124 64.0638 401.06 68.2238C401.06 71.3598 400.996 73.9838 400.868 76.0958C400.74 78.1438 400.452 80.0318 400.004 81.7598C399.492 83.6158 398.468 85.1198 396.932 86.2718C395.46 87.4238 393.605 87.9998 391.365 87.9998Z"/>
<path d="M479.835 72.6398C482.907 73.5998 484.443 75.6158 484.443 78.6878C484.443 81.5678 482.971 83.8398 480.027 85.5038C477.083 87.1678 471.995 87.9998 464.763 87.9998C455.739 87.9998 447.995 85.8238 441.531 81.4718C435.131 77.1198 431.931 68.4798 431.931 55.5518C431.931 49.0238 433.051 43.1358 435.291 37.8878C437.531 32.6398 440.859 28.4798 445.275 25.4078C449.755 22.3358 455.227 20.7998 461.691 20.7998C470.331 20.7998 476.411 22.1438 479.931 24.8318C483.451 27.4558 485.211 30.6878 485.211 34.5278C485.211 36.3198 484.763 37.9838 483.867 39.5198C482.971 40.9918 481.627 42.1438 479.835 42.9758C478.299 43.7438 476.315 44.1278 473.883 44.1278L471.291 44.0318C470.779 43.9678 470.043 43.9358 469.083 43.9358C465.755 43.9358 463.131 44.5438 461.211 45.7598C459.291 46.9118 457.979 48.7038 457.275 51.1358C459.963 51.0078 462.395 50.9438 464.571 50.9438C471.035 50.9438 475.227 51.1358 477.147 51.5198C479.323 51.9678 480.987 52.8318 482.139 54.1118C483.355 55.3918 483.963 56.8958 483.963 58.6238C483.963 60.3518 483.387 61.8558 482.235 63.1358C481.083 64.3518 479.355 65.1838 477.051 65.6318C475.259 66.0158 470.907 66.2078 463.995 66.2078C461.179 66.2078 459.195 66.1758 458.043 66.1118C460.027 70.3358 463.739 72.4478 469.179 72.4478C469.499 72.4478 470.235 72.3838 471.387 72.2558C472.923 72.1278 474.235 72.0638 475.323 72.0638C477.179 72.0638 478.683 72.2558 479.835 72.6398Z"/>
<path d="M586.71 35.1038C586.71 39.3278 584.949 42.3998 581.429 44.3198C577.973 46.1758 572.309 47.2958 564.437 47.6798C564.693 50.7518 564.822 54.7198 564.822 59.5838C564.822 66.3678 564.438 71.8078 563.67 75.9038C562.966 79.9358 561.718 82.9438 559.926 84.9278C558.134 86.8478 555.637 87.8078 552.437 87.8078C549.301 87.8078 546.902 86.7838 545.238 84.7358C543.574 82.6878 542.421 79.6478 541.781 75.6158C541.141 71.5838 540.822 66.2398 540.822 59.5838C540.822 55.1038 540.917 51.1358 541.109 47.6798C535.797 47.4238 531.509 46.8798 528.245 46.0478C525.045 45.1518 522.677 43.8398 521.141 42.1118C519.605 40.3838 518.837 38.0478 518.837 35.1038C518.837 31.5198 520.054 28.7038 522.486 26.6558C524.918 24.6078 528.566 23.1678 533.43 22.3358C538.294 21.5038 544.661 21.0878 552.533 21.0878C560.469 21.0878 566.901 21.5038 571.829 22.3358C576.757 23.1678 580.469 24.6078 582.965 26.6558C585.461 28.7038 586.71 31.5198 586.71 35.1038Z"/>
<path d="M618.511 88.0958C612.687 88.1598 607.279 86.7198 602.287 83.7758C597.359 80.8318 593.391 76.7998 590.383 71.6798C587.439 66.4958 585.903 60.7678 585.775 54.4958C585.711 48.4798 587.119 42.9118 589.999 37.7918C592.879 32.6718 596.847 28.6078 601.903 25.5998C606.959 22.5278 612.495 20.9918 618.511 20.9918C624.399 20.9278 629.839 22.3998 634.831 25.4078C639.887 28.4158 643.887 32.5438 646.831 37.7918C649.775 43.0398 651.247 48.8318 651.247 55.1678C651.247 61.1198 649.775 66.5918 646.831 71.5838C643.887 76.5758 639.887 80.5438 634.831 83.4878C629.839 86.4318 624.399 87.9678 618.511 88.0958ZM618.799 69.3758C621.743 69.3758 624.239 68.3198 626.287 66.2078C628.399 64.0958 629.423 61.3438 629.359 57.9518C629.359 54.4958 628.335 51.7118 626.287 49.5998C624.239 47.4878 621.743 46.4318 618.799 46.4318C615.855 46.4318 613.359 47.4878 611.311 49.5998C609.263 51.7118 608.239 54.4958 608.239 57.9518C608.239 61.3438 609.263 64.0958 611.311 66.2078C613.359 68.3198 615.855 69.3758 618.799 69.3758Z"/>
<path d="M716.645 87.9038C706.021 87.8398 698.053 85.2158 692.741 80.0318C687.493 74.8478 684.869 66.4318 684.869 54.7838C684.869 44.2238 687.429 35.9358 692.549 29.9198C697.669 23.8398 704.901 20.7998 714.245 20.7998C720.005 20.7998 725.029 21.6638 729.317 23.3918C733.605 25.1198 736.901 27.5838 739.205 30.7838C741.509 33.9838 742.661 37.7598 742.661 42.1118C742.661 45.5678 741.893 48.6398 740.357 51.3278C738.885 54.0158 736.677 56.4158 733.733 58.5278C736.101 58.9118 738.149 60.1918 739.877 62.3678C741.669 64.5438 742.565 67.0718 742.565 69.9518C742.565 73.0238 741.733 75.9358 740.069 78.6878C738.469 81.3758 735.717 83.5838 731.813 85.3118C727.973 87.0398 722.917 87.9038 716.645 87.9038ZM710.021 52.0958C711.173 52.6718 712.613 52.9598 714.341 52.9598C716.389 52.9598 718.149 52.4798 719.621 51.5198C721.157 50.4958 721.925 48.9918 721.925 47.0078C721.925 45.0878 721.157 43.6478 719.621 42.6878C718.149 41.6638 716.357 41.1518 714.245 41.1518C712.581 41.1518 711.173 41.4398 710.021 42.0158C709.125 42.3998 708.453 43.0718 708.005 44.0318C707.557 44.9918 707.333 46.0158 707.333 47.1038C707.333 48.1918 707.557 49.2158 708.005 50.1758C708.453 51.0718 709.125 51.7118 710.021 52.0958ZM710.021 74.5598C711.237 75.0718 712.677 75.3278 714.341 75.3278C716.389 75.3278 718.149 74.9118 719.621 74.0798C721.157 73.1838 721.925 71.8718 721.925 70.1438C721.925 68.4798 721.157 67.1998 719.621 66.3038C718.085 65.4078 716.293 64.9598 714.245 64.9598C712.645 64.9598 711.237 65.2158 710.021 65.7278C709.125 66.1118 708.453 66.7198 708.005 67.5518C707.557 68.3198 707.333 69.1838 707.333 70.1438C707.333 71.1038 707.557 71.9998 708.005 72.8318C708.453 73.5998 709.125 74.1758 710.021 74.5598Z"/>
<path d="M803.987 47.9678C803.987 52.6398 803.283 56.7678 801.875 60.3518C800.531 63.9358 798.611 66.9438 796.115 69.3758C798.227 72.6398 799.283 75.8078 799.283 78.8798C799.283 81.5038 798.259 83.6798 796.211 85.4078C794.227 87.1358 791.955 87.9998 789.395 87.9998C787.923 87.9998 786.579 87.7758 785.363 87.3278C784.147 86.8798 782.835 86.1118 781.427 85.0238C780.211 84.0638 779.059 82.7518 777.971 81.0878C776.883 79.4238 776.019 77.6958 775.379 75.9038C773.267 75.6478 771.155 75.1038 769.043 74.2718C769.427 76.3198 769.619 77.8878 769.619 78.9758C769.619 85.0558 766.451 88.0958 760.115 88.0958C754.803 88.0958 751.059 84.9918 748.883 78.7838C746.707 72.5758 745.619 64.9918 745.619 56.0318C745.619 49.9518 746.707 44.2558 748.883 38.9438C751.123 33.5678 754.515 29.2478 759.059 25.9838C763.603 22.6558 769.139 20.9918 775.667 20.9918C780.915 20.9918 785.683 22.1118 789.971 24.3518C794.259 26.5278 797.651 29.6638 800.147 33.7598C802.707 37.8558 803.987 42.5918 803.987 47.9678ZM768.083 52.4798C768.083 54.6558 768.947 56.5758 770.675 58.2398C772.403 59.8398 774.387 60.6398 776.627 60.6398C778.931 60.6398 780.915 59.8398 782.579 58.2398C784.307 56.5758 785.171 54.6558 785.171 52.4798C785.171 50.2398 784.307 48.3198 782.579 46.7198C780.915 45.0558 778.931 44.2238 776.627 44.2238C774.387 44.2238 772.403 45.0558 770.675 46.7198C768.947 48.3838 768.083 50.3038 768.083 52.4798Z"/>
<path d="M835.129 70.6238C838.393 71.0078 840.921 71.8398 842.713 73.1198C844.569 74.3358 845.497 76.2878 845.497 78.9758C845.497 81.6638 844.537 83.6478 842.617 84.9278C840.761 86.2078 838.521 87.0078 835.897 87.3278C833.273 87.5838 829.881 87.7118 825.721 87.7118C821.625 87.7118 818.265 87.5838 815.641 87.3278C813.017 87.0078 810.777 86.2078 808.921 84.9278C807.065 83.6478 806.137 81.6638 806.137 78.9758C806.137 76.3518 807.001 74.4318 808.729 73.2158C810.521 71.9358 812.953 71.0718 816.025 70.6238C815.705 66.9118 815.545 61.5998 815.545 54.6878C815.545 48.4798 815.673 43.4878 815.929 39.7118C812.217 39.3278 809.305 38.4318 807.193 37.0238C805.081 35.6158 804.025 33.4078 804.025 30.3998C804.025 27.4558 805.049 25.2798 807.097 23.8718C809.145 22.4638 811.609 21.5998 814.489 21.2798C817.369 20.9598 821.081 20.7998 825.625 20.7998C830.169 20.7998 833.881 20.9598 836.761 21.2798C839.641 21.5998 842.105 22.4638 844.153 23.8718C846.265 25.2798 847.321 27.4558 847.321 30.3998C847.321 33.4078 846.233 35.6158 844.057 37.0238C841.945 38.4318 839.001 39.3278 835.225 39.7118C835.545 43.2318 835.705 48.2238 835.705 54.6878C835.705 60.8958 835.513 66.2078 835.129 70.6238Z"/>
<path d="M877.22 87.9998C868.964 87.9998 862.948 87.0078 859.172 85.0238C855.396 83.0398 852.964 79.8718 851.876 75.5198C850.788 71.1678 850.244 64.3838 850.244 55.1678C850.244 45.8238 850.756 38.8798 851.78 34.3358C852.868 29.7278 855.268 26.3358 858.98 24.1598C862.756 21.9198 868.74 20.7998 876.932 20.7998C881.86 20.7998 886.884 21.9518 892.004 24.2558C897.124 26.4958 901.444 30.2078 904.964 35.3918C908.484 40.5758 910.244 47.1998 910.244 55.2638C910.244 63.0078 908.452 69.3438 904.868 74.2718C901.284 79.1358 896.964 82.6558 891.908 84.8318C886.852 86.9438 881.956 87.9998 877.22 87.9998ZM871.268 71.1038C873.316 71.3598 874.788 71.4878 875.684 71.4878C880.228 71.4878 883.748 70.2718 886.244 67.8398C888.74 65.4078 889.988 62.0478 889.988 57.7598C889.988 53.9198 888.772 50.9438 886.34 48.8318C883.908 46.6558 880.484 45.5678 876.068 45.5678C874.404 45.5678 872.804 45.6958 871.268 45.9518V71.1038Z"/>
<path d="M948.743 87.9038C941.448 87.9038 935.207 86.6238 930.023 84.0638C924.839 81.5038 920.871 77.8558 918.119 73.1198C915.431 68.3198 914.087 62.6558 914.087 56.1278C914.087 48.3198 915.719 41.7598 918.983 36.4478C922.311 31.1358 926.6 27.1998 931.848 24.6398C937.096 22.0798 942.599 20.7998 948.359 20.7998C953.479 20.7998 957.991 21.5678 961.895 23.1038C965.799 24.6398 968.808 26.6558 970.92 29.1518C973.032 31.6478 974.087 34.2718 974.087 37.0238C974.087 40.9918 973.063 43.8398 971.015 45.5678C968.967 47.2318 966.439 48.0638 963.431 48.0638C962.023 48.0638 960.775 47.9358 959.687 47.6798C958.663 47.4238 957.575 47.0718 956.423 46.6238C955.143 46.1758 953.991 45.8558 952.967 45.6638C952.007 45.4078 950.791 45.2798 949.319 45.2798C945.095 45.2798 941.767 46.5598 939.335 49.1198C936.903 51.6158 935.687 55.1678 935.687 59.7758C935.687 63.6798 936.871 66.6878 939.239 68.7998C941.607 70.9118 944.552 71.9678 948.072 71.9678C950.056 71.9678 951.784 71.7118 953.256 71.1998C954.728 70.6878 955.848 70.1118 956.616 69.4718C957.384 68.8318 957.767 68.3198 957.767 67.9358C953.095 67.9358 949.543 67.3918 947.111 66.3038C944.679 65.2158 943.463 63.3278 943.463 60.6398C943.463 57.9518 944.391 55.8718 946.247 54.3998C948.103 52.8638 951.239 52.0958 955.655 52.0958C960.199 52.0958 963.751 52.6398 966.311 53.7278C968.871 54.7518 970.695 56.3838 971.783 58.6238C972.871 60.7998 973.415 63.7118 973.415 67.3598C973.415 71.0718 972.296 74.4958 970.056 77.6318C967.88 80.7678 964.871 83.2638 961.031 85.1198C957.255 86.9758 953.16 87.9038 948.743 87.9038Z"/>
<path d="M1024.9 72.6398C1027.97 73.5998 1029.51 75.6158 1029.51 78.6878C1029.51 81.5678 1028.03 83.8398 1025.09 85.5038C1022.15 87.1678 1017.06 87.9998 1009.83 87.9998C1000.8 87.9998 993.058 85.8238 986.594 81.4718C980.194 77.1198 976.994 68.4798 976.994 55.5518C976.994 49.0238 978.114 43.1358 980.354 37.8878C982.594 32.6398 985.922 28.4798 990.338 25.4078C994.818 22.3358 1000.29 20.7998 1006.75 20.7998C1015.39 20.7998 1021.47 22.1438 1024.99 24.8318C1028.51 27.4558 1030.27 30.6878 1030.27 34.5278C1030.27 36.3198 1029.83 37.9838 1028.93 39.5198C1028.03 40.9918 1026.69 42.1438 1024.9 42.9758C1023.36 43.7438 1021.38 44.1278 1018.95 44.1278L1016.35 44.0318C1015.84 43.9678 1015.11 43.9358 1014.15 43.9358C1010.82 43.9358 1008.19 44.5438 1006.27 45.7598C1004.35 46.9118 1003.04 48.7038 1002.34 51.1358C1005.03 51.0078 1007.46 50.9438 1009.63 50.9438C1016.1 50.9438 1020.29 51.1358 1022.21 51.5198C1024.39 51.9678 1026.05 52.8318 1027.2 54.1118C1028.42 55.3918 1029.03 56.8958 1029.03 58.6238C1029.03 60.3518 1028.45 61.8558 1027.3 63.1358C1026.15 64.3518 1024.42 65.1838 1022.11 65.6318C1020.32 66.0158 1015.97 66.2078 1009.06 66.2078C1006.24 66.2078 1004.26 66.1758 1003.11 66.1118C1005.09 70.3358 1008.8 72.4478 1014.24 72.4478C1014.56 72.4478 1015.3 72.3838 1016.45 72.2558C1017.99 72.1278 1019.3 72.0638 1020.39 72.0638C1022.24 72.0638 1023.75 72.2558 1024.9 72.6398Z"/>
<path d="M1131.77 35.1038C1131.77 39.3278 1130.01 42.3998 1126.49 44.3198C1123.04 46.1758 1117.37 47.2958 1109.5 47.6798C1109.76 50.7518 1109.88 54.7198 1109.88 59.5838C1109.88 66.3678 1109.5 71.8078 1108.73 75.9038C1108.03 79.9358 1106.78 82.9438 1104.99 84.9278C1103.2 86.8478 1100.7 87.8078 1097.5 87.8078C1094.36 87.8078 1091.96 86.7838 1090.3 84.7358C1088.64 82.6878 1087.48 79.6478 1086.84 75.6158C1086.2 71.5838 1085.88 66.2398 1085.88 59.5838C1085.88 55.1038 1085.98 51.1358 1086.17 47.6798C1080.86 47.4238 1076.57 46.8798 1073.31 46.0478C1070.11 45.1518 1067.74 43.8398 1066.2 42.1118C1064.67 40.3838 1063.9 38.0478 1063.9 35.1038C1063.9 31.5198 1065.12 28.7038 1067.55 26.6558C1069.98 24.6078 1073.63 23.1678 1078.49 22.3358C1083.36 21.5038 1089.72 21.0878 1097.6 21.0878C1105.53 21.0878 1111.96 21.5038 1116.89 22.3358C1121.82 23.1678 1125.53 24.6078 1128.03 26.6558C1130.52 28.7038 1131.77 31.5198 1131.77 35.1038Z"/>
<path d="M1144.78 88.1918C1140.49 88.1918 1137.04 86.1118 1134.41 81.9518C1131.85 77.7278 1130.35 72.0318 1129.9 64.8638C1129.84 63.8398 1129.81 62.3358 1129.81 60.3518C1129.81 52.6078 1131.09 45.7598 1133.65 39.8078C1136.21 33.7918 1139.82 29.1518 1144.49 25.8878C1149.23 22.5598 1154.73 20.8958 1161.01 20.8958C1167.28 20.8958 1172.75 22.5598 1177.42 25.8878C1182.16 29.1518 1185.77 33.7598 1188.27 39.7118C1190.83 45.6638 1192.11 52.5438 1192.11 60.3518C1192.11 62.3358 1192.08 63.8398 1192.01 64.8638C1191.57 72.1598 1190.06 77.8558 1187.5 81.9518C1184.94 86.0478 1181.49 88.0958 1177.13 88.0958C1173.61 88.0958 1171.15 87.1358 1169.74 85.2158C1168.4 83.2958 1167.73 80.9598 1167.73 78.2078C1167.73 76.9278 1167.82 75.8078 1168.01 74.8478C1164.69 74.9758 1161.74 75.0398 1159.18 75.0398C1157.58 75.0398 1155.82 74.9758 1153.9 74.8478C1154.09 75.8078 1154.19 76.9278 1154.19 78.2078C1154.19 81.0238 1153.49 83.3918 1152.08 85.3118C1150.73 87.2318 1148.3 88.1918 1144.78 88.1918ZM1153.23 57.7598C1156.69 57.6318 1159.21 57.5678 1160.81 57.5678C1162.54 57.5678 1165.07 57.6318 1168.4 57.7598C1168.53 57.0558 1168.59 55.9998 1168.59 54.5918C1168.59 51.5838 1167.95 49.1518 1166.67 47.2958C1165.39 45.3758 1163.41 44.4158 1160.72 44.4158C1158.09 44.4158 1156.14 45.3438 1154.86 47.1998C1153.58 49.0558 1152.94 51.4558 1152.94 54.3998C1152.94 55.4878 1153.04 56.6078 1153.23 57.7598Z"/>
<path d="M1223.62 87.9998C1217.16 87.9998 1211.68 86.6878 1207.2 84.0638C1202.72 81.3758 1199.78 77.3758 1198.37 72.0638C1197.8 69.8878 1197.41 67.2318 1197.22 64.0958C1197.03 60.9598 1196.93 56.9598 1196.93 52.0958C1196.93 42.5598 1197.96 34.9758 1200 29.3438C1202.12 23.6478 1206.28 20.7998 1212.48 20.7998C1216.32 20.7998 1219.33 22.1438 1221.51 24.8318C1223.75 27.5198 1224.87 30.8478 1224.87 34.8158C1224.87 39.0398 1224.52 43.5518 1223.81 48.3518C1223.11 53.1518 1222.12 58.9758 1220.84 65.8238C1224.8 64.5438 1229.16 63.9038 1233.89 63.9038C1238.82 63.9038 1242.92 64.7998 1246.18 66.5918C1249.51 68.3838 1251.17 71.2958 1251.17 75.3278C1251.17 79.2318 1249.89 82.1118 1247.33 83.9678C1244.77 85.8238 1241.67 86.9758 1238.02 87.4238C1234.37 87.8078 1229.57 87.9998 1223.62 87.9998Z"/>
<path d="M1289.93 55.0718C1295.62 57.6958 1300.45 60.8638 1304.42 64.5758C1308.45 68.2878 1310.47 72.3198 1310.47 76.6718C1310.47 80.5118 1309.41 83.3598 1307.3 85.2158C1305.19 87.0718 1302.6 87.9998 1299.53 87.9998C1295.11 87.9998 1290.95 85.9838 1287.05 81.9518C1283.21 77.8558 1279.49 72.5118 1275.91 65.9198C1275.91 70.4638 1275.65 74.2718 1275.14 77.3438C1274.69 80.4158 1273.67 82.9758 1272.07 85.0238C1270.47 87.0078 1268.07 87.9998 1264.87 87.9998C1261.54 87.9998 1259.08 86.7518 1257.48 84.2558C1255.94 81.7598 1254.98 78.7518 1254.6 75.2318C1254.28 71.7118 1254.12 67.1038 1254.12 61.4078C1254.12 57.3758 1254.15 52.6078 1254.21 47.1038C1254.34 41.5358 1254.47 38.0798 1254.6 36.7358C1254.73 31.9358 1255.72 28.0958 1257.57 25.2158C1259.43 22.2718 1262.05 20.7998 1265.45 20.7998C1269.35 20.7998 1272.07 22.4638 1273.61 25.7918C1275.21 29.1198 1276.01 34.2078 1276.01 41.0558V43.9358C1279.27 38.0478 1283.05 32.7678 1287.33 28.0958C1291.62 23.4238 1295.91 21.0878 1300.2 21.0878C1303.21 21.0878 1305.67 22.2398 1307.59 24.5438C1309.57 26.7838 1310.57 29.5678 1310.57 32.8958C1310.57 37.3758 1308.65 41.6638 1304.81 45.7598C1301.03 49.7918 1296.07 52.8958 1289.93 55.0718Z"/>
<path d="M1319.47 25.3118C1321.32 22.3038 1324.43 20.7998 1328.78 20.7998C1332.94 20.7998 1335.95 22.2398 1337.8 25.1198C1339.72 27.9998 1340.68 31.4878 1340.68 35.5838C1340.68 38.9758 1340.36 42.7518 1339.72 46.9118C1339.08 51.0078 1338.19 54.6878 1337.03 57.9518C1336.46 59.5518 1335.47 60.9598 1334.06 62.1758C1332.71 63.3278 1330.95 63.9038 1328.78 63.9038C1326.6 63.9038 1324.81 63.3278 1323.4 62.1758C1321.99 60.9598 1321 59.5518 1320.43 57.9518C1319.27 54.7518 1318.38 51.1678 1317.74 47.1998C1317.1 43.1678 1316.78 39.5198 1316.78 36.2558C1316.78 31.9038 1317.67 28.2558 1319.47 25.3118ZM1335.69 84.5438C1333.71 86.5278 1331.37 87.5198 1328.68 87.5198C1325.99 87.5198 1323.66 86.5278 1321.67 84.5438C1319.69 82.5598 1318.7 80.2238 1318.7 77.5358C1318.7 74.8478 1319.69 72.5118 1321.67 70.5278C1323.66 68.5438 1325.99 67.5518 1328.68 67.5518C1331.37 67.5518 1333.71 68.5438 1335.69 70.5278C1337.67 72.5118 1338.67 74.8478 1338.67 77.5358C1338.67 80.2238 1337.67 82.5598 1335.69 84.5438Z"/>
</mask>
<path d="M50.1167 87.9998C44.9967 87.9998 40.5167 86.5918 36.6767 83.7758C32.9007 80.9598 29.9887 76.9598 27.9407 71.7758C25.8927 66.5918 24.8687 60.4798 24.8687 53.4398C24.8687 49.3438 25.5407 44.9598 26.8847 40.2878C28.2927 35.6158 30.2767 31.6798 32.8367 28.4798C35.4607 25.2158 38.5007 23.5838 41.9567 23.5838C44.7727 23.5838 47.1087 24.6078 48.9647 26.6558C50.8207 28.7038 51.7487 31.2318 51.7487 34.2398C51.7487 35.1358 51.5247 36.3518 51.0767 37.8878C50.6927 39.3598 50.2447 40.8958 49.7327 42.4958C48.7727 45.2478 48.0367 47.6798 47.5247 49.7918C47.0127 51.8398 46.7567 53.8238 46.7567 55.7438C46.7567 58.5598 47.1727 60.6078 48.0047 61.8878C48.8367 63.1678 49.8607 63.8078 51.0767 63.8078C52.6767 63.8078 53.7967 63.0078 54.4367 61.4078C55.1407 59.7438 55.4927 56.7038 55.4927 52.2878L55.3967 45.6638C55.3967 40.5438 56.0687 36.4798 57.4127 33.4718C58.7567 30.3998 61.4447 28.8638 65.4767 28.8638C68.4847 28.8638 70.7567 29.6958 72.2927 31.3598C73.8287 33.0238 74.8207 35.1358 75.2687 37.6958C75.7167 40.1918 75.9407 43.2318 75.9407 46.8158V51.7118C75.9407 56.3838 76.3247 59.7118 77.0927 61.6958C77.9247 63.6158 79.2367 64.5758 81.0287 64.5758C82.2447 64.5758 83.1727 63.9678 83.8127 62.7518C84.5167 61.4718 84.8687 59.5838 84.8687 57.0878C84.8687 55.2318 84.6447 53.3758 84.1967 51.5198C83.7487 49.6638 83.0447 47.2958 82.0847 44.4158C81.2527 41.6638 80.6447 39.6158 80.2607 38.2718C79.9407 36.8638 79.7807 35.5198 79.7807 34.2398C79.7807 31.2318 80.7407 28.7358 82.6607 26.7518C84.6447 24.7678 86.9487 23.7758 89.5727 23.7758C93.3487 23.7758 96.5167 25.3758 99.0767 28.5758C101.701 31.7118 103.653 35.5838 104.933 40.1918C106.213 44.7998 106.853 49.2158 106.853 53.4398C106.853 60.4798 105.829 66.5918 103.781 71.7758C101.733 76.9598 98.7887 80.9598 94.9487 83.7758C91.1727 86.5278 86.7247 87.9038 81.6047 87.9038C78.7887 87.9038 76.0367 87.2638 73.3487 85.9838C70.6607 84.7038 68.1647 82.7838 65.8607 80.2238C63.5567 82.7838 61.0287 84.7358 58.2767 86.0798C55.5887 87.3598 52.8687 87.9998 50.1167 87.9998Z" fill="white"/>
<path d="M158.648 72.6398C161.72 73.5998 163.256 75.6158 163.256 78.6878C163.256 81.5678 161.784 83.8398 158.84 85.5038C155.896 87.1678 150.808 87.9998 143.576 87.9998C134.552 87.9998 126.808 85.8238 120.344 81.4718C113.944 77.1198 110.744 68.4798 110.744 55.5518C110.744 49.0238 111.864 43.1358 114.104 37.8878C116.344 32.6398 119.672 28.4798 124.088 25.4078C128.568 22.3358 134.04 20.7998 140.504 20.7998C149.144 20.7998 155.224 22.1438 158.744 24.8318C162.264 27.4558 164.024 30.6878 164.024 34.5278C164.024 36.3198 163.576 37.9838 162.68 39.5198C161.784 40.9918 160.44 42.1438 158.648 42.9758C157.112 43.7438 155.128 44.1278 152.696 44.1278L150.104 44.0318C149.592 43.9678 148.856 43.9358 147.896 43.9358C144.568 43.9358 141.944 44.5438 140.024 45.7598C138.104 46.9118 136.792 48.7038 136.088 51.1358C138.776 51.0078 141.208 50.9438 143.384 50.9438C149.848 50.9438 154.04 51.1358 155.96 51.5198C158.136 51.9678 159.8 52.8318 160.952 54.1118C162.168 55.3918 162.776 56.8958 162.776 58.6238C162.776 60.3518 162.2 61.8558 161.048 63.1358C159.896 64.3518 158.168 65.1838 155.864 65.6318C154.072 66.0158 149.72 66.2078 142.808 66.2078C139.992 66.2078 138.008 66.1758 136.856 66.1118C138.84 70.3358 142.552 72.4478 147.992 72.4478C148.312 72.4478 149.048 72.3838 150.2 72.2558C151.736 72.1278 153.048 72.0638 154.136 72.0638C155.992 72.0638 157.496 72.2558 158.648 72.6398Z" fill="white"/>
<path d="M195.557 87.9998C189.093 87.9998 183.621 86.6878 179.141 84.0638C174.661 81.3758 171.717 77.3758 170.309 72.0638C169.733 69.8878 169.349 67.2318 169.157 64.0958C168.965 60.9598 168.869 56.9598 168.869 52.0958C168.869 42.5598 169.893 34.9758 171.941 29.3438C174.053 23.6478 178.213 20.7998 184.421 20.7998C188.261 20.7998 191.269 22.1438 193.445 24.8318C195.685 27.5198 196.805 30.8478 196.805 34.8158C196.805 39.0398 196.453 43.5518 195.749 48.3518C195.045 53.1518 194.053 58.9758 192.773 65.8238C196.741 64.5438 201.093 63.9038 205.829 63.9038C210.757 63.9038 214.853 64.7998 218.117 66.5918C221.445 68.3838 223.109 71.2958 223.109 75.3278C223.109 79.2318 221.829 82.1118 219.269 83.9678C216.709 85.8238 213.605 86.9758 209.957 87.4238C206.309 87.8078 201.509 87.9998 195.557 87.9998Z" fill="white"/>
<path d="M256.078 87.8078C249.806 87.8078 244.174 86.5598 239.182 84.0638C234.254 81.5038 230.35 77.7278 227.47 72.7358C224.59 67.6798 223.15 61.5038 223.15 54.2078C223.15 48.3198 224.494 42.8158 227.182 37.6958C229.87 32.5758 233.582 28.4798 238.318 25.4078C243.054 22.3358 248.366 20.7998 254.254 20.7998C259.822 20.7998 264.782 21.8558 269.134 23.9678C273.486 26.0158 276.846 28.8318 279.214 32.4158C281.646 35.9998 282.862 39.9998 282.862 44.4158C282.862 47.2318 282.03 49.6638 280.366 51.7118C278.766 53.7598 276.462 54.7838 273.454 54.7838C271.214 54.7838 269.486 54.3998 268.27 53.6318C267.054 52.8638 265.774 51.6798 264.43 50.0798C263.086 48.4798 261.774 47.2958 260.494 46.5278C259.278 45.6958 257.486 45.2798 255.118 45.2798C252.11 45.2798 249.518 46.4318 247.342 48.7358C245.23 50.9758 244.174 53.7278 244.174 56.9918C244.174 60.5118 245.07 63.4878 246.862 65.9198C248.718 68.2878 251.214 69.4718 254.35 69.4718C256.782 69.4718 258.702 69.1198 260.11 68.4158C261.582 67.7118 263.118 66.6878 264.718 65.3438C266.062 64.1918 267.278 63.3278 268.366 62.7518C269.518 62.1758 270.926 61.8878 272.59 61.8878C275.15 61.8878 277.166 62.6878 278.638 64.2878C280.11 65.8238 280.846 67.8398 280.846 70.3358C280.846 73.2798 279.758 76.0958 277.582 78.7838C275.47 81.4718 272.526 83.6478 268.75 85.3118C264.974 86.9758 260.75 87.8078 256.078 87.8078Z" fill="white"/>
<path d="M318.511 88.0958C312.687 88.1598 307.279 86.7198 302.287 83.7758C297.359 80.8318 293.391 76.7998 290.383 71.6798C287.439 66.4958 285.903 60.7678 285.775 54.4958C285.711 48.4798 287.119 42.9118 289.999 37.7918C292.879 32.6718 296.847 28.6078 301.903 25.5998C306.959 22.5278 312.495 20.9918 318.511 20.9918C324.399 20.9278 329.839 22.3998 334.831 25.4078C339.887 28.4158 343.887 32.5438 346.831 37.7918C349.775 43.0398 351.247 48.8318 351.247 55.1678C351.247 61.1198 349.775 66.5918 346.831 71.5838C343.887 76.5758 339.887 80.5438 334.831 83.4878C329.839 86.4318 324.399 87.9678 318.511 88.0958ZM318.799 69.3758C321.743 69.3758 324.239 68.3198 326.287 66.2078C328.399 64.0958 329.423 61.3438 329.359 57.9518C329.359 54.4958 328.335 51.7118 326.287 49.5998C324.239 47.4878 321.743 46.4318 318.799 46.4318C315.855 46.4318 313.359 47.4878 311.311 49.5998C309.263 51.7118 308.239 54.4958 308.239 57.9518C308.239 61.3438 309.263 64.0958 311.311 66.2078C313.359 68.3198 315.855 69.3758 318.799 69.3758Z" fill="white"/>
<path d="M391.365 87.9998C389.189 87.9998 387.364 87.4558 385.892 86.3678C384.484 85.2158 383.493 83.6798 382.917 81.7598C382.405 79.9678 382.084 78.0158 381.956 75.9038C381.892 73.7918 381.861 70.8158 381.861 66.9758C381.861 63.3918 381.7 60.7358 381.38 59.0078C381.124 57.2798 380.453 56.4158 379.365 56.4158C378.085 56.4158 377.188 56.9918 376.676 58.1438C376.164 59.2318 375.909 60.7998 375.909 62.8478C375.909 64.7038 376.164 67.6158 376.676 71.5838C376.74 72.3518 376.868 73.5678 377.06 75.2318C377.252 76.8958 377.348 78.2718 377.348 79.3598C377.348 82.4318 376.644 84.6078 375.236 85.8878C373.892 87.1678 371.908 87.8078 369.284 87.8078C366.148 87.8078 363.428 86.1118 361.124 82.7198C358.82 79.3278 357.092 75.1038 355.94 70.0478C354.788 64.9278 354.212 59.9038 354.212 54.9758C354.212 49.0878 355.044 43.6158 356.708 38.5598C358.436 33.5038 360.996 29.4398 364.388 26.3678C367.844 23.2958 372.004 21.7598 376.868 21.7598C380.965 21.7598 384.228 23.0398 386.66 25.5998C389.092 28.0958 390.724 31.1358 391.556 34.7198C392.26 31.1998 393.828 28.1598 396.26 25.5998C398.756 23.0398 402.02 21.7598 406.052 21.7598C410.852 21.7598 414.948 23.2638 418.34 26.2718C421.796 29.2158 424.42 33.3438 426.212 38.6558C428.068 43.9678 428.996 50.1118 428.996 57.0878C428.996 61.6318 428.357 66.3358 427.077 71.1998C425.797 75.9998 424.005 79.9998 421.701 83.1998C419.396 86.3998 416.772 87.9998 413.828 87.9998C411.14 87.9998 409.093 87.3278 407.685 85.9838C406.277 84.6398 405.572 82.4318 405.572 79.3598C405.572 77.9518 405.828 75.3278 406.34 71.4878C406.852 67.3918 407.108 64.4478 407.108 62.6558C407.108 58.4958 405.989 56.4158 403.749 56.4158C402.597 56.4158 401.86 57.3438 401.54 59.1998C401.284 61.0558 401.124 64.0638 401.06 68.2238C401.06 71.3598 400.996 73.9838 400.868 76.0958C400.74 78.1438 400.452 80.0318 400.004 81.7598C399.492 83.6158 398.468 85.1198 396.932 86.2718C395.46 87.4238 393.605 87.9998 391.365 87.9998Z" fill="white"/>
<path d="M479.835 72.6398C482.907 73.5998 484.443 75.6158 484.443 78.6878C484.443 81.5678 482.971 83.8398 480.027 85.5038C477.083 87.1678 471.995 87.9998 464.763 87.9998C455.739 87.9998 447.995 85.8238 441.531 81.4718C435.131 77.1198 431.931 68.4798 431.931 55.5518C431.931 49.0238 433.051 43.1358 435.291 37.8878C437.531 32.6398 440.859 28.4798 445.275 25.4078C449.755 22.3358 455.227 20.7998 461.691 20.7998C470.331 20.7998 476.411 22.1438 479.931 24.8318C483.451 27.4558 485.211 30.6878 485.211 34.5278C485.211 36.3198 484.763 37.9838 483.867 39.5198C482.971 40.9918 481.627 42.1438 479.835 42.9758C478.299 43.7438 476.315 44.1278 473.883 44.1278L471.291 44.0318C470.779 43.9678 470.043 43.9358 469.083 43.9358C465.755 43.9358 463.131 44.5438 461.211 45.7598C459.291 46.9118 457.979 48.7038 457.275 51.1358C459.963 51.0078 462.395 50.9438 464.571 50.9438C471.035 50.9438 475.227 51.1358 477.147 51.5198C479.323 51.9678 480.987 52.8318 482.139 54.1118C483.355 55.3918 483.963 56.8958 483.963 58.6238C483.963 60.3518 483.387 61.8558 482.235 63.1358C481.083 64.3518 479.355 65.1838 477.051 65.6318C475.259 66.0158 470.907 66.2078 463.995 66.2078C461.179 66.2078 459.195 66.1758 458.043 66.1118C460.027 70.3358 463.739 72.4478 469.179 72.4478C469.499 72.4478 470.235 72.3838 471.387 72.2558C472.923 72.1278 474.235 72.0638 475.323 72.0638C477.179 72.0638 478.683 72.2558 479.835 72.6398Z" fill="white"/>
<path d="M586.71 35.1038C586.71 39.3278 584.949 42.3998 581.429 44.3198C577.973 46.1758 572.309 47.2958 564.437 47.6798C564.693 50.7518 564.822 54.7198 564.822 59.5838C564.822 66.3678 564.438 71.8078 563.67 75.9038C562.966 79.9358 561.718 82.9438 559.926 84.9278C558.134 86.8478 555.637 87.8078 552.437 87.8078C549.301 87.8078 546.902 86.7838 545.238 84.7358C543.574 82.6878 542.421 79.6478 541.781 75.6158C541.141 71.5838 540.822 66.2398 540.822 59.5838C540.822 55.1038 540.917 51.1358 541.109 47.6798C535.797 47.4238 531.509 46.8798 528.245 46.0478C525.045 45.1518 522.677 43.8398 521.141 42.1118C519.605 40.3838 518.837 38.0478 518.837 35.1038C518.837 31.5198 520.054 28.7038 522.486 26.6558C524.918 24.6078 528.566 23.1678 533.43 22.3358C538.294 21.5038 544.661 21.0878 552.533 21.0878C560.469 21.0878 566.901 21.5038 571.829 22.3358C576.757 23.1678 580.469 24.6078 582.965 26.6558C585.461 28.7038 586.71 31.5198 586.71 35.1038Z" fill="white"/>
<path d="M618.511 88.0958C612.687 88.1598 607.279 86.7198 602.287 83.7758C597.359 80.8318 593.391 76.7998 590.383 71.6798C587.439 66.4958 585.903 60.7678 585.775 54.4958C585.711 48.4798 587.119 42.9118 589.999 37.7918C592.879 32.6718 596.847 28.6078 601.903 25.5998C606.959 22.5278 612.495 20.9918 618.511 20.9918C624.399 20.9278 629.839 22.3998 634.831 25.4078C639.887 28.4158 643.887 32.5438 646.831 37.7918C649.775 43.0398 651.247 48.8318 651.247 55.1678C651.247 61.1198 649.775 66.5918 646.831 71.5838C643.887 76.5758 639.887 80.5438 634.831 83.4878C629.839 86.4318 624.399 87.9678 618.511 88.0958ZM618.799 69.3758C621.743 69.3758 624.239 68.3198 626.287 66.2078C628.399 64.0958 629.423 61.3438 629.359 57.9518C629.359 54.4958 628.335 51.7118 626.287 49.5998C624.239 47.4878 621.743 46.4318 618.799 46.4318C615.855 46.4318 613.359 47.4878 611.311 49.5998C609.263 51.7118 608.239 54.4958 608.239 57.9518C608.239 61.3438 609.263 64.0958 611.311 66.2078C613.359 68.3198 615.855 69.3758 618.799 69.3758Z" fill="white"/>
<path d="M716.645 87.9038C706.021 87.8398 698.053 85.2158 692.741 80.0318C687.493 74.8478 684.869 66.4318 684.869 54.7838C684.869 44.2238 687.429 35.9358 692.549 29.9198C697.669 23.8398 704.901 20.7998 714.245 20.7998C720.005 20.7998 725.029 21.6638 729.317 23.3918C733.605 25.1198 736.901 27.5838 739.205 30.7838C741.509 33.9838 742.661 37.7598 742.661 42.1118C742.661 45.5678 741.893 48.6398 740.357 51.3278C738.885 54.0158 736.677 56.4158 733.733 58.5278C736.101 58.9118 738.149 60.1918 739.877 62.3678C741.669 64.5438 742.565 67.0718 742.565 69.9518C742.565 73.0238 741.733 75.9358 740.069 78.6878C738.469 81.3758 735.717 83.5838 731.813 85.3118C727.973 87.0398 722.917 87.9038 716.645 87.9038ZM710.021 52.0958C711.173 52.6718 712.613 52.9598 714.341 52.9598C716.389 52.9598 718.149 52.4798 719.621 51.5198C721.157 50.4958 721.925 48.9918 721.925 47.0078C721.925 45.0878 721.157 43.6478 719.621 42.6878C718.149 41.6638 716.357 41.1518 714.245 41.1518C712.581 41.1518 711.173 41.4398 710.021 42.0158C709.125 42.3998 708.453 43.0718 708.005 44.0318C707.557 44.9918 707.333 46.0158 707.333 47.1038C707.333 48.1918 707.557 49.2158 708.005 50.1758C708.453 51.0718 709.125 51.7118 710.021 52.0958ZM710.021 74.5598C711.237 75.0718 712.677 75.3278 714.341 75.3278C716.389 75.3278 718.149 74.9118 719.621 74.0798C721.157 73.1838 721.925 71.8718 721.925 70.1438C721.925 68.4798 721.157 67.1998 719.621 66.3038C718.085 65.4078 716.293 64.9598 714.245 64.9598C712.645 64.9598 711.237 65.2158 710.021 65.7278C709.125 66.1118 708.453 66.7198 708.005 67.5518C707.557 68.3198 707.333 69.1838 707.333 70.1438C707.333 71.1038 707.557 71.9998 708.005 72.8318C708.453 73.5998 709.125 74.1758 710.021 74.5598Z" fill="white"/>
<path d="M803.987 47.9678C803.987 52.6398 803.283 56.7678 801.875 60.3518C800.531 63.9358 798.611 66.9438 796.115 69.3758C798.227 72.6398 799.283 75.8078 799.283 78.8798C799.283 81.5038 798.259 83.6798 796.211 85.4078C794.227 87.1358 791.955 87.9998 789.395 87.9998C787.923 87.9998 786.579 87.7758 785.363 87.3278C784.147 86.8798 782.835 86.1118 781.427 85.0238C780.211 84.0638 779.059 82.7518 777.971 81.0878C776.883 79.4238 776.019 77.6958 775.379 75.9038C773.267 75.6478 771.155 75.1038 769.043 74.2718C769.427 76.3198 769.619 77.8878 769.619 78.9758C769.619 85.0558 766.451 88.0958 760.115 88.0958C754.803 88.0958 751.059 84.9918 748.883 78.7838C746.707 72.5758 745.619 64.9918 745.619 56.0318C745.619 49.9518 746.707 44.2558 748.883 38.9438C751.123 33.5678 754.515 29.2478 759.059 25.9838C763.603 22.6558 769.139 20.9918 775.667 20.9918C780.915 20.9918 785.683 22.1118 789.971 24.3518C794.259 26.5278 797.651 29.6638 800.147 33.7598C802.707 37.8558 803.987 42.5918 803.987 47.9678ZM768.083 52.4798C768.083 54.6558 768.947 56.5758 770.675 58.2398C772.403 59.8398 774.387 60.6398 776.627 60.6398C778.931 60.6398 780.915 59.8398 782.579 58.2398C784.307 56.5758 785.171 54.6558 785.171 52.4798C785.171 50.2398 784.307 48.3198 782.579 46.7198C780.915 45.0558 778.931 44.2238 776.627 44.2238C774.387 44.2238 772.403 45.0558 770.675 46.7198C768.947 48.3838 768.083 50.3038 768.083 52.4798Z" fill="white"/>
<path d="M835.129 70.6238C838.393 71.0078 840.921 71.8398 842.713 73.1198C844.569 74.3358 845.497 76.2878 845.497 78.9758C845.497 81.6638 844.537 83.6478 842.617 84.9278C840.761 86.2078 838.521 87.0078 835.897 87.3278C833.273 87.5838 829.881 87.7118 825.721 87.7118C821.625 87.7118 818.265 87.5838 815.641 87.3278C813.017 87.0078 810.777 86.2078 808.921 84.9278C807.065 83.6478 806.137 81.6638 806.137 78.9758C806.137 76.3518 807.001 74.4318 808.729 73.2158C810.521 71.9358 812.953 71.0718 816.025 70.6238C815.705 66.9118 815.545 61.5998 815.545 54.6878C815.545 48.4798 815.673 43.4878 815.929 39.7118C812.217 39.3278 809.305 38.4318 807.193 37.0238C805.081 35.6158 804.025 33.4078 804.025 30.3998C804.025 27.4558 805.049 25.2798 807.097 23.8718C809.145 22.4638 811.609 21.5998 814.489 21.2798C817.369 20.9598 821.081 20.7998 825.625 20.7998C830.169 20.7998 833.881 20.9598 836.761 21.2798C839.641 21.5998 842.105 22.4638 844.153 23.8718C846.265 25.2798 847.321 27.4558 847.321 30.3998C847.321 33.4078 846.233 35.6158 844.057 37.0238C841.945 38.4318 839.001 39.3278 835.225 39.7118C835.545 43.2318 835.705 48.2238 835.705 54.6878C835.705 60.8958 835.513 66.2078 835.129 70.6238Z" fill="white"/>
<path d="M877.22 87.9998C868.964 87.9998 862.948 87.0078 859.172 85.0238C855.396 83.0398 852.964 79.8718 851.876 75.5198C850.788 71.1678 850.244 64.3838 850.244 55.1678C850.244 45.8238 850.756 38.8798 851.78 34.3358C852.868 29.7278 855.268 26.3358 858.98 24.1598C862.756 21.9198 868.74 20.7998 876.932 20.7998C881.86 20.7998 886.884 21.9518 892.004 24.2558C897.124 26.4958 901.444 30.2078 904.964 35.3918C908.484 40.5758 910.244 47.1998 910.244 55.2638C910.244 63.0078 908.452 69.3438 904.868 74.2718C901.284 79.1358 896.964 82.6558 891.908 84.8318C886.852 86.9438 881.956 87.9998 877.22 87.9998ZM871.268 71.1038C873.316 71.3598 874.788 71.4878 875.684 71.4878C880.228 71.4878 883.748 70.2718 886.244 67.8398C888.74 65.4078 889.988 62.0478 889.988 57.7598C889.988 53.9198 888.772 50.9438 886.34 48.8318C883.908 46.6558 880.484 45.5678 876.068 45.5678C874.404 45.5678 872.804 45.6958 871.268 45.9518V71.1038Z" fill="white"/>
<path d="M948.743 87.9038C941.448 87.9038 935.207 86.6238 930.023 84.0638C924.839 81.5038 920.871 77.8558 918.119 73.1198C915.431 68.3198 914.087 62.6558 914.087 56.1278C914.087 48.3198 915.719 41.7598 918.983 36.4478C922.311 31.1358 926.6 27.1998 931.848 24.6398C937.096 22.0798 942.599 20.7998 948.359 20.7998C953.479 20.7998 957.991 21.5678 961.895 23.1038C965.799 24.6398 968.808 26.6558 970.92 29.1518C973.032 31.6478 974.087 34.2718 974.087 37.0238C974.087 40.9918 973.063 43.8398 971.015 45.5678C968.967 47.2318 966.439 48.0638 963.431 48.0638C962.023 48.0638 960.775 47.9358 959.687 47.6798C958.663 47.4238 957.575 47.0718 956.423 46.6238C955.143 46.1758 953.991 45.8558 952.967 45.6638C952.007 45.4078 950.791 45.2798 949.319 45.2798C945.095 45.2798 941.767 46.5598 939.335 49.1198C936.903 51.6158 935.687 55.1678 935.687 59.7758C935.687 63.6798 936.871 66.6878 939.239 68.7998C941.607 70.9118 944.552 71.9678 948.072 71.9678C950.056 71.9678 951.784 71.7118 953.256 71.1998C954.728 70.6878 955.848 70.1118 956.616 69.4718C957.384 68.8318 957.767 68.3198 957.767 67.9358C953.095 67.9358 949.543 67.3918 947.111 66.3038C944.679 65.2158 943.463 63.3278 943.463 60.6398C943.463 57.9518 944.391 55.8718 946.247 54.3998C948.103 52.8638 951.239 52.0958 955.655 52.0958C960.199 52.0958 963.751 52.6398 966.311 53.7278C968.871 54.7518 970.695 56.3838 971.783 58.6238C972.871 60.7998 973.415 63.7118 973.415 67.3598C973.415 71.0718 972.296 74.4958 970.056 77.6318C967.88 80.7678 964.871 83.2638 961.031 85.1198C957.255 86.9758 953.16 87.9038 948.743 87.9038Z" fill="white"/>
<path d="M1024.9 72.6398C1027.97 73.5998 1029.51 75.6158 1029.51 78.6878C1029.51 81.5678 1028.03 83.8398 1025.09 85.5038C1022.15 87.1678 1017.06 87.9998 1009.83 87.9998C1000.8 87.9998 993.058 85.8238 986.594 81.4718C980.194 77.1198 976.994 68.4798 976.994 55.5518C976.994 49.0238 978.114 43.1358 980.354 37.8878C982.594 32.6398 985.922 28.4798 990.338 25.4078C994.818 22.3358 1000.29 20.7998 1006.75 20.7998C1015.39 20.7998 1021.47 22.1438 1024.99 24.8318C1028.51 27.4558 1030.27 30.6878 1030.27 34.5278C1030.27 36.3198 1029.83 37.9838 1028.93 39.5198C1028.03 40.9918 1026.69 42.1438 1024.9 42.9758C1023.36 43.7438 1021.38 44.1278 1018.95 44.1278L1016.35 44.0318C1015.84 43.9678 1015.11 43.9358 1014.15 43.9358C1010.82 43.9358 1008.19 44.5438 1006.27 45.7598C1004.35 46.9118 1003.04 48.7038 1002.34 51.1358C1005.03 51.0078 1007.46 50.9438 1009.63 50.9438C1016.1 50.9438 1020.29 51.1358 1022.21 51.5198C1024.39 51.9678 1026.05 52.8318 1027.2 54.1118C1028.42 55.3918 1029.03 56.8958 1029.03 58.6238C1029.03 60.3518 1028.45 61.8558 1027.3 63.1358C1026.15 64.3518 1024.42 65.1838 1022.11 65.6318C1020.32 66.0158 1015.97 66.2078 1009.06 66.2078C1006.24 66.2078 1004.26 66.1758 1003.11 66.1118C1005.09 70.3358 1008.8 72.4478 1014.24 72.4478C1014.56 72.4478 1015.3 72.3838 1016.45 72.2558C1017.99 72.1278 1019.3 72.0638 1020.39 72.0638C1022.24 72.0638 1023.75 72.2558 1024.9 72.6398Z" fill="white"/>
<path d="M1131.77 35.1038C1131.77 39.3278 1130.01 42.3998 1126.49 44.3198C1123.04 46.1758 1117.37 47.2958 1109.5 47.6798C1109.76 50.7518 1109.88 54.7198 1109.88 59.5838C1109.88 66.3678 1109.5 71.8078 1108.73 75.9038C1108.03 79.9358 1106.78 82.9438 1104.99 84.9278C1103.2 86.8478 1100.7 87.8078 1097.5 87.8078C1094.36 87.8078 1091.96 86.7838 1090.3 84.7358C1088.64 82.6878 1087.48 79.6478 1086.84 75.6158C1086.2 71.5838 1085.88 66.2398 1085.88 59.5838C1085.88 55.1038 1085.98 51.1358 1086.17 47.6798C1080.86 47.4238 1076.57 46.8798 1073.31 46.0478C1070.11 45.1518 1067.74 43.8398 1066.2 42.1118C1064.67 40.3838 1063.9 38.0478 1063.9 35.1038C1063.9 31.5198 1065.12 28.7038 1067.55 26.6558C1069.98 24.6078 1073.63 23.1678 1078.49 22.3358C1083.36 21.5038 1089.72 21.0878 1097.6 21.0878C1105.53 21.0878 1111.96 21.5038 1116.89 22.3358C1121.82 23.1678 1125.53 24.6078 1128.03 26.6558C1130.52 28.7038 1131.77 31.5198 1131.77 35.1038Z" fill="white"/>
<path d="M1144.78 88.1918C1140.49 88.1918 1137.04 86.1118 1134.41 81.9518C1131.85 77.7278 1130.35 72.0318 1129.9 64.8638C1129.84 63.8398 1129.81 62.3358 1129.81 60.3518C1129.81 52.6078 1131.09 45.7598 1133.65 39.8078C1136.21 33.7918 1139.82 29.1518 1144.49 25.8878C1149.23 22.5598 1154.73 20.8958 1161.01 20.8958C1167.28 20.8958 1172.75 22.5598 1177.42 25.8878C1182.16 29.1518 1185.77 33.7598 1188.27 39.7118C1190.83 45.6638 1192.11 52.5438 1192.11 60.3518C1192.11 62.3358 1192.08 63.8398 1192.01 64.8638C1191.57 72.1598 1190.06 77.8558 1187.5 81.9518C1184.94 86.0478 1181.49 88.0958 1177.13 88.0958C1173.61 88.0958 1171.15 87.1358 1169.74 85.2158C1168.4 83.2958 1167.73 80.9598 1167.73 78.2078C1167.73 76.9278 1167.82 75.8078 1168.01 74.8478C1164.69 74.9758 1161.74 75.0398 1159.18 75.0398C1157.58 75.0398 1155.82 74.9758 1153.9 74.8478C1154.09 75.8078 1154.19 76.9278 1154.19 78.2078C1154.19 81.0238 1153.49 83.3918 1152.08 85.3118C1150.73 87.2318 1148.3 88.1918 1144.78 88.1918ZM1153.23 57.7598C1156.69 57.6318 1159.21 57.5678 1160.81 57.5678C1162.54 57.5678 1165.07 57.6318 1168.4 57.7598C1168.53 57.0558 1168.59 55.9998 1168.59 54.5918C1168.59 51.5838 1167.95 49.1518 1166.67 47.2958C1165.39 45.3758 1163.41 44.4158 1160.72 44.4158C1158.09 44.4158 1156.14 45.3438 1154.86 47.1998C1153.58 49.0558 1152.94 51.4558 1152.94 54.3998C1152.94 55.4878 1153.04 56.6078 1153.23 57.7598Z" fill="white"/>
<path d="M1223.62 87.9998C1217.16 87.9998 1211.68 86.6878 1207.2 84.0638C1202.72 81.3758 1199.78 77.3758 1198.37 72.0638C1197.8 69.8878 1197.41 67.2318 1197.22 64.0958C1197.03 60.9598 1196.93 56.9598 1196.93 52.0958C1196.93 42.5598 1197.96 34.9758 1200 29.3438C1202.12 23.6478 1206.28 20.7998 1212.48 20.7998C1216.32 20.7998 1219.33 22.1438 1221.51 24.8318C1223.75 27.5198 1224.87 30.8478 1224.87 34.8158C1224.87 39.0398 1224.52 43.5518 1223.81 48.3518C1223.11 53.1518 1222.12 58.9758 1220.84 65.8238C1224.8 64.5438 1229.16 63.9038 1233.89 63.9038C1238.82 63.9038 1242.92 64.7998 1246.18 66.5918C1249.51 68.3838 1251.17 71.2958 1251.17 75.3278C1251.17 79.2318 1249.89 82.1118 1247.33 83.9678C1244.77 85.8238 1241.67 86.9758 1238.02 87.4238C1234.37 87.8078 1229.57 87.9998 1223.62 87.9998Z" fill="white"/>
<path d="M1289.93 55.0718C1295.62 57.6958 1300.45 60.8638 1304.42 64.5758C1308.45 68.2878 1310.47 72.3198 1310.47 76.6718C1310.47 80.5118 1309.41 83.3598 1307.3 85.2158C1305.19 87.0718 1302.6 87.9998 1299.53 87.9998C1295.11 87.9998 1290.95 85.9838 1287.05 81.9518C1283.21 77.8558 1279.49 72.5118 1275.91 65.9198C1275.91 70.4638 1275.65 74.2718 1275.14 77.3438C1274.69 80.4158 1273.67 82.9758 1272.07 85.0238C1270.47 87.0078 1268.07 87.9998 1264.87 87.9998C1261.54 87.9998 1259.08 86.7518 1257.48 84.2558C1255.94 81.7598 1254.98 78.7518 1254.6 75.2318C1254.28 71.7118 1254.12 67.1038 1254.12 61.4078C1254.12 57.3758 1254.15 52.6078 1254.21 47.1038C1254.34 41.5358 1254.47 38.0798 1254.6 36.7358C1254.73 31.9358 1255.72 28.0958 1257.57 25.2158C1259.43 22.2718 1262.05 20.7998 1265.45 20.7998C1269.35 20.7998 1272.07 22.4638 1273.61 25.7918C1275.21 29.1198 1276.01 34.2078 1276.01 41.0558V43.9358C1279.27 38.0478 1283.05 32.7678 1287.33 28.0958C1291.62 23.4238 1295.91 21.0878 1300.2 21.0878C1303.21 21.0878 1305.67 22.2398 1307.59 24.5438C1309.57 26.7838 1310.57 29.5678 1310.57 32.8958C1310.57 37.3758 1308.65 41.6638 1304.81 45.7598C1301.03 49.7918 1296.07 52.8958 1289.93 55.0718Z" fill="white"/>
<path d="M1319.47 25.3118C1321.32 22.3038 1324.43 20.7998 1328.78 20.7998C1332.94 20.7998 1335.95 22.2398 1337.8 25.1198C1339.72 27.9998 1340.68 31.4878 1340.68 35.5838C1340.68 38.9758 1340.36 42.7518 1339.72 46.9118C1339.08 51.0078 1338.19 54.6878 1337.03 57.9518C1336.46 59.5518 1335.47 60.9598 1334.06 62.1758C1332.71 63.3278 1330.95 63.9038 1328.78 63.9038C1326.6 63.9038 1324.81 63.3278 1323.4 62.1758C1321.99 60.9598 1321 59.5518 1320.43 57.9518C1319.27 54.7518 1318.38 51.1678 1317.74 47.1998C1317.1 43.1678 1316.78 39.5198 1316.78 36.2558C1316.78 31.9038 1317.67 28.2558 1319.47 25.3118ZM1335.69 84.5438C1333.71 86.5278 1331.37 87.5198 1328.68 87.5198C1325.99 87.5198 1323.66 86.5278 1321.67 84.5438C1319.69 82.5598 1318.7 80.2238 1318.7 77.5358C1318.7 74.8478 1319.69 72.5118 1321.67 70.5278C1323.66 68.5438 1325.99 67.5518 1328.68 67.5518C1331.37 67.5518 1333.71 68.5438 1335.69 70.5278C1337.67 72.5118 1338.67 74.8478 1338.67 77.5358C1338.67 80.2238 1337.67 82.5598 1335.69 84.5438Z" fill="white"/>
<path d="M50.1167 87.9998C44.9967 87.9998 40.5167 86.5918 36.6767 83.7758C32.9007 80.9598 29.9887 76.9598 27.9407 71.7758C25.8927 66.5918 24.8687 60.4798 24.8687 53.4398C24.8687 49.3438 25.5407 44.9598 26.8847 40.2878C28.2927 35.6158 30.2767 31.6798 32.8367 28.4798C35.4607 25.2158 38.5007 23.5838 41.9567 23.5838C44.7727 23.5838 47.1087 24.6078 48.9647 26.6558C50.8207 28.7038 51.7487 31.2318 51.7487 34.2398C51.7487 35.1358 51.5247 36.3518 51.0767 37.8878C50.6927 39.3598 50.2447 40.8958 49.7327 42.4958C48.7727 45.2478 48.0367 47.6798 47.5247 49.7918C47.0127 51.8398 46.7567 53.8238 46.7567 55.7438C46.7567 58.5598 47.1727 60.6078 48.0047 61.8878C48.8367 63.1678 49.8607 63.8078 51.0767 63.8078C52.6767 63.8078 53.7967 63.0078 54.4367 61.4078C55.1407 59.7438 55.4927 56.7038 55.4927 52.2878L55.3967 45.6638C55.3967 40.5438 56.0687 36.4798 57.4127 33.4718C58.7567 30.3998 61.4447 28.8638 65.4767 28.8638C68.4847 28.8638 70.7567 29.6958 72.2927 31.3598C73.8287 33.0238 74.8207 35.1358 75.2687 37.6958C75.7167 40.1918 75.9407 43.2318 75.9407 46.8158V51.7118C75.9407 56.3838 76.3247 59.7118 77.0927 61.6958C77.9247 63.6158 79.2367 64.5758 81.0287 64.5758C82.2447 64.5758 83.1727 63.9678 83.8127 62.7518C84.5167 61.4718 84.8687 59.5838 84.8687 57.0878C84.8687 55.2318 84.6447 53.3758 84.1967 51.5198C83.7487 49.6638 83.0447 47.2958 82.0847 44.4158C81.2527 41.6638 80.6447 39.6158 80.2607 38.2718C79.9407 36.8638 79.7807 35.5198 79.7807 34.2398C79.7807 31.2318 80.7407 28.7358 82.6607 26.7518C84.6447 24.7678 86.9487 23.7758 89.5727 23.7758C93.3487 23.7758 96.5167 25.3758 99.0767 28.5758C101.701 31.7118 103.653 35.5838 104.933 40.1918C106.213 44.7998 106.853 49.2158 106.853 53.4398C106.853 60.4798 105.829 66.5918 103.781 71.7758C101.733 76.9598 98.7887 80.9598 94.9487 83.7758C91.1727 86.5278 86.7247 87.9038 81.6047 87.9038C78.7887 87.9038 76.0367 87.2638 73.3487 85.9838C70.6607 84.7038 68.1647 82.7838 65.8607 80.2238C63.5567 82.7838 61.0287 84.7358 58.2767 86.0798C55.5887 87.3598 52.8687 87.9998 50.1167 87.9998Z" stroke="#FF9F99" stroke-width="40" mask="url(#path-1-outside-1_2032_56)"/>
<path d="M158.648 72.6398C161.72 73.5998 163.256 75.6158 163.256 78.6878C163.256 81.5678 161.784 83.8398 158.84 85.5038C155.896 87.1678 150.808 87.9998 143.576 87.9998C134.552 87.9998 126.808 85.8238 120.344 81.4718C113.944 77.1198 110.744 68.4798 110.744 55.5518C110.744 49.0238 111.864 43.1358 114.104 37.8878C116.344 32.6398 119.672 28.4798 124.088 25.4078C128.568 22.3358 134.04 20.7998 140.504 20.7998C149.144 20.7998 155.224 22.1438 158.744 24.8318C162.264 27.4558 164.024 30.6878 164.024 34.5278C164.024 36.3198 163.576 37.9838 162.68 39.5198C161.784 40.9918 160.44 42.1438 158.648 42.9758C157.112 43.7438 155.128 44.1278 152.696 44.1278L150.104 44.0318C149.592 43.9678 148.856 43.9358 147.896 43.9358C144.568 43.9358 141.944 44.5438 140.024 45.7598C138.104 46.9118 136.792 48.7038 136.088 51.1358C138.776 51.0078 141.208 50.9438 143.384 50.9438C149.848 50.9438 154.04 51.1358 155.96 51.5198C158.136 51.9678 159.8 52.8318 160.952 54.1118C162.168 55.3918 162.776 56.8958 162.776 58.6238C162.776 60.3518 162.2 61.8558 161.048 63.1358C159.896 64.3518 158.168 65.1838 155.864 65.6318C154.072 66.0158 149.72 66.2078 142.808 66.2078C139.992 66.2078 138.008 66.1758 136.856 66.1118C138.84 70.3358 142.552 72.4478 147.992 72.4478C148.312 72.4478 149.048 72.3838 150.2 72.2558C151.736 72.1278 153.048 72.0638 154.136 72.0638C155.992 72.0638 157.496 72.2558 158.648 72.6398Z" stroke="#FF9F99" stroke-width="40" mask="url(#path-1-outside-1_2032_56)"/>
<path d="M195.557 87.9998C189.093 87.9998 183.621 86.6878 179.141 84.0638C174.661 81.3758 171.717 77.3758 170.309 72.0638C169.733 69.8878 169.349 67.2318 169.157 64.0958C168.965 60.9598 168.869 56.9598 168.869 52.0958C168.869 42.5598 169.893 34.9758 171.941 29.3438C174.053 23.6478 178.213 20.7998 184.421 20.7998C188.261 20.7998 191.269 22.1438 193.445 24.8318C195.685 27.5198 196.805 30.8478 196.805 34.8158C196.805 39.0398 196.453 43.5518 195.749 48.3518C195.045 53.1518 194.053 58.9758 192.773 65.8238C196.741 64.5438 201.093 63.9038 205.829 63.9038C210.757 63.9038 214.853 64.7998 218.117 66.5918C221.445 68.3838 223.109 71.2958 223.109 75.3278C223.109 79.2318 221.829 82.1118 219.269 83.9678C216.709 85.8238 213.605 86.9758 209.957 87.4238C206.309 87.8078 201.509 87.9998 195.557 87.9998Z" stroke="#FF9F99" stroke-width="40" mask="url(#path-1-outside-1_2032_56)"/>
<path d="M256.078 87.8078C249.806 87.8078 244.174 86.5598 239.182 84.0638C234.254 81.5038 230.35 77.7278 227.47 72.7358C224.59 67.6798 223.15 61.5038 223.15 54.2078C223.15 48.3198 224.494 42.8158 227.182 37.6958C229.87 32.5758 233.582 28.4798 238.318 25.4078C243.054 22.3358 248.366 20.7998 254.254 20.7998C259.822 20.7998 264.782 21.8558 269.134 23.9678C273.486 26.0158 276.846 28.8318 279.214 32.4158C281.646 35.9998 282.862 39.9998 282.862 44.4158C282.862 47.2318 282.03 49.6638 280.366 51.7118C278.766 53.7598 276.462 54.7838 273.454 54.7838C271.214 54.7838 269.486 54.3998 268.27 53.6318C267.054 52.8638 265.774 51.6798 264.43 50.0798C263.086 48.4798 261.774 47.2958 260.494 46.5278C259.278 45.6958 257.486 45.2798 255.118 45.2798C252.11 45.2798 249.518 46.4318 247.342 48.7358C245.23 50.9758 244.174 53.7278 244.174 56.9918C244.174 60.5118 245.07 63.4878 246.862 65.9198C248.718 68.2878 251.214 69.4718 254.35 69.4718C256.782 69.4718 258.702 69.1198 260.11 68.4158C261.582 67.7118 263.118 66.6878 264.718 65.3438C266.062 64.1918 267.278 63.3278 268.366 62.7518C269.518 62.1758 270.926 61.8878 272.59 61.8878C275.15 61.8878 277.166 62.6878 278.638 64.2878C280.11 65.8238 280.846 67.8398 280.846 70.3358C280.846 73.2798 279.758 76.0958 277.582 78.7838C275.47 81.4718 272.526 83.6478 268.75 85.3118C264.974 86.9758 260.75 87.8078 256.078 87.8078Z" stroke="#FF9F99" stroke-width="40" mask="url(#path-1-outside-1_2032_56)"/>
<path d="M318.511 88.0958C312.687 88.1598 307.279 86.7198 302.287 83.7758C297.359 80.8318 293.391 76.7998 290.383 71.6798C287.439 66.4958 285.903 60.7678 285.775 54.4958C285.711 48.4798 287.119 42.9118 289.999 37.7918C292.879 32.6718 296.847 28.6078 301.903 25.5998C306.959 22.5278 312.495 20.9918 318.511 20.9918C324.399 20.9278 329.839 22.3998 334.831 25.4078C339.887 28.4158 343.887 32.5438 346.831 37.7918C349.775 43.0398 351.247 48.8318 351.247 55.1678C351.247 61.1198 349.775 66.5918 346.831 71.5838C343.887 76.5758 339.887 80.5438 334.831 83.4878C329.839 86.4318 324.399 87.9678 318.511 88.0958ZM318.799 69.3758C321.743 69.3758 324.239 68.3198 326.287 66.2078C328.399 64.0958 329.423 61.3438 329.359 57.9518C329.359 54.4958 328.335 51.7118 326.287 49.5998C324.239 47.4878 321.743 46.4318 318.799 46.4318C315.855 46.4318 313.359 47.4878 311.311 49.5998C309.263 51.7118 308.239 54.4958 308.239 57.9518C308.239 61.3438 309.263 64.0958 311.311 66.2078C313.359 68.3198 315.855 69.3758 318.799 69.3758Z" stroke="#FF9F99" stroke-width="40" mask="url(#path-1-outside-1_2032_56)"/>
<path d="M391.365 87.9998C389.189 87.9998 387.364 87.4558 385.892 86.3678C384.484 85.2158 383.493 83.6798 382.917 81.7598C382.405 79.9678 382.084 78.0158 381.956 75.9038C381.892 73.7918 381.861 70.8158 381.861 66.9758C381.861 63.3918 381.7 60.7358 381.38 59.0078C381.124 57.2798 380.453 56.4158 379.365 56.4158C378.085 56.4158 377.188 56.9918 376.676 58.1438C376.164 59.2318 375.909 60.7998 375.909 62.8478C375.909 64.7038 376.164 67.6158 376.676 71.5838C376.74 72.3518 376.868 73.5678 377.06 75.2318C377.252 76.8958 377.348 78.2718 377.348 79.3598C377.348 82.4318 376.644 84.6078 375.236 85.8878C373.892 87.1678 371.908 87.8078 369.284 87.8078C366.148 87.8078 363.428 86.1118 361.124 82.7198C358.82 79.3278 357.092 75.1038 355.94 70.0478C354.788 64.9278 354.212 59.9038 354.212 54.9758C354.212 49.0878 355.044 43.6158 356.708 38.5598C358.436 33.5038 360.996 29.4398 364.388 26.3678C367.844 23.2958 372.004 21.7598 376.868 21.7598C380.965 21.7598 384.228 23.0398 386.66 25.5998C389.092 28.0958 390.724 31.1358 391.556 34.7198C392.26 31.1998 393.828 28.1598 396.26 25.5998C398.756 23.0398 402.02 21.7598 406.052 21.7598C410.852 21.7598 414.948 23.2638 418.34 26.2718C421.796 29.2158 424.42 33.3438 426.212 38.6558C428.068 43.9678 428.996 50.1118 428.996 57.0878C428.996 61.6318 428.357 66.3358 427.077 71.1998C425.797 75.9998 424.005 79.9998 421.701 83.1998C419.396 86.3998 416.772 87.9998 413.828 87.9998C411.14 87.9998 409.093 87.3278 407.685 85.9838C406.277 84.6398 405.572 82.4318 405.572 79.3598C405.572 77.9518 405.828 75.3278 406.34 71.4878C406.852 67.3918 407.108 64.4478 407.108 62.6558C407.108 58.4958 405.989 56.4158 403.749 56.4158C402.597 56.4158 401.86 57.3438 401.54 59.1998C401.284 61.0558 401.124 64.0638 401.06 68.2238C401.06 71.3598 400.996 73.9838 400.868 76.0958C400.74 78.1438 400.452 80.0318 400.004 81.7598C399.492 83.6158 398.468 85.1198 396.932 86.2718C395.46 87.4238 393.605 87.9998 391.365 87.9998Z" stroke="#FF9F99" stroke-width="40" mask="url(#path-1-outside-1_2032_56)"/>
<path d="M479.835 72.6398C482.907 73.5998 484.443 75.6158 484.443 78.6878C484.443 81.5678 482.971 83.8398 480.027 85.5038C477.083 87.1678 471.995 87.9998 464.763 87.9998C455.739 87.9998 447.995 85.8238 441.531 81.4718C435.131 77.1198 431.931 68.4798 431.931 55.5518C431.931 49.0238 433.051 43.1358 435.291 37.8878C437.531 32.6398 440.859 28.4798 445.275 25.4078C449.755 22.3358 455.227 20.7998 461.691 20.7998C470.331 20.7998 476.411 22.1438 479.931 24.8318C483.451 27.4558 485.211 30.6878 485.211 34.5278C485.211 36.3198 484.763 37.9838 483.867 39.5198C482.971 40.9918 481.627 42.1438 479.835 42.9758C478.299 43.7438 476.315 44.1278 473.883 44.1278L471.291 44.0318C470.779 43.9678 470.043 43.9358 469.083 43.9358C465.755 43.9358 463.131 44.5438 461.211 45.7598C459.291 46.9118 457.979 48.7038 457.275 51.1358C459.963 51.0078 462.395 50.9438 464.571 50.9438C471.035 50.9438 475.227 51.1358 477.147 51.5198C479.323 51.9678 480.987 52.8318 482.139 54.1118C483.355 55.3918 483.963 56.8958 483.963 58.6238C483.963 60.3518 483.387 61.8558 482.235 63.1358C481.083 64.3518 479.355 65.1838 477.051 65.6318C475.259 66.0158 470.907 66.2078 463.995 66.2078C461.179 66.2078 459.195 66.1758 458.043 66.1118C460.027 70.3358 463.739 72.4478 469.179 72.4478C469.499 72.4478 470.235 72.3838 471.387 72.2558C472.923 72.1278 474.235 72.0638 475.323 72.0638C477.179 72.0638 478.683 72.2558 479.835 72.6398Z" stroke="#FF9F99" stroke-width="40" mask="url(#path-1-outside-1_2032_56)"/>
<path d="M586.71 35.1038C586.71 39.3278 584.949 42.3998 581.429 44.3198C577.973 46.1758 572.309 47.2958 564.437 47.6798C564.693 50.7518 564.822 54.7198 564.822 59.5838C564.822 66.3678 564.438 71.8078 563.67 75.9038C562.966 79.9358 561.718 82.9438 559.926 84.9278C558.134 86.8478 555.637 87.8078 552.437 87.8078C549.301 87.8078 546.902 86.7838 545.238 84.7358C543.574 82.6878 542.421 79.6478 541.781 75.6158C541.141 71.5838 540.822 66.2398 540.822 59.5838C540.822 55.1038 540.917 51.1358 541.109 47.6798C535.797 47.4238 531.509 46.8798 528.245 46.0478C525.045 45.1518 522.677 43.8398 521.141 42.1118C519.605 40.3838 518.837 38.0478 518.837 35.1038C518.837 31.5198 520.054 28.7038 522.486 26.6558C524.918 24.6078 528.566 23.1678 533.43 22.3358C538.294 21.5038 544.661 21.0878 552.533 21.0878C560.469 21.0878 566.901 21.5038 571.829 22.3358C576.757 23.1678 580.469 24.6078 582.965 26.6558C585.461 28.7038 586.71 31.5198 586.71 35.1038Z" stroke="#FF9F99" stroke-width="40" mask="url(#path-1-outside-1_2032_56)"/>
<path d="M618.511 88.0958C612.687 88.1598 607.279 86.7198 602.287 83.7758C597.359 80.8318 593.391 76.7998 590.383 71.6798C587.439 66.4958 585.903 60.7678 585.775 54.4958C585.711 48.4798 587.119 42.9118 589.999 37.7918C592.879 32.6718 596.847 28.6078 601.903 25.5998C606.959 22.5278 612.495 20.9918 618.511 20.9918C624.399 20.9278 629.839 22.3998 634.831 25.4078C639.887 28.4158 643.887 32.5438 646.831 37.7918C649.775 43.0398 651.247 48.8318 651.247 55.1678C651.247 61.1198 649.775 66.5918 646.831 71.5838C643.887 76.5758 639.887 80.5438 634.831 83.4878C629.839 86.4318 624.399 87.9678 618.511 88.0958ZM618.799 69.3758C621.743 69.3758 624.239 68.3198 626.287 66.2078C628.399 64.0958 629.423 61.3438 629.359 57.9518C629.359 54.4958 628.335 51.7118 626.287 49.5998C624.239 47.4878 621.743 46.4318 618.799 46.4318C615.855 46.4318 613.359 47.4878 611.311 49.5998C609.263 51.7118 608.239 54.4958 608.239 57.9518C608.239 61.3438 609.263 64.0958 611.311 66.2078C613.359 68.3198 615.855 69.3758 618.799 69.3758Z" stroke="#FF9F99" stroke-width="40" mask="url(#path-1-outside-1_2032_56)"/>
<path d="M716.645 87.9038C706.021 87.8398 698.053 85.2158 692.741 80.0318C687.493 74.8478 684.869 66.4318 684.869 54.7838C684.869 44.2238 687.429 35.9358 692.549 29.9198C697.669 23.8398 704.901 20.7998 714.245 20.7998C720.005 20.7998 725.029 21.6638 729.317 23.3918C733.605 25.1198 736.901 27.5838 739.205 30.7838C741.509 33.9838 742.661 37.7598 742.661 42.1118C742.661 45.5678 741.893 48.6398 740.357 51.3278C738.885 54.0158 736.677 56.4158 733.733 58.5278C736.101 58.9118 738.149 60.1918 739.877 62.3678C741.669 64.5438 742.565 67.0718 742.565 69.9518C742.565 73.0238 741.733 75.9358 740.069 78.6878C738.469 81.3758 735.717 83.5838 731.813 85.3118C727.973 87.0398 722.917 87.9038 716.645 87.9038ZM710.021 52.0958C711.173 52.6718 712.613 52.9598 714.341 52.9598C716.389 52.9598 718.149 52.4798 719.621 51.5198C721.157 50.4958 721.925 48.9918 721.925 47.0078C721.925 45.0878 721.157 43.6478 719.621 42.6878C718.149 41.6638 716.357 41.1518 714.245 41.1518C712.581 41.1518 711.173 41.4398 710.021 42.0158C709.125 42.3998 708.453 43.0718 708.005 44.0318C707.557 44.9918 707.333 46.0158 707.333 47.1038C707.333 48.1918 707.557 49.2158 708.005 50.1758C708.453 51.0718 709.125 51.7118 710.021 52.0958ZM710.021 74.5598C711.237 75.0718 712.677 75.3278 714.341 75.3278C716.389 75.3278 718.149 74.9118 719.621 74.0798C721.157 73.1838 721.925 71.8718 721.925 70.1438C721.925 68.4798 721.157 67.1998 719.621 66.3038C718.085 65.4078 716.293 64.9598 714.245 64.9598C712.645 64.9598 711.237 65.2158 710.021 65.7278C709.125 66.1118 708.453 66.7198 708.005 67.5518C707.557 68.3198 707.333 69.1838 707.333 70.1438C707.333 71.1038 707.557 71.9998 708.005 72.8318C708.453 73.5998 709.125 74.1758 710.021 74.5598Z" stroke="#FF9F99" stroke-width="40" mask="url(#path-1-outside-1_2032_56)"/>
<path d="M803.987 47.9678C803.987 52.6398 803.283 56.7678 801.875 60.3518C800.531 63.9358 798.611 66.9438 796.115 69.3758C798.227 72.6398 799.283 75.8078 799.283 78.8798C799.283 81.5038 798.259 83.6798 796.211 85.4078C794.227 87.1358 791.955 87.9998 789.395 87.9998C787.923 87.9998 786.579 87.7758 785.363 87.3278C784.147 86.8798 782.835 86.1118 781.427 85.0238C780.211 84.0638 779.059 82.7518 777.971 81.0878C776.883 79.4238 776.019 77.6958 775.379 75.9038C773.267 75.6478 771.155 75.1038 769.043 74.2718C769.427 76.3198 769.619 77.8878 769.619 78.9758C769.619 85.0558 766.451 88.0958 760.115 88.0958C754.803 88.0958 751.059 84.9918 748.883 78.7838C746.707 72.5758 745.619 64.9918 745.619 56.0318C745.619 49.9518 746.707 44.2558 748.883 38.9438C751.123 33.5678 754.515 29.2478 759.059 25.9838C763.603 22.6558 769.139 20.9918 775.667 20.9918C780.915 20.9918 785.683 22.1118 789.971 24.3518C794.259 26.5278 797.651 29.6638 800.147 33.7598C802.707 37.8558 803.987 42.5918 803.987 47.9678ZM768.083 52.4798C768.083 54.6558 768.947 56.5758 770.675 58.2398C772.403 59.8398 774.387 60.6398 776.627 60.6398C778.931 60.6398 780.915 59.8398 782.579 58.2398C784.307 56.5758 785.171 54.6558 785.171 52.4798C785.171 50.2398 784.307 48.3198 782.579 46.7198C780.915 45.0558 778.931 44.2238 776.627 44.2238C774.387 44.2238 772.403 45.0558 770.675 46.7198C768.947 48.3838 768.083 50.3038 768.083 52.4798Z" stroke="#FF9F99" stroke-width="40" mask="url(#path-1-outside-1_2032_56)"/>
<path d="M835.129 70.6238C838.393 71.0078 840.921 71.8398 842.713 73.1198C844.569 74.3358 845.497 76.2878 845.497 78.9758C845.497 81.6638 844.537 83.6478 842.617 84.9278C840.761 86.2078 838.521 87.0078 835.897 87.3278C833.273 87.5838 829.881 87.7118 825.721 87.7118C821.625 87.7118 818.265 87.5838 815.641 87.3278C813.017 87.0078 810.777 86.2078 808.921 84.9278C807.065 83.6478 806.137 81.6638 806.137 78.9758C806.137 76.3518 807.001 74.4318 808.729 73.2158C810.521 71.9358 812.953 71.0718 816.025 70.6238C815.705 66.9118 815.545 61.5998 815.545 54.6878C815.545 48.4798 815.673 43.4878 815.929 39.7118C812.217 39.3278 809.305 38.4318 807.193 37.0238C805.081 35.6158 804.025 33.4078 804.025 30.3998C804.025 27.4558 805.049 25.2798 807.097 23.8718C809.145 22.4638 811.609 21.5998 814.489 21.2798C817.369 20.9598 821.081 20.7998 825.625 20.7998C830.169 20.7998 833.881 20.9598 836.761 21.2798C839.641 21.5998 842.105 22.4638 844.153 23.8718C846.265 25.2798 847.321 27.4558 847.321 30.3998C847.321 33.4078 846.233 35.6158 844.057 37.0238C841.945 38.4318 839.001 39.3278 835.225 39.7118C835.545 43.2318 835.705 48.2238 835.705 54.6878C835.705 60.8958 835.513 66.2078 835.129 70.6238Z" stroke="#FF9F99" stroke-width="40" mask="url(#path-1-outside-1_2032_56)"/>
<path d="M877.22 87.9998C868.964 87.9998 862.948 87.0078 859.172 85.0238C855.396 83.0398 852.964 79.8718 851.876 75.5198C850.788 71.1678 850.244 64.3838 850.244 55.1678C850.244 45.8238 850.756 38.8798 851.78 34.3358C852.868 29.7278 855.268 26.3358 858.98 24.1598C862.756 21.9198 868.74 20.7998 876.932 20.7998C881.86 20.7998 886.884 21.9518 892.004 24.2558C897.124 26.4958 901.444 30.2078 904.964 35.3918C908.484 40.5758 910.244 47.1998 910.244 55.2638C910.244 63.0078 908.452 69.3438 904.868 74.2718C901.284 79.1358 896.964 82.6558 891.908 84.8318C886.852 86.9438 881.956 87.9998 877.22 87.9998ZM871.268 71.1038C873.316 71.3598 874.788 71.4878 875.684 71.4878C880.228 71.4878 883.748 70.2718 886.244 67.8398C888.74 65.4078 889.988 62.0478 889.988 57.7598C889.988 53.9198 888.772 50.9438 886.34 48.8318C883.908 46.6558 880.484 45.5678 876.068 45.5678C874.404 45.5678 872.804 45.6958 871.268 45.9518V71.1038Z" stroke="#FF9F99" stroke-width="40" mask="url(#path-1-outside-1_2032_56)"/>
<path d="M948.743 87.9038C941.448 87.9038 935.207 86.6238 930.023 84.0638C924.839 81.5038 920.871 77.8558 918.119 73.1198C915.431 68.3198 914.087 62.6558 914.087 56.1278C914.087 48.3198 915.719 41.7598 918.983 36.4478C922.311 31.1358 926.6 27.1998 931.848 24.6398C937.096 22.0798 942.599 20.7998 948.359 20.7998C953.479 20.7998 957.991 21.5678 961.895 23.1038C965.799 24.6398 968.808 26.6558 970.92 29.1518C973.032 31.6478 974.087 34.2718 974.087 37.0238C974.087 40.9918 973.063 43.8398 971.015 45.5678C968.967 47.2318 966.439 48.0638 963.431 48.0638C962.023 48.0638 960.775 47.9358 959.687 47.6798C958.663 47.4238 957.575 47.0718 956.423 46.6238C955.143 46.1758 953.991 45.8558 952.967 45.6638C952.007 45.4078 950.791 45.2798 949.319 45.2798C945.095 45.2798 941.767 46.5598 939.335 49.1198C936.903 51.6158 935.687 55.1678 935.687 59.7758C935.687 63.6798 936.871 66.6878 939.239 68.7998C941.607 70.9118 944.552 71.9678 948.072 71.9678C950.056 71.9678 951.784 71.7118 953.256 71.1998C954.728 70.6878 955.848 70.1118 956.616 69.4718C957.384 68.8318 957.767 68.3198 957.767 67.9358C953.095 67.9358 949.543 67.3918 947.111 66.3038C944.679 65.2158 943.463 63.3278 943.463 60.6398C943.463 57.9518 944.391 55.8718 946.247 54.3998C948.103 52.8638 951.239 52.0958 955.655 52.0958C960.199 52.0958 963.751 52.6398 966.311 53.7278C968.871 54.7518 970.695 56.3838 971.783 58.6238C972.871 60.7998 973.415 63.7118 973.415 67.3598C973.415 71.0718 972.296 74.4958 970.056 77.6318C967.88 80.7678 964.871 83.2638 961.031 85.1198C957.255 86.9758 953.16 87.9038 948.743 87.9038Z" stroke="#FF9F99" stroke-width="40" mask="url(#path-1-outside-1_2032_56)"/>
<path d="M1024.9 72.6398C1027.97 73.5998 1029.51 75.6158 1029.51 78.6878C1029.51 81.5678 1028.03 83.8398 1025.09 85.5038C1022.15 87.1678 1017.06 87.9998 1009.83 87.9998C1000.8 87.9998 993.058 85.8238 986.594 81.4718C980.194 77.1198 976.994 68.4798 976.994 55.5518C976.994 49.0238 978.114 43.1358 980.354 37.8878C982.594 32.6398 985.922 28.4798 990.338 25.4078C994.818 22.3358 1000.29 20.7998 1006.75 20.7998C1015.39 20.7998 1021.47 22.1438 1024.99 24.8318C1028.51 27.4558 1030.27 30.6878 1030.27 34.5278C1030.27 36.3198 1029.83 37.9838 1028.93 39.5198C1028.03 40.9918 1026.69 42.1438 1024.9 42.9758C1023.36 43.7438 1021.38 44.1278 1018.95 44.1278L1016.35 44.0318C1015.84 43.9678 1015.11 43.9358 1014.15 43.9358C1010.82 43.9358 1008.19 44.5438 1006.27 45.7598C1004.35 46.9118 1003.04 48.7038 1002.34 51.1358C1005.03 51.0078 1007.46 50.9438 1009.63 50.9438C1016.1 50.9438 1020.29 51.1358 1022.21 51.5198C1024.39 51.9678 1026.05 52.8318 1027.2 54.1118C1028.42 55.3918 1029.03 56.8958 1029.03 58.6238C1029.03 60.3518 1028.45 61.8558 1027.3 63.1358C1026.15 64.3518 1024.42 65.1838 1022.11 65.6318C1020.32 66.0158 1015.97 66.2078 1009.06 66.2078C1006.24 66.2078 1004.26 66.1758 1003.11 66.1118C1005.09 70.3358 1008.8 72.4478 1014.24 72.4478C1014.56 72.4478 1015.3 72.3838 1016.45 72.2558C1017.99 72.1278 1019.3 72.0638 1020.39 72.0638C1022.24 72.0638 1023.75 72.2558 1024.9 72.6398Z" stroke="#FF9F99" stroke-width="40" mask="url(#path-1-outside-1_2032_56)"/>
<path d="M1131.77 35.1038C1131.77 39.3278 1130.01 42.3998 1126.49 44.3198C1123.04 46.1758 1117.37 47.2958 1109.5 47.6798C1109.76 50.7518 1109.88 54.7198 1109.88 59.5838C1109.88 66.3678 1109.5 71.8078 1108.73 75.9038C1108.03 79.9358 1106.78 82.9438 1104.99 84.9278C1103.2 86.8478 1100.7 87.8078 1097.5 87.8078C1094.36 87.8078 1091.96 86.7838 1090.3 84.7358C1088.64 82.6878 1087.48 79.6478 1086.84 75.6158C1086.2 71.5838 1085.88 66.2398 1085.88 59.5838C1085.88 55.1038 1085.98 51.1358 1086.17 47.6798C1080.86 47.4238 1076.57 46.8798 1073.31 46.0478C1070.11 45.1518 1067.74 43.8398 1066.2 42.1118C1064.67 40.3838 1063.9 38.0478 1063.9 35.1038C1063.9 31.5198 1065.12 28.7038 1067.55 26.6558C1069.98 24.6078 1073.63 23.1678 1078.49 22.3358C1083.36 21.5038 1089.72 21.0878 1097.6 21.0878C1105.53 21.0878 1111.96 21.5038 1116.89 22.3358C1121.82 23.1678 1125.53 24.6078 1128.03 26.6558C1130.52 28.7038 1131.77 31.5198 1131.77 35.1038Z" stroke="#FF9F99" stroke-width="40" mask="url(#path-1-outside-1_2032_56)"/>
<path d="M1144.78 88.1918C1140.49 88.1918 1137.04 86.1118 1134.41 81.9518C1131.85 77.7278 1130.35 72.0318 1129.9 64.8638C1129.84 63.8398 1129.81 62.3358 1129.81 60.3518C1129.81 52.6078 1131.09 45.7598 1133.65 39.8078C1136.21 33.7918 1139.82 29.1518 1144.49 25.8878C1149.23 22.5598 1154.73 20.8958 1161.01 20.8958C1167.28 20.8958 1172.75 22.5598 1177.42 25.8878C1182.16 29.1518 1185.77 33.7598 1188.27 39.7118C1190.83 45.6638 1192.11 52.5438 1192.11 60.3518C1192.11 62.3358 1192.08 63.8398 1192.01 64.8638C1191.57 72.1598 1190.06 77.8558 1187.5 81.9518C1184.94 86.0478 1181.49 88.0958 1177.13 88.0958C1173.61 88.0958 1171.15 87.1358 1169.74 85.2158C1168.4 83.2958 1167.73 80.9598 1167.73 78.2078C1167.73 76.9278 1167.82 75.8078 1168.01 74.8478C1164.69 74.9758 1161.74 75.0398 1159.18 75.0398C1157.58 75.0398 1155.82 74.9758 1153.9 74.8478C1154.09 75.8078 1154.19 76.9278 1154.19 78.2078C1154.19 81.0238 1153.49 83.3918 1152.08 85.3118C1150.73 87.2318 1148.3 88.1918 1144.78 88.1918ZM1153.23 57.7598C1156.69 57.6318 1159.21 57.5678 1160.81 57.5678C1162.54 57.5678 1165.07 57.6318 1168.4 57.7598C1168.53 57.0558 1168.59 55.9998 1168.59 54.5918C1168.59 51.5838 1167.95 49.1518 1166.67 47.2958C1165.39 45.3758 1163.41 44.4158 1160.72 44.4158C1158.09 44.4158 1156.14 45.3438 1154.86 47.1998C1153.58 49.0558 1152.94 51.4558 1152.94 54.3998C1152.94 55.4878 1153.04 56.6078 1153.23 57.7598Z" stroke="#FF9F99" stroke-width="40" mask="url(#path-1-outside-1_2032_56)"/>
<path d="M1223.62 87.9998C1217.16 87.9998 1211.68 86.6878 1207.2 84.0638C1202.72 81.3758 1199.78 77.3758 1198.37 72.0638C1197.8 69.8878 1197.41 67.2318 1197.22 64.0958C1197.03 60.9598 1196.93 56.9598 1196.93 52.0958C1196.93 42.5598 1197.96 34.9758 1200 29.3438C1202.12 23.6478 1206.28 20.7998 1212.48 20.7998C1216.32 20.7998 1219.33 22.1438 1221.51 24.8318C1223.75 27.5198 1224.87 30.8478 1224.87 34.8158C1224.87 39.0398 1224.52 43.5518 1223.81 48.3518C1223.11 53.1518 1222.12 58.9758 1220.84 65.8238C1224.8 64.5438 1229.16 63.9038 1233.89 63.9038C1238.82 63.9038 1242.92 64.7998 1246.18 66.5918C1249.51 68.3838 1251.17 71.2958 1251.17 75.3278C1251.17 79.2318 1249.89 82.1118 1247.33 83.9678C1244.77 85.8238 1241.67 86.9758 1238.02 87.4238C1234.37 87.8078 1229.57 87.9998 1223.62 87.9998Z" stroke="#FF9F99" stroke-width="40" mask="url(#path-1-outside-1_2032_56)"/>
<path d="M1289.93 55.0718C1295.62 57.6958 1300.45 60.8638 1304.42 64.5758C1308.45 68.2878 1310.47 72.3198 1310.47 76.6718C1310.47 80.5118 1309.41 83.3598 1307.3 85.2158C1305.19 87.0718 1302.6 87.9998 1299.53 87.9998C1295.11 87.9998 1290.95 85.9838 1287.05 81.9518C1283.21 77.8558 1279.49 72.5118 1275.91 65.9198C1275.91 70.4638 1275.65 74.2718 1275.14 77.3438C1274.69 80.4158 1273.67 82.9758 1272.07 85.0238C1270.47 87.0078 1268.07 87.9998 1264.87 87.9998C1261.54 87.9998 1259.08 86.7518 1257.48 84.2558C1255.94 81.7598 1254.98 78.7518 1254.6 75.2318C1254.28 71.7118 1254.12 67.1038 1254.12 61.4078C1254.12 57.3758 1254.15 52.6078 1254.21 47.1038C1254.34 41.5358 1254.47 38.0798 1254.6 36.7358C1254.73 31.9358 1255.72 28.0958 1257.57 25.2158C1259.43 22.2718 1262.05 20.7998 1265.45 20.7998C1269.35 20.7998 1272.07 22.4638 1273.61 25.7918C1275.21 29.1198 1276.01 34.2078 1276.01 41.0558V43.9358C1279.27 38.0478 1283.05 32.7678 1287.33 28.0958C1291.62 23.4238 1295.91 21.0878 1300.2 21.0878C1303.21 21.0878 1305.67 22.2398 1307.59 24.5438C1309.57 26.7838 1310.57 29.5678 1310.57 32.8958C1310.57 37.3758 1308.65 41.6638 1304.81 45.7598C1301.03 49.7918 1296.07 52.8958 1289.93 55.0718Z" stroke="#FF9F99" stroke-width="40" mask="url(#path-1-outside-1_2032_56)"/>
<path d="M1319.47 25.3118C1321.32 22.3038 1324.43 20.7998 1328.78 20.7998C1332.94 20.7998 1335.95 22.2398 1337.8 25.1198C1339.72 27.9998 1340.68 31.4878 1340.68 35.5838C1340.68 38.9758 1340.36 42.7518 1339.72 46.9118C1339.08 51.0078 1338.19 54.6878 1337.03 57.9518C1336.46 59.5518 1335.47 60.9598 1334.06 62.1758C1332.71 63.3278 1330.95 63.9038 1328.78 63.9038C1326.6 63.9038 1324.81 63.3278 1323.4 62.1758C1321.99 60.9598 1321 59.5518 1320.43 57.9518C1319.27 54.7518 1318.38 51.1678 1317.74 47.1998C1317.1 43.1678 1316.78 39.5198 1316.78 36.2558C1316.78 31.9038 1317.67 28.2558 1319.47 25.3118ZM1335.69 84.5438C1333.71 86.5278 1331.37 87.5198 1328.68 87.5198C1325.99 87.5198 1323.66 86.5278 1321.67 84.5438C1319.69 82.5598 1318.7 80.2238 1318.7 77.5358C1318.7 74.8478 1319.69 72.5118 1321.67 70.5278C1323.66 68.5438 1325.99 67.5518 1328.68 67.5518C1331.37 67.5518 1333.71 68.5438 1335.69 70.5278C1337.67 72.5118 1338.67 74.8478 1338.67 77.5358C1338.67 80.2238 1337.67 82.5598 1335.69 84.5438Z" stroke="#FF9F99" stroke-width="40" mask="url(#path-1-outside-1_2032_56)"/>
</g>
<defs>
<filter id="filter0_d_2032_56" x="0.868744" y="0.799805" width="1363.81" height="128.466" filterUnits="userSpaceOnUse" color-interpolation-filters="sRGB">
<feFlood flood-opacity="0" result="BackgroundImageFix"/>
<feColorMatrix in="SourceAlpha" type="matrix" values="0 0 0 0 0 0 0 0 0 0 0 0 0 0 0 0 0 0 127 0" result="hardAlpha"/>
<feOffset dy="4"/>
<feGaussianBlur stdDeviation="2"/>
<feComposite in2="hardAlpha" operator="out"/>
<feColorMatrix type="matrix" values="0 0 0 0 0 0 0 0 0 0 0 0 0 0 0 0 0 0 0.25 0"/>
<feBlend mode="normal" in2="BackgroundImageFix" result="effect1_dropShadow_2032_56"/>
<feBlend mode="normal" in="SourceGraphic" in2="effect1_dropShadow_2032_56" result="shape"/>
</filter>
</defs>
</svg>
