<svg width="314" height="126" viewBox="0 0 314 126" fill="none" xmlns="http://www.w3.org/2000/svg">
<g filter="url(#filter0_dii_455_2452)">
<rect x="4" width="306" height="118" rx="50" fill="#FF9F99"/>
<path d="M70.9661 40.96V42.56H72.5661V46.88H70.9661V48.48H63.8061V68.32H71.4461V69.92H73.0461V74.24H71.4461V75.84H57.3261V74.24H55.6861V42.56H57.3261V40.96H70.9661ZM81.9661 61.8V75.8H80.4861V77.4H76.0861V75.8H74.6061V42.56H76.0861V40.96H80.4861V42.56H81.9661V54.12H84.0461V42.56H85.4861V40.96H89.9661V42.56H91.4061V75.8H89.9661V77.4H85.4861V75.8H84.0461V61.8H81.9661ZM113.473 63.36V64.68H111.113V68.08H117.753V69.68H119.353V73.84H117.753V75.44H95.6733V73.84H94.0733V69.68H95.6733V68.08H102.593V64.68H99.9133V63.36H98.4733V61.88H96.9533V60.44H95.4333V52.84H97.1533V51.04H99.0733V49.88H95.6333V48.28H94.2733V44.68H95.6333V43.08H102.153V40.04H103.753V38.56H109.633V40.04H111.233V43.08H117.753V44.68H119.113V48.28H117.753V49.88H114.313V51.04H116.233V52.84H117.953V60.44H116.433V61.88H114.953V63.36H113.473ZM121.913 40.96H127.513V42.56H129.073V54.32H131.513V55.76H132.713V60.64H131.513V62.08H129.073V75.8H127.513V77.4H121.913V75.8H120.313V42.56H121.913V40.96ZM109.913 57.96V54.56H108.633V53.4H104.713V54.56H103.473V57.96H104.713V59.12H108.633V57.96H109.913ZM145.112 42.56H146.712V40.96H165.232V42.56H166.832V74.24H165.232V75.84H146.712V74.24H145.112V42.56ZM171.672 40.96H177.432V42.56H178.952V54.32H181.552V55.76H182.752V60.64H181.552V62.08H178.952V75.8H177.432V77.4H171.672V75.8H170.112V42.56H171.672V40.96ZM158.552 48.48H153.352V68.32H158.552V48.48ZM188.5 63.56H190.1V51.36H185.02V49.76H183.42V45.48H185.02V43.88H190.1V40.16H191.74V38.52H198.26V40.16H199.9V43.88H204.94V45.48H206.58V49.76H204.94V51.36H199.9V63.56H201.5V65.16H203.26V66.92H205.1V68.76H206.82V74.32H205.3V76.04H200.54V74.32H198.94V72.72H197.38V71.28H195.98V69.88H194.22V71.28H192.82V72.72H191.26V74.32H189.66V76.04H184.7V74.32H183.18V68.76H184.9V66.92H186.74V65.16H188.5V63.56ZM211.14 40.96H216.86V42.56H218.42V75.8H216.86V77.4H211.14V75.8H209.58V42.56H211.14V40.96ZM224.367 40.96H242.167V42.56H243.767V74.48H242.167V76.08H236.447V74.48H234.847V48.64H224.447V47.04H222.847V42.56H224.367V40.96ZM250.047 40.96H255.767V42.56H257.327V75.8H255.767V77.4H250.047V75.8H248.487V42.56H250.047V40.96Z" fill="white"/>
</g>
<defs>
<filter id="filter0_dii_455_2452" x="0" y="-10" width="314" height="138" filterUnits="userSpaceOnUse" color-interpolation-filters="sRGB">
<feFlood flood-opacity="0" result="BackgroundImageFix"/>
<feColorMatrix in="SourceAlpha" type="matrix" values="0 0 0 0 0 0 0 0 0 0 0 0 0 0 0 0 0 0 127 0" result="hardAlpha"/>
<feOffset dy="4"/>
<feGaussianBlur stdDeviation="2"/>
<feComposite in2="hardAlpha" operator="out"/>
<feColorMatrix type="matrix" values="0 0 0 0 0 0 0 0 0 0 0 0 0 0 0 0 0 0 0.25 0"/>
<feBlend mode="normal" in2="BackgroundImageFix" result="effect1_dropShadow_455_2452"/>
<feBlend mode="normal" in="SourceGraphic" in2="effect1_dropShadow_455_2452" result="shape"/>
<feColorMatrix in="SourceAlpha" type="matrix" values="0 0 0 0 0 0 0 0 0 0 0 0 0 0 0 0 0 0 127 0" result="hardAlpha"/>
<feOffset dy="-10"/>
<feGaussianBlur stdDeviation="5"/>
<feComposite in2="hardAlpha" operator="arithmetic" k2="-1" k3="1"/>
<feColorMatrix type="matrix" values="0 0 0 0 0 0 0 0 0 0 0 0 0 0 0 0 0 0 0.25 0"/>
<feBlend mode="normal" in2="shape" result="effect2_innerShadow_455_2452"/>
<feColorMatrix in="SourceAlpha" type="matrix" values="0 0 0 0 0 0 0 0 0 0 0 0 0 0 0 0 0 0 127 0" result="hardAlpha"/>
<feOffset dy="10"/>
<feGaussianBlur stdDeviation="5"/>
<feComposite in2="hardAlpha" operator="arithmetic" k2="-1" k3="1"/>
<feColorMatrix type="matrix" values="0 0 0 0 1 0 0 0 0 1 0 0 0 0 1 0 0 0 0.25 0"/>
<feBlend mode="normal" in2="effect2_innerShadow_455_2452" result="effect3_innerShadow_455_2452"/>
</filter>
</defs>
</svg>
