<svg width="273" height="76" viewBox="0 0 273 76" fill="none" xmlns="http://www.w3.org/2000/svg">
<g filter="url(#filter0_d_2049_61)">
<mask id="path-1-outside-1_2049_61" maskUnits="userSpaceOnUse" x="4" y="0.959961" width="265" height="67" fill="black">
<rect fill="white" x="4" y="0.959961" width="265" height="67"/>
<path d="M37.856 13.312V15.232H39.776V35.152H37.856V37.072H15.92V35.152H14V15.232H15.92V13.312H21.872V15.232H23.792V18.736H29.984V15.232H31.904V13.312H37.856ZM45.776 13.312H52.496V15.232H54.32V20.608H57.152V22.336H58.592V27.904H57.152V29.632H54.32V35.296H52.496V37.216H45.776V35.296H43.856V15.232H45.776V13.312ZM30.08 26.032H23.648V29.584H30.08V26.032ZM15.2 41.488H17.12V39.568H53.312V41.296H55.232V45.424H53.312V47.2H25.568V49.36H53.6V51.088H55.52V55.312H53.6V57.04H17.12V55.12H15.2V41.488Z"/>
<path d="M95.4406 30.016V31.504H67.2166V30.016H65.1046V28.528H63.2326V26.896H61.5046V17.92H63.1366V16.288H64.8646V14.752H66.7846V13.312H95.7766V14.752H97.7926V16.288H99.5206V17.92H101.153V26.896H99.4246V28.528H97.5526V30.016H95.4406ZM89.4406 24.784V23.392H91.0726V21.424H89.4406V19.984H73.2166V21.424H71.5846V23.392H73.2166V24.784H89.4406ZM59.7286 40.192V35.536H61.3606V33.904H101.297V35.536H102.929V40.192H101.297V41.824H61.3606V40.192H59.7286ZM99.8086 57.04H63.6166V55.12H61.6966V45.28H63.6166V43.504H70.2406V45.28H72.1606V48.976H99.8086V50.896H101.729V55.12H99.8086V57.04Z"/>
<path d="M143.104 13.312V15.04H144.592V19.648H143.104V21.424H141.135V30.208H143.104V31.984H144.592V36.592H143.104V38.32H121.408V36.592H119.967V31.984H121.408V30.208H123.424V21.424H121.408V19.648H119.967V15.04H121.408V13.312H143.104ZM153.04 41.104H151.12V34.576H146.896V33.232H145.408V28.096H146.896V26.752H151.12V24.832H146.896V23.488H145.408V18.352H146.896V17.056H151.12V14.944H153.04V13.312H159.568V15.232H161.488V41.104H159.568V43.024H153.04V41.104ZM133.408 30.208V21.424H131.151V30.208H133.408ZM160.144 57.04H123.712V55.12H121.791V43.408H123.712V41.488H130.479V43.408H132.399V48.592H160.144V50.512H162.064V55.12H160.144V57.04Z"/>
<path d="M174.384 39.904V22.336H168.288V20.416H166.368V15.232H168.288V13.312H192.192V15.232H194.16V20.416H192.192V22.336H186.144V39.904H188.064V41.92H190.176V44.128H192.384V46.48H194.448V53.344H192.624V55.408H186.864V53.344H184.944V51.328H183.072V49.456H181.44V47.728H179.328V49.456H177.696V51.328H175.824V53.344H173.904V55.408H167.904V53.344H166.08V46.48H168.144V44.128H170.352V41.92H172.464V39.904H174.384ZM206.544 13.312V15.232H208.416V55.12H206.544V57.04H199.68V55.12H197.808V15.232H199.68V13.312H206.544Z"/>
<path d="M223.281 10.96H230.385V12.496H232.305V15.328H239.361V17.248H241.185V22.096H239.361V23.968H236.481V25.024H238.209V26.416H240.033V33.76H238.209V35.392H236.385V36.928H234.657V38.368H219.009V36.928H217.281V35.392H215.457V33.76H213.681V26.416H215.457V25.024H217.233V23.968H214.305V22.096H212.481V17.248H214.305V15.328H221.361V12.496H223.281V10.96ZM245.745 13.312H252.465V15.232H254.289V21.184H257.121V22.912H258.561V28.48H257.121V30.208H254.289V36.448H252.465V38.368H245.745V36.448H243.825V15.232H245.745V13.312ZM224.433 31.6H229.233V30.16H230.673V26.992H229.233V25.552H224.433V26.992H222.993V30.16H224.433V31.6ZM215.169 42.16H217.089V40.24H252.369V42.16H254.289V55.12H252.369V57.04H217.089V55.12H215.169V42.16ZM244.209 47.488H225.249V49.792H244.209V47.488Z"/>
</mask>
<path d="M37.856 13.312V15.232H39.776V35.152H37.856V37.072H15.92V35.152H14V15.232H15.92V13.312H21.872V15.232H23.792V18.736H29.984V15.232H31.904V13.312H37.856ZM45.776 13.312H52.496V15.232H54.32V20.608H57.152V22.336H58.592V27.904H57.152V29.632H54.32V35.296H52.496V37.216H45.776V35.296H43.856V15.232H45.776V13.312ZM30.08 26.032H23.648V29.584H30.08V26.032ZM15.2 41.488H17.12V39.568H53.312V41.296H55.232V45.424H53.312V47.2H25.568V49.36H53.6V51.088H55.52V55.312H53.6V57.04H17.12V55.12H15.2V41.488Z" fill="white"/>
<path d="M95.4406 30.016V31.504H67.2166V30.016H65.1046V28.528H63.2326V26.896H61.5046V17.92H63.1366V16.288H64.8646V14.752H66.7846V13.312H95.7766V14.752H97.7926V16.288H99.5206V17.92H101.153V26.896H99.4246V28.528H97.5526V30.016H95.4406ZM89.4406 24.784V23.392H91.0726V21.424H89.4406V19.984H73.2166V21.424H71.5846V23.392H73.2166V24.784H89.4406ZM59.7286 40.192V35.536H61.3606V33.904H101.297V35.536H102.929V40.192H101.297V41.824H61.3606V40.192H59.7286ZM99.8086 57.04H63.6166V55.12H61.6966V45.28H63.6166V43.504H70.2406V45.28H72.1606V48.976H99.8086V50.896H101.729V55.12H99.8086V57.04Z" fill="white"/>
<path d="M143.104 13.312V15.04H144.592V19.648H143.104V21.424H141.135V30.208H143.104V31.984H144.592V36.592H143.104V38.32H121.408V36.592H119.967V31.984H121.408V30.208H123.424V21.424H121.408V19.648H119.967V15.04H121.408V13.312H143.104ZM153.04 41.104H151.12V34.576H146.896V33.232H145.408V28.096H146.896V26.752H151.12V24.832H146.896V23.488H145.408V18.352H146.896V17.056H151.12V14.944H153.04V13.312H159.568V15.232H161.488V41.104H159.568V43.024H153.04V41.104ZM133.408 30.208V21.424H131.151V30.208H133.408ZM160.144 57.04H123.712V55.12H121.791V43.408H123.712V41.488H130.479V43.408H132.399V48.592H160.144V50.512H162.064V55.12H160.144V57.04Z" fill="white"/>
<path d="M174.384 39.904V22.336H168.288V20.416H166.368V15.232H168.288V13.312H192.192V15.232H194.16V20.416H192.192V22.336H186.144V39.904H188.064V41.92H190.176V44.128H192.384V46.48H194.448V53.344H192.624V55.408H186.864V53.344H184.944V51.328H183.072V49.456H181.44V47.728H179.328V49.456H177.696V51.328H175.824V53.344H173.904V55.408H167.904V53.344H166.08V46.48H168.144V44.128H170.352V41.92H172.464V39.904H174.384ZM206.544 13.312V15.232H208.416V55.12H206.544V57.04H199.68V55.12H197.808V15.232H199.68V13.312H206.544Z" fill="white"/>
<path d="M223.281 10.96H230.385V12.496H232.305V15.328H239.361V17.248H241.185V22.096H239.361V23.968H236.481V25.024H238.209V26.416H240.033V33.76H238.209V35.392H236.385V36.928H234.657V38.368H219.009V36.928H217.281V35.392H215.457V33.76H213.681V26.416H215.457V25.024H217.233V23.968H214.305V22.096H212.481V17.248H214.305V15.328H221.361V12.496H223.281V10.96ZM245.745 13.312H252.465V15.232H254.289V21.184H257.121V22.912H258.561V28.48H257.121V30.208H254.289V36.448H252.465V38.368H245.745V36.448H243.825V15.232H245.745V13.312ZM224.433 31.6H229.233V30.16H230.673V26.992H229.233V25.552H224.433V26.992H222.993V30.16H224.433V31.6ZM215.169 42.16H217.089V40.24H252.369V42.16H254.289V55.12H252.369V57.04H217.089V55.12H215.169V42.16ZM244.209 47.488H225.249V49.792H244.209V47.488Z" fill="white"/>
<path d="M37.856 13.312V15.232H39.776V35.152H37.856V37.072H15.92V35.152H14V15.232H15.92V13.312H21.872V15.232H23.792V18.736H29.984V15.232H31.904V13.312H37.856ZM45.776 13.312H52.496V15.232H54.32V20.608H57.152V22.336H58.592V27.904H57.152V29.632H54.32V35.296H52.496V37.216H45.776V35.296H43.856V15.232H45.776V13.312ZM30.08 26.032H23.648V29.584H30.08V26.032ZM15.2 41.488H17.12V39.568H53.312V41.296H55.232V45.424H53.312V47.2H25.568V49.36H53.6V51.088H55.52V55.312H53.6V57.04H17.12V55.12H15.2V41.488Z" stroke="#FF6161" stroke-width="20" mask="url(#path-1-outside-1_2049_61)"/>
<path d="M95.4406 30.016V31.504H67.2166V30.016H65.1046V28.528H63.2326V26.896H61.5046V17.92H63.1366V16.288H64.8646V14.752H66.7846V13.312H95.7766V14.752H97.7926V16.288H99.5206V17.92H101.153V26.896H99.4246V28.528H97.5526V30.016H95.4406ZM89.4406 24.784V23.392H91.0726V21.424H89.4406V19.984H73.2166V21.424H71.5846V23.392H73.2166V24.784H89.4406ZM59.7286 40.192V35.536H61.3606V33.904H101.297V35.536H102.929V40.192H101.297V41.824H61.3606V40.192H59.7286ZM99.8086 57.04H63.6166V55.12H61.6966V45.28H63.6166V43.504H70.2406V45.28H72.1606V48.976H99.8086V50.896H101.729V55.12H99.8086V57.04Z" stroke="#FF6161" stroke-width="20" mask="url(#path-1-outside-1_2049_61)"/>
<path d="M143.104 13.312V15.04H144.592V19.648H143.104V21.424H141.135V30.208H143.104V31.984H144.592V36.592H143.104V38.32H121.408V36.592H119.967V31.984H121.408V30.208H123.424V21.424H121.408V19.648H119.967V15.04H121.408V13.312H143.104ZM153.04 41.104H151.12V34.576H146.896V33.232H145.408V28.096H146.896V26.752H151.12V24.832H146.896V23.488H145.408V18.352H146.896V17.056H151.12V14.944H153.04V13.312H159.568V15.232H161.488V41.104H159.568V43.024H153.04V41.104ZM133.408 30.208V21.424H131.151V30.208H133.408ZM160.144 57.04H123.712V55.12H121.791V43.408H123.712V41.488H130.479V43.408H132.399V48.592H160.144V50.512H162.064V55.12H160.144V57.04Z" stroke="#FF6161" stroke-width="20" mask="url(#path-1-outside-1_2049_61)"/>
<path d="M174.384 39.904V22.336H168.288V20.416H166.368V15.232H168.288V13.312H192.192V15.232H194.16V20.416H192.192V22.336H186.144V39.904H188.064V41.92H190.176V44.128H192.384V46.48H194.448V53.344H192.624V55.408H186.864V53.344H184.944V51.328H183.072V49.456H181.44V47.728H179.328V49.456H177.696V51.328H175.824V53.344H173.904V55.408H167.904V53.344H166.08V46.48H168.144V44.128H170.352V41.92H172.464V39.904H174.384ZM206.544 13.312V15.232H208.416V55.12H206.544V57.04H199.68V55.12H197.808V15.232H199.68V13.312H206.544Z" stroke="#FF6161" stroke-width="20" mask="url(#path-1-outside-1_2049_61)"/>
<path d="M223.281 10.96H230.385V12.496H232.305V15.328H239.361V17.248H241.185V22.096H239.361V23.968H236.481V25.024H238.209V26.416H240.033V33.76H238.209V35.392H236.385V36.928H234.657V38.368H219.009V36.928H217.281V35.392H215.457V33.76H213.681V26.416H215.457V25.024H217.233V23.968H214.305V22.096H212.481V17.248H214.305V15.328H221.361V12.496H223.281V10.96ZM245.745 13.312H252.465V15.232H254.289V21.184H257.121V22.912H258.561V28.48H257.121V30.208H254.289V36.448H252.465V38.368H245.745V36.448H243.825V15.232H245.745V13.312ZM224.433 31.6H229.233V30.16H230.673V26.992H229.233V25.552H224.433V26.992H222.993V30.16H224.433V31.6ZM215.169 42.16H217.089V40.24H252.369V42.16H254.289V55.12H252.369V57.04H217.089V55.12H215.169V42.16ZM244.209 47.488H225.249V49.792H244.209V47.488Z" stroke="#FF6161" stroke-width="20" mask="url(#path-1-outside-1_2049_61)"/>
</g>
<defs>
<filter id="filter0_d_2049_61" x="0" y="0.959961" width="272.561" height="74.0801" filterUnits="userSpaceOnUse" color-interpolation-filters="sRGB">
<feFlood flood-opacity="0" result="BackgroundImageFix"/>
<feColorMatrix in="SourceAlpha" type="matrix" values="0 0 0 0 0 0 0 0 0 0 0 0 0 0 0 0 0 0 127 0" result="hardAlpha"/>
<feOffset dy="4"/>
<feGaussianBlur stdDeviation="2"/>
<feComposite in2="hardAlpha" operator="out"/>
<feColorMatrix type="matrix" values="0 0 0 0 0 0 0 0 0 0 0 0 0 0 0 0 0 0 0.25 0"/>
<feBlend mode="normal" in2="BackgroundImageFix" result="effect1_dropShadow_2049_61"/>
<feBlend mode="normal" in="SourceGraphic" in2="effect1_dropShadow_2049_61" result="shape"/>
</filter>
</defs>
</svg>
