<svg width="836" height="443" viewBox="0 0 836 443" fill="none" xmlns="http://www.w3.org/2000/svg">
<g filter="url(#filter0_d_732_63)">
<mask id="path-1-outside-1_732_63" maskUnits="userSpaceOnUse" x="4.03534" y="0.470703" width="828" height="434" fill="black">
<rect fill="white" x="4.03534" y="0.470703" width="828" height="434"/>
<path d="M126.702 160.293C106.163 160.169 90.7594 155.093 80.49 145.064C70.3443 135.034 65.2715 118.752 65.2715 96.2177C65.2715 75.7878 70.2206 59.7535 80.1188 48.1147C90.017 36.352 103.998 30.4707 122.062 30.4707C133.198 30.4707 142.91 32.1422 151.2 35.4853C159.49 38.8284 165.862 43.5953 170.316 49.7862C174.77 55.9771 176.997 63.2823 176.997 71.7019C176.997 78.388 175.513 84.3312 172.543 89.5316C169.697 94.7319 165.429 99.3751 159.737 103.461C164.315 104.204 168.275 106.68 171.615 110.89C175.08 115.1 176.812 119.991 176.812 125.562C176.812 131.506 175.203 137.139 171.986 142.463C168.893 147.664 163.573 151.936 156.026 155.279C148.602 158.622 138.827 160.293 126.702 160.293ZM113.896 91.0174C116.123 92.1317 118.907 92.6889 122.248 92.6889C126.207 92.6889 129.61 91.7603 132.456 89.903C135.425 87.9219 136.91 85.0122 136.91 81.1739C136.91 77.4594 135.425 74.6735 132.456 72.8162C129.61 70.8352 126.145 69.8446 122.062 69.8446C118.845 69.8446 116.123 70.4018 113.896 71.5162C112.164 72.2591 110.865 73.5591 109.999 75.4164C109.133 77.2737 108.7 79.2547 108.7 81.3596C108.7 83.4645 109.133 85.4456 109.999 87.3029C110.865 89.0363 112.164 90.2745 113.896 91.0174ZM113.896 134.477C116.247 135.468 119.031 135.963 122.248 135.963C126.207 135.963 129.61 135.158 132.456 133.549C135.425 131.815 136.91 129.277 136.91 125.934C136.91 122.715 135.425 120.238 132.456 118.505C129.486 116.771 126.022 115.905 122.062 115.905C118.969 115.905 116.247 116.4 113.896 117.39C112.164 118.133 110.865 119.31 109.999 120.919C109.133 122.405 108.7 124.077 108.7 125.934C108.7 127.791 109.133 129.525 109.999 131.134C110.865 132.62 112.164 133.734 113.896 134.477Z"/>
<path d="M295.555 83.0312C295.555 92.0698 294.194 100.056 291.472 106.99C288.874 113.924 285.162 119.743 280.337 124.448C284.42 130.763 286.461 136.892 286.461 142.835C286.461 147.911 284.482 152.121 280.522 155.464C276.687 158.807 272.295 160.479 267.346 160.479C264.5 160.479 261.902 160.046 259.551 159.179C257.2 158.312 254.663 156.826 251.941 154.721C249.591 152.864 247.364 150.326 245.26 147.107C243.157 143.887 241.486 140.544 240.249 137.077C236.166 136.582 232.083 135.53 228 133.92C228.743 137.882 229.114 140.916 229.114 143.021C229.114 154.783 222.989 160.665 210.74 160.665C200.471 160.665 193.233 154.66 189.026 142.649C184.819 130.639 182.716 115.967 182.716 98.6322C182.716 86.8695 184.819 75.8498 189.026 65.5729C193.356 55.1723 199.914 46.8146 208.699 40.4999C217.483 34.0614 228.186 30.8422 240.806 30.8422C250.952 30.8422 260.169 33.009 268.459 37.3426C276.749 41.5524 283.306 47.6194 288.132 55.5437C293.081 63.468 295.555 72.6305 295.555 83.0312ZM226.144 91.7603C226.144 95.9701 227.815 99.6846 231.155 102.904C234.496 105.999 238.331 107.547 242.662 107.547C247.116 107.547 250.952 105.999 254.169 102.904C257.509 99.6846 259.18 95.9701 259.18 91.7603C259.18 87.4267 257.509 83.7122 254.169 80.6167C250.952 77.3975 247.116 75.7879 242.662 75.7879C238.331 75.7879 234.496 77.3975 231.155 80.6167C227.815 83.836 226.144 87.5505 226.144 91.7603Z"/>
<path d="M355.761 126.863C362.071 127.605 366.958 129.215 370.423 131.691C374.011 134.044 375.805 137.82 375.805 143.021C375.805 148.221 373.949 152.059 370.237 154.536C366.649 157.012 362.318 158.56 357.246 159.179C352.173 159.674 345.615 159.922 337.573 159.922C329.654 159.922 323.159 159.674 318.086 159.179C313.013 158.56 308.683 157.012 305.094 154.536C301.506 152.059 299.712 148.221 299.712 143.021C299.712 137.944 301.383 134.23 304.723 131.877C308.188 129.401 312.889 127.729 318.828 126.863C318.21 119.681 317.9 109.404 317.9 96.032C317.9 84.0217 318.148 74.3639 318.643 67.0587C311.466 66.3158 305.837 64.5824 301.754 61.8584C297.671 59.1344 295.629 54.8627 295.629 49.0433C295.629 43.3477 297.609 39.1379 301.568 36.4139C305.528 33.69 310.291 32.0184 315.859 31.3993C321.426 30.7802 328.603 30.4707 337.387 30.4707C346.172 30.4707 353.348 30.7802 358.916 31.3993C364.484 32.0184 369.247 33.69 373.206 36.4139C377.289 39.1379 379.331 43.3477 379.331 49.0433C379.331 54.8627 377.228 59.1344 373.021 61.8584C368.938 64.5824 363.246 66.3158 355.946 67.0587C356.565 73.8687 356.874 83.5264 356.874 96.032C356.874 108.042 356.503 118.319 355.761 126.863Z"/>
<path d="M437.132 160.479C421.172 160.479 409.541 158.56 402.241 154.721C394.941 150.883 390.24 144.754 388.136 136.335C386.033 127.915 384.981 114.79 384.981 96.9606C384.981 78.8833 385.971 65.4491 387.951 56.6581C390.054 47.7432 394.694 41.1809 401.87 36.9711C409.17 32.6375 420.739 30.4707 436.576 30.4707C446.103 30.4707 455.815 32.6994 465.714 37.1568C475.612 41.4905 483.963 48.6719 490.768 58.7011C497.573 68.7303 500.976 81.5454 500.976 97.1463C500.976 112.128 497.511 124.386 490.583 133.92C483.654 143.33 475.302 150.14 465.528 154.35C455.753 158.436 446.288 160.479 437.132 160.479ZM425.626 127.791C429.585 128.286 432.431 128.534 434.163 128.534C442.948 128.534 449.753 126.182 454.578 121.476C459.403 116.771 461.816 110.271 461.816 101.975C461.816 94.5462 459.465 88.7887 454.764 84.7027C450.062 80.4929 443.443 78.388 434.905 78.388C431.688 78.388 428.595 78.6357 425.626 79.1309V127.791Z"/>
<path d="M575.405 160.293C561.3 160.293 549.237 157.817 539.215 152.864C529.193 147.911 521.522 140.854 516.202 131.691C511.005 122.405 508.407 111.447 508.407 98.8179C508.407 83.7122 511.562 71.0209 517.872 60.744C524.306 50.4672 532.595 42.8524 542.741 37.8997C552.887 32.947 563.527 30.4707 574.663 30.4707C584.561 30.4707 593.284 31.9565 600.831 34.9281C608.379 37.8997 614.194 41.8 618.277 46.6289C622.36 51.4577 624.401 56.5343 624.401 61.8584C624.401 69.5351 622.422 75.0449 618.462 78.388C614.503 81.6073 609.616 83.2169 603.801 83.2169C601.079 83.2169 598.666 82.9693 596.563 82.474C594.583 81.9787 592.48 81.2977 590.252 80.431C587.778 79.5643 585.551 78.9452 583.571 78.5737C581.715 78.0785 579.364 77.8308 576.519 77.8308C568.353 77.8308 561.919 80.3072 557.217 85.2599C552.516 90.0887 550.165 96.9606 550.165 105.875C550.165 113.428 552.454 119.248 557.032 123.334C561.61 127.42 567.301 129.463 574.106 129.463C577.942 129.463 581.282 128.967 584.128 127.977C586.974 126.986 589.139 125.872 590.624 124.634C592.108 123.396 592.851 122.405 592.851 121.662C583.819 121.662 576.952 120.61 572.25 118.505C567.548 116.4 565.198 112.747 565.198 107.547C565.198 102.347 566.992 98.3226 570.58 95.4748C574.168 92.5032 580.231 91.0174 588.768 91.0174C597.552 91.0174 604.419 92.0698 609.368 94.1747C614.317 96.1558 617.844 99.3131 619.947 103.647C622.05 107.857 623.102 113.49 623.102 120.548C623.102 127.729 620.937 134.353 616.606 140.42C612.4 146.488 606.584 151.316 599.161 154.907C591.861 158.498 583.942 160.293 575.405 160.293Z"/>
<path d="M722.63 130.763C728.569 132.62 731.538 136.52 731.538 142.463C731.538 148.035 728.692 152.431 723.001 155.65C717.309 158.869 707.473 160.479 693.492 160.479C676.046 160.479 661.075 156.269 648.579 147.85C636.206 139.43 630.02 122.715 630.02 97.7035C630.02 85.0741 632.185 73.683 636.515 63.5299C640.846 53.3769 647.28 45.3288 655.817 39.3856C664.478 33.4423 675.057 30.4707 687.553 30.4707C704.256 30.4707 716.01 33.0709 722.815 38.2712C729.62 43.3477 733.023 49.6005 733.023 57.0295C733.023 60.4964 732.157 63.7157 730.425 66.6873C728.692 69.5351 726.094 71.7638 722.63 73.3734C719.66 74.8592 715.825 75.6021 711.123 75.6021L706.112 75.4164C705.122 75.2926 703.699 75.2307 701.844 75.2307C695.41 75.2307 690.337 76.4069 686.625 78.7595C682.913 80.9882 680.377 84.4551 679.016 89.1601C684.212 88.9125 688.914 88.7887 693.121 88.7887C705.617 88.7887 713.721 89.1601 717.433 89.903C721.64 90.7697 724.857 92.4413 727.084 94.9176C729.435 97.394 730.61 100.304 730.61 103.647C730.61 106.99 729.497 109.9 727.269 112.376C725.042 114.728 721.702 116.338 717.248 117.205C713.783 117.948 705.37 118.319 692.007 118.319C686.563 118.319 682.728 118.257 680.501 118.133C684.336 126.305 691.512 130.391 702.029 130.391C702.648 130.391 704.071 130.267 706.298 130.02C709.267 129.772 711.804 129.648 713.907 129.648C717.495 129.648 720.403 130.02 722.63 130.763Z"/>
<path d="M261.46 243.87C261.46 252.042 258.057 257.985 251.252 261.7C244.571 265.29 233.621 267.457 218.402 268.2C218.897 274.143 219.145 281.82 219.145 291.23C219.145 304.355 218.402 314.879 216.918 322.803C215.557 330.604 213.144 336.423 209.68 340.262C206.215 343.976 201.39 345.833 195.203 345.833C189.141 345.833 184.501 343.852 181.284 339.89C178.067 335.928 175.84 330.047 174.603 322.246C173.366 314.446 172.747 304.107 172.747 291.23C172.747 282.563 172.933 274.886 173.304 268.2C163.034 267.705 154.745 266.652 148.434 265.043C142.248 263.309 137.67 260.771 134.701 257.428C131.731 254.085 130.247 249.565 130.247 243.87C130.247 236.936 132.597 231.488 137.299 227.526C142.001 223.564 149.053 220.778 158.456 219.168C167.86 217.559 180.171 216.754 195.389 216.754C210.731 216.754 223.166 217.559 232.693 219.168C242.22 220.778 249.396 223.564 254.221 227.526C259.047 231.488 261.46 236.936 261.46 243.87Z"/>
<path d="M286.611 346.576C278.322 346.576 271.64 342.552 266.568 334.504C261.619 326.332 258.711 315.312 257.845 301.445C257.721 299.464 257.659 296.554 257.659 292.716C257.659 277.734 260.134 264.485 265.083 252.97C270.032 241.332 277.023 232.355 286.055 226.04C295.211 219.602 305.851 216.382 317.976 216.382C330.102 216.382 340.68 219.602 349.713 226.04C358.868 232.355 365.859 241.27 370.684 252.785C375.633 264.3 378.108 277.61 378.108 292.716C378.108 296.554 378.046 299.464 377.922 301.445C377.056 315.56 374.149 326.58 369.2 334.504C364.25 342.428 357.569 346.391 349.156 346.391C342.351 346.391 337.587 344.533 334.865 340.819C332.267 337.104 330.968 332.585 330.968 327.261C330.968 324.784 331.153 322.618 331.525 320.76C325.091 321.008 319.399 321.132 314.45 321.132C311.357 321.132 307.954 321.008 304.243 320.76C304.614 322.618 304.799 324.784 304.799 327.261C304.799 332.709 303.438 337.29 300.716 341.005C298.118 344.719 293.416 346.576 286.611 346.576ZM302.943 287.701C309.625 287.454 314.512 287.33 317.605 287.33C320.946 287.33 325.833 287.454 332.267 287.701C332.514 286.339 332.638 284.296 332.638 281.572C332.638 275.753 331.401 271.048 328.926 267.457C326.452 263.743 322.616 261.885 317.42 261.885C312.347 261.885 308.573 263.681 306.099 267.271C303.624 270.862 302.387 275.505 302.387 281.201C302.387 283.306 302.572 285.473 302.943 287.701Z"/>
<path d="M439.022 346.205C426.526 346.205 415.947 343.667 407.286 338.59C398.625 333.39 392.934 325.651 390.212 315.374C389.098 311.165 388.356 306.026 387.985 299.959C387.614 293.892 387.428 286.153 387.428 276.743C387.428 258.295 389.408 243.622 393.367 232.726C397.45 221.707 405.492 216.197 417.494 216.197C424.918 216.197 430.733 218.797 434.939 223.997C439.27 229.198 441.435 235.636 441.435 243.313C441.435 251.485 440.755 260.214 439.394 269.5C438.033 278.786 436.115 290.054 433.64 303.302C441.311 300.826 449.725 299.588 458.881 299.588C468.408 299.588 476.326 301.321 482.636 304.788C489.07 308.255 492.287 313.889 492.287 321.689C492.287 329.242 489.813 334.814 484.863 338.404C479.914 341.995 473.914 344.224 466.861 345.091C459.809 345.833 450.529 346.205 439.022 346.205Z"/>
<path d="M567.211 282.501C578.223 287.577 587.564 293.706 595.235 300.888C603.03 308.069 606.927 315.87 606.927 324.289C606.927 331.718 604.886 337.228 600.803 340.819C596.72 344.41 591.709 346.205 585.77 346.205C577.233 346.205 569.191 342.305 561.643 334.504C554.22 326.58 547.043 316.241 540.115 303.488C540.115 312.279 539.62 319.646 538.63 325.589C537.764 331.533 535.784 336.485 532.691 340.447C529.598 344.286 524.958 346.205 518.772 346.205C512.338 346.205 507.574 343.79 504.481 338.962C501.512 334.133 499.656 328.313 498.913 321.503C498.295 314.693 497.985 305.779 497.985 294.759C497.985 286.958 498.047 277.734 498.171 267.086C498.418 256.314 498.666 249.627 498.913 247.027C499.161 237.741 501.079 230.312 504.667 224.74C508.255 219.045 513.328 216.197 519.885 216.197C527.433 216.197 532.691 219.416 535.66 225.854C538.754 232.293 540.3 242.136 540.3 255.385V260.957C546.61 249.565 553.91 239.351 562.2 230.312C570.49 221.273 578.779 216.754 587.069 216.754C592.884 216.754 597.648 218.983 601.36 223.44C605.195 227.774 607.113 233.16 607.113 239.598C607.113 248.265 603.401 256.561 595.977 264.485C588.678 272.286 579.089 278.291 567.211 282.501Z"/>
<path d="M624.316 224.926C627.905 219.106 633.905 216.197 642.319 216.197C650.361 216.197 656.176 218.983 659.764 224.554C663.476 230.126 665.332 236.874 665.332 244.798C665.332 251.361 664.713 258.666 663.476 266.714C662.239 274.638 660.507 281.758 658.28 288.073C657.166 291.168 655.248 293.892 652.526 296.245C649.928 298.473 646.525 299.588 642.319 299.588C638.112 299.588 634.648 298.473 631.926 296.245C629.204 293.892 627.286 291.168 626.172 288.073C623.945 281.882 622.213 274.948 620.976 267.271C619.739 259.471 619.12 252.413 619.12 246.099C619.12 237.679 620.852 230.621 624.316 224.926ZM655.681 339.519C651.846 343.357 647.33 345.276 642.133 345.276C636.937 345.276 632.421 343.357 628.585 339.519C624.749 335.68 622.832 331.161 622.832 325.961C622.832 320.76 624.749 316.241 628.585 312.403C632.421 308.564 636.937 306.645 642.133 306.645C647.33 306.645 651.846 308.564 655.681 312.403C659.517 316.241 661.435 320.76 661.435 325.961C661.435 331.161 659.517 335.68 655.681 339.519Z"/>
<path d="M79.765 210.617C81.8238 212.282 83.368 213.866 84.3974 215.372C85.4268 216.798 85.9415 218.304 85.9415 219.889C85.9415 222.187 85.11 224.327 83.4471 226.308C81.7843 228.209 79.6462 229.16 77.0331 229.16C75.2118 229.16 72.8363 228.645 69.9064 227.615C69.2729 231.419 68.2039 234.272 66.6994 236.173C65.2741 238.075 63.1756 239.026 60.4041 239.026C57.2367 239.026 54.8611 238.115 53.2774 236.292C51.6937 234.39 50.6643 231.498 50.1892 227.615C47.2593 228.645 44.8838 229.16 43.0625 229.16C40.3702 229.16 38.1926 228.209 36.5297 226.308C34.946 224.327 34.1541 222.187 34.1541 219.889C34.1541 218.304 34.6688 216.798 35.6982 215.372C36.7276 213.866 38.2718 212.282 40.3306 210.617C36.1338 207.131 34.0353 203.882 34.0353 200.871C34.0353 198.731 34.8668 196.671 36.5297 194.69C38.1926 192.709 40.291 191.718 42.8249 191.718C44.9629 191.718 47.4177 192.312 50.1892 193.501C50.7435 189.697 51.7729 186.884 53.2774 185.062C54.782 183.16 57.0387 182.209 60.0478 182.209C62.8985 182.209 65.0761 183.16 66.5806 185.062C68.1643 186.884 69.2729 189.697 69.9064 193.501C72.7571 192.312 75.2118 191.718 77.2707 191.718C79.0128 191.718 80.5569 192.233 81.903 193.263C83.2492 194.214 84.2786 195.403 84.9913 196.829C85.7039 198.256 86.0603 199.603 86.0603 200.871C86.0603 203.882 83.9619 207.131 79.765 210.617Z"/>
<path d="M797.243 78.5217C798.787 79.7698 799.945 80.9585 800.717 82.0877C801.49 83.1575 801.876 84.2867 801.876 85.4753C801.876 87.1989 801.252 88.8035 800.005 90.2893C798.758 91.7157 797.154 92.4289 795.194 92.4289C793.828 92.4289 792.047 92.0426 789.849 91.27C789.374 94.1227 788.572 96.2623 787.444 97.6887C786.375 99.115 784.801 99.8282 782.723 99.8282C780.347 99.8282 778.565 99.1448 777.377 97.7778C776.19 96.3514 775.418 94.1822 775.061 91.27C772.864 92.0426 771.082 92.4289 769.716 92.4289C767.697 92.4289 766.064 91.7157 764.817 90.2893C763.629 88.8035 763.035 87.1989 763.035 85.4753C763.035 84.2867 763.421 83.1575 764.193 82.0877C764.965 80.9585 766.123 79.7698 767.667 78.5217C764.52 75.9067 762.946 73.47 762.946 71.2116C762.946 69.6069 763.57 68.0616 764.817 66.5758C766.064 65.09 767.638 64.3471 769.538 64.3471C771.142 64.3471 772.983 64.7929 775.061 65.6844C775.477 62.8316 776.249 60.7218 777.377 59.3548C778.506 57.9284 780.198 57.2153 782.455 57.2153C784.593 57.2153 786.226 57.9284 787.355 59.3548C788.543 60.7218 789.374 62.8316 789.849 65.6844C791.987 64.7929 793.828 64.3471 795.372 64.3471C796.679 64.3471 797.837 64.7334 798.847 65.5061C799.856 66.2192 800.628 67.1107 801.163 68.1805C801.697 69.2503 801.965 70.2606 801.965 71.2116C801.965 73.47 800.391 75.9067 797.243 78.5217Z"/>
<path d="M740.47 315.553C742.528 317.217 744.073 318.802 745.102 320.307C746.131 321.734 746.646 323.239 746.646 324.824C746.646 327.122 745.815 329.262 744.152 331.243C742.489 333.145 740.351 334.096 737.738 334.096C735.917 334.096 733.541 333.581 730.611 332.55C729.978 336.354 728.909 339.207 727.404 341.109C725.979 343.01 723.88 343.961 721.109 343.961C717.941 343.961 715.566 343.05 713.982 341.227C712.398 339.326 711.369 336.433 710.894 332.55C707.964 333.581 705.588 334.096 703.767 334.096C701.075 334.096 698.897 333.145 697.234 331.243C695.651 329.262 694.859 327.122 694.859 324.824C694.859 323.239 695.373 321.734 696.403 320.307C697.432 318.802 698.976 317.217 701.035 315.553C696.838 312.066 694.74 308.817 694.74 305.806C694.74 303.666 695.571 301.606 697.234 299.625C698.897 297.644 700.996 296.653 703.53 296.653C705.668 296.653 708.122 297.248 710.894 298.436C711.448 294.632 712.478 291.819 713.982 289.997C715.487 288.095 717.743 287.144 720.752 287.144C723.603 287.144 725.781 288.095 727.285 289.997C728.869 291.819 729.978 294.632 730.611 298.436C733.462 297.248 735.916 296.653 737.975 296.653C739.717 296.653 741.262 297.168 742.608 298.198C743.954 299.149 744.983 300.338 745.696 301.764C746.409 303.191 746.765 304.538 746.765 305.806C746.765 308.817 744.666 312.066 740.47 315.553Z"/>
<path d="M253.461 383.112C255.005 384.36 256.163 385.549 256.935 386.678C257.707 387.748 258.093 388.877 258.093 390.066C258.093 391.789 257.47 393.394 256.223 394.88C254.975 396.306 253.372 397.02 251.412 397.02C250.046 397.02 248.264 396.633 246.067 395.861C245.592 398.713 244.79 400.853 243.662 402.279C242.593 403.706 241.019 404.419 238.94 404.419C236.565 404.419 234.783 403.735 233.595 402.368C232.408 400.942 231.635 398.773 231.279 395.861C229.082 396.633 227.3 397.02 225.934 397.02C223.915 397.02 222.282 396.306 221.034 394.88C219.847 393.394 219.253 391.789 219.253 390.066C219.253 388.877 219.639 387.748 220.411 386.678C221.183 385.549 222.341 384.36 223.885 383.112C220.738 380.497 219.164 378.061 219.164 375.802C219.164 374.198 219.787 372.652 221.034 371.166C222.282 369.681 223.855 368.938 225.756 368.938C227.359 368.938 229.2 369.384 231.279 370.275C231.695 367.422 232.467 365.312 233.595 363.945C234.724 362.519 236.416 361.806 238.673 361.806C240.811 361.806 242.444 362.519 243.573 363.945C244.76 365.312 245.592 367.422 246.067 370.275C248.205 369.384 250.046 368.938 251.59 368.938C252.897 368.938 254.055 369.324 255.064 370.097C256.074 370.81 256.846 371.701 257.381 372.771C257.915 373.841 258.182 374.851 258.182 375.802C258.182 378.061 256.609 380.497 253.461 383.112Z"/>
</mask>
<path d="M126.702 160.293C106.163 160.169 90.7594 155.093 80.49 145.064C70.3443 135.034 65.2715 118.752 65.2715 96.2177C65.2715 75.7878 70.2206 59.7535 80.1188 48.1147C90.017 36.352 103.998 30.4707 122.062 30.4707C133.198 30.4707 142.91 32.1422 151.2 35.4853C159.49 38.8284 165.862 43.5953 170.316 49.7862C174.77 55.9771 176.997 63.2823 176.997 71.7019C176.997 78.388 175.513 84.3312 172.543 89.5316C169.697 94.7319 165.429 99.3751 159.737 103.461C164.315 104.204 168.275 106.68 171.615 110.89C175.08 115.1 176.812 119.991 176.812 125.562C176.812 131.506 175.203 137.139 171.986 142.463C168.893 147.664 163.573 151.936 156.026 155.279C148.602 158.622 138.827 160.293 126.702 160.293ZM113.896 91.0174C116.123 92.1317 118.907 92.6889 122.248 92.6889C126.207 92.6889 129.61 91.7603 132.456 89.903C135.425 87.9219 136.91 85.0122 136.91 81.1739C136.91 77.4594 135.425 74.6735 132.456 72.8162C129.61 70.8352 126.145 69.8446 122.062 69.8446C118.845 69.8446 116.123 70.4018 113.896 71.5162C112.164 72.2591 110.865 73.5591 109.999 75.4164C109.133 77.2737 108.7 79.2547 108.7 81.3596C108.7 83.4645 109.133 85.4456 109.999 87.3029C110.865 89.0363 112.164 90.2745 113.896 91.0174ZM113.896 134.477C116.247 135.468 119.031 135.963 122.248 135.963C126.207 135.963 129.61 135.158 132.456 133.549C135.425 131.815 136.91 129.277 136.91 125.934C136.91 122.715 135.425 120.238 132.456 118.505C129.486 116.771 126.022 115.905 122.062 115.905C118.969 115.905 116.247 116.4 113.896 117.39C112.164 118.133 110.865 119.31 109.999 120.919C109.133 122.405 108.7 124.077 108.7 125.934C108.7 127.791 109.133 129.525 109.999 131.134C110.865 132.62 112.164 133.734 113.896 134.477Z" fill="white"/>
<path d="M295.555 83.0312C295.555 92.0698 294.194 100.056 291.472 106.99C288.874 113.924 285.162 119.743 280.337 124.448C284.42 130.763 286.461 136.892 286.461 142.835C286.461 147.911 284.482 152.121 280.522 155.464C276.687 158.807 272.295 160.479 267.346 160.479C264.5 160.479 261.902 160.046 259.551 159.179C257.2 158.312 254.663 156.826 251.941 154.721C249.591 152.864 247.364 150.326 245.26 147.107C243.157 143.887 241.486 140.544 240.249 137.077C236.166 136.582 232.083 135.53 228 133.92C228.743 137.882 229.114 140.916 229.114 143.021C229.114 154.783 222.989 160.665 210.74 160.665C200.471 160.665 193.233 154.66 189.026 142.649C184.819 130.639 182.716 115.967 182.716 98.6322C182.716 86.8695 184.819 75.8498 189.026 65.5729C193.356 55.1723 199.914 46.8146 208.699 40.4999C217.483 34.0614 228.186 30.8422 240.806 30.8422C250.952 30.8422 260.169 33.009 268.459 37.3426C276.749 41.5524 283.306 47.6194 288.132 55.5437C293.081 63.468 295.555 72.6305 295.555 83.0312ZM226.144 91.7603C226.144 95.9701 227.815 99.6846 231.155 102.904C234.496 105.999 238.331 107.547 242.662 107.547C247.116 107.547 250.952 105.999 254.169 102.904C257.509 99.6846 259.18 95.9701 259.18 91.7603C259.18 87.4267 257.509 83.7122 254.169 80.6167C250.952 77.3975 247.116 75.7879 242.662 75.7879C238.331 75.7879 234.496 77.3975 231.155 80.6167C227.815 83.836 226.144 87.5505 226.144 91.7603Z" fill="white"/>
<path d="M355.761 126.863C362.071 127.605 366.958 129.215 370.423 131.691C374.011 134.044 375.805 137.82 375.805 143.021C375.805 148.221 373.949 152.059 370.237 154.536C366.649 157.012 362.318 158.56 357.246 159.179C352.173 159.674 345.615 159.922 337.573 159.922C329.654 159.922 323.159 159.674 318.086 159.179C313.013 158.56 308.683 157.012 305.094 154.536C301.506 152.059 299.712 148.221 299.712 143.021C299.712 137.944 301.383 134.23 304.723 131.877C308.188 129.401 312.889 127.729 318.828 126.863C318.21 119.681 317.9 109.404 317.9 96.032C317.9 84.0217 318.148 74.3639 318.643 67.0587C311.466 66.3158 305.837 64.5824 301.754 61.8584C297.671 59.1344 295.629 54.8627 295.629 49.0433C295.629 43.3477 297.609 39.1379 301.568 36.4139C305.528 33.69 310.291 32.0184 315.859 31.3993C321.426 30.7802 328.603 30.4707 337.387 30.4707C346.172 30.4707 353.348 30.7802 358.916 31.3993C364.484 32.0184 369.247 33.69 373.206 36.4139C377.289 39.1379 379.331 43.3477 379.331 49.0433C379.331 54.8627 377.228 59.1344 373.021 61.8584C368.938 64.5824 363.246 66.3158 355.946 67.0587C356.565 73.8687 356.874 83.5264 356.874 96.032C356.874 108.042 356.503 118.319 355.761 126.863Z" fill="white"/>
<path d="M437.132 160.479C421.172 160.479 409.541 158.56 402.241 154.721C394.941 150.883 390.24 144.754 388.136 136.335C386.033 127.915 384.981 114.79 384.981 96.9606C384.981 78.8833 385.971 65.4491 387.951 56.6581C390.054 47.7432 394.694 41.1809 401.87 36.9711C409.17 32.6375 420.739 30.4707 436.576 30.4707C446.103 30.4707 455.815 32.6994 465.714 37.1568C475.612 41.4905 483.963 48.6719 490.768 58.7011C497.573 68.7303 500.976 81.5454 500.976 97.1463C500.976 112.128 497.511 124.386 490.583 133.92C483.654 143.33 475.302 150.14 465.528 154.35C455.753 158.436 446.288 160.479 437.132 160.479ZM425.626 127.791C429.585 128.286 432.431 128.534 434.163 128.534C442.948 128.534 449.753 126.182 454.578 121.476C459.403 116.771 461.816 110.271 461.816 101.975C461.816 94.5462 459.465 88.7887 454.764 84.7027C450.062 80.4929 443.443 78.388 434.905 78.388C431.688 78.388 428.595 78.6357 425.626 79.1309V127.791Z" fill="white"/>
<path d="M575.405 160.293C561.3 160.293 549.237 157.817 539.215 152.864C529.193 147.911 521.522 140.854 516.202 131.691C511.005 122.405 508.407 111.447 508.407 98.8179C508.407 83.7122 511.562 71.0209 517.872 60.744C524.306 50.4672 532.595 42.8524 542.741 37.8997C552.887 32.947 563.527 30.4707 574.663 30.4707C584.561 30.4707 593.284 31.9565 600.831 34.9281C608.379 37.8997 614.194 41.8 618.277 46.6289C622.36 51.4577 624.401 56.5343 624.401 61.8584C624.401 69.5351 622.422 75.0449 618.462 78.388C614.503 81.6073 609.616 83.2169 603.801 83.2169C601.079 83.2169 598.666 82.9693 596.563 82.474C594.583 81.9787 592.48 81.2977 590.252 80.431C587.778 79.5643 585.551 78.9452 583.571 78.5737C581.715 78.0785 579.364 77.8308 576.519 77.8308C568.353 77.8308 561.919 80.3072 557.217 85.2599C552.516 90.0887 550.165 96.9606 550.165 105.875C550.165 113.428 552.454 119.248 557.032 123.334C561.61 127.42 567.301 129.463 574.106 129.463C577.942 129.463 581.282 128.967 584.128 127.977C586.974 126.986 589.139 125.872 590.624 124.634C592.108 123.396 592.851 122.405 592.851 121.662C583.819 121.662 576.952 120.61 572.25 118.505C567.548 116.4 565.198 112.747 565.198 107.547C565.198 102.347 566.992 98.3226 570.58 95.4748C574.168 92.5032 580.231 91.0174 588.768 91.0174C597.552 91.0174 604.419 92.0698 609.368 94.1747C614.317 96.1558 617.844 99.3131 619.947 103.647C622.05 107.857 623.102 113.49 623.102 120.548C623.102 127.729 620.937 134.353 616.606 140.42C612.4 146.488 606.584 151.316 599.161 154.907C591.861 158.498 583.942 160.293 575.405 160.293Z" fill="white"/>
<path d="M722.63 130.763C728.569 132.62 731.538 136.52 731.538 142.463C731.538 148.035 728.692 152.431 723.001 155.65C717.309 158.869 707.473 160.479 693.492 160.479C676.046 160.479 661.075 156.269 648.579 147.85C636.206 139.43 630.02 122.715 630.02 97.7035C630.02 85.0741 632.185 73.683 636.515 63.5299C640.846 53.3769 647.28 45.3288 655.817 39.3856C664.478 33.4423 675.057 30.4707 687.553 30.4707C704.256 30.4707 716.01 33.0709 722.815 38.2712C729.62 43.3477 733.023 49.6005 733.023 57.0295C733.023 60.4964 732.157 63.7157 730.425 66.6873C728.692 69.5351 726.094 71.7638 722.63 73.3734C719.66 74.8592 715.825 75.6021 711.123 75.6021L706.112 75.4164C705.122 75.2926 703.699 75.2307 701.844 75.2307C695.41 75.2307 690.337 76.4069 686.625 78.7595C682.913 80.9882 680.377 84.4551 679.016 89.1601C684.212 88.9125 688.914 88.7887 693.121 88.7887C705.617 88.7887 713.721 89.1601 717.433 89.903C721.64 90.7697 724.857 92.4413 727.084 94.9176C729.435 97.394 730.61 100.304 730.61 103.647C730.61 106.99 729.497 109.9 727.269 112.376C725.042 114.728 721.702 116.338 717.248 117.205C713.783 117.948 705.37 118.319 692.007 118.319C686.563 118.319 682.728 118.257 680.501 118.133C684.336 126.305 691.512 130.391 702.029 130.391C702.648 130.391 704.071 130.267 706.298 130.02C709.267 129.772 711.804 129.648 713.907 129.648C717.495 129.648 720.403 130.02 722.63 130.763Z" fill="white"/>
<path d="M261.46 243.87C261.46 252.042 258.057 257.985 251.252 261.7C244.571 265.29 233.621 267.457 218.402 268.2C218.897 274.143 219.145 281.82 219.145 291.23C219.145 304.355 218.402 314.879 216.918 322.803C215.557 330.604 213.144 336.423 209.68 340.262C206.215 343.976 201.39 345.833 195.203 345.833C189.141 345.833 184.501 343.852 181.284 339.89C178.067 335.928 175.84 330.047 174.603 322.246C173.366 314.446 172.747 304.107 172.747 291.23C172.747 282.563 172.933 274.886 173.304 268.2C163.034 267.705 154.745 266.652 148.434 265.043C142.248 263.309 137.67 260.771 134.701 257.428C131.731 254.085 130.247 249.565 130.247 243.87C130.247 236.936 132.597 231.488 137.299 227.526C142.001 223.564 149.053 220.778 158.456 219.168C167.86 217.559 180.171 216.754 195.389 216.754C210.731 216.754 223.166 217.559 232.693 219.168C242.22 220.778 249.396 223.564 254.221 227.526C259.047 231.488 261.46 236.936 261.46 243.87Z" fill="white"/>
<path d="M286.611 346.576C278.322 346.576 271.64 342.552 266.568 334.504C261.619 326.332 258.711 315.312 257.845 301.445C257.721 299.464 257.659 296.554 257.659 292.716C257.659 277.734 260.134 264.485 265.083 252.97C270.032 241.332 277.023 232.355 286.055 226.04C295.211 219.602 305.851 216.382 317.976 216.382C330.102 216.382 340.68 219.602 349.713 226.04C358.868 232.355 365.859 241.27 370.684 252.785C375.633 264.3 378.108 277.61 378.108 292.716C378.108 296.554 378.046 299.464 377.922 301.445C377.056 315.56 374.149 326.58 369.2 334.504C364.25 342.428 357.569 346.391 349.156 346.391C342.351 346.391 337.587 344.533 334.865 340.819C332.267 337.104 330.968 332.585 330.968 327.261C330.968 324.784 331.153 322.618 331.525 320.76C325.091 321.008 319.399 321.132 314.45 321.132C311.357 321.132 307.954 321.008 304.243 320.76C304.614 322.618 304.799 324.784 304.799 327.261C304.799 332.709 303.438 337.29 300.716 341.005C298.118 344.719 293.416 346.576 286.611 346.576ZM302.943 287.701C309.625 287.454 314.512 287.33 317.605 287.33C320.946 287.33 325.833 287.454 332.267 287.701C332.514 286.339 332.638 284.296 332.638 281.572C332.638 275.753 331.401 271.048 328.926 267.457C326.452 263.743 322.616 261.885 317.42 261.885C312.347 261.885 308.573 263.681 306.099 267.271C303.624 270.862 302.387 275.505 302.387 281.201C302.387 283.306 302.572 285.473 302.943 287.701Z" fill="white"/>
<path d="M439.022 346.205C426.526 346.205 415.947 343.667 407.286 338.59C398.625 333.39 392.934 325.651 390.212 315.374C389.098 311.165 388.356 306.026 387.985 299.959C387.614 293.892 387.428 286.153 387.428 276.743C387.428 258.295 389.408 243.622 393.367 232.726C397.45 221.707 405.492 216.197 417.494 216.197C424.918 216.197 430.733 218.797 434.939 223.997C439.27 229.198 441.435 235.636 441.435 243.313C441.435 251.485 440.755 260.214 439.394 269.5C438.033 278.786 436.115 290.054 433.64 303.302C441.311 300.826 449.725 299.588 458.881 299.588C468.408 299.588 476.326 301.321 482.636 304.788C489.07 308.255 492.287 313.889 492.287 321.689C492.287 329.242 489.813 334.814 484.863 338.404C479.914 341.995 473.914 344.224 466.861 345.091C459.809 345.833 450.529 346.205 439.022 346.205Z" fill="white"/>
<path d="M567.211 282.501C578.223 287.577 587.564 293.706 595.235 300.888C603.03 308.069 606.927 315.87 606.927 324.289C606.927 331.718 604.886 337.228 600.803 340.819C596.72 344.41 591.709 346.205 585.77 346.205C577.233 346.205 569.191 342.305 561.643 334.504C554.22 326.58 547.043 316.241 540.115 303.488C540.115 312.279 539.62 319.646 538.63 325.589C537.764 331.533 535.784 336.485 532.691 340.447C529.598 344.286 524.958 346.205 518.772 346.205C512.338 346.205 507.574 343.79 504.481 338.962C501.512 334.133 499.656 328.313 498.913 321.503C498.295 314.693 497.985 305.779 497.985 294.759C497.985 286.958 498.047 277.734 498.171 267.086C498.418 256.314 498.666 249.627 498.913 247.027C499.161 237.741 501.079 230.312 504.667 224.74C508.255 219.045 513.328 216.197 519.885 216.197C527.433 216.197 532.691 219.416 535.66 225.854C538.754 232.293 540.3 242.136 540.3 255.385V260.957C546.61 249.565 553.91 239.351 562.2 230.312C570.49 221.273 578.779 216.754 587.069 216.754C592.884 216.754 597.648 218.983 601.36 223.44C605.195 227.774 607.113 233.16 607.113 239.598C607.113 248.265 603.401 256.561 595.977 264.485C588.678 272.286 579.089 278.291 567.211 282.501Z" fill="white"/>
<path d="M624.316 224.926C627.905 219.106 633.905 216.197 642.319 216.197C650.361 216.197 656.176 218.983 659.764 224.554C663.476 230.126 665.332 236.874 665.332 244.798C665.332 251.361 664.713 258.666 663.476 266.714C662.239 274.638 660.507 281.758 658.28 288.073C657.166 291.168 655.248 293.892 652.526 296.245C649.928 298.473 646.525 299.588 642.319 299.588C638.112 299.588 634.648 298.473 631.926 296.245C629.204 293.892 627.286 291.168 626.172 288.073C623.945 281.882 622.213 274.948 620.976 267.271C619.739 259.471 619.12 252.413 619.12 246.099C619.12 237.679 620.852 230.621 624.316 224.926ZM655.681 339.519C651.846 343.357 647.33 345.276 642.133 345.276C636.937 345.276 632.421 343.357 628.585 339.519C624.749 335.68 622.832 331.161 622.832 325.961C622.832 320.76 624.749 316.241 628.585 312.403C632.421 308.564 636.937 306.645 642.133 306.645C647.33 306.645 651.846 308.564 655.681 312.403C659.517 316.241 661.435 320.76 661.435 325.961C661.435 331.161 659.517 335.68 655.681 339.519Z" fill="white"/>
<path d="M79.765 210.617C81.8238 212.282 83.368 213.866 84.3974 215.372C85.4268 216.798 85.9415 218.304 85.9415 219.889C85.9415 222.187 85.11 224.327 83.4471 226.308C81.7843 228.209 79.6462 229.16 77.0331 229.16C75.2118 229.16 72.8363 228.645 69.9064 227.615C69.2729 231.419 68.2039 234.272 66.6994 236.173C65.2741 238.075 63.1756 239.026 60.4041 239.026C57.2367 239.026 54.8611 238.115 53.2774 236.292C51.6937 234.39 50.6643 231.498 50.1892 227.615C47.2593 228.645 44.8838 229.16 43.0625 229.16C40.3702 229.16 38.1926 228.209 36.5297 226.308C34.946 224.327 34.1541 222.187 34.1541 219.889C34.1541 218.304 34.6688 216.798 35.6982 215.372C36.7276 213.866 38.2718 212.282 40.3306 210.617C36.1338 207.131 34.0353 203.882 34.0353 200.871C34.0353 198.731 34.8668 196.671 36.5297 194.69C38.1926 192.709 40.291 191.718 42.8249 191.718C44.9629 191.718 47.4177 192.312 50.1892 193.501C50.7435 189.697 51.7729 186.884 53.2774 185.062C54.782 183.16 57.0387 182.209 60.0478 182.209C62.8985 182.209 65.0761 183.16 66.5806 185.062C68.1643 186.884 69.2729 189.697 69.9064 193.501C72.7571 192.312 75.2118 191.718 77.2707 191.718C79.0128 191.718 80.5569 192.233 81.903 193.263C83.2492 194.214 84.2786 195.403 84.9913 196.829C85.7039 198.256 86.0603 199.603 86.0603 200.871C86.0603 203.882 83.9619 207.131 79.765 210.617Z" fill="white"/>
<path d="M797.243 78.5217C798.787 79.7698 799.945 80.9585 800.717 82.0877C801.49 83.1575 801.876 84.2867 801.876 85.4753C801.876 87.1989 801.252 88.8035 800.005 90.2893C798.758 91.7157 797.154 92.4289 795.194 92.4289C793.828 92.4289 792.047 92.0426 789.849 91.27C789.374 94.1227 788.572 96.2623 787.444 97.6887C786.375 99.115 784.801 99.8282 782.723 99.8282C780.347 99.8282 778.565 99.1448 777.377 97.7778C776.19 96.3514 775.418 94.1822 775.061 91.27C772.864 92.0426 771.082 92.4289 769.716 92.4289C767.697 92.4289 766.064 91.7157 764.817 90.2893C763.629 88.8035 763.035 87.1989 763.035 85.4753C763.035 84.2867 763.421 83.1575 764.193 82.0877C764.965 80.9585 766.123 79.7698 767.667 78.5217C764.52 75.9067 762.946 73.47 762.946 71.2116C762.946 69.6069 763.57 68.0616 764.817 66.5758C766.064 65.09 767.638 64.3471 769.538 64.3471C771.142 64.3471 772.983 64.7929 775.061 65.6844C775.477 62.8316 776.249 60.7218 777.377 59.3548C778.506 57.9284 780.198 57.2153 782.455 57.2153C784.593 57.2153 786.226 57.9284 787.355 59.3548C788.543 60.7218 789.374 62.8316 789.849 65.6844C791.987 64.7929 793.828 64.3471 795.372 64.3471C796.679 64.3471 797.837 64.7334 798.847 65.5061C799.856 66.2192 800.628 67.1107 801.163 68.1805C801.697 69.2503 801.965 70.2606 801.965 71.2116C801.965 73.47 800.391 75.9067 797.243 78.5217Z" fill="white"/>
<path d="M740.47 315.553C742.528 317.217 744.073 318.802 745.102 320.307C746.131 321.734 746.646 323.239 746.646 324.824C746.646 327.122 745.815 329.262 744.152 331.243C742.489 333.145 740.351 334.096 737.738 334.096C735.917 334.096 733.541 333.581 730.611 332.55C729.978 336.354 728.909 339.207 727.404 341.109C725.979 343.01 723.88 343.961 721.109 343.961C717.941 343.961 715.566 343.05 713.982 341.227C712.398 339.326 711.369 336.433 710.894 332.55C707.964 333.581 705.588 334.096 703.767 334.096C701.075 334.096 698.897 333.145 697.234 331.243C695.651 329.262 694.859 327.122 694.859 324.824C694.859 323.239 695.373 321.734 696.403 320.307C697.432 318.802 698.976 317.217 701.035 315.553C696.838 312.066 694.74 308.817 694.74 305.806C694.74 303.666 695.571 301.606 697.234 299.625C698.897 297.644 700.996 296.653 703.53 296.653C705.668 296.653 708.122 297.248 710.894 298.436C711.448 294.632 712.478 291.819 713.982 289.997C715.487 288.095 717.743 287.144 720.752 287.144C723.603 287.144 725.781 288.095 727.285 289.997C728.869 291.819 729.978 294.632 730.611 298.436C733.462 297.248 735.916 296.653 737.975 296.653C739.717 296.653 741.262 297.168 742.608 298.198C743.954 299.149 744.983 300.338 745.696 301.764C746.409 303.191 746.765 304.538 746.765 305.806C746.765 308.817 744.666 312.066 740.47 315.553Z" fill="white"/>
<path d="M253.461 383.112C255.005 384.36 256.163 385.549 256.935 386.678C257.707 387.748 258.093 388.877 258.093 390.066C258.093 391.789 257.47 393.394 256.223 394.88C254.975 396.306 253.372 397.02 251.412 397.02C250.046 397.02 248.264 396.633 246.067 395.861C245.592 398.713 244.79 400.853 243.662 402.279C242.593 403.706 241.019 404.419 238.94 404.419C236.565 404.419 234.783 403.735 233.595 402.368C232.408 400.942 231.635 398.773 231.279 395.861C229.082 396.633 227.3 397.02 225.934 397.02C223.915 397.02 222.282 396.306 221.034 394.88C219.847 393.394 219.253 391.789 219.253 390.066C219.253 388.877 219.639 387.748 220.411 386.678C221.183 385.549 222.341 384.36 223.885 383.112C220.738 380.497 219.164 378.061 219.164 375.802C219.164 374.198 219.787 372.652 221.034 371.166C222.282 369.681 223.855 368.938 225.756 368.938C227.359 368.938 229.2 369.384 231.279 370.275C231.695 367.422 232.467 365.312 233.595 363.945C234.724 362.519 236.416 361.806 238.673 361.806C240.811 361.806 242.444 362.519 243.573 363.945C244.76 365.312 245.592 367.422 246.067 370.275C248.205 369.384 250.046 368.938 251.59 368.938C252.897 368.938 254.055 369.324 255.064 370.097C256.074 370.81 256.846 371.701 257.381 372.771C257.915 373.841 258.182 374.851 258.182 375.802C258.182 378.061 256.609 380.497 253.461 383.112Z" fill="white"/>
<path d="M126.702 160.293C106.163 160.169 90.7594 155.093 80.49 145.064C70.3443 135.034 65.2715 118.752 65.2715 96.2177C65.2715 75.7878 70.2206 59.7535 80.1188 48.1147C90.017 36.352 103.998 30.4707 122.062 30.4707C133.198 30.4707 142.91 32.1422 151.2 35.4853C159.49 38.8284 165.862 43.5953 170.316 49.7862C174.77 55.9771 176.997 63.2823 176.997 71.7019C176.997 78.388 175.513 84.3312 172.543 89.5316C169.697 94.7319 165.429 99.3751 159.737 103.461C164.315 104.204 168.275 106.68 171.615 110.89C175.08 115.1 176.812 119.991 176.812 125.562C176.812 131.506 175.203 137.139 171.986 142.463C168.893 147.664 163.573 151.936 156.026 155.279C148.602 158.622 138.827 160.293 126.702 160.293ZM113.896 91.0174C116.123 92.1317 118.907 92.6889 122.248 92.6889C126.207 92.6889 129.61 91.7603 132.456 89.903C135.425 87.9219 136.91 85.0122 136.91 81.1739C136.91 77.4594 135.425 74.6735 132.456 72.8162C129.61 70.8352 126.145 69.8446 122.062 69.8446C118.845 69.8446 116.123 70.4018 113.896 71.5162C112.164 72.2591 110.865 73.5591 109.999 75.4164C109.133 77.2737 108.7 79.2547 108.7 81.3596C108.7 83.4645 109.133 85.4456 109.999 87.3029C110.865 89.0363 112.164 90.2745 113.896 91.0174ZM113.896 134.477C116.247 135.468 119.031 135.963 122.248 135.963C126.207 135.963 129.61 135.158 132.456 133.549C135.425 131.815 136.91 129.277 136.91 125.934C136.91 122.715 135.425 120.238 132.456 118.505C129.486 116.771 126.022 115.905 122.062 115.905C118.969 115.905 116.247 116.4 113.896 117.39C112.164 118.133 110.865 119.31 109.999 120.919C109.133 122.405 108.7 124.077 108.7 125.934C108.7 127.791 109.133 129.525 109.999 131.134C110.865 132.62 112.164 133.734 113.896 134.477Z" stroke="#6C95FF" stroke-width="60" mask="url(#path-1-outside-1_732_63)"/>
<path d="M295.555 83.0312C295.555 92.0698 294.194 100.056 291.472 106.99C288.874 113.924 285.162 119.743 280.337 124.448C284.42 130.763 286.461 136.892 286.461 142.835C286.461 147.911 284.482 152.121 280.522 155.464C276.687 158.807 272.295 160.479 267.346 160.479C264.5 160.479 261.902 160.046 259.551 159.179C257.2 158.312 254.663 156.826 251.941 154.721C249.591 152.864 247.364 150.326 245.26 147.107C243.157 143.887 241.486 140.544 240.249 137.077C236.166 136.582 232.083 135.53 228 133.92C228.743 137.882 229.114 140.916 229.114 143.021C229.114 154.783 222.989 160.665 210.74 160.665C200.471 160.665 193.233 154.66 189.026 142.649C184.819 130.639 182.716 115.967 182.716 98.6322C182.716 86.8695 184.819 75.8498 189.026 65.5729C193.356 55.1723 199.914 46.8146 208.699 40.4999C217.483 34.0614 228.186 30.8422 240.806 30.8422C250.952 30.8422 260.169 33.009 268.459 37.3426C276.749 41.5524 283.306 47.6194 288.132 55.5437C293.081 63.468 295.555 72.6305 295.555 83.0312ZM226.144 91.7603C226.144 95.9701 227.815 99.6846 231.155 102.904C234.496 105.999 238.331 107.547 242.662 107.547C247.116 107.547 250.952 105.999 254.169 102.904C257.509 99.6846 259.18 95.9701 259.18 91.7603C259.18 87.4267 257.509 83.7122 254.169 80.6167C250.952 77.3975 247.116 75.7879 242.662 75.7879C238.331 75.7879 234.496 77.3975 231.155 80.6167C227.815 83.836 226.144 87.5505 226.144 91.7603Z" stroke="#6C95FF" stroke-width="60" mask="url(#path-1-outside-1_732_63)"/>
<path d="M355.761 126.863C362.071 127.605 366.958 129.215 370.423 131.691C374.011 134.044 375.805 137.82 375.805 143.021C375.805 148.221 373.949 152.059 370.237 154.536C366.649 157.012 362.318 158.56 357.246 159.179C352.173 159.674 345.615 159.922 337.573 159.922C329.654 159.922 323.159 159.674 318.086 159.179C313.013 158.56 308.683 157.012 305.094 154.536C301.506 152.059 299.712 148.221 299.712 143.021C299.712 137.944 301.383 134.23 304.723 131.877C308.188 129.401 312.889 127.729 318.828 126.863C318.21 119.681 317.9 109.404 317.9 96.032C317.9 84.0217 318.148 74.3639 318.643 67.0587C311.466 66.3158 305.837 64.5824 301.754 61.8584C297.671 59.1344 295.629 54.8627 295.629 49.0433C295.629 43.3477 297.609 39.1379 301.568 36.4139C305.528 33.69 310.291 32.0184 315.859 31.3993C321.426 30.7802 328.603 30.4707 337.387 30.4707C346.172 30.4707 353.348 30.7802 358.916 31.3993C364.484 32.0184 369.247 33.69 373.206 36.4139C377.289 39.1379 379.331 43.3477 379.331 49.0433C379.331 54.8627 377.228 59.1344 373.021 61.8584C368.938 64.5824 363.246 66.3158 355.946 67.0587C356.565 73.8687 356.874 83.5264 356.874 96.032C356.874 108.042 356.503 118.319 355.761 126.863Z" stroke="#6C95FF" stroke-width="60" mask="url(#path-1-outside-1_732_63)"/>
<path d="M437.132 160.479C421.172 160.479 409.541 158.56 402.241 154.721C394.941 150.883 390.24 144.754 388.136 136.335C386.033 127.915 384.981 114.79 384.981 96.9606C384.981 78.8833 385.971 65.4491 387.951 56.6581C390.054 47.7432 394.694 41.1809 401.87 36.9711C409.17 32.6375 420.739 30.4707 436.576 30.4707C446.103 30.4707 455.815 32.6994 465.714 37.1568C475.612 41.4905 483.963 48.6719 490.768 58.7011C497.573 68.7303 500.976 81.5454 500.976 97.1463C500.976 112.128 497.511 124.386 490.583 133.92C483.654 143.33 475.302 150.14 465.528 154.35C455.753 158.436 446.288 160.479 437.132 160.479ZM425.626 127.791C429.585 128.286 432.431 128.534 434.163 128.534C442.948 128.534 449.753 126.182 454.578 121.476C459.403 116.771 461.816 110.271 461.816 101.975C461.816 94.5462 459.465 88.7887 454.764 84.7027C450.062 80.4929 443.443 78.388 434.905 78.388C431.688 78.388 428.595 78.6357 425.626 79.1309V127.791Z" stroke="#6C95FF" stroke-width="60" mask="url(#path-1-outside-1_732_63)"/>
<path d="M575.405 160.293C561.3 160.293 549.237 157.817 539.215 152.864C529.193 147.911 521.522 140.854 516.202 131.691C511.005 122.405 508.407 111.447 508.407 98.8179C508.407 83.7122 511.562 71.0209 517.872 60.744C524.306 50.4672 532.595 42.8524 542.741 37.8997C552.887 32.947 563.527 30.4707 574.663 30.4707C584.561 30.4707 593.284 31.9565 600.831 34.9281C608.379 37.8997 614.194 41.8 618.277 46.6289C622.36 51.4577 624.401 56.5343 624.401 61.8584C624.401 69.5351 622.422 75.0449 618.462 78.388C614.503 81.6073 609.616 83.2169 603.801 83.2169C601.079 83.2169 598.666 82.9693 596.563 82.474C594.583 81.9787 592.48 81.2977 590.252 80.431C587.778 79.5643 585.551 78.9452 583.571 78.5737C581.715 78.0785 579.364 77.8308 576.519 77.8308C568.353 77.8308 561.919 80.3072 557.217 85.2599C552.516 90.0887 550.165 96.9606 550.165 105.875C550.165 113.428 552.454 119.248 557.032 123.334C561.61 127.42 567.301 129.463 574.106 129.463C577.942 129.463 581.282 128.967 584.128 127.977C586.974 126.986 589.139 125.872 590.624 124.634C592.108 123.396 592.851 122.405 592.851 121.662C583.819 121.662 576.952 120.61 572.25 118.505C567.548 116.4 565.198 112.747 565.198 107.547C565.198 102.347 566.992 98.3226 570.58 95.4748C574.168 92.5032 580.231 91.0174 588.768 91.0174C597.552 91.0174 604.419 92.0698 609.368 94.1747C614.317 96.1558 617.844 99.3131 619.947 103.647C622.05 107.857 623.102 113.49 623.102 120.548C623.102 127.729 620.937 134.353 616.606 140.42C612.4 146.488 606.584 151.316 599.161 154.907C591.861 158.498 583.942 160.293 575.405 160.293Z" stroke="#6C95FF" stroke-width="60" mask="url(#path-1-outside-1_732_63)"/>
<path d="M722.63 130.763C728.569 132.62 731.538 136.52 731.538 142.463C731.538 148.035 728.692 152.431 723.001 155.65C717.309 158.869 707.473 160.479 693.492 160.479C676.046 160.479 661.075 156.269 648.579 147.85C636.206 139.43 630.02 122.715 630.02 97.7035C630.02 85.0741 632.185 73.683 636.515 63.5299C640.846 53.3769 647.28 45.3288 655.817 39.3856C664.478 33.4423 675.057 30.4707 687.553 30.4707C704.256 30.4707 716.01 33.0709 722.815 38.2712C729.62 43.3477 733.023 49.6005 733.023 57.0295C733.023 60.4964 732.157 63.7157 730.425 66.6873C728.692 69.5351 726.094 71.7638 722.63 73.3734C719.66 74.8592 715.825 75.6021 711.123 75.6021L706.112 75.4164C705.122 75.2926 703.699 75.2307 701.844 75.2307C695.41 75.2307 690.337 76.4069 686.625 78.7595C682.913 80.9882 680.377 84.4551 679.016 89.1601C684.212 88.9125 688.914 88.7887 693.121 88.7887C705.617 88.7887 713.721 89.1601 717.433 89.903C721.64 90.7697 724.857 92.4413 727.084 94.9176C729.435 97.394 730.61 100.304 730.61 103.647C730.61 106.99 729.497 109.9 727.269 112.376C725.042 114.728 721.702 116.338 717.248 117.205C713.783 117.948 705.37 118.319 692.007 118.319C686.563 118.319 682.728 118.257 680.501 118.133C684.336 126.305 691.512 130.391 702.029 130.391C702.648 130.391 704.071 130.267 706.298 130.02C709.267 129.772 711.804 129.648 713.907 129.648C717.495 129.648 720.403 130.02 722.63 130.763Z" stroke="#6C95FF" stroke-width="60" mask="url(#path-1-outside-1_732_63)"/>
<path d="M261.46 243.87C261.46 252.042 258.057 257.985 251.252 261.7C244.571 265.29 233.621 267.457 218.402 268.2C218.897 274.143 219.145 281.82 219.145 291.23C219.145 304.355 218.402 314.879 216.918 322.803C215.557 330.604 213.144 336.423 209.68 340.262C206.215 343.976 201.39 345.833 195.203 345.833C189.141 345.833 184.501 343.852 181.284 339.89C178.067 335.928 175.84 330.047 174.603 322.246C173.366 314.446 172.747 304.107 172.747 291.23C172.747 282.563 172.933 274.886 173.304 268.2C163.034 267.705 154.745 266.652 148.434 265.043C142.248 263.309 137.67 260.771 134.701 257.428C131.731 254.085 130.247 249.565 130.247 243.87C130.247 236.936 132.597 231.488 137.299 227.526C142.001 223.564 149.053 220.778 158.456 219.168C167.86 217.559 180.171 216.754 195.389 216.754C210.731 216.754 223.166 217.559 232.693 219.168C242.22 220.778 249.396 223.564 254.221 227.526C259.047 231.488 261.46 236.936 261.46 243.87Z" stroke="#6C95FF" stroke-width="60" mask="url(#path-1-outside-1_732_63)"/>
<path d="M286.611 346.576C278.322 346.576 271.64 342.552 266.568 334.504C261.619 326.332 258.711 315.312 257.845 301.445C257.721 299.464 257.659 296.554 257.659 292.716C257.659 277.734 260.134 264.485 265.083 252.97C270.032 241.332 277.023 232.355 286.055 226.04C295.211 219.602 305.851 216.382 317.976 216.382C330.102 216.382 340.68 219.602 349.713 226.04C358.868 232.355 365.859 241.27 370.684 252.785C375.633 264.3 378.108 277.61 378.108 292.716C378.108 296.554 378.046 299.464 377.922 301.445C377.056 315.56 374.149 326.58 369.2 334.504C364.25 342.428 357.569 346.391 349.156 346.391C342.351 346.391 337.587 344.533 334.865 340.819C332.267 337.104 330.968 332.585 330.968 327.261C330.968 324.784 331.153 322.618 331.525 320.76C325.091 321.008 319.399 321.132 314.45 321.132C311.357 321.132 307.954 321.008 304.243 320.76C304.614 322.618 304.799 324.784 304.799 327.261C304.799 332.709 303.438 337.29 300.716 341.005C298.118 344.719 293.416 346.576 286.611 346.576ZM302.943 287.701C309.625 287.454 314.512 287.33 317.605 287.33C320.946 287.33 325.833 287.454 332.267 287.701C332.514 286.339 332.638 284.296 332.638 281.572C332.638 275.753 331.401 271.048 328.926 267.457C326.452 263.743 322.616 261.885 317.42 261.885C312.347 261.885 308.573 263.681 306.099 267.271C303.624 270.862 302.387 275.505 302.387 281.201C302.387 283.306 302.572 285.473 302.943 287.701Z" stroke="#6C95FF" stroke-width="60" mask="url(#path-1-outside-1_732_63)"/>
<path d="M439.022 346.205C426.526 346.205 415.947 343.667 407.286 338.59C398.625 333.39 392.934 325.651 390.212 315.374C389.098 311.165 388.356 306.026 387.985 299.959C387.614 293.892 387.428 286.153 387.428 276.743C387.428 258.295 389.408 243.622 393.367 232.726C397.45 221.707 405.492 216.197 417.494 216.197C424.918 216.197 430.733 218.797 434.939 223.997C439.27 229.198 441.435 235.636 441.435 243.313C441.435 251.485 440.755 260.214 439.394 269.5C438.033 278.786 436.115 290.054 433.64 303.302C441.311 300.826 449.725 299.588 458.881 299.588C468.408 299.588 476.326 301.321 482.636 304.788C489.07 308.255 492.287 313.889 492.287 321.689C492.287 329.242 489.813 334.814 484.863 338.404C479.914 341.995 473.914 344.224 466.861 345.091C459.809 345.833 450.529 346.205 439.022 346.205Z" stroke="#6C95FF" stroke-width="60" mask="url(#path-1-outside-1_732_63)"/>
<path d="M567.211 282.501C578.223 287.577 587.564 293.706 595.235 300.888C603.03 308.069 606.927 315.87 606.927 324.289C606.927 331.718 604.886 337.228 600.803 340.819C596.72 344.41 591.709 346.205 585.77 346.205C577.233 346.205 569.191 342.305 561.643 334.504C554.22 326.58 547.043 316.241 540.115 303.488C540.115 312.279 539.62 319.646 538.63 325.589C537.764 331.533 535.784 336.485 532.691 340.447C529.598 344.286 524.958 346.205 518.772 346.205C512.338 346.205 507.574 343.79 504.481 338.962C501.512 334.133 499.656 328.313 498.913 321.503C498.295 314.693 497.985 305.779 497.985 294.759C497.985 286.958 498.047 277.734 498.171 267.086C498.418 256.314 498.666 249.627 498.913 247.027C499.161 237.741 501.079 230.312 504.667 224.74C508.255 219.045 513.328 216.197 519.885 216.197C527.433 216.197 532.691 219.416 535.66 225.854C538.754 232.293 540.3 242.136 540.3 255.385V260.957C546.61 249.565 553.91 239.351 562.2 230.312C570.49 221.273 578.779 216.754 587.069 216.754C592.884 216.754 597.648 218.983 601.36 223.44C605.195 227.774 607.113 233.16 607.113 239.598C607.113 248.265 603.401 256.561 595.977 264.485C588.678 272.286 579.089 278.291 567.211 282.501Z" stroke="#6C95FF" stroke-width="60" mask="url(#path-1-outside-1_732_63)"/>
<path d="M624.316 224.926C627.905 219.106 633.905 216.197 642.319 216.197C650.361 216.197 656.176 218.983 659.764 224.554C663.476 230.126 665.332 236.874 665.332 244.798C665.332 251.361 664.713 258.666 663.476 266.714C662.239 274.638 660.507 281.758 658.28 288.073C657.166 291.168 655.248 293.892 652.526 296.245C649.928 298.473 646.525 299.588 642.319 299.588C638.112 299.588 634.648 298.473 631.926 296.245C629.204 293.892 627.286 291.168 626.172 288.073C623.945 281.882 622.213 274.948 620.976 267.271C619.739 259.471 619.12 252.413 619.12 246.099C619.12 237.679 620.852 230.621 624.316 224.926ZM655.681 339.519C651.846 343.357 647.33 345.276 642.133 345.276C636.937 345.276 632.421 343.357 628.585 339.519C624.749 335.68 622.832 331.161 622.832 325.961C622.832 320.76 624.749 316.241 628.585 312.403C632.421 308.564 636.937 306.645 642.133 306.645C647.33 306.645 651.846 308.564 655.681 312.403C659.517 316.241 661.435 320.76 661.435 325.961C661.435 331.161 659.517 335.68 655.681 339.519Z" stroke="#6C95FF" stroke-width="60" mask="url(#path-1-outside-1_732_63)"/>
<path d="M79.765 210.617C81.8238 212.282 83.368 213.866 84.3974 215.372C85.4268 216.798 85.9415 218.304 85.9415 219.889C85.9415 222.187 85.11 224.327 83.4471 226.308C81.7843 228.209 79.6462 229.16 77.0331 229.16C75.2118 229.16 72.8363 228.645 69.9064 227.615C69.2729 231.419 68.2039 234.272 66.6994 236.173C65.2741 238.075 63.1756 239.026 60.4041 239.026C57.2367 239.026 54.8611 238.115 53.2774 236.292C51.6937 234.39 50.6643 231.498 50.1892 227.615C47.2593 228.645 44.8838 229.16 43.0625 229.16C40.3702 229.16 38.1926 228.209 36.5297 226.308C34.946 224.327 34.1541 222.187 34.1541 219.889C34.1541 218.304 34.6688 216.798 35.6982 215.372C36.7276 213.866 38.2718 212.282 40.3306 210.617C36.1338 207.131 34.0353 203.882 34.0353 200.871C34.0353 198.731 34.8668 196.671 36.5297 194.69C38.1926 192.709 40.291 191.718 42.8249 191.718C44.9629 191.718 47.4177 192.312 50.1892 193.501C50.7435 189.697 51.7729 186.884 53.2774 185.062C54.782 183.16 57.0387 182.209 60.0478 182.209C62.8985 182.209 65.0761 183.16 66.5806 185.062C68.1643 186.884 69.2729 189.697 69.9064 193.501C72.7571 192.312 75.2118 191.718 77.2707 191.718C79.0128 191.718 80.5569 192.233 81.903 193.263C83.2492 194.214 84.2786 195.403 84.9913 196.829C85.7039 198.256 86.0603 199.603 86.0603 200.871C86.0603 203.882 83.9619 207.131 79.765 210.617Z" stroke="#6C95FF" stroke-width="60" mask="url(#path-1-outside-1_732_63)"/>
<path d="M797.243 78.5217C798.787 79.7698 799.945 80.9585 800.717 82.0877C801.49 83.1575 801.876 84.2867 801.876 85.4753C801.876 87.1989 801.252 88.8035 800.005 90.2893C798.758 91.7157 797.154 92.4289 795.194 92.4289C793.828 92.4289 792.047 92.0426 789.849 91.27C789.374 94.1227 788.572 96.2623 787.444 97.6887C786.375 99.115 784.801 99.8282 782.723 99.8282C780.347 99.8282 778.565 99.1448 777.377 97.7778C776.19 96.3514 775.418 94.1822 775.061 91.27C772.864 92.0426 771.082 92.4289 769.716 92.4289C767.697 92.4289 766.064 91.7157 764.817 90.2893C763.629 88.8035 763.035 87.1989 763.035 85.4753C763.035 84.2867 763.421 83.1575 764.193 82.0877C764.965 80.9585 766.123 79.7698 767.667 78.5217C764.52 75.9067 762.946 73.47 762.946 71.2116C762.946 69.6069 763.57 68.0616 764.817 66.5758C766.064 65.09 767.638 64.3471 769.538 64.3471C771.142 64.3471 772.983 64.7929 775.061 65.6844C775.477 62.8316 776.249 60.7218 777.377 59.3548C778.506 57.9284 780.198 57.2153 782.455 57.2153C784.593 57.2153 786.226 57.9284 787.355 59.3548C788.543 60.7218 789.374 62.8316 789.849 65.6844C791.987 64.7929 793.828 64.3471 795.372 64.3471C796.679 64.3471 797.837 64.7334 798.847 65.5061C799.856 66.2192 800.628 67.1107 801.163 68.1805C801.697 69.2503 801.965 70.2606 801.965 71.2116C801.965 73.47 800.391 75.9067 797.243 78.5217Z" stroke="#6C95FF" stroke-width="60" mask="url(#path-1-outside-1_732_63)"/>
<path d="M740.47 315.553C742.528 317.217 744.073 318.802 745.102 320.307C746.131 321.734 746.646 323.239 746.646 324.824C746.646 327.122 745.815 329.262 744.152 331.243C742.489 333.145 740.351 334.096 737.738 334.096C735.917 334.096 733.541 333.581 730.611 332.55C729.978 336.354 728.909 339.207 727.404 341.109C725.979 343.01 723.88 343.961 721.109 343.961C717.941 343.961 715.566 343.05 713.982 341.227C712.398 339.326 711.369 336.433 710.894 332.55C707.964 333.581 705.588 334.096 703.767 334.096C701.075 334.096 698.897 333.145 697.234 331.243C695.651 329.262 694.859 327.122 694.859 324.824C694.859 323.239 695.373 321.734 696.403 320.307C697.432 318.802 698.976 317.217 701.035 315.553C696.838 312.066 694.74 308.817 694.74 305.806C694.74 303.666 695.571 301.606 697.234 299.625C698.897 297.644 700.996 296.653 703.53 296.653C705.668 296.653 708.122 297.248 710.894 298.436C711.448 294.632 712.478 291.819 713.982 289.997C715.487 288.095 717.743 287.144 720.752 287.144C723.603 287.144 725.781 288.095 727.285 289.997C728.869 291.819 729.978 294.632 730.611 298.436C733.462 297.248 735.916 296.653 737.975 296.653C739.717 296.653 741.262 297.168 742.608 298.198C743.954 299.149 744.983 300.338 745.696 301.764C746.409 303.191 746.765 304.538 746.765 305.806C746.765 308.817 744.666 312.066 740.47 315.553Z" stroke="#6C95FF" stroke-width="60" mask="url(#path-1-outside-1_732_63)"/>
<path d="M253.461 383.112C255.005 384.36 256.163 385.549 256.935 386.678C257.707 387.748 258.093 388.877 258.093 390.066C258.093 391.789 257.47 393.394 256.223 394.88C254.975 396.306 253.372 397.02 251.412 397.02C250.046 397.02 248.264 396.633 246.067 395.861C245.592 398.713 244.79 400.853 243.662 402.279C242.593 403.706 241.019 404.419 238.94 404.419C236.565 404.419 234.783 403.735 233.595 402.368C232.408 400.942 231.635 398.773 231.279 395.861C229.082 396.633 227.3 397.02 225.934 397.02C223.915 397.02 222.282 396.306 221.034 394.88C219.847 393.394 219.253 391.789 219.253 390.066C219.253 388.877 219.639 387.748 220.411 386.678C221.183 385.549 222.341 384.36 223.885 383.112C220.738 380.497 219.164 378.061 219.164 375.802C219.164 374.198 219.787 372.652 221.034 371.166C222.282 369.681 223.855 368.938 225.756 368.938C227.359 368.938 229.2 369.384 231.279 370.275C231.695 367.422 232.467 365.312 233.595 363.945C234.724 362.519 236.416 361.806 238.673 361.806C240.811 361.806 242.444 362.519 243.573 363.945C244.76 365.312 245.592 367.422 246.067 370.275C248.205 369.384 250.046 368.938 251.59 368.938C252.897 368.938 254.055 369.324 255.064 370.097C256.074 370.81 256.846 371.701 257.381 372.771C257.915 373.841 258.182 374.851 258.182 375.802C258.182 378.061 256.609 380.497 253.461 383.112Z" stroke="#6C95FF" stroke-width="60" mask="url(#path-1-outside-1_732_63)"/>
</g>
<defs>
<filter id="filter0_d_732_63" x="0.0353394" y="0.470703" width="835.929" height="441.947" filterUnits="userSpaceOnUse" color-interpolation-filters="sRGB">
<feFlood flood-opacity="0" result="BackgroundImageFix"/>
<feColorMatrix in="SourceAlpha" type="matrix" values="0 0 0 0 0 0 0 0 0 0 0 0 0 0 0 0 0 0 127 0" result="hardAlpha"/>
<feOffset dy="4"/>
<feGaussianBlur stdDeviation="2"/>
<feComposite in2="hardAlpha" operator="out"/>
<feColorMatrix type="matrix" values="0 0 0 0 0 0 0 0 0 0 0 0 0 0 0 0 0 0 0.25 0"/>
<feBlend mode="normal" in2="BackgroundImageFix" result="effect1_dropShadow_732_63"/>
<feBlend mode="normal" in="SourceGraphic" in2="effect1_dropShadow_732_63" result="shape"/>
</filter>
</defs>
</svg>
