<svg width="20" height="16" viewBox="0 0 20 16" fill="none" xmlns="http://www.w3.org/2000/svg">
<path d="M5 2C5 0.896875 5.89688 0 7 0H18C19.1031 0 20 0.896875 20 2V11C20 12.1031 19.1031 13 18 13H10.525C10.1562 12.2031 9.59062 11.5156 8.8875 11H12V10C12 9.44687 12.4469 9 13 9H15C15.5531 9 16 9.44687 16 10V11H18V2H7V3.53437C6.4125 3.19375 5.72812 3 5 3V2ZM5 4C5.39397 4 5.78407 4.0776 6.14805 4.22836C6.51203 4.37913 6.84274 4.6001 7.12132 4.87868C7.3999 5.15726 7.62087 5.48797 7.77164 5.85195C7.9224 6.21593 8 6.60603 8 7C8 7.39397 7.9224 7.78407 7.77164 8.14805C7.62087 8.51203 7.3999 8.84274 7.12132 9.12132C6.84274 9.3999 6.51203 9.62087 6.14805 9.77164C5.78407 9.9224 5.39397 10 5 10C4.60603 10 4.21593 9.9224 3.85195 9.77164C3.48797 9.62087 3.15726 9.3999 2.87868 9.12132C2.6001 8.84274 2.37913 8.51203 2.22836 8.14805C2.0776 7.78407 2 7.39397 2 7C2 6.60603 2.0776 6.21593 2.22836 5.85195C2.37913 5.48797 2.6001 5.15726 2.87868 4.87868C3.15726 4.6001 3.48797 4.37913 3.85195 4.22836C4.21593 4.0776 4.60603 4 5 4ZM4.16563 11H5.83125C8.13438 11 10 12.8656 10 15.1656C10 15.625 9.62812 16 9.16562 16H0.834375C0.371875 16 0 15.6281 0 15.1656C0 12.8656 1.86563 11 4.16563 11Z" fill="black"/>
</svg>
