<svg width="17" height="14" viewBox="0 0 17 14" fill="none" xmlns="http://www.w3.org/2000/svg">
<path d="M1.647 8.1218L7.29388 13.3937C7.52825 13.6124 7.83763 13.7343 8.1595 13.7343C8.48138 13.7343 8.79075 13.6124 9.02513 13.3937L14.672 8.1218C15.622 7.23742 16.1595 5.9968 16.1595 4.69992V4.51867C16.1595 2.3343 14.5814 0.471798 12.4283 0.112423C11.0033 -0.125077 9.55325 0.340548 8.5345 1.3593L8.1595 1.7343L7.7845 1.3593C6.76575 0.340548 5.31575 -0.125077 3.89075 0.112423C1.73763 0.471798 0.1595 2.3343 0.1595 4.51867V4.69992C0.1595 5.9968 0.697 7.23742 1.647 8.1218Z" fill="white"/>
</svg>
