<svg width="928" height="107" viewBox="0 0 928 107" fill="none" xmlns="http://www.w3.org/2000/svg">
<g filter="url(#filter0_d_782_54)">
<mask id="path-1-outside-1_782_54" maskUnits="userSpaceOnUse" x="4.82446" y="0.404297" width="919" height="98" fill="black">
<rect fill="white" x="4.82446" y="0.404297" width="919" height="98"/>
<path d="M79.6245 59.2043H59.7845V70.8843H83.5445V74.0843H86.8245V83.0443H83.5445V86.2443H18.1045V83.0443H14.8245V74.0843H18.1045V70.8843H41.8645V59.2043H22.2645V56.0043H19.0645V18.4843H22.2645V15.2843H79.1445V18.4843H82.3445V27.2843H79.1445V30.5643H36.4245V43.9243H79.6245V47.1243H82.8245V56.0043H79.6245V59.2043Z"/>
<path d="M106.479 33.5243H95.4388V30.6443H92.4788V22.8843H95.4388V19.9243H106.479V13.1243H109.839V10.4043H121.439V13.1243H124.799V19.9243H135.839V22.8843H138.799V30.6443H135.839V33.5243H124.799V37.2043H128.079V39.7643H131.599V42.4843H135.359V45.3643H139.279V54.8843H136.319V57.8443H127.039V54.8843H123.679V52.1643H120.479V49.6043H117.439V47.0443H114.159V49.6043H111.199V52.1643H107.919V54.8843H104.639V57.8443H94.9588V54.8843H91.9988V45.3643H95.9188V42.4843H99.6788V39.7643H103.199V37.2043H106.479V33.5243ZM158.239 18.4843H161.279V28.8043H165.999V31.6843H168.399V40.9643H165.999V43.8443H161.279V55.2043H158.239V58.4043H147.039V55.2043H143.839V18.4843H147.039V15.2843H158.239V18.4843ZM158.079 65.5243H161.279V84.9643H158.079V88.1643H146.559V84.9643H143.359V76.2443H98.7988V72.9643H95.5988V65.5243H98.7988V62.3243H158.079V65.5243Z"/>
<path d="M199.173 11.3643V13.9243H202.373V19.2843H214.133V22.4843H217.173V30.7243H214.133V33.8443H208.693V36.0843H212.213V38.8043H215.253V51.1243H212.213V54.0843H209.173V56.8843H206.293V59.6043H180.213V56.8843H177.333V54.0843H174.293V51.1243H171.333V38.8043H174.293V36.0843H177.813V33.8443H172.373V30.7243H169.333V22.4843H172.373V19.2843H184.133V13.9243H187.333V11.3643H199.173ZM235.973 15.2843V18.4843H239.013V32.2443H243.733V35.2043H246.133V44.4043H243.733V47.3643H239.013V65.0443H235.973V68.2443H224.773V65.0443H221.573V18.4843H224.773V15.2843H235.973ZM196.933 47.9243V45.5243H199.653V39.8443H196.933V37.4443H189.573V39.8443H186.853V45.5243H189.573V47.9243H196.933ZM176.853 88.1643V84.9643H173.653V67.7643H176.533V65.2843H188.053V67.7643H190.933V74.8843H237.573V77.7643H240.773V85.2843H237.573V88.1643H176.853Z"/>
<path d="M334.851 60.1643H315.331V70.8843H339.091V74.0843H342.371V83.0443H339.091V86.2443H273.651V83.0443H270.371V74.0843H273.651V70.8843H297.411V60.1643H277.811V56.9643H274.611V18.4843H277.811V15.2843H288.691V18.4843H291.971V24.5643H320.771V18.4843H323.971V15.2843H334.851V18.4843H338.131V56.9643H334.851V60.1643ZM320.771 38.8043H291.971V45.7643H320.771V38.8043Z"/>
<path d="M355.546 15.2843H412.666V18.4843H415.866V57.9243H412.666V61.1243H401.706V57.9243H398.506V30.7243H355.546V27.5243H352.346V18.4843H355.546V15.2843ZM416.826 70.8843V74.0843H420.106V83.0443H416.826V86.2443H351.386V83.0443H348.106V74.0843H351.386V70.8843H370.026V49.6843H373.226V46.4843H384.266V49.6843H387.546V70.8843H416.826Z"/>
<path d="M472.56 69.7643V82.0043H469.44V85.4443H459.76V82.0043H456.72V78.3243H453.76V74.8843H451.04V71.6043H447.2V74.8843H444.48V78.3243H441.52V82.0043H438.4V85.4443H428.4V82.0043H425.28V69.7643H428.08V66.3243H431.12V62.9643H433.92V59.8443H436.64V57.1243H439.2V18.5643H442.48V15.2843H455.36V18.5643H458.64V57.1243H461.12V59.8443H463.92V62.9643H466.72V66.3243H469.68V69.7643H472.56ZM466.4 52.0843V48.8843H463.2V39.9243H466.4V36.7243H478.16V18.4843H481.36V15.2843H492.64V18.4843H495.84V84.9643H492.64V88.1643H481.36V84.9643H478.16V52.0843H466.4Z"/>
<path d="M543.254 15.2843V18.4843H546.454V82.3243H543.254V85.5243H531.814V82.3243H528.614V30.6443H507.814V27.4443H504.614V18.4843H507.654V15.2843H543.254ZM569.254 15.2843V18.4843H572.294V42.0043H577.494V44.8843H579.894V54.6443H577.494V57.5243H572.294V84.9643H569.254V88.1643H557.734V84.9643H554.614V18.4843H557.734V15.2843H569.254Z"/>
<path d="M647.813 24.0843V26.7243H655.653V18.4843H658.933V15.2843H669.973V18.4843H673.173V49.4443H669.973V52.7243H658.933V49.4443H655.653V40.1643H647.813V43.6843H644.613V46.6443H641.413V49.6043H638.133V52.4843H615.253V49.4443H611.733V46.4043H608.453V43.1243H605.173V24.5643H608.453V21.3643H611.733V18.2443H615.253V15.2843H638.133V18.1643H641.413V21.1243H644.613V24.0843H647.813ZM632.373 29.3643H629.653V27.0443H623.413V29.3643H620.773V38.4843H623.413V40.7243H629.653V38.4843H632.373V29.3643ZM637.013 58.2443H640.053V85.4443H637.093V88.1643H609.333V85.4443H606.613V58.2443H609.413V55.7643H617.173V58.2443H620.213V63.6843H626.453V58.2443H629.333V55.7643H637.013V58.2443ZM667.733 69.2043H670.373V72.1643H673.493V75.4443H676.373V85.4443H673.893V88.1643H665.893V85.4443H663.093V82.4043H660.533V79.6043H657.893V82.4043H655.413V85.4443H652.453V88.1643H644.533V85.4443H641.973V75.4443H644.933V72.1643H647.973V69.2043H650.613V58.4843H653.333V55.7643H665.013V58.4843H667.733V69.2043ZM626.453 73.1243H620.213V77.7643H626.453V73.1243Z"/>
<path d="M719.947 30.3243H714.827V32.6443H710.427V35.2843H705.707V38.1643H700.827V40.9643H687.947V38.1643H684.027V30.5643H687.947V27.7643H693.467V25.2843H698.747V22.8843H703.387V20.4043H707.627V15.2843H711.227V13.2843H723.547V15.2843H727.067V20.4043H731.387V22.8843H736.027V25.2843H741.307V27.7643H746.827V30.5643H750.747V38.1643H746.827V40.9643H733.947V38.1643H729.067V35.2843H724.347V32.6443H719.947V30.3243ZM681.387 46.9643H684.107V44.2443H750.667V46.9643H753.387V54.1643H750.667V56.8843H684.107V54.1643H681.387V46.9643ZM746.747 61.5243H750.027V84.9643H746.747V88.1643H688.027V84.9643H684.827V61.5243H688.027V59.2843H698.987V61.5243H702.347V64.8043H732.587V61.5243H735.787V59.2843H746.747V61.5243ZM732.587 74.7243H702.347V77.9243H732.587V74.7243Z"/>
<path d="M763.841 85.0443V81.8443H760.641V18.4843H763.841V15.2843H775.281V18.4843H778.481V69.7643H800.401V72.9643H803.601V81.8443H800.401V85.0443H763.841ZM826.001 15.2843V18.4843H829.121V84.9643H826.001V88.1643H814.561V84.9643H811.441V18.4843H814.561V15.2843H826.001Z"/>
<path d="M876.616 18.4843H879.816V27.2043H876.616V30.4043H854.856V69.9243H878.136V73.1243H881.336V81.8443H878.136V85.0443H841.096V81.8443H837.896V18.4843H841.096V15.2843H876.616V18.4843ZM902.536 15.2843V18.4843H905.576V42.0043H910.776V44.8843H913.176V54.6443H910.776V57.5243H905.576V84.9643H902.536V88.1643H891.016V84.9643H887.896V18.4843H891.016V15.2843H902.536Z"/>
</mask>
<path d="M79.6245 59.2043H59.7845V70.8843H83.5445V74.0843H86.8245V83.0443H83.5445V86.2443H18.1045V83.0443H14.8245V74.0843H18.1045V70.8843H41.8645V59.2043H22.2645V56.0043H19.0645V18.4843H22.2645V15.2843H79.1445V18.4843H82.3445V27.2843H79.1445V30.5643H36.4245V43.9243H79.6245V47.1243H82.8245V56.0043H79.6245V59.2043Z" fill="#FCFCFC"/>
<path d="M106.479 33.5243H95.4388V30.6443H92.4788V22.8843H95.4388V19.9243H106.479V13.1243H109.839V10.4043H121.439V13.1243H124.799V19.9243H135.839V22.8843H138.799V30.6443H135.839V33.5243H124.799V37.2043H128.079V39.7643H131.599V42.4843H135.359V45.3643H139.279V54.8843H136.319V57.8443H127.039V54.8843H123.679V52.1643H120.479V49.6043H117.439V47.0443H114.159V49.6043H111.199V52.1643H107.919V54.8843H104.639V57.8443H94.9588V54.8843H91.9988V45.3643H95.9188V42.4843H99.6788V39.7643H103.199V37.2043H106.479V33.5243ZM158.239 18.4843H161.279V28.8043H165.999V31.6843H168.399V40.9643H165.999V43.8443H161.279V55.2043H158.239V58.4043H147.039V55.2043H143.839V18.4843H147.039V15.2843H158.239V18.4843ZM158.079 65.5243H161.279V84.9643H158.079V88.1643H146.559V84.9643H143.359V76.2443H98.7988V72.9643H95.5988V65.5243H98.7988V62.3243H158.079V65.5243Z" fill="#FCFCFC"/>
<path d="M199.173 11.3643V13.9243H202.373V19.2843H214.133V22.4843H217.173V30.7243H214.133V33.8443H208.693V36.0843H212.213V38.8043H215.253V51.1243H212.213V54.0843H209.173V56.8843H206.293V59.6043H180.213V56.8843H177.333V54.0843H174.293V51.1243H171.333V38.8043H174.293V36.0843H177.813V33.8443H172.373V30.7243H169.333V22.4843H172.373V19.2843H184.133V13.9243H187.333V11.3643H199.173ZM235.973 15.2843V18.4843H239.013V32.2443H243.733V35.2043H246.133V44.4043H243.733V47.3643H239.013V65.0443H235.973V68.2443H224.773V65.0443H221.573V18.4843H224.773V15.2843H235.973ZM196.933 47.9243V45.5243H199.653V39.8443H196.933V37.4443H189.573V39.8443H186.853V45.5243H189.573V47.9243H196.933ZM176.853 88.1643V84.9643H173.653V67.7643H176.533V65.2843H188.053V67.7643H190.933V74.8843H237.573V77.7643H240.773V85.2843H237.573V88.1643H176.853Z" fill="#FCFCFC"/>
<path d="M334.851 60.1643H315.331V70.8843H339.091V74.0843H342.371V83.0443H339.091V86.2443H273.651V83.0443H270.371V74.0843H273.651V70.8843H297.411V60.1643H277.811V56.9643H274.611V18.4843H277.811V15.2843H288.691V18.4843H291.971V24.5643H320.771V18.4843H323.971V15.2843H334.851V18.4843H338.131V56.9643H334.851V60.1643ZM320.771 38.8043H291.971V45.7643H320.771V38.8043Z" fill="#FCFCFC"/>
<path d="M355.546 15.2843H412.666V18.4843H415.866V57.9243H412.666V61.1243H401.706V57.9243H398.506V30.7243H355.546V27.5243H352.346V18.4843H355.546V15.2843ZM416.826 70.8843V74.0843H420.106V83.0443H416.826V86.2443H351.386V83.0443H348.106V74.0843H351.386V70.8843H370.026V49.6843H373.226V46.4843H384.266V49.6843H387.546V70.8843H416.826Z" fill="#FCFCFC"/>
<path d="M472.56 69.7643V82.0043H469.44V85.4443H459.76V82.0043H456.72V78.3243H453.76V74.8843H451.04V71.6043H447.2V74.8843H444.48V78.3243H441.52V82.0043H438.4V85.4443H428.4V82.0043H425.28V69.7643H428.08V66.3243H431.12V62.9643H433.92V59.8443H436.64V57.1243H439.2V18.5643H442.48V15.2843H455.36V18.5643H458.64V57.1243H461.12V59.8443H463.92V62.9643H466.72V66.3243H469.68V69.7643H472.56ZM466.4 52.0843V48.8843H463.2V39.9243H466.4V36.7243H478.16V18.4843H481.36V15.2843H492.64V18.4843H495.84V84.9643H492.64V88.1643H481.36V84.9643H478.16V52.0843H466.4Z" fill="#FCFCFC"/>
<path d="M543.254 15.2843V18.4843H546.454V82.3243H543.254V85.5243H531.814V82.3243H528.614V30.6443H507.814V27.4443H504.614V18.4843H507.654V15.2843H543.254ZM569.254 15.2843V18.4843H572.294V42.0043H577.494V44.8843H579.894V54.6443H577.494V57.5243H572.294V84.9643H569.254V88.1643H557.734V84.9643H554.614V18.4843H557.734V15.2843H569.254Z" fill="#FCFCFC"/>
<path d="M647.813 24.0843V26.7243H655.653V18.4843H658.933V15.2843H669.973V18.4843H673.173V49.4443H669.973V52.7243H658.933V49.4443H655.653V40.1643H647.813V43.6843H644.613V46.6443H641.413V49.6043H638.133V52.4843H615.253V49.4443H611.733V46.4043H608.453V43.1243H605.173V24.5643H608.453V21.3643H611.733V18.2443H615.253V15.2843H638.133V18.1643H641.413V21.1243H644.613V24.0843H647.813ZM632.373 29.3643H629.653V27.0443H623.413V29.3643H620.773V38.4843H623.413V40.7243H629.653V38.4843H632.373V29.3643ZM637.013 58.2443H640.053V85.4443H637.093V88.1643H609.333V85.4443H606.613V58.2443H609.413V55.7643H617.173V58.2443H620.213V63.6843H626.453V58.2443H629.333V55.7643H637.013V58.2443ZM667.733 69.2043H670.373V72.1643H673.493V75.4443H676.373V85.4443H673.893V88.1643H665.893V85.4443H663.093V82.4043H660.533V79.6043H657.893V82.4043H655.413V85.4443H652.453V88.1643H644.533V85.4443H641.973V75.4443H644.933V72.1643H647.973V69.2043H650.613V58.4843H653.333V55.7643H665.013V58.4843H667.733V69.2043ZM626.453 73.1243H620.213V77.7643H626.453V73.1243Z" fill="#FCFCFC"/>
<path d="M719.947 30.3243H714.827V32.6443H710.427V35.2843H705.707V38.1643H700.827V40.9643H687.947V38.1643H684.027V30.5643H687.947V27.7643H693.467V25.2843H698.747V22.8843H703.387V20.4043H707.627V15.2843H711.227V13.2843H723.547V15.2843H727.067V20.4043H731.387V22.8843H736.027V25.2843H741.307V27.7643H746.827V30.5643H750.747V38.1643H746.827V40.9643H733.947V38.1643H729.067V35.2843H724.347V32.6443H719.947V30.3243ZM681.387 46.9643H684.107V44.2443H750.667V46.9643H753.387V54.1643H750.667V56.8843H684.107V54.1643H681.387V46.9643ZM746.747 61.5243H750.027V84.9643H746.747V88.1643H688.027V84.9643H684.827V61.5243H688.027V59.2843H698.987V61.5243H702.347V64.8043H732.587V61.5243H735.787V59.2843H746.747V61.5243ZM732.587 74.7243H702.347V77.9243H732.587V74.7243Z" fill="#FCFCFC"/>
<path d="M763.841 85.0443V81.8443H760.641V18.4843H763.841V15.2843H775.281V18.4843H778.481V69.7643H800.401V72.9643H803.601V81.8443H800.401V85.0443H763.841ZM826.001 15.2843V18.4843H829.121V84.9643H826.001V88.1643H814.561V84.9643H811.441V18.4843H814.561V15.2843H826.001Z" fill="#FCFCFC"/>
<path d="M876.616 18.4843H879.816V27.2043H876.616V30.4043H854.856V69.9243H878.136V73.1243H881.336V81.8443H878.136V85.0443H841.096V81.8443H837.896V18.4843H841.096V15.2843H876.616V18.4843ZM902.536 15.2843V18.4843H905.576V42.0043H910.776V44.8843H913.176V54.6443H910.776V57.5243H905.576V84.9643H902.536V88.1643H891.016V84.9643H887.896V18.4843H891.016V15.2843H902.536Z" fill="#FCFCFC"/>
<path d="M79.6245 59.2043H59.7845V70.8843H83.5445V74.0843H86.8245V83.0443H83.5445V86.2443H18.1045V83.0443H14.8245V74.0843H18.1045V70.8843H41.8645V59.2043H22.2645V56.0043H19.0645V18.4843H22.2645V15.2843H79.1445V18.4843H82.3445V27.2843H79.1445V30.5643H36.4245V43.9243H79.6245V47.1243H82.8245V56.0043H79.6245V59.2043Z" stroke="#6C95FF" stroke-width="20" mask="url(#path-1-outside-1_782_54)"/>
<path d="M106.479 33.5243H95.4388V30.6443H92.4788V22.8843H95.4388V19.9243H106.479V13.1243H109.839V10.4043H121.439V13.1243H124.799V19.9243H135.839V22.8843H138.799V30.6443H135.839V33.5243H124.799V37.2043H128.079V39.7643H131.599V42.4843H135.359V45.3643H139.279V54.8843H136.319V57.8443H127.039V54.8843H123.679V52.1643H120.479V49.6043H117.439V47.0443H114.159V49.6043H111.199V52.1643H107.919V54.8843H104.639V57.8443H94.9588V54.8843H91.9988V45.3643H95.9188V42.4843H99.6788V39.7643H103.199V37.2043H106.479V33.5243ZM158.239 18.4843H161.279V28.8043H165.999V31.6843H168.399V40.9643H165.999V43.8443H161.279V55.2043H158.239V58.4043H147.039V55.2043H143.839V18.4843H147.039V15.2843H158.239V18.4843ZM158.079 65.5243H161.279V84.9643H158.079V88.1643H146.559V84.9643H143.359V76.2443H98.7988V72.9643H95.5988V65.5243H98.7988V62.3243H158.079V65.5243Z" stroke="#6C95FF" stroke-width="20" mask="url(#path-1-outside-1_782_54)"/>
<path d="M199.173 11.3643V13.9243H202.373V19.2843H214.133V22.4843H217.173V30.7243H214.133V33.8443H208.693V36.0843H212.213V38.8043H215.253V51.1243H212.213V54.0843H209.173V56.8843H206.293V59.6043H180.213V56.8843H177.333V54.0843H174.293V51.1243H171.333V38.8043H174.293V36.0843H177.813V33.8443H172.373V30.7243H169.333V22.4843H172.373V19.2843H184.133V13.9243H187.333V11.3643H199.173ZM235.973 15.2843V18.4843H239.013V32.2443H243.733V35.2043H246.133V44.4043H243.733V47.3643H239.013V65.0443H235.973V68.2443H224.773V65.0443H221.573V18.4843H224.773V15.2843H235.973ZM196.933 47.9243V45.5243H199.653V39.8443H196.933V37.4443H189.573V39.8443H186.853V45.5243H189.573V47.9243H196.933ZM176.853 88.1643V84.9643H173.653V67.7643H176.533V65.2843H188.053V67.7643H190.933V74.8843H237.573V77.7643H240.773V85.2843H237.573V88.1643H176.853Z" stroke="#6C95FF" stroke-width="20" mask="url(#path-1-outside-1_782_54)"/>
<path d="M334.851 60.1643H315.331V70.8843H339.091V74.0843H342.371V83.0443H339.091V86.2443H273.651V83.0443H270.371V74.0843H273.651V70.8843H297.411V60.1643H277.811V56.9643H274.611V18.4843H277.811V15.2843H288.691V18.4843H291.971V24.5643H320.771V18.4843H323.971V15.2843H334.851V18.4843H338.131V56.9643H334.851V60.1643ZM320.771 38.8043H291.971V45.7643H320.771V38.8043Z" stroke="#6C95FF" stroke-width="20" mask="url(#path-1-outside-1_782_54)"/>
<path d="M355.546 15.2843H412.666V18.4843H415.866V57.9243H412.666V61.1243H401.706V57.9243H398.506V30.7243H355.546V27.5243H352.346V18.4843H355.546V15.2843ZM416.826 70.8843V74.0843H420.106V83.0443H416.826V86.2443H351.386V83.0443H348.106V74.0843H351.386V70.8843H370.026V49.6843H373.226V46.4843H384.266V49.6843H387.546V70.8843H416.826Z" stroke="#6C95FF" stroke-width="20" mask="url(#path-1-outside-1_782_54)"/>
<path d="M472.56 69.7643V82.0043H469.44V85.4443H459.76V82.0043H456.72V78.3243H453.76V74.8843H451.04V71.6043H447.2V74.8843H444.48V78.3243H441.52V82.0043H438.4V85.4443H428.4V82.0043H425.28V69.7643H428.08V66.3243H431.12V62.9643H433.92V59.8443H436.64V57.1243H439.2V18.5643H442.48V15.2843H455.36V18.5643H458.64V57.1243H461.12V59.8443H463.92V62.9643H466.72V66.3243H469.68V69.7643H472.56ZM466.4 52.0843V48.8843H463.2V39.9243H466.4V36.7243H478.16V18.4843H481.36V15.2843H492.64V18.4843H495.84V84.9643H492.64V88.1643H481.36V84.9643H478.16V52.0843H466.4Z" stroke="#6C95FF" stroke-width="20" mask="url(#path-1-outside-1_782_54)"/>
<path d="M543.254 15.2843V18.4843H546.454V82.3243H543.254V85.5243H531.814V82.3243H528.614V30.6443H507.814V27.4443H504.614V18.4843H507.654V15.2843H543.254ZM569.254 15.2843V18.4843H572.294V42.0043H577.494V44.8843H579.894V54.6443H577.494V57.5243H572.294V84.9643H569.254V88.1643H557.734V84.9643H554.614V18.4843H557.734V15.2843H569.254Z" stroke="#6C95FF" stroke-width="20" mask="url(#path-1-outside-1_782_54)"/>
<path d="M647.813 24.0843V26.7243H655.653V18.4843H658.933V15.2843H669.973V18.4843H673.173V49.4443H669.973V52.7243H658.933V49.4443H655.653V40.1643H647.813V43.6843H644.613V46.6443H641.413V49.6043H638.133V52.4843H615.253V49.4443H611.733V46.4043H608.453V43.1243H605.173V24.5643H608.453V21.3643H611.733V18.2443H615.253V15.2843H638.133V18.1643H641.413V21.1243H644.613V24.0843H647.813ZM632.373 29.3643H629.653V27.0443H623.413V29.3643H620.773V38.4843H623.413V40.7243H629.653V38.4843H632.373V29.3643ZM637.013 58.2443H640.053V85.4443H637.093V88.1643H609.333V85.4443H606.613V58.2443H609.413V55.7643H617.173V58.2443H620.213V63.6843H626.453V58.2443H629.333V55.7643H637.013V58.2443ZM667.733 69.2043H670.373V72.1643H673.493V75.4443H676.373V85.4443H673.893V88.1643H665.893V85.4443H663.093V82.4043H660.533V79.6043H657.893V82.4043H655.413V85.4443H652.453V88.1643H644.533V85.4443H641.973V75.4443H644.933V72.1643H647.973V69.2043H650.613V58.4843H653.333V55.7643H665.013V58.4843H667.733V69.2043ZM626.453 73.1243H620.213V77.7643H626.453V73.1243Z" stroke="#6C95FF" stroke-width="20" mask="url(#path-1-outside-1_782_54)"/>
<path d="M719.947 30.3243H714.827V32.6443H710.427V35.2843H705.707V38.1643H700.827V40.9643H687.947V38.1643H684.027V30.5643H687.947V27.7643H693.467V25.2843H698.747V22.8843H703.387V20.4043H707.627V15.2843H711.227V13.2843H723.547V15.2843H727.067V20.4043H731.387V22.8843H736.027V25.2843H741.307V27.7643H746.827V30.5643H750.747V38.1643H746.827V40.9643H733.947V38.1643H729.067V35.2843H724.347V32.6443H719.947V30.3243ZM681.387 46.9643H684.107V44.2443H750.667V46.9643H753.387V54.1643H750.667V56.8843H684.107V54.1643H681.387V46.9643ZM746.747 61.5243H750.027V84.9643H746.747V88.1643H688.027V84.9643H684.827V61.5243H688.027V59.2843H698.987V61.5243H702.347V64.8043H732.587V61.5243H735.787V59.2843H746.747V61.5243ZM732.587 74.7243H702.347V77.9243H732.587V74.7243Z" stroke="#6C95FF" stroke-width="20" mask="url(#path-1-outside-1_782_54)"/>
<path d="M763.841 85.0443V81.8443H760.641V18.4843H763.841V15.2843H775.281V18.4843H778.481V69.7643H800.401V72.9643H803.601V81.8443H800.401V85.0443H763.841ZM826.001 15.2843V18.4843H829.121V84.9643H826.001V88.1643H814.561V84.9643H811.441V18.4843H814.561V15.2843H826.001Z" stroke="#6C95FF" stroke-width="20" mask="url(#path-1-outside-1_782_54)"/>
<path d="M876.616 18.4843H879.816V27.2043H876.616V30.4043H854.856V69.9243H878.136V73.1243H881.336V81.8443H878.136V85.0443H841.096V81.8443H837.896V18.4843H841.096V15.2843H876.616V18.4843ZM902.536 15.2843V18.4843H905.576V42.0043H910.776V44.8843H913.176V54.6443H910.776V57.5243H905.576V84.9643H902.536V88.1643H891.016V84.9643H887.896V18.4843H891.016V15.2843H902.536Z" stroke="#6C95FF" stroke-width="20" mask="url(#path-1-outside-1_782_54)"/>
</g>
<defs>
<filter id="filter0_d_782_54" x="0.824463" y="0.404297" width="926.351" height="105.76" filterUnits="userSpaceOnUse" color-interpolation-filters="sRGB">
<feFlood flood-opacity="0" result="BackgroundImageFix"/>
<feColorMatrix in="SourceAlpha" type="matrix" values="0 0 0 0 0 0 0 0 0 0 0 0 0 0 0 0 0 0 127 0" result="hardAlpha"/>
<feOffset dy="4"/>
<feGaussianBlur stdDeviation="2"/>
<feComposite in2="hardAlpha" operator="out"/>
<feColorMatrix type="matrix" values="0 0 0 0 0.0666667 0 0 0 0 0.0666667 0 0 0 0 0.0666667 0 0 0 1 0"/>
<feBlend mode="normal" in2="BackgroundImageFix" result="effect1_dropShadow_782_54"/>
<feBlend mode="normal" in="SourceGraphic" in2="effect1_dropShadow_782_54" result="shape"/>
</filter>
</defs>
</svg>
