<svg width="13" height="16" viewBox="0 0 13 16" fill="none" xmlns="http://www.w3.org/2000/svg">
<path d="M4.64713 2.28125C4.64713 1.98578 4.70533 1.69319 4.8184 1.42021C4.93147 1.14723 5.09721 0.899192 5.30614 0.69026C5.51507 0.481328 5.76311 0.315594 6.03609 0.202521C6.30907 0.089448 6.60165 0.03125 6.89713 0.03125C7.1926 0.03125 7.48518 0.089448 7.75817 0.202521C8.03115 0.315594 8.27919 0.481328 8.48812 0.69026C8.69705 0.899192 8.86278 1.14723 8.97586 1.42021C9.08893 1.69319 9.14713 1.98578 9.14713 2.28125C9.14713 2.57672 9.08893 2.86931 8.97586 3.14229C8.86278 3.41527 8.69705 3.66331 8.48812 3.87224C8.27919 4.08117 8.03115 4.24691 7.75817 4.35998C7.48518 4.47305 7.1926 4.53125 6.89713 4.53125C6.60165 4.53125 6.30907 4.47305 6.03609 4.35998C5.76311 4.24691 5.51507 4.08117 5.30614 3.87224C5.09721 3.66331 4.93147 3.41527 4.8184 3.14229C4.70533 2.86931 4.64713 2.57672 4.64713 2.28125ZM1.13775 4.04688C1.544 3.4875 2.32525 3.36562 2.88463 3.77187L4.01588 4.59375C4.85338 5.20312 5.86275 5.53125 6.89713 5.53125C7.9315 5.53125 8.94088 5.20312 9.77838 4.59375L10.9096 3.76875C11.469 3.3625 12.2503 3.4875 12.6565 4.04375C13.0628 4.6 12.9378 5.38438 12.3815 5.79063L11.2503 6.61562C10.8253 6.925 10.3721 7.18437 9.89713 7.39687V8.53125H3.89713V7.39687C3.42213 7.1875 2.969 6.925 2.544 6.61562L1.41275 5.79063C0.853379 5.38438 0.731504 4.60312 1.13775 4.04375V4.04688ZM3.944 9.82187L5.83775 11.4781L5.02525 12.6406L5.78463 13.4C6.27213 13.8875 6.27213 14.6781 5.78463 15.1687C5.29713 15.6594 4.5065 15.6562 4.01588 15.1687L2.51588 13.6687C2.08463 13.2375 2.02525 12.5625 2.37213 12.0656L3.94088 9.82187H3.944ZM7.95963 11.4781L9.85338 9.82187L11.4221 12.0656C11.769 12.5625 11.7096 13.2375 11.2815 13.6656L9.7815 15.1656C9.294 15.6531 8.50338 15.6531 8.01275 15.1656C7.52213 14.6781 7.52525 13.8875 8.01275 13.3969L8.77213 12.6375L7.95963 11.475V11.4781Z" fill="black"/>
</svg>
