<svg width="70" height="70" viewBox="0 0 70 70" fill="none" xmlns="http://www.w3.org/2000/svg">
<path d="M10 0C4.48438 0 0 4.48438 0 10V60C0 65.5156 4.48438 70 10 70H60C65.5156 70 70 65.5156 70 60V22.0781C70 19.4219 68.9531 16.875 67.0781 15L55 2.92188C53.125 1.04688 50.5781 0 47.9219 0H10ZM10 15C10 12.2344 12.2344 10 15 10H45C47.7656 10 50 12.2344 50 15V25C50 27.7656 47.7656 30 45 30H15C12.2344 30 10 27.7656 10 25V15ZM35 40C37.6522 40 40.1957 41.0536 42.0711 42.9289C43.9464 44.8043 45 47.3478 45 50C45 52.6522 43.9464 55.1957 42.0711 57.0711C40.1957 58.9464 37.6522 60 35 60C32.3478 60 29.8043 58.9464 27.9289 57.0711C26.0536 55.1957 25 52.6522 25 50C25 47.3478 26.0536 44.8043 27.9289 42.9289C29.8043 41.0536 32.3478 40 35 40Z" fill="white"/>
</svg>
