<svg width="777" height="118" viewBox="0 0 777 118" fill="none" xmlns="http://www.w3.org/2000/svg">
<path d="M74.887 109.672V102.12H66.695V109.672H60.167V115.944H29.319V109.672H22.407V102.12H15.239V94.44H7.687V86.888H0.00700045V7.016H6.151V0.871994H23.175V7.016H29.319V68.584H34.951V77.032H41.223V85.096H50.183V77.544H56.071V7.016H62.471V0.871994H79.239V7.016H85.511V77.544H91.399V85.096H100.487V77.032H106.631V68.584H112.263V7.016H118.535V0.871994H135.431V7.016H141.703V86.888H133.895V94.44H126.471V102.12H119.303V109.672H112.263V115.944H81.415V109.672H74.887ZM182.706 45.032H228.018V51.688H234.674V65.128H228.018V71.784H182.706V89.192H228.018V95.336H234.674V109.672H228.018V115.944H159.538V109.288H152.882V7.52799H159.538V0.871994H228.018V7.016H234.674V21.224H228.018V27.496H182.706V45.032ZM274.977 88.296H313.633V94.184H319.777V110.056H313.633V115.944H250.401V110.056H244.257V6.75999H250.145V0.871994H269.089V6.75999H274.977V88.296Z" fill="white"/>
<path d="M365.645 35.048H358.221V81.768H365.645V88.68H406.989V94.952H413.773V109.544H406.989V115.944H350.157V109.672H342.093V102.504H334.541V94.824H327.373V21.992H334.541V14.184H342.093V7.016H350.157V0.871994H406.989V7.272H413.773V21.864H406.989V28.008H365.645V35.048ZM507.454 21.736H514.75V95.08H507.454V102.888H500.414V109.672H493.886V115.944H445.246V109.672H438.718V102.888H431.678V95.08H424.382V21.736H431.678V13.928H438.718V7.016H445.246V0.871994H493.886V7.016H500.414V13.928H507.454V21.736ZM460.606 34.28H453.95V82.536H460.606V89.448H478.526V82.536H485.182V34.28H478.526V27.24H460.606V34.28ZM586.938 58.984V50.664H592.826V40.936H598.586V29.8H604.09V19.304H609.85V6.88799H617.274V0.871994H635.194V7.016H641.338V109.672H635.194V115.944H619.066V109.672H612.794V69.864H608.442V77.16H604.602V84.968H600.25V93.032H595.258V101.608H589.754V107.496H577.466V101.608H572.09V93.032H567.098V84.968H562.746V77.16H558.778V69.864H554.426V109.672H548.282V115.944H532.026V109.672H525.882V7.016H532.026V0.871994H549.946V6.88799H557.37V19.304H563.13V29.8H568.634V40.936H574.394V50.664H580.282V58.984H586.938ZM682.456 45.032H727.768V51.688H734.424V65.128H727.768V71.784H682.456V89.192H727.768V95.336H734.424V109.672H727.768V115.944H659.288V109.288H652.632V7.52799H659.288V0.871994H727.768V7.016H734.424V21.224H727.768V27.496H682.456V45.032ZM771.527 0.871994V5.48H776.519V75.24H771.783V79.848H753.095V75.24H748.487V5.48H753.479V0.871994H771.527ZM771.783 89.064V93.672H776.519V112.872H771.783V117.48H753.095V112.872H748.487V93.672H753.095V89.064H771.783Z" fill="#FF9F99"/>
</svg>
