<svg width="120" height="120" viewBox="0 0 120 120" fill="none" xmlns="http://www.w3.org/2000/svg">
<path d="M72.6923 17.6923C72.6923 10.6761 67.0162 5 60 5C52.9838 5 47.3077 10.6761 47.3077 17.6923V47.3077H17.6923C10.6761 47.3077 5 52.9838 5 60C5 67.0162 10.6761 72.6923 17.6923 72.6923H47.3077V102.308C47.3077 109.324 52.9838 115 60 115C67.0162 115 72.6923 109.324 72.6923 102.308V72.6923H102.308C109.324 72.6923 115 67.0162 115 60C115 52.9838 109.324 47.3077 102.308 47.3077H72.6923V17.6923Z" fill="white" stroke="white" stroke-width="10"/>
</svg>
