<svg width="324" height="66" viewBox="0 0 324 66" fill="none" xmlns="http://www.w3.org/2000/svg">
<mask id="path-1-outside-1_707_64" maskUnits="userSpaceOnUse" x="0.321289" y="0.187988" width="324" height="66" fill="black">
<rect fill="white" x="0.321289" y="0.187988" width="324" height="66"/>
<path d="M24.0853 23.232H21.9973V36.372H24.0853V38.316H35.7133V40.08H37.6213V44.184H35.7133V45.984H19.7293V44.22H17.4613V42.204H15.3373V40.044H13.3213V19.56H15.3373V17.364H17.4613V15.348H19.7293V13.62H35.7133V15.42H37.6213V19.524H35.7133V21.252H24.0853V23.232Z"/>
<path d="M54.8611 37.272V28.92H53.0971V27.444H50.0371V28.92H48.3091V37.272H50.0371V38.748H53.0971V37.272H54.8611ZM40.4251 40.584V25.608H41.9011V23.628H43.4851V21.864H45.1411V20.208H57.9931V21.864H59.6491V23.628H61.2331V25.608H62.7451V40.584H61.2331V42.564H59.6491V44.328H57.9931V45.984H45.1411V44.328H43.4851V42.564H41.9011V40.584H40.4251Z"/>
<path d="M97.7106 25.536H99.1506V44.544H97.7106V45.984H92.8506V44.544H91.4106V29.46H89.8986V27.696H87.7746V29.46H86.2626V44.544H84.8226V45.984H79.9986V44.544H78.5586V29.46H77.0106V27.696H74.8506V29.46H73.3026V44.544H71.8626V45.984H67.0026V44.544H65.5626V21.828H67.0026V20.172H71.6106V21.936H73.3026V20.172H83.3106V21.936H85.1466V20.172H94.4706V21.828H96.1266V23.592H97.7106V25.536Z"/>
<path d="M134.168 25.536H135.608V44.544H134.168V45.984H129.308V44.544H127.868V29.46H126.356V27.696H124.232V29.46H122.72V44.544H121.28V45.984H116.456V44.544H115.016V29.46H113.468V27.696H111.308V29.46H109.76V44.544H108.32V45.984H103.46V44.544H102.02V21.828H103.46V20.172H108.068V21.936H109.76V20.172H119.768V21.936H121.604V20.172H130.928V21.828H132.584V23.592H134.168V25.536Z"/>
<path d="M145.461 45.984H140.133V44.544H138.693V24.672H140.133V23.232H145.461V24.672H146.937V44.544H145.461V45.984ZM145.533 13.188V14.628H146.973V19.74H145.533V21.18H140.097V19.74H138.657V14.628H140.097V13.188H145.533Z"/>
<path d="M150.007 44.544V21.864H151.447V20.208H156.127V21.972H157.783V20.208H168.115V21.864H169.771V23.628H171.355V25.608H172.795V44.58H171.355V46.02H166.171V44.58H164.731V28.92H163.291V27.372H159.511V28.92H158.035V44.544H156.595V45.984H151.447V44.544H150.007Z"/>
<path d="M189.929 27.048H184.817V28.344H183.521V33.924H184.817V35.22H189.929V27.048ZM189.893 41.952H180.929V40.548H179.057V39.072H177.293V37.452H175.637V24.708H177.293V23.088H179.057V21.612H180.929V20.208H196.337V21.756H197.849V47.64H196.409V49.404H194.789V51.096H193.133V52.5H178.517V51.096H176.969V47.064H178.517V45.588H188.165V44.112H189.893V41.952Z"/>
<path d="M224.365 33.456H216.661V31.908H214.717V30.216H212.773V28.452H210.757V18.624H212.773V16.788H214.645V15.132H216.409V13.62H232.501V15.276H234.445V19.632H232.501V21.324H221.197V22.62H219.865V24.78H221.197V26.076H229.009V27.66H230.917V29.316H232.897V31.116H234.913V40.908H232.897V42.744H230.989V44.4H229.261V45.948H213.061V44.256H211.189V39.9H213.061V38.244H224.365V36.912H225.697V34.788H224.365V33.456Z"/>
<path d="M252.123 37.272V28.92H250.359V27.444H247.299V28.92H245.571V37.272H247.299V38.748H250.359V37.272H252.123ZM237.687 40.584V25.608H239.163V23.628H240.747V21.864H242.403V20.208H255.255V21.864H256.911V23.628H258.495V25.608H260.007V40.584H258.495V42.564H256.911V44.328H255.255V45.984H242.403V44.328H240.747V42.564H239.163V40.584H237.687Z"/>
<path d="M277.224 37.272V28.92H275.46V27.444H272.4V28.92H270.672V37.272H272.4V38.748H275.46V37.272H277.224ZM262.788 40.584V25.608H264.264V23.628H265.848V21.864H267.504V20.208H280.356V21.864H282.012V23.628H283.596V25.608H285.108V40.584H283.596V42.564H282.012V44.328H280.356V45.984H267.504V44.328H265.848V42.564H264.264V40.584H262.788Z"/>
<path d="M287.89 44.544V21.864H289.33V20.208H294.01V21.972H295.666V20.208H305.998V21.864H307.654V23.628H309.238V25.608H310.678V44.58H309.238V46.02H304.054V44.58H302.614V28.92H301.174V27.372H297.394V28.92H295.918V44.544H294.478V45.984H289.33V44.544H287.89Z"/>
</mask>
<path d="M24.0853 23.232H21.9973V36.372H24.0853V38.316H35.7133V40.08H37.6213V44.184H35.7133V45.984H19.7293V44.22H17.4613V42.204H15.3373V40.044H13.3213V19.56H15.3373V17.364H17.4613V15.348H19.7293V13.62H35.7133V15.42H37.6213V19.524H35.7133V21.252H24.0853V23.232Z" fill="white"/>
<path d="M54.8611 37.272V28.92H53.0971V27.444H50.0371V28.92H48.3091V37.272H50.0371V38.748H53.0971V37.272H54.8611ZM40.4251 40.584V25.608H41.9011V23.628H43.4851V21.864H45.1411V20.208H57.9931V21.864H59.6491V23.628H61.2331V25.608H62.7451V40.584H61.2331V42.564H59.6491V44.328H57.9931V45.984H45.1411V44.328H43.4851V42.564H41.9011V40.584H40.4251Z" fill="white"/>
<path d="M97.7106 25.536H99.1506V44.544H97.7106V45.984H92.8506V44.544H91.4106V29.46H89.8986V27.696H87.7746V29.46H86.2626V44.544H84.8226V45.984H79.9986V44.544H78.5586V29.46H77.0106V27.696H74.8506V29.46H73.3026V44.544H71.8626V45.984H67.0026V44.544H65.5626V21.828H67.0026V20.172H71.6106V21.936H73.3026V20.172H83.3106V21.936H85.1466V20.172H94.4706V21.828H96.1266V23.592H97.7106V25.536Z" fill="white"/>
<path d="M134.168 25.536H135.608V44.544H134.168V45.984H129.308V44.544H127.868V29.46H126.356V27.696H124.232V29.46H122.72V44.544H121.28V45.984H116.456V44.544H115.016V29.46H113.468V27.696H111.308V29.46H109.76V44.544H108.32V45.984H103.46V44.544H102.02V21.828H103.46V20.172H108.068V21.936H109.76V20.172H119.768V21.936H121.604V20.172H130.928V21.828H132.584V23.592H134.168V25.536Z" fill="white"/>
<path d="M145.461 45.984H140.133V44.544H138.693V24.672H140.133V23.232H145.461V24.672H146.937V44.544H145.461V45.984ZM145.533 13.188V14.628H146.973V19.74H145.533V21.18H140.097V19.74H138.657V14.628H140.097V13.188H145.533Z" fill="white"/>
<path d="M150.007 44.544V21.864H151.447V20.208H156.127V21.972H157.783V20.208H168.115V21.864H169.771V23.628H171.355V25.608H172.795V44.58H171.355V46.02H166.171V44.58H164.731V28.92H163.291V27.372H159.511V28.92H158.035V44.544H156.595V45.984H151.447V44.544H150.007Z" fill="white"/>
<path d="M189.929 27.048H184.817V28.344H183.521V33.924H184.817V35.22H189.929V27.048ZM189.893 41.952H180.929V40.548H179.057V39.072H177.293V37.452H175.637V24.708H177.293V23.088H179.057V21.612H180.929V20.208H196.337V21.756H197.849V47.64H196.409V49.404H194.789V51.096H193.133V52.5H178.517V51.096H176.969V47.064H178.517V45.588H188.165V44.112H189.893V41.952Z" fill="white"/>
<path d="M224.365 33.456H216.661V31.908H214.717V30.216H212.773V28.452H210.757V18.624H212.773V16.788H214.645V15.132H216.409V13.62H232.501V15.276H234.445V19.632H232.501V21.324H221.197V22.62H219.865V24.78H221.197V26.076H229.009V27.66H230.917V29.316H232.897V31.116H234.913V40.908H232.897V42.744H230.989V44.4H229.261V45.948H213.061V44.256H211.189V39.9H213.061V38.244H224.365V36.912H225.697V34.788H224.365V33.456Z" fill="white"/>
<path d="M252.123 37.272V28.92H250.359V27.444H247.299V28.92H245.571V37.272H247.299V38.748H250.359V37.272H252.123ZM237.687 40.584V25.608H239.163V23.628H240.747V21.864H242.403V20.208H255.255V21.864H256.911V23.628H258.495V25.608H260.007V40.584H258.495V42.564H256.911V44.328H255.255V45.984H242.403V44.328H240.747V42.564H239.163V40.584H237.687Z" fill="white"/>
<path d="M277.224 37.272V28.92H275.46V27.444H272.4V28.92H270.672V37.272H272.4V38.748H275.46V37.272H277.224ZM262.788 40.584V25.608H264.264V23.628H265.848V21.864H267.504V20.208H280.356V21.864H282.012V23.628H283.596V25.608H285.108V40.584H283.596V42.564H282.012V44.328H280.356V45.984H267.504V44.328H265.848V42.564H264.264V40.584H262.788Z" fill="white"/>
<path d="M287.89 44.544V21.864H289.33V20.208H294.01V21.972H295.666V20.208H305.998V21.864H307.654V23.628H309.238V25.608H310.678V44.58H309.238V46.02H304.054V44.58H302.614V28.92H301.174V27.372H297.394V28.92H295.918V44.544H294.478V45.984H289.33V44.544H287.89Z" fill="white"/>
<path d="M24.0853 23.232H21.9973V36.372H24.0853V38.316H35.7133V40.08H37.6213V44.184H35.7133V45.984H19.7293V44.22H17.4613V42.204H15.3373V40.044H13.3213V19.56H15.3373V17.364H17.4613V15.348H19.7293V13.62H35.7133V15.42H37.6213V19.524H35.7133V21.252H24.0853V23.232Z" stroke="#FF7D7D" stroke-width="26" mask="url(#path-1-outside-1_707_64)"/>
<path d="M54.8611 37.272V28.92H53.0971V27.444H50.0371V28.92H48.3091V37.272H50.0371V38.748H53.0971V37.272H54.8611ZM40.4251 40.584V25.608H41.9011V23.628H43.4851V21.864H45.1411V20.208H57.9931V21.864H59.6491V23.628H61.2331V25.608H62.7451V40.584H61.2331V42.564H59.6491V44.328H57.9931V45.984H45.1411V44.328H43.4851V42.564H41.9011V40.584H40.4251Z" stroke="#FF7D7D" stroke-width="26" mask="url(#path-1-outside-1_707_64)"/>
<path d="M97.7106 25.536H99.1506V44.544H97.7106V45.984H92.8506V44.544H91.4106V29.46H89.8986V27.696H87.7746V29.46H86.2626V44.544H84.8226V45.984H79.9986V44.544H78.5586V29.46H77.0106V27.696H74.8506V29.46H73.3026V44.544H71.8626V45.984H67.0026V44.544H65.5626V21.828H67.0026V20.172H71.6106V21.936H73.3026V20.172H83.3106V21.936H85.1466V20.172H94.4706V21.828H96.1266V23.592H97.7106V25.536Z" stroke="#FF7D7D" stroke-width="26" mask="url(#path-1-outside-1_707_64)"/>
<path d="M134.168 25.536H135.608V44.544H134.168V45.984H129.308V44.544H127.868V29.46H126.356V27.696H124.232V29.46H122.72V44.544H121.28V45.984H116.456V44.544H115.016V29.46H113.468V27.696H111.308V29.46H109.76V44.544H108.32V45.984H103.46V44.544H102.02V21.828H103.46V20.172H108.068V21.936H109.76V20.172H119.768V21.936H121.604V20.172H130.928V21.828H132.584V23.592H134.168V25.536Z" stroke="#FF7D7D" stroke-width="26" mask="url(#path-1-outside-1_707_64)"/>
<path d="M145.461 45.984H140.133V44.544H138.693V24.672H140.133V23.232H145.461V24.672H146.937V44.544H145.461V45.984ZM145.533 13.188V14.628H146.973V19.74H145.533V21.18H140.097V19.74H138.657V14.628H140.097V13.188H145.533Z" stroke="#FF7D7D" stroke-width="26" mask="url(#path-1-outside-1_707_64)"/>
<path d="M150.007 44.544V21.864H151.447V20.208H156.127V21.972H157.783V20.208H168.115V21.864H169.771V23.628H171.355V25.608H172.795V44.58H171.355V46.02H166.171V44.58H164.731V28.92H163.291V27.372H159.511V28.92H158.035V44.544H156.595V45.984H151.447V44.544H150.007Z" stroke="#FF7D7D" stroke-width="26" mask="url(#path-1-outside-1_707_64)"/>
<path d="M189.929 27.048H184.817V28.344H183.521V33.924H184.817V35.22H189.929V27.048ZM189.893 41.952H180.929V40.548H179.057V39.072H177.293V37.452H175.637V24.708H177.293V23.088H179.057V21.612H180.929V20.208H196.337V21.756H197.849V47.64H196.409V49.404H194.789V51.096H193.133V52.5H178.517V51.096H176.969V47.064H178.517V45.588H188.165V44.112H189.893V41.952Z" stroke="#FF7D7D" stroke-width="26" mask="url(#path-1-outside-1_707_64)"/>
<path d="M224.365 33.456H216.661V31.908H214.717V30.216H212.773V28.452H210.757V18.624H212.773V16.788H214.645V15.132H216.409V13.62H232.501V15.276H234.445V19.632H232.501V21.324H221.197V22.62H219.865V24.78H221.197V26.076H229.009V27.66H230.917V29.316H232.897V31.116H234.913V40.908H232.897V42.744H230.989V44.4H229.261V45.948H213.061V44.256H211.189V39.9H213.061V38.244H224.365V36.912H225.697V34.788H224.365V33.456Z" stroke="#FF7D7D" stroke-width="26" mask="url(#path-1-outside-1_707_64)"/>
<path d="M252.123 37.272V28.92H250.359V27.444H247.299V28.92H245.571V37.272H247.299V38.748H250.359V37.272H252.123ZM237.687 40.584V25.608H239.163V23.628H240.747V21.864H242.403V20.208H255.255V21.864H256.911V23.628H258.495V25.608H260.007V40.584H258.495V42.564H256.911V44.328H255.255V45.984H242.403V44.328H240.747V42.564H239.163V40.584H237.687Z" stroke="#FF7D7D" stroke-width="26" mask="url(#path-1-outside-1_707_64)"/>
<path d="M277.224 37.272V28.92H275.46V27.444H272.4V28.92H270.672V37.272H272.4V38.748H275.46V37.272H277.224ZM262.788 40.584V25.608H264.264V23.628H265.848V21.864H267.504V20.208H280.356V21.864H282.012V23.628H283.596V25.608H285.108V40.584H283.596V42.564H282.012V44.328H280.356V45.984H267.504V44.328H265.848V42.564H264.264V40.584H262.788Z" stroke="#FF7D7D" stroke-width="26" mask="url(#path-1-outside-1_707_64)"/>
<path d="M287.89 44.544V21.864H289.33V20.208H294.01V21.972H295.666V20.208H305.998V21.864H307.654V23.628H309.238V25.608H310.678V44.58H309.238V46.02H304.054V44.58H302.614V28.92H301.174V27.372H297.394V28.92H295.918V44.544H294.478V45.984H289.33V44.544H287.89Z" stroke="#FF7D7D" stroke-width="26" mask="url(#path-1-outside-1_707_64)"/>
</svg>
