<svg width="42" height="47" viewBox="0 0 42 47" fill="none" xmlns="http://www.w3.org/2000/svg">
<path d="M13.299 1.61987C13.7932 0.622322 14.809 0 15.9164 0H26.9352C28.0425 0 29.0584 0.622322 29.5526 1.61987L30.2115 2.92857H38.9972C40.6171 2.92857 41.9258 4.23728 41.9258 5.85714C41.9258 7.47701 40.6171 8.78571 38.9972 8.78571H3.85435C2.23449 8.78571 0.925781 7.47701 0.925781 5.85714C0.925781 4.23728 2.23449 2.92857 3.85435 2.92857H12.6401L13.299 1.61987ZM3.85435 11.7143H38.9972V41C38.9972 44.2306 36.3706 46.8571 33.1401 46.8571H9.7115C6.48092 46.8571 3.85435 44.2306 3.85435 41V11.7143ZM12.6401 17.5714C11.8347 17.5714 11.1758 18.2304 11.1758 19.0357V39.5357C11.1758 40.3411 11.8347 41 12.6401 41C13.4454 41 14.1044 40.3411 14.1044 39.5357V19.0357C14.1044 18.2304 13.4454 17.5714 12.6401 17.5714ZM21.4258 17.5714C20.6204 17.5714 19.9615 18.2304 19.9615 19.0357V39.5357C19.9615 40.3411 20.6204 41 21.4258 41C22.2311 41 22.8901 40.3411 22.8901 39.5357V19.0357C22.8901 18.2304 22.2311 17.5714 21.4258 17.5714ZM30.2115 17.5714C29.4061 17.5714 28.7472 18.2304 28.7472 19.0357V39.5357C28.7472 40.3411 29.4061 41 30.2115 41C31.0169 41 31.6758 40.3411 31.6758 39.5357V19.0357C31.6758 18.2304 31.0169 17.5714 30.2115 17.5714Z" fill="#EBEBEB"/>
</svg>
