<svg width="22" height="58" viewBox="0 0 22 58" fill="none" xmlns="http://www.w3.org/2000/svg">
<g filter="url(#filter0_di_372_1347)">
<path d="M11.0371 37.037C9.31815 37.037 7.66956 37.7199 6.45405 38.9354C5.23853 40.1509 4.55566 41.7995 4.55566 43.5185C4.55566 45.2375 5.23853 46.8861 6.45405 48.1016C7.66956 49.3171 9.31815 50 11.0371 50C12.7561 50 14.4047 49.3171 15.6202 48.1016C16.8358 46.8861 17.5186 45.2375 17.5186 43.5185C17.5186 41.7995 16.8358 40.1509 15.6202 38.9354C14.4047 37.7199 12.7561 37.037 11.0371 37.037ZM11.0371 18.5185C9.31815 18.5185 7.66956 19.2014 6.45405 20.4169C5.23853 21.6324 4.55566 23.281 4.55566 25C4.55566 26.719 5.23853 28.3676 6.45405 29.5831C7.66956 30.7986 9.31815 31.4815 11.0371 31.4815C12.7561 31.4815 14.4047 30.7986 15.6202 29.5831C16.8358 28.3676 17.5186 26.719 17.5186 25C17.5186 23.281 16.8358 21.6324 15.6202 20.4169C14.4047 19.2014 12.7561 18.5185 11.0371 18.5185ZM17.5186 6.48148C17.5186 4.76249 16.8358 3.1139 15.6202 1.89838C14.4047 0.682868 12.7561 0 11.0371 0C9.31815 0 7.66956 0.682868 6.45405 1.89838C5.23853 3.1139 4.55566 4.76249 4.55566 6.48148C4.55566 8.20048 5.23853 9.84907 6.45405 11.0646C7.66956 12.2801 9.31815 12.963 11.0371 12.963C12.7561 12.963 14.4047 12.2801 15.6202 11.0646C16.8358 9.84907 17.5186 8.20048 17.5186 6.48148Z" fill="white"/>
</g>
<defs>
<filter id="filter0_di_372_1347" x="0.555664" y="-4" width="20.9629" height="62" filterUnits="userSpaceOnUse" color-interpolation-filters="sRGB">
<feFlood flood-opacity="0" result="BackgroundImageFix"/>
<feColorMatrix in="SourceAlpha" type="matrix" values="0 0 0 0 0 0 0 0 0 0 0 0 0 0 0 0 0 0 127 0" result="hardAlpha"/>
<feOffset dy="4"/>
<feGaussianBlur stdDeviation="2"/>
<feComposite in2="hardAlpha" operator="out"/>
<feColorMatrix type="matrix" values="0 0 0 0 0 0 0 0 0 0 0 0 0 0 0 0 0 0 0.25 0"/>
<feBlend mode="normal" in2="BackgroundImageFix" result="effect1_dropShadow_372_1347"/>
<feBlend mode="normal" in="SourceGraphic" in2="effect1_dropShadow_372_1347" result="shape"/>
<feColorMatrix in="SourceAlpha" type="matrix" values="0 0 0 0 0 0 0 0 0 0 0 0 0 0 0 0 0 0 127 0" result="hardAlpha"/>
<feOffset dy="-4"/>
<feGaussianBlur stdDeviation="2"/>
<feComposite in2="hardAlpha" operator="arithmetic" k2="-1" k3="1"/>
<feColorMatrix type="matrix" values="0 0 0 0 0 0 0 0 0 0 0 0 0 0 0 0 0 0 0.25 0"/>
<feBlend mode="normal" in2="shape" result="effect2_innerShadow_372_1347"/>
</filter>
</defs>
</svg>
