<svg width="944" height="138" viewBox="0 0 944 138" fill="none" xmlns="http://www.w3.org/2000/svg">
<g filter="url(#filter0_d_719_83)">
<mask id="path-1-outside-1_719_83" maskUnits="userSpaceOnUse" x="4.72998" y="0" width="935" height="130" fill="black">
<rect fill="white" x="4.72998" width="935" height="130"/>
<path d="M88.602 89.12C92.698 90.4 94.746 93.088 94.746 97.184C94.746 101.024 92.7833 104.053 88.858 106.272C84.9327 108.491 78.1486 109.6 68.506 109.6C56.474 109.6 46.1486 106.699 37.53 100.896C28.9966 95.0933 24.73 83.5733 24.73 66.336C24.73 57.632 26.2233 49.7813 29.21 42.784C32.1966 35.7867 36.634 30.24 42.522 26.144C48.4953 22.048 55.7913 20 64.41 20C75.93 20 84.0367 21.792 88.73 25.376C93.4233 28.8747 95.77 33.184 95.77 38.304C95.77 40.6933 95.1727 42.912 93.978 44.96C92.7833 46.9227 90.9913 48.4587 88.602 49.568C86.554 50.592 83.9086 51.104 80.666 51.104L77.21 50.976C76.5273 50.8907 75.546 50.848 74.266 50.848C69.8286 50.848 66.33 51.6587 63.77 53.28C61.21 54.816 59.4606 57.2053 58.522 60.448C62.106 60.2773 65.3486 60.192 68.25 60.192C76.8686 60.192 82.458 60.448 85.018 60.96C87.9193 61.5573 90.138 62.7093 91.674 64.416C93.2953 66.1227 94.106 68.128 94.106 70.432C94.106 72.736 93.338 74.7413 91.802 76.448C90.266 78.0693 87.962 79.1787 84.89 79.776C82.5006 80.288 76.698 80.544 67.482 80.544C63.7273 80.544 61.082 80.5013 59.546 80.416C62.1913 86.048 67.1406 88.864 74.394 88.864C74.8206 88.864 75.802 88.7787 77.338 88.608C79.386 88.4373 81.1353 88.352 82.586 88.352C85.0607 88.352 87.066 88.608 88.602 89.12Z"/>
<path d="M138.198 109.6C127.19 109.6 119.169 108.277 114.134 105.632C109.099 102.987 105.857 98.7627 104.406 92.96C102.955 87.1573 102.23 78.112 102.23 65.824C102.23 53.3653 102.913 44.1067 104.278 38.048C105.729 31.904 108.929 27.3813 113.878 24.48C118.913 21.4933 126.891 20 137.814 20C144.385 20 151.083 21.536 157.91 24.608C164.737 27.5947 170.497 32.544 175.19 39.456C179.883 46.368 182.23 55.2 182.23 65.952C182.23 76.2773 179.841 84.7253 175.062 91.296C170.283 97.7813 164.523 102.475 157.782 105.376C151.041 108.192 144.513 109.6 138.198 109.6ZM130.262 87.072C132.993 87.4133 134.955 87.584 136.15 87.584C142.209 87.584 146.902 85.9627 150.23 82.72C153.558 79.4773 155.222 74.9973 155.222 69.28C155.222 64.16 153.601 60.192 150.358 57.376C147.115 54.4747 142.55 53.024 136.662 53.024C134.443 53.024 132.31 53.1947 130.262 53.536V87.072Z"/>
<path d="M222.452 86.432C226.804 86.944 230.175 88.0533 232.564 89.76C235.039 91.3813 236.276 93.984 236.276 97.568C236.276 101.152 234.996 103.797 232.436 105.504C229.961 107.211 226.975 108.277 223.476 108.704C219.977 109.045 215.455 109.216 209.908 109.216C204.447 109.216 199.967 109.045 196.468 108.704C192.969 108.277 189.983 107.211 187.508 105.504C185.033 103.797 183.796 101.152 183.796 97.568C183.796 94.0693 184.948 91.5093 187.252 89.888C189.641 88.1813 192.884 87.0293 196.98 86.432C196.553 81.4827 196.34 74.4 196.34 65.184C196.34 56.9067 196.511 50.2507 196.852 45.216C191.903 44.704 188.02 43.5093 185.204 41.632C182.388 39.7547 180.98 36.8107 180.98 32.8C180.98 28.8747 182.345 25.9733 185.076 24.096C187.807 22.2187 191.092 21.0667 194.932 20.64C198.772 20.2133 203.721 20 209.78 20C215.839 20 220.788 20.2133 224.628 20.64C228.468 21.0667 231.753 22.2187 234.484 24.096C237.3 25.9733 238.708 28.8747 238.708 32.8C238.708 36.8107 237.257 39.7547 234.356 41.632C231.54 43.5093 227.615 44.704 222.58 45.216C223.007 49.9093 223.22 56.5653 223.22 65.184C223.22 73.4613 222.964 80.544 222.452 86.432Z"/>
<path d="M333.101 39.072C333.101 44.704 330.754 48.8 326.061 51.36C321.453 53.8347 313.901 55.328 303.405 55.84C303.746 59.936 303.917 65.2267 303.917 71.712C303.917 80.7573 303.405 88.0107 302.381 93.472C301.442 98.848 299.778 102.859 297.389 105.504C295 108.064 291.672 109.344 287.405 109.344C283.224 109.344 280.024 107.979 277.805 105.248C275.586 102.517 274.05 98.464 273.197 93.088C272.344 87.712 271.917 80.5867 271.917 71.712C271.917 65.7387 272.045 60.448 272.301 55.84C265.218 55.4987 259.501 54.7733 255.149 53.664C250.882 52.4693 247.725 50.72 245.677 48.416C243.629 46.112 242.605 42.9973 242.605 39.072C242.605 34.2933 244.226 30.5387 247.469 27.808C250.712 25.0773 255.576 23.1573 262.061 22.048C268.546 20.9387 277.037 20.384 287.533 20.384C298.114 20.384 306.69 20.9387 313.261 22.048C319.832 23.1573 324.781 25.0773 328.109 27.808C331.437 30.5387 333.101 34.2933 333.101 39.072Z"/>
<path d="M395.903 109.728C388.906 109.728 384.127 105.717 381.567 97.696C379.092 89.6747 377.855 79.4347 377.855 66.976C377.855 58.8693 379.306 51.2747 382.207 44.192C385.194 37.024 389.716 31.264 395.775 26.912C401.834 22.4747 409.215 20.256 417.919 20.256C424.916 20.256 431.274 21.7493 436.991 24.736C442.708 27.6373 447.231 31.8187 450.559 37.28C453.972 42.7413 455.679 49.056 455.679 56.224C455.679 64.5013 454.015 71.456 450.687 77.088C447.359 82.72 443.05 86.9013 437.759 89.632C432.468 92.3627 426.879 93.728 420.991 93.728C416.212 93.728 411.818 92.9173 407.807 91.296C408.319 94.0267 408.575 96.1173 408.575 97.568C408.575 105.675 404.351 109.728 395.903 109.728ZM419.199 73.888C422.271 73.888 424.916 72.7787 427.135 70.56C429.439 68.256 430.591 65.6107 430.591 62.624C430.591 59.552 429.439 56.9067 427.135 54.688C424.916 52.384 422.271 51.232 419.199 51.232C416.212 51.232 413.567 52.384 411.263 54.688C408.959 56.9067 407.807 59.552 407.807 62.624C407.807 65.6107 408.959 68.256 411.263 70.56C413.567 72.7787 416.212 73.888 419.199 73.888Z"/>
<path d="M537.429 56.224C537.429 62.4533 536.49 67.9573 534.613 72.736C532.821 77.5147 530.261 81.5253 526.933 84.768C529.749 89.12 531.157 93.344 531.157 97.44C531.157 100.939 529.792 103.84 527.061 106.144C524.416 108.448 521.386 109.6 517.973 109.6C516.01 109.6 514.218 109.301 512.597 108.704C510.976 108.107 509.226 107.083 507.349 105.632C505.728 104.352 504.192 102.603 502.741 100.384C501.29 98.1653 500.138 95.8613 499.285 93.472C496.469 93.1307 493.653 92.4053 490.837 91.296C491.349 94.0267 491.605 96.1173 491.605 97.568C491.605 105.675 487.381 109.728 478.933 109.728C471.85 109.728 466.858 105.589 463.957 97.312C461.056 89.0347 459.605 78.9227 459.605 66.976C459.605 58.8693 461.056 51.2747 463.957 44.192C466.944 37.024 471.466 31.264 477.525 26.912C483.584 22.4747 490.965 20.256 499.669 20.256C506.666 20.256 513.024 21.7493 518.741 24.736C524.458 27.6373 528.981 31.8187 532.309 37.28C535.722 42.7413 537.429 49.056 537.429 56.224ZM489.557 62.24C489.557 65.1413 490.709 67.7013 493.013 69.92C495.317 72.0533 497.962 73.12 500.949 73.12C504.021 73.12 506.666 72.0533 508.885 69.92C511.189 67.7013 512.341 65.1413 512.341 62.24C512.341 59.2533 511.189 56.6933 508.885 54.56C506.666 52.3413 504.021 51.232 500.949 51.232C497.962 51.232 495.317 52.3413 493.013 54.56C490.709 56.7787 489.557 59.3387 489.557 62.24Z"/>
<path d="M585.003 109.728C577.238 109.813 570.027 107.893 563.371 103.968C556.8 100.043 551.51 94.6667 547.499 87.84C543.574 80.928 541.526 73.2907 541.355 64.928C541.27 56.9067 543.147 49.4827 546.987 42.656C550.827 35.8293 556.118 30.4107 562.859 26.4C569.6 22.304 576.982 20.256 585.003 20.256C592.854 20.1707 600.107 22.1333 606.763 26.144C613.504 30.1547 618.838 35.6587 622.763 42.656C626.688 49.6533 628.651 57.376 628.651 65.824C628.651 73.76 626.688 81.056 622.763 87.712C618.838 94.368 613.504 99.6587 606.763 103.584C600.107 107.509 592.854 109.557 585.003 109.728ZM585.387 84.768C589.312 84.768 592.64 83.36 595.371 80.544C598.187 77.728 599.552 74.0587 599.467 69.536C599.467 64.928 598.102 61.216 595.371 58.4C592.64 55.584 589.312 54.176 585.387 54.176C581.462 54.176 578.134 55.584 575.403 58.4C572.672 61.216 571.307 64.928 571.307 69.536C571.307 74.0587 572.672 77.728 575.403 80.544C578.134 83.36 581.462 84.768 585.387 84.768Z"/>
<path d="M681.057 65.568C686.092 65.568 690.23 65.824 693.473 66.336C696.801 66.7627 699.489 67.7867 701.537 69.408C703.67 70.944 704.737 73.2907 704.737 76.448C704.737 80.9707 702.988 83.9573 699.489 85.408C696.076 86.8587 691.084 87.584 684.513 87.584L673.889 87.456L665.825 87.584C666.166 90.8267 666.337 93.3867 666.337 95.264C666.337 104.736 662.582 109.472 655.073 109.472C648.844 109.472 643.937 106.016 640.353 99.104C636.854 92.192 635.105 81.3973 635.105 66.72C635.105 57.6747 636.982 49.6107 640.737 42.528C644.577 35.4453 649.782 29.9413 656.353 26.016C662.924 22.0053 670.134 20 677.985 20C687.713 20 695.094 21.664 700.129 24.992C705.249 28.32 707.809 32.9707 707.809 38.944C707.809 43.1253 706.785 46.3253 704.737 48.544C702.774 50.6773 700.001 52.128 696.417 52.896C692.918 53.5787 688.268 53.92 682.465 53.92C677.772 53.92 673.718 54.8587 670.305 56.736C666.977 58.6133 665.142 61.216 664.801 64.544L664.673 65.696C665.697 65.6107 667.233 65.568 669.281 65.568H681.057Z"/>
<path d="M753.202 86.432C757.554 86.944 760.925 88.0533 763.314 89.76C765.789 91.3813 767.026 93.984 767.026 97.568C767.026 101.152 765.746 103.797 763.186 105.504C760.711 107.211 757.725 108.277 754.226 108.704C750.727 109.045 746.205 109.216 740.658 109.216C735.197 109.216 730.717 109.045 727.218 108.704C723.719 108.277 720.733 107.211 718.258 105.504C715.783 103.797 714.546 101.152 714.546 97.568C714.546 94.0693 715.698 91.5093 718.002 89.888C720.391 88.1813 723.634 87.0293 727.73 86.432C727.303 81.4827 727.09 74.4 727.09 65.184C727.09 56.9067 727.261 50.2507 727.602 45.216C722.653 44.704 718.77 43.5093 715.954 41.632C713.138 39.7547 711.73 36.8107 711.73 32.8C711.73 28.8747 713.095 25.9733 715.826 24.096C718.557 22.2187 721.842 21.0667 725.682 20.64C729.522 20.2133 734.471 20 740.53 20C746.589 20 751.538 20.2133 755.378 20.64C759.218 21.0667 762.503 22.2187 765.234 24.096C768.05 25.9733 769.458 28.8747 769.458 32.8C769.458 36.8107 768.007 39.7547 765.106 41.632C762.29 43.5093 758.365 44.704 753.33 45.216C753.757 49.9093 753.97 56.5653 753.97 65.184C753.97 73.4613 753.714 80.544 753.202 86.432Z"/>
<path d="M808.939 109.6C800.32 109.6 793.024 107.851 787.051 104.352C781.078 100.768 777.152 95.4347 775.275 88.352C774.507 85.4507 773.995 81.9093 773.739 77.728C773.483 73.5467 773.355 68.2133 773.355 61.728C773.355 49.0133 774.72 38.9013 777.451 31.392C780.267 23.7973 785.814 20 794.091 20C799.211 20 803.222 21.792 806.123 25.376C809.11 28.96 810.603 33.3973 810.603 38.688C810.603 44.32 810.134 50.336 809.195 56.736C808.256 63.136 806.934 70.9013 805.227 80.032C810.518 78.3253 816.32 77.472 822.635 77.472C829.206 77.472 834.667 78.6667 839.019 81.056C843.456 83.4453 845.675 87.328 845.675 92.704C845.675 97.9093 843.968 101.749 840.555 104.224C837.142 106.699 833.003 108.235 828.139 108.832C823.275 109.344 816.875 109.6 808.939 109.6Z"/>
<path d="M912.102 89.12C916.198 90.4 918.246 93.088 918.246 97.184C918.246 101.024 916.283 104.053 912.358 106.272C908.433 108.491 901.649 109.6 892.006 109.6C879.974 109.6 869.649 106.699 861.03 100.896C852.497 95.0933 848.23 83.5733 848.23 66.336C848.23 57.632 849.723 49.7813 852.71 42.784C855.697 35.7867 860.134 30.24 866.022 26.144C871.995 22.048 879.291 20 887.91 20C899.43 20 907.537 21.792 912.23 25.376C916.923 28.8747 919.27 33.184 919.27 38.304C919.27 40.6933 918.673 42.912 917.478 44.96C916.283 46.9227 914.491 48.4587 912.102 49.568C910.054 50.592 907.409 51.104 904.166 51.104L900.71 50.976C900.027 50.8907 899.046 50.848 897.766 50.848C893.329 50.848 889.83 51.6587 887.27 53.28C884.71 54.816 882.961 57.2053 882.022 60.448C885.606 60.2773 888.849 60.192 891.75 60.192C900.369 60.192 905.958 60.448 908.518 60.96C911.419 61.5573 913.638 62.7093 915.174 64.416C916.795 66.1227 917.606 68.128 917.606 70.432C917.606 72.736 916.838 74.7413 915.302 76.448C913.766 78.0693 911.462 79.1787 908.39 79.776C906.001 80.288 900.198 80.544 890.982 80.544C887.227 80.544 884.582 80.5013 883.046 80.416C885.691 86.048 890.641 88.864 897.894 88.864C898.321 88.864 899.302 88.7787 900.838 88.608C902.886 88.4373 904.635 88.352 906.086 88.352C908.561 88.352 910.566 88.608 912.102 89.12Z"/>
</mask>
<path d="M88.602 89.12C92.698 90.4 94.746 93.088 94.746 97.184C94.746 101.024 92.7833 104.053 88.858 106.272C84.9327 108.491 78.1486 109.6 68.506 109.6C56.474 109.6 46.1486 106.699 37.53 100.896C28.9966 95.0933 24.73 83.5733 24.73 66.336C24.73 57.632 26.2233 49.7813 29.21 42.784C32.1966 35.7867 36.634 30.24 42.522 26.144C48.4953 22.048 55.7913 20 64.41 20C75.93 20 84.0367 21.792 88.73 25.376C93.4233 28.8747 95.77 33.184 95.77 38.304C95.77 40.6933 95.1727 42.912 93.978 44.96C92.7833 46.9227 90.9913 48.4587 88.602 49.568C86.554 50.592 83.9086 51.104 80.666 51.104L77.21 50.976C76.5273 50.8907 75.546 50.848 74.266 50.848C69.8286 50.848 66.33 51.6587 63.77 53.28C61.21 54.816 59.4606 57.2053 58.522 60.448C62.106 60.2773 65.3486 60.192 68.25 60.192C76.8686 60.192 82.458 60.448 85.018 60.96C87.9193 61.5573 90.138 62.7093 91.674 64.416C93.2953 66.1227 94.106 68.128 94.106 70.432C94.106 72.736 93.338 74.7413 91.802 76.448C90.266 78.0693 87.962 79.1787 84.89 79.776C82.5006 80.288 76.698 80.544 67.482 80.544C63.7273 80.544 61.082 80.5013 59.546 80.416C62.1913 86.048 67.1406 88.864 74.394 88.864C74.8206 88.864 75.802 88.7787 77.338 88.608C79.386 88.4373 81.1353 88.352 82.586 88.352C85.0607 88.352 87.066 88.608 88.602 89.12Z" fill="white"/>
<path d="M138.198 109.6C127.19 109.6 119.169 108.277 114.134 105.632C109.099 102.987 105.857 98.7627 104.406 92.96C102.955 87.1573 102.23 78.112 102.23 65.824C102.23 53.3653 102.913 44.1067 104.278 38.048C105.729 31.904 108.929 27.3813 113.878 24.48C118.913 21.4933 126.891 20 137.814 20C144.385 20 151.083 21.536 157.91 24.608C164.737 27.5947 170.497 32.544 175.19 39.456C179.883 46.368 182.23 55.2 182.23 65.952C182.23 76.2773 179.841 84.7253 175.062 91.296C170.283 97.7813 164.523 102.475 157.782 105.376C151.041 108.192 144.513 109.6 138.198 109.6ZM130.262 87.072C132.993 87.4133 134.955 87.584 136.15 87.584C142.209 87.584 146.902 85.9627 150.23 82.72C153.558 79.4773 155.222 74.9973 155.222 69.28C155.222 64.16 153.601 60.192 150.358 57.376C147.115 54.4747 142.55 53.024 136.662 53.024C134.443 53.024 132.31 53.1947 130.262 53.536V87.072Z" fill="white"/>
<path d="M222.452 86.432C226.804 86.944 230.175 88.0533 232.564 89.76C235.039 91.3813 236.276 93.984 236.276 97.568C236.276 101.152 234.996 103.797 232.436 105.504C229.961 107.211 226.975 108.277 223.476 108.704C219.977 109.045 215.455 109.216 209.908 109.216C204.447 109.216 199.967 109.045 196.468 108.704C192.969 108.277 189.983 107.211 187.508 105.504C185.033 103.797 183.796 101.152 183.796 97.568C183.796 94.0693 184.948 91.5093 187.252 89.888C189.641 88.1813 192.884 87.0293 196.98 86.432C196.553 81.4827 196.34 74.4 196.34 65.184C196.34 56.9067 196.511 50.2507 196.852 45.216C191.903 44.704 188.02 43.5093 185.204 41.632C182.388 39.7547 180.98 36.8107 180.98 32.8C180.98 28.8747 182.345 25.9733 185.076 24.096C187.807 22.2187 191.092 21.0667 194.932 20.64C198.772 20.2133 203.721 20 209.78 20C215.839 20 220.788 20.2133 224.628 20.64C228.468 21.0667 231.753 22.2187 234.484 24.096C237.3 25.9733 238.708 28.8747 238.708 32.8C238.708 36.8107 237.257 39.7547 234.356 41.632C231.54 43.5093 227.615 44.704 222.58 45.216C223.007 49.9093 223.22 56.5653 223.22 65.184C223.22 73.4613 222.964 80.544 222.452 86.432Z" fill="white"/>
<path d="M333.101 39.072C333.101 44.704 330.754 48.8 326.061 51.36C321.453 53.8347 313.901 55.328 303.405 55.84C303.746 59.936 303.917 65.2267 303.917 71.712C303.917 80.7573 303.405 88.0107 302.381 93.472C301.442 98.848 299.778 102.859 297.389 105.504C295 108.064 291.672 109.344 287.405 109.344C283.224 109.344 280.024 107.979 277.805 105.248C275.586 102.517 274.05 98.464 273.197 93.088C272.344 87.712 271.917 80.5867 271.917 71.712C271.917 65.7387 272.045 60.448 272.301 55.84C265.218 55.4987 259.501 54.7733 255.149 53.664C250.882 52.4693 247.725 50.72 245.677 48.416C243.629 46.112 242.605 42.9973 242.605 39.072C242.605 34.2933 244.226 30.5387 247.469 27.808C250.712 25.0773 255.576 23.1573 262.061 22.048C268.546 20.9387 277.037 20.384 287.533 20.384C298.114 20.384 306.69 20.9387 313.261 22.048C319.832 23.1573 324.781 25.0773 328.109 27.808C331.437 30.5387 333.101 34.2933 333.101 39.072Z" fill="white"/>
<path d="M395.903 109.728C388.906 109.728 384.127 105.717 381.567 97.696C379.092 89.6747 377.855 79.4347 377.855 66.976C377.855 58.8693 379.306 51.2747 382.207 44.192C385.194 37.024 389.716 31.264 395.775 26.912C401.834 22.4747 409.215 20.256 417.919 20.256C424.916 20.256 431.274 21.7493 436.991 24.736C442.708 27.6373 447.231 31.8187 450.559 37.28C453.972 42.7413 455.679 49.056 455.679 56.224C455.679 64.5013 454.015 71.456 450.687 77.088C447.359 82.72 443.05 86.9013 437.759 89.632C432.468 92.3627 426.879 93.728 420.991 93.728C416.212 93.728 411.818 92.9173 407.807 91.296C408.319 94.0267 408.575 96.1173 408.575 97.568C408.575 105.675 404.351 109.728 395.903 109.728ZM419.199 73.888C422.271 73.888 424.916 72.7787 427.135 70.56C429.439 68.256 430.591 65.6107 430.591 62.624C430.591 59.552 429.439 56.9067 427.135 54.688C424.916 52.384 422.271 51.232 419.199 51.232C416.212 51.232 413.567 52.384 411.263 54.688C408.959 56.9067 407.807 59.552 407.807 62.624C407.807 65.6107 408.959 68.256 411.263 70.56C413.567 72.7787 416.212 73.888 419.199 73.888Z" fill="white"/>
<path d="M537.429 56.224C537.429 62.4533 536.49 67.9573 534.613 72.736C532.821 77.5147 530.261 81.5253 526.933 84.768C529.749 89.12 531.157 93.344 531.157 97.44C531.157 100.939 529.792 103.84 527.061 106.144C524.416 108.448 521.386 109.6 517.973 109.6C516.01 109.6 514.218 109.301 512.597 108.704C510.976 108.107 509.226 107.083 507.349 105.632C505.728 104.352 504.192 102.603 502.741 100.384C501.29 98.1653 500.138 95.8613 499.285 93.472C496.469 93.1307 493.653 92.4053 490.837 91.296C491.349 94.0267 491.605 96.1173 491.605 97.568C491.605 105.675 487.381 109.728 478.933 109.728C471.85 109.728 466.858 105.589 463.957 97.312C461.056 89.0347 459.605 78.9227 459.605 66.976C459.605 58.8693 461.056 51.2747 463.957 44.192C466.944 37.024 471.466 31.264 477.525 26.912C483.584 22.4747 490.965 20.256 499.669 20.256C506.666 20.256 513.024 21.7493 518.741 24.736C524.458 27.6373 528.981 31.8187 532.309 37.28C535.722 42.7413 537.429 49.056 537.429 56.224ZM489.557 62.24C489.557 65.1413 490.709 67.7013 493.013 69.92C495.317 72.0533 497.962 73.12 500.949 73.12C504.021 73.12 506.666 72.0533 508.885 69.92C511.189 67.7013 512.341 65.1413 512.341 62.24C512.341 59.2533 511.189 56.6933 508.885 54.56C506.666 52.3413 504.021 51.232 500.949 51.232C497.962 51.232 495.317 52.3413 493.013 54.56C490.709 56.7787 489.557 59.3387 489.557 62.24Z" fill="white"/>
<path d="M585.003 109.728C577.238 109.813 570.027 107.893 563.371 103.968C556.8 100.043 551.51 94.6667 547.499 87.84C543.574 80.928 541.526 73.2907 541.355 64.928C541.27 56.9067 543.147 49.4827 546.987 42.656C550.827 35.8293 556.118 30.4107 562.859 26.4C569.6 22.304 576.982 20.256 585.003 20.256C592.854 20.1707 600.107 22.1333 606.763 26.144C613.504 30.1547 618.838 35.6587 622.763 42.656C626.688 49.6533 628.651 57.376 628.651 65.824C628.651 73.76 626.688 81.056 622.763 87.712C618.838 94.368 613.504 99.6587 606.763 103.584C600.107 107.509 592.854 109.557 585.003 109.728ZM585.387 84.768C589.312 84.768 592.64 83.36 595.371 80.544C598.187 77.728 599.552 74.0587 599.467 69.536C599.467 64.928 598.102 61.216 595.371 58.4C592.64 55.584 589.312 54.176 585.387 54.176C581.462 54.176 578.134 55.584 575.403 58.4C572.672 61.216 571.307 64.928 571.307 69.536C571.307 74.0587 572.672 77.728 575.403 80.544C578.134 83.36 581.462 84.768 585.387 84.768Z" fill="white"/>
<path d="M681.057 65.568C686.092 65.568 690.23 65.824 693.473 66.336C696.801 66.7627 699.489 67.7867 701.537 69.408C703.67 70.944 704.737 73.2907 704.737 76.448C704.737 80.9707 702.988 83.9573 699.489 85.408C696.076 86.8587 691.084 87.584 684.513 87.584L673.889 87.456L665.825 87.584C666.166 90.8267 666.337 93.3867 666.337 95.264C666.337 104.736 662.582 109.472 655.073 109.472C648.844 109.472 643.937 106.016 640.353 99.104C636.854 92.192 635.105 81.3973 635.105 66.72C635.105 57.6747 636.982 49.6107 640.737 42.528C644.577 35.4453 649.782 29.9413 656.353 26.016C662.924 22.0053 670.134 20 677.985 20C687.713 20 695.094 21.664 700.129 24.992C705.249 28.32 707.809 32.9707 707.809 38.944C707.809 43.1253 706.785 46.3253 704.737 48.544C702.774 50.6773 700.001 52.128 696.417 52.896C692.918 53.5787 688.268 53.92 682.465 53.92C677.772 53.92 673.718 54.8587 670.305 56.736C666.977 58.6133 665.142 61.216 664.801 64.544L664.673 65.696C665.697 65.6107 667.233 65.568 669.281 65.568H681.057Z" fill="white"/>
<path d="M753.202 86.432C757.554 86.944 760.925 88.0533 763.314 89.76C765.789 91.3813 767.026 93.984 767.026 97.568C767.026 101.152 765.746 103.797 763.186 105.504C760.711 107.211 757.725 108.277 754.226 108.704C750.727 109.045 746.205 109.216 740.658 109.216C735.197 109.216 730.717 109.045 727.218 108.704C723.719 108.277 720.733 107.211 718.258 105.504C715.783 103.797 714.546 101.152 714.546 97.568C714.546 94.0693 715.698 91.5093 718.002 89.888C720.391 88.1813 723.634 87.0293 727.73 86.432C727.303 81.4827 727.09 74.4 727.09 65.184C727.09 56.9067 727.261 50.2507 727.602 45.216C722.653 44.704 718.77 43.5093 715.954 41.632C713.138 39.7547 711.73 36.8107 711.73 32.8C711.73 28.8747 713.095 25.9733 715.826 24.096C718.557 22.2187 721.842 21.0667 725.682 20.64C729.522 20.2133 734.471 20 740.53 20C746.589 20 751.538 20.2133 755.378 20.64C759.218 21.0667 762.503 22.2187 765.234 24.096C768.05 25.9733 769.458 28.8747 769.458 32.8C769.458 36.8107 768.007 39.7547 765.106 41.632C762.29 43.5093 758.365 44.704 753.33 45.216C753.757 49.9093 753.97 56.5653 753.97 65.184C753.97 73.4613 753.714 80.544 753.202 86.432Z" fill="white"/>
<path d="M808.939 109.6C800.32 109.6 793.024 107.851 787.051 104.352C781.078 100.768 777.152 95.4347 775.275 88.352C774.507 85.4507 773.995 81.9093 773.739 77.728C773.483 73.5467 773.355 68.2133 773.355 61.728C773.355 49.0133 774.72 38.9013 777.451 31.392C780.267 23.7973 785.814 20 794.091 20C799.211 20 803.222 21.792 806.123 25.376C809.11 28.96 810.603 33.3973 810.603 38.688C810.603 44.32 810.134 50.336 809.195 56.736C808.256 63.136 806.934 70.9013 805.227 80.032C810.518 78.3253 816.32 77.472 822.635 77.472C829.206 77.472 834.667 78.6667 839.019 81.056C843.456 83.4453 845.675 87.328 845.675 92.704C845.675 97.9093 843.968 101.749 840.555 104.224C837.142 106.699 833.003 108.235 828.139 108.832C823.275 109.344 816.875 109.6 808.939 109.6Z" fill="white"/>
<path d="M912.102 89.12C916.198 90.4 918.246 93.088 918.246 97.184C918.246 101.024 916.283 104.053 912.358 106.272C908.433 108.491 901.649 109.6 892.006 109.6C879.974 109.6 869.649 106.699 861.03 100.896C852.497 95.0933 848.23 83.5733 848.23 66.336C848.23 57.632 849.723 49.7813 852.71 42.784C855.697 35.7867 860.134 30.24 866.022 26.144C871.995 22.048 879.291 20 887.91 20C899.43 20 907.537 21.792 912.23 25.376C916.923 28.8747 919.27 33.184 919.27 38.304C919.27 40.6933 918.673 42.912 917.478 44.96C916.283 46.9227 914.491 48.4587 912.102 49.568C910.054 50.592 907.409 51.104 904.166 51.104L900.71 50.976C900.027 50.8907 899.046 50.848 897.766 50.848C893.329 50.848 889.83 51.6587 887.27 53.28C884.71 54.816 882.961 57.2053 882.022 60.448C885.606 60.2773 888.849 60.192 891.75 60.192C900.369 60.192 905.958 60.448 908.518 60.96C911.419 61.5573 913.638 62.7093 915.174 64.416C916.795 66.1227 917.606 68.128 917.606 70.432C917.606 72.736 916.838 74.7413 915.302 76.448C913.766 78.0693 911.462 79.1787 908.39 79.776C906.001 80.288 900.198 80.544 890.982 80.544C887.227 80.544 884.582 80.5013 883.046 80.416C885.691 86.048 890.641 88.864 897.894 88.864C898.321 88.864 899.302 88.7787 900.838 88.608C902.886 88.4373 904.635 88.352 906.086 88.352C908.561 88.352 910.566 88.608 912.102 89.12Z" fill="white"/>
<path d="M88.602 89.12C92.698 90.4 94.746 93.088 94.746 97.184C94.746 101.024 92.7833 104.053 88.858 106.272C84.9327 108.491 78.1486 109.6 68.506 109.6C56.474 109.6 46.1486 106.699 37.53 100.896C28.9966 95.0933 24.73 83.5733 24.73 66.336C24.73 57.632 26.2233 49.7813 29.21 42.784C32.1966 35.7867 36.634 30.24 42.522 26.144C48.4953 22.048 55.7913 20 64.41 20C75.93 20 84.0367 21.792 88.73 25.376C93.4233 28.8747 95.77 33.184 95.77 38.304C95.77 40.6933 95.1727 42.912 93.978 44.96C92.7833 46.9227 90.9913 48.4587 88.602 49.568C86.554 50.592 83.9086 51.104 80.666 51.104L77.21 50.976C76.5273 50.8907 75.546 50.848 74.266 50.848C69.8286 50.848 66.33 51.6587 63.77 53.28C61.21 54.816 59.4606 57.2053 58.522 60.448C62.106 60.2773 65.3486 60.192 68.25 60.192C76.8686 60.192 82.458 60.448 85.018 60.96C87.9193 61.5573 90.138 62.7093 91.674 64.416C93.2953 66.1227 94.106 68.128 94.106 70.432C94.106 72.736 93.338 74.7413 91.802 76.448C90.266 78.0693 87.962 79.1787 84.89 79.776C82.5006 80.288 76.698 80.544 67.482 80.544C63.7273 80.544 61.082 80.5013 59.546 80.416C62.1913 86.048 67.1406 88.864 74.394 88.864C74.8206 88.864 75.802 88.7787 77.338 88.608C79.386 88.4373 81.1353 88.352 82.586 88.352C85.0607 88.352 87.066 88.608 88.602 89.12Z" stroke="#FF6161" stroke-width="40" mask="url(#path-1-outside-1_719_83)"/>
<path d="M138.198 109.6C127.19 109.6 119.169 108.277 114.134 105.632C109.099 102.987 105.857 98.7627 104.406 92.96C102.955 87.1573 102.23 78.112 102.23 65.824C102.23 53.3653 102.913 44.1067 104.278 38.048C105.729 31.904 108.929 27.3813 113.878 24.48C118.913 21.4933 126.891 20 137.814 20C144.385 20 151.083 21.536 157.91 24.608C164.737 27.5947 170.497 32.544 175.19 39.456C179.883 46.368 182.23 55.2 182.23 65.952C182.23 76.2773 179.841 84.7253 175.062 91.296C170.283 97.7813 164.523 102.475 157.782 105.376C151.041 108.192 144.513 109.6 138.198 109.6ZM130.262 87.072C132.993 87.4133 134.955 87.584 136.15 87.584C142.209 87.584 146.902 85.9627 150.23 82.72C153.558 79.4773 155.222 74.9973 155.222 69.28C155.222 64.16 153.601 60.192 150.358 57.376C147.115 54.4747 142.55 53.024 136.662 53.024C134.443 53.024 132.31 53.1947 130.262 53.536V87.072Z" stroke="#FF6161" stroke-width="40" mask="url(#path-1-outside-1_719_83)"/>
<path d="M222.452 86.432C226.804 86.944 230.175 88.0533 232.564 89.76C235.039 91.3813 236.276 93.984 236.276 97.568C236.276 101.152 234.996 103.797 232.436 105.504C229.961 107.211 226.975 108.277 223.476 108.704C219.977 109.045 215.455 109.216 209.908 109.216C204.447 109.216 199.967 109.045 196.468 108.704C192.969 108.277 189.983 107.211 187.508 105.504C185.033 103.797 183.796 101.152 183.796 97.568C183.796 94.0693 184.948 91.5093 187.252 89.888C189.641 88.1813 192.884 87.0293 196.98 86.432C196.553 81.4827 196.34 74.4 196.34 65.184C196.34 56.9067 196.511 50.2507 196.852 45.216C191.903 44.704 188.02 43.5093 185.204 41.632C182.388 39.7547 180.98 36.8107 180.98 32.8C180.98 28.8747 182.345 25.9733 185.076 24.096C187.807 22.2187 191.092 21.0667 194.932 20.64C198.772 20.2133 203.721 20 209.78 20C215.839 20 220.788 20.2133 224.628 20.64C228.468 21.0667 231.753 22.2187 234.484 24.096C237.3 25.9733 238.708 28.8747 238.708 32.8C238.708 36.8107 237.257 39.7547 234.356 41.632C231.54 43.5093 227.615 44.704 222.58 45.216C223.007 49.9093 223.22 56.5653 223.22 65.184C223.22 73.4613 222.964 80.544 222.452 86.432Z" stroke="#FF6161" stroke-width="40" mask="url(#path-1-outside-1_719_83)"/>
<path d="M333.101 39.072C333.101 44.704 330.754 48.8 326.061 51.36C321.453 53.8347 313.901 55.328 303.405 55.84C303.746 59.936 303.917 65.2267 303.917 71.712C303.917 80.7573 303.405 88.0107 302.381 93.472C301.442 98.848 299.778 102.859 297.389 105.504C295 108.064 291.672 109.344 287.405 109.344C283.224 109.344 280.024 107.979 277.805 105.248C275.586 102.517 274.05 98.464 273.197 93.088C272.344 87.712 271.917 80.5867 271.917 71.712C271.917 65.7387 272.045 60.448 272.301 55.84C265.218 55.4987 259.501 54.7733 255.149 53.664C250.882 52.4693 247.725 50.72 245.677 48.416C243.629 46.112 242.605 42.9973 242.605 39.072C242.605 34.2933 244.226 30.5387 247.469 27.808C250.712 25.0773 255.576 23.1573 262.061 22.048C268.546 20.9387 277.037 20.384 287.533 20.384C298.114 20.384 306.69 20.9387 313.261 22.048C319.832 23.1573 324.781 25.0773 328.109 27.808C331.437 30.5387 333.101 34.2933 333.101 39.072Z" stroke="#FF6161" stroke-width="40" mask="url(#path-1-outside-1_719_83)"/>
<path d="M395.903 109.728C388.906 109.728 384.127 105.717 381.567 97.696C379.092 89.6747 377.855 79.4347 377.855 66.976C377.855 58.8693 379.306 51.2747 382.207 44.192C385.194 37.024 389.716 31.264 395.775 26.912C401.834 22.4747 409.215 20.256 417.919 20.256C424.916 20.256 431.274 21.7493 436.991 24.736C442.708 27.6373 447.231 31.8187 450.559 37.28C453.972 42.7413 455.679 49.056 455.679 56.224C455.679 64.5013 454.015 71.456 450.687 77.088C447.359 82.72 443.05 86.9013 437.759 89.632C432.468 92.3627 426.879 93.728 420.991 93.728C416.212 93.728 411.818 92.9173 407.807 91.296C408.319 94.0267 408.575 96.1173 408.575 97.568C408.575 105.675 404.351 109.728 395.903 109.728ZM419.199 73.888C422.271 73.888 424.916 72.7787 427.135 70.56C429.439 68.256 430.591 65.6107 430.591 62.624C430.591 59.552 429.439 56.9067 427.135 54.688C424.916 52.384 422.271 51.232 419.199 51.232C416.212 51.232 413.567 52.384 411.263 54.688C408.959 56.9067 407.807 59.552 407.807 62.624C407.807 65.6107 408.959 68.256 411.263 70.56C413.567 72.7787 416.212 73.888 419.199 73.888Z" stroke="#FF6161" stroke-width="40" mask="url(#path-1-outside-1_719_83)"/>
<path d="M537.429 56.224C537.429 62.4533 536.49 67.9573 534.613 72.736C532.821 77.5147 530.261 81.5253 526.933 84.768C529.749 89.12 531.157 93.344 531.157 97.44C531.157 100.939 529.792 103.84 527.061 106.144C524.416 108.448 521.386 109.6 517.973 109.6C516.01 109.6 514.218 109.301 512.597 108.704C510.976 108.107 509.226 107.083 507.349 105.632C505.728 104.352 504.192 102.603 502.741 100.384C501.29 98.1653 500.138 95.8613 499.285 93.472C496.469 93.1307 493.653 92.4053 490.837 91.296C491.349 94.0267 491.605 96.1173 491.605 97.568C491.605 105.675 487.381 109.728 478.933 109.728C471.85 109.728 466.858 105.589 463.957 97.312C461.056 89.0347 459.605 78.9227 459.605 66.976C459.605 58.8693 461.056 51.2747 463.957 44.192C466.944 37.024 471.466 31.264 477.525 26.912C483.584 22.4747 490.965 20.256 499.669 20.256C506.666 20.256 513.024 21.7493 518.741 24.736C524.458 27.6373 528.981 31.8187 532.309 37.28C535.722 42.7413 537.429 49.056 537.429 56.224ZM489.557 62.24C489.557 65.1413 490.709 67.7013 493.013 69.92C495.317 72.0533 497.962 73.12 500.949 73.12C504.021 73.12 506.666 72.0533 508.885 69.92C511.189 67.7013 512.341 65.1413 512.341 62.24C512.341 59.2533 511.189 56.6933 508.885 54.56C506.666 52.3413 504.021 51.232 500.949 51.232C497.962 51.232 495.317 52.3413 493.013 54.56C490.709 56.7787 489.557 59.3387 489.557 62.24Z" stroke="#FF6161" stroke-width="40" mask="url(#path-1-outside-1_719_83)"/>
<path d="M585.003 109.728C577.238 109.813 570.027 107.893 563.371 103.968C556.8 100.043 551.51 94.6667 547.499 87.84C543.574 80.928 541.526 73.2907 541.355 64.928C541.27 56.9067 543.147 49.4827 546.987 42.656C550.827 35.8293 556.118 30.4107 562.859 26.4C569.6 22.304 576.982 20.256 585.003 20.256C592.854 20.1707 600.107 22.1333 606.763 26.144C613.504 30.1547 618.838 35.6587 622.763 42.656C626.688 49.6533 628.651 57.376 628.651 65.824C628.651 73.76 626.688 81.056 622.763 87.712C618.838 94.368 613.504 99.6587 606.763 103.584C600.107 107.509 592.854 109.557 585.003 109.728ZM585.387 84.768C589.312 84.768 592.64 83.36 595.371 80.544C598.187 77.728 599.552 74.0587 599.467 69.536C599.467 64.928 598.102 61.216 595.371 58.4C592.64 55.584 589.312 54.176 585.387 54.176C581.462 54.176 578.134 55.584 575.403 58.4C572.672 61.216 571.307 64.928 571.307 69.536C571.307 74.0587 572.672 77.728 575.403 80.544C578.134 83.36 581.462 84.768 585.387 84.768Z" stroke="#FF6161" stroke-width="40" mask="url(#path-1-outside-1_719_83)"/>
<path d="M681.057 65.568C686.092 65.568 690.23 65.824 693.473 66.336C696.801 66.7627 699.489 67.7867 701.537 69.408C703.67 70.944 704.737 73.2907 704.737 76.448C704.737 80.9707 702.988 83.9573 699.489 85.408C696.076 86.8587 691.084 87.584 684.513 87.584L673.889 87.456L665.825 87.584C666.166 90.8267 666.337 93.3867 666.337 95.264C666.337 104.736 662.582 109.472 655.073 109.472C648.844 109.472 643.937 106.016 640.353 99.104C636.854 92.192 635.105 81.3973 635.105 66.72C635.105 57.6747 636.982 49.6107 640.737 42.528C644.577 35.4453 649.782 29.9413 656.353 26.016C662.924 22.0053 670.134 20 677.985 20C687.713 20 695.094 21.664 700.129 24.992C705.249 28.32 707.809 32.9707 707.809 38.944C707.809 43.1253 706.785 46.3253 704.737 48.544C702.774 50.6773 700.001 52.128 696.417 52.896C692.918 53.5787 688.268 53.92 682.465 53.92C677.772 53.92 673.718 54.8587 670.305 56.736C666.977 58.6133 665.142 61.216 664.801 64.544L664.673 65.696C665.697 65.6107 667.233 65.568 669.281 65.568H681.057Z" stroke="#FF6161" stroke-width="40" mask="url(#path-1-outside-1_719_83)"/>
<path d="M753.202 86.432C757.554 86.944 760.925 88.0533 763.314 89.76C765.789 91.3813 767.026 93.984 767.026 97.568C767.026 101.152 765.746 103.797 763.186 105.504C760.711 107.211 757.725 108.277 754.226 108.704C750.727 109.045 746.205 109.216 740.658 109.216C735.197 109.216 730.717 109.045 727.218 108.704C723.719 108.277 720.733 107.211 718.258 105.504C715.783 103.797 714.546 101.152 714.546 97.568C714.546 94.0693 715.698 91.5093 718.002 89.888C720.391 88.1813 723.634 87.0293 727.73 86.432C727.303 81.4827 727.09 74.4 727.09 65.184C727.09 56.9067 727.261 50.2507 727.602 45.216C722.653 44.704 718.77 43.5093 715.954 41.632C713.138 39.7547 711.73 36.8107 711.73 32.8C711.73 28.8747 713.095 25.9733 715.826 24.096C718.557 22.2187 721.842 21.0667 725.682 20.64C729.522 20.2133 734.471 20 740.53 20C746.589 20 751.538 20.2133 755.378 20.64C759.218 21.0667 762.503 22.2187 765.234 24.096C768.05 25.9733 769.458 28.8747 769.458 32.8C769.458 36.8107 768.007 39.7547 765.106 41.632C762.29 43.5093 758.365 44.704 753.33 45.216C753.757 49.9093 753.97 56.5653 753.97 65.184C753.97 73.4613 753.714 80.544 753.202 86.432Z" stroke="#FF6161" stroke-width="40" mask="url(#path-1-outside-1_719_83)"/>
<path d="M808.939 109.6C800.32 109.6 793.024 107.851 787.051 104.352C781.078 100.768 777.152 95.4347 775.275 88.352C774.507 85.4507 773.995 81.9093 773.739 77.728C773.483 73.5467 773.355 68.2133 773.355 61.728C773.355 49.0133 774.72 38.9013 777.451 31.392C780.267 23.7973 785.814 20 794.091 20C799.211 20 803.222 21.792 806.123 25.376C809.11 28.96 810.603 33.3973 810.603 38.688C810.603 44.32 810.134 50.336 809.195 56.736C808.256 63.136 806.934 70.9013 805.227 80.032C810.518 78.3253 816.32 77.472 822.635 77.472C829.206 77.472 834.667 78.6667 839.019 81.056C843.456 83.4453 845.675 87.328 845.675 92.704C845.675 97.9093 843.968 101.749 840.555 104.224C837.142 106.699 833.003 108.235 828.139 108.832C823.275 109.344 816.875 109.6 808.939 109.6Z" stroke="#FF6161" stroke-width="40" mask="url(#path-1-outside-1_719_83)"/>
<path d="M912.102 89.12C916.198 90.4 918.246 93.088 918.246 97.184C918.246 101.024 916.283 104.053 912.358 106.272C908.433 108.491 901.649 109.6 892.006 109.6C879.974 109.6 869.649 106.699 861.03 100.896C852.497 95.0933 848.23 83.5733 848.23 66.336C848.23 57.632 849.723 49.7813 852.71 42.784C855.697 35.7867 860.134 30.24 866.022 26.144C871.995 22.048 879.291 20 887.91 20C899.43 20 907.537 21.792 912.23 25.376C916.923 28.8747 919.27 33.184 919.27 38.304C919.27 40.6933 918.673 42.912 917.478 44.96C916.283 46.9227 914.491 48.4587 912.102 49.568C910.054 50.592 907.409 51.104 904.166 51.104L900.71 50.976C900.027 50.8907 899.046 50.848 897.766 50.848C893.329 50.848 889.83 51.6587 887.27 53.28C884.71 54.816 882.961 57.2053 882.022 60.448C885.606 60.2773 888.849 60.192 891.75 60.192C900.369 60.192 905.958 60.448 908.518 60.96C911.419 61.5573 913.638 62.7093 915.174 64.416C916.795 66.1227 917.606 68.128 917.606 70.432C917.606 72.736 916.838 74.7413 915.302 76.448C913.766 78.0693 911.462 79.1787 908.39 79.776C906.001 80.288 900.198 80.544 890.982 80.544C887.227 80.544 884.582 80.5013 883.046 80.416C885.691 86.048 890.641 88.864 897.894 88.864C898.321 88.864 899.302 88.7787 900.838 88.608C902.886 88.4373 904.635 88.352 906.086 88.352C908.561 88.352 910.566 88.608 912.102 89.12Z" stroke="#FF6161" stroke-width="40" mask="url(#path-1-outside-1_719_83)"/>
</g>
<defs>
<filter id="filter0_d_719_83" x="0.72998" y="0" width="942.54" height="137.731" filterUnits="userSpaceOnUse" color-interpolation-filters="sRGB">
<feFlood flood-opacity="0" result="BackgroundImageFix"/>
<feColorMatrix in="SourceAlpha" type="matrix" values="0 0 0 0 0 0 0 0 0 0 0 0 0 0 0 0 0 0 127 0" result="hardAlpha"/>
<feOffset dy="4"/>
<feGaussianBlur stdDeviation="2"/>
<feComposite in2="hardAlpha" operator="out"/>
<feColorMatrix type="matrix" values="0 0 0 0 0 0 0 0 0 0 0 0 0 0 0 0 0 0 0.25 0"/>
<feBlend mode="normal" in2="BackgroundImageFix" result="effect1_dropShadow_719_83"/>
<feBlend mode="normal" in="SourceGraphic" in2="effect1_dropShadow_719_83" result="shape"/>
</filter>
</defs>
</svg>
