<svg width="272" height="118" viewBox="0 0 272 118" fill="none" xmlns="http://www.w3.org/2000/svg">
<g filter="url(#filter0_d_702_56)">
<mask id="path-1-outside-1_702_56" maskUnits="userSpaceOnUse" x="4" y="0.0559998" width="264" height="110" fill="black">
<rect fill="white" x="4" y="0.0559998" width="264" height="110"/>
<path d="M71.904 74.584C74.976 75.544 76.512 77.56 76.512 80.632C76.512 83.512 75.04 85.784 72.096 87.448C69.152 89.112 64.064 89.944 56.832 89.944C47.808 89.944 40.064 87.768 33.6 83.416C27.2 79.064 24 70.424 24 57.496C24 50.968 25.12 45.08 27.36 39.832C29.6 34.584 32.928 30.424 37.344 27.352C41.824 24.28 47.296 22.744 53.76 22.744C62.4 22.744 68.48 24.088 72 26.776C75.52 29.4 77.28 32.632 77.28 36.472C77.28 38.264 76.832 39.928 75.936 41.464C75.04 42.936 73.696 44.088 71.904 44.92C70.368 45.688 68.384 46.072 65.952 46.072L63.36 45.976C62.848 45.912 62.112 45.88 61.152 45.88C57.824 45.88 55.2 46.488 53.28 47.704C51.36 48.856 50.048 50.648 49.344 53.08C52.032 52.952 54.464 52.888 56.64 52.888C63.104 52.888 67.296 53.08 69.216 53.464C71.392 53.912 73.056 54.776 74.208 56.056C75.424 57.336 76.032 58.84 76.032 60.568C76.032 62.296 75.456 63.8 74.304 65.08C73.152 66.296 71.424 67.128 69.12 67.576C67.328 67.96 62.976 68.152 56.064 68.152C53.248 68.152 51.264 68.12 50.112 68.056C52.096 72.28 55.808 74.392 61.248 74.392C61.568 74.392 62.304 74.328 63.456 74.2C64.992 74.072 66.304 74.008 67.392 74.008C69.248 74.008 70.752 74.2 71.904 74.584Z"/>
<path d="M114.477 89.944C111.533 89.944 109.517 88.952 108.429 86.968C107.341 84.984 106.797 81.944 106.797 77.848C106.797 74.84 106.765 72.696 106.701 71.416C106.637 70.072 106.381 68.952 105.933 68.056C105.549 67.16 104.845 66.712 103.821 66.712C102.605 66.712 101.709 67.128 101.133 67.96C100.557 68.728 100.205 69.752 100.077 71.032C100.013 72.248 99.981 74.104 99.981 76.6C99.981 79.672 99.853 82.104 99.597 83.896C99.341 85.624 98.669 87.064 97.581 88.216C96.493 89.304 94.797 89.848 92.493 89.848C85.581 89.848 82.125 81.08 82.125 63.544C82.125 57.592 82.637 52.984 83.661 49.72C84.749 46.392 86.765 44.312 89.709 43.48C90.797 43.16 91.789 43 92.685 43C94.029 43 95.245 43.288 96.333 43.864C97.421 44.44 98.189 45.24 98.637 46.264C99.533 45.752 100.429 45.368 101.325 45.112C102.221 44.856 103.501 44.728 105.165 44.728C107.213 44.728 109.133 45.24 110.925 46.264C112.781 47.224 114.093 48.6 114.861 50.392C116.525 48.472 118.189 47.064 119.853 46.168C121.581 45.208 123.789 44.728 126.477 44.728C130.445 44.728 133.901 45.912 136.845 48.28C139.853 50.584 142.157 53.784 143.757 57.88C145.421 61.912 146.253 66.392 146.253 71.32C146.253 76.824 145.517 81.304 144.045 84.76C142.573 88.216 140.013 89.944 136.365 89.944C133.933 89.944 132.173 89.336 131.085 88.12C130.061 86.904 129.421 85.4 129.165 83.608C128.973 81.752 128.877 79.064 128.877 75.544C128.877 72.472 128.653 70.232 128.205 68.824C127.757 67.416 126.701 66.712 125.037 66.712C123.821 66.712 123.053 67.384 122.733 68.728C122.413 70.008 122.253 72.152 122.253 75.16C122.189 75.736 122.157 76.632 122.157 77.848C122.029 81.944 121.421 84.984 120.333 86.968C119.245 88.952 117.293 89.944 114.477 89.944Z"/>
<path d="M166.436 89.944C161.444 89.944 157.348 88.824 154.148 86.584C150.948 84.28 149.348 80.984 149.348 76.696C149.348 72.984 150.98 70.04 154.244 67.864C157.508 65.688 161.572 64.6 166.436 64.6C168.228 64.6 169.892 64.76 171.428 65.08C173.028 65.336 174.116 65.656 174.692 66.04C174.692 64.44 174.02 63.128 172.676 62.104C171.332 61.016 169.284 60.472 166.532 60.472C165.316 60.472 164.324 60.568 163.556 60.76C162.788 60.952 161.956 61.24 161.06 61.624C160.164 62.008 159.332 62.296 158.564 62.488C157.86 62.68 156.9 62.776 155.684 62.776C153.636 62.776 152.036 62.264 150.884 61.24C149.732 60.152 149.156 58.52 149.156 56.344C149.156 53.848 150.052 51.736 151.844 50.008C153.7 48.28 156.004 47 158.756 46.168C161.508 45.272 164.26 44.824 167.012 44.824C172.452 44.824 176.996 45.848 180.644 47.896C184.356 49.88 187.076 52.536 188.804 55.864C190.596 59.192 191.492 62.872 191.492 66.904C191.492 69.08 191.3 71.096 190.916 72.952C190.596 74.808 190.148 76.248 189.572 77.272C190.468 78.04 191.14 78.936 191.588 79.96C192.1 80.984 192.356 82.04 192.356 83.128C192.356 84.984 191.716 86.584 190.436 87.928C189.22 89.272 187.588 89.944 185.54 89.944C184.004 89.944 182.756 89.72 181.796 89.272C180.836 88.824 179.812 88.12 178.724 87.16C177.124 88.12 175.364 88.824 173.444 89.272C171.588 89.72 169.252 89.944 166.436 89.944ZM168.356 80.248C169.7 80.248 170.756 79.96 171.524 79.384C172.356 78.808 172.772 78.104 172.772 77.272C172.772 76.44 172.356 75.736 171.524 75.16C170.756 74.584 169.7 74.296 168.356 74.296C167.012 74.296 165.924 74.584 165.092 75.16C164.324 75.736 163.94 76.44 163.94 77.272C163.94 78.104 164.324 78.808 165.092 79.384C165.924 79.96 167.012 80.248 168.356 80.248Z"/>
<path d="M208.388 43.384C205.252 43.384 202.596 42.264 200.42 40.024C198.244 37.72 197.156 34.936 197.156 31.672C197.156 28.472 198.244 25.752 200.42 23.512C202.596 21.208 205.252 20.056 208.388 20.056C211.46 20.056 214.084 21.208 216.26 23.512C218.5 25.752 219.62 28.472 219.62 31.672C219.62 34.936 218.5 37.72 216.26 40.024C214.084 42.264 211.46 43.384 208.388 43.384ZM208.388 89.944C205.764 89.944 203.812 89.208 202.532 87.736C201.316 86.2 200.484 83.928 200.036 80.92C199.652 77.848 199.46 73.496 199.46 67.864C199.46 63.128 199.684 59.384 200.132 56.632C200.644 53.88 201.54 51.832 202.82 50.488C204.1 49.144 205.956 48.472 208.388 48.472C211.012 48.472 212.932 49.24 214.148 50.776C215.428 52.248 216.26 54.52 216.644 57.592C217.092 60.6 217.316 64.92 217.316 70.552C217.316 75.288 217.06 79.032 216.548 81.784C216.1 84.536 215.236 86.584 213.956 87.928C212.676 89.272 210.82 89.944 208.388 89.944Z"/>
<path d="M235.669 89.752C232.469 89.752 230.069 88.568 228.469 86.2C226.869 83.832 225.782 80.344 225.206 75.736C224.694 71.064 224.438 64.568 224.438 56.248C224.438 48.248 224.63 42.008 225.014 37.528C225.462 33.048 226.485 29.464 228.085 26.776C229.749 24.088 232.31 22.744 235.766 22.744C239.222 22.744 241.75 24.088 243.35 26.776C245.014 29.464 246.037 33.048 246.421 37.528C246.869 42.008 247.094 48.248 247.094 56.248C247.094 64.12 246.742 70.488 246.038 75.352C245.398 80.152 244.245 83.768 242.581 86.2C240.917 88.568 238.613 89.752 235.669 89.752Z"/>
</mask>
<path d="M71.904 74.584C74.976 75.544 76.512 77.56 76.512 80.632C76.512 83.512 75.04 85.784 72.096 87.448C69.152 89.112 64.064 89.944 56.832 89.944C47.808 89.944 40.064 87.768 33.6 83.416C27.2 79.064 24 70.424 24 57.496C24 50.968 25.12 45.08 27.36 39.832C29.6 34.584 32.928 30.424 37.344 27.352C41.824 24.28 47.296 22.744 53.76 22.744C62.4 22.744 68.48 24.088 72 26.776C75.52 29.4 77.28 32.632 77.28 36.472C77.28 38.264 76.832 39.928 75.936 41.464C75.04 42.936 73.696 44.088 71.904 44.92C70.368 45.688 68.384 46.072 65.952 46.072L63.36 45.976C62.848 45.912 62.112 45.88 61.152 45.88C57.824 45.88 55.2 46.488 53.28 47.704C51.36 48.856 50.048 50.648 49.344 53.08C52.032 52.952 54.464 52.888 56.64 52.888C63.104 52.888 67.296 53.08 69.216 53.464C71.392 53.912 73.056 54.776 74.208 56.056C75.424 57.336 76.032 58.84 76.032 60.568C76.032 62.296 75.456 63.8 74.304 65.08C73.152 66.296 71.424 67.128 69.12 67.576C67.328 67.96 62.976 68.152 56.064 68.152C53.248 68.152 51.264 68.12 50.112 68.056C52.096 72.28 55.808 74.392 61.248 74.392C61.568 74.392 62.304 74.328 63.456 74.2C64.992 74.072 66.304 74.008 67.392 74.008C69.248 74.008 70.752 74.2 71.904 74.584Z" fill="white"/>
<path d="M114.477 89.944C111.533 89.944 109.517 88.952 108.429 86.968C107.341 84.984 106.797 81.944 106.797 77.848C106.797 74.84 106.765 72.696 106.701 71.416C106.637 70.072 106.381 68.952 105.933 68.056C105.549 67.16 104.845 66.712 103.821 66.712C102.605 66.712 101.709 67.128 101.133 67.96C100.557 68.728 100.205 69.752 100.077 71.032C100.013 72.248 99.981 74.104 99.981 76.6C99.981 79.672 99.853 82.104 99.597 83.896C99.341 85.624 98.669 87.064 97.581 88.216C96.493 89.304 94.797 89.848 92.493 89.848C85.581 89.848 82.125 81.08 82.125 63.544C82.125 57.592 82.637 52.984 83.661 49.72C84.749 46.392 86.765 44.312 89.709 43.48C90.797 43.16 91.789 43 92.685 43C94.029 43 95.245 43.288 96.333 43.864C97.421 44.44 98.189 45.24 98.637 46.264C99.533 45.752 100.429 45.368 101.325 45.112C102.221 44.856 103.501 44.728 105.165 44.728C107.213 44.728 109.133 45.24 110.925 46.264C112.781 47.224 114.093 48.6 114.861 50.392C116.525 48.472 118.189 47.064 119.853 46.168C121.581 45.208 123.789 44.728 126.477 44.728C130.445 44.728 133.901 45.912 136.845 48.28C139.853 50.584 142.157 53.784 143.757 57.88C145.421 61.912 146.253 66.392 146.253 71.32C146.253 76.824 145.517 81.304 144.045 84.76C142.573 88.216 140.013 89.944 136.365 89.944C133.933 89.944 132.173 89.336 131.085 88.12C130.061 86.904 129.421 85.4 129.165 83.608C128.973 81.752 128.877 79.064 128.877 75.544C128.877 72.472 128.653 70.232 128.205 68.824C127.757 67.416 126.701 66.712 125.037 66.712C123.821 66.712 123.053 67.384 122.733 68.728C122.413 70.008 122.253 72.152 122.253 75.16C122.189 75.736 122.157 76.632 122.157 77.848C122.029 81.944 121.421 84.984 120.333 86.968C119.245 88.952 117.293 89.944 114.477 89.944Z" fill="white"/>
<path d="M166.436 89.944C161.444 89.944 157.348 88.824 154.148 86.584C150.948 84.28 149.348 80.984 149.348 76.696C149.348 72.984 150.98 70.04 154.244 67.864C157.508 65.688 161.572 64.6 166.436 64.6C168.228 64.6 169.892 64.76 171.428 65.08C173.028 65.336 174.116 65.656 174.692 66.04C174.692 64.44 174.02 63.128 172.676 62.104C171.332 61.016 169.284 60.472 166.532 60.472C165.316 60.472 164.324 60.568 163.556 60.76C162.788 60.952 161.956 61.24 161.06 61.624C160.164 62.008 159.332 62.296 158.564 62.488C157.86 62.68 156.9 62.776 155.684 62.776C153.636 62.776 152.036 62.264 150.884 61.24C149.732 60.152 149.156 58.52 149.156 56.344C149.156 53.848 150.052 51.736 151.844 50.008C153.7 48.28 156.004 47 158.756 46.168C161.508 45.272 164.26 44.824 167.012 44.824C172.452 44.824 176.996 45.848 180.644 47.896C184.356 49.88 187.076 52.536 188.804 55.864C190.596 59.192 191.492 62.872 191.492 66.904C191.492 69.08 191.3 71.096 190.916 72.952C190.596 74.808 190.148 76.248 189.572 77.272C190.468 78.04 191.14 78.936 191.588 79.96C192.1 80.984 192.356 82.04 192.356 83.128C192.356 84.984 191.716 86.584 190.436 87.928C189.22 89.272 187.588 89.944 185.54 89.944C184.004 89.944 182.756 89.72 181.796 89.272C180.836 88.824 179.812 88.12 178.724 87.16C177.124 88.12 175.364 88.824 173.444 89.272C171.588 89.72 169.252 89.944 166.436 89.944ZM168.356 80.248C169.7 80.248 170.756 79.96 171.524 79.384C172.356 78.808 172.772 78.104 172.772 77.272C172.772 76.44 172.356 75.736 171.524 75.16C170.756 74.584 169.7 74.296 168.356 74.296C167.012 74.296 165.924 74.584 165.092 75.16C164.324 75.736 163.94 76.44 163.94 77.272C163.94 78.104 164.324 78.808 165.092 79.384C165.924 79.96 167.012 80.248 168.356 80.248Z" fill="white"/>
<path d="M208.388 43.384C205.252 43.384 202.596 42.264 200.42 40.024C198.244 37.72 197.156 34.936 197.156 31.672C197.156 28.472 198.244 25.752 200.42 23.512C202.596 21.208 205.252 20.056 208.388 20.056C211.46 20.056 214.084 21.208 216.26 23.512C218.5 25.752 219.62 28.472 219.62 31.672C219.62 34.936 218.5 37.72 216.26 40.024C214.084 42.264 211.46 43.384 208.388 43.384ZM208.388 89.944C205.764 89.944 203.812 89.208 202.532 87.736C201.316 86.2 200.484 83.928 200.036 80.92C199.652 77.848 199.46 73.496 199.46 67.864C199.46 63.128 199.684 59.384 200.132 56.632C200.644 53.88 201.54 51.832 202.82 50.488C204.1 49.144 205.956 48.472 208.388 48.472C211.012 48.472 212.932 49.24 214.148 50.776C215.428 52.248 216.26 54.52 216.644 57.592C217.092 60.6 217.316 64.92 217.316 70.552C217.316 75.288 217.06 79.032 216.548 81.784C216.1 84.536 215.236 86.584 213.956 87.928C212.676 89.272 210.82 89.944 208.388 89.944Z" fill="white"/>
<path d="M235.669 89.752C232.469 89.752 230.069 88.568 228.469 86.2C226.869 83.832 225.782 80.344 225.206 75.736C224.694 71.064 224.438 64.568 224.438 56.248C224.438 48.248 224.63 42.008 225.014 37.528C225.462 33.048 226.485 29.464 228.085 26.776C229.749 24.088 232.31 22.744 235.766 22.744C239.222 22.744 241.75 24.088 243.35 26.776C245.014 29.464 246.037 33.048 246.421 37.528C246.869 42.008 247.094 48.248 247.094 56.248C247.094 64.12 246.742 70.488 246.038 75.352C245.398 80.152 244.245 83.768 242.581 86.2C240.917 88.568 238.613 89.752 235.669 89.752Z" fill="white"/>
<path d="M71.904 74.584C74.976 75.544 76.512 77.56 76.512 80.632C76.512 83.512 75.04 85.784 72.096 87.448C69.152 89.112 64.064 89.944 56.832 89.944C47.808 89.944 40.064 87.768 33.6 83.416C27.2 79.064 24 70.424 24 57.496C24 50.968 25.12 45.08 27.36 39.832C29.6 34.584 32.928 30.424 37.344 27.352C41.824 24.28 47.296 22.744 53.76 22.744C62.4 22.744 68.48 24.088 72 26.776C75.52 29.4 77.28 32.632 77.28 36.472C77.28 38.264 76.832 39.928 75.936 41.464C75.04 42.936 73.696 44.088 71.904 44.92C70.368 45.688 68.384 46.072 65.952 46.072L63.36 45.976C62.848 45.912 62.112 45.88 61.152 45.88C57.824 45.88 55.2 46.488 53.28 47.704C51.36 48.856 50.048 50.648 49.344 53.08C52.032 52.952 54.464 52.888 56.64 52.888C63.104 52.888 67.296 53.08 69.216 53.464C71.392 53.912 73.056 54.776 74.208 56.056C75.424 57.336 76.032 58.84 76.032 60.568C76.032 62.296 75.456 63.8 74.304 65.08C73.152 66.296 71.424 67.128 69.12 67.576C67.328 67.96 62.976 68.152 56.064 68.152C53.248 68.152 51.264 68.12 50.112 68.056C52.096 72.28 55.808 74.392 61.248 74.392C61.568 74.392 62.304 74.328 63.456 74.2C64.992 74.072 66.304 74.008 67.392 74.008C69.248 74.008 70.752 74.2 71.904 74.584Z" stroke="#FF6161" stroke-width="40" mask="url(#path-1-outside-1_702_56)"/>
<path d="M114.477 89.944C111.533 89.944 109.517 88.952 108.429 86.968C107.341 84.984 106.797 81.944 106.797 77.848C106.797 74.84 106.765 72.696 106.701 71.416C106.637 70.072 106.381 68.952 105.933 68.056C105.549 67.16 104.845 66.712 103.821 66.712C102.605 66.712 101.709 67.128 101.133 67.96C100.557 68.728 100.205 69.752 100.077 71.032C100.013 72.248 99.981 74.104 99.981 76.6C99.981 79.672 99.853 82.104 99.597 83.896C99.341 85.624 98.669 87.064 97.581 88.216C96.493 89.304 94.797 89.848 92.493 89.848C85.581 89.848 82.125 81.08 82.125 63.544C82.125 57.592 82.637 52.984 83.661 49.72C84.749 46.392 86.765 44.312 89.709 43.48C90.797 43.16 91.789 43 92.685 43C94.029 43 95.245 43.288 96.333 43.864C97.421 44.44 98.189 45.24 98.637 46.264C99.533 45.752 100.429 45.368 101.325 45.112C102.221 44.856 103.501 44.728 105.165 44.728C107.213 44.728 109.133 45.24 110.925 46.264C112.781 47.224 114.093 48.6 114.861 50.392C116.525 48.472 118.189 47.064 119.853 46.168C121.581 45.208 123.789 44.728 126.477 44.728C130.445 44.728 133.901 45.912 136.845 48.28C139.853 50.584 142.157 53.784 143.757 57.88C145.421 61.912 146.253 66.392 146.253 71.32C146.253 76.824 145.517 81.304 144.045 84.76C142.573 88.216 140.013 89.944 136.365 89.944C133.933 89.944 132.173 89.336 131.085 88.12C130.061 86.904 129.421 85.4 129.165 83.608C128.973 81.752 128.877 79.064 128.877 75.544C128.877 72.472 128.653 70.232 128.205 68.824C127.757 67.416 126.701 66.712 125.037 66.712C123.821 66.712 123.053 67.384 122.733 68.728C122.413 70.008 122.253 72.152 122.253 75.16C122.189 75.736 122.157 76.632 122.157 77.848C122.029 81.944 121.421 84.984 120.333 86.968C119.245 88.952 117.293 89.944 114.477 89.944Z" stroke="#FF6161" stroke-width="40" mask="url(#path-1-outside-1_702_56)"/>
<path d="M166.436 89.944C161.444 89.944 157.348 88.824 154.148 86.584C150.948 84.28 149.348 80.984 149.348 76.696C149.348 72.984 150.98 70.04 154.244 67.864C157.508 65.688 161.572 64.6 166.436 64.6C168.228 64.6 169.892 64.76 171.428 65.08C173.028 65.336 174.116 65.656 174.692 66.04C174.692 64.44 174.02 63.128 172.676 62.104C171.332 61.016 169.284 60.472 166.532 60.472C165.316 60.472 164.324 60.568 163.556 60.76C162.788 60.952 161.956 61.24 161.06 61.624C160.164 62.008 159.332 62.296 158.564 62.488C157.86 62.68 156.9 62.776 155.684 62.776C153.636 62.776 152.036 62.264 150.884 61.24C149.732 60.152 149.156 58.52 149.156 56.344C149.156 53.848 150.052 51.736 151.844 50.008C153.7 48.28 156.004 47 158.756 46.168C161.508 45.272 164.26 44.824 167.012 44.824C172.452 44.824 176.996 45.848 180.644 47.896C184.356 49.88 187.076 52.536 188.804 55.864C190.596 59.192 191.492 62.872 191.492 66.904C191.492 69.08 191.3 71.096 190.916 72.952C190.596 74.808 190.148 76.248 189.572 77.272C190.468 78.04 191.14 78.936 191.588 79.96C192.1 80.984 192.356 82.04 192.356 83.128C192.356 84.984 191.716 86.584 190.436 87.928C189.22 89.272 187.588 89.944 185.54 89.944C184.004 89.944 182.756 89.72 181.796 89.272C180.836 88.824 179.812 88.12 178.724 87.16C177.124 88.12 175.364 88.824 173.444 89.272C171.588 89.72 169.252 89.944 166.436 89.944ZM168.356 80.248C169.7 80.248 170.756 79.96 171.524 79.384C172.356 78.808 172.772 78.104 172.772 77.272C172.772 76.44 172.356 75.736 171.524 75.16C170.756 74.584 169.7 74.296 168.356 74.296C167.012 74.296 165.924 74.584 165.092 75.16C164.324 75.736 163.94 76.44 163.94 77.272C163.94 78.104 164.324 78.808 165.092 79.384C165.924 79.96 167.012 80.248 168.356 80.248Z" stroke="#FF6161" stroke-width="40" mask="url(#path-1-outside-1_702_56)"/>
<path d="M208.388 43.384C205.252 43.384 202.596 42.264 200.42 40.024C198.244 37.72 197.156 34.936 197.156 31.672C197.156 28.472 198.244 25.752 200.42 23.512C202.596 21.208 205.252 20.056 208.388 20.056C211.46 20.056 214.084 21.208 216.26 23.512C218.5 25.752 219.62 28.472 219.62 31.672C219.62 34.936 218.5 37.72 216.26 40.024C214.084 42.264 211.46 43.384 208.388 43.384ZM208.388 89.944C205.764 89.944 203.812 89.208 202.532 87.736C201.316 86.2 200.484 83.928 200.036 80.92C199.652 77.848 199.46 73.496 199.46 67.864C199.46 63.128 199.684 59.384 200.132 56.632C200.644 53.88 201.54 51.832 202.82 50.488C204.1 49.144 205.956 48.472 208.388 48.472C211.012 48.472 212.932 49.24 214.148 50.776C215.428 52.248 216.26 54.52 216.644 57.592C217.092 60.6 217.316 64.92 217.316 70.552C217.316 75.288 217.06 79.032 216.548 81.784C216.1 84.536 215.236 86.584 213.956 87.928C212.676 89.272 210.82 89.944 208.388 89.944Z" stroke="#FF6161" stroke-width="40" mask="url(#path-1-outside-1_702_56)"/>
<path d="M235.669 89.752C232.469 89.752 230.069 88.568 228.469 86.2C226.869 83.832 225.782 80.344 225.206 75.736C224.694 71.064 224.438 64.568 224.438 56.248C224.438 48.248 224.63 42.008 225.014 37.528C225.462 33.048 226.485 29.464 228.085 26.776C229.749 24.088 232.31 22.744 235.766 22.744C239.222 22.744 241.75 24.088 243.35 26.776C245.014 29.464 246.037 33.048 246.421 37.528C246.869 42.008 247.094 48.248 247.094 56.248C247.094 64.12 246.742 70.488 246.038 75.352C245.398 80.152 244.245 83.768 242.581 86.2C240.917 88.568 238.613 89.752 235.669 89.752Z" stroke="#FF6161" stroke-width="40" mask="url(#path-1-outside-1_702_56)"/>
</g>
<defs>
<filter id="filter0_d_702_56" x="0" y="0.0559998" width="271.094" height="117.888" filterUnits="userSpaceOnUse" color-interpolation-filters="sRGB">
<feFlood flood-opacity="0" result="BackgroundImageFix"/>
<feColorMatrix in="SourceAlpha" type="matrix" values="0 0 0 0 0 0 0 0 0 0 0 0 0 0 0 0 0 0 127 0" result="hardAlpha"/>
<feOffset dy="4"/>
<feGaussianBlur stdDeviation="2"/>
<feComposite in2="hardAlpha" operator="out"/>
<feColorMatrix type="matrix" values="0 0 0 0 0 0 0 0 0 0 0 0 0 0 0 0 0 0 0.25 0"/>
<feBlend mode="normal" in2="BackgroundImageFix" result="effect1_dropShadow_702_56"/>
<feBlend mode="normal" in="SourceGraphic" in2="effect1_dropShadow_702_56" result="shape"/>
</filter>
</defs>
</svg>
