<svg width="284" height="246" viewBox="0 0 284 246" fill="none" xmlns="http://www.w3.org/2000/svg">
<g filter="url(#filter0_d_702_57)">
<mask id="path-1-outside-1_702_57" maskUnits="userSpaceOnUse" x="4" y="0" width="276" height="238" fill="black">
<rect fill="white" x="4" width="276" height="238"/>
<path d="M71.904 74.528C74.976 75.488 76.512 77.504 76.512 80.576C76.512 83.456 75.04 85.728 72.096 87.392C69.152 89.056 64.064 89.888 56.832 89.888C47.808 89.888 40.064 87.712 33.6 83.36C27.2 79.008 24 70.368 24 57.44C24 50.912 25.12 45.024 27.36 39.776C29.6 34.528 32.928 30.368 37.344 27.296C41.824 24.224 47.296 22.688 53.76 22.688C62.4 22.688 68.48 24.032 72 26.72C75.52 29.344 77.28 32.576 77.28 36.416C77.28 38.208 76.832 39.872 75.936 41.408C75.04 42.88 73.696 44.032 71.904 44.864C70.368 45.632 68.384 46.016 65.952 46.016L63.36 45.92C62.848 45.856 62.112 45.824 61.152 45.824C57.824 45.824 55.2 46.432 53.28 47.648C51.36 48.8 50.048 50.592 49.344 53.024C52.032 52.896 54.464 52.832 56.64 52.832C63.104 52.832 67.296 53.024 69.216 53.408C71.392 53.856 73.056 54.72 74.208 56C75.424 57.28 76.032 58.784 76.032 60.512C76.032 62.24 75.456 63.744 74.304 65.024C73.152 66.24 71.424 67.072 69.12 67.52C67.328 67.904 62.976 68.096 56.064 68.096C53.248 68.096 51.264 68.064 50.112 68C52.096 72.224 55.808 74.336 61.248 74.336C61.568 74.336 62.304 74.272 63.456 74.144C64.992 74.016 66.304 73.952 67.392 73.952C69.248 73.952 70.752 74.144 71.904 74.528Z"/>
<path d="M114.477 89.888C111.533 89.888 109.517 88.896 108.429 86.912C107.341 84.928 106.797 81.888 106.797 77.792C106.797 74.784 106.765 72.64 106.701 71.36C106.637 70.016 106.381 68.896 105.933 68C105.549 67.104 104.845 66.656 103.821 66.656C102.605 66.656 101.709 67.072 101.133 67.904C100.557 68.672 100.205 69.696 100.077 70.976C100.013 72.192 99.981 74.048 99.981 76.544C99.981 79.616 99.853 82.048 99.597 83.84C99.341 85.568 98.669 87.008 97.581 88.16C96.493 89.248 94.797 89.792 92.493 89.792C85.581 89.792 82.125 81.024 82.125 63.488C82.125 57.536 82.637 52.928 83.661 49.664C84.749 46.336 86.765 44.256 89.709 43.424C90.797 43.104 91.789 42.944 92.685 42.944C94.029 42.944 95.245 43.232 96.333 43.808C97.421 44.384 98.189 45.184 98.637 46.208C99.533 45.696 100.429 45.312 101.325 45.056C102.221 44.8 103.501 44.672 105.165 44.672C107.213 44.672 109.133 45.184 110.925 46.208C112.781 47.168 114.093 48.544 114.861 50.336C116.525 48.416 118.189 47.008 119.853 46.112C121.581 45.152 123.789 44.672 126.477 44.672C130.445 44.672 133.901 45.856 136.845 48.224C139.853 50.528 142.157 53.728 143.757 57.824C145.421 61.856 146.253 66.336 146.253 71.264C146.253 76.768 145.517 81.248 144.045 84.704C142.573 88.16 140.013 89.888 136.365 89.888C133.933 89.888 132.173 89.28 131.085 88.064C130.061 86.848 129.421 85.344 129.165 83.552C128.973 81.696 128.877 79.008 128.877 75.488C128.877 72.416 128.653 70.176 128.205 68.768C127.757 67.36 126.701 66.656 125.037 66.656C123.821 66.656 123.053 67.328 122.733 68.672C122.413 69.952 122.253 72.096 122.253 75.104C122.189 75.68 122.157 76.576 122.157 77.792C122.029 81.888 121.421 84.928 120.333 86.912C119.245 88.896 117.293 89.888 114.477 89.888Z"/>
<path d="M166.436 89.888C161.444 89.888 157.348 88.768 154.148 86.528C150.948 84.224 149.348 80.928 149.348 76.64C149.348 72.928 150.98 69.984 154.244 67.808C157.508 65.632 161.572 64.544 166.436 64.544C168.228 64.544 169.892 64.704 171.428 65.024C173.028 65.28 174.116 65.6 174.692 65.984C174.692 64.384 174.02 63.072 172.676 62.048C171.332 60.96 169.284 60.416 166.532 60.416C165.316 60.416 164.324 60.512 163.556 60.704C162.788 60.896 161.956 61.184 161.06 61.568C160.164 61.952 159.332 62.24 158.564 62.432C157.86 62.624 156.9 62.72 155.684 62.72C153.636 62.72 152.036 62.208 150.884 61.184C149.732 60.096 149.156 58.464 149.156 56.288C149.156 53.792 150.052 51.68 151.844 49.952C153.7 48.224 156.004 46.944 158.756 46.112C161.508 45.216 164.26 44.768 167.012 44.768C172.452 44.768 176.996 45.792 180.644 47.84C184.356 49.824 187.076 52.48 188.804 55.808C190.596 59.136 191.492 62.816 191.492 66.848C191.492 69.024 191.3 71.04 190.916 72.896C190.596 74.752 190.148 76.192 189.572 77.216C190.468 77.984 191.14 78.88 191.588 79.904C192.1 80.928 192.356 81.984 192.356 83.072C192.356 84.928 191.716 86.528 190.436 87.872C189.22 89.216 187.588 89.888 185.54 89.888C184.004 89.888 182.756 89.664 181.796 89.216C180.836 88.768 179.812 88.064 178.724 87.104C177.124 88.064 175.364 88.768 173.444 89.216C171.588 89.664 169.252 89.888 166.436 89.888ZM168.356 80.192C169.7 80.192 170.756 79.904 171.524 79.328C172.356 78.752 172.772 78.048 172.772 77.216C172.772 76.384 172.356 75.68 171.524 75.104C170.756 74.528 169.7 74.24 168.356 74.24C167.012 74.24 165.924 74.528 165.092 75.104C164.324 75.68 163.94 76.384 163.94 77.216C163.94 78.048 164.324 78.752 165.092 79.328C165.924 79.904 167.012 80.192 168.356 80.192Z"/>
<path d="M208.388 43.328C205.252 43.328 202.596 42.208 200.42 39.968C198.244 37.664 197.156 34.88 197.156 31.616C197.156 28.416 198.244 25.696 200.42 23.456C202.596 21.152 205.252 20 208.388 20C211.46 20 214.084 21.152 216.26 23.456C218.5 25.696 219.62 28.416 219.62 31.616C219.62 34.88 218.5 37.664 216.26 39.968C214.084 42.208 211.46 43.328 208.388 43.328ZM208.388 89.888C205.764 89.888 203.812 89.152 202.532 87.68C201.316 86.144 200.484 83.872 200.036 80.864C199.652 77.792 199.46 73.44 199.46 67.808C199.46 63.072 199.684 59.328 200.132 56.576C200.644 53.824 201.54 51.776 202.82 50.432C204.1 49.088 205.956 48.416 208.388 48.416C211.012 48.416 212.932 49.184 214.148 50.72C215.428 52.192 216.26 54.464 216.644 57.536C217.092 60.544 217.316 64.864 217.316 70.496C217.316 75.232 217.06 78.976 216.548 81.728C216.1 84.48 215.236 86.528 213.956 87.872C212.676 89.216 210.82 89.888 208.388 89.888Z"/>
<path d="M235.669 89.696C232.469 89.696 230.069 88.512 228.469 86.144C226.869 83.776 225.782 80.288 225.206 75.68C224.694 71.008 224.438 64.512 224.438 56.192C224.438 48.192 224.63 41.952 225.014 37.472C225.462 32.992 226.485 29.408 228.085 26.72C229.749 24.032 232.31 22.688 235.766 22.688C239.222 22.688 241.75 24.032 243.35 26.72C245.014 29.408 246.037 32.992 246.421 37.472C246.869 41.952 247.094 48.192 247.094 56.192C247.094 64.064 246.742 70.432 246.038 75.296C245.398 80.096 244.245 83.712 242.581 86.144C240.917 88.512 238.613 89.696 235.669 89.696Z"/>
<path d="M68.8963 153.888C64.8003 153.888 60.9816 152.075 57.4403 148.448C53.8989 144.821 51.0829 140.384 48.9923 135.136C46.9016 129.845 45.8563 124.939 45.8563 120.416C45.8563 117.131 46.5816 114.443 48.0322 112.352C49.4829 110.219 51.6376 109.152 54.4963 109.152C56.8429 109.152 58.7629 110.048 60.2562 111.84C61.7922 113.632 62.9869 115.829 63.8403 118.432C64.6936 120.992 65.6109 124.363 66.5923 128.544C67.4883 132.469 68.2563 135.371 68.8963 137.248C69.4509 135.925 69.9843 134.347 70.4963 132.512C71.0082 130.677 71.4776 128.864 71.9043 127.072C72.8856 123.147 73.7816 119.989 74.5923 117.6C75.4456 115.211 76.5549 113.205 77.9202 111.584C79.2856 109.963 81.0136 109.152 83.1043 109.152C85.9629 109.152 88.1176 110.176 89.5683 112.224C91.0189 114.272 91.7443 117.003 91.7443 120.416C91.7443 124.939 90.7203 129.845 88.6722 135.136C86.6242 140.384 83.8296 144.821 80.2882 148.448C76.7896 152.075 72.9923 153.888 68.8963 153.888Z"/>
<path d="M107.17 153.888C104.013 153.888 101.218 153.269 98.7862 152.032C96.3542 150.795 94.4556 149.067 93.0902 146.848C91.7676 144.587 91.1062 142.048 91.1062 139.232C91.1062 136.459 91.7676 133.899 93.0902 131.552C94.4556 129.205 96.3329 127.328 98.7223 125.92C101.112 124.512 103.821 123.808 106.85 123.808C109.581 123.808 111.992 124.363 114.082 125.472C116.173 126.581 117.773 128.053 118.882 129.888C119.992 131.68 120.546 133.557 120.546 135.52C120.546 138.72 119.33 141.067 116.898 142.56C114.509 144.011 111.65 144.736 108.322 144.736C106.104 144.736 104.226 144.459 102.69 143.904C103.97 145.995 106.082 147.04 109.026 147.04C110.221 147.04 111.501 146.891 112.866 146.592C113.378 146.464 113.869 146.4 114.338 146.4C115.277 146.4 116.024 146.635 116.578 147.104C117.176 147.573 117.474 148.213 117.474 149.024C117.474 150.347 116.664 151.499 115.042 152.48C113.421 153.419 110.797 153.888 107.17 153.888ZM102.882 136.096C103.266 136.693 103.778 137.141 104.418 137.44C105.101 137.696 105.848 137.824 106.658 137.824C107.597 137.824 108.408 137.611 109.09 137.184C109.816 136.757 110.178 136.203 110.178 135.52C110.178 134.752 109.858 134.091 109.218 133.536C108.621 132.981 107.746 132.704 106.594 132.704C105.442 132.704 104.525 133.067 103.842 133.792C103.202 134.475 102.882 135.243 102.882 136.096Z"/>
<path d="M129.954 153.888C127.224 153.888 125.389 152.288 124.45 149.088C123.554 145.888 123.106 141.472 123.106 135.84C123.106 133.28 123.213 131.147 123.426 129.44C123.682 127.691 124.258 126.219 125.154 125.024C126.093 123.787 127.522 123.168 129.442 123.168C130.637 123.168 131.682 123.445 132.578 124C133.517 124.555 134.114 125.344 134.37 126.368C135.309 125.515 136.525 124.875 138.018 124.448C139.512 124.021 141.112 123.808 142.818 123.808C144.184 123.808 145.57 124.149 146.978 124.832C148.429 125.515 149.624 126.453 150.562 127.648C151.544 128.8 152.034 130.059 152.034 131.424C152.034 132.789 151.544 134.005 150.562 135.072C149.624 136.096 148.365 136.608 146.786 136.608C146.274 136.608 145.784 136.544 145.314 136.416C144.888 136.288 144.504 136.16 144.162 136.032C143.309 135.691 142.626 135.52 142.114 135.52C140.45 135.52 138.978 136.181 137.698 137.504C136.461 138.784 135.842 140.448 135.842 142.496C135.842 144.757 135.757 146.635 135.586 148.128C135.416 149.621 134.904 150.965 134.05 152.16C133.197 153.312 131.832 153.888 129.954 153.888Z"/>
<path d="M160.782 122.848C158.691 122.848 156.92 122.101 155.47 120.608C154.019 119.072 153.294 117.216 153.294 115.04C153.294 112.907 154.019 111.093 155.47 109.6C156.92 108.064 158.691 107.296 160.782 107.296C162.83 107.296 164.579 108.064 166.03 109.6C167.523 111.093 168.27 112.907 168.27 115.04C168.27 117.216 167.523 119.072 166.03 120.608C164.579 122.101 162.83 122.848 160.782 122.848ZM160.782 153.888C159.032 153.888 157.731 153.397 156.878 152.416C156.067 151.392 155.512 149.877 155.214 147.872C154.958 145.824 154.83 142.923 154.83 139.168C154.83 136.011 154.979 133.515 155.278 131.68C155.619 129.845 156.216 128.48 157.07 127.584C157.923 126.688 159.16 126.24 160.782 126.24C162.531 126.24 163.811 126.752 164.622 127.776C165.475 128.757 166.03 130.272 166.286 132.32C166.584 134.325 166.734 137.205 166.734 140.96C166.734 144.117 166.563 146.613 166.222 148.448C165.923 150.283 165.347 151.648 164.494 152.544C163.64 153.44 162.403 153.888 160.782 153.888Z"/>
<path d="M189.079 128.416C193.26 128.501 196.268 128.949 198.103 129.76C199.98 130.571 200.919 132.128 200.919 134.432C200.919 136.693 199.959 138.229 198.039 139.04C196.161 139.808 193.217 140.235 189.207 140.32L189.271 145.376C189.313 146.187 189.335 147.317 189.335 148.768C189.335 150.603 188.823 151.904 187.799 152.672C186.775 153.397 185.58 153.76 184.215 153.76C181.868 153.76 180.161 152.587 179.095 150.24C178.028 147.893 177.367 144.544 177.111 140.192C174.337 139.979 172.268 139.445 170.903 138.592C169.58 137.739 168.919 136.352 168.919 134.432C168.919 132.512 169.58 131.125 170.903 130.272C172.268 129.376 174.337 128.8 177.111 128.544C177.367 124.405 177.985 120.928 178.967 118.112C179.948 115.296 181.548 113.099 183.767 111.52C185.985 109.899 188.972 109.088 192.727 109.088C195.073 109.088 197.015 109.643 198.551 110.752C200.129 111.819 200.919 113.376 200.919 115.424C200.919 117.557 200.257 119.179 198.935 120.288C197.655 121.355 195.884 122.101 193.623 122.528C192.129 122.827 191.041 123.488 190.359 124.512C189.676 125.493 189.249 126.795 189.079 128.416Z"/>
<path d="M213.232 163.36C210.928 163.36 209.008 162.912 207.472 162.016C205.936 161.12 205.168 159.797 205.168 158.048C205.168 156.64 205.829 155.531 207.152 154.72C208.474 153.909 210.032 153.547 211.824 153.632C213.701 153.717 215.152 153.632 216.176 153.376C217.242 153.12 218.053 152.651 218.608 151.968C214.682 151.968 211.546 151.413 209.2 150.304C206.853 149.152 205.146 147.381 204.08 144.992C203.056 142.56 202.544 139.36 202.544 135.392C202.544 131.979 203.056 129.227 204.08 127.136C205.146 125.003 206.81 123.936 209.072 123.936C211.077 123.936 212.549 124.512 213.488 125.664C214.469 126.773 214.96 128.224 214.96 130.016L214.896 132.832C214.853 133.387 214.832 134.197 214.832 135.264C214.832 137.312 215.088 138.869 215.6 139.936C216.112 140.96 217.136 141.472 218.672 141.472C220.208 141.472 221.232 140.96 221.744 139.936C222.256 138.869 222.512 137.333 222.512 135.328C222.512 134.261 222.49 133.451 222.448 132.896L222.384 130.144C222.384 128.224 222.853 126.709 223.792 125.6C224.773 124.491 226.266 123.936 228.272 123.936C230.533 123.936 232.197 125.003 233.264 127.136C234.33 129.269 234.864 132.021 234.864 135.392C234.864 140.427 234.138 145.056 232.688 149.28C231.28 153.461 228.954 156.853 225.712 159.456C222.512 162.059 218.352 163.36 213.232 163.36Z"/>
<path d="M49.3415 217.888C47.2508 217.888 45.5442 216.608 44.2215 214.048C42.9415 211.488 42.0242 208.395 41.4695 204.768C40.9148 201.141 40.6375 197.643 40.6375 194.272C40.6375 188.768 41.5122 183.883 43.2615 179.616C45.0535 175.307 48.0402 173.152 52.2215 173.152C54.0562 173.152 55.6562 173.856 57.0215 175.264C58.4295 176.672 59.6455 178.507 60.6695 180.768C61.6935 182.987 62.9308 186.08 64.3815 190.048L65.4695 193.056C65.3842 191.435 65.3415 190.24 65.3415 189.472C65.3415 184.48 66.0028 180.512 67.3255 177.568C68.6908 174.624 70.8455 173.152 73.7895 173.152C77.3308 173.152 79.7628 175.264 81.0855 179.488C82.4082 183.669 83.0695 188.597 83.0695 194.272C83.0695 197.643 82.6428 201.141 81.7895 204.768C80.9788 208.395 79.5922 211.488 77.6295 214.048C75.6668 216.608 73.1068 217.888 69.9495 217.888C68.0295 217.888 66.3442 217.205 64.8935 215.84C63.4855 214.432 62.2908 212.704 61.3095 210.656C60.3708 208.608 59.2402 205.792 57.9175 202.208C57.2348 200.331 56.7015 198.923 56.3175 197.984L56.3815 203.168C56.3815 206.539 56.2108 209.269 55.8695 211.36C55.5282 213.408 54.8455 215.008 53.8215 216.16C52.8402 217.312 51.3468 217.888 49.3415 217.888Z"/>
<path d="M100.501 217.888C97.3858 217.888 94.6552 217.12 92.3085 215.584C89.9618 214.005 88.1485 211.829 86.8685 209.056C85.6312 206.24 85.0125 202.997 85.0125 199.328C85.0125 195.744 85.5885 192.928 86.7405 190.88C87.8925 188.832 89.4925 187.808 91.5405 187.808C95.1672 187.808 96.9805 189.664 96.9805 193.376C96.9805 194.144 96.9592 194.827 96.9165 195.424C96.8738 195.979 96.8312 196.469 96.7885 196.896C96.6178 198.603 96.5325 199.968 96.5325 200.992C96.5325 202.869 96.9165 204.299 97.6845 205.28C98.4525 206.261 99.3912 206.752 100.501 206.752C101.653 206.752 102.591 206.283 103.316 205.344C104.084 204.363 104.468 202.912 104.468 200.992C104.468 199.627 104.404 198.368 104.276 197.216C104.234 196.832 104.191 196.277 104.148 195.552C104.106 194.784 104.085 194.08 104.085 193.44C104.085 189.685 105.898 187.808 109.524 187.808C111.572 187.808 113.151 188.832 114.26 190.88C115.412 192.885 115.989 195.701 115.989 199.328C115.989 205.003 114.666 209.525 112.021 212.896C109.375 216.224 105.535 217.888 100.501 217.888Z"/>
<path d="M140.33 217.888C138.368 217.888 137.024 217.227 136.299 215.904C135.573 214.581 135.211 212.555 135.211 209.824C135.211 207.819 135.189 206.389 135.146 205.536C135.104 204.64 134.933 203.893 134.634 203.296C134.378 202.699 133.909 202.4 133.227 202.4C132.416 202.4 131.819 202.677 131.435 203.232C131.051 203.744 130.816 204.427 130.73 205.28C130.688 206.091 130.667 207.328 130.667 208.992C130.667 211.04 130.581 212.661 130.41 213.856C130.24 215.008 129.792 215.968 129.066 216.736C128.341 217.461 127.211 217.824 125.674 217.824C121.066 217.824 118.762 211.979 118.762 200.288C118.762 196.32 119.104 193.248 119.786 191.072C120.512 188.853 121.856 187.467 123.818 186.912C124.544 186.699 125.205 186.592 125.802 186.592C126.698 186.592 127.509 186.784 128.234 187.168C128.96 187.552 129.472 188.085 129.771 188.768C130.368 188.427 130.965 188.171 131.562 188C132.16 187.829 133.013 187.744 134.122 187.744C135.488 187.744 136.768 188.085 137.963 188.768C139.2 189.408 140.075 190.325 140.587 191.52C141.696 190.24 142.805 189.301 143.914 188.704C145.066 188.064 146.538 187.744 148.33 187.744C150.976 187.744 153.28 188.533 155.243 190.112C157.248 191.648 158.784 193.781 159.851 196.512C160.96 199.2 161.514 202.187 161.514 205.472C161.514 209.141 161.024 212.128 160.042 214.432C159.061 216.736 157.354 217.888 154.923 217.888C153.301 217.888 152.128 217.483 151.403 216.672C150.72 215.861 150.293 214.859 150.123 213.664C149.995 212.427 149.931 210.635 149.931 208.288C149.931 206.24 149.781 204.747 149.482 203.808C149.184 202.869 148.48 202.4 147.37 202.4C146.56 202.4 146.048 202.848 145.835 203.744C145.621 204.597 145.515 206.027 145.515 208.032C145.472 208.416 145.451 209.013 145.451 209.824C145.365 212.555 144.96 214.581 144.234 215.904C143.509 217.227 142.208 217.888 140.33 217.888Z"/>
<path d="M181.13 217.888C173.365 217.888 168.352 215.52 166.09 210.784C163.872 206.005 162.762 201.163 162.762 196.256C162.762 192.629 163.083 189.045 163.723 185.504C164.405 181.963 165.493 178.997 166.986 176.608C168.48 174.219 170.421 173.024 172.811 173.024C174.304 173.024 175.584 173.493 176.65 174.432C177.717 175.371 178.251 176.736 178.251 178.528C178.251 179.424 178.165 180.32 177.995 181.216C177.824 182.112 177.568 183.221 177.227 184.544C177.141 184.8 176.971 185.44 176.715 186.464C176.501 187.488 176.352 188.448 176.266 189.344C178.144 188.32 180.277 187.808 182.667 187.808C185.056 187.808 187.274 188.341 189.322 189.408C191.413 190.475 193.099 192.117 194.379 194.336C195.701 196.512 196.363 199.179 196.363 202.336C196.363 205.024 195.744 207.563 194.507 209.952C193.269 212.299 191.477 214.219 189.13 215.712C186.826 217.163 184.16 217.888 181.13 217.888ZM180.747 207.776C181.899 207.776 182.901 207.349 183.755 206.496C184.651 205.6 185.098 204.555 185.098 203.36C185.098 202.165 184.651 201.12 183.755 200.224C182.901 199.328 181.899 198.88 180.747 198.88C179.595 198.88 178.592 199.328 177.738 200.224C176.885 201.12 176.458 202.165 176.458 203.36C176.458 204.555 176.885 205.6 177.738 206.496C178.592 207.349 179.595 207.776 180.747 207.776Z"/>
<path d="M214.389 217.888C211.232 217.888 208.437 217.269 206.005 216.032C203.573 214.795 201.674 213.067 200.309 210.848C198.986 208.587 198.325 206.048 198.325 203.232C198.325 200.459 198.986 197.899 200.309 195.552C201.674 193.205 203.552 191.328 205.941 189.92C208.33 188.512 211.04 187.808 214.069 187.808C216.8 187.808 219.21 188.363 221.301 189.472C223.392 190.581 224.992 192.053 226.101 193.888C227.21 195.68 227.765 197.557 227.765 199.52C227.765 202.72 226.549 205.067 224.117 206.56C221.728 208.011 218.869 208.736 215.541 208.736C213.322 208.736 211.445 208.459 209.909 207.904C211.189 209.995 213.301 211.04 216.245 211.04C217.44 211.04 218.72 210.891 220.085 210.592C220.597 210.464 221.088 210.4 221.557 210.4C222.496 210.4 223.242 210.635 223.797 211.104C224.394 211.573 224.693 212.213 224.693 213.024C224.693 214.347 223.882 215.499 222.261 216.48C220.64 217.419 218.016 217.888 214.389 217.888ZM210.101 200.096C210.485 200.693 210.997 201.141 211.637 201.44C212.32 201.696 213.066 201.824 213.877 201.824C214.816 201.824 215.626 201.611 216.309 201.184C217.034 200.757 217.397 200.203 217.397 199.52C217.397 198.752 217.077 198.091 216.437 197.536C215.84 196.981 214.965 196.704 213.813 196.704C212.661 196.704 211.744 197.067 211.061 197.792C210.421 198.475 210.101 199.243 210.101 200.096Z"/>
<path d="M237.173 217.888C234.442 217.888 232.608 216.288 231.669 213.088C230.773 209.888 230.325 205.472 230.325 199.84C230.325 197.28 230.432 195.147 230.645 193.44C230.901 191.691 231.477 190.219 232.373 189.024C233.312 187.787 234.741 187.168 236.661 187.168C237.856 187.168 238.901 187.445 239.797 188C240.736 188.555 241.333 189.344 241.589 190.368C242.528 189.515 243.744 188.875 245.237 188.448C246.73 188.021 248.33 187.808 250.037 187.808C251.402 187.808 252.789 188.149 254.197 188.832C255.648 189.515 256.842 190.453 257.781 191.648C258.762 192.8 259.253 194.059 259.253 195.424C259.253 196.789 258.762 198.005 257.781 199.072C256.842 200.096 255.584 200.608 254.005 200.608C253.493 200.608 253.002 200.544 252.533 200.416C252.106 200.288 251.722 200.16 251.381 200.032C250.528 199.691 249.845 199.52 249.333 199.52C247.669 199.52 246.197 200.181 244.917 201.504C243.68 202.784 243.061 204.448 243.061 206.496C243.061 208.757 242.976 210.635 242.805 212.128C242.634 213.621 242.122 214.965 241.269 216.16C240.416 217.312 239.05 217.888 237.173 217.888Z"/>
</mask>
<path d="M71.904 74.528C74.976 75.488 76.512 77.504 76.512 80.576C76.512 83.456 75.04 85.728 72.096 87.392C69.152 89.056 64.064 89.888 56.832 89.888C47.808 89.888 40.064 87.712 33.6 83.36C27.2 79.008 24 70.368 24 57.44C24 50.912 25.12 45.024 27.36 39.776C29.6 34.528 32.928 30.368 37.344 27.296C41.824 24.224 47.296 22.688 53.76 22.688C62.4 22.688 68.48 24.032 72 26.72C75.52 29.344 77.28 32.576 77.28 36.416C77.28 38.208 76.832 39.872 75.936 41.408C75.04 42.88 73.696 44.032 71.904 44.864C70.368 45.632 68.384 46.016 65.952 46.016L63.36 45.92C62.848 45.856 62.112 45.824 61.152 45.824C57.824 45.824 55.2 46.432 53.28 47.648C51.36 48.8 50.048 50.592 49.344 53.024C52.032 52.896 54.464 52.832 56.64 52.832C63.104 52.832 67.296 53.024 69.216 53.408C71.392 53.856 73.056 54.72 74.208 56C75.424 57.28 76.032 58.784 76.032 60.512C76.032 62.24 75.456 63.744 74.304 65.024C73.152 66.24 71.424 67.072 69.12 67.52C67.328 67.904 62.976 68.096 56.064 68.096C53.248 68.096 51.264 68.064 50.112 68C52.096 72.224 55.808 74.336 61.248 74.336C61.568 74.336 62.304 74.272 63.456 74.144C64.992 74.016 66.304 73.952 67.392 73.952C69.248 73.952 70.752 74.144 71.904 74.528Z" fill="white"/>
<path d="M114.477 89.888C111.533 89.888 109.517 88.896 108.429 86.912C107.341 84.928 106.797 81.888 106.797 77.792C106.797 74.784 106.765 72.64 106.701 71.36C106.637 70.016 106.381 68.896 105.933 68C105.549 67.104 104.845 66.656 103.821 66.656C102.605 66.656 101.709 67.072 101.133 67.904C100.557 68.672 100.205 69.696 100.077 70.976C100.013 72.192 99.981 74.048 99.981 76.544C99.981 79.616 99.853 82.048 99.597 83.84C99.341 85.568 98.669 87.008 97.581 88.16C96.493 89.248 94.797 89.792 92.493 89.792C85.581 89.792 82.125 81.024 82.125 63.488C82.125 57.536 82.637 52.928 83.661 49.664C84.749 46.336 86.765 44.256 89.709 43.424C90.797 43.104 91.789 42.944 92.685 42.944C94.029 42.944 95.245 43.232 96.333 43.808C97.421 44.384 98.189 45.184 98.637 46.208C99.533 45.696 100.429 45.312 101.325 45.056C102.221 44.8 103.501 44.672 105.165 44.672C107.213 44.672 109.133 45.184 110.925 46.208C112.781 47.168 114.093 48.544 114.861 50.336C116.525 48.416 118.189 47.008 119.853 46.112C121.581 45.152 123.789 44.672 126.477 44.672C130.445 44.672 133.901 45.856 136.845 48.224C139.853 50.528 142.157 53.728 143.757 57.824C145.421 61.856 146.253 66.336 146.253 71.264C146.253 76.768 145.517 81.248 144.045 84.704C142.573 88.16 140.013 89.888 136.365 89.888C133.933 89.888 132.173 89.28 131.085 88.064C130.061 86.848 129.421 85.344 129.165 83.552C128.973 81.696 128.877 79.008 128.877 75.488C128.877 72.416 128.653 70.176 128.205 68.768C127.757 67.36 126.701 66.656 125.037 66.656C123.821 66.656 123.053 67.328 122.733 68.672C122.413 69.952 122.253 72.096 122.253 75.104C122.189 75.68 122.157 76.576 122.157 77.792C122.029 81.888 121.421 84.928 120.333 86.912C119.245 88.896 117.293 89.888 114.477 89.888Z" fill="white"/>
<path d="M166.436 89.888C161.444 89.888 157.348 88.768 154.148 86.528C150.948 84.224 149.348 80.928 149.348 76.64C149.348 72.928 150.98 69.984 154.244 67.808C157.508 65.632 161.572 64.544 166.436 64.544C168.228 64.544 169.892 64.704 171.428 65.024C173.028 65.28 174.116 65.6 174.692 65.984C174.692 64.384 174.02 63.072 172.676 62.048C171.332 60.96 169.284 60.416 166.532 60.416C165.316 60.416 164.324 60.512 163.556 60.704C162.788 60.896 161.956 61.184 161.06 61.568C160.164 61.952 159.332 62.24 158.564 62.432C157.86 62.624 156.9 62.72 155.684 62.72C153.636 62.72 152.036 62.208 150.884 61.184C149.732 60.096 149.156 58.464 149.156 56.288C149.156 53.792 150.052 51.68 151.844 49.952C153.7 48.224 156.004 46.944 158.756 46.112C161.508 45.216 164.26 44.768 167.012 44.768C172.452 44.768 176.996 45.792 180.644 47.84C184.356 49.824 187.076 52.48 188.804 55.808C190.596 59.136 191.492 62.816 191.492 66.848C191.492 69.024 191.3 71.04 190.916 72.896C190.596 74.752 190.148 76.192 189.572 77.216C190.468 77.984 191.14 78.88 191.588 79.904C192.1 80.928 192.356 81.984 192.356 83.072C192.356 84.928 191.716 86.528 190.436 87.872C189.22 89.216 187.588 89.888 185.54 89.888C184.004 89.888 182.756 89.664 181.796 89.216C180.836 88.768 179.812 88.064 178.724 87.104C177.124 88.064 175.364 88.768 173.444 89.216C171.588 89.664 169.252 89.888 166.436 89.888ZM168.356 80.192C169.7 80.192 170.756 79.904 171.524 79.328C172.356 78.752 172.772 78.048 172.772 77.216C172.772 76.384 172.356 75.68 171.524 75.104C170.756 74.528 169.7 74.24 168.356 74.24C167.012 74.24 165.924 74.528 165.092 75.104C164.324 75.68 163.94 76.384 163.94 77.216C163.94 78.048 164.324 78.752 165.092 79.328C165.924 79.904 167.012 80.192 168.356 80.192Z" fill="white"/>
<path d="M208.388 43.328C205.252 43.328 202.596 42.208 200.42 39.968C198.244 37.664 197.156 34.88 197.156 31.616C197.156 28.416 198.244 25.696 200.42 23.456C202.596 21.152 205.252 20 208.388 20C211.46 20 214.084 21.152 216.26 23.456C218.5 25.696 219.62 28.416 219.62 31.616C219.62 34.88 218.5 37.664 216.26 39.968C214.084 42.208 211.46 43.328 208.388 43.328ZM208.388 89.888C205.764 89.888 203.812 89.152 202.532 87.68C201.316 86.144 200.484 83.872 200.036 80.864C199.652 77.792 199.46 73.44 199.46 67.808C199.46 63.072 199.684 59.328 200.132 56.576C200.644 53.824 201.54 51.776 202.82 50.432C204.1 49.088 205.956 48.416 208.388 48.416C211.012 48.416 212.932 49.184 214.148 50.72C215.428 52.192 216.26 54.464 216.644 57.536C217.092 60.544 217.316 64.864 217.316 70.496C217.316 75.232 217.06 78.976 216.548 81.728C216.1 84.48 215.236 86.528 213.956 87.872C212.676 89.216 210.82 89.888 208.388 89.888Z" fill="white"/>
<path d="M235.669 89.696C232.469 89.696 230.069 88.512 228.469 86.144C226.869 83.776 225.782 80.288 225.206 75.68C224.694 71.008 224.438 64.512 224.438 56.192C224.438 48.192 224.63 41.952 225.014 37.472C225.462 32.992 226.485 29.408 228.085 26.72C229.749 24.032 232.31 22.688 235.766 22.688C239.222 22.688 241.75 24.032 243.35 26.72C245.014 29.408 246.037 32.992 246.421 37.472C246.869 41.952 247.094 48.192 247.094 56.192C247.094 64.064 246.742 70.432 246.038 75.296C245.398 80.096 244.245 83.712 242.581 86.144C240.917 88.512 238.613 89.696 235.669 89.696Z" fill="white"/>
<path d="M68.8963 153.888C64.8003 153.888 60.9816 152.075 57.4403 148.448C53.8989 144.821 51.0829 140.384 48.9923 135.136C46.9016 129.845 45.8563 124.939 45.8563 120.416C45.8563 117.131 46.5816 114.443 48.0322 112.352C49.4829 110.219 51.6376 109.152 54.4963 109.152C56.8429 109.152 58.7629 110.048 60.2562 111.84C61.7922 113.632 62.9869 115.829 63.8403 118.432C64.6936 120.992 65.6109 124.363 66.5923 128.544C67.4883 132.469 68.2563 135.371 68.8963 137.248C69.4509 135.925 69.9843 134.347 70.4963 132.512C71.0082 130.677 71.4776 128.864 71.9043 127.072C72.8856 123.147 73.7816 119.989 74.5923 117.6C75.4456 115.211 76.5549 113.205 77.9202 111.584C79.2856 109.963 81.0136 109.152 83.1043 109.152C85.9629 109.152 88.1176 110.176 89.5683 112.224C91.0189 114.272 91.7443 117.003 91.7443 120.416C91.7443 124.939 90.7203 129.845 88.6722 135.136C86.6242 140.384 83.8296 144.821 80.2882 148.448C76.7896 152.075 72.9923 153.888 68.8963 153.888Z" fill="white"/>
<path d="M107.17 153.888C104.013 153.888 101.218 153.269 98.7862 152.032C96.3542 150.795 94.4556 149.067 93.0902 146.848C91.7676 144.587 91.1062 142.048 91.1062 139.232C91.1062 136.459 91.7676 133.899 93.0902 131.552C94.4556 129.205 96.3329 127.328 98.7223 125.92C101.112 124.512 103.821 123.808 106.85 123.808C109.581 123.808 111.992 124.363 114.082 125.472C116.173 126.581 117.773 128.053 118.882 129.888C119.992 131.68 120.546 133.557 120.546 135.52C120.546 138.72 119.33 141.067 116.898 142.56C114.509 144.011 111.65 144.736 108.322 144.736C106.104 144.736 104.226 144.459 102.69 143.904C103.97 145.995 106.082 147.04 109.026 147.04C110.221 147.04 111.501 146.891 112.866 146.592C113.378 146.464 113.869 146.4 114.338 146.4C115.277 146.4 116.024 146.635 116.578 147.104C117.176 147.573 117.474 148.213 117.474 149.024C117.474 150.347 116.664 151.499 115.042 152.48C113.421 153.419 110.797 153.888 107.17 153.888ZM102.882 136.096C103.266 136.693 103.778 137.141 104.418 137.44C105.101 137.696 105.848 137.824 106.658 137.824C107.597 137.824 108.408 137.611 109.09 137.184C109.816 136.757 110.178 136.203 110.178 135.52C110.178 134.752 109.858 134.091 109.218 133.536C108.621 132.981 107.746 132.704 106.594 132.704C105.442 132.704 104.525 133.067 103.842 133.792C103.202 134.475 102.882 135.243 102.882 136.096Z" fill="white"/>
<path d="M129.954 153.888C127.224 153.888 125.389 152.288 124.45 149.088C123.554 145.888 123.106 141.472 123.106 135.84C123.106 133.28 123.213 131.147 123.426 129.44C123.682 127.691 124.258 126.219 125.154 125.024C126.093 123.787 127.522 123.168 129.442 123.168C130.637 123.168 131.682 123.445 132.578 124C133.517 124.555 134.114 125.344 134.37 126.368C135.309 125.515 136.525 124.875 138.018 124.448C139.512 124.021 141.112 123.808 142.818 123.808C144.184 123.808 145.57 124.149 146.978 124.832C148.429 125.515 149.624 126.453 150.562 127.648C151.544 128.8 152.034 130.059 152.034 131.424C152.034 132.789 151.544 134.005 150.562 135.072C149.624 136.096 148.365 136.608 146.786 136.608C146.274 136.608 145.784 136.544 145.314 136.416C144.888 136.288 144.504 136.16 144.162 136.032C143.309 135.691 142.626 135.52 142.114 135.52C140.45 135.52 138.978 136.181 137.698 137.504C136.461 138.784 135.842 140.448 135.842 142.496C135.842 144.757 135.757 146.635 135.586 148.128C135.416 149.621 134.904 150.965 134.05 152.16C133.197 153.312 131.832 153.888 129.954 153.888Z" fill="white"/>
<path d="M160.782 122.848C158.691 122.848 156.92 122.101 155.47 120.608C154.019 119.072 153.294 117.216 153.294 115.04C153.294 112.907 154.019 111.093 155.47 109.6C156.92 108.064 158.691 107.296 160.782 107.296C162.83 107.296 164.579 108.064 166.03 109.6C167.523 111.093 168.27 112.907 168.27 115.04C168.27 117.216 167.523 119.072 166.03 120.608C164.579 122.101 162.83 122.848 160.782 122.848ZM160.782 153.888C159.032 153.888 157.731 153.397 156.878 152.416C156.067 151.392 155.512 149.877 155.214 147.872C154.958 145.824 154.83 142.923 154.83 139.168C154.83 136.011 154.979 133.515 155.278 131.68C155.619 129.845 156.216 128.48 157.07 127.584C157.923 126.688 159.16 126.24 160.782 126.24C162.531 126.24 163.811 126.752 164.622 127.776C165.475 128.757 166.03 130.272 166.286 132.32C166.584 134.325 166.734 137.205 166.734 140.96C166.734 144.117 166.563 146.613 166.222 148.448C165.923 150.283 165.347 151.648 164.494 152.544C163.64 153.44 162.403 153.888 160.782 153.888Z" fill="white"/>
<path d="M189.079 128.416C193.26 128.501 196.268 128.949 198.103 129.76C199.98 130.571 200.919 132.128 200.919 134.432C200.919 136.693 199.959 138.229 198.039 139.04C196.161 139.808 193.217 140.235 189.207 140.32L189.271 145.376C189.313 146.187 189.335 147.317 189.335 148.768C189.335 150.603 188.823 151.904 187.799 152.672C186.775 153.397 185.58 153.76 184.215 153.76C181.868 153.76 180.161 152.587 179.095 150.24C178.028 147.893 177.367 144.544 177.111 140.192C174.337 139.979 172.268 139.445 170.903 138.592C169.58 137.739 168.919 136.352 168.919 134.432C168.919 132.512 169.58 131.125 170.903 130.272C172.268 129.376 174.337 128.8 177.111 128.544C177.367 124.405 177.985 120.928 178.967 118.112C179.948 115.296 181.548 113.099 183.767 111.52C185.985 109.899 188.972 109.088 192.727 109.088C195.073 109.088 197.015 109.643 198.551 110.752C200.129 111.819 200.919 113.376 200.919 115.424C200.919 117.557 200.257 119.179 198.935 120.288C197.655 121.355 195.884 122.101 193.623 122.528C192.129 122.827 191.041 123.488 190.359 124.512C189.676 125.493 189.249 126.795 189.079 128.416Z" fill="white"/>
<path d="M213.232 163.36C210.928 163.36 209.008 162.912 207.472 162.016C205.936 161.12 205.168 159.797 205.168 158.048C205.168 156.64 205.829 155.531 207.152 154.72C208.474 153.909 210.032 153.547 211.824 153.632C213.701 153.717 215.152 153.632 216.176 153.376C217.242 153.12 218.053 152.651 218.608 151.968C214.682 151.968 211.546 151.413 209.2 150.304C206.853 149.152 205.146 147.381 204.08 144.992C203.056 142.56 202.544 139.36 202.544 135.392C202.544 131.979 203.056 129.227 204.08 127.136C205.146 125.003 206.81 123.936 209.072 123.936C211.077 123.936 212.549 124.512 213.488 125.664C214.469 126.773 214.96 128.224 214.96 130.016L214.896 132.832C214.853 133.387 214.832 134.197 214.832 135.264C214.832 137.312 215.088 138.869 215.6 139.936C216.112 140.96 217.136 141.472 218.672 141.472C220.208 141.472 221.232 140.96 221.744 139.936C222.256 138.869 222.512 137.333 222.512 135.328C222.512 134.261 222.49 133.451 222.448 132.896L222.384 130.144C222.384 128.224 222.853 126.709 223.792 125.6C224.773 124.491 226.266 123.936 228.272 123.936C230.533 123.936 232.197 125.003 233.264 127.136C234.33 129.269 234.864 132.021 234.864 135.392C234.864 140.427 234.138 145.056 232.688 149.28C231.28 153.461 228.954 156.853 225.712 159.456C222.512 162.059 218.352 163.36 213.232 163.36Z" fill="white"/>
<path d="M49.3415 217.888C47.2508 217.888 45.5442 216.608 44.2215 214.048C42.9415 211.488 42.0242 208.395 41.4695 204.768C40.9148 201.141 40.6375 197.643 40.6375 194.272C40.6375 188.768 41.5122 183.883 43.2615 179.616C45.0535 175.307 48.0402 173.152 52.2215 173.152C54.0562 173.152 55.6562 173.856 57.0215 175.264C58.4295 176.672 59.6455 178.507 60.6695 180.768C61.6935 182.987 62.9308 186.08 64.3815 190.048L65.4695 193.056C65.3842 191.435 65.3415 190.24 65.3415 189.472C65.3415 184.48 66.0028 180.512 67.3255 177.568C68.6908 174.624 70.8455 173.152 73.7895 173.152C77.3308 173.152 79.7628 175.264 81.0855 179.488C82.4082 183.669 83.0695 188.597 83.0695 194.272C83.0695 197.643 82.6428 201.141 81.7895 204.768C80.9788 208.395 79.5922 211.488 77.6295 214.048C75.6668 216.608 73.1068 217.888 69.9495 217.888C68.0295 217.888 66.3442 217.205 64.8935 215.84C63.4855 214.432 62.2908 212.704 61.3095 210.656C60.3708 208.608 59.2402 205.792 57.9175 202.208C57.2348 200.331 56.7015 198.923 56.3175 197.984L56.3815 203.168C56.3815 206.539 56.2108 209.269 55.8695 211.36C55.5282 213.408 54.8455 215.008 53.8215 216.16C52.8402 217.312 51.3468 217.888 49.3415 217.888Z" fill="white"/>
<path d="M100.501 217.888C97.3858 217.888 94.6552 217.12 92.3085 215.584C89.9618 214.005 88.1485 211.829 86.8685 209.056C85.6312 206.24 85.0125 202.997 85.0125 199.328C85.0125 195.744 85.5885 192.928 86.7405 190.88C87.8925 188.832 89.4925 187.808 91.5405 187.808C95.1672 187.808 96.9805 189.664 96.9805 193.376C96.9805 194.144 96.9592 194.827 96.9165 195.424C96.8738 195.979 96.8312 196.469 96.7885 196.896C96.6178 198.603 96.5325 199.968 96.5325 200.992C96.5325 202.869 96.9165 204.299 97.6845 205.28C98.4525 206.261 99.3912 206.752 100.501 206.752C101.653 206.752 102.591 206.283 103.316 205.344C104.084 204.363 104.468 202.912 104.468 200.992C104.468 199.627 104.404 198.368 104.276 197.216C104.234 196.832 104.191 196.277 104.148 195.552C104.106 194.784 104.085 194.08 104.085 193.44C104.085 189.685 105.898 187.808 109.524 187.808C111.572 187.808 113.151 188.832 114.26 190.88C115.412 192.885 115.989 195.701 115.989 199.328C115.989 205.003 114.666 209.525 112.021 212.896C109.375 216.224 105.535 217.888 100.501 217.888Z" fill="white"/>
<path d="M140.33 217.888C138.368 217.888 137.024 217.227 136.299 215.904C135.573 214.581 135.211 212.555 135.211 209.824C135.211 207.819 135.189 206.389 135.146 205.536C135.104 204.64 134.933 203.893 134.634 203.296C134.378 202.699 133.909 202.4 133.227 202.4C132.416 202.4 131.819 202.677 131.435 203.232C131.051 203.744 130.816 204.427 130.73 205.28C130.688 206.091 130.667 207.328 130.667 208.992C130.667 211.04 130.581 212.661 130.41 213.856C130.24 215.008 129.792 215.968 129.066 216.736C128.341 217.461 127.211 217.824 125.674 217.824C121.066 217.824 118.762 211.979 118.762 200.288C118.762 196.32 119.104 193.248 119.786 191.072C120.512 188.853 121.856 187.467 123.818 186.912C124.544 186.699 125.205 186.592 125.802 186.592C126.698 186.592 127.509 186.784 128.234 187.168C128.96 187.552 129.472 188.085 129.771 188.768C130.368 188.427 130.965 188.171 131.562 188C132.16 187.829 133.013 187.744 134.122 187.744C135.488 187.744 136.768 188.085 137.963 188.768C139.2 189.408 140.075 190.325 140.587 191.52C141.696 190.24 142.805 189.301 143.914 188.704C145.066 188.064 146.538 187.744 148.33 187.744C150.976 187.744 153.28 188.533 155.243 190.112C157.248 191.648 158.784 193.781 159.851 196.512C160.96 199.2 161.514 202.187 161.514 205.472C161.514 209.141 161.024 212.128 160.042 214.432C159.061 216.736 157.354 217.888 154.923 217.888C153.301 217.888 152.128 217.483 151.403 216.672C150.72 215.861 150.293 214.859 150.123 213.664C149.995 212.427 149.931 210.635 149.931 208.288C149.931 206.24 149.781 204.747 149.482 203.808C149.184 202.869 148.48 202.4 147.37 202.4C146.56 202.4 146.048 202.848 145.835 203.744C145.621 204.597 145.515 206.027 145.515 208.032C145.472 208.416 145.451 209.013 145.451 209.824C145.365 212.555 144.96 214.581 144.234 215.904C143.509 217.227 142.208 217.888 140.33 217.888Z" fill="white"/>
<path d="M181.13 217.888C173.365 217.888 168.352 215.52 166.09 210.784C163.872 206.005 162.762 201.163 162.762 196.256C162.762 192.629 163.083 189.045 163.723 185.504C164.405 181.963 165.493 178.997 166.986 176.608C168.48 174.219 170.421 173.024 172.811 173.024C174.304 173.024 175.584 173.493 176.65 174.432C177.717 175.371 178.251 176.736 178.251 178.528C178.251 179.424 178.165 180.32 177.995 181.216C177.824 182.112 177.568 183.221 177.227 184.544C177.141 184.8 176.971 185.44 176.715 186.464C176.501 187.488 176.352 188.448 176.266 189.344C178.144 188.32 180.277 187.808 182.667 187.808C185.056 187.808 187.274 188.341 189.322 189.408C191.413 190.475 193.099 192.117 194.379 194.336C195.701 196.512 196.363 199.179 196.363 202.336C196.363 205.024 195.744 207.563 194.507 209.952C193.269 212.299 191.477 214.219 189.13 215.712C186.826 217.163 184.16 217.888 181.13 217.888ZM180.747 207.776C181.899 207.776 182.901 207.349 183.755 206.496C184.651 205.6 185.098 204.555 185.098 203.36C185.098 202.165 184.651 201.12 183.755 200.224C182.901 199.328 181.899 198.88 180.747 198.88C179.595 198.88 178.592 199.328 177.738 200.224C176.885 201.12 176.458 202.165 176.458 203.36C176.458 204.555 176.885 205.6 177.738 206.496C178.592 207.349 179.595 207.776 180.747 207.776Z" fill="white"/>
<path d="M214.389 217.888C211.232 217.888 208.437 217.269 206.005 216.032C203.573 214.795 201.674 213.067 200.309 210.848C198.986 208.587 198.325 206.048 198.325 203.232C198.325 200.459 198.986 197.899 200.309 195.552C201.674 193.205 203.552 191.328 205.941 189.92C208.33 188.512 211.04 187.808 214.069 187.808C216.8 187.808 219.21 188.363 221.301 189.472C223.392 190.581 224.992 192.053 226.101 193.888C227.21 195.68 227.765 197.557 227.765 199.52C227.765 202.72 226.549 205.067 224.117 206.56C221.728 208.011 218.869 208.736 215.541 208.736C213.322 208.736 211.445 208.459 209.909 207.904C211.189 209.995 213.301 211.04 216.245 211.04C217.44 211.04 218.72 210.891 220.085 210.592C220.597 210.464 221.088 210.4 221.557 210.4C222.496 210.4 223.242 210.635 223.797 211.104C224.394 211.573 224.693 212.213 224.693 213.024C224.693 214.347 223.882 215.499 222.261 216.48C220.64 217.419 218.016 217.888 214.389 217.888ZM210.101 200.096C210.485 200.693 210.997 201.141 211.637 201.44C212.32 201.696 213.066 201.824 213.877 201.824C214.816 201.824 215.626 201.611 216.309 201.184C217.034 200.757 217.397 200.203 217.397 199.52C217.397 198.752 217.077 198.091 216.437 197.536C215.84 196.981 214.965 196.704 213.813 196.704C212.661 196.704 211.744 197.067 211.061 197.792C210.421 198.475 210.101 199.243 210.101 200.096Z" fill="white"/>
<path d="M237.173 217.888C234.442 217.888 232.608 216.288 231.669 213.088C230.773 209.888 230.325 205.472 230.325 199.84C230.325 197.28 230.432 195.147 230.645 193.44C230.901 191.691 231.477 190.219 232.373 189.024C233.312 187.787 234.741 187.168 236.661 187.168C237.856 187.168 238.901 187.445 239.797 188C240.736 188.555 241.333 189.344 241.589 190.368C242.528 189.515 243.744 188.875 245.237 188.448C246.73 188.021 248.33 187.808 250.037 187.808C251.402 187.808 252.789 188.149 254.197 188.832C255.648 189.515 256.842 190.453 257.781 191.648C258.762 192.8 259.253 194.059 259.253 195.424C259.253 196.789 258.762 198.005 257.781 199.072C256.842 200.096 255.584 200.608 254.005 200.608C253.493 200.608 253.002 200.544 252.533 200.416C252.106 200.288 251.722 200.16 251.381 200.032C250.528 199.691 249.845 199.52 249.333 199.52C247.669 199.52 246.197 200.181 244.917 201.504C243.68 202.784 243.061 204.448 243.061 206.496C243.061 208.757 242.976 210.635 242.805 212.128C242.634 213.621 242.122 214.965 241.269 216.16C240.416 217.312 239.05 217.888 237.173 217.888Z" fill="white"/>
<path d="M71.904 74.528C74.976 75.488 76.512 77.504 76.512 80.576C76.512 83.456 75.04 85.728 72.096 87.392C69.152 89.056 64.064 89.888 56.832 89.888C47.808 89.888 40.064 87.712 33.6 83.36C27.2 79.008 24 70.368 24 57.44C24 50.912 25.12 45.024 27.36 39.776C29.6 34.528 32.928 30.368 37.344 27.296C41.824 24.224 47.296 22.688 53.76 22.688C62.4 22.688 68.48 24.032 72 26.72C75.52 29.344 77.28 32.576 77.28 36.416C77.28 38.208 76.832 39.872 75.936 41.408C75.04 42.88 73.696 44.032 71.904 44.864C70.368 45.632 68.384 46.016 65.952 46.016L63.36 45.92C62.848 45.856 62.112 45.824 61.152 45.824C57.824 45.824 55.2 46.432 53.28 47.648C51.36 48.8 50.048 50.592 49.344 53.024C52.032 52.896 54.464 52.832 56.64 52.832C63.104 52.832 67.296 53.024 69.216 53.408C71.392 53.856 73.056 54.72 74.208 56C75.424 57.28 76.032 58.784 76.032 60.512C76.032 62.24 75.456 63.744 74.304 65.024C73.152 66.24 71.424 67.072 69.12 67.52C67.328 67.904 62.976 68.096 56.064 68.096C53.248 68.096 51.264 68.064 50.112 68C52.096 72.224 55.808 74.336 61.248 74.336C61.568 74.336 62.304 74.272 63.456 74.144C64.992 74.016 66.304 73.952 67.392 73.952C69.248 73.952 70.752 74.144 71.904 74.528Z" stroke="#FF6161" stroke-width="40" mask="url(#path-1-outside-1_702_57)"/>
<path d="M114.477 89.888C111.533 89.888 109.517 88.896 108.429 86.912C107.341 84.928 106.797 81.888 106.797 77.792C106.797 74.784 106.765 72.64 106.701 71.36C106.637 70.016 106.381 68.896 105.933 68C105.549 67.104 104.845 66.656 103.821 66.656C102.605 66.656 101.709 67.072 101.133 67.904C100.557 68.672 100.205 69.696 100.077 70.976C100.013 72.192 99.981 74.048 99.981 76.544C99.981 79.616 99.853 82.048 99.597 83.84C99.341 85.568 98.669 87.008 97.581 88.16C96.493 89.248 94.797 89.792 92.493 89.792C85.581 89.792 82.125 81.024 82.125 63.488C82.125 57.536 82.637 52.928 83.661 49.664C84.749 46.336 86.765 44.256 89.709 43.424C90.797 43.104 91.789 42.944 92.685 42.944C94.029 42.944 95.245 43.232 96.333 43.808C97.421 44.384 98.189 45.184 98.637 46.208C99.533 45.696 100.429 45.312 101.325 45.056C102.221 44.8 103.501 44.672 105.165 44.672C107.213 44.672 109.133 45.184 110.925 46.208C112.781 47.168 114.093 48.544 114.861 50.336C116.525 48.416 118.189 47.008 119.853 46.112C121.581 45.152 123.789 44.672 126.477 44.672C130.445 44.672 133.901 45.856 136.845 48.224C139.853 50.528 142.157 53.728 143.757 57.824C145.421 61.856 146.253 66.336 146.253 71.264C146.253 76.768 145.517 81.248 144.045 84.704C142.573 88.16 140.013 89.888 136.365 89.888C133.933 89.888 132.173 89.28 131.085 88.064C130.061 86.848 129.421 85.344 129.165 83.552C128.973 81.696 128.877 79.008 128.877 75.488C128.877 72.416 128.653 70.176 128.205 68.768C127.757 67.36 126.701 66.656 125.037 66.656C123.821 66.656 123.053 67.328 122.733 68.672C122.413 69.952 122.253 72.096 122.253 75.104C122.189 75.68 122.157 76.576 122.157 77.792C122.029 81.888 121.421 84.928 120.333 86.912C119.245 88.896 117.293 89.888 114.477 89.888Z" stroke="#FF6161" stroke-width="40" mask="url(#path-1-outside-1_702_57)"/>
<path d="M166.436 89.888C161.444 89.888 157.348 88.768 154.148 86.528C150.948 84.224 149.348 80.928 149.348 76.64C149.348 72.928 150.98 69.984 154.244 67.808C157.508 65.632 161.572 64.544 166.436 64.544C168.228 64.544 169.892 64.704 171.428 65.024C173.028 65.28 174.116 65.6 174.692 65.984C174.692 64.384 174.02 63.072 172.676 62.048C171.332 60.96 169.284 60.416 166.532 60.416C165.316 60.416 164.324 60.512 163.556 60.704C162.788 60.896 161.956 61.184 161.06 61.568C160.164 61.952 159.332 62.24 158.564 62.432C157.86 62.624 156.9 62.72 155.684 62.72C153.636 62.72 152.036 62.208 150.884 61.184C149.732 60.096 149.156 58.464 149.156 56.288C149.156 53.792 150.052 51.68 151.844 49.952C153.7 48.224 156.004 46.944 158.756 46.112C161.508 45.216 164.26 44.768 167.012 44.768C172.452 44.768 176.996 45.792 180.644 47.84C184.356 49.824 187.076 52.48 188.804 55.808C190.596 59.136 191.492 62.816 191.492 66.848C191.492 69.024 191.3 71.04 190.916 72.896C190.596 74.752 190.148 76.192 189.572 77.216C190.468 77.984 191.14 78.88 191.588 79.904C192.1 80.928 192.356 81.984 192.356 83.072C192.356 84.928 191.716 86.528 190.436 87.872C189.22 89.216 187.588 89.888 185.54 89.888C184.004 89.888 182.756 89.664 181.796 89.216C180.836 88.768 179.812 88.064 178.724 87.104C177.124 88.064 175.364 88.768 173.444 89.216C171.588 89.664 169.252 89.888 166.436 89.888ZM168.356 80.192C169.7 80.192 170.756 79.904 171.524 79.328C172.356 78.752 172.772 78.048 172.772 77.216C172.772 76.384 172.356 75.68 171.524 75.104C170.756 74.528 169.7 74.24 168.356 74.24C167.012 74.24 165.924 74.528 165.092 75.104C164.324 75.68 163.94 76.384 163.94 77.216C163.94 78.048 164.324 78.752 165.092 79.328C165.924 79.904 167.012 80.192 168.356 80.192Z" stroke="#FF6161" stroke-width="40" mask="url(#path-1-outside-1_702_57)"/>
<path d="M208.388 43.328C205.252 43.328 202.596 42.208 200.42 39.968C198.244 37.664 197.156 34.88 197.156 31.616C197.156 28.416 198.244 25.696 200.42 23.456C202.596 21.152 205.252 20 208.388 20C211.46 20 214.084 21.152 216.26 23.456C218.5 25.696 219.62 28.416 219.62 31.616C219.62 34.88 218.5 37.664 216.26 39.968C214.084 42.208 211.46 43.328 208.388 43.328ZM208.388 89.888C205.764 89.888 203.812 89.152 202.532 87.68C201.316 86.144 200.484 83.872 200.036 80.864C199.652 77.792 199.46 73.44 199.46 67.808C199.46 63.072 199.684 59.328 200.132 56.576C200.644 53.824 201.54 51.776 202.82 50.432C204.1 49.088 205.956 48.416 208.388 48.416C211.012 48.416 212.932 49.184 214.148 50.72C215.428 52.192 216.26 54.464 216.644 57.536C217.092 60.544 217.316 64.864 217.316 70.496C217.316 75.232 217.06 78.976 216.548 81.728C216.1 84.48 215.236 86.528 213.956 87.872C212.676 89.216 210.82 89.888 208.388 89.888Z" stroke="#FF6161" stroke-width="40" mask="url(#path-1-outside-1_702_57)"/>
<path d="M235.669 89.696C232.469 89.696 230.069 88.512 228.469 86.144C226.869 83.776 225.782 80.288 225.206 75.68C224.694 71.008 224.438 64.512 224.438 56.192C224.438 48.192 224.63 41.952 225.014 37.472C225.462 32.992 226.485 29.408 228.085 26.72C229.749 24.032 232.31 22.688 235.766 22.688C239.222 22.688 241.75 24.032 243.35 26.72C245.014 29.408 246.037 32.992 246.421 37.472C246.869 41.952 247.094 48.192 247.094 56.192C247.094 64.064 246.742 70.432 246.038 75.296C245.398 80.096 244.245 83.712 242.581 86.144C240.917 88.512 238.613 89.696 235.669 89.696Z" stroke="#FF6161" stroke-width="40" mask="url(#path-1-outside-1_702_57)"/>
<path d="M68.8963 153.888C64.8003 153.888 60.9816 152.075 57.4403 148.448C53.8989 144.821 51.0829 140.384 48.9923 135.136C46.9016 129.845 45.8563 124.939 45.8563 120.416C45.8563 117.131 46.5816 114.443 48.0322 112.352C49.4829 110.219 51.6376 109.152 54.4963 109.152C56.8429 109.152 58.7629 110.048 60.2562 111.84C61.7922 113.632 62.9869 115.829 63.8403 118.432C64.6936 120.992 65.6109 124.363 66.5923 128.544C67.4883 132.469 68.2563 135.371 68.8963 137.248C69.4509 135.925 69.9843 134.347 70.4963 132.512C71.0082 130.677 71.4776 128.864 71.9043 127.072C72.8856 123.147 73.7816 119.989 74.5923 117.6C75.4456 115.211 76.5549 113.205 77.9202 111.584C79.2856 109.963 81.0136 109.152 83.1043 109.152C85.9629 109.152 88.1176 110.176 89.5683 112.224C91.0189 114.272 91.7443 117.003 91.7443 120.416C91.7443 124.939 90.7203 129.845 88.6722 135.136C86.6242 140.384 83.8296 144.821 80.2882 148.448C76.7896 152.075 72.9923 153.888 68.8963 153.888Z" stroke="#FF6161" stroke-width="40" mask="url(#path-1-outside-1_702_57)"/>
<path d="M107.17 153.888C104.013 153.888 101.218 153.269 98.7862 152.032C96.3542 150.795 94.4556 149.067 93.0902 146.848C91.7676 144.587 91.1062 142.048 91.1062 139.232C91.1062 136.459 91.7676 133.899 93.0902 131.552C94.4556 129.205 96.3329 127.328 98.7223 125.92C101.112 124.512 103.821 123.808 106.85 123.808C109.581 123.808 111.992 124.363 114.082 125.472C116.173 126.581 117.773 128.053 118.882 129.888C119.992 131.68 120.546 133.557 120.546 135.52C120.546 138.72 119.33 141.067 116.898 142.56C114.509 144.011 111.65 144.736 108.322 144.736C106.104 144.736 104.226 144.459 102.69 143.904C103.97 145.995 106.082 147.04 109.026 147.04C110.221 147.04 111.501 146.891 112.866 146.592C113.378 146.464 113.869 146.4 114.338 146.4C115.277 146.4 116.024 146.635 116.578 147.104C117.176 147.573 117.474 148.213 117.474 149.024C117.474 150.347 116.664 151.499 115.042 152.48C113.421 153.419 110.797 153.888 107.17 153.888ZM102.882 136.096C103.266 136.693 103.778 137.141 104.418 137.44C105.101 137.696 105.848 137.824 106.658 137.824C107.597 137.824 108.408 137.611 109.09 137.184C109.816 136.757 110.178 136.203 110.178 135.52C110.178 134.752 109.858 134.091 109.218 133.536C108.621 132.981 107.746 132.704 106.594 132.704C105.442 132.704 104.525 133.067 103.842 133.792C103.202 134.475 102.882 135.243 102.882 136.096Z" stroke="#FF6161" stroke-width="40" mask="url(#path-1-outside-1_702_57)"/>
<path d="M129.954 153.888C127.224 153.888 125.389 152.288 124.45 149.088C123.554 145.888 123.106 141.472 123.106 135.84C123.106 133.28 123.213 131.147 123.426 129.44C123.682 127.691 124.258 126.219 125.154 125.024C126.093 123.787 127.522 123.168 129.442 123.168C130.637 123.168 131.682 123.445 132.578 124C133.517 124.555 134.114 125.344 134.37 126.368C135.309 125.515 136.525 124.875 138.018 124.448C139.512 124.021 141.112 123.808 142.818 123.808C144.184 123.808 145.57 124.149 146.978 124.832C148.429 125.515 149.624 126.453 150.562 127.648C151.544 128.8 152.034 130.059 152.034 131.424C152.034 132.789 151.544 134.005 150.562 135.072C149.624 136.096 148.365 136.608 146.786 136.608C146.274 136.608 145.784 136.544 145.314 136.416C144.888 136.288 144.504 136.16 144.162 136.032C143.309 135.691 142.626 135.52 142.114 135.52C140.45 135.52 138.978 136.181 137.698 137.504C136.461 138.784 135.842 140.448 135.842 142.496C135.842 144.757 135.757 146.635 135.586 148.128C135.416 149.621 134.904 150.965 134.05 152.16C133.197 153.312 131.832 153.888 129.954 153.888Z" stroke="#FF6161" stroke-width="40" mask="url(#path-1-outside-1_702_57)"/>
<path d="M160.782 122.848C158.691 122.848 156.92 122.101 155.47 120.608C154.019 119.072 153.294 117.216 153.294 115.04C153.294 112.907 154.019 111.093 155.47 109.6C156.92 108.064 158.691 107.296 160.782 107.296C162.83 107.296 164.579 108.064 166.03 109.6C167.523 111.093 168.27 112.907 168.27 115.04C168.27 117.216 167.523 119.072 166.03 120.608C164.579 122.101 162.83 122.848 160.782 122.848ZM160.782 153.888C159.032 153.888 157.731 153.397 156.878 152.416C156.067 151.392 155.512 149.877 155.214 147.872C154.958 145.824 154.83 142.923 154.83 139.168C154.83 136.011 154.979 133.515 155.278 131.68C155.619 129.845 156.216 128.48 157.07 127.584C157.923 126.688 159.16 126.24 160.782 126.24C162.531 126.24 163.811 126.752 164.622 127.776C165.475 128.757 166.03 130.272 166.286 132.32C166.584 134.325 166.734 137.205 166.734 140.96C166.734 144.117 166.563 146.613 166.222 148.448C165.923 150.283 165.347 151.648 164.494 152.544C163.64 153.44 162.403 153.888 160.782 153.888Z" stroke="#FF6161" stroke-width="40" mask="url(#path-1-outside-1_702_57)"/>
<path d="M189.079 128.416C193.26 128.501 196.268 128.949 198.103 129.76C199.98 130.571 200.919 132.128 200.919 134.432C200.919 136.693 199.959 138.229 198.039 139.04C196.161 139.808 193.217 140.235 189.207 140.32L189.271 145.376C189.313 146.187 189.335 147.317 189.335 148.768C189.335 150.603 188.823 151.904 187.799 152.672C186.775 153.397 185.58 153.76 184.215 153.76C181.868 153.76 180.161 152.587 179.095 150.24C178.028 147.893 177.367 144.544 177.111 140.192C174.337 139.979 172.268 139.445 170.903 138.592C169.58 137.739 168.919 136.352 168.919 134.432C168.919 132.512 169.58 131.125 170.903 130.272C172.268 129.376 174.337 128.8 177.111 128.544C177.367 124.405 177.985 120.928 178.967 118.112C179.948 115.296 181.548 113.099 183.767 111.52C185.985 109.899 188.972 109.088 192.727 109.088C195.073 109.088 197.015 109.643 198.551 110.752C200.129 111.819 200.919 113.376 200.919 115.424C200.919 117.557 200.257 119.179 198.935 120.288C197.655 121.355 195.884 122.101 193.623 122.528C192.129 122.827 191.041 123.488 190.359 124.512C189.676 125.493 189.249 126.795 189.079 128.416Z" stroke="#FF6161" stroke-width="40" mask="url(#path-1-outside-1_702_57)"/>
<path d="M213.232 163.36C210.928 163.36 209.008 162.912 207.472 162.016C205.936 161.12 205.168 159.797 205.168 158.048C205.168 156.64 205.829 155.531 207.152 154.72C208.474 153.909 210.032 153.547 211.824 153.632C213.701 153.717 215.152 153.632 216.176 153.376C217.242 153.12 218.053 152.651 218.608 151.968C214.682 151.968 211.546 151.413 209.2 150.304C206.853 149.152 205.146 147.381 204.08 144.992C203.056 142.56 202.544 139.36 202.544 135.392C202.544 131.979 203.056 129.227 204.08 127.136C205.146 125.003 206.81 123.936 209.072 123.936C211.077 123.936 212.549 124.512 213.488 125.664C214.469 126.773 214.96 128.224 214.96 130.016L214.896 132.832C214.853 133.387 214.832 134.197 214.832 135.264C214.832 137.312 215.088 138.869 215.6 139.936C216.112 140.96 217.136 141.472 218.672 141.472C220.208 141.472 221.232 140.96 221.744 139.936C222.256 138.869 222.512 137.333 222.512 135.328C222.512 134.261 222.49 133.451 222.448 132.896L222.384 130.144C222.384 128.224 222.853 126.709 223.792 125.6C224.773 124.491 226.266 123.936 228.272 123.936C230.533 123.936 232.197 125.003 233.264 127.136C234.33 129.269 234.864 132.021 234.864 135.392C234.864 140.427 234.138 145.056 232.688 149.28C231.28 153.461 228.954 156.853 225.712 159.456C222.512 162.059 218.352 163.36 213.232 163.36Z" stroke="#FF6161" stroke-width="40" mask="url(#path-1-outside-1_702_57)"/>
<path d="M49.3415 217.888C47.2508 217.888 45.5442 216.608 44.2215 214.048C42.9415 211.488 42.0242 208.395 41.4695 204.768C40.9148 201.141 40.6375 197.643 40.6375 194.272C40.6375 188.768 41.5122 183.883 43.2615 179.616C45.0535 175.307 48.0402 173.152 52.2215 173.152C54.0562 173.152 55.6562 173.856 57.0215 175.264C58.4295 176.672 59.6455 178.507 60.6695 180.768C61.6935 182.987 62.9308 186.08 64.3815 190.048L65.4695 193.056C65.3842 191.435 65.3415 190.24 65.3415 189.472C65.3415 184.48 66.0028 180.512 67.3255 177.568C68.6908 174.624 70.8455 173.152 73.7895 173.152C77.3308 173.152 79.7628 175.264 81.0855 179.488C82.4082 183.669 83.0695 188.597 83.0695 194.272C83.0695 197.643 82.6428 201.141 81.7895 204.768C80.9788 208.395 79.5922 211.488 77.6295 214.048C75.6668 216.608 73.1068 217.888 69.9495 217.888C68.0295 217.888 66.3442 217.205 64.8935 215.84C63.4855 214.432 62.2908 212.704 61.3095 210.656C60.3708 208.608 59.2402 205.792 57.9175 202.208C57.2348 200.331 56.7015 198.923 56.3175 197.984L56.3815 203.168C56.3815 206.539 56.2108 209.269 55.8695 211.36C55.5282 213.408 54.8455 215.008 53.8215 216.16C52.8402 217.312 51.3468 217.888 49.3415 217.888Z" stroke="#FF6161" stroke-width="40" mask="url(#path-1-outside-1_702_57)"/>
<path d="M100.501 217.888C97.3858 217.888 94.6552 217.12 92.3085 215.584C89.9618 214.005 88.1485 211.829 86.8685 209.056C85.6312 206.24 85.0125 202.997 85.0125 199.328C85.0125 195.744 85.5885 192.928 86.7405 190.88C87.8925 188.832 89.4925 187.808 91.5405 187.808C95.1672 187.808 96.9805 189.664 96.9805 193.376C96.9805 194.144 96.9592 194.827 96.9165 195.424C96.8738 195.979 96.8312 196.469 96.7885 196.896C96.6178 198.603 96.5325 199.968 96.5325 200.992C96.5325 202.869 96.9165 204.299 97.6845 205.28C98.4525 206.261 99.3912 206.752 100.501 206.752C101.653 206.752 102.591 206.283 103.316 205.344C104.084 204.363 104.468 202.912 104.468 200.992C104.468 199.627 104.404 198.368 104.276 197.216C104.234 196.832 104.191 196.277 104.148 195.552C104.106 194.784 104.085 194.08 104.085 193.44C104.085 189.685 105.898 187.808 109.524 187.808C111.572 187.808 113.151 188.832 114.26 190.88C115.412 192.885 115.989 195.701 115.989 199.328C115.989 205.003 114.666 209.525 112.021 212.896C109.375 216.224 105.535 217.888 100.501 217.888Z" stroke="#FF6161" stroke-width="40" mask="url(#path-1-outside-1_702_57)"/>
<path d="M140.33 217.888C138.368 217.888 137.024 217.227 136.299 215.904C135.573 214.581 135.211 212.555 135.211 209.824C135.211 207.819 135.189 206.389 135.146 205.536C135.104 204.64 134.933 203.893 134.634 203.296C134.378 202.699 133.909 202.4 133.227 202.4C132.416 202.4 131.819 202.677 131.435 203.232C131.051 203.744 130.816 204.427 130.73 205.28C130.688 206.091 130.667 207.328 130.667 208.992C130.667 211.04 130.581 212.661 130.41 213.856C130.24 215.008 129.792 215.968 129.066 216.736C128.341 217.461 127.211 217.824 125.674 217.824C121.066 217.824 118.762 211.979 118.762 200.288C118.762 196.32 119.104 193.248 119.786 191.072C120.512 188.853 121.856 187.467 123.818 186.912C124.544 186.699 125.205 186.592 125.802 186.592C126.698 186.592 127.509 186.784 128.234 187.168C128.96 187.552 129.472 188.085 129.771 188.768C130.368 188.427 130.965 188.171 131.562 188C132.16 187.829 133.013 187.744 134.122 187.744C135.488 187.744 136.768 188.085 137.963 188.768C139.2 189.408 140.075 190.325 140.587 191.52C141.696 190.24 142.805 189.301 143.914 188.704C145.066 188.064 146.538 187.744 148.33 187.744C150.976 187.744 153.28 188.533 155.243 190.112C157.248 191.648 158.784 193.781 159.851 196.512C160.96 199.2 161.514 202.187 161.514 205.472C161.514 209.141 161.024 212.128 160.042 214.432C159.061 216.736 157.354 217.888 154.923 217.888C153.301 217.888 152.128 217.483 151.403 216.672C150.72 215.861 150.293 214.859 150.123 213.664C149.995 212.427 149.931 210.635 149.931 208.288C149.931 206.24 149.781 204.747 149.482 203.808C149.184 202.869 148.48 202.4 147.37 202.4C146.56 202.4 146.048 202.848 145.835 203.744C145.621 204.597 145.515 206.027 145.515 208.032C145.472 208.416 145.451 209.013 145.451 209.824C145.365 212.555 144.96 214.581 144.234 215.904C143.509 217.227 142.208 217.888 140.33 217.888Z" stroke="#FF6161" stroke-width="40" mask="url(#path-1-outside-1_702_57)"/>
<path d="M181.13 217.888C173.365 217.888 168.352 215.52 166.09 210.784C163.872 206.005 162.762 201.163 162.762 196.256C162.762 192.629 163.083 189.045 163.723 185.504C164.405 181.963 165.493 178.997 166.986 176.608C168.48 174.219 170.421 173.024 172.811 173.024C174.304 173.024 175.584 173.493 176.65 174.432C177.717 175.371 178.251 176.736 178.251 178.528C178.251 179.424 178.165 180.32 177.995 181.216C177.824 182.112 177.568 183.221 177.227 184.544C177.141 184.8 176.971 185.44 176.715 186.464C176.501 187.488 176.352 188.448 176.266 189.344C178.144 188.32 180.277 187.808 182.667 187.808C185.056 187.808 187.274 188.341 189.322 189.408C191.413 190.475 193.099 192.117 194.379 194.336C195.701 196.512 196.363 199.179 196.363 202.336C196.363 205.024 195.744 207.563 194.507 209.952C193.269 212.299 191.477 214.219 189.13 215.712C186.826 217.163 184.16 217.888 181.13 217.888ZM180.747 207.776C181.899 207.776 182.901 207.349 183.755 206.496C184.651 205.6 185.098 204.555 185.098 203.36C185.098 202.165 184.651 201.12 183.755 200.224C182.901 199.328 181.899 198.88 180.747 198.88C179.595 198.88 178.592 199.328 177.738 200.224C176.885 201.12 176.458 202.165 176.458 203.36C176.458 204.555 176.885 205.6 177.738 206.496C178.592 207.349 179.595 207.776 180.747 207.776Z" stroke="#FF6161" stroke-width="40" mask="url(#path-1-outside-1_702_57)"/>
<path d="M214.389 217.888C211.232 217.888 208.437 217.269 206.005 216.032C203.573 214.795 201.674 213.067 200.309 210.848C198.986 208.587 198.325 206.048 198.325 203.232C198.325 200.459 198.986 197.899 200.309 195.552C201.674 193.205 203.552 191.328 205.941 189.92C208.33 188.512 211.04 187.808 214.069 187.808C216.8 187.808 219.21 188.363 221.301 189.472C223.392 190.581 224.992 192.053 226.101 193.888C227.21 195.68 227.765 197.557 227.765 199.52C227.765 202.72 226.549 205.067 224.117 206.56C221.728 208.011 218.869 208.736 215.541 208.736C213.322 208.736 211.445 208.459 209.909 207.904C211.189 209.995 213.301 211.04 216.245 211.04C217.44 211.04 218.72 210.891 220.085 210.592C220.597 210.464 221.088 210.4 221.557 210.4C222.496 210.4 223.242 210.635 223.797 211.104C224.394 211.573 224.693 212.213 224.693 213.024C224.693 214.347 223.882 215.499 222.261 216.48C220.64 217.419 218.016 217.888 214.389 217.888ZM210.101 200.096C210.485 200.693 210.997 201.141 211.637 201.44C212.32 201.696 213.066 201.824 213.877 201.824C214.816 201.824 215.626 201.611 216.309 201.184C217.034 200.757 217.397 200.203 217.397 199.52C217.397 198.752 217.077 198.091 216.437 197.536C215.84 196.981 214.965 196.704 213.813 196.704C212.661 196.704 211.744 197.067 211.061 197.792C210.421 198.475 210.101 199.243 210.101 200.096Z" stroke="#FF6161" stroke-width="40" mask="url(#path-1-outside-1_702_57)"/>
<path d="M237.173 217.888C234.442 217.888 232.608 216.288 231.669 213.088C230.773 209.888 230.325 205.472 230.325 199.84C230.325 197.28 230.432 195.147 230.645 193.44C230.901 191.691 231.477 190.219 232.373 189.024C233.312 187.787 234.741 187.168 236.661 187.168C237.856 187.168 238.901 187.445 239.797 188C240.736 188.555 241.333 189.344 241.589 190.368C242.528 189.515 243.744 188.875 245.237 188.448C246.73 188.021 248.33 187.808 250.037 187.808C251.402 187.808 252.789 188.149 254.197 188.832C255.648 189.515 256.842 190.453 257.781 191.648C258.762 192.8 259.253 194.059 259.253 195.424C259.253 196.789 258.762 198.005 257.781 199.072C256.842 200.096 255.584 200.608 254.005 200.608C253.493 200.608 253.002 200.544 252.533 200.416C252.106 200.288 251.722 200.16 251.381 200.032C250.528 199.691 249.845 199.52 249.333 199.52C247.669 199.52 246.197 200.181 244.917 201.504C243.68 202.784 243.061 204.448 243.061 206.496C243.061 208.757 242.976 210.635 242.805 212.128C242.634 213.621 242.122 214.965 241.269 216.16C240.416 217.312 239.05 217.888 237.173 217.888Z" stroke="#FF6161" stroke-width="40" mask="url(#path-1-outside-1_702_57)"/>
</g>
<defs>
<filter id="filter0_d_702_57" x="0" y="0" width="283.253" height="245.888" filterUnits="userSpaceOnUse" color-interpolation-filters="sRGB">
<feFlood flood-opacity="0" result="BackgroundImageFix"/>
<feColorMatrix in="SourceAlpha" type="matrix" values="0 0 0 0 0 0 0 0 0 0 0 0 0 0 0 0 0 0 127 0" result="hardAlpha"/>
<feOffset dy="4"/>
<feGaussianBlur stdDeviation="2"/>
<feComposite in2="hardAlpha" operator="out"/>
<feColorMatrix type="matrix" values="0 0 0 0 0 0 0 0 0 0 0 0 0 0 0 0 0 0 0.25 0"/>
<feBlend mode="normal" in2="BackgroundImageFix" result="effect1_dropShadow_702_57"/>
<feBlend mode="normal" in="SourceGraphic" in2="effect1_dropShadow_702_57" result="shape"/>
</filter>
</defs>
</svg>
