<svg width="438" height="138" viewBox="0 0 438 138" fill="none" xmlns="http://www.w3.org/2000/svg">
<g filter="url(#filter0_d_711_72)">
<mask id="path-1-outside-1_711_72" maskUnits="userSpaceOnUse" x="4.00537" y="0" width="430" height="130" fill="black">
<rect fill="white" x="4.00537" width="430" height="130"/>
<path d="M59.5894 109.6C50.9707 109.6 43.6747 107.851 37.7014 104.352C31.728 100.768 27.8027 95.4347 25.9254 88.352C25.1574 85.4507 24.6454 81.9093 24.3894 77.728C24.1334 73.5467 24.0054 68.2133 24.0054 61.728C24.0054 49.0133 25.3707 38.9013 28.1014 31.392C30.9174 23.7973 36.464 20 44.7414 20C49.8614 20 53.872 21.792 56.7734 25.376C59.76 28.96 61.2534 33.3973 61.2534 38.688C61.2534 44.32 60.784 50.336 59.8454 56.736C58.9067 63.136 57.584 70.9013 55.8774 80.032C61.168 78.3253 66.9707 77.472 73.2854 77.472C79.856 77.472 85.3174 78.6667 89.6694 81.056C94.1067 83.4453 96.3254 87.328 96.3254 92.704C96.3254 97.9093 94.6187 101.749 91.2054 104.224C87.792 106.699 83.6534 108.235 78.7894 108.832C73.9254 109.344 67.5254 109.6 59.5894 109.6Z"/>
<path d="M137.403 109.728C129.638 109.813 122.427 107.893 115.771 103.968C109.201 100.043 103.91 94.6667 99.8994 87.84C95.974 80.928 93.926 73.2907 93.7554 64.928C93.67 56.9067 95.5474 49.4827 99.3874 42.656C103.227 35.8293 108.518 30.4107 115.259 26.4C122.001 22.304 129.382 20.256 137.403 20.256C145.254 20.1707 152.507 22.1333 159.163 26.144C165.905 30.1547 171.238 35.6587 175.163 42.656C179.089 49.6533 181.051 57.376 181.051 65.824C181.051 73.76 179.089 81.056 175.163 87.712C171.238 94.368 165.905 99.6587 159.163 103.584C152.507 107.509 145.254 109.557 137.403 109.728ZM137.787 84.768C141.713 84.768 145.041 83.36 147.771 80.544C150.587 77.728 151.953 74.0587 151.867 69.536C151.867 64.928 150.502 61.216 147.771 58.4C145.041 55.584 141.713 54.176 137.787 54.176C133.862 54.176 130.534 55.584 127.803 58.4C125.073 61.216 123.707 64.928 123.707 69.536C123.707 74.0587 125.073 77.728 127.803 80.544C130.534 83.36 133.862 84.768 137.787 84.768Z"/>
<path d="M232.463 109.472C222.735 109.472 214.415 107.765 207.503 104.352C200.591 100.939 195.301 96.0747 191.631 89.76C188.047 83.36 186.255 75.808 186.255 67.104C186.255 56.6933 188.431 47.9467 192.783 40.864C197.221 33.7813 202.938 28.5333 209.935 25.12C216.933 21.7067 224.271 20 231.951 20C238.778 20 244.794 21.024 249.999 23.072C255.205 25.12 259.215 27.808 262.031 31.136C264.847 34.464 266.255 37.9627 266.255 41.632C266.255 46.9227 264.89 50.72 262.159 53.024C259.429 55.2427 256.058 56.352 252.047 56.352C250.17 56.352 248.506 56.1813 247.055 55.84C245.69 55.4987 244.239 55.0293 242.703 54.432C240.997 53.8347 239.461 53.408 238.095 53.152C236.815 52.8107 235.194 52.64 233.231 52.64C227.599 52.64 223.162 54.3467 219.919 57.76C216.677 61.088 215.055 65.824 215.055 71.968C215.055 77.1733 216.634 81.184 219.791 84C222.949 86.816 226.874 88.224 231.567 88.224C234.213 88.224 236.517 87.8827 238.479 87.2C240.442 86.5173 241.935 85.7493 242.959 84.896C243.983 84.0427 244.495 83.36 244.495 82.848C238.266 82.848 233.53 82.1227 230.287 80.672C227.045 79.2213 225.423 76.704 225.423 73.12C225.423 69.536 226.661 66.7627 229.135 64.8C231.61 62.752 235.791 61.728 241.679 61.728C247.738 61.728 252.474 62.4533 255.887 63.904C259.301 65.2693 261.733 67.4453 263.183 70.432C264.634 73.3333 265.359 77.216 265.359 82.08C265.359 87.0293 263.866 91.5947 260.879 95.776C257.978 99.9573 253.967 103.285 248.847 105.76C243.813 108.235 238.351 109.472 232.463 109.472Z"/>
<path d="M311.602 86.432C315.954 86.944 319.325 88.0533 321.714 89.76C324.189 91.3813 325.426 93.984 325.426 97.568C325.426 101.152 324.146 103.797 321.586 105.504C319.112 107.211 316.125 108.277 312.626 108.704C309.128 109.045 304.605 109.216 299.058 109.216C293.597 109.216 289.117 109.045 285.618 108.704C282.12 108.277 279.133 107.211 276.658 105.504C274.184 103.797 272.946 101.152 272.946 97.568C272.946 94.0693 274.098 91.5093 276.402 89.888C278.792 88.1813 282.034 87.0293 286.13 86.432C285.704 81.4827 285.49 74.4 285.49 65.184C285.49 56.9067 285.661 50.2507 286.002 45.216C281.053 44.704 277.17 43.5093 274.354 41.632C271.538 39.7547 270.13 36.8107 270.13 32.8C270.13 28.8747 271.496 25.9733 274.226 24.096C276.957 22.2187 280.242 21.0667 284.082 20.64C287.922 20.2133 292.872 20 298.93 20C304.989 20 309.938 20.2133 313.778 20.64C317.618 21.0667 320.904 22.2187 323.634 24.096C326.45 25.9733 327.858 28.8747 327.858 32.8C327.858 36.8107 326.408 39.7547 323.506 41.632C320.69 43.5093 316.765 44.704 311.73 45.216C312.157 49.9093 312.37 56.5653 312.37 65.184C312.37 73.4613 312.114 80.544 311.602 86.432Z"/>
<path d="M346.538 109.6C342.357 109.6 338.944 107.04 336.298 101.92C333.738 96.8 331.904 90.6133 330.794 83.36C329.685 76.1067 329.13 69.1093 329.13 62.368C329.13 51.36 330.88 41.5893 334.378 33.056C337.962 24.4373 343.936 20.128 352.298 20.128C355.968 20.128 359.168 21.536 361.898 24.352C364.714 27.168 367.146 30.8373 369.194 35.36C371.242 39.7973 373.717 45.984 376.618 53.92L378.794 59.936C378.624 56.6933 378.538 54.304 378.538 52.768C378.538 42.784 379.861 34.848 382.506 28.96C385.237 23.072 389.546 20.128 395.434 20.128C402.517 20.128 407.381 24.352 410.026 32.8C412.672 41.1627 413.994 51.0187 413.994 62.368C413.994 69.1093 413.141 76.1067 411.434 83.36C409.813 90.6133 407.04 96.8 403.114 101.92C399.189 107.04 394.069 109.6 387.754 109.6C383.914 109.6 380.544 108.235 377.642 105.504C374.826 102.688 372.437 99.232 370.474 95.136C368.597 91.04 366.336 85.408 363.69 78.24C362.325 74.4853 361.258 71.6693 360.49 69.792L360.618 80.16C360.618 86.9013 360.277 92.3627 359.594 96.544C358.912 100.64 357.546 103.84 355.498 106.144C353.536 108.448 350.549 109.6 346.538 109.6Z"/>
</mask>
<path d="M59.5894 109.6C50.9707 109.6 43.6747 107.851 37.7014 104.352C31.728 100.768 27.8027 95.4347 25.9254 88.352C25.1574 85.4507 24.6454 81.9093 24.3894 77.728C24.1334 73.5467 24.0054 68.2133 24.0054 61.728C24.0054 49.0133 25.3707 38.9013 28.1014 31.392C30.9174 23.7973 36.464 20 44.7414 20C49.8614 20 53.872 21.792 56.7734 25.376C59.76 28.96 61.2534 33.3973 61.2534 38.688C61.2534 44.32 60.784 50.336 59.8454 56.736C58.9067 63.136 57.584 70.9013 55.8774 80.032C61.168 78.3253 66.9707 77.472 73.2854 77.472C79.856 77.472 85.3174 78.6667 89.6694 81.056C94.1067 83.4453 96.3254 87.328 96.3254 92.704C96.3254 97.9093 94.6187 101.749 91.2054 104.224C87.792 106.699 83.6534 108.235 78.7894 108.832C73.9254 109.344 67.5254 109.6 59.5894 109.6Z" fill="white"/>
<path d="M137.403 109.728C129.638 109.813 122.427 107.893 115.771 103.968C109.201 100.043 103.91 94.6667 99.8994 87.84C95.974 80.928 93.926 73.2907 93.7554 64.928C93.67 56.9067 95.5474 49.4827 99.3874 42.656C103.227 35.8293 108.518 30.4107 115.259 26.4C122.001 22.304 129.382 20.256 137.403 20.256C145.254 20.1707 152.507 22.1333 159.163 26.144C165.905 30.1547 171.238 35.6587 175.163 42.656C179.089 49.6533 181.051 57.376 181.051 65.824C181.051 73.76 179.089 81.056 175.163 87.712C171.238 94.368 165.905 99.6587 159.163 103.584C152.507 107.509 145.254 109.557 137.403 109.728ZM137.787 84.768C141.713 84.768 145.041 83.36 147.771 80.544C150.587 77.728 151.953 74.0587 151.867 69.536C151.867 64.928 150.502 61.216 147.771 58.4C145.041 55.584 141.713 54.176 137.787 54.176C133.862 54.176 130.534 55.584 127.803 58.4C125.073 61.216 123.707 64.928 123.707 69.536C123.707 74.0587 125.073 77.728 127.803 80.544C130.534 83.36 133.862 84.768 137.787 84.768Z" fill="white"/>
<path d="M232.463 109.472C222.735 109.472 214.415 107.765 207.503 104.352C200.591 100.939 195.301 96.0747 191.631 89.76C188.047 83.36 186.255 75.808 186.255 67.104C186.255 56.6933 188.431 47.9467 192.783 40.864C197.221 33.7813 202.938 28.5333 209.935 25.12C216.933 21.7067 224.271 20 231.951 20C238.778 20 244.794 21.024 249.999 23.072C255.205 25.12 259.215 27.808 262.031 31.136C264.847 34.464 266.255 37.9627 266.255 41.632C266.255 46.9227 264.89 50.72 262.159 53.024C259.429 55.2427 256.058 56.352 252.047 56.352C250.17 56.352 248.506 56.1813 247.055 55.84C245.69 55.4987 244.239 55.0293 242.703 54.432C240.997 53.8347 239.461 53.408 238.095 53.152C236.815 52.8107 235.194 52.64 233.231 52.64C227.599 52.64 223.162 54.3467 219.919 57.76C216.677 61.088 215.055 65.824 215.055 71.968C215.055 77.1733 216.634 81.184 219.791 84C222.949 86.816 226.874 88.224 231.567 88.224C234.213 88.224 236.517 87.8827 238.479 87.2C240.442 86.5173 241.935 85.7493 242.959 84.896C243.983 84.0427 244.495 83.36 244.495 82.848C238.266 82.848 233.53 82.1227 230.287 80.672C227.045 79.2213 225.423 76.704 225.423 73.12C225.423 69.536 226.661 66.7627 229.135 64.8C231.61 62.752 235.791 61.728 241.679 61.728C247.738 61.728 252.474 62.4533 255.887 63.904C259.301 65.2693 261.733 67.4453 263.183 70.432C264.634 73.3333 265.359 77.216 265.359 82.08C265.359 87.0293 263.866 91.5947 260.879 95.776C257.978 99.9573 253.967 103.285 248.847 105.76C243.813 108.235 238.351 109.472 232.463 109.472Z" fill="white"/>
<path d="M311.602 86.432C315.954 86.944 319.325 88.0533 321.714 89.76C324.189 91.3813 325.426 93.984 325.426 97.568C325.426 101.152 324.146 103.797 321.586 105.504C319.112 107.211 316.125 108.277 312.626 108.704C309.128 109.045 304.605 109.216 299.058 109.216C293.597 109.216 289.117 109.045 285.618 108.704C282.12 108.277 279.133 107.211 276.658 105.504C274.184 103.797 272.946 101.152 272.946 97.568C272.946 94.0693 274.098 91.5093 276.402 89.888C278.792 88.1813 282.034 87.0293 286.13 86.432C285.704 81.4827 285.49 74.4 285.49 65.184C285.49 56.9067 285.661 50.2507 286.002 45.216C281.053 44.704 277.17 43.5093 274.354 41.632C271.538 39.7547 270.13 36.8107 270.13 32.8C270.13 28.8747 271.496 25.9733 274.226 24.096C276.957 22.2187 280.242 21.0667 284.082 20.64C287.922 20.2133 292.872 20 298.93 20C304.989 20 309.938 20.2133 313.778 20.64C317.618 21.0667 320.904 22.2187 323.634 24.096C326.45 25.9733 327.858 28.8747 327.858 32.8C327.858 36.8107 326.408 39.7547 323.506 41.632C320.69 43.5093 316.765 44.704 311.73 45.216C312.157 49.9093 312.37 56.5653 312.37 65.184C312.37 73.4613 312.114 80.544 311.602 86.432Z" fill="white"/>
<path d="M346.538 109.6C342.357 109.6 338.944 107.04 336.298 101.92C333.738 96.8 331.904 90.6133 330.794 83.36C329.685 76.1067 329.13 69.1093 329.13 62.368C329.13 51.36 330.88 41.5893 334.378 33.056C337.962 24.4373 343.936 20.128 352.298 20.128C355.968 20.128 359.168 21.536 361.898 24.352C364.714 27.168 367.146 30.8373 369.194 35.36C371.242 39.7973 373.717 45.984 376.618 53.92L378.794 59.936C378.624 56.6933 378.538 54.304 378.538 52.768C378.538 42.784 379.861 34.848 382.506 28.96C385.237 23.072 389.546 20.128 395.434 20.128C402.517 20.128 407.381 24.352 410.026 32.8C412.672 41.1627 413.994 51.0187 413.994 62.368C413.994 69.1093 413.141 76.1067 411.434 83.36C409.813 90.6133 407.04 96.8 403.114 101.92C399.189 107.04 394.069 109.6 387.754 109.6C383.914 109.6 380.544 108.235 377.642 105.504C374.826 102.688 372.437 99.232 370.474 95.136C368.597 91.04 366.336 85.408 363.69 78.24C362.325 74.4853 361.258 71.6693 360.49 69.792L360.618 80.16C360.618 86.9013 360.277 92.3627 359.594 96.544C358.912 100.64 357.546 103.84 355.498 106.144C353.536 108.448 350.549 109.6 346.538 109.6Z" fill="white"/>
<path d="M59.5894 109.6C50.9707 109.6 43.6747 107.851 37.7014 104.352C31.728 100.768 27.8027 95.4347 25.9254 88.352C25.1574 85.4507 24.6454 81.9093 24.3894 77.728C24.1334 73.5467 24.0054 68.2133 24.0054 61.728C24.0054 49.0133 25.3707 38.9013 28.1014 31.392C30.9174 23.7973 36.464 20 44.7414 20C49.8614 20 53.872 21.792 56.7734 25.376C59.76 28.96 61.2534 33.3973 61.2534 38.688C61.2534 44.32 60.784 50.336 59.8454 56.736C58.9067 63.136 57.584 70.9013 55.8774 80.032C61.168 78.3253 66.9707 77.472 73.2854 77.472C79.856 77.472 85.3174 78.6667 89.6694 81.056C94.1067 83.4453 96.3254 87.328 96.3254 92.704C96.3254 97.9093 94.6187 101.749 91.2054 104.224C87.792 106.699 83.6534 108.235 78.7894 108.832C73.9254 109.344 67.5254 109.6 59.5894 109.6Z" stroke="#FF6161" stroke-width="40" mask="url(#path-1-outside-1_711_72)"/>
<path d="M137.403 109.728C129.638 109.813 122.427 107.893 115.771 103.968C109.201 100.043 103.91 94.6667 99.8994 87.84C95.974 80.928 93.926 73.2907 93.7554 64.928C93.67 56.9067 95.5474 49.4827 99.3874 42.656C103.227 35.8293 108.518 30.4107 115.259 26.4C122.001 22.304 129.382 20.256 137.403 20.256C145.254 20.1707 152.507 22.1333 159.163 26.144C165.905 30.1547 171.238 35.6587 175.163 42.656C179.089 49.6533 181.051 57.376 181.051 65.824C181.051 73.76 179.089 81.056 175.163 87.712C171.238 94.368 165.905 99.6587 159.163 103.584C152.507 107.509 145.254 109.557 137.403 109.728ZM137.787 84.768C141.713 84.768 145.041 83.36 147.771 80.544C150.587 77.728 151.953 74.0587 151.867 69.536C151.867 64.928 150.502 61.216 147.771 58.4C145.041 55.584 141.713 54.176 137.787 54.176C133.862 54.176 130.534 55.584 127.803 58.4C125.073 61.216 123.707 64.928 123.707 69.536C123.707 74.0587 125.073 77.728 127.803 80.544C130.534 83.36 133.862 84.768 137.787 84.768Z" stroke="#FF6161" stroke-width="40" mask="url(#path-1-outside-1_711_72)"/>
<path d="M232.463 109.472C222.735 109.472 214.415 107.765 207.503 104.352C200.591 100.939 195.301 96.0747 191.631 89.76C188.047 83.36 186.255 75.808 186.255 67.104C186.255 56.6933 188.431 47.9467 192.783 40.864C197.221 33.7813 202.938 28.5333 209.935 25.12C216.933 21.7067 224.271 20 231.951 20C238.778 20 244.794 21.024 249.999 23.072C255.205 25.12 259.215 27.808 262.031 31.136C264.847 34.464 266.255 37.9627 266.255 41.632C266.255 46.9227 264.89 50.72 262.159 53.024C259.429 55.2427 256.058 56.352 252.047 56.352C250.17 56.352 248.506 56.1813 247.055 55.84C245.69 55.4987 244.239 55.0293 242.703 54.432C240.997 53.8347 239.461 53.408 238.095 53.152C236.815 52.8107 235.194 52.64 233.231 52.64C227.599 52.64 223.162 54.3467 219.919 57.76C216.677 61.088 215.055 65.824 215.055 71.968C215.055 77.1733 216.634 81.184 219.791 84C222.949 86.816 226.874 88.224 231.567 88.224C234.213 88.224 236.517 87.8827 238.479 87.2C240.442 86.5173 241.935 85.7493 242.959 84.896C243.983 84.0427 244.495 83.36 244.495 82.848C238.266 82.848 233.53 82.1227 230.287 80.672C227.045 79.2213 225.423 76.704 225.423 73.12C225.423 69.536 226.661 66.7627 229.135 64.8C231.61 62.752 235.791 61.728 241.679 61.728C247.738 61.728 252.474 62.4533 255.887 63.904C259.301 65.2693 261.733 67.4453 263.183 70.432C264.634 73.3333 265.359 77.216 265.359 82.08C265.359 87.0293 263.866 91.5947 260.879 95.776C257.978 99.9573 253.967 103.285 248.847 105.76C243.813 108.235 238.351 109.472 232.463 109.472Z" stroke="#FF6161" stroke-width="40" mask="url(#path-1-outside-1_711_72)"/>
<path d="M311.602 86.432C315.954 86.944 319.325 88.0533 321.714 89.76C324.189 91.3813 325.426 93.984 325.426 97.568C325.426 101.152 324.146 103.797 321.586 105.504C319.112 107.211 316.125 108.277 312.626 108.704C309.128 109.045 304.605 109.216 299.058 109.216C293.597 109.216 289.117 109.045 285.618 108.704C282.12 108.277 279.133 107.211 276.658 105.504C274.184 103.797 272.946 101.152 272.946 97.568C272.946 94.0693 274.098 91.5093 276.402 89.888C278.792 88.1813 282.034 87.0293 286.13 86.432C285.704 81.4827 285.49 74.4 285.49 65.184C285.49 56.9067 285.661 50.2507 286.002 45.216C281.053 44.704 277.17 43.5093 274.354 41.632C271.538 39.7547 270.13 36.8107 270.13 32.8C270.13 28.8747 271.496 25.9733 274.226 24.096C276.957 22.2187 280.242 21.0667 284.082 20.64C287.922 20.2133 292.872 20 298.93 20C304.989 20 309.938 20.2133 313.778 20.64C317.618 21.0667 320.904 22.2187 323.634 24.096C326.45 25.9733 327.858 28.8747 327.858 32.8C327.858 36.8107 326.408 39.7547 323.506 41.632C320.69 43.5093 316.765 44.704 311.73 45.216C312.157 49.9093 312.37 56.5653 312.37 65.184C312.37 73.4613 312.114 80.544 311.602 86.432Z" stroke="#FF6161" stroke-width="40" mask="url(#path-1-outside-1_711_72)"/>
<path d="M346.538 109.6C342.357 109.6 338.944 107.04 336.298 101.92C333.738 96.8 331.904 90.6133 330.794 83.36C329.685 76.1067 329.13 69.1093 329.13 62.368C329.13 51.36 330.88 41.5893 334.378 33.056C337.962 24.4373 343.936 20.128 352.298 20.128C355.968 20.128 359.168 21.536 361.898 24.352C364.714 27.168 367.146 30.8373 369.194 35.36C371.242 39.7973 373.717 45.984 376.618 53.92L378.794 59.936C378.624 56.6933 378.538 54.304 378.538 52.768C378.538 42.784 379.861 34.848 382.506 28.96C385.237 23.072 389.546 20.128 395.434 20.128C402.517 20.128 407.381 24.352 410.026 32.8C412.672 41.1627 413.994 51.0187 413.994 62.368C413.994 69.1093 413.141 76.1067 411.434 83.36C409.813 90.6133 407.04 96.8 403.114 101.92C399.189 107.04 394.069 109.6 387.754 109.6C383.914 109.6 380.544 108.235 377.642 105.504C374.826 102.688 372.437 99.232 370.474 95.136C368.597 91.04 366.336 85.408 363.69 78.24C362.325 74.4853 361.258 71.6693 360.49 69.792L360.618 80.16C360.618 86.9013 360.277 92.3627 359.594 96.544C358.912 100.64 357.546 103.84 355.498 106.144C353.536 108.448 350.549 109.6 346.538 109.6Z" stroke="#FF6161" stroke-width="40" mask="url(#path-1-outside-1_711_72)"/>
</g>
<defs>
<filter id="filter0_d_711_72" x="0.00537109" y="0" width="437.989" height="137.731" filterUnits="userSpaceOnUse" color-interpolation-filters="sRGB">
<feFlood flood-opacity="0" result="BackgroundImageFix"/>
<feColorMatrix in="SourceAlpha" type="matrix" values="0 0 0 0 0 0 0 0 0 0 0 0 0 0 0 0 0 0 127 0" result="hardAlpha"/>
<feOffset dy="4"/>
<feGaussianBlur stdDeviation="2"/>
<feComposite in2="hardAlpha" operator="out"/>
<feColorMatrix type="matrix" values="0 0 0 0 0 0 0 0 0 0 0 0 0 0 0 0 0 0 0.25 0"/>
<feBlend mode="normal" in2="BackgroundImageFix" result="effect1_dropShadow_711_72"/>
<feBlend mode="normal" in="SourceGraphic" in2="effect1_dropShadow_711_72" result="shape"/>
</filter>
</defs>
</svg>
