<svg width="163" height="148" viewBox="0 0 163 148" fill="none" xmlns="http://www.w3.org/2000/svg">
<g filter="url(#filter0_d_664_54)">
<path d="M108.353 36.4955L135.763 63.9062C137.371 65.5134 138.286 67.7232 138.286 70C138.286 72.2768 137.371 74.4866 135.763 76.0937L108.353 103.504C106.924 104.933 105.004 105.714 102.996 105.714C98.8214 105.714 95.4286 102.321 95.4286 98.1473V84.2857H66.8571C62.9062 84.2857 59.7143 81.0938 59.7143 77.1429V62.8571C59.7143 58.9062 62.9062 55.7143 66.8571 55.7143H95.4286V41.8527C95.4286 37.6786 98.8214 34.2857 102.996 34.2857C105.004 34.2857 106.924 35.0893 108.353 36.4955ZM59.7143 34.2857H45.4286C41.4777 34.2857 38.2857 37.4777 38.2857 41.4286V98.5714C38.2857 102.522 41.4777 105.714 45.4286 105.714H59.7143C63.6652 105.714 66.8571 108.906 66.8571 112.857C66.8571 116.808 63.6652 120 59.7143 120H45.4286C33.5982 120 24 110.402 24 98.5714V41.4286C24 29.5982 33.5982 20 45.4286 20H59.7143C63.6652 20 66.8571 23.192 66.8571 27.1429C66.8571 31.0938 63.6652 34.2857 59.7143 34.2857Z" fill="white"/>
<path d="M115.424 29.4245L115.396 29.3966L115.368 29.369C112.108 26.1605 107.685 24.2857 102.996 24.2857C93.2986 24.2857 85.4286 32.1557 85.4286 41.8527V45.7143H66.8571C57.3834 45.7143 49.7143 53.3834 49.7143 62.8571V77.1429C49.7143 86.6166 57.3834 94.2857 66.8571 94.2857H85.4286V98.1473C85.4286 107.844 93.2986 115.714 102.996 115.714C107.617 115.714 112.092 113.907 115.424 110.576L142.834 83.1648C146.319 79.6803 148.286 74.9261 148.286 70C148.286 65.074 146.319 60.3197 142.834 56.8352L115.424 29.4245ZM48.2857 44.2857H59.7143C69.188 44.2857 76.8571 36.6166 76.8571 27.1429C76.8571 17.6691 69.188 10 59.7143 10H45.4286C28.0754 10 14 24.0754 14 41.4286V98.5714C14 115.925 28.0754 130 45.4286 130H59.7143C69.188 130 76.8571 122.331 76.8571 112.857C76.8571 103.383 69.188 95.7143 59.7143 95.7143H48.2857V44.2857Z" stroke="#FF6161" stroke-width="20"/>
</g>
<defs>
<filter id="filter0_d_664_54" x="0" y="0" width="162.286" height="148" filterUnits="userSpaceOnUse" color-interpolation-filters="sRGB">
<feFlood flood-opacity="0" result="BackgroundImageFix"/>
<feColorMatrix in="SourceAlpha" type="matrix" values="0 0 0 0 0 0 0 0 0 0 0 0 0 0 0 0 0 0 127 0" result="hardAlpha"/>
<feOffset dy="4"/>
<feGaussianBlur stdDeviation="2"/>
<feComposite in2="hardAlpha" operator="out"/>
<feColorMatrix type="matrix" values="0 0 0 0 0 0 0 0 0 0 0 0 0 0 0 0 0 0 0.25 0"/>
<feBlend mode="normal" in2="BackgroundImageFix" result="effect1_dropShadow_664_54"/>
<feBlend mode="normal" in="SourceGraphic" in2="effect1_dropShadow_664_54" result="shape"/>
</filter>
</defs>
</svg>
