<svg width="272" height="116" viewBox="0 0 272 116" fill="none" xmlns="http://www.w3.org/2000/svg">
<g filter="url(#filter0_d_705_54)">
<mask id="path-1-outside-1_705_54" maskUnits="userSpaceOnUse" x="4" y="0.447998" width="264" height="108" fill="black">
<rect fill="white" x="4" y="0.447998" width="264" height="108"/>
<path d="M37.056 87.552C33.92 87.552 31.36 85.632 29.376 81.792C27.456 77.952 26.08 73.312 25.248 67.872C24.416 62.432 24 57.184 24 52.128C24 43.872 25.312 36.544 27.936 30.144C30.624 23.68 35.104 20.448 41.376 20.448C44.128 20.448 46.528 21.504 48.576 23.616C50.688 25.728 52.512 28.48 54.048 31.872C55.584 35.2 57.44 39.84 59.616 45.792L61.248 50.304C61.12 47.872 61.056 46.08 61.056 44.928C61.056 37.44 62.048 31.488 64.032 27.072C66.08 22.656 69.312 20.448 73.728 20.448C79.04 20.448 82.688 23.616 84.672 29.952C86.656 36.224 87.648 43.616 87.648 52.128C87.648 57.184 87.008 62.432 85.728 67.872C84.512 73.312 82.432 77.952 79.488 81.792C76.544 85.632 72.704 87.552 67.968 87.552C65.088 87.552 62.56 86.528 60.384 84.48C58.272 82.368 56.48 79.776 55.008 76.704C53.6 73.632 51.904 69.408 49.92 64.032C48.896 61.216 48.096 59.104 47.52 57.696L47.616 65.472C47.616 70.528 47.36 74.624 46.848 77.76C46.336 80.832 45.312 83.232 43.776 84.96C42.304 86.688 40.064 87.552 37.056 87.552Z"/>
<path d="M106.811 87.552C101.819 87.552 97.7233 86.432 94.5233 84.192C91.3233 81.888 89.7233 78.592 89.7233 74.304C89.7233 70.592 91.3552 67.648 94.6192 65.472C97.8832 63.296 101.947 62.208 106.811 62.208C108.603 62.208 110.267 62.368 111.803 62.688C113.403 62.944 114.491 63.264 115.067 63.648C115.067 62.048 114.395 60.736 113.051 59.712C111.707 58.624 109.659 58.08 106.907 58.08C105.691 58.08 104.699 58.176 103.931 58.368C103.163 58.56 102.331 58.848 101.435 59.232C100.539 59.616 99.7072 59.904 98.9392 60.096C98.2352 60.288 97.2752 60.384 96.0592 60.384C94.0113 60.384 92.4112 59.872 91.2592 58.848C90.1072 57.76 89.5312 56.128 89.5312 53.952C89.5312 51.456 90.4273 49.344 92.2193 47.616C94.0753 45.888 96.3792 44.608 99.1312 43.776C101.883 42.88 104.635 42.432 107.387 42.432C112.827 42.432 117.371 43.456 121.019 45.504C124.731 47.488 127.451 50.144 129.179 53.472C130.971 56.8 131.867 60.48 131.867 64.512C131.867 66.688 131.675 68.704 131.291 70.56C130.971 72.416 130.523 73.856 129.947 74.88C130.843 75.648 131.515 76.544 131.963 77.568C132.475 78.592 132.731 79.648 132.731 80.736C132.731 82.592 132.091 84.192 130.811 85.536C129.595 86.88 127.963 87.552 125.915 87.552C124.379 87.552 123.131 87.328 122.171 86.88C121.211 86.432 120.187 85.728 119.099 84.768C117.499 85.728 115.739 86.432 113.819 86.88C111.963 87.328 109.627 87.552 106.811 87.552ZM108.731 77.856C110.075 77.856 111.131 77.568 111.899 76.992C112.731 76.416 113.147 75.712 113.147 74.88C113.147 74.048 112.731 73.344 111.899 72.768C111.131 72.192 110.075 71.904 108.731 71.904C107.387 71.904 106.299 72.192 105.467 72.768C104.699 73.344 104.315 74.048 104.315 74.88C104.315 75.712 104.699 76.416 105.467 76.992C106.299 77.568 107.387 77.856 108.731 77.856Z"/>
<path d="M168.946 87.552C166.002 87.552 163.986 86.56 162.898 84.576C161.81 82.592 161.266 79.552 161.266 75.456C161.266 72.448 161.234 70.304 161.17 69.024C161.106 67.68 160.85 66.56 160.402 65.664C160.018 64.768 159.314 64.32 158.29 64.32C157.074 64.32 156.178 64.736 155.602 65.568C155.026 66.336 154.674 67.36 154.546 68.64C154.482 69.856 154.45 71.712 154.45 74.208C154.45 77.28 154.322 79.712 154.066 81.504C153.81 83.232 153.138 84.672 152.05 85.824C150.962 86.912 149.266 87.456 146.962 87.456C140.05 87.456 136.594 78.688 136.594 61.152C136.594 55.2 137.106 50.592 138.13 47.328C139.218 44 141.234 41.92 144.178 41.088C145.266 40.768 146.258 40.608 147.154 40.608C148.498 40.608 149.714 40.896 150.802 41.472C151.89 42.048 152.658 42.848 153.106 43.872C154.002 43.36 154.898 42.976 155.794 42.72C156.69 42.464 157.97 42.336 159.634 42.336C161.682 42.336 163.602 42.848 165.394 43.872C167.25 44.832 168.562 46.208 169.33 48C170.994 46.08 172.658 44.672 174.322 43.776C176.05 42.816 178.258 42.336 180.946 42.336C184.914 42.336 188.37 43.52 191.314 45.888C194.322 48.192 196.626 51.392 198.226 55.488C199.89 59.52 200.722 64 200.722 68.928C200.722 74.432 199.986 78.912 198.514 82.368C197.042 85.824 194.482 87.552 190.834 87.552C188.402 87.552 186.642 86.944 185.554 85.728C184.53 84.512 183.89 83.008 183.634 81.216C183.442 79.36 183.346 76.672 183.346 73.152C183.346 70.08 183.122 67.84 182.674 66.432C182.226 65.024 181.17 64.32 179.506 64.32C178.29 64.32 177.522 64.992 177.202 66.336C176.882 67.616 176.722 69.76 176.722 72.768C176.658 73.344 176.626 74.24 176.626 75.456C176.498 79.552 175.89 82.592 174.802 84.576C173.714 86.56 171.762 87.552 168.946 87.552Z"/>
<path d="M227.721 87.552C222.985 87.552 218.793 86.624 215.145 84.768C211.497 82.912 208.649 80.32 206.601 76.992C204.617 73.6 203.625 69.792 203.625 65.568C203.625 61.408 204.617 57.568 206.601 54.048C208.649 50.528 211.465 47.712 215.049 45.6C218.633 43.488 222.697 42.432 227.241 42.432C231.337 42.432 234.953 43.264 238.089 44.928C241.225 46.592 243.625 48.8 245.289 51.552C246.953 54.24 247.785 57.056 247.785 60C247.785 64.8 245.961 68.32 242.313 70.56C238.729 72.736 234.441 73.824 229.449 73.824C226.121 73.824 223.305 73.408 221.001 72.576C222.921 75.712 226.089 77.28 230.505 77.28C232.297 77.28 234.217 77.056 236.265 76.608C237.033 76.416 237.769 76.32 238.473 76.32C239.881 76.32 241.001 76.672 241.833 77.376C242.729 78.08 243.177 79.04 243.177 80.256C243.177 82.24 241.961 83.968 239.529 85.44C237.097 86.848 233.161 87.552 227.721 87.552ZM221.289 60.864C221.865 61.76 222.633 62.432 223.593 62.88C224.617 63.264 225.737 63.456 226.953 63.456C228.361 63.456 229.577 63.136 230.601 62.496C231.689 61.856 232.233 61.024 232.233 60C232.233 58.848 231.753 57.856 230.793 57.024C229.897 56.192 228.585 55.776 226.857 55.776C225.129 55.776 223.753 56.32 222.729 57.408C221.769 58.432 221.289 59.584 221.289 60.864Z"/>
</mask>
<path d="M37.056 87.552C33.92 87.552 31.36 85.632 29.376 81.792C27.456 77.952 26.08 73.312 25.248 67.872C24.416 62.432 24 57.184 24 52.128C24 43.872 25.312 36.544 27.936 30.144C30.624 23.68 35.104 20.448 41.376 20.448C44.128 20.448 46.528 21.504 48.576 23.616C50.688 25.728 52.512 28.48 54.048 31.872C55.584 35.2 57.44 39.84 59.616 45.792L61.248 50.304C61.12 47.872 61.056 46.08 61.056 44.928C61.056 37.44 62.048 31.488 64.032 27.072C66.08 22.656 69.312 20.448 73.728 20.448C79.04 20.448 82.688 23.616 84.672 29.952C86.656 36.224 87.648 43.616 87.648 52.128C87.648 57.184 87.008 62.432 85.728 67.872C84.512 73.312 82.432 77.952 79.488 81.792C76.544 85.632 72.704 87.552 67.968 87.552C65.088 87.552 62.56 86.528 60.384 84.48C58.272 82.368 56.48 79.776 55.008 76.704C53.6 73.632 51.904 69.408 49.92 64.032C48.896 61.216 48.096 59.104 47.52 57.696L47.616 65.472C47.616 70.528 47.36 74.624 46.848 77.76C46.336 80.832 45.312 83.232 43.776 84.96C42.304 86.688 40.064 87.552 37.056 87.552Z" fill="white"/>
<path d="M106.811 87.552C101.819 87.552 97.7233 86.432 94.5233 84.192C91.3233 81.888 89.7233 78.592 89.7233 74.304C89.7233 70.592 91.3552 67.648 94.6192 65.472C97.8832 63.296 101.947 62.208 106.811 62.208C108.603 62.208 110.267 62.368 111.803 62.688C113.403 62.944 114.491 63.264 115.067 63.648C115.067 62.048 114.395 60.736 113.051 59.712C111.707 58.624 109.659 58.08 106.907 58.08C105.691 58.08 104.699 58.176 103.931 58.368C103.163 58.56 102.331 58.848 101.435 59.232C100.539 59.616 99.7072 59.904 98.9392 60.096C98.2352 60.288 97.2752 60.384 96.0592 60.384C94.0113 60.384 92.4112 59.872 91.2592 58.848C90.1072 57.76 89.5312 56.128 89.5312 53.952C89.5312 51.456 90.4273 49.344 92.2193 47.616C94.0753 45.888 96.3792 44.608 99.1312 43.776C101.883 42.88 104.635 42.432 107.387 42.432C112.827 42.432 117.371 43.456 121.019 45.504C124.731 47.488 127.451 50.144 129.179 53.472C130.971 56.8 131.867 60.48 131.867 64.512C131.867 66.688 131.675 68.704 131.291 70.56C130.971 72.416 130.523 73.856 129.947 74.88C130.843 75.648 131.515 76.544 131.963 77.568C132.475 78.592 132.731 79.648 132.731 80.736C132.731 82.592 132.091 84.192 130.811 85.536C129.595 86.88 127.963 87.552 125.915 87.552C124.379 87.552 123.131 87.328 122.171 86.88C121.211 86.432 120.187 85.728 119.099 84.768C117.499 85.728 115.739 86.432 113.819 86.88C111.963 87.328 109.627 87.552 106.811 87.552ZM108.731 77.856C110.075 77.856 111.131 77.568 111.899 76.992C112.731 76.416 113.147 75.712 113.147 74.88C113.147 74.048 112.731 73.344 111.899 72.768C111.131 72.192 110.075 71.904 108.731 71.904C107.387 71.904 106.299 72.192 105.467 72.768C104.699 73.344 104.315 74.048 104.315 74.88C104.315 75.712 104.699 76.416 105.467 76.992C106.299 77.568 107.387 77.856 108.731 77.856Z" fill="white"/>
<path d="M168.946 87.552C166.002 87.552 163.986 86.56 162.898 84.576C161.81 82.592 161.266 79.552 161.266 75.456C161.266 72.448 161.234 70.304 161.17 69.024C161.106 67.68 160.85 66.56 160.402 65.664C160.018 64.768 159.314 64.32 158.29 64.32C157.074 64.32 156.178 64.736 155.602 65.568C155.026 66.336 154.674 67.36 154.546 68.64C154.482 69.856 154.45 71.712 154.45 74.208C154.45 77.28 154.322 79.712 154.066 81.504C153.81 83.232 153.138 84.672 152.05 85.824C150.962 86.912 149.266 87.456 146.962 87.456C140.05 87.456 136.594 78.688 136.594 61.152C136.594 55.2 137.106 50.592 138.13 47.328C139.218 44 141.234 41.92 144.178 41.088C145.266 40.768 146.258 40.608 147.154 40.608C148.498 40.608 149.714 40.896 150.802 41.472C151.89 42.048 152.658 42.848 153.106 43.872C154.002 43.36 154.898 42.976 155.794 42.72C156.69 42.464 157.97 42.336 159.634 42.336C161.682 42.336 163.602 42.848 165.394 43.872C167.25 44.832 168.562 46.208 169.33 48C170.994 46.08 172.658 44.672 174.322 43.776C176.05 42.816 178.258 42.336 180.946 42.336C184.914 42.336 188.37 43.52 191.314 45.888C194.322 48.192 196.626 51.392 198.226 55.488C199.89 59.52 200.722 64 200.722 68.928C200.722 74.432 199.986 78.912 198.514 82.368C197.042 85.824 194.482 87.552 190.834 87.552C188.402 87.552 186.642 86.944 185.554 85.728C184.53 84.512 183.89 83.008 183.634 81.216C183.442 79.36 183.346 76.672 183.346 73.152C183.346 70.08 183.122 67.84 182.674 66.432C182.226 65.024 181.17 64.32 179.506 64.32C178.29 64.32 177.522 64.992 177.202 66.336C176.882 67.616 176.722 69.76 176.722 72.768C176.658 73.344 176.626 74.24 176.626 75.456C176.498 79.552 175.89 82.592 174.802 84.576C173.714 86.56 171.762 87.552 168.946 87.552Z" fill="white"/>
<path d="M227.721 87.552C222.985 87.552 218.793 86.624 215.145 84.768C211.497 82.912 208.649 80.32 206.601 76.992C204.617 73.6 203.625 69.792 203.625 65.568C203.625 61.408 204.617 57.568 206.601 54.048C208.649 50.528 211.465 47.712 215.049 45.6C218.633 43.488 222.697 42.432 227.241 42.432C231.337 42.432 234.953 43.264 238.089 44.928C241.225 46.592 243.625 48.8 245.289 51.552C246.953 54.24 247.785 57.056 247.785 60C247.785 64.8 245.961 68.32 242.313 70.56C238.729 72.736 234.441 73.824 229.449 73.824C226.121 73.824 223.305 73.408 221.001 72.576C222.921 75.712 226.089 77.28 230.505 77.28C232.297 77.28 234.217 77.056 236.265 76.608C237.033 76.416 237.769 76.32 238.473 76.32C239.881 76.32 241.001 76.672 241.833 77.376C242.729 78.08 243.177 79.04 243.177 80.256C243.177 82.24 241.961 83.968 239.529 85.44C237.097 86.848 233.161 87.552 227.721 87.552ZM221.289 60.864C221.865 61.76 222.633 62.432 223.593 62.88C224.617 63.264 225.737 63.456 226.953 63.456C228.361 63.456 229.577 63.136 230.601 62.496C231.689 61.856 232.233 61.024 232.233 60C232.233 58.848 231.753 57.856 230.793 57.024C229.897 56.192 228.585 55.776 226.857 55.776C225.129 55.776 223.753 56.32 222.729 57.408C221.769 58.432 221.289 59.584 221.289 60.864Z" fill="white"/>
<path d="M37.056 87.552C33.92 87.552 31.36 85.632 29.376 81.792C27.456 77.952 26.08 73.312 25.248 67.872C24.416 62.432 24 57.184 24 52.128C24 43.872 25.312 36.544 27.936 30.144C30.624 23.68 35.104 20.448 41.376 20.448C44.128 20.448 46.528 21.504 48.576 23.616C50.688 25.728 52.512 28.48 54.048 31.872C55.584 35.2 57.44 39.84 59.616 45.792L61.248 50.304C61.12 47.872 61.056 46.08 61.056 44.928C61.056 37.44 62.048 31.488 64.032 27.072C66.08 22.656 69.312 20.448 73.728 20.448C79.04 20.448 82.688 23.616 84.672 29.952C86.656 36.224 87.648 43.616 87.648 52.128C87.648 57.184 87.008 62.432 85.728 67.872C84.512 73.312 82.432 77.952 79.488 81.792C76.544 85.632 72.704 87.552 67.968 87.552C65.088 87.552 62.56 86.528 60.384 84.48C58.272 82.368 56.48 79.776 55.008 76.704C53.6 73.632 51.904 69.408 49.92 64.032C48.896 61.216 48.096 59.104 47.52 57.696L47.616 65.472C47.616 70.528 47.36 74.624 46.848 77.76C46.336 80.832 45.312 83.232 43.776 84.96C42.304 86.688 40.064 87.552 37.056 87.552Z" stroke="#FF6161" stroke-width="40" mask="url(#path-1-outside-1_705_54)"/>
<path d="M106.811 87.552C101.819 87.552 97.7233 86.432 94.5233 84.192C91.3233 81.888 89.7233 78.592 89.7233 74.304C89.7233 70.592 91.3552 67.648 94.6192 65.472C97.8832 63.296 101.947 62.208 106.811 62.208C108.603 62.208 110.267 62.368 111.803 62.688C113.403 62.944 114.491 63.264 115.067 63.648C115.067 62.048 114.395 60.736 113.051 59.712C111.707 58.624 109.659 58.08 106.907 58.08C105.691 58.08 104.699 58.176 103.931 58.368C103.163 58.56 102.331 58.848 101.435 59.232C100.539 59.616 99.7072 59.904 98.9392 60.096C98.2352 60.288 97.2752 60.384 96.0592 60.384C94.0113 60.384 92.4112 59.872 91.2592 58.848C90.1072 57.76 89.5312 56.128 89.5312 53.952C89.5312 51.456 90.4273 49.344 92.2193 47.616C94.0753 45.888 96.3792 44.608 99.1312 43.776C101.883 42.88 104.635 42.432 107.387 42.432C112.827 42.432 117.371 43.456 121.019 45.504C124.731 47.488 127.451 50.144 129.179 53.472C130.971 56.8 131.867 60.48 131.867 64.512C131.867 66.688 131.675 68.704 131.291 70.56C130.971 72.416 130.523 73.856 129.947 74.88C130.843 75.648 131.515 76.544 131.963 77.568C132.475 78.592 132.731 79.648 132.731 80.736C132.731 82.592 132.091 84.192 130.811 85.536C129.595 86.88 127.963 87.552 125.915 87.552C124.379 87.552 123.131 87.328 122.171 86.88C121.211 86.432 120.187 85.728 119.099 84.768C117.499 85.728 115.739 86.432 113.819 86.88C111.963 87.328 109.627 87.552 106.811 87.552ZM108.731 77.856C110.075 77.856 111.131 77.568 111.899 76.992C112.731 76.416 113.147 75.712 113.147 74.88C113.147 74.048 112.731 73.344 111.899 72.768C111.131 72.192 110.075 71.904 108.731 71.904C107.387 71.904 106.299 72.192 105.467 72.768C104.699 73.344 104.315 74.048 104.315 74.88C104.315 75.712 104.699 76.416 105.467 76.992C106.299 77.568 107.387 77.856 108.731 77.856Z" stroke="#FF6161" stroke-width="40" mask="url(#path-1-outside-1_705_54)"/>
<path d="M168.946 87.552C166.002 87.552 163.986 86.56 162.898 84.576C161.81 82.592 161.266 79.552 161.266 75.456C161.266 72.448 161.234 70.304 161.17 69.024C161.106 67.68 160.85 66.56 160.402 65.664C160.018 64.768 159.314 64.32 158.29 64.32C157.074 64.32 156.178 64.736 155.602 65.568C155.026 66.336 154.674 67.36 154.546 68.64C154.482 69.856 154.45 71.712 154.45 74.208C154.45 77.28 154.322 79.712 154.066 81.504C153.81 83.232 153.138 84.672 152.05 85.824C150.962 86.912 149.266 87.456 146.962 87.456C140.05 87.456 136.594 78.688 136.594 61.152C136.594 55.2 137.106 50.592 138.13 47.328C139.218 44 141.234 41.92 144.178 41.088C145.266 40.768 146.258 40.608 147.154 40.608C148.498 40.608 149.714 40.896 150.802 41.472C151.89 42.048 152.658 42.848 153.106 43.872C154.002 43.36 154.898 42.976 155.794 42.72C156.69 42.464 157.97 42.336 159.634 42.336C161.682 42.336 163.602 42.848 165.394 43.872C167.25 44.832 168.562 46.208 169.33 48C170.994 46.08 172.658 44.672 174.322 43.776C176.05 42.816 178.258 42.336 180.946 42.336C184.914 42.336 188.37 43.52 191.314 45.888C194.322 48.192 196.626 51.392 198.226 55.488C199.89 59.52 200.722 64 200.722 68.928C200.722 74.432 199.986 78.912 198.514 82.368C197.042 85.824 194.482 87.552 190.834 87.552C188.402 87.552 186.642 86.944 185.554 85.728C184.53 84.512 183.89 83.008 183.634 81.216C183.442 79.36 183.346 76.672 183.346 73.152C183.346 70.08 183.122 67.84 182.674 66.432C182.226 65.024 181.17 64.32 179.506 64.32C178.29 64.32 177.522 64.992 177.202 66.336C176.882 67.616 176.722 69.76 176.722 72.768C176.658 73.344 176.626 74.24 176.626 75.456C176.498 79.552 175.89 82.592 174.802 84.576C173.714 86.56 171.762 87.552 168.946 87.552Z" stroke="#FF6161" stroke-width="40" mask="url(#path-1-outside-1_705_54)"/>
<path d="M227.721 87.552C222.985 87.552 218.793 86.624 215.145 84.768C211.497 82.912 208.649 80.32 206.601 76.992C204.617 73.6 203.625 69.792 203.625 65.568C203.625 61.408 204.617 57.568 206.601 54.048C208.649 50.528 211.465 47.712 215.049 45.6C218.633 43.488 222.697 42.432 227.241 42.432C231.337 42.432 234.953 43.264 238.089 44.928C241.225 46.592 243.625 48.8 245.289 51.552C246.953 54.24 247.785 57.056 247.785 60C247.785 64.8 245.961 68.32 242.313 70.56C238.729 72.736 234.441 73.824 229.449 73.824C226.121 73.824 223.305 73.408 221.001 72.576C222.921 75.712 226.089 77.28 230.505 77.28C232.297 77.28 234.217 77.056 236.265 76.608C237.033 76.416 237.769 76.32 238.473 76.32C239.881 76.32 241.001 76.672 241.833 77.376C242.729 78.08 243.177 79.04 243.177 80.256C243.177 82.24 241.961 83.968 239.529 85.44C237.097 86.848 233.161 87.552 227.721 87.552ZM221.289 60.864C221.865 61.76 222.633 62.432 223.593 62.88C224.617 63.264 225.737 63.456 226.953 63.456C228.361 63.456 229.577 63.136 230.601 62.496C231.689 61.856 232.233 61.024 232.233 60C232.233 58.848 231.753 57.856 230.793 57.024C229.897 56.192 228.585 55.776 226.857 55.776C225.129 55.776 223.753 56.32 222.729 57.408C221.769 58.432 221.289 59.584 221.289 60.864Z" stroke="#FF6161" stroke-width="40" mask="url(#path-1-outside-1_705_54)"/>
</g>
<defs>
<filter id="filter0_d_705_54" x="0" y="0.447998" width="271.785" height="115.104" filterUnits="userSpaceOnUse" color-interpolation-filters="sRGB">
<feFlood flood-opacity="0" result="BackgroundImageFix"/>
<feColorMatrix in="SourceAlpha" type="matrix" values="0 0 0 0 0 0 0 0 0 0 0 0 0 0 0 0 0 0 127 0" result="hardAlpha"/>
<feOffset dy="4"/>
<feGaussianBlur stdDeviation="2"/>
<feComposite in2="hardAlpha" operator="out"/>
<feColorMatrix type="matrix" values="0 0 0 0 0 0 0 0 0 0 0 0 0 0 0 0 0 0 0.25 0"/>
<feBlend mode="normal" in2="BackgroundImageFix" result="effect1_dropShadow_705_54"/>
<feBlend mode="normal" in="SourceGraphic" in2="effect1_dropShadow_705_54" result="shape"/>
</filter>
</defs>
</svg>
