<svg width="910" height="138" viewBox="0 0 910 138" fill="none" xmlns="http://www.w3.org/2000/svg">
<g filter="url(#filter0_d_719_82)">
<mask id="path-1-outside-1_719_82" maskUnits="userSpaceOnUse" x="4.72998" y="0" width="901" height="130" fill="black">
<rect fill="white" x="4.72998" width="901" height="130"/>
<path d="M42.138 109.6C37.9566 109.6 34.5433 107.04 31.898 101.92C29.338 96.8 27.5033 90.6133 26.394 83.36C25.2846 76.1067 24.73 69.1093 24.73 62.368C24.73 51.36 26.4793 41.5893 29.978 33.056C33.562 24.4373 39.5353 20.128 47.898 20.128C51.5673 20.128 54.7673 21.536 57.498 24.352C60.314 27.168 62.746 30.8373 64.794 35.36C66.842 39.7973 69.3166 45.984 72.218 53.92L74.394 59.936C74.2233 56.6933 74.138 54.304 74.138 52.768C74.138 42.784 75.4606 34.848 78.106 28.96C80.8367 23.072 85.146 20.128 91.034 20.128C98.1167 20.128 102.981 24.352 105.626 32.8C108.271 41.1627 109.594 51.0187 109.594 62.368C109.594 69.1093 108.741 76.1067 107.034 83.36C105.413 90.6133 102.639 96.8 98.714 101.92C94.7887 107.04 89.6687 109.6 83.354 109.6C79.514 109.6 76.1433 108.235 73.242 105.504C70.426 102.688 68.0366 99.232 66.074 95.136C64.1966 91.04 61.9353 85.408 59.29 78.24C57.9246 74.4853 56.858 71.6693 56.09 69.792L56.218 80.16C56.218 86.9013 55.8766 92.3627 55.194 96.544C54.5113 100.64 53.146 103.84 51.098 106.144C49.1353 108.448 46.1486 109.6 42.138 109.6Z"/>
<path d="M178.602 89.12C182.698 90.4 184.746 93.088 184.746 97.184C184.746 101.024 182.783 104.053 178.858 106.272C174.933 108.491 168.149 109.6 158.506 109.6C146.474 109.6 136.149 106.699 127.53 100.896C118.997 95.0933 114.73 83.5733 114.73 66.336C114.73 57.632 116.223 49.7813 119.21 42.784C122.197 35.7867 126.634 30.24 132.522 26.144C138.495 22.048 145.791 20 154.41 20C165.93 20 174.037 21.792 178.73 25.376C183.423 28.8747 185.77 33.184 185.77 38.304C185.77 40.6933 185.173 42.912 183.978 44.96C182.783 46.9227 180.991 48.4587 178.602 49.568C176.554 50.592 173.909 51.104 170.666 51.104L167.21 50.976C166.527 50.8907 165.546 50.848 164.266 50.848C159.829 50.848 156.33 51.6587 153.77 53.28C151.21 54.816 149.461 57.2053 148.522 60.448C152.106 60.2773 155.349 60.192 158.25 60.192C166.869 60.192 172.458 60.448 175.018 60.96C177.919 61.5573 180.138 62.7093 181.674 64.416C183.295 66.1227 184.106 68.128 184.106 70.432C184.106 72.736 183.338 74.7413 181.802 76.448C180.266 78.0693 177.962 79.1787 174.89 79.776C172.501 80.288 166.698 80.544 157.482 80.544C153.727 80.544 151.082 80.5013 149.546 80.416C152.191 86.048 157.141 88.864 164.394 88.864C164.821 88.864 165.802 88.7787 167.338 88.608C169.386 88.4373 171.135 88.352 172.586 88.352C175.061 88.352 177.066 88.608 178.602 89.12Z"/>
<path d="M223.394 109.6C216.567 109.6 210.594 107.723 205.474 103.968C200.439 100.213 196.557 94.88 193.826 87.968C191.095 81.056 189.73 72.9067 189.73 63.52C189.73 58.0587 190.626 52.2133 192.418 45.984C194.295 39.7547 196.941 34.5067 200.354 30.24C203.853 25.888 207.906 23.712 212.514 23.712C216.269 23.712 219.383 25.0773 221.858 27.808C224.333 30.5387 225.57 33.9093 225.57 37.92C225.57 39.1147 225.271 40.736 224.674 42.784C224.162 44.7467 223.565 46.7947 222.882 48.928C221.602 52.5973 220.621 55.84 219.938 58.656C219.255 61.3867 218.914 64.032 218.914 66.592C218.914 70.3467 219.469 73.0773 220.578 74.784C221.687 76.4907 223.053 77.344 224.674 77.344C226.807 77.344 228.301 76.2773 229.154 74.144C230.093 71.9253 230.562 67.872 230.562 61.984L230.434 53.152C230.434 46.3253 231.33 40.9067 233.122 36.896C234.914 32.8 238.498 30.752 243.874 30.752C247.885 30.752 250.914 31.8613 252.962 34.08C255.01 36.2987 256.333 39.1147 256.93 42.528C257.527 45.856 257.826 49.9093 257.826 54.688V61.216C257.826 67.4453 258.338 71.8827 259.362 74.528C260.471 77.088 262.221 78.368 264.61 78.368C266.231 78.368 267.469 77.5573 268.322 75.936C269.261 74.2293 269.73 71.712 269.73 68.384C269.73 65.9093 269.431 63.4347 268.834 60.96C268.237 58.4853 267.298 55.328 266.018 51.488C264.909 47.8187 264.098 45.088 263.586 43.296C263.159 41.4187 262.946 39.6267 262.946 37.92C262.946 33.9093 264.226 30.5813 266.786 27.936C269.431 25.2907 272.503 23.968 276.002 23.968C281.037 23.968 285.261 26.1013 288.674 30.368C292.173 34.5493 294.775 39.712 296.482 45.856C298.189 52 299.042 57.888 299.042 63.52C299.042 72.9067 297.677 81.056 294.946 87.968C292.215 94.88 288.29 100.213 283.17 103.968C278.135 107.637 272.205 109.472 265.378 109.472C261.623 109.472 257.954 108.619 254.37 106.912C250.786 105.205 247.458 102.645 244.386 99.232C241.314 102.645 237.943 105.248 234.274 107.04C230.69 108.747 227.063 109.6 223.394 109.6Z"/>
<path d="M361.903 109.728C354.906 109.728 350.127 105.717 347.567 97.696C345.092 89.6747 343.855 79.4347 343.855 66.976C343.855 58.8693 345.306 51.2747 348.207 44.192C351.194 37.024 355.716 31.264 361.775 26.912C367.834 22.4747 375.215 20.256 383.919 20.256C390.916 20.256 397.274 21.7493 402.991 24.736C408.708 27.6373 413.231 31.8187 416.559 37.28C419.972 42.7413 421.679 49.056 421.679 56.224C421.679 64.5013 420.015 71.456 416.687 77.088C413.359 82.72 409.05 86.9013 403.759 89.632C398.468 92.3627 392.879 93.728 386.991 93.728C382.212 93.728 377.818 92.9173 373.807 91.296C374.319 94.0267 374.575 96.1173 374.575 97.568C374.575 105.675 370.351 109.728 361.903 109.728ZM385.199 73.888C388.271 73.888 390.916 72.7787 393.135 70.56C395.439 68.256 396.591 65.6107 396.591 62.624C396.591 59.552 395.439 56.9067 393.135 54.688C390.916 52.384 388.271 51.232 385.199 51.232C382.212 51.232 379.567 52.384 377.263 54.688C374.959 56.9067 373.807 59.552 373.807 62.624C373.807 65.6107 374.959 68.256 377.263 70.56C379.567 72.7787 382.212 73.888 385.199 73.888Z"/>
<path d="M503.429 56.224C503.429 62.4533 502.49 67.9573 500.613 72.736C498.821 77.5147 496.261 81.5253 492.933 84.768C495.749 89.12 497.157 93.344 497.157 97.44C497.157 100.939 495.792 103.84 493.061 106.144C490.416 108.448 487.386 109.6 483.973 109.6C482.01 109.6 480.218 109.301 478.597 108.704C476.976 108.107 475.226 107.083 473.349 105.632C471.728 104.352 470.192 102.603 468.741 100.384C467.29 98.1653 466.138 95.8613 465.285 93.472C462.469 93.1307 459.653 92.4053 456.837 91.296C457.349 94.0267 457.605 96.1173 457.605 97.568C457.605 105.675 453.381 109.728 444.933 109.728C437.85 109.728 432.858 105.589 429.957 97.312C427.056 89.0347 425.605 78.9227 425.605 66.976C425.605 58.8693 427.056 51.2747 429.957 44.192C432.944 37.024 437.466 31.264 443.525 26.912C449.584 22.4747 456.965 20.256 465.669 20.256C472.666 20.256 479.024 21.7493 484.741 24.736C490.458 27.6373 494.981 31.8187 498.309 37.28C501.722 42.7413 503.429 49.056 503.429 56.224ZM455.557 62.24C455.557 65.1413 456.709 67.7013 459.013 69.92C461.317 72.0533 463.962 73.12 466.949 73.12C470.021 73.12 472.666 72.0533 474.885 69.92C477.189 67.7013 478.341 65.1413 478.341 62.24C478.341 59.2533 477.189 56.6933 474.885 54.56C472.666 52.3413 470.021 51.232 466.949 51.232C463.962 51.232 461.317 52.3413 459.013 54.56C456.709 56.7787 455.557 59.3387 455.557 62.24Z"/>
<path d="M551.003 109.728C543.238 109.813 536.027 107.893 529.371 103.968C522.8 100.043 517.51 94.6667 513.499 87.84C509.574 80.928 507.526 73.2907 507.355 64.928C507.27 56.9067 509.147 49.4827 512.987 42.656C516.827 35.8293 522.118 30.4107 528.859 26.4C535.6 22.304 542.982 20.256 551.003 20.256C558.854 20.1707 566.107 22.1333 572.763 26.144C579.504 30.1547 584.838 35.6587 588.763 42.656C592.688 49.6533 594.651 57.376 594.651 65.824C594.651 73.76 592.688 81.056 588.763 87.712C584.838 94.368 579.504 99.6587 572.763 103.584C566.107 107.509 558.854 109.557 551.003 109.728ZM551.387 84.768C555.312 84.768 558.64 83.36 561.371 80.544C564.187 77.728 565.552 74.0587 565.467 69.536C565.467 64.928 564.102 61.216 561.371 58.4C558.64 55.584 555.312 54.176 551.387 54.176C547.462 54.176 544.134 55.584 541.403 58.4C538.672 61.216 537.307 64.928 537.307 69.536C537.307 74.0587 538.672 77.728 541.403 80.544C544.134 83.36 547.462 84.768 551.387 84.768Z"/>
<path d="M647.057 65.568C652.092 65.568 656.23 65.824 659.473 66.336C662.801 66.7627 665.489 67.7867 667.537 69.408C669.67 70.944 670.737 73.2907 670.737 76.448C670.737 80.9707 668.988 83.9573 665.489 85.408C662.076 86.8587 657.084 87.584 650.513 87.584L639.889 87.456L631.825 87.584C632.166 90.8267 632.337 93.3867 632.337 95.264C632.337 104.736 628.582 109.472 621.073 109.472C614.844 109.472 609.937 106.016 606.353 99.104C602.854 92.192 601.105 81.3973 601.105 66.72C601.105 57.6747 602.982 49.6107 606.737 42.528C610.577 35.4453 615.782 29.9413 622.353 26.016C628.924 22.0053 636.134 20 643.985 20C653.713 20 661.094 21.664 666.129 24.992C671.249 28.32 673.809 32.9707 673.809 38.944C673.809 43.1253 672.785 46.3253 670.737 48.544C668.774 50.6773 666.001 52.128 662.417 52.896C658.918 53.5787 654.268 53.92 648.465 53.92C643.772 53.92 639.718 54.8587 636.305 56.736C632.977 58.6133 631.142 61.216 630.801 64.544L630.673 65.696C631.697 65.6107 633.233 65.568 635.281 65.568H647.057Z"/>
<path d="M719.202 86.432C723.554 86.944 726.925 88.0533 729.314 89.76C731.789 91.3813 733.026 93.984 733.026 97.568C733.026 101.152 731.746 103.797 729.186 105.504C726.711 107.211 723.725 108.277 720.226 108.704C716.727 109.045 712.205 109.216 706.658 109.216C701.197 109.216 696.717 109.045 693.218 108.704C689.719 108.277 686.733 107.211 684.258 105.504C681.783 103.797 680.546 101.152 680.546 97.568C680.546 94.0693 681.698 91.5093 684.002 89.888C686.391 88.1813 689.634 87.0293 693.73 86.432C693.303 81.4827 693.09 74.4 693.09 65.184C693.09 56.9067 693.261 50.2507 693.602 45.216C688.653 44.704 684.77 43.5093 681.954 41.632C679.138 39.7547 677.73 36.8107 677.73 32.8C677.73 28.8747 679.095 25.9733 681.826 24.096C684.557 22.2187 687.842 21.0667 691.682 20.64C695.522 20.2133 700.471 20 706.53 20C712.589 20 717.538 20.2133 721.378 20.64C725.218 21.0667 728.503 22.2187 731.234 24.096C734.05 25.9733 735.458 28.8747 735.458 32.8C735.458 36.8107 734.007 39.7547 731.106 41.632C728.29 43.5093 724.365 44.704 719.33 45.216C719.757 49.9093 719.97 56.5653 719.97 65.184C719.97 73.4613 719.714 80.544 719.202 86.432Z"/>
<path d="M774.939 109.6C766.32 109.6 759.024 107.851 753.051 104.352C747.078 100.768 743.152 95.4347 741.275 88.352C740.507 85.4507 739.995 81.9093 739.739 77.728C739.483 73.5467 739.355 68.2133 739.355 61.728C739.355 49.0133 740.72 38.9013 743.451 31.392C746.267 23.7973 751.814 20 760.091 20C765.211 20 769.222 21.792 772.123 25.376C775.11 28.96 776.603 33.3973 776.603 38.688C776.603 44.32 776.134 50.336 775.195 56.736C774.256 63.136 772.934 70.9013 771.227 80.032C776.518 78.3253 782.32 77.472 788.635 77.472C795.206 77.472 800.667 78.6667 805.019 81.056C809.456 83.4453 811.675 87.328 811.675 92.704C811.675 97.9093 809.968 101.749 806.555 104.224C803.142 106.699 799.003 108.235 794.139 108.832C789.275 109.344 782.875 109.6 774.939 109.6Z"/>
<path d="M878.102 89.12C882.198 90.4 884.246 93.088 884.246 97.184C884.246 101.024 882.283 104.053 878.358 106.272C874.433 108.491 867.649 109.6 858.006 109.6C845.974 109.6 835.649 106.699 827.03 100.896C818.497 95.0933 814.23 83.5733 814.23 66.336C814.23 57.632 815.723 49.7813 818.71 42.784C821.697 35.7867 826.134 30.24 832.022 26.144C837.995 22.048 845.291 20 853.91 20C865.43 20 873.537 21.792 878.23 25.376C882.923 28.8747 885.27 33.184 885.27 38.304C885.27 40.6933 884.673 42.912 883.478 44.96C882.283 46.9227 880.491 48.4587 878.102 49.568C876.054 50.592 873.409 51.104 870.166 51.104L866.71 50.976C866.027 50.8907 865.046 50.848 863.766 50.848C859.329 50.848 855.83 51.6587 853.27 53.28C850.71 54.816 848.961 57.2053 848.022 60.448C851.606 60.2773 854.849 60.192 857.75 60.192C866.369 60.192 871.958 60.448 874.518 60.96C877.419 61.5573 879.638 62.7093 881.174 64.416C882.795 66.1227 883.606 68.128 883.606 70.432C883.606 72.736 882.838 74.7413 881.302 76.448C879.766 78.0693 877.462 79.1787 874.39 79.776C872.001 80.288 866.198 80.544 856.982 80.544C853.227 80.544 850.582 80.5013 849.046 80.416C851.691 86.048 856.641 88.864 863.894 88.864C864.321 88.864 865.302 88.7787 866.838 88.608C868.886 88.4373 870.635 88.352 872.086 88.352C874.561 88.352 876.566 88.608 878.102 89.12Z"/>
</mask>
<path d="M42.138 109.6C37.9566 109.6 34.5433 107.04 31.898 101.92C29.338 96.8 27.5033 90.6133 26.394 83.36C25.2846 76.1067 24.73 69.1093 24.73 62.368C24.73 51.36 26.4793 41.5893 29.978 33.056C33.562 24.4373 39.5353 20.128 47.898 20.128C51.5673 20.128 54.7673 21.536 57.498 24.352C60.314 27.168 62.746 30.8373 64.794 35.36C66.842 39.7973 69.3166 45.984 72.218 53.92L74.394 59.936C74.2233 56.6933 74.138 54.304 74.138 52.768C74.138 42.784 75.4606 34.848 78.106 28.96C80.8367 23.072 85.146 20.128 91.034 20.128C98.1167 20.128 102.981 24.352 105.626 32.8C108.271 41.1627 109.594 51.0187 109.594 62.368C109.594 69.1093 108.741 76.1067 107.034 83.36C105.413 90.6133 102.639 96.8 98.714 101.92C94.7887 107.04 89.6687 109.6 83.354 109.6C79.514 109.6 76.1433 108.235 73.242 105.504C70.426 102.688 68.0366 99.232 66.074 95.136C64.1966 91.04 61.9353 85.408 59.29 78.24C57.9246 74.4853 56.858 71.6693 56.09 69.792L56.218 80.16C56.218 86.9013 55.8766 92.3627 55.194 96.544C54.5113 100.64 53.146 103.84 51.098 106.144C49.1353 108.448 46.1486 109.6 42.138 109.6Z" fill="white"/>
<path d="M178.602 89.12C182.698 90.4 184.746 93.088 184.746 97.184C184.746 101.024 182.783 104.053 178.858 106.272C174.933 108.491 168.149 109.6 158.506 109.6C146.474 109.6 136.149 106.699 127.53 100.896C118.997 95.0933 114.73 83.5733 114.73 66.336C114.73 57.632 116.223 49.7813 119.21 42.784C122.197 35.7867 126.634 30.24 132.522 26.144C138.495 22.048 145.791 20 154.41 20C165.93 20 174.037 21.792 178.73 25.376C183.423 28.8747 185.77 33.184 185.77 38.304C185.77 40.6933 185.173 42.912 183.978 44.96C182.783 46.9227 180.991 48.4587 178.602 49.568C176.554 50.592 173.909 51.104 170.666 51.104L167.21 50.976C166.527 50.8907 165.546 50.848 164.266 50.848C159.829 50.848 156.33 51.6587 153.77 53.28C151.21 54.816 149.461 57.2053 148.522 60.448C152.106 60.2773 155.349 60.192 158.25 60.192C166.869 60.192 172.458 60.448 175.018 60.96C177.919 61.5573 180.138 62.7093 181.674 64.416C183.295 66.1227 184.106 68.128 184.106 70.432C184.106 72.736 183.338 74.7413 181.802 76.448C180.266 78.0693 177.962 79.1787 174.89 79.776C172.501 80.288 166.698 80.544 157.482 80.544C153.727 80.544 151.082 80.5013 149.546 80.416C152.191 86.048 157.141 88.864 164.394 88.864C164.821 88.864 165.802 88.7787 167.338 88.608C169.386 88.4373 171.135 88.352 172.586 88.352C175.061 88.352 177.066 88.608 178.602 89.12Z" fill="white"/>
<path d="M223.394 109.6C216.567 109.6 210.594 107.723 205.474 103.968C200.439 100.213 196.557 94.88 193.826 87.968C191.095 81.056 189.73 72.9067 189.73 63.52C189.73 58.0587 190.626 52.2133 192.418 45.984C194.295 39.7547 196.941 34.5067 200.354 30.24C203.853 25.888 207.906 23.712 212.514 23.712C216.269 23.712 219.383 25.0773 221.858 27.808C224.333 30.5387 225.57 33.9093 225.57 37.92C225.57 39.1147 225.271 40.736 224.674 42.784C224.162 44.7467 223.565 46.7947 222.882 48.928C221.602 52.5973 220.621 55.84 219.938 58.656C219.255 61.3867 218.914 64.032 218.914 66.592C218.914 70.3467 219.469 73.0773 220.578 74.784C221.687 76.4907 223.053 77.344 224.674 77.344C226.807 77.344 228.301 76.2773 229.154 74.144C230.093 71.9253 230.562 67.872 230.562 61.984L230.434 53.152C230.434 46.3253 231.33 40.9067 233.122 36.896C234.914 32.8 238.498 30.752 243.874 30.752C247.885 30.752 250.914 31.8613 252.962 34.08C255.01 36.2987 256.333 39.1147 256.93 42.528C257.527 45.856 257.826 49.9093 257.826 54.688V61.216C257.826 67.4453 258.338 71.8827 259.362 74.528C260.471 77.088 262.221 78.368 264.61 78.368C266.231 78.368 267.469 77.5573 268.322 75.936C269.261 74.2293 269.73 71.712 269.73 68.384C269.73 65.9093 269.431 63.4347 268.834 60.96C268.237 58.4853 267.298 55.328 266.018 51.488C264.909 47.8187 264.098 45.088 263.586 43.296C263.159 41.4187 262.946 39.6267 262.946 37.92C262.946 33.9093 264.226 30.5813 266.786 27.936C269.431 25.2907 272.503 23.968 276.002 23.968C281.037 23.968 285.261 26.1013 288.674 30.368C292.173 34.5493 294.775 39.712 296.482 45.856C298.189 52 299.042 57.888 299.042 63.52C299.042 72.9067 297.677 81.056 294.946 87.968C292.215 94.88 288.29 100.213 283.17 103.968C278.135 107.637 272.205 109.472 265.378 109.472C261.623 109.472 257.954 108.619 254.37 106.912C250.786 105.205 247.458 102.645 244.386 99.232C241.314 102.645 237.943 105.248 234.274 107.04C230.69 108.747 227.063 109.6 223.394 109.6Z" fill="white"/>
<path d="M361.903 109.728C354.906 109.728 350.127 105.717 347.567 97.696C345.092 89.6747 343.855 79.4347 343.855 66.976C343.855 58.8693 345.306 51.2747 348.207 44.192C351.194 37.024 355.716 31.264 361.775 26.912C367.834 22.4747 375.215 20.256 383.919 20.256C390.916 20.256 397.274 21.7493 402.991 24.736C408.708 27.6373 413.231 31.8187 416.559 37.28C419.972 42.7413 421.679 49.056 421.679 56.224C421.679 64.5013 420.015 71.456 416.687 77.088C413.359 82.72 409.05 86.9013 403.759 89.632C398.468 92.3627 392.879 93.728 386.991 93.728C382.212 93.728 377.818 92.9173 373.807 91.296C374.319 94.0267 374.575 96.1173 374.575 97.568C374.575 105.675 370.351 109.728 361.903 109.728ZM385.199 73.888C388.271 73.888 390.916 72.7787 393.135 70.56C395.439 68.256 396.591 65.6107 396.591 62.624C396.591 59.552 395.439 56.9067 393.135 54.688C390.916 52.384 388.271 51.232 385.199 51.232C382.212 51.232 379.567 52.384 377.263 54.688C374.959 56.9067 373.807 59.552 373.807 62.624C373.807 65.6107 374.959 68.256 377.263 70.56C379.567 72.7787 382.212 73.888 385.199 73.888Z" fill="white"/>
<path d="M503.429 56.224C503.429 62.4533 502.49 67.9573 500.613 72.736C498.821 77.5147 496.261 81.5253 492.933 84.768C495.749 89.12 497.157 93.344 497.157 97.44C497.157 100.939 495.792 103.84 493.061 106.144C490.416 108.448 487.386 109.6 483.973 109.6C482.01 109.6 480.218 109.301 478.597 108.704C476.976 108.107 475.226 107.083 473.349 105.632C471.728 104.352 470.192 102.603 468.741 100.384C467.29 98.1653 466.138 95.8613 465.285 93.472C462.469 93.1307 459.653 92.4053 456.837 91.296C457.349 94.0267 457.605 96.1173 457.605 97.568C457.605 105.675 453.381 109.728 444.933 109.728C437.85 109.728 432.858 105.589 429.957 97.312C427.056 89.0347 425.605 78.9227 425.605 66.976C425.605 58.8693 427.056 51.2747 429.957 44.192C432.944 37.024 437.466 31.264 443.525 26.912C449.584 22.4747 456.965 20.256 465.669 20.256C472.666 20.256 479.024 21.7493 484.741 24.736C490.458 27.6373 494.981 31.8187 498.309 37.28C501.722 42.7413 503.429 49.056 503.429 56.224ZM455.557 62.24C455.557 65.1413 456.709 67.7013 459.013 69.92C461.317 72.0533 463.962 73.12 466.949 73.12C470.021 73.12 472.666 72.0533 474.885 69.92C477.189 67.7013 478.341 65.1413 478.341 62.24C478.341 59.2533 477.189 56.6933 474.885 54.56C472.666 52.3413 470.021 51.232 466.949 51.232C463.962 51.232 461.317 52.3413 459.013 54.56C456.709 56.7787 455.557 59.3387 455.557 62.24Z" fill="white"/>
<path d="M551.003 109.728C543.238 109.813 536.027 107.893 529.371 103.968C522.8 100.043 517.51 94.6667 513.499 87.84C509.574 80.928 507.526 73.2907 507.355 64.928C507.27 56.9067 509.147 49.4827 512.987 42.656C516.827 35.8293 522.118 30.4107 528.859 26.4C535.6 22.304 542.982 20.256 551.003 20.256C558.854 20.1707 566.107 22.1333 572.763 26.144C579.504 30.1547 584.838 35.6587 588.763 42.656C592.688 49.6533 594.651 57.376 594.651 65.824C594.651 73.76 592.688 81.056 588.763 87.712C584.838 94.368 579.504 99.6587 572.763 103.584C566.107 107.509 558.854 109.557 551.003 109.728ZM551.387 84.768C555.312 84.768 558.64 83.36 561.371 80.544C564.187 77.728 565.552 74.0587 565.467 69.536C565.467 64.928 564.102 61.216 561.371 58.4C558.64 55.584 555.312 54.176 551.387 54.176C547.462 54.176 544.134 55.584 541.403 58.4C538.672 61.216 537.307 64.928 537.307 69.536C537.307 74.0587 538.672 77.728 541.403 80.544C544.134 83.36 547.462 84.768 551.387 84.768Z" fill="white"/>
<path d="M647.057 65.568C652.092 65.568 656.23 65.824 659.473 66.336C662.801 66.7627 665.489 67.7867 667.537 69.408C669.67 70.944 670.737 73.2907 670.737 76.448C670.737 80.9707 668.988 83.9573 665.489 85.408C662.076 86.8587 657.084 87.584 650.513 87.584L639.889 87.456L631.825 87.584C632.166 90.8267 632.337 93.3867 632.337 95.264C632.337 104.736 628.582 109.472 621.073 109.472C614.844 109.472 609.937 106.016 606.353 99.104C602.854 92.192 601.105 81.3973 601.105 66.72C601.105 57.6747 602.982 49.6107 606.737 42.528C610.577 35.4453 615.782 29.9413 622.353 26.016C628.924 22.0053 636.134 20 643.985 20C653.713 20 661.094 21.664 666.129 24.992C671.249 28.32 673.809 32.9707 673.809 38.944C673.809 43.1253 672.785 46.3253 670.737 48.544C668.774 50.6773 666.001 52.128 662.417 52.896C658.918 53.5787 654.268 53.92 648.465 53.92C643.772 53.92 639.718 54.8587 636.305 56.736C632.977 58.6133 631.142 61.216 630.801 64.544L630.673 65.696C631.697 65.6107 633.233 65.568 635.281 65.568H647.057Z" fill="white"/>
<path d="M719.202 86.432C723.554 86.944 726.925 88.0533 729.314 89.76C731.789 91.3813 733.026 93.984 733.026 97.568C733.026 101.152 731.746 103.797 729.186 105.504C726.711 107.211 723.725 108.277 720.226 108.704C716.727 109.045 712.205 109.216 706.658 109.216C701.197 109.216 696.717 109.045 693.218 108.704C689.719 108.277 686.733 107.211 684.258 105.504C681.783 103.797 680.546 101.152 680.546 97.568C680.546 94.0693 681.698 91.5093 684.002 89.888C686.391 88.1813 689.634 87.0293 693.73 86.432C693.303 81.4827 693.09 74.4 693.09 65.184C693.09 56.9067 693.261 50.2507 693.602 45.216C688.653 44.704 684.77 43.5093 681.954 41.632C679.138 39.7547 677.73 36.8107 677.73 32.8C677.73 28.8747 679.095 25.9733 681.826 24.096C684.557 22.2187 687.842 21.0667 691.682 20.64C695.522 20.2133 700.471 20 706.53 20C712.589 20 717.538 20.2133 721.378 20.64C725.218 21.0667 728.503 22.2187 731.234 24.096C734.05 25.9733 735.458 28.8747 735.458 32.8C735.458 36.8107 734.007 39.7547 731.106 41.632C728.29 43.5093 724.365 44.704 719.33 45.216C719.757 49.9093 719.97 56.5653 719.97 65.184C719.97 73.4613 719.714 80.544 719.202 86.432Z" fill="white"/>
<path d="M774.939 109.6C766.32 109.6 759.024 107.851 753.051 104.352C747.078 100.768 743.152 95.4347 741.275 88.352C740.507 85.4507 739.995 81.9093 739.739 77.728C739.483 73.5467 739.355 68.2133 739.355 61.728C739.355 49.0133 740.72 38.9013 743.451 31.392C746.267 23.7973 751.814 20 760.091 20C765.211 20 769.222 21.792 772.123 25.376C775.11 28.96 776.603 33.3973 776.603 38.688C776.603 44.32 776.134 50.336 775.195 56.736C774.256 63.136 772.934 70.9013 771.227 80.032C776.518 78.3253 782.32 77.472 788.635 77.472C795.206 77.472 800.667 78.6667 805.019 81.056C809.456 83.4453 811.675 87.328 811.675 92.704C811.675 97.9093 809.968 101.749 806.555 104.224C803.142 106.699 799.003 108.235 794.139 108.832C789.275 109.344 782.875 109.6 774.939 109.6Z" fill="white"/>
<path d="M878.102 89.12C882.198 90.4 884.246 93.088 884.246 97.184C884.246 101.024 882.283 104.053 878.358 106.272C874.433 108.491 867.649 109.6 858.006 109.6C845.974 109.6 835.649 106.699 827.03 100.896C818.497 95.0933 814.23 83.5733 814.23 66.336C814.23 57.632 815.723 49.7813 818.71 42.784C821.697 35.7867 826.134 30.24 832.022 26.144C837.995 22.048 845.291 20 853.91 20C865.43 20 873.537 21.792 878.23 25.376C882.923 28.8747 885.27 33.184 885.27 38.304C885.27 40.6933 884.673 42.912 883.478 44.96C882.283 46.9227 880.491 48.4587 878.102 49.568C876.054 50.592 873.409 51.104 870.166 51.104L866.71 50.976C866.027 50.8907 865.046 50.848 863.766 50.848C859.329 50.848 855.83 51.6587 853.27 53.28C850.71 54.816 848.961 57.2053 848.022 60.448C851.606 60.2773 854.849 60.192 857.75 60.192C866.369 60.192 871.958 60.448 874.518 60.96C877.419 61.5573 879.638 62.7093 881.174 64.416C882.795 66.1227 883.606 68.128 883.606 70.432C883.606 72.736 882.838 74.7413 881.302 76.448C879.766 78.0693 877.462 79.1787 874.39 79.776C872.001 80.288 866.198 80.544 856.982 80.544C853.227 80.544 850.582 80.5013 849.046 80.416C851.691 86.048 856.641 88.864 863.894 88.864C864.321 88.864 865.302 88.7787 866.838 88.608C868.886 88.4373 870.635 88.352 872.086 88.352C874.561 88.352 876.566 88.608 878.102 89.12Z" fill="white"/>
<path d="M42.138 109.6C37.9566 109.6 34.5433 107.04 31.898 101.92C29.338 96.8 27.5033 90.6133 26.394 83.36C25.2846 76.1067 24.73 69.1093 24.73 62.368C24.73 51.36 26.4793 41.5893 29.978 33.056C33.562 24.4373 39.5353 20.128 47.898 20.128C51.5673 20.128 54.7673 21.536 57.498 24.352C60.314 27.168 62.746 30.8373 64.794 35.36C66.842 39.7973 69.3166 45.984 72.218 53.92L74.394 59.936C74.2233 56.6933 74.138 54.304 74.138 52.768C74.138 42.784 75.4606 34.848 78.106 28.96C80.8367 23.072 85.146 20.128 91.034 20.128C98.1167 20.128 102.981 24.352 105.626 32.8C108.271 41.1627 109.594 51.0187 109.594 62.368C109.594 69.1093 108.741 76.1067 107.034 83.36C105.413 90.6133 102.639 96.8 98.714 101.92C94.7887 107.04 89.6687 109.6 83.354 109.6C79.514 109.6 76.1433 108.235 73.242 105.504C70.426 102.688 68.0366 99.232 66.074 95.136C64.1966 91.04 61.9353 85.408 59.29 78.24C57.9246 74.4853 56.858 71.6693 56.09 69.792L56.218 80.16C56.218 86.9013 55.8766 92.3627 55.194 96.544C54.5113 100.64 53.146 103.84 51.098 106.144C49.1353 108.448 46.1486 109.6 42.138 109.6Z" stroke="#FF6161" stroke-width="40" mask="url(#path-1-outside-1_719_82)"/>
<path d="M178.602 89.12C182.698 90.4 184.746 93.088 184.746 97.184C184.746 101.024 182.783 104.053 178.858 106.272C174.933 108.491 168.149 109.6 158.506 109.6C146.474 109.6 136.149 106.699 127.53 100.896C118.997 95.0933 114.73 83.5733 114.73 66.336C114.73 57.632 116.223 49.7813 119.21 42.784C122.197 35.7867 126.634 30.24 132.522 26.144C138.495 22.048 145.791 20 154.41 20C165.93 20 174.037 21.792 178.73 25.376C183.423 28.8747 185.77 33.184 185.77 38.304C185.77 40.6933 185.173 42.912 183.978 44.96C182.783 46.9227 180.991 48.4587 178.602 49.568C176.554 50.592 173.909 51.104 170.666 51.104L167.21 50.976C166.527 50.8907 165.546 50.848 164.266 50.848C159.829 50.848 156.33 51.6587 153.77 53.28C151.21 54.816 149.461 57.2053 148.522 60.448C152.106 60.2773 155.349 60.192 158.25 60.192C166.869 60.192 172.458 60.448 175.018 60.96C177.919 61.5573 180.138 62.7093 181.674 64.416C183.295 66.1227 184.106 68.128 184.106 70.432C184.106 72.736 183.338 74.7413 181.802 76.448C180.266 78.0693 177.962 79.1787 174.89 79.776C172.501 80.288 166.698 80.544 157.482 80.544C153.727 80.544 151.082 80.5013 149.546 80.416C152.191 86.048 157.141 88.864 164.394 88.864C164.821 88.864 165.802 88.7787 167.338 88.608C169.386 88.4373 171.135 88.352 172.586 88.352C175.061 88.352 177.066 88.608 178.602 89.12Z" stroke="#FF6161" stroke-width="40" mask="url(#path-1-outside-1_719_82)"/>
<path d="M223.394 109.6C216.567 109.6 210.594 107.723 205.474 103.968C200.439 100.213 196.557 94.88 193.826 87.968C191.095 81.056 189.73 72.9067 189.73 63.52C189.73 58.0587 190.626 52.2133 192.418 45.984C194.295 39.7547 196.941 34.5067 200.354 30.24C203.853 25.888 207.906 23.712 212.514 23.712C216.269 23.712 219.383 25.0773 221.858 27.808C224.333 30.5387 225.57 33.9093 225.57 37.92C225.57 39.1147 225.271 40.736 224.674 42.784C224.162 44.7467 223.565 46.7947 222.882 48.928C221.602 52.5973 220.621 55.84 219.938 58.656C219.255 61.3867 218.914 64.032 218.914 66.592C218.914 70.3467 219.469 73.0773 220.578 74.784C221.687 76.4907 223.053 77.344 224.674 77.344C226.807 77.344 228.301 76.2773 229.154 74.144C230.093 71.9253 230.562 67.872 230.562 61.984L230.434 53.152C230.434 46.3253 231.33 40.9067 233.122 36.896C234.914 32.8 238.498 30.752 243.874 30.752C247.885 30.752 250.914 31.8613 252.962 34.08C255.01 36.2987 256.333 39.1147 256.93 42.528C257.527 45.856 257.826 49.9093 257.826 54.688V61.216C257.826 67.4453 258.338 71.8827 259.362 74.528C260.471 77.088 262.221 78.368 264.61 78.368C266.231 78.368 267.469 77.5573 268.322 75.936C269.261 74.2293 269.73 71.712 269.73 68.384C269.73 65.9093 269.431 63.4347 268.834 60.96C268.237 58.4853 267.298 55.328 266.018 51.488C264.909 47.8187 264.098 45.088 263.586 43.296C263.159 41.4187 262.946 39.6267 262.946 37.92C262.946 33.9093 264.226 30.5813 266.786 27.936C269.431 25.2907 272.503 23.968 276.002 23.968C281.037 23.968 285.261 26.1013 288.674 30.368C292.173 34.5493 294.775 39.712 296.482 45.856C298.189 52 299.042 57.888 299.042 63.52C299.042 72.9067 297.677 81.056 294.946 87.968C292.215 94.88 288.29 100.213 283.17 103.968C278.135 107.637 272.205 109.472 265.378 109.472C261.623 109.472 257.954 108.619 254.37 106.912C250.786 105.205 247.458 102.645 244.386 99.232C241.314 102.645 237.943 105.248 234.274 107.04C230.69 108.747 227.063 109.6 223.394 109.6Z" stroke="#FF6161" stroke-width="40" mask="url(#path-1-outside-1_719_82)"/>
<path d="M361.903 109.728C354.906 109.728 350.127 105.717 347.567 97.696C345.092 89.6747 343.855 79.4347 343.855 66.976C343.855 58.8693 345.306 51.2747 348.207 44.192C351.194 37.024 355.716 31.264 361.775 26.912C367.834 22.4747 375.215 20.256 383.919 20.256C390.916 20.256 397.274 21.7493 402.991 24.736C408.708 27.6373 413.231 31.8187 416.559 37.28C419.972 42.7413 421.679 49.056 421.679 56.224C421.679 64.5013 420.015 71.456 416.687 77.088C413.359 82.72 409.05 86.9013 403.759 89.632C398.468 92.3627 392.879 93.728 386.991 93.728C382.212 93.728 377.818 92.9173 373.807 91.296C374.319 94.0267 374.575 96.1173 374.575 97.568C374.575 105.675 370.351 109.728 361.903 109.728ZM385.199 73.888C388.271 73.888 390.916 72.7787 393.135 70.56C395.439 68.256 396.591 65.6107 396.591 62.624C396.591 59.552 395.439 56.9067 393.135 54.688C390.916 52.384 388.271 51.232 385.199 51.232C382.212 51.232 379.567 52.384 377.263 54.688C374.959 56.9067 373.807 59.552 373.807 62.624C373.807 65.6107 374.959 68.256 377.263 70.56C379.567 72.7787 382.212 73.888 385.199 73.888Z" stroke="#FF6161" stroke-width="40" mask="url(#path-1-outside-1_719_82)"/>
<path d="M503.429 56.224C503.429 62.4533 502.49 67.9573 500.613 72.736C498.821 77.5147 496.261 81.5253 492.933 84.768C495.749 89.12 497.157 93.344 497.157 97.44C497.157 100.939 495.792 103.84 493.061 106.144C490.416 108.448 487.386 109.6 483.973 109.6C482.01 109.6 480.218 109.301 478.597 108.704C476.976 108.107 475.226 107.083 473.349 105.632C471.728 104.352 470.192 102.603 468.741 100.384C467.29 98.1653 466.138 95.8613 465.285 93.472C462.469 93.1307 459.653 92.4053 456.837 91.296C457.349 94.0267 457.605 96.1173 457.605 97.568C457.605 105.675 453.381 109.728 444.933 109.728C437.85 109.728 432.858 105.589 429.957 97.312C427.056 89.0347 425.605 78.9227 425.605 66.976C425.605 58.8693 427.056 51.2747 429.957 44.192C432.944 37.024 437.466 31.264 443.525 26.912C449.584 22.4747 456.965 20.256 465.669 20.256C472.666 20.256 479.024 21.7493 484.741 24.736C490.458 27.6373 494.981 31.8187 498.309 37.28C501.722 42.7413 503.429 49.056 503.429 56.224ZM455.557 62.24C455.557 65.1413 456.709 67.7013 459.013 69.92C461.317 72.0533 463.962 73.12 466.949 73.12C470.021 73.12 472.666 72.0533 474.885 69.92C477.189 67.7013 478.341 65.1413 478.341 62.24C478.341 59.2533 477.189 56.6933 474.885 54.56C472.666 52.3413 470.021 51.232 466.949 51.232C463.962 51.232 461.317 52.3413 459.013 54.56C456.709 56.7787 455.557 59.3387 455.557 62.24Z" stroke="#FF6161" stroke-width="40" mask="url(#path-1-outside-1_719_82)"/>
<path d="M551.003 109.728C543.238 109.813 536.027 107.893 529.371 103.968C522.8 100.043 517.51 94.6667 513.499 87.84C509.574 80.928 507.526 73.2907 507.355 64.928C507.27 56.9067 509.147 49.4827 512.987 42.656C516.827 35.8293 522.118 30.4107 528.859 26.4C535.6 22.304 542.982 20.256 551.003 20.256C558.854 20.1707 566.107 22.1333 572.763 26.144C579.504 30.1547 584.838 35.6587 588.763 42.656C592.688 49.6533 594.651 57.376 594.651 65.824C594.651 73.76 592.688 81.056 588.763 87.712C584.838 94.368 579.504 99.6587 572.763 103.584C566.107 107.509 558.854 109.557 551.003 109.728ZM551.387 84.768C555.312 84.768 558.64 83.36 561.371 80.544C564.187 77.728 565.552 74.0587 565.467 69.536C565.467 64.928 564.102 61.216 561.371 58.4C558.64 55.584 555.312 54.176 551.387 54.176C547.462 54.176 544.134 55.584 541.403 58.4C538.672 61.216 537.307 64.928 537.307 69.536C537.307 74.0587 538.672 77.728 541.403 80.544C544.134 83.36 547.462 84.768 551.387 84.768Z" stroke="#FF6161" stroke-width="40" mask="url(#path-1-outside-1_719_82)"/>
<path d="M647.057 65.568C652.092 65.568 656.23 65.824 659.473 66.336C662.801 66.7627 665.489 67.7867 667.537 69.408C669.67 70.944 670.737 73.2907 670.737 76.448C670.737 80.9707 668.988 83.9573 665.489 85.408C662.076 86.8587 657.084 87.584 650.513 87.584L639.889 87.456L631.825 87.584C632.166 90.8267 632.337 93.3867 632.337 95.264C632.337 104.736 628.582 109.472 621.073 109.472C614.844 109.472 609.937 106.016 606.353 99.104C602.854 92.192 601.105 81.3973 601.105 66.72C601.105 57.6747 602.982 49.6107 606.737 42.528C610.577 35.4453 615.782 29.9413 622.353 26.016C628.924 22.0053 636.134 20 643.985 20C653.713 20 661.094 21.664 666.129 24.992C671.249 28.32 673.809 32.9707 673.809 38.944C673.809 43.1253 672.785 46.3253 670.737 48.544C668.774 50.6773 666.001 52.128 662.417 52.896C658.918 53.5787 654.268 53.92 648.465 53.92C643.772 53.92 639.718 54.8587 636.305 56.736C632.977 58.6133 631.142 61.216 630.801 64.544L630.673 65.696C631.697 65.6107 633.233 65.568 635.281 65.568H647.057Z" stroke="#FF6161" stroke-width="40" mask="url(#path-1-outside-1_719_82)"/>
<path d="M719.202 86.432C723.554 86.944 726.925 88.0533 729.314 89.76C731.789 91.3813 733.026 93.984 733.026 97.568C733.026 101.152 731.746 103.797 729.186 105.504C726.711 107.211 723.725 108.277 720.226 108.704C716.727 109.045 712.205 109.216 706.658 109.216C701.197 109.216 696.717 109.045 693.218 108.704C689.719 108.277 686.733 107.211 684.258 105.504C681.783 103.797 680.546 101.152 680.546 97.568C680.546 94.0693 681.698 91.5093 684.002 89.888C686.391 88.1813 689.634 87.0293 693.73 86.432C693.303 81.4827 693.09 74.4 693.09 65.184C693.09 56.9067 693.261 50.2507 693.602 45.216C688.653 44.704 684.77 43.5093 681.954 41.632C679.138 39.7547 677.73 36.8107 677.73 32.8C677.73 28.8747 679.095 25.9733 681.826 24.096C684.557 22.2187 687.842 21.0667 691.682 20.64C695.522 20.2133 700.471 20 706.53 20C712.589 20 717.538 20.2133 721.378 20.64C725.218 21.0667 728.503 22.2187 731.234 24.096C734.05 25.9733 735.458 28.8747 735.458 32.8C735.458 36.8107 734.007 39.7547 731.106 41.632C728.29 43.5093 724.365 44.704 719.33 45.216C719.757 49.9093 719.97 56.5653 719.97 65.184C719.97 73.4613 719.714 80.544 719.202 86.432Z" stroke="#FF6161" stroke-width="40" mask="url(#path-1-outside-1_719_82)"/>
<path d="M774.939 109.6C766.32 109.6 759.024 107.851 753.051 104.352C747.078 100.768 743.152 95.4347 741.275 88.352C740.507 85.4507 739.995 81.9093 739.739 77.728C739.483 73.5467 739.355 68.2133 739.355 61.728C739.355 49.0133 740.72 38.9013 743.451 31.392C746.267 23.7973 751.814 20 760.091 20C765.211 20 769.222 21.792 772.123 25.376C775.11 28.96 776.603 33.3973 776.603 38.688C776.603 44.32 776.134 50.336 775.195 56.736C774.256 63.136 772.934 70.9013 771.227 80.032C776.518 78.3253 782.32 77.472 788.635 77.472C795.206 77.472 800.667 78.6667 805.019 81.056C809.456 83.4453 811.675 87.328 811.675 92.704C811.675 97.9093 809.968 101.749 806.555 104.224C803.142 106.699 799.003 108.235 794.139 108.832C789.275 109.344 782.875 109.6 774.939 109.6Z" stroke="#FF6161" stroke-width="40" mask="url(#path-1-outside-1_719_82)"/>
<path d="M878.102 89.12C882.198 90.4 884.246 93.088 884.246 97.184C884.246 101.024 882.283 104.053 878.358 106.272C874.433 108.491 867.649 109.6 858.006 109.6C845.974 109.6 835.649 106.699 827.03 100.896C818.497 95.0933 814.23 83.5733 814.23 66.336C814.23 57.632 815.723 49.7813 818.71 42.784C821.697 35.7867 826.134 30.24 832.022 26.144C837.995 22.048 845.291 20 853.91 20C865.43 20 873.537 21.792 878.23 25.376C882.923 28.8747 885.27 33.184 885.27 38.304C885.27 40.6933 884.673 42.912 883.478 44.96C882.283 46.9227 880.491 48.4587 878.102 49.568C876.054 50.592 873.409 51.104 870.166 51.104L866.71 50.976C866.027 50.8907 865.046 50.848 863.766 50.848C859.329 50.848 855.83 51.6587 853.27 53.28C850.71 54.816 848.961 57.2053 848.022 60.448C851.606 60.2773 854.849 60.192 857.75 60.192C866.369 60.192 871.958 60.448 874.518 60.96C877.419 61.5573 879.638 62.7093 881.174 64.416C882.795 66.1227 883.606 68.128 883.606 70.432C883.606 72.736 882.838 74.7413 881.302 76.448C879.766 78.0693 877.462 79.1787 874.39 79.776C872.001 80.288 866.198 80.544 856.982 80.544C853.227 80.544 850.582 80.5013 849.046 80.416C851.691 86.048 856.641 88.864 863.894 88.864C864.321 88.864 865.302 88.7787 866.838 88.608C868.886 88.4373 870.635 88.352 872.086 88.352C874.561 88.352 876.566 88.608 878.102 89.12Z" stroke="#FF6161" stroke-width="40" mask="url(#path-1-outside-1_719_82)"/>
</g>
<defs>
<filter id="filter0_d_719_82" x="0.72998" y="0" width="908.54" height="137.731" filterUnits="userSpaceOnUse" color-interpolation-filters="sRGB">
<feFlood flood-opacity="0" result="BackgroundImageFix"/>
<feColorMatrix in="SourceAlpha" type="matrix" values="0 0 0 0 0 0 0 0 0 0 0 0 0 0 0 0 0 0 127 0" result="hardAlpha"/>
<feOffset dy="4"/>
<feGaussianBlur stdDeviation="2"/>
<feComposite in2="hardAlpha" operator="out"/>
<feColorMatrix type="matrix" values="0 0 0 0 0 0 0 0 0 0 0 0 0 0 0 0 0 0 0.25 0"/>
<feBlend mode="normal" in2="BackgroundImageFix" result="effect1_dropShadow_719_82"/>
<feBlend mode="normal" in="SourceGraphic" in2="effect1_dropShadow_719_82" result="shape"/>
</filter>
</defs>
</svg>
