<svg width="448" height="118" viewBox="0 0 448 118" fill="none" xmlns="http://www.w3.org/2000/svg">
<g filter="url(#filter0_d_705_55)">
<mask id="path-1-outside-1_705_55" maskUnits="userSpaceOnUse" x="4" y="0.0559998" width="440" height="110" fill="black">
<rect fill="white" x="4" y="0.0559998" width="440" height="110"/>
<path d="M37.056 89.944C33.92 89.944 31.36 88.024 29.376 84.184C27.456 80.344 26.08 75.704 25.248 70.264C24.416 64.824 24 59.576 24 54.52C24 46.264 25.312 38.936 27.936 32.536C30.624 26.072 35.104 22.84 41.376 22.84C44.128 22.84 46.528 23.896 48.576 26.008C50.688 28.12 52.512 30.872 54.048 34.264C55.584 37.592 57.44 42.232 59.616 48.184L61.248 52.696C61.12 50.264 61.056 48.472 61.056 47.32C61.056 39.832 62.048 33.88 64.032 29.464C66.08 25.048 69.312 22.84 73.728 22.84C79.04 22.84 82.688 26.008 84.672 32.344C86.656 38.616 87.648 46.008 87.648 54.52C87.648 59.576 87.008 64.824 85.728 70.264C84.512 75.704 82.432 80.344 79.488 84.184C76.544 88.024 72.704 89.944 67.968 89.944C65.088 89.944 62.56 88.92 60.384 86.872C58.272 84.76 56.48 82.168 55.008 79.096C53.6 76.024 51.904 71.8 49.92 66.424C48.896 63.608 48.096 61.496 47.52 60.088L47.616 67.864C47.616 72.92 47.36 77.016 46.848 80.152C46.336 83.224 45.312 85.624 43.776 87.352C42.304 89.08 40.064 89.944 37.056 89.944Z"/>
<path d="M103.67 43.384C100.534 43.384 97.8775 42.264 95.7015 40.024C93.5255 37.72 92.4375 34.936 92.4375 31.672C92.4375 28.472 93.5255 25.752 95.7015 23.512C97.8775 21.208 100.534 20.056 103.67 20.056C106.742 20.056 109.366 21.208 111.542 23.512C113.782 25.752 114.901 28.472 114.901 31.672C114.901 34.936 113.782 37.72 111.542 40.024C109.366 42.264 106.742 43.384 103.67 43.384ZM103.67 89.944C101.046 89.944 99.0935 89.208 97.8135 87.736C96.5975 86.2 95.7655 83.928 95.3175 80.92C94.9335 77.848 94.7415 73.496 94.7415 67.864C94.7415 63.128 94.9655 59.384 95.4135 56.632C95.9255 53.88 96.8215 51.832 98.1015 50.488C99.3815 49.144 101.238 48.472 103.67 48.472C106.294 48.472 108.214 49.24 109.43 50.776C110.71 52.248 111.541 54.52 111.925 57.592C112.373 60.6 112.598 64.92 112.598 70.552C112.598 75.288 112.341 79.032 111.829 81.784C111.381 84.536 110.518 86.584 109.238 87.928C107.958 89.272 106.102 89.944 103.67 89.944Z"/>
<path d="M141.364 89.848C137.268 89.848 133.396 88.856 129.748 86.872C126.164 84.824 123.284 82.072 121.108 78.616C118.932 75.16 117.844 71.288 117.844 67C117.844 62.52 118.9 58.616 121.012 55.288C123.188 51.896 126.036 49.304 129.556 47.512C133.14 45.72 136.98 44.824 141.076 44.824C144.98 44.824 148.5 45.592 151.636 47.128C154.772 48.664 157.204 50.68 158.932 53.176C160.66 55.608 161.524 58.168 161.524 60.856C161.524 63.096 160.82 64.824 159.412 66.04C158.068 67.256 156.052 67.864 153.364 67.864C151.956 67.864 150.868 67.608 150.1 67.096C149.332 66.584 148.532 65.816 147.7 64.792C146.932 63.832 146.196 63.128 145.492 62.68C144.852 62.168 143.924 61.912 142.708 61.912C140.98 61.912 139.508 62.52 138.292 63.736C137.076 64.888 136.468 66.392 136.468 68.248C136.468 70.168 137.044 71.704 138.196 72.856C139.412 74.008 140.916 74.584 142.708 74.584C143.86 74.584 144.756 74.424 145.396 74.104C146.036 73.784 146.74 73.272 147.508 72.568C148.404 71.8 149.236 71.256 150.004 70.936C150.772 70.552 151.892 70.36 153.364 70.36C155.988 70.36 158.004 71.064 159.412 72.472C160.82 73.88 161.524 75.512 161.524 77.368C161.524 79.544 160.66 81.592 158.932 83.512C157.268 85.432 154.9 86.968 151.828 88.12C148.756 89.272 145.268 89.848 141.364 89.848Z"/>
<path d="M203.295 66.136C204.255 67.352 205.791 69.624 207.903 72.952C210.399 76.92 211.647 80.28 211.647 83.032C211.647 85.272 210.911 86.968 209.439 88.12C207.967 89.208 206.239 89.752 204.255 89.752C202.399 89.752 200.511 88.984 198.591 87.448C196.735 85.912 194.783 83.832 192.735 81.208C190.559 78.328 189.119 76.28 188.415 75.064C187.583 75.384 186.655 75.704 185.631 76.024C185.183 80.824 184.287 84.312 182.943 86.488C181.599 88.664 179.551 89.752 176.799 89.752C173.983 89.752 171.743 88.6 170.079 86.296C168.415 83.992 167.199 80.408 166.431 75.544C165.727 70.68 165.375 64.248 165.375 56.248C165.375 48.632 165.599 42.52 166.047 37.912C166.559 33.24 167.647 29.56 169.311 26.872C170.975 24.12 173.471 22.744 176.799 22.744C179.551 22.744 181.599 23.704 182.943 25.624C184.351 27.544 185.247 30.2 185.631 33.592C186.079 36.92 186.303 41.4 186.303 47.032V53.08L186.591 52.888C190.303 50.392 193.567 48.44 196.383 47.032C199.263 45.624 201.855 44.92 204.159 44.92C206.783 44.92 208.831 45.816 210.303 47.608C211.839 49.336 212.607 51.288 212.607 53.464C212.607 55.768 211.839 57.88 210.303 59.8C208.767 61.72 206.431 63.832 203.295 66.136Z"/>
<path d="M253.451 89.944C251.147 89.944 249.419 89.304 248.267 88.024C247.179 86.744 246.507 85.176 246.251 83.32C245.995 81.464 245.867 79.064 245.867 76.12C245.867 72.344 245.355 69.432 244.331 67.384C243.307 65.336 241.643 64.312 239.339 64.312C237.227 64.312 235.627 65.336 234.539 67.384C233.515 69.368 233.003 72.12 233.003 75.64C233.003 79.032 232.907 81.592 232.715 83.32C232.523 85.048 231.883 86.584 230.795 87.928C229.707 89.208 227.915 89.848 225.419 89.848C221.771 89.848 219.211 87.512 217.739 82.84C216.267 78.104 215.531 72.568 215.531 66.232C215.531 50.872 218.763 43.192 225.227 43.192C227.019 43.192 228.491 43.64 229.643 44.536C230.795 45.368 231.595 46.584 232.043 48.184C232.875 47.288 234.155 46.488 235.883 45.784C237.675 45.08 239.563 44.728 241.547 44.728C248.587 44.728 253.835 47.288 257.291 52.408C260.811 57.528 262.571 64.472 262.571 73.24C262.571 78.424 261.899 82.52 260.555 85.528C259.211 88.472 256.843 89.944 253.451 89.944Z"/>
<path d="M282.78 89.944C277.788 89.944 273.692 88.824 270.492 86.584C267.292 84.28 265.692 80.984 265.692 76.696C265.692 72.984 267.324 70.04 270.588 67.864C273.852 65.688 277.916 64.6 282.78 64.6C284.572 64.6 286.236 64.76 287.772 65.08C289.372 65.336 290.46 65.656 291.036 66.04C291.036 64.44 290.364 63.128 289.02 62.104C287.676 61.016 285.628 60.472 282.876 60.472C281.66 60.472 280.668 60.568 279.9 60.76C279.132 60.952 278.3 61.24 277.404 61.624C276.508 62.008 275.676 62.296 274.908 62.488C274.204 62.68 273.244 62.776 272.028 62.776C269.98 62.776 268.38 62.264 267.228 61.24C266.076 60.152 265.5 58.52 265.5 56.344C265.5 53.848 266.396 51.736 268.188 50.008C270.044 48.28 272.348 47 275.1 46.168C277.852 45.272 280.604 44.824 283.356 44.824C288.796 44.824 293.34 45.848 296.988 47.896C300.7 49.88 303.42 52.536 305.148 55.864C306.94 59.192 307.836 62.872 307.836 66.904C307.836 69.08 307.644 71.096 307.26 72.952C306.94 74.808 306.492 76.248 305.916 77.272C306.812 78.04 307.484 78.936 307.932 79.96C308.444 80.984 308.7 82.04 308.7 83.128C308.7 84.984 308.06 86.584 306.78 87.928C305.564 89.272 303.932 89.944 301.884 89.944C300.348 89.944 299.1 89.72 298.14 89.272C297.18 88.824 296.156 88.12 295.068 87.16C293.468 88.12 291.708 88.824 289.788 89.272C287.932 89.72 285.596 89.944 282.78 89.944ZM284.7 80.248C286.044 80.248 287.1 79.96 287.868 79.384C288.7 78.808 289.116 78.104 289.116 77.272C289.116 76.44 288.7 75.736 287.868 75.16C287.1 74.584 286.044 74.296 284.7 74.296C283.356 74.296 282.268 74.584 281.436 75.16C280.668 75.736 280.284 76.44 280.284 77.272C280.284 78.104 280.668 78.808 281.436 79.384C282.268 79.96 283.356 80.248 284.7 80.248Z"/>
<path d="M344.914 89.944C341.97 89.944 339.955 88.952 338.867 86.968C337.779 84.984 337.234 81.944 337.234 77.848C337.234 74.84 337.202 72.696 337.138 71.416C337.074 70.072 336.819 68.952 336.371 68.056C335.987 67.16 335.283 66.712 334.259 66.712C333.043 66.712 332.146 67.128 331.57 67.96C330.994 68.728 330.642 69.752 330.514 71.032C330.45 72.248 330.418 74.104 330.418 76.6C330.418 79.672 330.291 82.104 330.035 83.896C329.779 85.624 329.106 87.064 328.018 88.216C326.93 89.304 325.235 89.848 322.931 89.848C316.019 89.848 312.562 81.08 312.562 63.544C312.562 57.592 313.075 52.984 314.099 49.72C315.187 46.392 317.203 44.312 320.147 43.48C321.235 43.16 322.226 43 323.122 43C324.466 43 325.683 43.288 326.771 43.864C327.859 44.44 328.626 45.24 329.074 46.264C329.97 45.752 330.867 45.368 331.763 45.112C332.659 44.856 333.939 44.728 335.603 44.728C337.651 44.728 339.57 45.24 341.362 46.264C343.218 47.224 344.53 48.6 345.298 50.392C346.962 48.472 348.626 47.064 350.29 46.168C352.018 45.208 354.226 44.728 356.914 44.728C360.882 44.728 364.339 45.912 367.283 48.28C370.291 50.584 372.595 53.784 374.195 57.88C375.859 61.912 376.69 66.392 376.69 71.32C376.69 76.824 375.955 81.304 374.483 84.76C373.011 88.216 370.45 89.944 366.802 89.944C364.37 89.944 362.61 89.336 361.522 88.12C360.498 86.904 359.859 85.4 359.603 83.608C359.411 81.752 359.315 79.064 359.315 75.544C359.315 72.472 359.09 70.232 358.642 68.824C358.194 67.416 357.139 66.712 355.475 66.712C354.259 66.712 353.491 67.384 353.171 68.728C352.851 70.008 352.69 72.152 352.69 75.16C352.626 75.736 352.595 76.632 352.595 77.848C352.467 81.944 351.859 84.984 350.771 86.968C349.683 88.952 347.73 89.944 344.914 89.944Z"/>
<path d="M403.69 89.944C398.954 89.944 394.762 89.016 391.114 87.16C387.466 85.304 384.618 82.712 382.57 79.384C380.586 75.992 379.594 72.184 379.594 67.96C379.594 63.8 380.586 59.96 382.57 56.44C384.618 52.92 387.434 50.104 391.018 47.992C394.602 45.88 398.666 44.824 403.21 44.824C407.306 44.824 410.922 45.656 414.058 47.32C417.194 48.984 419.594 51.192 421.258 53.944C422.922 56.632 423.754 59.448 423.754 62.392C423.754 67.192 421.93 70.712 418.282 72.952C414.698 75.128 410.41 76.216 405.418 76.216C402.09 76.216 399.274 75.8 396.97 74.968C398.89 78.104 402.058 79.672 406.474 79.672C408.266 79.672 410.186 79.448 412.234 79C413.002 78.808 413.738 78.712 414.442 78.712C415.85 78.712 416.97 79.064 417.802 79.768C418.698 80.472 419.146 81.432 419.146 82.648C419.146 84.632 417.93 86.36 415.498 87.832C413.066 89.24 409.13 89.944 403.69 89.944ZM397.258 63.256C397.834 64.152 398.602 64.824 399.562 65.272C400.586 65.656 401.706 65.848 402.922 65.848C404.33 65.848 405.546 65.528 406.57 64.888C407.658 64.248 408.202 63.416 408.202 62.392C408.202 61.24 407.722 60.248 406.762 59.416C405.866 58.584 404.554 58.168 402.826 58.168C401.098 58.168 399.722 58.712 398.698 59.8C397.738 60.824 397.258 61.976 397.258 63.256Z"/>
</mask>
<path d="M37.056 89.944C33.92 89.944 31.36 88.024 29.376 84.184C27.456 80.344 26.08 75.704 25.248 70.264C24.416 64.824 24 59.576 24 54.52C24 46.264 25.312 38.936 27.936 32.536C30.624 26.072 35.104 22.84 41.376 22.84C44.128 22.84 46.528 23.896 48.576 26.008C50.688 28.12 52.512 30.872 54.048 34.264C55.584 37.592 57.44 42.232 59.616 48.184L61.248 52.696C61.12 50.264 61.056 48.472 61.056 47.32C61.056 39.832 62.048 33.88 64.032 29.464C66.08 25.048 69.312 22.84 73.728 22.84C79.04 22.84 82.688 26.008 84.672 32.344C86.656 38.616 87.648 46.008 87.648 54.52C87.648 59.576 87.008 64.824 85.728 70.264C84.512 75.704 82.432 80.344 79.488 84.184C76.544 88.024 72.704 89.944 67.968 89.944C65.088 89.944 62.56 88.92 60.384 86.872C58.272 84.76 56.48 82.168 55.008 79.096C53.6 76.024 51.904 71.8 49.92 66.424C48.896 63.608 48.096 61.496 47.52 60.088L47.616 67.864C47.616 72.92 47.36 77.016 46.848 80.152C46.336 83.224 45.312 85.624 43.776 87.352C42.304 89.08 40.064 89.944 37.056 89.944Z" fill="white"/>
<path d="M103.67 43.384C100.534 43.384 97.8775 42.264 95.7015 40.024C93.5255 37.72 92.4375 34.936 92.4375 31.672C92.4375 28.472 93.5255 25.752 95.7015 23.512C97.8775 21.208 100.534 20.056 103.67 20.056C106.742 20.056 109.366 21.208 111.542 23.512C113.782 25.752 114.901 28.472 114.901 31.672C114.901 34.936 113.782 37.72 111.542 40.024C109.366 42.264 106.742 43.384 103.67 43.384ZM103.67 89.944C101.046 89.944 99.0935 89.208 97.8135 87.736C96.5975 86.2 95.7655 83.928 95.3175 80.92C94.9335 77.848 94.7415 73.496 94.7415 67.864C94.7415 63.128 94.9655 59.384 95.4135 56.632C95.9255 53.88 96.8215 51.832 98.1015 50.488C99.3815 49.144 101.238 48.472 103.67 48.472C106.294 48.472 108.214 49.24 109.43 50.776C110.71 52.248 111.541 54.52 111.925 57.592C112.373 60.6 112.598 64.92 112.598 70.552C112.598 75.288 112.341 79.032 111.829 81.784C111.381 84.536 110.518 86.584 109.238 87.928C107.958 89.272 106.102 89.944 103.67 89.944Z" fill="white"/>
<path d="M141.364 89.848C137.268 89.848 133.396 88.856 129.748 86.872C126.164 84.824 123.284 82.072 121.108 78.616C118.932 75.16 117.844 71.288 117.844 67C117.844 62.52 118.9 58.616 121.012 55.288C123.188 51.896 126.036 49.304 129.556 47.512C133.14 45.72 136.98 44.824 141.076 44.824C144.98 44.824 148.5 45.592 151.636 47.128C154.772 48.664 157.204 50.68 158.932 53.176C160.66 55.608 161.524 58.168 161.524 60.856C161.524 63.096 160.82 64.824 159.412 66.04C158.068 67.256 156.052 67.864 153.364 67.864C151.956 67.864 150.868 67.608 150.1 67.096C149.332 66.584 148.532 65.816 147.7 64.792C146.932 63.832 146.196 63.128 145.492 62.68C144.852 62.168 143.924 61.912 142.708 61.912C140.98 61.912 139.508 62.52 138.292 63.736C137.076 64.888 136.468 66.392 136.468 68.248C136.468 70.168 137.044 71.704 138.196 72.856C139.412 74.008 140.916 74.584 142.708 74.584C143.86 74.584 144.756 74.424 145.396 74.104C146.036 73.784 146.74 73.272 147.508 72.568C148.404 71.8 149.236 71.256 150.004 70.936C150.772 70.552 151.892 70.36 153.364 70.36C155.988 70.36 158.004 71.064 159.412 72.472C160.82 73.88 161.524 75.512 161.524 77.368C161.524 79.544 160.66 81.592 158.932 83.512C157.268 85.432 154.9 86.968 151.828 88.12C148.756 89.272 145.268 89.848 141.364 89.848Z" fill="white"/>
<path d="M203.295 66.136C204.255 67.352 205.791 69.624 207.903 72.952C210.399 76.92 211.647 80.28 211.647 83.032C211.647 85.272 210.911 86.968 209.439 88.12C207.967 89.208 206.239 89.752 204.255 89.752C202.399 89.752 200.511 88.984 198.591 87.448C196.735 85.912 194.783 83.832 192.735 81.208C190.559 78.328 189.119 76.28 188.415 75.064C187.583 75.384 186.655 75.704 185.631 76.024C185.183 80.824 184.287 84.312 182.943 86.488C181.599 88.664 179.551 89.752 176.799 89.752C173.983 89.752 171.743 88.6 170.079 86.296C168.415 83.992 167.199 80.408 166.431 75.544C165.727 70.68 165.375 64.248 165.375 56.248C165.375 48.632 165.599 42.52 166.047 37.912C166.559 33.24 167.647 29.56 169.311 26.872C170.975 24.12 173.471 22.744 176.799 22.744C179.551 22.744 181.599 23.704 182.943 25.624C184.351 27.544 185.247 30.2 185.631 33.592C186.079 36.92 186.303 41.4 186.303 47.032V53.08L186.591 52.888C190.303 50.392 193.567 48.44 196.383 47.032C199.263 45.624 201.855 44.92 204.159 44.92C206.783 44.92 208.831 45.816 210.303 47.608C211.839 49.336 212.607 51.288 212.607 53.464C212.607 55.768 211.839 57.88 210.303 59.8C208.767 61.72 206.431 63.832 203.295 66.136Z" fill="white"/>
<path d="M253.451 89.944C251.147 89.944 249.419 89.304 248.267 88.024C247.179 86.744 246.507 85.176 246.251 83.32C245.995 81.464 245.867 79.064 245.867 76.12C245.867 72.344 245.355 69.432 244.331 67.384C243.307 65.336 241.643 64.312 239.339 64.312C237.227 64.312 235.627 65.336 234.539 67.384C233.515 69.368 233.003 72.12 233.003 75.64C233.003 79.032 232.907 81.592 232.715 83.32C232.523 85.048 231.883 86.584 230.795 87.928C229.707 89.208 227.915 89.848 225.419 89.848C221.771 89.848 219.211 87.512 217.739 82.84C216.267 78.104 215.531 72.568 215.531 66.232C215.531 50.872 218.763 43.192 225.227 43.192C227.019 43.192 228.491 43.64 229.643 44.536C230.795 45.368 231.595 46.584 232.043 48.184C232.875 47.288 234.155 46.488 235.883 45.784C237.675 45.08 239.563 44.728 241.547 44.728C248.587 44.728 253.835 47.288 257.291 52.408C260.811 57.528 262.571 64.472 262.571 73.24C262.571 78.424 261.899 82.52 260.555 85.528C259.211 88.472 256.843 89.944 253.451 89.944Z" fill="white"/>
<path d="M282.78 89.944C277.788 89.944 273.692 88.824 270.492 86.584C267.292 84.28 265.692 80.984 265.692 76.696C265.692 72.984 267.324 70.04 270.588 67.864C273.852 65.688 277.916 64.6 282.78 64.6C284.572 64.6 286.236 64.76 287.772 65.08C289.372 65.336 290.46 65.656 291.036 66.04C291.036 64.44 290.364 63.128 289.02 62.104C287.676 61.016 285.628 60.472 282.876 60.472C281.66 60.472 280.668 60.568 279.9 60.76C279.132 60.952 278.3 61.24 277.404 61.624C276.508 62.008 275.676 62.296 274.908 62.488C274.204 62.68 273.244 62.776 272.028 62.776C269.98 62.776 268.38 62.264 267.228 61.24C266.076 60.152 265.5 58.52 265.5 56.344C265.5 53.848 266.396 51.736 268.188 50.008C270.044 48.28 272.348 47 275.1 46.168C277.852 45.272 280.604 44.824 283.356 44.824C288.796 44.824 293.34 45.848 296.988 47.896C300.7 49.88 303.42 52.536 305.148 55.864C306.94 59.192 307.836 62.872 307.836 66.904C307.836 69.08 307.644 71.096 307.26 72.952C306.94 74.808 306.492 76.248 305.916 77.272C306.812 78.04 307.484 78.936 307.932 79.96C308.444 80.984 308.7 82.04 308.7 83.128C308.7 84.984 308.06 86.584 306.78 87.928C305.564 89.272 303.932 89.944 301.884 89.944C300.348 89.944 299.1 89.72 298.14 89.272C297.18 88.824 296.156 88.12 295.068 87.16C293.468 88.12 291.708 88.824 289.788 89.272C287.932 89.72 285.596 89.944 282.78 89.944ZM284.7 80.248C286.044 80.248 287.1 79.96 287.868 79.384C288.7 78.808 289.116 78.104 289.116 77.272C289.116 76.44 288.7 75.736 287.868 75.16C287.1 74.584 286.044 74.296 284.7 74.296C283.356 74.296 282.268 74.584 281.436 75.16C280.668 75.736 280.284 76.44 280.284 77.272C280.284 78.104 280.668 78.808 281.436 79.384C282.268 79.96 283.356 80.248 284.7 80.248Z" fill="white"/>
<path d="M344.914 89.944C341.97 89.944 339.955 88.952 338.867 86.968C337.779 84.984 337.234 81.944 337.234 77.848C337.234 74.84 337.202 72.696 337.138 71.416C337.074 70.072 336.819 68.952 336.371 68.056C335.987 67.16 335.283 66.712 334.259 66.712C333.043 66.712 332.146 67.128 331.57 67.96C330.994 68.728 330.642 69.752 330.514 71.032C330.45 72.248 330.418 74.104 330.418 76.6C330.418 79.672 330.291 82.104 330.035 83.896C329.779 85.624 329.106 87.064 328.018 88.216C326.93 89.304 325.235 89.848 322.931 89.848C316.019 89.848 312.562 81.08 312.562 63.544C312.562 57.592 313.075 52.984 314.099 49.72C315.187 46.392 317.203 44.312 320.147 43.48C321.235 43.16 322.226 43 323.122 43C324.466 43 325.683 43.288 326.771 43.864C327.859 44.44 328.626 45.24 329.074 46.264C329.97 45.752 330.867 45.368 331.763 45.112C332.659 44.856 333.939 44.728 335.603 44.728C337.651 44.728 339.57 45.24 341.362 46.264C343.218 47.224 344.53 48.6 345.298 50.392C346.962 48.472 348.626 47.064 350.29 46.168C352.018 45.208 354.226 44.728 356.914 44.728C360.882 44.728 364.339 45.912 367.283 48.28C370.291 50.584 372.595 53.784 374.195 57.88C375.859 61.912 376.69 66.392 376.69 71.32C376.69 76.824 375.955 81.304 374.483 84.76C373.011 88.216 370.45 89.944 366.802 89.944C364.37 89.944 362.61 89.336 361.522 88.12C360.498 86.904 359.859 85.4 359.603 83.608C359.411 81.752 359.315 79.064 359.315 75.544C359.315 72.472 359.09 70.232 358.642 68.824C358.194 67.416 357.139 66.712 355.475 66.712C354.259 66.712 353.491 67.384 353.171 68.728C352.851 70.008 352.69 72.152 352.69 75.16C352.626 75.736 352.595 76.632 352.595 77.848C352.467 81.944 351.859 84.984 350.771 86.968C349.683 88.952 347.73 89.944 344.914 89.944Z" fill="white"/>
<path d="M403.69 89.944C398.954 89.944 394.762 89.016 391.114 87.16C387.466 85.304 384.618 82.712 382.57 79.384C380.586 75.992 379.594 72.184 379.594 67.96C379.594 63.8 380.586 59.96 382.57 56.44C384.618 52.92 387.434 50.104 391.018 47.992C394.602 45.88 398.666 44.824 403.21 44.824C407.306 44.824 410.922 45.656 414.058 47.32C417.194 48.984 419.594 51.192 421.258 53.944C422.922 56.632 423.754 59.448 423.754 62.392C423.754 67.192 421.93 70.712 418.282 72.952C414.698 75.128 410.41 76.216 405.418 76.216C402.09 76.216 399.274 75.8 396.97 74.968C398.89 78.104 402.058 79.672 406.474 79.672C408.266 79.672 410.186 79.448 412.234 79C413.002 78.808 413.738 78.712 414.442 78.712C415.85 78.712 416.97 79.064 417.802 79.768C418.698 80.472 419.146 81.432 419.146 82.648C419.146 84.632 417.93 86.36 415.498 87.832C413.066 89.24 409.13 89.944 403.69 89.944ZM397.258 63.256C397.834 64.152 398.602 64.824 399.562 65.272C400.586 65.656 401.706 65.848 402.922 65.848C404.33 65.848 405.546 65.528 406.57 64.888C407.658 64.248 408.202 63.416 408.202 62.392C408.202 61.24 407.722 60.248 406.762 59.416C405.866 58.584 404.554 58.168 402.826 58.168C401.098 58.168 399.722 58.712 398.698 59.8C397.738 60.824 397.258 61.976 397.258 63.256Z" fill="white"/>
<path d="M37.056 89.944C33.92 89.944 31.36 88.024 29.376 84.184C27.456 80.344 26.08 75.704 25.248 70.264C24.416 64.824 24 59.576 24 54.52C24 46.264 25.312 38.936 27.936 32.536C30.624 26.072 35.104 22.84 41.376 22.84C44.128 22.84 46.528 23.896 48.576 26.008C50.688 28.12 52.512 30.872 54.048 34.264C55.584 37.592 57.44 42.232 59.616 48.184L61.248 52.696C61.12 50.264 61.056 48.472 61.056 47.32C61.056 39.832 62.048 33.88 64.032 29.464C66.08 25.048 69.312 22.84 73.728 22.84C79.04 22.84 82.688 26.008 84.672 32.344C86.656 38.616 87.648 46.008 87.648 54.52C87.648 59.576 87.008 64.824 85.728 70.264C84.512 75.704 82.432 80.344 79.488 84.184C76.544 88.024 72.704 89.944 67.968 89.944C65.088 89.944 62.56 88.92 60.384 86.872C58.272 84.76 56.48 82.168 55.008 79.096C53.6 76.024 51.904 71.8 49.92 66.424C48.896 63.608 48.096 61.496 47.52 60.088L47.616 67.864C47.616 72.92 47.36 77.016 46.848 80.152C46.336 83.224 45.312 85.624 43.776 87.352C42.304 89.08 40.064 89.944 37.056 89.944Z" stroke="#FF6161" stroke-width="40" mask="url(#path-1-outside-1_705_55)"/>
<path d="M103.67 43.384C100.534 43.384 97.8775 42.264 95.7015 40.024C93.5255 37.72 92.4375 34.936 92.4375 31.672C92.4375 28.472 93.5255 25.752 95.7015 23.512C97.8775 21.208 100.534 20.056 103.67 20.056C106.742 20.056 109.366 21.208 111.542 23.512C113.782 25.752 114.901 28.472 114.901 31.672C114.901 34.936 113.782 37.72 111.542 40.024C109.366 42.264 106.742 43.384 103.67 43.384ZM103.67 89.944C101.046 89.944 99.0935 89.208 97.8135 87.736C96.5975 86.2 95.7655 83.928 95.3175 80.92C94.9335 77.848 94.7415 73.496 94.7415 67.864C94.7415 63.128 94.9655 59.384 95.4135 56.632C95.9255 53.88 96.8215 51.832 98.1015 50.488C99.3815 49.144 101.238 48.472 103.67 48.472C106.294 48.472 108.214 49.24 109.43 50.776C110.71 52.248 111.541 54.52 111.925 57.592C112.373 60.6 112.598 64.92 112.598 70.552C112.598 75.288 112.341 79.032 111.829 81.784C111.381 84.536 110.518 86.584 109.238 87.928C107.958 89.272 106.102 89.944 103.67 89.944Z" stroke="#FF6161" stroke-width="40" mask="url(#path-1-outside-1_705_55)"/>
<path d="M141.364 89.848C137.268 89.848 133.396 88.856 129.748 86.872C126.164 84.824 123.284 82.072 121.108 78.616C118.932 75.16 117.844 71.288 117.844 67C117.844 62.52 118.9 58.616 121.012 55.288C123.188 51.896 126.036 49.304 129.556 47.512C133.14 45.72 136.98 44.824 141.076 44.824C144.98 44.824 148.5 45.592 151.636 47.128C154.772 48.664 157.204 50.68 158.932 53.176C160.66 55.608 161.524 58.168 161.524 60.856C161.524 63.096 160.82 64.824 159.412 66.04C158.068 67.256 156.052 67.864 153.364 67.864C151.956 67.864 150.868 67.608 150.1 67.096C149.332 66.584 148.532 65.816 147.7 64.792C146.932 63.832 146.196 63.128 145.492 62.68C144.852 62.168 143.924 61.912 142.708 61.912C140.98 61.912 139.508 62.52 138.292 63.736C137.076 64.888 136.468 66.392 136.468 68.248C136.468 70.168 137.044 71.704 138.196 72.856C139.412 74.008 140.916 74.584 142.708 74.584C143.86 74.584 144.756 74.424 145.396 74.104C146.036 73.784 146.74 73.272 147.508 72.568C148.404 71.8 149.236 71.256 150.004 70.936C150.772 70.552 151.892 70.36 153.364 70.36C155.988 70.36 158.004 71.064 159.412 72.472C160.82 73.88 161.524 75.512 161.524 77.368C161.524 79.544 160.66 81.592 158.932 83.512C157.268 85.432 154.9 86.968 151.828 88.12C148.756 89.272 145.268 89.848 141.364 89.848Z" stroke="#FF6161" stroke-width="40" mask="url(#path-1-outside-1_705_55)"/>
<path d="M203.295 66.136C204.255 67.352 205.791 69.624 207.903 72.952C210.399 76.92 211.647 80.28 211.647 83.032C211.647 85.272 210.911 86.968 209.439 88.12C207.967 89.208 206.239 89.752 204.255 89.752C202.399 89.752 200.511 88.984 198.591 87.448C196.735 85.912 194.783 83.832 192.735 81.208C190.559 78.328 189.119 76.28 188.415 75.064C187.583 75.384 186.655 75.704 185.631 76.024C185.183 80.824 184.287 84.312 182.943 86.488C181.599 88.664 179.551 89.752 176.799 89.752C173.983 89.752 171.743 88.6 170.079 86.296C168.415 83.992 167.199 80.408 166.431 75.544C165.727 70.68 165.375 64.248 165.375 56.248C165.375 48.632 165.599 42.52 166.047 37.912C166.559 33.24 167.647 29.56 169.311 26.872C170.975 24.12 173.471 22.744 176.799 22.744C179.551 22.744 181.599 23.704 182.943 25.624C184.351 27.544 185.247 30.2 185.631 33.592C186.079 36.92 186.303 41.4 186.303 47.032V53.08L186.591 52.888C190.303 50.392 193.567 48.44 196.383 47.032C199.263 45.624 201.855 44.92 204.159 44.92C206.783 44.92 208.831 45.816 210.303 47.608C211.839 49.336 212.607 51.288 212.607 53.464C212.607 55.768 211.839 57.88 210.303 59.8C208.767 61.72 206.431 63.832 203.295 66.136Z" stroke="#FF6161" stroke-width="40" mask="url(#path-1-outside-1_705_55)"/>
<path d="M253.451 89.944C251.147 89.944 249.419 89.304 248.267 88.024C247.179 86.744 246.507 85.176 246.251 83.32C245.995 81.464 245.867 79.064 245.867 76.12C245.867 72.344 245.355 69.432 244.331 67.384C243.307 65.336 241.643 64.312 239.339 64.312C237.227 64.312 235.627 65.336 234.539 67.384C233.515 69.368 233.003 72.12 233.003 75.64C233.003 79.032 232.907 81.592 232.715 83.32C232.523 85.048 231.883 86.584 230.795 87.928C229.707 89.208 227.915 89.848 225.419 89.848C221.771 89.848 219.211 87.512 217.739 82.84C216.267 78.104 215.531 72.568 215.531 66.232C215.531 50.872 218.763 43.192 225.227 43.192C227.019 43.192 228.491 43.64 229.643 44.536C230.795 45.368 231.595 46.584 232.043 48.184C232.875 47.288 234.155 46.488 235.883 45.784C237.675 45.08 239.563 44.728 241.547 44.728C248.587 44.728 253.835 47.288 257.291 52.408C260.811 57.528 262.571 64.472 262.571 73.24C262.571 78.424 261.899 82.52 260.555 85.528C259.211 88.472 256.843 89.944 253.451 89.944Z" stroke="#FF6161" stroke-width="40" mask="url(#path-1-outside-1_705_55)"/>
<path d="M282.78 89.944C277.788 89.944 273.692 88.824 270.492 86.584C267.292 84.28 265.692 80.984 265.692 76.696C265.692 72.984 267.324 70.04 270.588 67.864C273.852 65.688 277.916 64.6 282.78 64.6C284.572 64.6 286.236 64.76 287.772 65.08C289.372 65.336 290.46 65.656 291.036 66.04C291.036 64.44 290.364 63.128 289.02 62.104C287.676 61.016 285.628 60.472 282.876 60.472C281.66 60.472 280.668 60.568 279.9 60.76C279.132 60.952 278.3 61.24 277.404 61.624C276.508 62.008 275.676 62.296 274.908 62.488C274.204 62.68 273.244 62.776 272.028 62.776C269.98 62.776 268.38 62.264 267.228 61.24C266.076 60.152 265.5 58.52 265.5 56.344C265.5 53.848 266.396 51.736 268.188 50.008C270.044 48.28 272.348 47 275.1 46.168C277.852 45.272 280.604 44.824 283.356 44.824C288.796 44.824 293.34 45.848 296.988 47.896C300.7 49.88 303.42 52.536 305.148 55.864C306.94 59.192 307.836 62.872 307.836 66.904C307.836 69.08 307.644 71.096 307.26 72.952C306.94 74.808 306.492 76.248 305.916 77.272C306.812 78.04 307.484 78.936 307.932 79.96C308.444 80.984 308.7 82.04 308.7 83.128C308.7 84.984 308.06 86.584 306.78 87.928C305.564 89.272 303.932 89.944 301.884 89.944C300.348 89.944 299.1 89.72 298.14 89.272C297.18 88.824 296.156 88.12 295.068 87.16C293.468 88.12 291.708 88.824 289.788 89.272C287.932 89.72 285.596 89.944 282.78 89.944ZM284.7 80.248C286.044 80.248 287.1 79.96 287.868 79.384C288.7 78.808 289.116 78.104 289.116 77.272C289.116 76.44 288.7 75.736 287.868 75.16C287.1 74.584 286.044 74.296 284.7 74.296C283.356 74.296 282.268 74.584 281.436 75.16C280.668 75.736 280.284 76.44 280.284 77.272C280.284 78.104 280.668 78.808 281.436 79.384C282.268 79.96 283.356 80.248 284.7 80.248Z" stroke="#FF6161" stroke-width="40" mask="url(#path-1-outside-1_705_55)"/>
<path d="M344.914 89.944C341.97 89.944 339.955 88.952 338.867 86.968C337.779 84.984 337.234 81.944 337.234 77.848C337.234 74.84 337.202 72.696 337.138 71.416C337.074 70.072 336.819 68.952 336.371 68.056C335.987 67.16 335.283 66.712 334.259 66.712C333.043 66.712 332.146 67.128 331.57 67.96C330.994 68.728 330.642 69.752 330.514 71.032C330.45 72.248 330.418 74.104 330.418 76.6C330.418 79.672 330.291 82.104 330.035 83.896C329.779 85.624 329.106 87.064 328.018 88.216C326.93 89.304 325.235 89.848 322.931 89.848C316.019 89.848 312.562 81.08 312.562 63.544C312.562 57.592 313.075 52.984 314.099 49.72C315.187 46.392 317.203 44.312 320.147 43.48C321.235 43.16 322.226 43 323.122 43C324.466 43 325.683 43.288 326.771 43.864C327.859 44.44 328.626 45.24 329.074 46.264C329.97 45.752 330.867 45.368 331.763 45.112C332.659 44.856 333.939 44.728 335.603 44.728C337.651 44.728 339.57 45.24 341.362 46.264C343.218 47.224 344.53 48.6 345.298 50.392C346.962 48.472 348.626 47.064 350.29 46.168C352.018 45.208 354.226 44.728 356.914 44.728C360.882 44.728 364.339 45.912 367.283 48.28C370.291 50.584 372.595 53.784 374.195 57.88C375.859 61.912 376.69 66.392 376.69 71.32C376.69 76.824 375.955 81.304 374.483 84.76C373.011 88.216 370.45 89.944 366.802 89.944C364.37 89.944 362.61 89.336 361.522 88.12C360.498 86.904 359.859 85.4 359.603 83.608C359.411 81.752 359.315 79.064 359.315 75.544C359.315 72.472 359.09 70.232 358.642 68.824C358.194 67.416 357.139 66.712 355.475 66.712C354.259 66.712 353.491 67.384 353.171 68.728C352.851 70.008 352.69 72.152 352.69 75.16C352.626 75.736 352.595 76.632 352.595 77.848C352.467 81.944 351.859 84.984 350.771 86.968C349.683 88.952 347.73 89.944 344.914 89.944Z" stroke="#FF6161" stroke-width="40" mask="url(#path-1-outside-1_705_55)"/>
<path d="M403.69 89.944C398.954 89.944 394.762 89.016 391.114 87.16C387.466 85.304 384.618 82.712 382.57 79.384C380.586 75.992 379.594 72.184 379.594 67.96C379.594 63.8 380.586 59.96 382.57 56.44C384.618 52.92 387.434 50.104 391.018 47.992C394.602 45.88 398.666 44.824 403.21 44.824C407.306 44.824 410.922 45.656 414.058 47.32C417.194 48.984 419.594 51.192 421.258 53.944C422.922 56.632 423.754 59.448 423.754 62.392C423.754 67.192 421.93 70.712 418.282 72.952C414.698 75.128 410.41 76.216 405.418 76.216C402.09 76.216 399.274 75.8 396.97 74.968C398.89 78.104 402.058 79.672 406.474 79.672C408.266 79.672 410.186 79.448 412.234 79C413.002 78.808 413.738 78.712 414.442 78.712C415.85 78.712 416.97 79.064 417.802 79.768C418.698 80.472 419.146 81.432 419.146 82.648C419.146 84.632 417.93 86.36 415.498 87.832C413.066 89.24 409.13 89.944 403.69 89.944ZM397.258 63.256C397.834 64.152 398.602 64.824 399.562 65.272C400.586 65.656 401.706 65.848 402.922 65.848C404.33 65.848 405.546 65.528 406.57 64.888C407.658 64.248 408.202 63.416 408.202 62.392C408.202 61.24 407.722 60.248 406.762 59.416C405.866 58.584 404.554 58.168 402.826 58.168C401.098 58.168 399.722 58.712 398.698 59.8C397.738 60.824 397.258 61.976 397.258 63.256Z" stroke="#FF6161" stroke-width="40" mask="url(#path-1-outside-1_705_55)"/>
</g>
<defs>
<filter id="filter0_d_705_55" x="0" y="0.0559998" width="447.754" height="117.888" filterUnits="userSpaceOnUse" color-interpolation-filters="sRGB">
<feFlood flood-opacity="0" result="BackgroundImageFix"/>
<feColorMatrix in="SourceAlpha" type="matrix" values="0 0 0 0 0 0 0 0 0 0 0 0 0 0 0 0 0 0 127 0" result="hardAlpha"/>
<feOffset dy="4"/>
<feGaussianBlur stdDeviation="2"/>
<feComposite in2="hardAlpha" operator="out"/>
<feColorMatrix type="matrix" values="0 0 0 0 0 0 0 0 0 0 0 0 0 0 0 0 0 0 0.25 0"/>
<feBlend mode="normal" in2="BackgroundImageFix" result="effect1_dropShadow_705_55"/>
<feBlend mode="normal" in="SourceGraphic" in2="effect1_dropShadow_705_55" result="shape"/>
</filter>
</defs>
</svg>
