<svg width="454" height="166" viewBox="0 0 454 166" fill="none" xmlns="http://www.w3.org/2000/svg">
<g filter="url(#filter0_d_705_57)">
<mask id="path-1-outside-1_705_57" maskUnits="userSpaceOnUse" x="4" y="0.35199" width="446" height="158" fill="black">
<rect fill="white" x="4" y="0.35199" width="446" height="158"/>
<path d="M37.536 87.744C32.288 87.744 28.704 84.736 26.784 78.72C24.928 72.704 24 65.024 24 55.68C24 49.6 25.088 43.904 27.264 38.592C29.504 33.216 32.896 28.896 37.44 25.632C41.984 22.304 47.52 20.64 54.048 20.64C59.296 20.64 64.064 21.76 68.352 24C72.64 26.176 76.032 29.312 78.528 33.408C81.088 37.504 82.368 42.24 82.368 47.616C82.368 53.824 81.12 59.04 78.624 63.264C76.128 67.488 72.896 70.624 68.928 72.672C64.96 74.72 60.768 75.744 56.352 75.744C52.768 75.744 49.472 75.136 46.464 73.92C46.848 75.968 47.04 77.536 47.04 78.624C47.04 84.704 43.872 87.744 37.536 87.744ZM55.008 60.864C57.312 60.864 59.296 60.032 60.96 58.368C62.688 56.64 63.552 54.656 63.552 52.416C63.552 50.112 62.688 48.128 60.96 46.464C59.296 44.736 57.312 43.872 55.008 43.872C52.768 43.872 50.784 44.736 49.056 46.464C47.328 48.128 46.464 50.112 46.464 52.416C46.464 54.656 47.328 56.64 49.056 58.368C50.784 60.032 52.768 60.864 55.008 60.864Z"/>
<path d="M102.592 87.648C97.6005 87.648 93.5045 86.528 90.3045 84.288C87.1045 81.984 85.5045 78.688 85.5045 74.4C85.5045 70.688 87.1365 67.744 90.4005 65.568C93.6645 63.392 97.7285 62.304 102.592 62.304C104.384 62.304 106.049 62.464 107.585 62.784C109.185 63.04 110.273 63.36 110.849 63.744C110.849 62.144 110.177 60.832 108.833 59.808C107.489 58.72 105.44 58.176 102.688 58.176C101.472 58.176 100.481 58.272 99.7125 58.464C98.9445 58.656 98.1125 58.944 97.2165 59.328C96.3205 59.712 95.4885 60 94.7205 60.192C94.0165 60.384 93.0565 60.48 91.8405 60.48C89.7925 60.48 88.1925 59.968 87.0405 58.944C85.8885 57.856 85.3125 56.224 85.3125 54.048C85.3125 51.552 86.2085 49.44 88.0005 47.712C89.8565 45.984 92.1605 44.704 94.9125 43.872C97.6645 42.976 100.417 42.528 103.169 42.528C108.609 42.528 113.152 43.552 116.8 45.6C120.512 47.584 123.233 50.24 124.961 53.568C126.753 56.896 127.648 60.576 127.648 64.608C127.648 66.784 127.457 68.8 127.073 70.656C126.753 72.512 126.305 73.952 125.729 74.976C126.625 75.744 127.296 76.64 127.744 77.664C128.257 78.688 128.513 79.744 128.513 80.832C128.513 82.688 127.872 84.288 126.592 85.632C125.376 86.976 123.745 87.648 121.697 87.648C120.161 87.648 118.913 87.424 117.952 86.976C116.993 86.528 115.969 85.824 114.881 84.864C113.281 85.824 111.521 86.528 109.601 86.976C107.745 87.424 105.408 87.648 102.592 87.648ZM104.513 77.952C105.857 77.952 106.913 77.664 107.681 77.088C108.513 76.512 108.929 75.808 108.929 74.976C108.929 74.144 108.513 73.44 107.681 72.864C106.913 72.288 105.857 72 104.513 72C103.169 72 102.081 72.288 101.249 72.864C100.481 73.44 100.097 74.144 100.097 74.976C100.097 75.808 100.481 76.512 101.249 77.088C102.081 77.664 103.169 77.952 104.513 77.952Z"/>
<path d="M149.869 87.648C144.237 87.648 139.758 86.72 136.43 84.864C133.102 83.008 131.438 80.608 131.438 77.664C131.438 75.744 132.077 74.272 133.357 73.248C134.701 72.16 136.398 71.616 138.446 71.616C139.598 71.616 140.525 71.776 141.229 72.096C141.934 72.416 142.637 72.864 143.341 73.44C143.853 73.888 144.27 74.208 144.59 74.4C144.974 74.592 145.422 74.688 145.934 74.688C147.278 74.688 147.95 74.208 147.95 73.248C147.95 72.352 147.598 71.68 146.894 71.232C146.19 70.72 144.973 70.112 143.245 69.408C141.645 68.768 140.589 68.32 140.077 68.064C137.133 66.656 134.957 64.992 133.549 63.072C132.141 61.152 131.438 59.104 131.438 56.928C131.438 54.496 132.302 52.192 134.03 50.016C135.822 47.776 138.318 45.984 141.518 44.64C144.782 43.232 148.525 42.528 152.749 42.528C156.397 42.528 159.693 43.04 162.637 44.064C165.645 45.088 168.014 46.496 169.742 48.288C171.47 50.016 172.333 51.936 172.333 54.048C172.333 56.032 171.693 57.536 170.413 58.56C169.197 59.584 167.533 60.096 165.421 60.096C164.589 60.096 163.918 60.032 163.406 59.904C162.958 59.712 162.349 59.424 161.581 59.04C161.133 58.784 160.653 58.56 160.141 58.368C159.693 58.176 159.181 58.08 158.605 58.08C158.093 58.08 157.646 58.272 157.262 58.656C156.878 58.976 156.686 59.392 156.686 59.904C156.686 60.864 157.39 61.568 158.798 62.016C162.51 63.232 165.486 64.768 167.726 66.624C170.03 68.48 171.182 71.04 171.182 74.304C171.182 78.464 169.229 81.728 165.326 84.096C161.486 86.464 156.333 87.648 149.869 87.648Z"/>
<path d="M193.651 87.648C188.019 87.648 183.539 86.72 180.211 84.864C176.883 83.008 175.219 80.608 175.219 77.664C175.219 75.744 175.859 74.272 177.139 73.248C178.483 72.16 180.179 71.616 182.227 71.616C183.379 71.616 184.307 71.776 185.011 72.096C185.715 72.416 186.419 72.864 187.123 73.44C187.635 73.888 188.051 74.208 188.371 74.4C188.755 74.592 189.203 74.688 189.715 74.688C191.059 74.688 191.731 74.208 191.731 73.248C191.731 72.352 191.379 71.68 190.675 71.232C189.971 70.72 188.755 70.112 187.027 69.408C185.427 68.768 184.371 68.32 183.859 68.064C180.915 66.656 178.739 64.992 177.331 63.072C175.923 61.152 175.219 59.104 175.219 56.928C175.219 54.496 176.083 52.192 177.811 50.016C179.603 47.776 182.099 45.984 185.299 44.64C188.563 43.232 192.307 42.528 196.531 42.528C200.179 42.528 203.475 43.04 206.419 44.064C209.427 45.088 211.795 46.496 213.523 48.288C215.251 50.016 216.115 51.936 216.115 54.048C216.115 56.032 215.475 57.536 214.195 58.56C212.979 59.584 211.315 60.096 209.203 60.096C208.371 60.096 207.699 60.032 207.187 59.904C206.739 59.712 206.131 59.424 205.363 59.04C204.915 58.784 204.435 58.56 203.923 58.368C203.475 58.176 202.963 58.08 202.387 58.08C201.875 58.08 201.427 58.272 201.043 58.656C200.659 58.976 200.467 59.392 200.467 59.904C200.467 60.864 201.171 61.568 202.579 62.016C206.291 63.232 209.267 64.768 211.507 66.624C213.811 68.48 214.963 71.04 214.963 74.304C214.963 78.464 213.011 81.728 209.107 84.096C205.267 86.464 200.115 87.648 193.651 87.648Z"/>
<path d="M237.432 87.744C233.72 87.744 230.456 86.784 227.64 84.864C224.888 82.88 222.744 80.096 221.208 76.512C219.736 72.928 219 68.8 219 64.128C219 60.736 219.384 57.376 220.152 54.048C220.92 50.72 222.136 47.968 223.8 45.792C225.528 43.552 227.672 42.432 230.232 42.432C232.6 42.432 234.424 43.2 235.704 44.736C236.984 46.272 237.624 48.352 237.624 50.976C237.624 52.384 237.272 54.432 236.568 57.12C236.504 57.504 236.312 58.464 235.992 60C235.672 61.472 235.512 62.784 235.512 63.936C235.512 66.176 235.736 67.776 236.184 68.736C236.632 69.632 237.56 70.08 238.968 70.08C240.44 70.08 241.432 69.28 241.944 67.68C242.456 66.016 242.712 63.616 242.712 60.48L242.616 53.28C242.616 51.04 243.192 49.152 244.344 47.616C245.56 46.08 247.384 45.312 249.816 45.312C252.248 45.312 254.104 46.112 255.384 47.712C256.664 49.248 257.304 51.104 257.304 53.28L257.208 57.792C257.144 58.752 257.112 60.128 257.112 61.92C257.112 64.608 257.368 66.656 257.88 68.064C258.456 69.408 259.512 70.08 261.048 70.08C264.056 70.08 265.56 68.032 265.56 63.936C265.56 62.656 265.048 60.416 264.024 57.216C263.96 56.896 263.704 56 263.256 54.528C262.808 53.056 262.584 51.808 262.584 50.784C262.584 48.032 263.128 45.984 264.216 44.64C265.368 43.232 267.128 42.528 269.496 42.528C272.056 42.528 274.168 43.648 275.832 45.888C277.56 48.064 278.808 50.816 279.576 54.144C280.344 57.408 280.728 60.704 280.728 64.032C280.728 71.136 279.064 76.832 275.736 81.12C272.408 85.344 267.928 87.456 262.296 87.456C259.736 87.456 257.368 86.976 255.192 86.016C253.016 85.056 251.224 83.744 249.816 82.08C248.344 83.808 246.52 85.184 244.344 86.208C242.232 87.232 239.928 87.744 237.432 87.744Z"/>
<path d="M307.688 87.744C303.08 87.808 298.951 86.848 295.303 84.864C291.719 82.88 288.903 80.16 286.855 76.704C284.871 73.184 283.816 69.28 283.688 64.992C283.623 60.704 284.616 56.864 286.664 53.472C288.712 50.08 291.559 47.392 295.207 45.408C298.919 43.424 303.08 42.432 307.688 42.432C312.168 42.432 316.2 43.392 319.784 45.312C323.432 47.232 326.311 49.92 328.423 53.376C330.535 56.832 331.656 60.704 331.784 64.992C331.848 69.152 330.855 72.96 328.807 76.416C326.759 79.808 323.88 82.528 320.168 84.576C316.52 86.624 312.36 87.68 307.688 87.744ZM307.975 73.728C309.703 73.728 311.207 73.056 312.487 71.712C313.767 70.368 314.408 68.8 314.408 67.008C314.408 65.216 313.767 63.68 312.487 62.4C311.207 61.056 309.703 60.384 307.975 60.384C306.247 60.384 304.744 61.056 303.464 62.4C302.184 63.68 301.543 65.216 301.543 67.008C301.543 68.8 302.184 70.368 303.464 71.712C304.744 73.056 306.247 73.728 307.975 73.728Z"/>
<path d="M345.897 87.648C341.801 87.648 339.049 85.248 337.641 80.448C336.297 75.648 335.625 69.024 335.625 60.576C335.625 56.736 335.785 53.536 336.105 50.976C336.489 48.352 337.353 46.144 338.697 44.352C340.105 42.496 342.249 41.568 345.129 41.568C346.921 41.568 348.489 41.984 349.833 42.816C351.241 43.648 352.137 44.832 352.521 46.368C353.929 45.088 355.753 44.128 357.993 43.488C360.233 42.848 362.633 42.528 365.193 42.528C367.241 42.528 369.321 43.04 371.433 44.064C373.609 45.088 375.401 46.496 376.809 48.288C378.281 50.016 379.017 51.904 379.017 53.952C379.017 56 378.281 57.824 376.809 59.424C375.401 60.96 373.513 61.728 371.145 61.728C370.377 61.728 369.641 61.632 368.937 61.44C368.297 61.248 367.721 61.056 367.209 60.864C365.929 60.352 364.905 60.096 364.137 60.096C361.641 60.096 359.433 61.088 357.513 63.072C355.657 64.992 354.729 67.488 354.729 70.56C354.729 73.952 354.601 76.768 354.345 79.008C354.089 81.248 353.321 83.264 352.041 85.056C350.761 86.784 348.713 87.648 345.897 87.648Z"/>
<path d="M401.879 87.648C397.335 87.648 393.303 86.56 389.783 84.384C386.327 82.144 383.671 79.264 381.815 75.744C379.959 72.16 379.031 68.352 379.031 64.32C379.031 59.584 379.991 55.584 381.911 52.32C383.895 48.992 386.423 46.528 389.495 44.928C392.631 43.328 395.991 42.528 399.575 42.528C403.159 42.528 406.359 43.296 409.175 44.832C409.047 43.488 408.791 42.048 408.407 40.512C408.087 38.976 407.863 38.016 407.735 37.632C407.223 35.648 406.839 33.984 406.583 32.64C406.327 31.296 406.199 29.952 406.199 28.608C406.199 25.92 406.999 23.872 408.599 22.464C410.199 21.056 412.119 20.352 414.359 20.352C417.943 20.352 420.855 22.144 423.095 25.728C425.335 29.312 426.935 33.76 427.895 39.072C428.919 44.384 429.431 49.76 429.431 55.2C429.431 62.56 427.735 69.824 424.343 76.992C421.015 84.096 413.527 87.648 401.879 87.648ZM402.455 72.48C404.183 72.48 405.687 71.84 406.967 70.56C408.247 69.216 408.887 67.648 408.887 65.856C408.887 64.064 408.247 62.496 406.967 61.152C405.687 59.808 404.183 59.136 402.455 59.136C400.727 59.136 399.191 59.808 397.847 61.152C396.567 62.496 395.927 64.064 395.927 65.856C395.927 67.648 396.567 69.216 397.847 70.56C399.191 71.84 400.727 72.48 402.455 72.48Z"/>
<path d="M177.107 137.548C173.841 137.548 170.907 136.898 168.307 135.598C165.741 134.265 163.707 132.298 162.207 129.698C160.707 127.065 159.957 123.848 159.957 120.048C159.957 116.981 160.657 114.115 162.057 111.448C163.457 108.781 165.391 106.648 167.857 105.048C170.324 103.448 173.091 102.648 176.157 102.648C179.057 102.648 181.641 103.198 183.907 104.298C186.174 105.365 187.924 106.831 189.157 108.698C190.424 110.565 191.057 112.648 191.057 114.948C191.057 116.415 190.624 117.681 189.757 118.748C188.924 119.815 187.724 120.348 186.157 120.348C184.991 120.348 184.091 120.148 183.457 119.748C182.824 119.348 182.157 118.731 181.457 117.898C180.757 117.065 180.074 116.448 179.407 116.048C178.774 115.615 177.841 115.398 176.607 115.398C175.041 115.398 173.691 115.998 172.557 117.198C171.457 118.365 170.907 119.798 170.907 121.498C170.907 123.331 171.374 124.881 172.307 126.148C173.274 127.381 174.574 127.998 176.207 127.998C177.474 127.998 178.474 127.815 179.207 127.448C179.974 127.081 180.774 126.548 181.607 125.848C182.307 125.248 182.941 124.798 183.507 124.498C184.107 124.198 184.841 124.048 185.707 124.048C187.041 124.048 188.091 124.465 188.857 125.298C189.624 126.098 190.007 127.148 190.007 128.448C190.007 129.981 189.441 131.448 188.307 132.848C187.207 134.248 185.674 135.381 183.707 136.248C181.741 137.115 179.541 137.548 177.107 137.548Z"/>
<path d="M198.575 137.648C196.941 137.648 195.691 137.015 194.825 135.748C193.958 134.481 193.358 132.531 193.025 129.898C192.725 127.265 192.575 123.615 192.575 118.948C192.575 115.048 192.675 111.998 192.875 109.798C193.108 107.598 193.625 105.865 194.425 104.598C195.225 103.298 196.475 102.648 198.175 102.648C199.641 102.648 200.741 103.115 201.475 104.048C202.208 104.981 202.675 106.148 202.875 107.548C203.075 108.948 203.175 110.698 203.175 112.798V115.048C203.841 114.715 204.425 114.481 204.925 114.348C205.458 114.215 206.241 114.148 207.275 114.148C209.541 114.148 211.491 114.731 213.125 115.898C214.758 117.031 215.991 118.565 216.825 120.498C217.691 122.431 218.125 124.581 218.125 126.948C218.125 130.015 217.791 132.548 217.125 134.548C216.491 136.515 215.225 137.498 213.325 137.498C211.991 137.498 210.991 137.198 210.325 136.598C209.691 135.998 209.275 135.181 209.075 134.148C208.908 133.115 208.825 131.698 208.825 129.898C208.825 127.931 208.608 126.415 208.175 125.348C207.775 124.281 207.058 123.748 206.025 123.748C204.991 123.748 204.241 124.298 203.775 125.398C203.341 126.465 203.108 127.965 203.075 129.898C203.041 131.698 202.925 133.131 202.725 134.198C202.558 135.265 202.141 136.115 201.475 136.748C200.841 137.348 199.875 137.648 198.575 137.648Z"/>
<path d="M232.175 137.648C229.709 137.648 227.525 137.165 225.625 136.198C223.725 135.231 222.242 133.881 221.175 132.148C220.142 130.381 219.625 128.398 219.625 126.198C219.625 124.031 220.142 122.031 221.175 120.198C222.242 118.365 223.709 116.898 225.575 115.798C227.442 114.698 229.559 114.148 231.925 114.148C234.059 114.148 235.942 114.581 237.575 115.448C239.209 116.315 240.459 117.465 241.325 118.898C242.192 120.298 242.625 121.765 242.625 123.298C242.625 125.798 241.675 127.631 239.775 128.798C237.909 129.931 235.675 130.498 233.075 130.498C231.342 130.498 229.875 130.281 228.675 129.848C229.675 131.481 231.325 132.298 233.625 132.298C234.559 132.298 235.559 132.181 236.625 131.948C237.025 131.848 237.409 131.798 237.775 131.798C238.509 131.798 239.092 131.981 239.525 132.348C239.992 132.715 240.225 133.215 240.225 133.848C240.225 134.881 239.592 135.781 238.325 136.548C237.059 137.281 235.009 137.648 232.175 137.648ZM228.825 123.748C229.125 124.215 229.525 124.565 230.025 124.798C230.559 124.998 231.142 125.098 231.775 125.098C232.509 125.098 233.142 124.931 233.675 124.598C234.242 124.265 234.525 123.831 234.525 123.298C234.525 122.698 234.275 122.181 233.775 121.748C233.309 121.315 232.625 121.098 231.725 121.098C230.825 121.098 230.109 121.381 229.575 121.948C229.075 122.481 228.825 123.081 228.825 123.748Z"/>
<path d="M256.387 137.598C254.254 137.598 252.237 137.081 250.337 136.048C248.47 134.981 246.97 133.548 245.837 131.748C244.704 129.948 244.137 127.931 244.137 125.698C244.137 123.365 244.687 121.331 245.787 119.598C246.92 117.831 248.404 116.481 250.237 115.548C252.104 114.615 254.104 114.148 256.237 114.148C258.27 114.148 260.104 114.548 261.737 115.348C263.37 116.148 264.637 117.198 265.537 118.498C266.437 119.765 266.887 121.098 266.887 122.498C266.887 123.665 266.52 124.565 265.787 125.198C265.087 125.831 264.037 126.148 262.637 126.148C261.904 126.148 261.337 126.015 260.937 125.748C260.537 125.481 260.12 125.081 259.687 124.548C259.287 124.048 258.904 123.681 258.537 123.448C258.204 123.181 257.72 123.048 257.087 123.048C256.187 123.048 255.42 123.365 254.787 123.998C254.154 124.598 253.837 125.381 253.837 126.348C253.837 127.348 254.137 128.148 254.737 128.748C255.37 129.348 256.154 129.648 257.087 129.648C257.687 129.648 258.154 129.565 258.487 129.398C258.82 129.231 259.187 128.965 259.587 128.598C260.054 128.198 260.487 127.915 260.887 127.748C261.287 127.548 261.87 127.448 262.637 127.448C264.004 127.448 265.054 127.815 265.787 128.548C266.52 129.281 266.887 130.131 266.887 131.098C266.887 132.231 266.437 133.298 265.537 134.298C264.67 135.298 263.437 136.098 261.837 136.698C260.237 137.298 258.42 137.598 256.387 137.598Z"/>
<path d="M288.643 125.248C289.143 125.881 289.943 127.065 291.043 128.798C292.343 130.865 292.993 132.615 292.993 134.048C292.993 135.215 292.61 136.098 291.843 136.698C291.076 137.265 290.176 137.548 289.143 137.548C288.176 137.548 287.193 137.148 286.193 136.348C285.226 135.548 284.21 134.465 283.143 133.098C282.01 131.598 281.26 130.531 280.893 129.898C280.46 130.065 279.976 130.231 279.443 130.398C279.21 132.898 278.743 134.715 278.043 135.848C277.343 136.981 276.276 137.548 274.843 137.548C273.376 137.548 272.21 136.948 271.343 135.748C270.476 134.548 269.843 132.681 269.443 130.148C269.076 127.615 268.893 124.265 268.893 120.098C268.893 116.131 269.01 112.948 269.243 110.548C269.51 108.115 270.076 106.198 270.943 104.798C271.81 103.365 273.11 102.648 274.843 102.648C276.276 102.648 277.343 103.148 278.043 104.148C278.776 105.148 279.243 106.531 279.443 108.298C279.676 110.031 279.793 112.365 279.793 115.298V118.448L279.943 118.348C281.876 117.048 283.576 116.031 285.043 115.298C286.543 114.565 287.893 114.198 289.093 114.198C290.46 114.198 291.526 114.665 292.293 115.598C293.093 116.498 293.493 117.515 293.493 118.648C293.493 119.848 293.093 120.948 292.293 121.948C291.493 122.948 290.276 124.048 288.643 125.248Z"/>
</mask>
<path d="M37.536 87.744C32.288 87.744 28.704 84.736 26.784 78.72C24.928 72.704 24 65.024 24 55.68C24 49.6 25.088 43.904 27.264 38.592C29.504 33.216 32.896 28.896 37.44 25.632C41.984 22.304 47.52 20.64 54.048 20.64C59.296 20.64 64.064 21.76 68.352 24C72.64 26.176 76.032 29.312 78.528 33.408C81.088 37.504 82.368 42.24 82.368 47.616C82.368 53.824 81.12 59.04 78.624 63.264C76.128 67.488 72.896 70.624 68.928 72.672C64.96 74.72 60.768 75.744 56.352 75.744C52.768 75.744 49.472 75.136 46.464 73.92C46.848 75.968 47.04 77.536 47.04 78.624C47.04 84.704 43.872 87.744 37.536 87.744ZM55.008 60.864C57.312 60.864 59.296 60.032 60.96 58.368C62.688 56.64 63.552 54.656 63.552 52.416C63.552 50.112 62.688 48.128 60.96 46.464C59.296 44.736 57.312 43.872 55.008 43.872C52.768 43.872 50.784 44.736 49.056 46.464C47.328 48.128 46.464 50.112 46.464 52.416C46.464 54.656 47.328 56.64 49.056 58.368C50.784 60.032 52.768 60.864 55.008 60.864Z" fill="white"/>
<path d="M102.592 87.648C97.6005 87.648 93.5045 86.528 90.3045 84.288C87.1045 81.984 85.5045 78.688 85.5045 74.4C85.5045 70.688 87.1365 67.744 90.4005 65.568C93.6645 63.392 97.7285 62.304 102.592 62.304C104.384 62.304 106.049 62.464 107.585 62.784C109.185 63.04 110.273 63.36 110.849 63.744C110.849 62.144 110.177 60.832 108.833 59.808C107.489 58.72 105.44 58.176 102.688 58.176C101.472 58.176 100.481 58.272 99.7125 58.464C98.9445 58.656 98.1125 58.944 97.2165 59.328C96.3205 59.712 95.4885 60 94.7205 60.192C94.0165 60.384 93.0565 60.48 91.8405 60.48C89.7925 60.48 88.1925 59.968 87.0405 58.944C85.8885 57.856 85.3125 56.224 85.3125 54.048C85.3125 51.552 86.2085 49.44 88.0005 47.712C89.8565 45.984 92.1605 44.704 94.9125 43.872C97.6645 42.976 100.417 42.528 103.169 42.528C108.609 42.528 113.152 43.552 116.8 45.6C120.512 47.584 123.233 50.24 124.961 53.568C126.753 56.896 127.648 60.576 127.648 64.608C127.648 66.784 127.457 68.8 127.073 70.656C126.753 72.512 126.305 73.952 125.729 74.976C126.625 75.744 127.296 76.64 127.744 77.664C128.257 78.688 128.513 79.744 128.513 80.832C128.513 82.688 127.872 84.288 126.592 85.632C125.376 86.976 123.745 87.648 121.697 87.648C120.161 87.648 118.913 87.424 117.952 86.976C116.993 86.528 115.969 85.824 114.881 84.864C113.281 85.824 111.521 86.528 109.601 86.976C107.745 87.424 105.408 87.648 102.592 87.648ZM104.513 77.952C105.857 77.952 106.913 77.664 107.681 77.088C108.513 76.512 108.929 75.808 108.929 74.976C108.929 74.144 108.513 73.44 107.681 72.864C106.913 72.288 105.857 72 104.513 72C103.169 72 102.081 72.288 101.249 72.864C100.481 73.44 100.097 74.144 100.097 74.976C100.097 75.808 100.481 76.512 101.249 77.088C102.081 77.664 103.169 77.952 104.513 77.952Z" fill="white"/>
<path d="M149.869 87.648C144.237 87.648 139.758 86.72 136.43 84.864C133.102 83.008 131.438 80.608 131.438 77.664C131.438 75.744 132.077 74.272 133.357 73.248C134.701 72.16 136.398 71.616 138.446 71.616C139.598 71.616 140.525 71.776 141.229 72.096C141.934 72.416 142.637 72.864 143.341 73.44C143.853 73.888 144.27 74.208 144.59 74.4C144.974 74.592 145.422 74.688 145.934 74.688C147.278 74.688 147.95 74.208 147.95 73.248C147.95 72.352 147.598 71.68 146.894 71.232C146.19 70.72 144.973 70.112 143.245 69.408C141.645 68.768 140.589 68.32 140.077 68.064C137.133 66.656 134.957 64.992 133.549 63.072C132.141 61.152 131.438 59.104 131.438 56.928C131.438 54.496 132.302 52.192 134.03 50.016C135.822 47.776 138.318 45.984 141.518 44.64C144.782 43.232 148.525 42.528 152.749 42.528C156.397 42.528 159.693 43.04 162.637 44.064C165.645 45.088 168.014 46.496 169.742 48.288C171.47 50.016 172.333 51.936 172.333 54.048C172.333 56.032 171.693 57.536 170.413 58.56C169.197 59.584 167.533 60.096 165.421 60.096C164.589 60.096 163.918 60.032 163.406 59.904C162.958 59.712 162.349 59.424 161.581 59.04C161.133 58.784 160.653 58.56 160.141 58.368C159.693 58.176 159.181 58.08 158.605 58.08C158.093 58.08 157.646 58.272 157.262 58.656C156.878 58.976 156.686 59.392 156.686 59.904C156.686 60.864 157.39 61.568 158.798 62.016C162.51 63.232 165.486 64.768 167.726 66.624C170.03 68.48 171.182 71.04 171.182 74.304C171.182 78.464 169.229 81.728 165.326 84.096C161.486 86.464 156.333 87.648 149.869 87.648Z" fill="white"/>
<path d="M193.651 87.648C188.019 87.648 183.539 86.72 180.211 84.864C176.883 83.008 175.219 80.608 175.219 77.664C175.219 75.744 175.859 74.272 177.139 73.248C178.483 72.16 180.179 71.616 182.227 71.616C183.379 71.616 184.307 71.776 185.011 72.096C185.715 72.416 186.419 72.864 187.123 73.44C187.635 73.888 188.051 74.208 188.371 74.4C188.755 74.592 189.203 74.688 189.715 74.688C191.059 74.688 191.731 74.208 191.731 73.248C191.731 72.352 191.379 71.68 190.675 71.232C189.971 70.72 188.755 70.112 187.027 69.408C185.427 68.768 184.371 68.32 183.859 68.064C180.915 66.656 178.739 64.992 177.331 63.072C175.923 61.152 175.219 59.104 175.219 56.928C175.219 54.496 176.083 52.192 177.811 50.016C179.603 47.776 182.099 45.984 185.299 44.64C188.563 43.232 192.307 42.528 196.531 42.528C200.179 42.528 203.475 43.04 206.419 44.064C209.427 45.088 211.795 46.496 213.523 48.288C215.251 50.016 216.115 51.936 216.115 54.048C216.115 56.032 215.475 57.536 214.195 58.56C212.979 59.584 211.315 60.096 209.203 60.096C208.371 60.096 207.699 60.032 207.187 59.904C206.739 59.712 206.131 59.424 205.363 59.04C204.915 58.784 204.435 58.56 203.923 58.368C203.475 58.176 202.963 58.08 202.387 58.08C201.875 58.08 201.427 58.272 201.043 58.656C200.659 58.976 200.467 59.392 200.467 59.904C200.467 60.864 201.171 61.568 202.579 62.016C206.291 63.232 209.267 64.768 211.507 66.624C213.811 68.48 214.963 71.04 214.963 74.304C214.963 78.464 213.011 81.728 209.107 84.096C205.267 86.464 200.115 87.648 193.651 87.648Z" fill="white"/>
<path d="M237.432 87.744C233.72 87.744 230.456 86.784 227.64 84.864C224.888 82.88 222.744 80.096 221.208 76.512C219.736 72.928 219 68.8 219 64.128C219 60.736 219.384 57.376 220.152 54.048C220.92 50.72 222.136 47.968 223.8 45.792C225.528 43.552 227.672 42.432 230.232 42.432C232.6 42.432 234.424 43.2 235.704 44.736C236.984 46.272 237.624 48.352 237.624 50.976C237.624 52.384 237.272 54.432 236.568 57.12C236.504 57.504 236.312 58.464 235.992 60C235.672 61.472 235.512 62.784 235.512 63.936C235.512 66.176 235.736 67.776 236.184 68.736C236.632 69.632 237.56 70.08 238.968 70.08C240.44 70.08 241.432 69.28 241.944 67.68C242.456 66.016 242.712 63.616 242.712 60.48L242.616 53.28C242.616 51.04 243.192 49.152 244.344 47.616C245.56 46.08 247.384 45.312 249.816 45.312C252.248 45.312 254.104 46.112 255.384 47.712C256.664 49.248 257.304 51.104 257.304 53.28L257.208 57.792C257.144 58.752 257.112 60.128 257.112 61.92C257.112 64.608 257.368 66.656 257.88 68.064C258.456 69.408 259.512 70.08 261.048 70.08C264.056 70.08 265.56 68.032 265.56 63.936C265.56 62.656 265.048 60.416 264.024 57.216C263.96 56.896 263.704 56 263.256 54.528C262.808 53.056 262.584 51.808 262.584 50.784C262.584 48.032 263.128 45.984 264.216 44.64C265.368 43.232 267.128 42.528 269.496 42.528C272.056 42.528 274.168 43.648 275.832 45.888C277.56 48.064 278.808 50.816 279.576 54.144C280.344 57.408 280.728 60.704 280.728 64.032C280.728 71.136 279.064 76.832 275.736 81.12C272.408 85.344 267.928 87.456 262.296 87.456C259.736 87.456 257.368 86.976 255.192 86.016C253.016 85.056 251.224 83.744 249.816 82.08C248.344 83.808 246.52 85.184 244.344 86.208C242.232 87.232 239.928 87.744 237.432 87.744Z" fill="white"/>
<path d="M307.688 87.744C303.08 87.808 298.951 86.848 295.303 84.864C291.719 82.88 288.903 80.16 286.855 76.704C284.871 73.184 283.816 69.28 283.688 64.992C283.623 60.704 284.616 56.864 286.664 53.472C288.712 50.08 291.559 47.392 295.207 45.408C298.919 43.424 303.08 42.432 307.688 42.432C312.168 42.432 316.2 43.392 319.784 45.312C323.432 47.232 326.311 49.92 328.423 53.376C330.535 56.832 331.656 60.704 331.784 64.992C331.848 69.152 330.855 72.96 328.807 76.416C326.759 79.808 323.88 82.528 320.168 84.576C316.52 86.624 312.36 87.68 307.688 87.744ZM307.975 73.728C309.703 73.728 311.207 73.056 312.487 71.712C313.767 70.368 314.408 68.8 314.408 67.008C314.408 65.216 313.767 63.68 312.487 62.4C311.207 61.056 309.703 60.384 307.975 60.384C306.247 60.384 304.744 61.056 303.464 62.4C302.184 63.68 301.543 65.216 301.543 67.008C301.543 68.8 302.184 70.368 303.464 71.712C304.744 73.056 306.247 73.728 307.975 73.728Z" fill="white"/>
<path d="M345.897 87.648C341.801 87.648 339.049 85.248 337.641 80.448C336.297 75.648 335.625 69.024 335.625 60.576C335.625 56.736 335.785 53.536 336.105 50.976C336.489 48.352 337.353 46.144 338.697 44.352C340.105 42.496 342.249 41.568 345.129 41.568C346.921 41.568 348.489 41.984 349.833 42.816C351.241 43.648 352.137 44.832 352.521 46.368C353.929 45.088 355.753 44.128 357.993 43.488C360.233 42.848 362.633 42.528 365.193 42.528C367.241 42.528 369.321 43.04 371.433 44.064C373.609 45.088 375.401 46.496 376.809 48.288C378.281 50.016 379.017 51.904 379.017 53.952C379.017 56 378.281 57.824 376.809 59.424C375.401 60.96 373.513 61.728 371.145 61.728C370.377 61.728 369.641 61.632 368.937 61.44C368.297 61.248 367.721 61.056 367.209 60.864C365.929 60.352 364.905 60.096 364.137 60.096C361.641 60.096 359.433 61.088 357.513 63.072C355.657 64.992 354.729 67.488 354.729 70.56C354.729 73.952 354.601 76.768 354.345 79.008C354.089 81.248 353.321 83.264 352.041 85.056C350.761 86.784 348.713 87.648 345.897 87.648Z" fill="white"/>
<path d="M401.879 87.648C397.335 87.648 393.303 86.56 389.783 84.384C386.327 82.144 383.671 79.264 381.815 75.744C379.959 72.16 379.031 68.352 379.031 64.32C379.031 59.584 379.991 55.584 381.911 52.32C383.895 48.992 386.423 46.528 389.495 44.928C392.631 43.328 395.991 42.528 399.575 42.528C403.159 42.528 406.359 43.296 409.175 44.832C409.047 43.488 408.791 42.048 408.407 40.512C408.087 38.976 407.863 38.016 407.735 37.632C407.223 35.648 406.839 33.984 406.583 32.64C406.327 31.296 406.199 29.952 406.199 28.608C406.199 25.92 406.999 23.872 408.599 22.464C410.199 21.056 412.119 20.352 414.359 20.352C417.943 20.352 420.855 22.144 423.095 25.728C425.335 29.312 426.935 33.76 427.895 39.072C428.919 44.384 429.431 49.76 429.431 55.2C429.431 62.56 427.735 69.824 424.343 76.992C421.015 84.096 413.527 87.648 401.879 87.648ZM402.455 72.48C404.183 72.48 405.687 71.84 406.967 70.56C408.247 69.216 408.887 67.648 408.887 65.856C408.887 64.064 408.247 62.496 406.967 61.152C405.687 59.808 404.183 59.136 402.455 59.136C400.727 59.136 399.191 59.808 397.847 61.152C396.567 62.496 395.927 64.064 395.927 65.856C395.927 67.648 396.567 69.216 397.847 70.56C399.191 71.84 400.727 72.48 402.455 72.48Z" fill="white"/>
<path d="M177.107 137.548C173.841 137.548 170.907 136.898 168.307 135.598C165.741 134.265 163.707 132.298 162.207 129.698C160.707 127.065 159.957 123.848 159.957 120.048C159.957 116.981 160.657 114.115 162.057 111.448C163.457 108.781 165.391 106.648 167.857 105.048C170.324 103.448 173.091 102.648 176.157 102.648C179.057 102.648 181.641 103.198 183.907 104.298C186.174 105.365 187.924 106.831 189.157 108.698C190.424 110.565 191.057 112.648 191.057 114.948C191.057 116.415 190.624 117.681 189.757 118.748C188.924 119.815 187.724 120.348 186.157 120.348C184.991 120.348 184.091 120.148 183.457 119.748C182.824 119.348 182.157 118.731 181.457 117.898C180.757 117.065 180.074 116.448 179.407 116.048C178.774 115.615 177.841 115.398 176.607 115.398C175.041 115.398 173.691 115.998 172.557 117.198C171.457 118.365 170.907 119.798 170.907 121.498C170.907 123.331 171.374 124.881 172.307 126.148C173.274 127.381 174.574 127.998 176.207 127.998C177.474 127.998 178.474 127.815 179.207 127.448C179.974 127.081 180.774 126.548 181.607 125.848C182.307 125.248 182.941 124.798 183.507 124.498C184.107 124.198 184.841 124.048 185.707 124.048C187.041 124.048 188.091 124.465 188.857 125.298C189.624 126.098 190.007 127.148 190.007 128.448C190.007 129.981 189.441 131.448 188.307 132.848C187.207 134.248 185.674 135.381 183.707 136.248C181.741 137.115 179.541 137.548 177.107 137.548Z" fill="white"/>
<path d="M198.575 137.648C196.941 137.648 195.691 137.015 194.825 135.748C193.958 134.481 193.358 132.531 193.025 129.898C192.725 127.265 192.575 123.615 192.575 118.948C192.575 115.048 192.675 111.998 192.875 109.798C193.108 107.598 193.625 105.865 194.425 104.598C195.225 103.298 196.475 102.648 198.175 102.648C199.641 102.648 200.741 103.115 201.475 104.048C202.208 104.981 202.675 106.148 202.875 107.548C203.075 108.948 203.175 110.698 203.175 112.798V115.048C203.841 114.715 204.425 114.481 204.925 114.348C205.458 114.215 206.241 114.148 207.275 114.148C209.541 114.148 211.491 114.731 213.125 115.898C214.758 117.031 215.991 118.565 216.825 120.498C217.691 122.431 218.125 124.581 218.125 126.948C218.125 130.015 217.791 132.548 217.125 134.548C216.491 136.515 215.225 137.498 213.325 137.498C211.991 137.498 210.991 137.198 210.325 136.598C209.691 135.998 209.275 135.181 209.075 134.148C208.908 133.115 208.825 131.698 208.825 129.898C208.825 127.931 208.608 126.415 208.175 125.348C207.775 124.281 207.058 123.748 206.025 123.748C204.991 123.748 204.241 124.298 203.775 125.398C203.341 126.465 203.108 127.965 203.075 129.898C203.041 131.698 202.925 133.131 202.725 134.198C202.558 135.265 202.141 136.115 201.475 136.748C200.841 137.348 199.875 137.648 198.575 137.648Z" fill="white"/>
<path d="M232.175 137.648C229.709 137.648 227.525 137.165 225.625 136.198C223.725 135.231 222.242 133.881 221.175 132.148C220.142 130.381 219.625 128.398 219.625 126.198C219.625 124.031 220.142 122.031 221.175 120.198C222.242 118.365 223.709 116.898 225.575 115.798C227.442 114.698 229.559 114.148 231.925 114.148C234.059 114.148 235.942 114.581 237.575 115.448C239.209 116.315 240.459 117.465 241.325 118.898C242.192 120.298 242.625 121.765 242.625 123.298C242.625 125.798 241.675 127.631 239.775 128.798C237.909 129.931 235.675 130.498 233.075 130.498C231.342 130.498 229.875 130.281 228.675 129.848C229.675 131.481 231.325 132.298 233.625 132.298C234.559 132.298 235.559 132.181 236.625 131.948C237.025 131.848 237.409 131.798 237.775 131.798C238.509 131.798 239.092 131.981 239.525 132.348C239.992 132.715 240.225 133.215 240.225 133.848C240.225 134.881 239.592 135.781 238.325 136.548C237.059 137.281 235.009 137.648 232.175 137.648ZM228.825 123.748C229.125 124.215 229.525 124.565 230.025 124.798C230.559 124.998 231.142 125.098 231.775 125.098C232.509 125.098 233.142 124.931 233.675 124.598C234.242 124.265 234.525 123.831 234.525 123.298C234.525 122.698 234.275 122.181 233.775 121.748C233.309 121.315 232.625 121.098 231.725 121.098C230.825 121.098 230.109 121.381 229.575 121.948C229.075 122.481 228.825 123.081 228.825 123.748Z" fill="white"/>
<path d="M256.387 137.598C254.254 137.598 252.237 137.081 250.337 136.048C248.47 134.981 246.97 133.548 245.837 131.748C244.704 129.948 244.137 127.931 244.137 125.698C244.137 123.365 244.687 121.331 245.787 119.598C246.92 117.831 248.404 116.481 250.237 115.548C252.104 114.615 254.104 114.148 256.237 114.148C258.27 114.148 260.104 114.548 261.737 115.348C263.37 116.148 264.637 117.198 265.537 118.498C266.437 119.765 266.887 121.098 266.887 122.498C266.887 123.665 266.52 124.565 265.787 125.198C265.087 125.831 264.037 126.148 262.637 126.148C261.904 126.148 261.337 126.015 260.937 125.748C260.537 125.481 260.12 125.081 259.687 124.548C259.287 124.048 258.904 123.681 258.537 123.448C258.204 123.181 257.72 123.048 257.087 123.048C256.187 123.048 255.42 123.365 254.787 123.998C254.154 124.598 253.837 125.381 253.837 126.348C253.837 127.348 254.137 128.148 254.737 128.748C255.37 129.348 256.154 129.648 257.087 129.648C257.687 129.648 258.154 129.565 258.487 129.398C258.82 129.231 259.187 128.965 259.587 128.598C260.054 128.198 260.487 127.915 260.887 127.748C261.287 127.548 261.87 127.448 262.637 127.448C264.004 127.448 265.054 127.815 265.787 128.548C266.52 129.281 266.887 130.131 266.887 131.098C266.887 132.231 266.437 133.298 265.537 134.298C264.67 135.298 263.437 136.098 261.837 136.698C260.237 137.298 258.42 137.598 256.387 137.598Z" fill="white"/>
<path d="M288.643 125.248C289.143 125.881 289.943 127.065 291.043 128.798C292.343 130.865 292.993 132.615 292.993 134.048C292.993 135.215 292.61 136.098 291.843 136.698C291.076 137.265 290.176 137.548 289.143 137.548C288.176 137.548 287.193 137.148 286.193 136.348C285.226 135.548 284.21 134.465 283.143 133.098C282.01 131.598 281.26 130.531 280.893 129.898C280.46 130.065 279.976 130.231 279.443 130.398C279.21 132.898 278.743 134.715 278.043 135.848C277.343 136.981 276.276 137.548 274.843 137.548C273.376 137.548 272.21 136.948 271.343 135.748C270.476 134.548 269.843 132.681 269.443 130.148C269.076 127.615 268.893 124.265 268.893 120.098C268.893 116.131 269.01 112.948 269.243 110.548C269.51 108.115 270.076 106.198 270.943 104.798C271.81 103.365 273.11 102.648 274.843 102.648C276.276 102.648 277.343 103.148 278.043 104.148C278.776 105.148 279.243 106.531 279.443 108.298C279.676 110.031 279.793 112.365 279.793 115.298V118.448L279.943 118.348C281.876 117.048 283.576 116.031 285.043 115.298C286.543 114.565 287.893 114.198 289.093 114.198C290.46 114.198 291.526 114.665 292.293 115.598C293.093 116.498 293.493 117.515 293.493 118.648C293.493 119.848 293.093 120.948 292.293 121.948C291.493 122.948 290.276 124.048 288.643 125.248Z" fill="white"/>
<path d="M37.536 87.744C32.288 87.744 28.704 84.736 26.784 78.72C24.928 72.704 24 65.024 24 55.68C24 49.6 25.088 43.904 27.264 38.592C29.504 33.216 32.896 28.896 37.44 25.632C41.984 22.304 47.52 20.64 54.048 20.64C59.296 20.64 64.064 21.76 68.352 24C72.64 26.176 76.032 29.312 78.528 33.408C81.088 37.504 82.368 42.24 82.368 47.616C82.368 53.824 81.12 59.04 78.624 63.264C76.128 67.488 72.896 70.624 68.928 72.672C64.96 74.72 60.768 75.744 56.352 75.744C52.768 75.744 49.472 75.136 46.464 73.92C46.848 75.968 47.04 77.536 47.04 78.624C47.04 84.704 43.872 87.744 37.536 87.744ZM55.008 60.864C57.312 60.864 59.296 60.032 60.96 58.368C62.688 56.64 63.552 54.656 63.552 52.416C63.552 50.112 62.688 48.128 60.96 46.464C59.296 44.736 57.312 43.872 55.008 43.872C52.768 43.872 50.784 44.736 49.056 46.464C47.328 48.128 46.464 50.112 46.464 52.416C46.464 54.656 47.328 56.64 49.056 58.368C50.784 60.032 52.768 60.864 55.008 60.864Z" stroke="#FF6161" stroke-width="40" mask="url(#path-1-outside-1_705_57)"/>
<path d="M102.592 87.648C97.6005 87.648 93.5045 86.528 90.3045 84.288C87.1045 81.984 85.5045 78.688 85.5045 74.4C85.5045 70.688 87.1365 67.744 90.4005 65.568C93.6645 63.392 97.7285 62.304 102.592 62.304C104.384 62.304 106.049 62.464 107.585 62.784C109.185 63.04 110.273 63.36 110.849 63.744C110.849 62.144 110.177 60.832 108.833 59.808C107.489 58.72 105.44 58.176 102.688 58.176C101.472 58.176 100.481 58.272 99.7125 58.464C98.9445 58.656 98.1125 58.944 97.2165 59.328C96.3205 59.712 95.4885 60 94.7205 60.192C94.0165 60.384 93.0565 60.48 91.8405 60.48C89.7925 60.48 88.1925 59.968 87.0405 58.944C85.8885 57.856 85.3125 56.224 85.3125 54.048C85.3125 51.552 86.2085 49.44 88.0005 47.712C89.8565 45.984 92.1605 44.704 94.9125 43.872C97.6645 42.976 100.417 42.528 103.169 42.528C108.609 42.528 113.152 43.552 116.8 45.6C120.512 47.584 123.233 50.24 124.961 53.568C126.753 56.896 127.648 60.576 127.648 64.608C127.648 66.784 127.457 68.8 127.073 70.656C126.753 72.512 126.305 73.952 125.729 74.976C126.625 75.744 127.296 76.64 127.744 77.664C128.257 78.688 128.513 79.744 128.513 80.832C128.513 82.688 127.872 84.288 126.592 85.632C125.376 86.976 123.745 87.648 121.697 87.648C120.161 87.648 118.913 87.424 117.952 86.976C116.993 86.528 115.969 85.824 114.881 84.864C113.281 85.824 111.521 86.528 109.601 86.976C107.745 87.424 105.408 87.648 102.592 87.648ZM104.513 77.952C105.857 77.952 106.913 77.664 107.681 77.088C108.513 76.512 108.929 75.808 108.929 74.976C108.929 74.144 108.513 73.44 107.681 72.864C106.913 72.288 105.857 72 104.513 72C103.169 72 102.081 72.288 101.249 72.864C100.481 73.44 100.097 74.144 100.097 74.976C100.097 75.808 100.481 76.512 101.249 77.088C102.081 77.664 103.169 77.952 104.513 77.952Z" stroke="#FF6161" stroke-width="40" mask="url(#path-1-outside-1_705_57)"/>
<path d="M149.869 87.648C144.237 87.648 139.758 86.72 136.43 84.864C133.102 83.008 131.438 80.608 131.438 77.664C131.438 75.744 132.077 74.272 133.357 73.248C134.701 72.16 136.398 71.616 138.446 71.616C139.598 71.616 140.525 71.776 141.229 72.096C141.934 72.416 142.637 72.864 143.341 73.44C143.853 73.888 144.27 74.208 144.59 74.4C144.974 74.592 145.422 74.688 145.934 74.688C147.278 74.688 147.95 74.208 147.95 73.248C147.95 72.352 147.598 71.68 146.894 71.232C146.19 70.72 144.973 70.112 143.245 69.408C141.645 68.768 140.589 68.32 140.077 68.064C137.133 66.656 134.957 64.992 133.549 63.072C132.141 61.152 131.438 59.104 131.438 56.928C131.438 54.496 132.302 52.192 134.03 50.016C135.822 47.776 138.318 45.984 141.518 44.64C144.782 43.232 148.525 42.528 152.749 42.528C156.397 42.528 159.693 43.04 162.637 44.064C165.645 45.088 168.014 46.496 169.742 48.288C171.47 50.016 172.333 51.936 172.333 54.048C172.333 56.032 171.693 57.536 170.413 58.56C169.197 59.584 167.533 60.096 165.421 60.096C164.589 60.096 163.918 60.032 163.406 59.904C162.958 59.712 162.349 59.424 161.581 59.04C161.133 58.784 160.653 58.56 160.141 58.368C159.693 58.176 159.181 58.08 158.605 58.08C158.093 58.08 157.646 58.272 157.262 58.656C156.878 58.976 156.686 59.392 156.686 59.904C156.686 60.864 157.39 61.568 158.798 62.016C162.51 63.232 165.486 64.768 167.726 66.624C170.03 68.48 171.182 71.04 171.182 74.304C171.182 78.464 169.229 81.728 165.326 84.096C161.486 86.464 156.333 87.648 149.869 87.648Z" stroke="#FF6161" stroke-width="40" mask="url(#path-1-outside-1_705_57)"/>
<path d="M193.651 87.648C188.019 87.648 183.539 86.72 180.211 84.864C176.883 83.008 175.219 80.608 175.219 77.664C175.219 75.744 175.859 74.272 177.139 73.248C178.483 72.16 180.179 71.616 182.227 71.616C183.379 71.616 184.307 71.776 185.011 72.096C185.715 72.416 186.419 72.864 187.123 73.44C187.635 73.888 188.051 74.208 188.371 74.4C188.755 74.592 189.203 74.688 189.715 74.688C191.059 74.688 191.731 74.208 191.731 73.248C191.731 72.352 191.379 71.68 190.675 71.232C189.971 70.72 188.755 70.112 187.027 69.408C185.427 68.768 184.371 68.32 183.859 68.064C180.915 66.656 178.739 64.992 177.331 63.072C175.923 61.152 175.219 59.104 175.219 56.928C175.219 54.496 176.083 52.192 177.811 50.016C179.603 47.776 182.099 45.984 185.299 44.64C188.563 43.232 192.307 42.528 196.531 42.528C200.179 42.528 203.475 43.04 206.419 44.064C209.427 45.088 211.795 46.496 213.523 48.288C215.251 50.016 216.115 51.936 216.115 54.048C216.115 56.032 215.475 57.536 214.195 58.56C212.979 59.584 211.315 60.096 209.203 60.096C208.371 60.096 207.699 60.032 207.187 59.904C206.739 59.712 206.131 59.424 205.363 59.04C204.915 58.784 204.435 58.56 203.923 58.368C203.475 58.176 202.963 58.08 202.387 58.08C201.875 58.08 201.427 58.272 201.043 58.656C200.659 58.976 200.467 59.392 200.467 59.904C200.467 60.864 201.171 61.568 202.579 62.016C206.291 63.232 209.267 64.768 211.507 66.624C213.811 68.48 214.963 71.04 214.963 74.304C214.963 78.464 213.011 81.728 209.107 84.096C205.267 86.464 200.115 87.648 193.651 87.648Z" stroke="#FF6161" stroke-width="40" mask="url(#path-1-outside-1_705_57)"/>
<path d="M237.432 87.744C233.72 87.744 230.456 86.784 227.64 84.864C224.888 82.88 222.744 80.096 221.208 76.512C219.736 72.928 219 68.8 219 64.128C219 60.736 219.384 57.376 220.152 54.048C220.92 50.72 222.136 47.968 223.8 45.792C225.528 43.552 227.672 42.432 230.232 42.432C232.6 42.432 234.424 43.2 235.704 44.736C236.984 46.272 237.624 48.352 237.624 50.976C237.624 52.384 237.272 54.432 236.568 57.12C236.504 57.504 236.312 58.464 235.992 60C235.672 61.472 235.512 62.784 235.512 63.936C235.512 66.176 235.736 67.776 236.184 68.736C236.632 69.632 237.56 70.08 238.968 70.08C240.44 70.08 241.432 69.28 241.944 67.68C242.456 66.016 242.712 63.616 242.712 60.48L242.616 53.28C242.616 51.04 243.192 49.152 244.344 47.616C245.56 46.08 247.384 45.312 249.816 45.312C252.248 45.312 254.104 46.112 255.384 47.712C256.664 49.248 257.304 51.104 257.304 53.28L257.208 57.792C257.144 58.752 257.112 60.128 257.112 61.92C257.112 64.608 257.368 66.656 257.88 68.064C258.456 69.408 259.512 70.08 261.048 70.08C264.056 70.08 265.56 68.032 265.56 63.936C265.56 62.656 265.048 60.416 264.024 57.216C263.96 56.896 263.704 56 263.256 54.528C262.808 53.056 262.584 51.808 262.584 50.784C262.584 48.032 263.128 45.984 264.216 44.64C265.368 43.232 267.128 42.528 269.496 42.528C272.056 42.528 274.168 43.648 275.832 45.888C277.56 48.064 278.808 50.816 279.576 54.144C280.344 57.408 280.728 60.704 280.728 64.032C280.728 71.136 279.064 76.832 275.736 81.12C272.408 85.344 267.928 87.456 262.296 87.456C259.736 87.456 257.368 86.976 255.192 86.016C253.016 85.056 251.224 83.744 249.816 82.08C248.344 83.808 246.52 85.184 244.344 86.208C242.232 87.232 239.928 87.744 237.432 87.744Z" stroke="#FF6161" stroke-width="40" mask="url(#path-1-outside-1_705_57)"/>
<path d="M307.688 87.744C303.08 87.808 298.951 86.848 295.303 84.864C291.719 82.88 288.903 80.16 286.855 76.704C284.871 73.184 283.816 69.28 283.688 64.992C283.623 60.704 284.616 56.864 286.664 53.472C288.712 50.08 291.559 47.392 295.207 45.408C298.919 43.424 303.08 42.432 307.688 42.432C312.168 42.432 316.2 43.392 319.784 45.312C323.432 47.232 326.311 49.92 328.423 53.376C330.535 56.832 331.656 60.704 331.784 64.992C331.848 69.152 330.855 72.96 328.807 76.416C326.759 79.808 323.88 82.528 320.168 84.576C316.52 86.624 312.36 87.68 307.688 87.744ZM307.975 73.728C309.703 73.728 311.207 73.056 312.487 71.712C313.767 70.368 314.408 68.8 314.408 67.008C314.408 65.216 313.767 63.68 312.487 62.4C311.207 61.056 309.703 60.384 307.975 60.384C306.247 60.384 304.744 61.056 303.464 62.4C302.184 63.68 301.543 65.216 301.543 67.008C301.543 68.8 302.184 70.368 303.464 71.712C304.744 73.056 306.247 73.728 307.975 73.728Z" stroke="#FF6161" stroke-width="40" mask="url(#path-1-outside-1_705_57)"/>
<path d="M345.897 87.648C341.801 87.648 339.049 85.248 337.641 80.448C336.297 75.648 335.625 69.024 335.625 60.576C335.625 56.736 335.785 53.536 336.105 50.976C336.489 48.352 337.353 46.144 338.697 44.352C340.105 42.496 342.249 41.568 345.129 41.568C346.921 41.568 348.489 41.984 349.833 42.816C351.241 43.648 352.137 44.832 352.521 46.368C353.929 45.088 355.753 44.128 357.993 43.488C360.233 42.848 362.633 42.528 365.193 42.528C367.241 42.528 369.321 43.04 371.433 44.064C373.609 45.088 375.401 46.496 376.809 48.288C378.281 50.016 379.017 51.904 379.017 53.952C379.017 56 378.281 57.824 376.809 59.424C375.401 60.96 373.513 61.728 371.145 61.728C370.377 61.728 369.641 61.632 368.937 61.44C368.297 61.248 367.721 61.056 367.209 60.864C365.929 60.352 364.905 60.096 364.137 60.096C361.641 60.096 359.433 61.088 357.513 63.072C355.657 64.992 354.729 67.488 354.729 70.56C354.729 73.952 354.601 76.768 354.345 79.008C354.089 81.248 353.321 83.264 352.041 85.056C350.761 86.784 348.713 87.648 345.897 87.648Z" stroke="#FF6161" stroke-width="40" mask="url(#path-1-outside-1_705_57)"/>
<path d="M401.879 87.648C397.335 87.648 393.303 86.56 389.783 84.384C386.327 82.144 383.671 79.264 381.815 75.744C379.959 72.16 379.031 68.352 379.031 64.32C379.031 59.584 379.991 55.584 381.911 52.32C383.895 48.992 386.423 46.528 389.495 44.928C392.631 43.328 395.991 42.528 399.575 42.528C403.159 42.528 406.359 43.296 409.175 44.832C409.047 43.488 408.791 42.048 408.407 40.512C408.087 38.976 407.863 38.016 407.735 37.632C407.223 35.648 406.839 33.984 406.583 32.64C406.327 31.296 406.199 29.952 406.199 28.608C406.199 25.92 406.999 23.872 408.599 22.464C410.199 21.056 412.119 20.352 414.359 20.352C417.943 20.352 420.855 22.144 423.095 25.728C425.335 29.312 426.935 33.76 427.895 39.072C428.919 44.384 429.431 49.76 429.431 55.2C429.431 62.56 427.735 69.824 424.343 76.992C421.015 84.096 413.527 87.648 401.879 87.648ZM402.455 72.48C404.183 72.48 405.687 71.84 406.967 70.56C408.247 69.216 408.887 67.648 408.887 65.856C408.887 64.064 408.247 62.496 406.967 61.152C405.687 59.808 404.183 59.136 402.455 59.136C400.727 59.136 399.191 59.808 397.847 61.152C396.567 62.496 395.927 64.064 395.927 65.856C395.927 67.648 396.567 69.216 397.847 70.56C399.191 71.84 400.727 72.48 402.455 72.48Z" stroke="#FF6161" stroke-width="40" mask="url(#path-1-outside-1_705_57)"/>
<path d="M177.107 137.548C173.841 137.548 170.907 136.898 168.307 135.598C165.741 134.265 163.707 132.298 162.207 129.698C160.707 127.065 159.957 123.848 159.957 120.048C159.957 116.981 160.657 114.115 162.057 111.448C163.457 108.781 165.391 106.648 167.857 105.048C170.324 103.448 173.091 102.648 176.157 102.648C179.057 102.648 181.641 103.198 183.907 104.298C186.174 105.365 187.924 106.831 189.157 108.698C190.424 110.565 191.057 112.648 191.057 114.948C191.057 116.415 190.624 117.681 189.757 118.748C188.924 119.815 187.724 120.348 186.157 120.348C184.991 120.348 184.091 120.148 183.457 119.748C182.824 119.348 182.157 118.731 181.457 117.898C180.757 117.065 180.074 116.448 179.407 116.048C178.774 115.615 177.841 115.398 176.607 115.398C175.041 115.398 173.691 115.998 172.557 117.198C171.457 118.365 170.907 119.798 170.907 121.498C170.907 123.331 171.374 124.881 172.307 126.148C173.274 127.381 174.574 127.998 176.207 127.998C177.474 127.998 178.474 127.815 179.207 127.448C179.974 127.081 180.774 126.548 181.607 125.848C182.307 125.248 182.941 124.798 183.507 124.498C184.107 124.198 184.841 124.048 185.707 124.048C187.041 124.048 188.091 124.465 188.857 125.298C189.624 126.098 190.007 127.148 190.007 128.448C190.007 129.981 189.441 131.448 188.307 132.848C187.207 134.248 185.674 135.381 183.707 136.248C181.741 137.115 179.541 137.548 177.107 137.548Z" stroke="#FF6161" stroke-width="40" mask="url(#path-1-outside-1_705_57)"/>
<path d="M198.575 137.648C196.941 137.648 195.691 137.015 194.825 135.748C193.958 134.481 193.358 132.531 193.025 129.898C192.725 127.265 192.575 123.615 192.575 118.948C192.575 115.048 192.675 111.998 192.875 109.798C193.108 107.598 193.625 105.865 194.425 104.598C195.225 103.298 196.475 102.648 198.175 102.648C199.641 102.648 200.741 103.115 201.475 104.048C202.208 104.981 202.675 106.148 202.875 107.548C203.075 108.948 203.175 110.698 203.175 112.798V115.048C203.841 114.715 204.425 114.481 204.925 114.348C205.458 114.215 206.241 114.148 207.275 114.148C209.541 114.148 211.491 114.731 213.125 115.898C214.758 117.031 215.991 118.565 216.825 120.498C217.691 122.431 218.125 124.581 218.125 126.948C218.125 130.015 217.791 132.548 217.125 134.548C216.491 136.515 215.225 137.498 213.325 137.498C211.991 137.498 210.991 137.198 210.325 136.598C209.691 135.998 209.275 135.181 209.075 134.148C208.908 133.115 208.825 131.698 208.825 129.898C208.825 127.931 208.608 126.415 208.175 125.348C207.775 124.281 207.058 123.748 206.025 123.748C204.991 123.748 204.241 124.298 203.775 125.398C203.341 126.465 203.108 127.965 203.075 129.898C203.041 131.698 202.925 133.131 202.725 134.198C202.558 135.265 202.141 136.115 201.475 136.748C200.841 137.348 199.875 137.648 198.575 137.648Z" stroke="#FF6161" stroke-width="40" mask="url(#path-1-outside-1_705_57)"/>
<path d="M232.175 137.648C229.709 137.648 227.525 137.165 225.625 136.198C223.725 135.231 222.242 133.881 221.175 132.148C220.142 130.381 219.625 128.398 219.625 126.198C219.625 124.031 220.142 122.031 221.175 120.198C222.242 118.365 223.709 116.898 225.575 115.798C227.442 114.698 229.559 114.148 231.925 114.148C234.059 114.148 235.942 114.581 237.575 115.448C239.209 116.315 240.459 117.465 241.325 118.898C242.192 120.298 242.625 121.765 242.625 123.298C242.625 125.798 241.675 127.631 239.775 128.798C237.909 129.931 235.675 130.498 233.075 130.498C231.342 130.498 229.875 130.281 228.675 129.848C229.675 131.481 231.325 132.298 233.625 132.298C234.559 132.298 235.559 132.181 236.625 131.948C237.025 131.848 237.409 131.798 237.775 131.798C238.509 131.798 239.092 131.981 239.525 132.348C239.992 132.715 240.225 133.215 240.225 133.848C240.225 134.881 239.592 135.781 238.325 136.548C237.059 137.281 235.009 137.648 232.175 137.648ZM228.825 123.748C229.125 124.215 229.525 124.565 230.025 124.798C230.559 124.998 231.142 125.098 231.775 125.098C232.509 125.098 233.142 124.931 233.675 124.598C234.242 124.265 234.525 123.831 234.525 123.298C234.525 122.698 234.275 122.181 233.775 121.748C233.309 121.315 232.625 121.098 231.725 121.098C230.825 121.098 230.109 121.381 229.575 121.948C229.075 122.481 228.825 123.081 228.825 123.748Z" stroke="#FF6161" stroke-width="40" mask="url(#path-1-outside-1_705_57)"/>
<path d="M256.387 137.598C254.254 137.598 252.237 137.081 250.337 136.048C248.47 134.981 246.97 133.548 245.837 131.748C244.704 129.948 244.137 127.931 244.137 125.698C244.137 123.365 244.687 121.331 245.787 119.598C246.92 117.831 248.404 116.481 250.237 115.548C252.104 114.615 254.104 114.148 256.237 114.148C258.27 114.148 260.104 114.548 261.737 115.348C263.37 116.148 264.637 117.198 265.537 118.498C266.437 119.765 266.887 121.098 266.887 122.498C266.887 123.665 266.52 124.565 265.787 125.198C265.087 125.831 264.037 126.148 262.637 126.148C261.904 126.148 261.337 126.015 260.937 125.748C260.537 125.481 260.12 125.081 259.687 124.548C259.287 124.048 258.904 123.681 258.537 123.448C258.204 123.181 257.72 123.048 257.087 123.048C256.187 123.048 255.42 123.365 254.787 123.998C254.154 124.598 253.837 125.381 253.837 126.348C253.837 127.348 254.137 128.148 254.737 128.748C255.37 129.348 256.154 129.648 257.087 129.648C257.687 129.648 258.154 129.565 258.487 129.398C258.82 129.231 259.187 128.965 259.587 128.598C260.054 128.198 260.487 127.915 260.887 127.748C261.287 127.548 261.87 127.448 262.637 127.448C264.004 127.448 265.054 127.815 265.787 128.548C266.52 129.281 266.887 130.131 266.887 131.098C266.887 132.231 266.437 133.298 265.537 134.298C264.67 135.298 263.437 136.098 261.837 136.698C260.237 137.298 258.42 137.598 256.387 137.598Z" stroke="#FF6161" stroke-width="40" mask="url(#path-1-outside-1_705_57)"/>
<path d="M288.643 125.248C289.143 125.881 289.943 127.065 291.043 128.798C292.343 130.865 292.993 132.615 292.993 134.048C292.993 135.215 292.61 136.098 291.843 136.698C291.076 137.265 290.176 137.548 289.143 137.548C288.176 137.548 287.193 137.148 286.193 136.348C285.226 135.548 284.21 134.465 283.143 133.098C282.01 131.598 281.26 130.531 280.893 129.898C280.46 130.065 279.976 130.231 279.443 130.398C279.21 132.898 278.743 134.715 278.043 135.848C277.343 136.981 276.276 137.548 274.843 137.548C273.376 137.548 272.21 136.948 271.343 135.748C270.476 134.548 269.843 132.681 269.443 130.148C269.076 127.615 268.893 124.265 268.893 120.098C268.893 116.131 269.01 112.948 269.243 110.548C269.51 108.115 270.076 106.198 270.943 104.798C271.81 103.365 273.11 102.648 274.843 102.648C276.276 102.648 277.343 103.148 278.043 104.148C278.776 105.148 279.243 106.531 279.443 108.298C279.676 110.031 279.793 112.365 279.793 115.298V118.448L279.943 118.348C281.876 117.048 283.576 116.031 285.043 115.298C286.543 114.565 287.893 114.198 289.093 114.198C290.46 114.198 291.526 114.665 292.293 115.598C293.093 116.498 293.493 117.515 293.493 118.648C293.493 119.848 293.093 120.948 292.293 121.948C291.493 122.948 290.276 124.048 288.643 125.248Z" stroke="#FF6161" stroke-width="40" mask="url(#path-1-outside-1_705_57)"/>
</g>
<defs>
<filter id="filter0_d_705_57" x="0" y="0.35199" width="453.431" height="165.296" filterUnits="userSpaceOnUse" color-interpolation-filters="sRGB">
<feFlood flood-opacity="0" result="BackgroundImageFix"/>
<feColorMatrix in="SourceAlpha" type="matrix" values="0 0 0 0 0 0 0 0 0 0 0 0 0 0 0 0 0 0 127 0" result="hardAlpha"/>
<feOffset dy="4"/>
<feGaussianBlur stdDeviation="2"/>
<feComposite in2="hardAlpha" operator="out"/>
<feColorMatrix type="matrix" values="0 0 0 0 0 0 0 0 0 0 0 0 0 0 0 0 0 0 0.25 0"/>
<feBlend mode="normal" in2="BackgroundImageFix" result="effect1_dropShadow_705_57"/>
<feBlend mode="normal" in="SourceGraphic" in2="effect1_dropShadow_705_57" result="shape"/>
</filter>
</defs>
</svg>
