<svg width="454" height="116" viewBox="0 0 454 116" fill="none" xmlns="http://www.w3.org/2000/svg">
<g filter="url(#filter0_d_705_56)">
<mask id="path-1-outside-1_705_56" maskUnits="userSpaceOnUse" x="4" y="0.30249" width="446" height="108" fill="black">
<rect fill="white" x="4" y="0.30249" width="446" height="108"/>
<path d="M37.536 87.6945C32.288 87.6945 28.704 84.6865 26.784 78.6705C24.928 72.6545 24 64.9745 24 55.6305C24 49.5505 25.088 43.8545 27.264 38.5425C29.504 33.1665 32.896 28.8465 37.44 25.5825C41.984 22.2545 47.52 20.5905 54.048 20.5905C59.296 20.5905 64.064 21.7105 68.352 23.9505C72.64 26.1265 76.032 29.2625 78.528 33.3585C81.088 37.4545 82.368 42.1905 82.368 47.5665C82.368 53.7745 81.12 58.9905 78.624 63.2145C76.128 67.4385 72.896 70.5745 68.928 72.6225C64.96 74.6705 60.768 75.6945 56.352 75.6945C52.768 75.6945 49.472 75.0865 46.464 73.8705C46.848 75.9185 47.04 77.4865 47.04 78.5745C47.04 84.6545 43.872 87.6945 37.536 87.6945ZM55.008 60.8145C57.312 60.8145 59.296 59.9825 60.96 58.3185C62.688 56.5905 63.552 54.6065 63.552 52.3665C63.552 50.0625 62.688 48.0785 60.96 46.4145C59.296 44.6865 57.312 43.8225 55.008 43.8225C52.768 43.8225 50.784 44.6865 49.056 46.4145C47.328 48.0785 46.464 50.0625 46.464 52.3665C46.464 54.6065 47.328 56.5905 49.056 58.3185C50.784 59.9825 52.768 60.8145 55.008 60.8145Z"/>
<path d="M102.592 87.5985C97.6005 87.5985 93.5045 86.4785 90.3045 84.2385C87.1045 81.9345 85.5045 78.6385 85.5045 74.3505C85.5045 70.6385 87.1365 67.6945 90.4005 65.5185C93.6645 63.3425 97.7285 62.2545 102.592 62.2545C104.384 62.2545 106.049 62.4145 107.585 62.7345C109.185 62.9905 110.273 63.3105 110.849 63.6945C110.849 62.0945 110.177 60.7825 108.833 59.7585C107.489 58.6705 105.44 58.1265 102.688 58.1265C101.472 58.1265 100.481 58.2225 99.7125 58.4145C98.9445 58.6065 98.1125 58.8945 97.2165 59.2785C96.3205 59.6625 95.4885 59.9505 94.7205 60.1425C94.0165 60.3345 93.0565 60.4305 91.8405 60.4305C89.7925 60.4305 88.1925 59.9185 87.0405 58.8945C85.8885 57.8065 85.3125 56.1745 85.3125 53.9985C85.3125 51.5025 86.2085 49.3905 88.0005 47.6625C89.8565 45.9345 92.1605 44.6545 94.9125 43.8225C97.6645 42.9265 100.417 42.4785 103.169 42.4785C108.609 42.4785 113.152 43.5025 116.8 45.5505C120.512 47.5345 123.233 50.1905 124.961 53.5185C126.753 56.8465 127.648 60.5265 127.648 64.5585C127.648 66.7345 127.457 68.7505 127.073 70.6065C126.753 72.4625 126.305 73.9025 125.729 74.9265C126.625 75.6945 127.296 76.5905 127.744 77.6145C128.257 78.6385 128.513 79.6945 128.513 80.7825C128.513 82.6385 127.872 84.2385 126.592 85.5825C125.376 86.9265 123.745 87.5985 121.697 87.5985C120.161 87.5985 118.913 87.3745 117.952 86.9265C116.993 86.4785 115.969 85.7745 114.881 84.8145C113.281 85.7745 111.521 86.4785 109.601 86.9265C107.745 87.3745 105.408 87.5985 102.592 87.5985ZM104.513 77.9025C105.857 77.9025 106.913 77.6145 107.681 77.0385C108.513 76.4625 108.929 75.7585 108.929 74.9265C108.929 74.0945 108.513 73.3905 107.681 72.8145C106.913 72.2385 105.857 71.9505 104.513 71.9505C103.169 71.9505 102.081 72.2385 101.249 72.8145C100.481 73.3905 100.097 74.0945 100.097 74.9265C100.097 75.7585 100.481 76.4625 101.249 77.0385C102.081 77.6145 103.169 77.9025 104.513 77.9025Z"/>
<path d="M149.869 87.5985C144.237 87.5985 139.758 86.6705 136.43 84.8145C133.102 82.9585 131.438 80.5585 131.438 77.6145C131.438 75.6945 132.077 74.2225 133.357 73.1985C134.701 72.1105 136.398 71.5665 138.446 71.5665C139.598 71.5665 140.525 71.7265 141.229 72.0465C141.934 72.3665 142.637 72.8145 143.341 73.3905C143.853 73.8385 144.27 74.1585 144.59 74.3505C144.974 74.5425 145.422 74.6385 145.934 74.6385C147.278 74.6385 147.95 74.1585 147.95 73.1985C147.95 72.3025 147.598 71.6305 146.894 71.1825C146.19 70.6705 144.973 70.0625 143.245 69.3585C141.645 68.7185 140.589 68.2705 140.077 68.0145C137.133 66.6065 134.957 64.9425 133.549 63.0225C132.141 61.1025 131.438 59.0545 131.438 56.8785C131.438 54.4465 132.302 52.1425 134.03 49.9665C135.822 47.7265 138.318 45.9345 141.518 44.5905C144.782 43.1825 148.525 42.4785 152.749 42.4785C156.397 42.4785 159.693 42.9905 162.637 44.0145C165.645 45.0385 168.014 46.4465 169.742 48.2385C171.47 49.9665 172.333 51.8865 172.333 53.9985C172.333 55.9825 171.693 57.4865 170.413 58.5105C169.197 59.5345 167.533 60.0465 165.421 60.0465C164.589 60.0465 163.918 59.9825 163.406 59.8545C162.958 59.6625 162.349 59.3745 161.581 58.9905C161.133 58.7345 160.653 58.5105 160.141 58.3185C159.693 58.1265 159.181 58.0305 158.605 58.0305C158.093 58.0305 157.646 58.2225 157.262 58.6065C156.878 58.9265 156.686 59.3425 156.686 59.8545C156.686 60.8145 157.39 61.5185 158.798 61.9665C162.51 63.1825 165.486 64.7185 167.726 66.5745C170.03 68.4305 171.182 70.9905 171.182 74.2545C171.182 78.4145 169.229 81.6785 165.326 84.0465C161.486 86.4145 156.333 87.5985 149.869 87.5985Z"/>
<path d="M193.651 87.5985C188.019 87.5985 183.539 86.6705 180.211 84.8145C176.883 82.9585 175.219 80.5585 175.219 77.6145C175.219 75.6945 175.859 74.2225 177.139 73.1985C178.483 72.1105 180.179 71.5665 182.227 71.5665C183.379 71.5665 184.307 71.7265 185.011 72.0465C185.715 72.3665 186.419 72.8145 187.123 73.3905C187.635 73.8385 188.051 74.1585 188.371 74.3505C188.755 74.5425 189.203 74.6385 189.715 74.6385C191.059 74.6385 191.731 74.1585 191.731 73.1985C191.731 72.3025 191.379 71.6305 190.675 71.1825C189.971 70.6705 188.755 70.0625 187.027 69.3585C185.427 68.7185 184.371 68.2705 183.859 68.0145C180.915 66.6065 178.739 64.9425 177.331 63.0225C175.923 61.1025 175.219 59.0545 175.219 56.8785C175.219 54.4465 176.083 52.1425 177.811 49.9665C179.603 47.7265 182.099 45.9345 185.299 44.5905C188.563 43.1825 192.307 42.4785 196.531 42.4785C200.179 42.4785 203.475 42.9905 206.419 44.0145C209.427 45.0385 211.795 46.4465 213.523 48.2385C215.251 49.9665 216.115 51.8865 216.115 53.9985C216.115 55.9825 215.475 57.4865 214.195 58.5105C212.979 59.5345 211.315 60.0465 209.203 60.0465C208.371 60.0465 207.699 59.9825 207.187 59.8545C206.739 59.6625 206.131 59.3745 205.363 58.9905C204.915 58.7345 204.435 58.5105 203.923 58.3185C203.475 58.1265 202.963 58.0305 202.387 58.0305C201.875 58.0305 201.427 58.2225 201.043 58.6065C200.659 58.9265 200.467 59.3425 200.467 59.8545C200.467 60.8145 201.171 61.5185 202.579 61.9665C206.291 63.1825 209.267 64.7185 211.507 66.5745C213.811 68.4305 214.963 70.9905 214.963 74.2545C214.963 78.4145 213.011 81.6785 209.107 84.0465C205.267 86.4145 200.115 87.5985 193.651 87.5985Z"/>
<path d="M237.432 87.6945C233.72 87.6945 230.456 86.7345 227.64 84.8145C224.888 82.8305 222.744 80.0465 221.208 76.4625C219.736 72.8785 219 68.7505 219 64.0785C219 60.6865 219.384 57.3265 220.152 53.9985C220.92 50.6705 222.136 47.9185 223.8 45.7425C225.528 43.5025 227.672 42.3825 230.232 42.3825C232.6 42.3825 234.424 43.1505 235.704 44.6865C236.984 46.2225 237.624 48.3025 237.624 50.9265C237.624 52.3345 237.272 54.3825 236.568 57.0705C236.504 57.4545 236.312 58.4145 235.992 59.9505C235.672 61.4225 235.512 62.7345 235.512 63.8865C235.512 66.1265 235.736 67.7265 236.184 68.6865C236.632 69.5825 237.56 70.0305 238.968 70.0305C240.44 70.0305 241.432 69.2305 241.944 67.6305C242.456 65.9665 242.712 63.5665 242.712 60.4305L242.616 53.2305C242.616 50.9905 243.192 49.1025 244.344 47.5665C245.56 46.0305 247.384 45.2625 249.816 45.2625C252.248 45.2625 254.104 46.0625 255.384 47.6625C256.664 49.1985 257.304 51.0545 257.304 53.2305L257.208 57.7425C257.144 58.7025 257.112 60.0785 257.112 61.8705C257.112 64.5585 257.368 66.6065 257.88 68.0145C258.456 69.3585 259.512 70.0305 261.048 70.0305C264.056 70.0305 265.56 67.9825 265.56 63.8865C265.56 62.6065 265.048 60.3665 264.024 57.1665C263.96 56.8465 263.704 55.9505 263.256 54.4785C262.808 53.0065 262.584 51.7585 262.584 50.7345C262.584 47.9825 263.128 45.9345 264.216 44.5905C265.368 43.1825 267.128 42.4785 269.496 42.4785C272.056 42.4785 274.168 43.5985 275.832 45.8385C277.56 48.0145 278.808 50.7665 279.576 54.0945C280.344 57.3585 280.728 60.6545 280.728 63.9825C280.728 71.0865 279.064 76.7825 275.736 81.0705C272.408 85.2945 267.928 87.4065 262.296 87.4065C259.736 87.4065 257.368 86.9265 255.192 85.9665C253.016 85.0065 251.224 83.6945 249.816 82.0305C248.344 83.7585 246.52 85.1345 244.344 86.1585C242.232 87.1825 239.928 87.6945 237.432 87.6945Z"/>
<path d="M307.688 87.6945C303.08 87.7585 298.951 86.7985 295.303 84.8145C291.719 82.8305 288.903 80.1105 286.855 76.6545C284.871 73.1345 283.816 69.2305 283.688 64.9425C283.623 60.6545 284.616 56.8145 286.664 53.4225C288.712 50.0305 291.559 47.3425 295.207 45.3585C298.919 43.3745 303.08 42.3825 307.688 42.3825C312.168 42.3825 316.2 43.3425 319.784 45.2625C323.432 47.1825 326.311 49.8705 328.423 53.3265C330.535 56.7825 331.656 60.6545 331.784 64.9425C331.848 69.1025 330.855 72.9105 328.807 76.3665C326.759 79.7585 323.88 82.4785 320.168 84.5265C316.52 86.5745 312.36 87.6305 307.688 87.6945ZM307.975 73.6785C309.703 73.6785 311.207 73.0065 312.487 71.6625C313.767 70.3185 314.408 68.7505 314.408 66.9585C314.408 65.1665 313.767 63.6305 312.487 62.3505C311.207 61.0065 309.703 60.3345 307.975 60.3345C306.247 60.3345 304.744 61.0065 303.464 62.3505C302.184 63.6305 301.543 65.1665 301.543 66.9585C301.543 68.7505 302.184 70.3185 303.464 71.6625C304.744 73.0065 306.247 73.6785 307.975 73.6785Z"/>
<path d="M345.897 87.5985C341.801 87.5985 339.049 85.1985 337.641 80.3985C336.297 75.5985 335.625 68.9745 335.625 60.5265C335.625 56.6865 335.785 53.4865 336.105 50.9265C336.489 48.3025 337.353 46.0945 338.697 44.3025C340.105 42.4465 342.249 41.5185 345.129 41.5185C346.921 41.5185 348.489 41.9345 349.833 42.7665C351.241 43.5985 352.137 44.7825 352.521 46.3185C353.929 45.0385 355.753 44.0785 357.993 43.4385C360.233 42.7985 362.633 42.4785 365.193 42.4785C367.241 42.4785 369.321 42.9905 371.433 44.0145C373.609 45.0385 375.401 46.4465 376.809 48.2385C378.281 49.9665 379.017 51.8545 379.017 53.9025C379.017 55.9505 378.281 57.7745 376.809 59.3745C375.401 60.9105 373.513 61.6785 371.145 61.6785C370.377 61.6785 369.641 61.5825 368.937 61.3905C368.297 61.1985 367.721 61.0065 367.209 60.8145C365.929 60.3025 364.905 60.0465 364.137 60.0465C361.641 60.0465 359.433 61.0385 357.513 63.0225C355.657 64.9425 354.729 67.4385 354.729 70.5105C354.729 73.9025 354.601 76.7185 354.345 78.9585C354.089 81.1985 353.321 83.2145 352.041 85.0065C350.761 86.7345 348.713 87.5985 345.897 87.5985Z"/>
<path d="M401.879 87.5985C397.335 87.5985 393.303 86.5105 389.783 84.3345C386.327 82.0945 383.671 79.2145 381.815 75.6945C379.959 72.1105 379.031 68.3025 379.031 64.2705C379.031 59.5345 379.991 55.5345 381.911 52.2705C383.895 48.9425 386.423 46.4785 389.495 44.8785C392.631 43.2785 395.991 42.4785 399.575 42.4785C403.159 42.4785 406.359 43.2465 409.175 44.7825C409.047 43.4385 408.791 41.9985 408.407 40.4625C408.087 38.9265 407.863 37.9665 407.735 37.5825C407.223 35.5985 406.839 33.9345 406.583 32.5905C406.327 31.2465 406.199 29.9025 406.199 28.5585C406.199 25.8705 406.999 23.8225 408.599 22.4145C410.199 21.0065 412.119 20.3025 414.359 20.3025C417.943 20.3025 420.855 22.0945 423.095 25.6785C425.335 29.2625 426.935 33.7105 427.895 39.0225C428.919 44.3345 429.431 49.7105 429.431 55.1505C429.431 62.5105 427.735 69.7745 424.343 76.9425C421.015 84.0465 413.527 87.5985 401.879 87.5985ZM402.455 72.4305C404.183 72.4305 405.687 71.7905 406.967 70.5105C408.247 69.1665 408.887 67.5985 408.887 65.8065C408.887 64.0145 408.247 62.4465 406.967 61.1025C405.687 59.7585 404.183 59.0865 402.455 59.0865C400.727 59.0865 399.191 59.7585 397.847 61.1025C396.567 62.4465 395.927 64.0145 395.927 65.8065C395.927 67.5985 396.567 69.1665 397.847 70.5105C399.191 71.7905 400.727 72.4305 402.455 72.4305Z"/>
</mask>
<path d="M37.536 87.6945C32.288 87.6945 28.704 84.6865 26.784 78.6705C24.928 72.6545 24 64.9745 24 55.6305C24 49.5505 25.088 43.8545 27.264 38.5425C29.504 33.1665 32.896 28.8465 37.44 25.5825C41.984 22.2545 47.52 20.5905 54.048 20.5905C59.296 20.5905 64.064 21.7105 68.352 23.9505C72.64 26.1265 76.032 29.2625 78.528 33.3585C81.088 37.4545 82.368 42.1905 82.368 47.5665C82.368 53.7745 81.12 58.9905 78.624 63.2145C76.128 67.4385 72.896 70.5745 68.928 72.6225C64.96 74.6705 60.768 75.6945 56.352 75.6945C52.768 75.6945 49.472 75.0865 46.464 73.8705C46.848 75.9185 47.04 77.4865 47.04 78.5745C47.04 84.6545 43.872 87.6945 37.536 87.6945ZM55.008 60.8145C57.312 60.8145 59.296 59.9825 60.96 58.3185C62.688 56.5905 63.552 54.6065 63.552 52.3665C63.552 50.0625 62.688 48.0785 60.96 46.4145C59.296 44.6865 57.312 43.8225 55.008 43.8225C52.768 43.8225 50.784 44.6865 49.056 46.4145C47.328 48.0785 46.464 50.0625 46.464 52.3665C46.464 54.6065 47.328 56.5905 49.056 58.3185C50.784 59.9825 52.768 60.8145 55.008 60.8145Z" fill="white"/>
<path d="M102.592 87.5985C97.6005 87.5985 93.5045 86.4785 90.3045 84.2385C87.1045 81.9345 85.5045 78.6385 85.5045 74.3505C85.5045 70.6385 87.1365 67.6945 90.4005 65.5185C93.6645 63.3425 97.7285 62.2545 102.592 62.2545C104.384 62.2545 106.049 62.4145 107.585 62.7345C109.185 62.9905 110.273 63.3105 110.849 63.6945C110.849 62.0945 110.177 60.7825 108.833 59.7585C107.489 58.6705 105.44 58.1265 102.688 58.1265C101.472 58.1265 100.481 58.2225 99.7125 58.4145C98.9445 58.6065 98.1125 58.8945 97.2165 59.2785C96.3205 59.6625 95.4885 59.9505 94.7205 60.1425C94.0165 60.3345 93.0565 60.4305 91.8405 60.4305C89.7925 60.4305 88.1925 59.9185 87.0405 58.8945C85.8885 57.8065 85.3125 56.1745 85.3125 53.9985C85.3125 51.5025 86.2085 49.3905 88.0005 47.6625C89.8565 45.9345 92.1605 44.6545 94.9125 43.8225C97.6645 42.9265 100.417 42.4785 103.169 42.4785C108.609 42.4785 113.152 43.5025 116.8 45.5505C120.512 47.5345 123.233 50.1905 124.961 53.5185C126.753 56.8465 127.648 60.5265 127.648 64.5585C127.648 66.7345 127.457 68.7505 127.073 70.6065C126.753 72.4625 126.305 73.9025 125.729 74.9265C126.625 75.6945 127.296 76.5905 127.744 77.6145C128.257 78.6385 128.513 79.6945 128.513 80.7825C128.513 82.6385 127.872 84.2385 126.592 85.5825C125.376 86.9265 123.745 87.5985 121.697 87.5985C120.161 87.5985 118.913 87.3745 117.952 86.9265C116.993 86.4785 115.969 85.7745 114.881 84.8145C113.281 85.7745 111.521 86.4785 109.601 86.9265C107.745 87.3745 105.408 87.5985 102.592 87.5985ZM104.513 77.9025C105.857 77.9025 106.913 77.6145 107.681 77.0385C108.513 76.4625 108.929 75.7585 108.929 74.9265C108.929 74.0945 108.513 73.3905 107.681 72.8145C106.913 72.2385 105.857 71.9505 104.513 71.9505C103.169 71.9505 102.081 72.2385 101.249 72.8145C100.481 73.3905 100.097 74.0945 100.097 74.9265C100.097 75.7585 100.481 76.4625 101.249 77.0385C102.081 77.6145 103.169 77.9025 104.513 77.9025Z" fill="white"/>
<path d="M149.869 87.5985C144.237 87.5985 139.758 86.6705 136.43 84.8145C133.102 82.9585 131.438 80.5585 131.438 77.6145C131.438 75.6945 132.077 74.2225 133.357 73.1985C134.701 72.1105 136.398 71.5665 138.446 71.5665C139.598 71.5665 140.525 71.7265 141.229 72.0465C141.934 72.3665 142.637 72.8145 143.341 73.3905C143.853 73.8385 144.27 74.1585 144.59 74.3505C144.974 74.5425 145.422 74.6385 145.934 74.6385C147.278 74.6385 147.95 74.1585 147.95 73.1985C147.95 72.3025 147.598 71.6305 146.894 71.1825C146.19 70.6705 144.973 70.0625 143.245 69.3585C141.645 68.7185 140.589 68.2705 140.077 68.0145C137.133 66.6065 134.957 64.9425 133.549 63.0225C132.141 61.1025 131.438 59.0545 131.438 56.8785C131.438 54.4465 132.302 52.1425 134.03 49.9665C135.822 47.7265 138.318 45.9345 141.518 44.5905C144.782 43.1825 148.525 42.4785 152.749 42.4785C156.397 42.4785 159.693 42.9905 162.637 44.0145C165.645 45.0385 168.014 46.4465 169.742 48.2385C171.47 49.9665 172.333 51.8865 172.333 53.9985C172.333 55.9825 171.693 57.4865 170.413 58.5105C169.197 59.5345 167.533 60.0465 165.421 60.0465C164.589 60.0465 163.918 59.9825 163.406 59.8545C162.958 59.6625 162.349 59.3745 161.581 58.9905C161.133 58.7345 160.653 58.5105 160.141 58.3185C159.693 58.1265 159.181 58.0305 158.605 58.0305C158.093 58.0305 157.646 58.2225 157.262 58.6065C156.878 58.9265 156.686 59.3425 156.686 59.8545C156.686 60.8145 157.39 61.5185 158.798 61.9665C162.51 63.1825 165.486 64.7185 167.726 66.5745C170.03 68.4305 171.182 70.9905 171.182 74.2545C171.182 78.4145 169.229 81.6785 165.326 84.0465C161.486 86.4145 156.333 87.5985 149.869 87.5985Z" fill="white"/>
<path d="M193.651 87.5985C188.019 87.5985 183.539 86.6705 180.211 84.8145C176.883 82.9585 175.219 80.5585 175.219 77.6145C175.219 75.6945 175.859 74.2225 177.139 73.1985C178.483 72.1105 180.179 71.5665 182.227 71.5665C183.379 71.5665 184.307 71.7265 185.011 72.0465C185.715 72.3665 186.419 72.8145 187.123 73.3905C187.635 73.8385 188.051 74.1585 188.371 74.3505C188.755 74.5425 189.203 74.6385 189.715 74.6385C191.059 74.6385 191.731 74.1585 191.731 73.1985C191.731 72.3025 191.379 71.6305 190.675 71.1825C189.971 70.6705 188.755 70.0625 187.027 69.3585C185.427 68.7185 184.371 68.2705 183.859 68.0145C180.915 66.6065 178.739 64.9425 177.331 63.0225C175.923 61.1025 175.219 59.0545 175.219 56.8785C175.219 54.4465 176.083 52.1425 177.811 49.9665C179.603 47.7265 182.099 45.9345 185.299 44.5905C188.563 43.1825 192.307 42.4785 196.531 42.4785C200.179 42.4785 203.475 42.9905 206.419 44.0145C209.427 45.0385 211.795 46.4465 213.523 48.2385C215.251 49.9665 216.115 51.8865 216.115 53.9985C216.115 55.9825 215.475 57.4865 214.195 58.5105C212.979 59.5345 211.315 60.0465 209.203 60.0465C208.371 60.0465 207.699 59.9825 207.187 59.8545C206.739 59.6625 206.131 59.3745 205.363 58.9905C204.915 58.7345 204.435 58.5105 203.923 58.3185C203.475 58.1265 202.963 58.0305 202.387 58.0305C201.875 58.0305 201.427 58.2225 201.043 58.6065C200.659 58.9265 200.467 59.3425 200.467 59.8545C200.467 60.8145 201.171 61.5185 202.579 61.9665C206.291 63.1825 209.267 64.7185 211.507 66.5745C213.811 68.4305 214.963 70.9905 214.963 74.2545C214.963 78.4145 213.011 81.6785 209.107 84.0465C205.267 86.4145 200.115 87.5985 193.651 87.5985Z" fill="white"/>
<path d="M237.432 87.6945C233.72 87.6945 230.456 86.7345 227.64 84.8145C224.888 82.8305 222.744 80.0465 221.208 76.4625C219.736 72.8785 219 68.7505 219 64.0785C219 60.6865 219.384 57.3265 220.152 53.9985C220.92 50.6705 222.136 47.9185 223.8 45.7425C225.528 43.5025 227.672 42.3825 230.232 42.3825C232.6 42.3825 234.424 43.1505 235.704 44.6865C236.984 46.2225 237.624 48.3025 237.624 50.9265C237.624 52.3345 237.272 54.3825 236.568 57.0705C236.504 57.4545 236.312 58.4145 235.992 59.9505C235.672 61.4225 235.512 62.7345 235.512 63.8865C235.512 66.1265 235.736 67.7265 236.184 68.6865C236.632 69.5825 237.56 70.0305 238.968 70.0305C240.44 70.0305 241.432 69.2305 241.944 67.6305C242.456 65.9665 242.712 63.5665 242.712 60.4305L242.616 53.2305C242.616 50.9905 243.192 49.1025 244.344 47.5665C245.56 46.0305 247.384 45.2625 249.816 45.2625C252.248 45.2625 254.104 46.0625 255.384 47.6625C256.664 49.1985 257.304 51.0545 257.304 53.2305L257.208 57.7425C257.144 58.7025 257.112 60.0785 257.112 61.8705C257.112 64.5585 257.368 66.6065 257.88 68.0145C258.456 69.3585 259.512 70.0305 261.048 70.0305C264.056 70.0305 265.56 67.9825 265.56 63.8865C265.56 62.6065 265.048 60.3665 264.024 57.1665C263.96 56.8465 263.704 55.9505 263.256 54.4785C262.808 53.0065 262.584 51.7585 262.584 50.7345C262.584 47.9825 263.128 45.9345 264.216 44.5905C265.368 43.1825 267.128 42.4785 269.496 42.4785C272.056 42.4785 274.168 43.5985 275.832 45.8385C277.56 48.0145 278.808 50.7665 279.576 54.0945C280.344 57.3585 280.728 60.6545 280.728 63.9825C280.728 71.0865 279.064 76.7825 275.736 81.0705C272.408 85.2945 267.928 87.4065 262.296 87.4065C259.736 87.4065 257.368 86.9265 255.192 85.9665C253.016 85.0065 251.224 83.6945 249.816 82.0305C248.344 83.7585 246.52 85.1345 244.344 86.1585C242.232 87.1825 239.928 87.6945 237.432 87.6945Z" fill="white"/>
<path d="M307.688 87.6945C303.08 87.7585 298.951 86.7985 295.303 84.8145C291.719 82.8305 288.903 80.1105 286.855 76.6545C284.871 73.1345 283.816 69.2305 283.688 64.9425C283.623 60.6545 284.616 56.8145 286.664 53.4225C288.712 50.0305 291.559 47.3425 295.207 45.3585C298.919 43.3745 303.08 42.3825 307.688 42.3825C312.168 42.3825 316.2 43.3425 319.784 45.2625C323.432 47.1825 326.311 49.8705 328.423 53.3265C330.535 56.7825 331.656 60.6545 331.784 64.9425C331.848 69.1025 330.855 72.9105 328.807 76.3665C326.759 79.7585 323.88 82.4785 320.168 84.5265C316.52 86.5745 312.36 87.6305 307.688 87.6945ZM307.975 73.6785C309.703 73.6785 311.207 73.0065 312.487 71.6625C313.767 70.3185 314.408 68.7505 314.408 66.9585C314.408 65.1665 313.767 63.6305 312.487 62.3505C311.207 61.0065 309.703 60.3345 307.975 60.3345C306.247 60.3345 304.744 61.0065 303.464 62.3505C302.184 63.6305 301.543 65.1665 301.543 66.9585C301.543 68.7505 302.184 70.3185 303.464 71.6625C304.744 73.0065 306.247 73.6785 307.975 73.6785Z" fill="white"/>
<path d="M345.897 87.5985C341.801 87.5985 339.049 85.1985 337.641 80.3985C336.297 75.5985 335.625 68.9745 335.625 60.5265C335.625 56.6865 335.785 53.4865 336.105 50.9265C336.489 48.3025 337.353 46.0945 338.697 44.3025C340.105 42.4465 342.249 41.5185 345.129 41.5185C346.921 41.5185 348.489 41.9345 349.833 42.7665C351.241 43.5985 352.137 44.7825 352.521 46.3185C353.929 45.0385 355.753 44.0785 357.993 43.4385C360.233 42.7985 362.633 42.4785 365.193 42.4785C367.241 42.4785 369.321 42.9905 371.433 44.0145C373.609 45.0385 375.401 46.4465 376.809 48.2385C378.281 49.9665 379.017 51.8545 379.017 53.9025C379.017 55.9505 378.281 57.7745 376.809 59.3745C375.401 60.9105 373.513 61.6785 371.145 61.6785C370.377 61.6785 369.641 61.5825 368.937 61.3905C368.297 61.1985 367.721 61.0065 367.209 60.8145C365.929 60.3025 364.905 60.0465 364.137 60.0465C361.641 60.0465 359.433 61.0385 357.513 63.0225C355.657 64.9425 354.729 67.4385 354.729 70.5105C354.729 73.9025 354.601 76.7185 354.345 78.9585C354.089 81.1985 353.321 83.2145 352.041 85.0065C350.761 86.7345 348.713 87.5985 345.897 87.5985Z" fill="white"/>
<path d="M401.879 87.5985C397.335 87.5985 393.303 86.5105 389.783 84.3345C386.327 82.0945 383.671 79.2145 381.815 75.6945C379.959 72.1105 379.031 68.3025 379.031 64.2705C379.031 59.5345 379.991 55.5345 381.911 52.2705C383.895 48.9425 386.423 46.4785 389.495 44.8785C392.631 43.2785 395.991 42.4785 399.575 42.4785C403.159 42.4785 406.359 43.2465 409.175 44.7825C409.047 43.4385 408.791 41.9985 408.407 40.4625C408.087 38.9265 407.863 37.9665 407.735 37.5825C407.223 35.5985 406.839 33.9345 406.583 32.5905C406.327 31.2465 406.199 29.9025 406.199 28.5585C406.199 25.8705 406.999 23.8225 408.599 22.4145C410.199 21.0065 412.119 20.3025 414.359 20.3025C417.943 20.3025 420.855 22.0945 423.095 25.6785C425.335 29.2625 426.935 33.7105 427.895 39.0225C428.919 44.3345 429.431 49.7105 429.431 55.1505C429.431 62.5105 427.735 69.7745 424.343 76.9425C421.015 84.0465 413.527 87.5985 401.879 87.5985ZM402.455 72.4305C404.183 72.4305 405.687 71.7905 406.967 70.5105C408.247 69.1665 408.887 67.5985 408.887 65.8065C408.887 64.0145 408.247 62.4465 406.967 61.1025C405.687 59.7585 404.183 59.0865 402.455 59.0865C400.727 59.0865 399.191 59.7585 397.847 61.1025C396.567 62.4465 395.927 64.0145 395.927 65.8065C395.927 67.5985 396.567 69.1665 397.847 70.5105C399.191 71.7905 400.727 72.4305 402.455 72.4305Z" fill="white"/>
<path d="M37.536 87.6945C32.288 87.6945 28.704 84.6865 26.784 78.6705C24.928 72.6545 24 64.9745 24 55.6305C24 49.5505 25.088 43.8545 27.264 38.5425C29.504 33.1665 32.896 28.8465 37.44 25.5825C41.984 22.2545 47.52 20.5905 54.048 20.5905C59.296 20.5905 64.064 21.7105 68.352 23.9505C72.64 26.1265 76.032 29.2625 78.528 33.3585C81.088 37.4545 82.368 42.1905 82.368 47.5665C82.368 53.7745 81.12 58.9905 78.624 63.2145C76.128 67.4385 72.896 70.5745 68.928 72.6225C64.96 74.6705 60.768 75.6945 56.352 75.6945C52.768 75.6945 49.472 75.0865 46.464 73.8705C46.848 75.9185 47.04 77.4865 47.04 78.5745C47.04 84.6545 43.872 87.6945 37.536 87.6945ZM55.008 60.8145C57.312 60.8145 59.296 59.9825 60.96 58.3185C62.688 56.5905 63.552 54.6065 63.552 52.3665C63.552 50.0625 62.688 48.0785 60.96 46.4145C59.296 44.6865 57.312 43.8225 55.008 43.8225C52.768 43.8225 50.784 44.6865 49.056 46.4145C47.328 48.0785 46.464 50.0625 46.464 52.3665C46.464 54.6065 47.328 56.5905 49.056 58.3185C50.784 59.9825 52.768 60.8145 55.008 60.8145Z" stroke="#FF6161" stroke-width="40" mask="url(#path-1-outside-1_705_56)"/>
<path d="M102.592 87.5985C97.6005 87.5985 93.5045 86.4785 90.3045 84.2385C87.1045 81.9345 85.5045 78.6385 85.5045 74.3505C85.5045 70.6385 87.1365 67.6945 90.4005 65.5185C93.6645 63.3425 97.7285 62.2545 102.592 62.2545C104.384 62.2545 106.049 62.4145 107.585 62.7345C109.185 62.9905 110.273 63.3105 110.849 63.6945C110.849 62.0945 110.177 60.7825 108.833 59.7585C107.489 58.6705 105.44 58.1265 102.688 58.1265C101.472 58.1265 100.481 58.2225 99.7125 58.4145C98.9445 58.6065 98.1125 58.8945 97.2165 59.2785C96.3205 59.6625 95.4885 59.9505 94.7205 60.1425C94.0165 60.3345 93.0565 60.4305 91.8405 60.4305C89.7925 60.4305 88.1925 59.9185 87.0405 58.8945C85.8885 57.8065 85.3125 56.1745 85.3125 53.9985C85.3125 51.5025 86.2085 49.3905 88.0005 47.6625C89.8565 45.9345 92.1605 44.6545 94.9125 43.8225C97.6645 42.9265 100.417 42.4785 103.169 42.4785C108.609 42.4785 113.152 43.5025 116.8 45.5505C120.512 47.5345 123.233 50.1905 124.961 53.5185C126.753 56.8465 127.648 60.5265 127.648 64.5585C127.648 66.7345 127.457 68.7505 127.073 70.6065C126.753 72.4625 126.305 73.9025 125.729 74.9265C126.625 75.6945 127.296 76.5905 127.744 77.6145C128.257 78.6385 128.513 79.6945 128.513 80.7825C128.513 82.6385 127.872 84.2385 126.592 85.5825C125.376 86.9265 123.745 87.5985 121.697 87.5985C120.161 87.5985 118.913 87.3745 117.952 86.9265C116.993 86.4785 115.969 85.7745 114.881 84.8145C113.281 85.7745 111.521 86.4785 109.601 86.9265C107.745 87.3745 105.408 87.5985 102.592 87.5985ZM104.513 77.9025C105.857 77.9025 106.913 77.6145 107.681 77.0385C108.513 76.4625 108.929 75.7585 108.929 74.9265C108.929 74.0945 108.513 73.3905 107.681 72.8145C106.913 72.2385 105.857 71.9505 104.513 71.9505C103.169 71.9505 102.081 72.2385 101.249 72.8145C100.481 73.3905 100.097 74.0945 100.097 74.9265C100.097 75.7585 100.481 76.4625 101.249 77.0385C102.081 77.6145 103.169 77.9025 104.513 77.9025Z" stroke="#FF6161" stroke-width="40" mask="url(#path-1-outside-1_705_56)"/>
<path d="M149.869 87.5985C144.237 87.5985 139.758 86.6705 136.43 84.8145C133.102 82.9585 131.438 80.5585 131.438 77.6145C131.438 75.6945 132.077 74.2225 133.357 73.1985C134.701 72.1105 136.398 71.5665 138.446 71.5665C139.598 71.5665 140.525 71.7265 141.229 72.0465C141.934 72.3665 142.637 72.8145 143.341 73.3905C143.853 73.8385 144.27 74.1585 144.59 74.3505C144.974 74.5425 145.422 74.6385 145.934 74.6385C147.278 74.6385 147.95 74.1585 147.95 73.1985C147.95 72.3025 147.598 71.6305 146.894 71.1825C146.19 70.6705 144.973 70.0625 143.245 69.3585C141.645 68.7185 140.589 68.2705 140.077 68.0145C137.133 66.6065 134.957 64.9425 133.549 63.0225C132.141 61.1025 131.438 59.0545 131.438 56.8785C131.438 54.4465 132.302 52.1425 134.03 49.9665C135.822 47.7265 138.318 45.9345 141.518 44.5905C144.782 43.1825 148.525 42.4785 152.749 42.4785C156.397 42.4785 159.693 42.9905 162.637 44.0145C165.645 45.0385 168.014 46.4465 169.742 48.2385C171.47 49.9665 172.333 51.8865 172.333 53.9985C172.333 55.9825 171.693 57.4865 170.413 58.5105C169.197 59.5345 167.533 60.0465 165.421 60.0465C164.589 60.0465 163.918 59.9825 163.406 59.8545C162.958 59.6625 162.349 59.3745 161.581 58.9905C161.133 58.7345 160.653 58.5105 160.141 58.3185C159.693 58.1265 159.181 58.0305 158.605 58.0305C158.093 58.0305 157.646 58.2225 157.262 58.6065C156.878 58.9265 156.686 59.3425 156.686 59.8545C156.686 60.8145 157.39 61.5185 158.798 61.9665C162.51 63.1825 165.486 64.7185 167.726 66.5745C170.03 68.4305 171.182 70.9905 171.182 74.2545C171.182 78.4145 169.229 81.6785 165.326 84.0465C161.486 86.4145 156.333 87.5985 149.869 87.5985Z" stroke="#FF6161" stroke-width="40" mask="url(#path-1-outside-1_705_56)"/>
<path d="M193.651 87.5985C188.019 87.5985 183.539 86.6705 180.211 84.8145C176.883 82.9585 175.219 80.5585 175.219 77.6145C175.219 75.6945 175.859 74.2225 177.139 73.1985C178.483 72.1105 180.179 71.5665 182.227 71.5665C183.379 71.5665 184.307 71.7265 185.011 72.0465C185.715 72.3665 186.419 72.8145 187.123 73.3905C187.635 73.8385 188.051 74.1585 188.371 74.3505C188.755 74.5425 189.203 74.6385 189.715 74.6385C191.059 74.6385 191.731 74.1585 191.731 73.1985C191.731 72.3025 191.379 71.6305 190.675 71.1825C189.971 70.6705 188.755 70.0625 187.027 69.3585C185.427 68.7185 184.371 68.2705 183.859 68.0145C180.915 66.6065 178.739 64.9425 177.331 63.0225C175.923 61.1025 175.219 59.0545 175.219 56.8785C175.219 54.4465 176.083 52.1425 177.811 49.9665C179.603 47.7265 182.099 45.9345 185.299 44.5905C188.563 43.1825 192.307 42.4785 196.531 42.4785C200.179 42.4785 203.475 42.9905 206.419 44.0145C209.427 45.0385 211.795 46.4465 213.523 48.2385C215.251 49.9665 216.115 51.8865 216.115 53.9985C216.115 55.9825 215.475 57.4865 214.195 58.5105C212.979 59.5345 211.315 60.0465 209.203 60.0465C208.371 60.0465 207.699 59.9825 207.187 59.8545C206.739 59.6625 206.131 59.3745 205.363 58.9905C204.915 58.7345 204.435 58.5105 203.923 58.3185C203.475 58.1265 202.963 58.0305 202.387 58.0305C201.875 58.0305 201.427 58.2225 201.043 58.6065C200.659 58.9265 200.467 59.3425 200.467 59.8545C200.467 60.8145 201.171 61.5185 202.579 61.9665C206.291 63.1825 209.267 64.7185 211.507 66.5745C213.811 68.4305 214.963 70.9905 214.963 74.2545C214.963 78.4145 213.011 81.6785 209.107 84.0465C205.267 86.4145 200.115 87.5985 193.651 87.5985Z" stroke="#FF6161" stroke-width="40" mask="url(#path-1-outside-1_705_56)"/>
<path d="M237.432 87.6945C233.72 87.6945 230.456 86.7345 227.64 84.8145C224.888 82.8305 222.744 80.0465 221.208 76.4625C219.736 72.8785 219 68.7505 219 64.0785C219 60.6865 219.384 57.3265 220.152 53.9985C220.92 50.6705 222.136 47.9185 223.8 45.7425C225.528 43.5025 227.672 42.3825 230.232 42.3825C232.6 42.3825 234.424 43.1505 235.704 44.6865C236.984 46.2225 237.624 48.3025 237.624 50.9265C237.624 52.3345 237.272 54.3825 236.568 57.0705C236.504 57.4545 236.312 58.4145 235.992 59.9505C235.672 61.4225 235.512 62.7345 235.512 63.8865C235.512 66.1265 235.736 67.7265 236.184 68.6865C236.632 69.5825 237.56 70.0305 238.968 70.0305C240.44 70.0305 241.432 69.2305 241.944 67.6305C242.456 65.9665 242.712 63.5665 242.712 60.4305L242.616 53.2305C242.616 50.9905 243.192 49.1025 244.344 47.5665C245.56 46.0305 247.384 45.2625 249.816 45.2625C252.248 45.2625 254.104 46.0625 255.384 47.6625C256.664 49.1985 257.304 51.0545 257.304 53.2305L257.208 57.7425C257.144 58.7025 257.112 60.0785 257.112 61.8705C257.112 64.5585 257.368 66.6065 257.88 68.0145C258.456 69.3585 259.512 70.0305 261.048 70.0305C264.056 70.0305 265.56 67.9825 265.56 63.8865C265.56 62.6065 265.048 60.3665 264.024 57.1665C263.96 56.8465 263.704 55.9505 263.256 54.4785C262.808 53.0065 262.584 51.7585 262.584 50.7345C262.584 47.9825 263.128 45.9345 264.216 44.5905C265.368 43.1825 267.128 42.4785 269.496 42.4785C272.056 42.4785 274.168 43.5985 275.832 45.8385C277.56 48.0145 278.808 50.7665 279.576 54.0945C280.344 57.3585 280.728 60.6545 280.728 63.9825C280.728 71.0865 279.064 76.7825 275.736 81.0705C272.408 85.2945 267.928 87.4065 262.296 87.4065C259.736 87.4065 257.368 86.9265 255.192 85.9665C253.016 85.0065 251.224 83.6945 249.816 82.0305C248.344 83.7585 246.52 85.1345 244.344 86.1585C242.232 87.1825 239.928 87.6945 237.432 87.6945Z" stroke="#FF6161" stroke-width="40" mask="url(#path-1-outside-1_705_56)"/>
<path d="M307.688 87.6945C303.08 87.7585 298.951 86.7985 295.303 84.8145C291.719 82.8305 288.903 80.1105 286.855 76.6545C284.871 73.1345 283.816 69.2305 283.688 64.9425C283.623 60.6545 284.616 56.8145 286.664 53.4225C288.712 50.0305 291.559 47.3425 295.207 45.3585C298.919 43.3745 303.08 42.3825 307.688 42.3825C312.168 42.3825 316.2 43.3425 319.784 45.2625C323.432 47.1825 326.311 49.8705 328.423 53.3265C330.535 56.7825 331.656 60.6545 331.784 64.9425C331.848 69.1025 330.855 72.9105 328.807 76.3665C326.759 79.7585 323.88 82.4785 320.168 84.5265C316.52 86.5745 312.36 87.6305 307.688 87.6945ZM307.975 73.6785C309.703 73.6785 311.207 73.0065 312.487 71.6625C313.767 70.3185 314.408 68.7505 314.408 66.9585C314.408 65.1665 313.767 63.6305 312.487 62.3505C311.207 61.0065 309.703 60.3345 307.975 60.3345C306.247 60.3345 304.744 61.0065 303.464 62.3505C302.184 63.6305 301.543 65.1665 301.543 66.9585C301.543 68.7505 302.184 70.3185 303.464 71.6625C304.744 73.0065 306.247 73.6785 307.975 73.6785Z" stroke="#FF6161" stroke-width="40" mask="url(#path-1-outside-1_705_56)"/>
<path d="M345.897 87.5985C341.801 87.5985 339.049 85.1985 337.641 80.3985C336.297 75.5985 335.625 68.9745 335.625 60.5265C335.625 56.6865 335.785 53.4865 336.105 50.9265C336.489 48.3025 337.353 46.0945 338.697 44.3025C340.105 42.4465 342.249 41.5185 345.129 41.5185C346.921 41.5185 348.489 41.9345 349.833 42.7665C351.241 43.5985 352.137 44.7825 352.521 46.3185C353.929 45.0385 355.753 44.0785 357.993 43.4385C360.233 42.7985 362.633 42.4785 365.193 42.4785C367.241 42.4785 369.321 42.9905 371.433 44.0145C373.609 45.0385 375.401 46.4465 376.809 48.2385C378.281 49.9665 379.017 51.8545 379.017 53.9025C379.017 55.9505 378.281 57.7745 376.809 59.3745C375.401 60.9105 373.513 61.6785 371.145 61.6785C370.377 61.6785 369.641 61.5825 368.937 61.3905C368.297 61.1985 367.721 61.0065 367.209 60.8145C365.929 60.3025 364.905 60.0465 364.137 60.0465C361.641 60.0465 359.433 61.0385 357.513 63.0225C355.657 64.9425 354.729 67.4385 354.729 70.5105C354.729 73.9025 354.601 76.7185 354.345 78.9585C354.089 81.1985 353.321 83.2145 352.041 85.0065C350.761 86.7345 348.713 87.5985 345.897 87.5985Z" stroke="#FF6161" stroke-width="40" mask="url(#path-1-outside-1_705_56)"/>
<path d="M401.879 87.5985C397.335 87.5985 393.303 86.5105 389.783 84.3345C386.327 82.0945 383.671 79.2145 381.815 75.6945C379.959 72.1105 379.031 68.3025 379.031 64.2705C379.031 59.5345 379.991 55.5345 381.911 52.2705C383.895 48.9425 386.423 46.4785 389.495 44.8785C392.631 43.2785 395.991 42.4785 399.575 42.4785C403.159 42.4785 406.359 43.2465 409.175 44.7825C409.047 43.4385 408.791 41.9985 408.407 40.4625C408.087 38.9265 407.863 37.9665 407.735 37.5825C407.223 35.5985 406.839 33.9345 406.583 32.5905C406.327 31.2465 406.199 29.9025 406.199 28.5585C406.199 25.8705 406.999 23.8225 408.599 22.4145C410.199 21.0065 412.119 20.3025 414.359 20.3025C417.943 20.3025 420.855 22.0945 423.095 25.6785C425.335 29.2625 426.935 33.7105 427.895 39.0225C428.919 44.3345 429.431 49.7105 429.431 55.1505C429.431 62.5105 427.735 69.7745 424.343 76.9425C421.015 84.0465 413.527 87.5985 401.879 87.5985ZM402.455 72.4305C404.183 72.4305 405.687 71.7905 406.967 70.5105C408.247 69.1665 408.887 67.5985 408.887 65.8065C408.887 64.0145 408.247 62.4465 406.967 61.1025C405.687 59.7585 404.183 59.0865 402.455 59.0865C400.727 59.0865 399.191 59.7585 397.847 61.1025C396.567 62.4465 395.927 64.0145 395.927 65.8065C395.927 67.5985 396.567 69.1665 397.847 70.5105C399.191 71.7905 400.727 72.4305 402.455 72.4305Z" stroke="#FF6161" stroke-width="40" mask="url(#path-1-outside-1_705_56)"/>
</g>
<defs>
<filter id="filter0_d_705_56" x="0" y="0.30249" width="453.431" height="115.395" filterUnits="userSpaceOnUse" color-interpolation-filters="sRGB">
<feFlood flood-opacity="0" result="BackgroundImageFix"/>
<feColorMatrix in="SourceAlpha" type="matrix" values="0 0 0 0 0 0 0 0 0 0 0 0 0 0 0 0 0 0 127 0" result="hardAlpha"/>
<feOffset dy="4"/>
<feGaussianBlur stdDeviation="2"/>
<feComposite in2="hardAlpha" operator="out"/>
<feColorMatrix type="matrix" values="0 0 0 0 0 0 0 0 0 0 0 0 0 0 0 0 0 0 0.25 0"/>
<feBlend mode="normal" in2="BackgroundImageFix" result="effect1_dropShadow_705_56"/>
<feBlend mode="normal" in="SourceGraphic" in2="effect1_dropShadow_705_56" result="shape"/>
</filter>
</defs>
</svg>
