<svg width="590" height="138" viewBox="0 0 590 138" fill="none" xmlns="http://www.w3.org/2000/svg">
<g filter="url(#filter0_d_712_81)">
<mask id="path-1-outside-1_712_81" maskUnits="userSpaceOnUse" x="4.29248" y="0" width="582" height="130" fill="black">
<rect fill="white" x="4.29248" width="582" height="130"/>
<path d="M42.3405 109.728C35.3431 109.728 30.5645 105.717 28.0045 97.696C25.5298 89.6747 24.2925 79.4347 24.2925 66.976C24.2925 58.8693 25.7431 51.2747 28.6445 44.192C31.6311 37.024 36.1538 31.264 42.2125 26.912C48.2711 22.4747 55.6525 20.256 64.3565 20.256C71.3538 20.256 77.7111 21.7493 83.4285 24.736C89.1458 27.6373 93.6685 31.8187 96.9965 37.28C100.41 42.7413 102.116 49.056 102.116 56.224C102.116 64.5013 100.452 71.456 97.1245 77.088C93.7965 82.72 89.4871 86.9013 84.1965 89.632C78.9058 92.3627 73.3165 93.728 67.4285 93.728C62.6498 93.728 58.2551 92.9173 54.2445 91.296C54.7565 94.0267 55.0125 96.1173 55.0125 97.568C55.0125 105.675 50.7885 109.728 42.3405 109.728ZM65.6365 73.888C68.7085 73.888 71.3538 72.7787 73.5725 70.56C75.8765 68.256 77.0285 65.6107 77.0285 62.624C77.0285 59.552 75.8765 56.9067 73.5725 54.688C71.3538 52.384 68.7085 51.232 65.6365 51.232C62.6498 51.232 60.0045 52.384 57.7005 54.688C55.3965 56.9067 54.2445 59.552 54.2445 62.624C54.2445 65.6107 55.3965 68.256 57.7005 70.56C60.0045 72.7787 62.6498 73.888 65.6365 73.888Z"/>
<path d="M183.866 56.224C183.866 62.4533 182.928 67.9573 181.05 72.736C179.258 77.5147 176.698 81.5253 173.37 84.768C176.186 89.12 177.594 93.344 177.594 97.44C177.594 100.939 176.229 103.84 173.498 106.144C170.853 108.448 167.824 109.6 164.41 109.6C162.448 109.6 160.656 109.301 159.034 108.704C157.413 108.107 155.664 107.083 153.786 105.632C152.165 104.352 150.629 102.603 149.178 100.384C147.728 98.1653 146.576 95.8613 145.722 93.472C142.906 93.1307 140.09 92.4053 137.274 91.296C137.786 94.0267 138.042 96.1173 138.042 97.568C138.042 105.675 133.818 109.728 125.37 109.728C118.288 109.728 113.296 105.589 110.394 97.312C107.493 89.0347 106.042 78.9227 106.042 66.976C106.042 58.8693 107.493 51.2747 110.394 44.192C113.381 37.024 117.904 31.264 123.962 26.912C130.021 22.4747 137.402 20.256 146.106 20.256C153.104 20.256 159.461 21.7493 165.178 24.736C170.896 27.6373 175.418 31.8187 178.746 37.28C182.16 42.7413 183.866 49.056 183.866 56.224ZM135.994 62.24C135.994 65.1413 137.146 67.7013 139.45 69.92C141.754 72.0533 144.4 73.12 147.386 73.12C150.458 73.12 153.104 72.0533 155.322 69.92C157.626 67.7013 158.778 65.1413 158.778 62.24C158.778 59.2533 157.626 56.6933 155.322 54.56C153.104 52.3413 150.458 51.232 147.386 51.232C144.4 51.232 141.754 52.3413 139.45 54.56C137.146 56.7787 135.994 59.3387 135.994 62.24Z"/>
<path d="M231.44 109.728C223.675 109.813 216.464 107.893 209.808 103.968C203.238 100.043 197.947 94.6667 193.936 87.84C190.011 80.928 187.963 73.2907 187.792 64.928C187.707 56.9067 189.584 49.4827 193.424 42.656C197.264 35.8293 202.555 30.4107 209.296 26.4C216.038 22.304 223.419 20.256 231.44 20.256C239.291 20.1707 246.544 22.1333 253.2 26.144C259.942 30.1547 265.275 35.6587 269.2 42.656C273.126 49.6533 275.088 57.376 275.088 65.824C275.088 73.76 273.126 81.056 269.2 87.712C265.275 94.368 259.942 99.6587 253.2 103.584C246.544 107.509 239.291 109.557 231.44 109.728ZM231.824 84.768C235.75 84.768 239.078 83.36 241.808 80.544C244.624 77.728 245.99 74.0587 245.904 69.536C245.904 64.928 244.539 61.216 241.808 58.4C239.078 55.584 235.75 54.176 231.824 54.176C227.899 54.176 224.571 55.584 221.84 58.4C219.11 61.216 217.744 64.928 217.744 69.536C217.744 74.0587 219.11 77.728 221.84 80.544C224.571 83.36 227.899 84.768 231.824 84.768Z"/>
<path d="M327.494 65.568C332.529 65.568 336.668 65.824 339.91 66.336C343.238 66.7627 345.926 67.7867 347.974 69.408C350.108 70.944 351.174 73.2907 351.174 76.448C351.174 80.9707 349.425 83.9573 345.926 85.408C342.513 86.8587 337.521 87.584 330.95 87.584L320.326 87.456L312.262 87.584C312.604 90.8267 312.774 93.3867 312.774 95.264C312.774 104.736 309.02 109.472 301.51 109.472C295.281 109.472 290.374 106.016 286.79 99.104C283.292 92.192 281.542 81.3973 281.542 66.72C281.542 57.6747 283.42 49.6107 287.174 42.528C291.014 35.4453 296.22 29.9413 302.79 26.016C309.361 22.0053 316.572 20 324.422 20C334.15 20 341.532 21.664 346.566 24.992C351.686 28.32 354.246 32.9707 354.246 38.944C354.246 43.1253 353.222 46.3253 351.174 48.544C349.212 50.6773 346.438 52.128 342.854 52.896C339.356 53.5787 334.705 53.92 328.902 53.92C324.209 53.92 320.156 54.8587 316.742 56.736C313.414 58.6133 311.58 61.216 311.238 64.544L311.11 65.696C312.134 65.6107 313.67 65.568 315.718 65.568H327.494Z"/>
<path d="M399.639 86.432C403.991 86.944 407.362 88.0533 409.751 89.76C412.226 91.3813 413.463 93.984 413.463 97.568C413.463 101.152 412.183 103.797 409.623 105.504C407.149 107.211 404.162 108.277 400.663 108.704C397.165 109.045 392.642 109.216 387.095 109.216C381.634 109.216 377.154 109.045 373.655 108.704C370.157 108.277 367.17 107.211 364.695 105.504C362.221 103.797 360.983 101.152 360.983 97.568C360.983 94.0693 362.135 91.5093 364.439 89.888C366.829 88.1813 370.071 87.0293 374.167 86.432C373.741 81.4827 373.527 74.4 373.527 65.184C373.527 56.9067 373.698 50.2507 374.039 45.216C369.09 44.704 365.207 43.5093 362.391 41.632C359.575 39.7547 358.167 36.8107 358.167 32.8C358.167 28.8747 359.533 25.9733 362.263 24.096C364.994 22.2187 368.279 21.0667 372.119 20.64C375.959 20.2133 380.909 20 386.967 20C393.026 20 397.975 20.2133 401.815 20.64C405.655 21.0667 408.941 22.2187 411.671 24.096C414.487 25.9733 415.895 28.8747 415.895 32.8C415.895 36.8107 414.445 39.7547 411.543 41.632C408.727 43.5093 404.802 44.704 399.767 45.216C400.194 49.9093 400.407 56.5653 400.407 65.184C400.407 73.4613 400.151 80.544 399.639 86.432Z"/>
<path d="M455.376 109.6C446.758 109.6 439.462 107.851 433.488 104.352C427.515 100.768 423.59 95.4347 421.712 88.352C420.944 85.4507 420.432 81.9093 420.176 77.728C419.92 73.5467 419.792 68.2133 419.792 61.728C419.792 49.0133 421.158 38.9013 423.888 31.392C426.704 23.7973 432.251 20 440.528 20C445.648 20 449.659 21.792 452.56 25.376C455.547 28.96 457.04 33.3973 457.04 38.688C457.04 44.32 456.571 50.336 455.632 56.736C454.694 63.136 453.371 70.9013 451.664 80.032C456.955 78.3253 462.758 77.472 469.072 77.472C475.643 77.472 481.104 78.6667 485.456 81.056C489.894 83.4453 492.112 87.328 492.112 92.704C492.112 97.9093 490.406 101.749 486.992 104.224C483.579 106.699 479.44 108.235 474.576 108.832C469.712 109.344 463.312 109.6 455.376 109.6Z"/>
<path d="M558.539 89.12C562.635 90.4 564.683 93.088 564.683 97.184C564.683 101.024 562.721 104.053 558.795 106.272C554.87 108.491 548.086 109.6 538.443 109.6C526.411 109.6 516.086 106.699 507.467 100.896C498.934 95.0933 494.667 83.5733 494.667 66.336C494.667 57.632 496.161 49.7813 499.147 42.784C502.134 35.7867 506.571 30.24 512.459 26.144C518.433 22.048 525.729 20 534.347 20C545.867 20 553.974 21.792 558.667 25.376C563.361 28.8747 565.707 33.184 565.707 38.304C565.707 40.6933 565.11 42.912 563.915 44.96C562.721 46.9227 560.929 48.4587 558.539 49.568C556.491 50.592 553.846 51.104 550.603 51.104L547.147 50.976C546.465 50.8907 545.483 50.848 544.203 50.848C539.766 50.848 536.267 51.6587 533.707 53.28C531.147 54.816 529.398 57.2053 528.459 60.448C532.043 60.2773 535.286 60.192 538.188 60.192C546.806 60.192 552.396 60.448 554.956 60.96C557.857 61.5573 560.076 62.7093 561.612 64.416C563.233 66.1227 564.043 68.128 564.043 70.432C564.043 72.736 563.276 74.7413 561.74 76.448C560.204 78.0693 557.9 79.1787 554.828 79.776C552.438 80.288 546.635 80.544 537.419 80.544C533.665 80.544 531.019 80.5013 529.483 80.416C532.129 86.048 537.078 88.864 544.331 88.864C544.758 88.864 545.74 88.7787 547.276 88.608C549.324 88.4373 551.073 88.352 552.523 88.352C554.998 88.352 557.003 88.608 558.539 89.12Z"/>
</mask>
<path d="M42.3405 109.728C35.3431 109.728 30.5645 105.717 28.0045 97.696C25.5298 89.6747 24.2925 79.4347 24.2925 66.976C24.2925 58.8693 25.7431 51.2747 28.6445 44.192C31.6311 37.024 36.1538 31.264 42.2125 26.912C48.2711 22.4747 55.6525 20.256 64.3565 20.256C71.3538 20.256 77.7111 21.7493 83.4285 24.736C89.1458 27.6373 93.6685 31.8187 96.9965 37.28C100.41 42.7413 102.116 49.056 102.116 56.224C102.116 64.5013 100.452 71.456 97.1245 77.088C93.7965 82.72 89.4871 86.9013 84.1965 89.632C78.9058 92.3627 73.3165 93.728 67.4285 93.728C62.6498 93.728 58.2551 92.9173 54.2445 91.296C54.7565 94.0267 55.0125 96.1173 55.0125 97.568C55.0125 105.675 50.7885 109.728 42.3405 109.728ZM65.6365 73.888C68.7085 73.888 71.3538 72.7787 73.5725 70.56C75.8765 68.256 77.0285 65.6107 77.0285 62.624C77.0285 59.552 75.8765 56.9067 73.5725 54.688C71.3538 52.384 68.7085 51.232 65.6365 51.232C62.6498 51.232 60.0045 52.384 57.7005 54.688C55.3965 56.9067 54.2445 59.552 54.2445 62.624C54.2445 65.6107 55.3965 68.256 57.7005 70.56C60.0045 72.7787 62.6498 73.888 65.6365 73.888Z" fill="white"/>
<path d="M183.866 56.224C183.866 62.4533 182.928 67.9573 181.05 72.736C179.258 77.5147 176.698 81.5253 173.37 84.768C176.186 89.12 177.594 93.344 177.594 97.44C177.594 100.939 176.229 103.84 173.498 106.144C170.853 108.448 167.824 109.6 164.41 109.6C162.448 109.6 160.656 109.301 159.034 108.704C157.413 108.107 155.664 107.083 153.786 105.632C152.165 104.352 150.629 102.603 149.178 100.384C147.728 98.1653 146.576 95.8613 145.722 93.472C142.906 93.1307 140.09 92.4053 137.274 91.296C137.786 94.0267 138.042 96.1173 138.042 97.568C138.042 105.675 133.818 109.728 125.37 109.728C118.288 109.728 113.296 105.589 110.394 97.312C107.493 89.0347 106.042 78.9227 106.042 66.976C106.042 58.8693 107.493 51.2747 110.394 44.192C113.381 37.024 117.904 31.264 123.962 26.912C130.021 22.4747 137.402 20.256 146.106 20.256C153.104 20.256 159.461 21.7493 165.178 24.736C170.896 27.6373 175.418 31.8187 178.746 37.28C182.16 42.7413 183.866 49.056 183.866 56.224ZM135.994 62.24C135.994 65.1413 137.146 67.7013 139.45 69.92C141.754 72.0533 144.4 73.12 147.386 73.12C150.458 73.12 153.104 72.0533 155.322 69.92C157.626 67.7013 158.778 65.1413 158.778 62.24C158.778 59.2533 157.626 56.6933 155.322 54.56C153.104 52.3413 150.458 51.232 147.386 51.232C144.4 51.232 141.754 52.3413 139.45 54.56C137.146 56.7787 135.994 59.3387 135.994 62.24Z" fill="white"/>
<path d="M231.44 109.728C223.675 109.813 216.464 107.893 209.808 103.968C203.238 100.043 197.947 94.6667 193.936 87.84C190.011 80.928 187.963 73.2907 187.792 64.928C187.707 56.9067 189.584 49.4827 193.424 42.656C197.264 35.8293 202.555 30.4107 209.296 26.4C216.038 22.304 223.419 20.256 231.44 20.256C239.291 20.1707 246.544 22.1333 253.2 26.144C259.942 30.1547 265.275 35.6587 269.2 42.656C273.126 49.6533 275.088 57.376 275.088 65.824C275.088 73.76 273.126 81.056 269.2 87.712C265.275 94.368 259.942 99.6587 253.2 103.584C246.544 107.509 239.291 109.557 231.44 109.728ZM231.824 84.768C235.75 84.768 239.078 83.36 241.808 80.544C244.624 77.728 245.99 74.0587 245.904 69.536C245.904 64.928 244.539 61.216 241.808 58.4C239.078 55.584 235.75 54.176 231.824 54.176C227.899 54.176 224.571 55.584 221.84 58.4C219.11 61.216 217.744 64.928 217.744 69.536C217.744 74.0587 219.11 77.728 221.84 80.544C224.571 83.36 227.899 84.768 231.824 84.768Z" fill="white"/>
<path d="M327.494 65.568C332.529 65.568 336.668 65.824 339.91 66.336C343.238 66.7627 345.926 67.7867 347.974 69.408C350.108 70.944 351.174 73.2907 351.174 76.448C351.174 80.9707 349.425 83.9573 345.926 85.408C342.513 86.8587 337.521 87.584 330.95 87.584L320.326 87.456L312.262 87.584C312.604 90.8267 312.774 93.3867 312.774 95.264C312.774 104.736 309.02 109.472 301.51 109.472C295.281 109.472 290.374 106.016 286.79 99.104C283.292 92.192 281.542 81.3973 281.542 66.72C281.542 57.6747 283.42 49.6107 287.174 42.528C291.014 35.4453 296.22 29.9413 302.79 26.016C309.361 22.0053 316.572 20 324.422 20C334.15 20 341.532 21.664 346.566 24.992C351.686 28.32 354.246 32.9707 354.246 38.944C354.246 43.1253 353.222 46.3253 351.174 48.544C349.212 50.6773 346.438 52.128 342.854 52.896C339.356 53.5787 334.705 53.92 328.902 53.92C324.209 53.92 320.156 54.8587 316.742 56.736C313.414 58.6133 311.58 61.216 311.238 64.544L311.11 65.696C312.134 65.6107 313.67 65.568 315.718 65.568H327.494Z" fill="white"/>
<path d="M399.639 86.432C403.991 86.944 407.362 88.0533 409.751 89.76C412.226 91.3813 413.463 93.984 413.463 97.568C413.463 101.152 412.183 103.797 409.623 105.504C407.149 107.211 404.162 108.277 400.663 108.704C397.165 109.045 392.642 109.216 387.095 109.216C381.634 109.216 377.154 109.045 373.655 108.704C370.157 108.277 367.17 107.211 364.695 105.504C362.221 103.797 360.983 101.152 360.983 97.568C360.983 94.0693 362.135 91.5093 364.439 89.888C366.829 88.1813 370.071 87.0293 374.167 86.432C373.741 81.4827 373.527 74.4 373.527 65.184C373.527 56.9067 373.698 50.2507 374.039 45.216C369.09 44.704 365.207 43.5093 362.391 41.632C359.575 39.7547 358.167 36.8107 358.167 32.8C358.167 28.8747 359.533 25.9733 362.263 24.096C364.994 22.2187 368.279 21.0667 372.119 20.64C375.959 20.2133 380.909 20 386.967 20C393.026 20 397.975 20.2133 401.815 20.64C405.655 21.0667 408.941 22.2187 411.671 24.096C414.487 25.9733 415.895 28.8747 415.895 32.8C415.895 36.8107 414.445 39.7547 411.543 41.632C408.727 43.5093 404.802 44.704 399.767 45.216C400.194 49.9093 400.407 56.5653 400.407 65.184C400.407 73.4613 400.151 80.544 399.639 86.432Z" fill="white"/>
<path d="M455.376 109.6C446.758 109.6 439.462 107.851 433.488 104.352C427.515 100.768 423.59 95.4347 421.712 88.352C420.944 85.4507 420.432 81.9093 420.176 77.728C419.92 73.5467 419.792 68.2133 419.792 61.728C419.792 49.0133 421.158 38.9013 423.888 31.392C426.704 23.7973 432.251 20 440.528 20C445.648 20 449.659 21.792 452.56 25.376C455.547 28.96 457.04 33.3973 457.04 38.688C457.04 44.32 456.571 50.336 455.632 56.736C454.694 63.136 453.371 70.9013 451.664 80.032C456.955 78.3253 462.758 77.472 469.072 77.472C475.643 77.472 481.104 78.6667 485.456 81.056C489.894 83.4453 492.112 87.328 492.112 92.704C492.112 97.9093 490.406 101.749 486.992 104.224C483.579 106.699 479.44 108.235 474.576 108.832C469.712 109.344 463.312 109.6 455.376 109.6Z" fill="white"/>
<path d="M558.539 89.12C562.635 90.4 564.683 93.088 564.683 97.184C564.683 101.024 562.721 104.053 558.795 106.272C554.87 108.491 548.086 109.6 538.443 109.6C526.411 109.6 516.086 106.699 507.467 100.896C498.934 95.0933 494.667 83.5733 494.667 66.336C494.667 57.632 496.161 49.7813 499.147 42.784C502.134 35.7867 506.571 30.24 512.459 26.144C518.433 22.048 525.729 20 534.347 20C545.867 20 553.974 21.792 558.667 25.376C563.361 28.8747 565.707 33.184 565.707 38.304C565.707 40.6933 565.11 42.912 563.915 44.96C562.721 46.9227 560.929 48.4587 558.539 49.568C556.491 50.592 553.846 51.104 550.603 51.104L547.147 50.976C546.465 50.8907 545.483 50.848 544.203 50.848C539.766 50.848 536.267 51.6587 533.707 53.28C531.147 54.816 529.398 57.2053 528.459 60.448C532.043 60.2773 535.286 60.192 538.188 60.192C546.806 60.192 552.396 60.448 554.956 60.96C557.857 61.5573 560.076 62.7093 561.612 64.416C563.233 66.1227 564.043 68.128 564.043 70.432C564.043 72.736 563.276 74.7413 561.74 76.448C560.204 78.0693 557.9 79.1787 554.828 79.776C552.438 80.288 546.635 80.544 537.419 80.544C533.665 80.544 531.019 80.5013 529.483 80.416C532.129 86.048 537.078 88.864 544.331 88.864C544.758 88.864 545.74 88.7787 547.276 88.608C549.324 88.4373 551.073 88.352 552.523 88.352C554.998 88.352 557.003 88.608 558.539 89.12Z" fill="white"/>
<path d="M42.3405 109.728C35.3431 109.728 30.5645 105.717 28.0045 97.696C25.5298 89.6747 24.2925 79.4347 24.2925 66.976C24.2925 58.8693 25.7431 51.2747 28.6445 44.192C31.6311 37.024 36.1538 31.264 42.2125 26.912C48.2711 22.4747 55.6525 20.256 64.3565 20.256C71.3538 20.256 77.7111 21.7493 83.4285 24.736C89.1458 27.6373 93.6685 31.8187 96.9965 37.28C100.41 42.7413 102.116 49.056 102.116 56.224C102.116 64.5013 100.452 71.456 97.1245 77.088C93.7965 82.72 89.4871 86.9013 84.1965 89.632C78.9058 92.3627 73.3165 93.728 67.4285 93.728C62.6498 93.728 58.2551 92.9173 54.2445 91.296C54.7565 94.0267 55.0125 96.1173 55.0125 97.568C55.0125 105.675 50.7885 109.728 42.3405 109.728ZM65.6365 73.888C68.7085 73.888 71.3538 72.7787 73.5725 70.56C75.8765 68.256 77.0285 65.6107 77.0285 62.624C77.0285 59.552 75.8765 56.9067 73.5725 54.688C71.3538 52.384 68.7085 51.232 65.6365 51.232C62.6498 51.232 60.0045 52.384 57.7005 54.688C55.3965 56.9067 54.2445 59.552 54.2445 62.624C54.2445 65.6107 55.3965 68.256 57.7005 70.56C60.0045 72.7787 62.6498 73.888 65.6365 73.888Z" stroke="#FF6161" stroke-width="40" mask="url(#path-1-outside-1_712_81)"/>
<path d="M183.866 56.224C183.866 62.4533 182.928 67.9573 181.05 72.736C179.258 77.5147 176.698 81.5253 173.37 84.768C176.186 89.12 177.594 93.344 177.594 97.44C177.594 100.939 176.229 103.84 173.498 106.144C170.853 108.448 167.824 109.6 164.41 109.6C162.448 109.6 160.656 109.301 159.034 108.704C157.413 108.107 155.664 107.083 153.786 105.632C152.165 104.352 150.629 102.603 149.178 100.384C147.728 98.1653 146.576 95.8613 145.722 93.472C142.906 93.1307 140.09 92.4053 137.274 91.296C137.786 94.0267 138.042 96.1173 138.042 97.568C138.042 105.675 133.818 109.728 125.37 109.728C118.288 109.728 113.296 105.589 110.394 97.312C107.493 89.0347 106.042 78.9227 106.042 66.976C106.042 58.8693 107.493 51.2747 110.394 44.192C113.381 37.024 117.904 31.264 123.962 26.912C130.021 22.4747 137.402 20.256 146.106 20.256C153.104 20.256 159.461 21.7493 165.178 24.736C170.896 27.6373 175.418 31.8187 178.746 37.28C182.16 42.7413 183.866 49.056 183.866 56.224ZM135.994 62.24C135.994 65.1413 137.146 67.7013 139.45 69.92C141.754 72.0533 144.4 73.12 147.386 73.12C150.458 73.12 153.104 72.0533 155.322 69.92C157.626 67.7013 158.778 65.1413 158.778 62.24C158.778 59.2533 157.626 56.6933 155.322 54.56C153.104 52.3413 150.458 51.232 147.386 51.232C144.4 51.232 141.754 52.3413 139.45 54.56C137.146 56.7787 135.994 59.3387 135.994 62.24Z" stroke="#FF6161" stroke-width="40" mask="url(#path-1-outside-1_712_81)"/>
<path d="M231.44 109.728C223.675 109.813 216.464 107.893 209.808 103.968C203.238 100.043 197.947 94.6667 193.936 87.84C190.011 80.928 187.963 73.2907 187.792 64.928C187.707 56.9067 189.584 49.4827 193.424 42.656C197.264 35.8293 202.555 30.4107 209.296 26.4C216.038 22.304 223.419 20.256 231.44 20.256C239.291 20.1707 246.544 22.1333 253.2 26.144C259.942 30.1547 265.275 35.6587 269.2 42.656C273.126 49.6533 275.088 57.376 275.088 65.824C275.088 73.76 273.126 81.056 269.2 87.712C265.275 94.368 259.942 99.6587 253.2 103.584C246.544 107.509 239.291 109.557 231.44 109.728ZM231.824 84.768C235.75 84.768 239.078 83.36 241.808 80.544C244.624 77.728 245.99 74.0587 245.904 69.536C245.904 64.928 244.539 61.216 241.808 58.4C239.078 55.584 235.75 54.176 231.824 54.176C227.899 54.176 224.571 55.584 221.84 58.4C219.11 61.216 217.744 64.928 217.744 69.536C217.744 74.0587 219.11 77.728 221.84 80.544C224.571 83.36 227.899 84.768 231.824 84.768Z" stroke="#FF6161" stroke-width="40" mask="url(#path-1-outside-1_712_81)"/>
<path d="M327.494 65.568C332.529 65.568 336.668 65.824 339.91 66.336C343.238 66.7627 345.926 67.7867 347.974 69.408C350.108 70.944 351.174 73.2907 351.174 76.448C351.174 80.9707 349.425 83.9573 345.926 85.408C342.513 86.8587 337.521 87.584 330.95 87.584L320.326 87.456L312.262 87.584C312.604 90.8267 312.774 93.3867 312.774 95.264C312.774 104.736 309.02 109.472 301.51 109.472C295.281 109.472 290.374 106.016 286.79 99.104C283.292 92.192 281.542 81.3973 281.542 66.72C281.542 57.6747 283.42 49.6107 287.174 42.528C291.014 35.4453 296.22 29.9413 302.79 26.016C309.361 22.0053 316.572 20 324.422 20C334.15 20 341.532 21.664 346.566 24.992C351.686 28.32 354.246 32.9707 354.246 38.944C354.246 43.1253 353.222 46.3253 351.174 48.544C349.212 50.6773 346.438 52.128 342.854 52.896C339.356 53.5787 334.705 53.92 328.902 53.92C324.209 53.92 320.156 54.8587 316.742 56.736C313.414 58.6133 311.58 61.216 311.238 64.544L311.11 65.696C312.134 65.6107 313.67 65.568 315.718 65.568H327.494Z" stroke="#FF6161" stroke-width="40" mask="url(#path-1-outside-1_712_81)"/>
<path d="M399.639 86.432C403.991 86.944 407.362 88.0533 409.751 89.76C412.226 91.3813 413.463 93.984 413.463 97.568C413.463 101.152 412.183 103.797 409.623 105.504C407.149 107.211 404.162 108.277 400.663 108.704C397.165 109.045 392.642 109.216 387.095 109.216C381.634 109.216 377.154 109.045 373.655 108.704C370.157 108.277 367.17 107.211 364.695 105.504C362.221 103.797 360.983 101.152 360.983 97.568C360.983 94.0693 362.135 91.5093 364.439 89.888C366.829 88.1813 370.071 87.0293 374.167 86.432C373.741 81.4827 373.527 74.4 373.527 65.184C373.527 56.9067 373.698 50.2507 374.039 45.216C369.09 44.704 365.207 43.5093 362.391 41.632C359.575 39.7547 358.167 36.8107 358.167 32.8C358.167 28.8747 359.533 25.9733 362.263 24.096C364.994 22.2187 368.279 21.0667 372.119 20.64C375.959 20.2133 380.909 20 386.967 20C393.026 20 397.975 20.2133 401.815 20.64C405.655 21.0667 408.941 22.2187 411.671 24.096C414.487 25.9733 415.895 28.8747 415.895 32.8C415.895 36.8107 414.445 39.7547 411.543 41.632C408.727 43.5093 404.802 44.704 399.767 45.216C400.194 49.9093 400.407 56.5653 400.407 65.184C400.407 73.4613 400.151 80.544 399.639 86.432Z" stroke="#FF6161" stroke-width="40" mask="url(#path-1-outside-1_712_81)"/>
<path d="M455.376 109.6C446.758 109.6 439.462 107.851 433.488 104.352C427.515 100.768 423.59 95.4347 421.712 88.352C420.944 85.4507 420.432 81.9093 420.176 77.728C419.92 73.5467 419.792 68.2133 419.792 61.728C419.792 49.0133 421.158 38.9013 423.888 31.392C426.704 23.7973 432.251 20 440.528 20C445.648 20 449.659 21.792 452.56 25.376C455.547 28.96 457.04 33.3973 457.04 38.688C457.04 44.32 456.571 50.336 455.632 56.736C454.694 63.136 453.371 70.9013 451.664 80.032C456.955 78.3253 462.758 77.472 469.072 77.472C475.643 77.472 481.104 78.6667 485.456 81.056C489.894 83.4453 492.112 87.328 492.112 92.704C492.112 97.9093 490.406 101.749 486.992 104.224C483.579 106.699 479.44 108.235 474.576 108.832C469.712 109.344 463.312 109.6 455.376 109.6Z" stroke="#FF6161" stroke-width="40" mask="url(#path-1-outside-1_712_81)"/>
<path d="M558.539 89.12C562.635 90.4 564.683 93.088 564.683 97.184C564.683 101.024 562.721 104.053 558.795 106.272C554.87 108.491 548.086 109.6 538.443 109.6C526.411 109.6 516.086 106.699 507.467 100.896C498.934 95.0933 494.667 83.5733 494.667 66.336C494.667 57.632 496.161 49.7813 499.147 42.784C502.134 35.7867 506.571 30.24 512.459 26.144C518.433 22.048 525.729 20 534.347 20C545.867 20 553.974 21.792 558.667 25.376C563.361 28.8747 565.707 33.184 565.707 38.304C565.707 40.6933 565.11 42.912 563.915 44.96C562.721 46.9227 560.929 48.4587 558.539 49.568C556.491 50.592 553.846 51.104 550.603 51.104L547.147 50.976C546.465 50.8907 545.483 50.848 544.203 50.848C539.766 50.848 536.267 51.6587 533.707 53.28C531.147 54.816 529.398 57.2053 528.459 60.448C532.043 60.2773 535.286 60.192 538.188 60.192C546.806 60.192 552.396 60.448 554.956 60.96C557.857 61.5573 560.076 62.7093 561.612 64.416C563.233 66.1227 564.043 68.128 564.043 70.432C564.043 72.736 563.276 74.7413 561.74 76.448C560.204 78.0693 557.9 79.1787 554.828 79.776C552.438 80.288 546.635 80.544 537.419 80.544C533.665 80.544 531.019 80.5013 529.483 80.416C532.129 86.048 537.078 88.864 544.331 88.864C544.758 88.864 545.74 88.7787 547.276 88.608C549.324 88.4373 551.073 88.352 552.523 88.352C554.998 88.352 557.003 88.608 558.539 89.12Z" stroke="#FF6161" stroke-width="40" mask="url(#path-1-outside-1_712_81)"/>
</g>
<defs>
<filter id="filter0_d_712_81" x="0.29248" y="0" width="589.415" height="137.731" filterUnits="userSpaceOnUse" color-interpolation-filters="sRGB">
<feFlood flood-opacity="0" result="BackgroundImageFix"/>
<feColorMatrix in="SourceAlpha" type="matrix" values="0 0 0 0 0 0 0 0 0 0 0 0 0 0 0 0 0 0 127 0" result="hardAlpha"/>
<feOffset dy="4"/>
<feGaussianBlur stdDeviation="2"/>
<feComposite in2="hardAlpha" operator="out"/>
<feColorMatrix type="matrix" values="0 0 0 0 0 0 0 0 0 0 0 0 0 0 0 0 0 0 0.25 0"/>
<feBlend mode="normal" in2="BackgroundImageFix" result="effect1_dropShadow_712_81"/>
<feBlend mode="normal" in="SourceGraphic" in2="effect1_dropShadow_712_81" result="shape"/>
</filter>
</defs>
</svg>
