<svg width="50" height="51" viewBox="0 0 50 51" fill="none" xmlns="http://www.w3.org/2000/svg">
<path d="M7.14286 0.5C3.20312 0.5 0 3.70312 0 7.64286V43.3571C0 47.2969 3.20312 50.5 7.14286 50.5H42.8571C46.7969 50.5 50 47.2969 50 43.3571V16.2701C50 14.3728 49.2522 12.5536 47.9129 11.2143L39.2857 2.58705C37.9464 1.24777 36.1272 0.5 34.2299 0.5H7.14286ZM7.14286 11.2143C7.14286 9.23884 8.73884 7.64286 10.7143 7.64286H32.1429C34.1183 7.64286 35.7143 9.23884 35.7143 11.2143V18.3571C35.7143 20.3326 34.1183 21.9286 32.1429 21.9286H10.7143C8.73884 21.9286 7.14286 20.3326 7.14286 18.3571V11.2143ZM25 29.0714C26.8944 29.0714 28.7112 29.824 30.0508 31.1635C31.3903 32.5031 32.1429 34.3199 32.1429 36.2143C32.1429 38.1087 31.3903 39.9255 30.0508 41.265C28.7112 42.6046 26.8944 43.3571 25 43.3571C23.1056 43.3571 21.2888 42.6046 19.9492 41.265C18.6097 39.9255 17.8571 38.1087 17.8571 36.2143C17.8571 34.3199 18.6097 32.5031 19.9492 31.1635C21.2888 29.824 23.1056 29.0714 25 29.0714Z" fill="white"/>
</svg>
