<svg width="1250" height="157" viewBox="0 0 1250 157" fill="none" xmlns="http://www.w3.org/2000/svg">
<g filter="url(#filter0_d_707_63)">
<mask id="path-1-outside-1_707_63" maskUnits="userSpaceOnUse" x="4.74219" y="0.227997" width="1241" height="149" fill="black">
<rect fill="white" x="4.74219" y="0.227997" width="1241" height="149"/>
<path d="M58.4062 109.956C52.7742 109.956 47.3555 109.188 42.1502 107.652C37.0302 106.031 32.8489 103.812 29.6062 100.996C26.3635 98.0947 24.7422 94.8093 24.7422 91.14C24.7422 87.6413 25.8089 84.868 27.9422 82.82C30.0755 80.772 32.7635 79.748 36.0062 79.748C38.1395 79.748 39.9742 80.0467 41.5102 80.644C43.1315 81.156 44.8809 81.924 46.7582 82.948C48.1235 83.6307 49.2755 84.1853 50.2142 84.612C51.2382 84.9533 52.3049 85.124 53.4142 85.124C56.2302 85.124 57.6382 84.0147 57.6382 81.796C57.6382 80.9427 57.0409 80.2173 55.8462 79.62C54.6515 78.9373 52.6462 78.0413 49.8302 76.932C44.7955 74.9693 40.6995 73.0493 37.5422 71.172C32.6782 68.2707 29.3075 65.1133 27.4302 61.7C25.6382 58.2867 24.7422 54.02 24.7422 48.9C24.7422 43.9507 26.3209 39.3 29.4782 34.948C32.6355 30.5107 36.9449 26.9693 42.4062 24.324C47.8675 21.6787 53.8409 20.356 60.3262 20.356C66.6409 20.356 72.4009 21.3373 77.6062 23.3C82.8969 25.1773 87.0355 27.8227 90.0222 31.236C93.0942 34.564 94.6302 38.276 94.6302 42.372C94.6302 47.0653 93.2222 50.6067 90.4062 52.996C87.6755 55.3 84.6035 56.452 81.1902 56.452C78.3742 56.452 76.2409 56.2813 74.7902 55.94C73.4249 55.5987 72.0595 55.1293 70.6942 54.532C69.5849 54.1053 68.6462 53.8067 67.8782 53.636C67.1102 53.38 66.0435 53.252 64.6782 53.252C63.5689 53.252 62.5022 53.636 61.4782 54.404C60.5395 55.0867 60.0702 56.068 60.0702 57.348C60.0702 58.2867 60.6249 59.0973 61.7342 59.78C62.8435 60.3773 64.1235 60.932 65.5742 61.444C67.0249 61.956 68.0489 62.34 68.6462 62.596C76.5822 65.4973 82.4275 68.8253 86.1822 72.58C89.9369 76.2493 91.8142 81.028 91.8142 86.916C91.8142 94.1693 88.8702 99.844 82.9822 103.94C77.1795 107.951 68.9875 109.956 58.4062 109.956Z"/>
<path d="M127.995 109.828C121.681 109.828 116.091 108.591 111.227 106.116C106.363 103.641 102.566 100.185 99.8352 95.748C97.1899 91.2253 95.8672 86.148 95.8672 80.516C95.8672 74.9693 97.1899 69.8493 99.8352 65.156C102.566 60.4627 106.321 56.708 111.099 53.892C115.878 51.076 121.297 49.668 127.355 49.668C132.817 49.668 137.638 50.7773 141.819 52.996C146.001 55.2147 149.201 58.1587 151.419 61.828C153.638 65.412 154.747 69.1667 154.747 73.092C154.747 79.492 152.315 84.1853 147.451 87.172C142.673 90.0733 136.955 91.524 130.299 91.524C125.862 91.524 122.107 90.9693 119.035 89.86C121.595 94.0413 125.819 96.132 131.707 96.132C134.097 96.132 136.657 95.8333 139.387 95.236C140.411 94.98 141.393 94.852 142.331 94.852C144.209 94.852 145.702 95.3213 146.811 96.26C148.006 97.1987 148.603 98.4787 148.603 100.1C148.603 102.745 146.982 105.049 143.739 107.012C140.497 108.889 135.249 109.828 127.995 109.828ZM119.419 74.244C120.187 75.4387 121.211 76.3347 122.491 76.932C123.857 77.444 125.35 77.7 126.971 77.7C128.849 77.7 130.47 77.2733 131.835 76.42C133.286 75.5667 134.011 74.4573 134.011 73.092C134.011 71.556 133.371 70.2333 132.091 69.124C130.897 68.0147 129.147 67.46 126.843 67.46C124.539 67.46 122.705 68.1853 121.339 69.636C120.059 71.0013 119.419 72.5373 119.419 74.244Z"/>
<path d="M176.093 109.572C171.827 109.572 168.627 107.993 166.493 104.836C164.36 101.679 162.909 97.028 162.141 90.884C161.459 84.6547 161.117 75.9933 161.117 64.9C161.117 54.2333 161.373 45.9133 161.885 39.94C162.483 33.9667 163.848 29.188 165.981 25.604C168.2 22.02 171.613 20.228 176.221 20.228C180.829 20.228 184.2 22.02 186.333 25.604C188.552 29.188 189.917 33.9667 190.429 39.94C191.027 45.9133 191.325 54.2333 191.325 64.9C191.325 75.396 190.856 83.8867 189.917 90.372C189.064 96.772 187.528 101.593 185.309 104.836C183.091 107.993 180.019 109.572 176.093 109.572Z"/>
<path d="M227.37 109.828C221.056 109.828 215.466 108.591 210.602 106.116C205.738 103.641 201.941 100.185 199.21 95.748C196.565 91.2253 195.242 86.148 195.242 80.516C195.242 74.9693 196.565 69.8493 199.21 65.156C201.941 60.4627 205.696 56.708 210.474 53.892C215.253 51.076 220.672 49.668 226.73 49.668C232.192 49.668 237.013 50.7773 241.194 52.996C245.376 55.2147 248.576 58.1587 250.794 61.828C253.013 65.412 254.122 69.1667 254.122 73.092C254.122 79.492 251.69 84.1853 246.826 87.172C242.048 90.0733 236.33 91.524 229.674 91.524C225.237 91.524 221.482 90.9693 218.41 89.86C220.97 94.0413 225.194 96.132 231.082 96.132C233.472 96.132 236.032 95.8333 238.762 95.236C239.786 94.98 240.768 94.852 241.706 94.852C243.584 94.852 245.077 95.3213 246.186 96.26C247.381 97.1987 247.978 98.4787 247.978 100.1C247.978 102.745 246.357 105.049 243.114 107.012C239.872 108.889 234.624 109.828 227.37 109.828ZM218.794 74.244C219.562 75.4387 220.586 76.3347 221.866 76.932C223.232 77.444 224.725 77.7 226.346 77.7C228.224 77.7 229.845 77.2733 231.21 76.42C232.661 75.5667 233.386 74.4573 233.386 73.092C233.386 71.556 232.746 70.2333 231.466 69.124C230.272 68.0147 228.522 67.46 226.218 67.46C223.914 67.46 222.08 68.1853 220.714 69.636C219.434 71.0013 218.794 72.5373 218.794 74.244Z"/>
<path d="M289.352 109.7C283.891 109.7 278.728 108.377 273.864 105.732C269.086 103.001 265.246 99.332 262.344 94.724C259.443 90.116 257.992 84.9533 257.992 79.236C257.992 73.2627 259.4 68.0573 262.216 63.62C265.118 59.0973 268.915 55.6413 273.608 53.252C278.387 50.8627 283.507 49.668 288.968 49.668C294.174 49.668 298.867 50.692 303.048 52.74C307.23 54.788 310.472 57.476 312.776 60.804C315.08 64.0467 316.232 67.46 316.232 71.044C316.232 74.0307 315.294 76.3347 313.416 77.956C311.624 79.5773 308.936 80.388 305.352 80.388C303.475 80.388 302.024 80.0467 301 79.364C299.976 78.6813 298.91 77.6573 297.8 76.292C296.776 75.012 295.795 74.0733 294.856 73.476C294.003 72.7933 292.766 72.452 291.144 72.452C288.84 72.452 286.878 73.2627 285.256 74.884C283.635 76.42 282.824 78.4253 282.824 80.9C282.824 83.46 283.592 85.508 285.128 87.044C286.75 88.58 288.755 89.348 291.144 89.348C292.68 89.348 293.875 89.1347 294.728 88.708C295.582 88.2813 296.52 87.5987 297.544 86.66C298.739 85.636 299.848 84.9107 300.872 84.484C301.896 83.972 303.39 83.716 305.352 83.716C308.851 83.716 311.539 84.6547 313.416 86.532C315.294 88.4093 316.232 90.5853 316.232 93.06C316.232 95.9613 315.08 98.692 312.776 101.252C310.558 103.812 307.4 105.86 303.304 107.396C299.208 108.932 294.558 109.7 289.352 109.7Z"/>
<path d="M382.581 54.404C382.581 58.8413 380.491 61.8707 376.309 63.492C372.128 65.028 366.411 65.8387 359.157 65.924C359.072 68.0573 359.029 71.5133 359.029 76.292C359.029 81.156 359.371 84.612 360.053 86.66C360.48 88.1107 361.12 89.0493 361.973 89.476C362.912 89.9027 364.277 90.2013 366.069 90.372C366.667 90.4573 367.307 90.5853 367.989 90.756C368.757 90.8413 369.611 90.9693 370.549 91.14C372.512 91.5667 374.048 92.6333 375.157 94.34C376.267 95.9613 376.821 98.052 376.821 100.612C376.821 103.513 375.328 105.775 372.341 107.396C369.355 109.017 365.259 109.828 360.053 109.828C355.275 109.828 350.709 108.463 346.357 105.732C342.005 102.916 339.019 99.1613 337.397 94.468C335.691 89.4333 334.837 79.9187 334.837 65.924C328.864 65.7533 324.043 64.9853 320.373 63.62C316.789 62.1693 314.997 59.6093 314.997 55.94C314.997 51.332 316.704 48.26 320.117 46.724C323.531 45.1027 328.437 44.2493 334.837 44.164C335.093 37.3373 336.16 31.6627 338.037 27.14C339.915 22.532 343.285 20.228 348.149 20.228C353.099 20.228 356.299 22.3613 357.749 26.628C359.285 30.8947 359.968 36.74 359.797 44.164C367.563 44.0787 373.28 44.676 376.949 45.956C380.704 47.236 382.581 50.052 382.581 54.404Z"/>
<path d="M512.743 51.588C512.743 62.1693 510.183 70.6173 505.063 76.932C499.943 83.1613 492.903 87.3 483.943 89.348C484.029 90.5427 484.071 92.3773 484.071 94.852C484.071 99.6307 482.663 103.343 479.847 105.988C477.117 108.548 473.831 109.828 469.991 109.828C465.895 109.828 462.311 108.505 459.239 105.86C456.167 103.129 454.631 99.46 454.631 94.852C454.631 92.2067 454.674 90.2867 454.759 89.092C446.311 86.8733 439.613 82.7347 434.663 76.676C429.799 70.6173 427.367 62.7667 427.367 53.124C427.367 42.9693 429.074 34.9907 432.487 29.188C435.901 23.3853 440.935 20.484 447.591 20.484C452.37 20.484 456.167 21.9347 458.983 24.836C461.799 27.652 463.207 31.5773 463.207 36.612C463.207 37.9773 462.994 41.1347 462.567 46.084C462.226 49.156 462.055 51.076 462.055 51.844C462.055 55.428 462.653 58.1587 463.847 60.036C465.127 61.9133 467.175 62.852 469.991 62.852C472.807 62.852 474.813 61.9133 476.007 60.036C477.287 58.1587 477.927 55.428 477.927 51.844C477.927 50.9907 477.757 49.028 477.415 45.956C476.989 40.836 476.775 37.6787 476.775 36.484C476.775 31.5347 478.226 27.652 481.127 24.836C484.029 21.9347 487.826 20.484 492.519 20.484C499.175 20.484 504.21 23.3 507.623 28.932C511.037 34.564 512.743 42.116 512.743 51.588Z"/>
<path d="M544.742 109.956C538.598 110.041 533.094 108.761 528.23 106.116C523.452 103.471 519.697 99.844 516.966 95.236C514.321 90.5427 512.913 85.3373 512.742 79.62C512.657 73.9027 513.98 68.7827 516.71 64.26C519.441 59.7373 523.238 56.1533 528.102 53.508C533.052 50.8627 538.598 49.54 544.742 49.54C550.716 49.54 556.092 50.82 560.87 53.38C565.734 55.94 569.574 59.524 572.39 64.132C575.206 68.74 576.7 73.9027 576.87 79.62C576.956 85.1667 575.633 90.244 572.902 94.852C570.172 99.3747 566.332 103.001 561.382 105.732C556.518 108.463 550.972 109.871 544.742 109.956ZM545.126 91.268C547.43 91.268 549.436 90.372 551.142 88.58C552.849 86.788 553.702 84.6973 553.702 82.308C553.702 79.9187 552.849 77.8707 551.142 76.164C549.436 74.372 547.43 73.476 545.126 73.476C542.822 73.476 540.817 74.372 539.11 76.164C537.404 77.8707 536.55 79.9187 536.55 82.308C536.55 84.6973 537.404 86.788 539.11 88.58C540.817 90.372 542.822 91.268 545.126 91.268Z"/>
<path d="M611.718 109.828C605.489 109.828 600.028 108.292 595.334 105.22C590.641 102.063 587.014 97.7107 584.454 92.164C581.979 86.532 580.742 80.0467 580.742 72.708C580.742 65.54 581.894 59.908 584.198 55.812C586.502 51.716 589.702 49.668 593.798 49.668C601.052 49.668 604.678 53.38 604.678 60.804C604.678 62.34 604.636 63.7053 604.55 64.9C604.465 66.0093 604.38 66.9907 604.294 67.844C603.953 71.2573 603.782 73.988 603.782 76.036C603.782 79.7907 604.55 82.6493 606.086 84.612C607.622 86.5747 609.5 87.556 611.718 87.556C614.022 87.556 615.9 86.6173 617.35 84.74C618.886 82.7773 619.654 79.876 619.654 76.036C619.654 73.3053 619.526 70.788 619.27 68.484C619.185 67.716 619.099 66.6067 619.014 65.156C618.929 63.62 618.886 62.212 618.886 60.932C618.886 53.4227 622.513 49.668 629.766 49.668C633.862 49.668 637.02 51.716 639.238 55.812C641.542 59.8227 642.694 65.4547 642.694 72.708C642.694 84.0573 640.049 93.1027 634.758 99.844C629.468 106.5 621.788 109.828 611.718 109.828Z"/>
<path d="M660.688 109.828C655.227 109.828 651.558 106.628 649.68 100.228C647.888 93.828 646.992 84.996 646.992 73.732C646.992 68.612 647.206 64.3453 647.632 60.932C648.144 57.4333 649.296 54.4893 651.088 52.1C652.966 49.6253 655.824 48.388 659.664 48.388C662.054 48.388 664.144 48.9427 665.936 50.052C667.814 51.1613 669.008 52.74 669.52 54.788C671.398 53.0813 673.829 51.8013 676.816 50.948C679.803 50.0947 683.003 49.668 686.416 49.668C689.147 49.668 691.92 50.3507 694.736 51.716C697.638 53.0813 700.027 54.9587 701.904 57.348C703.867 59.652 704.848 62.1693 704.848 64.9C704.848 67.6307 703.867 70.0627 701.904 72.196C700.027 74.244 697.51 75.268 694.352 75.268C693.328 75.268 692.347 75.14 691.408 74.884C690.555 74.628 689.787 74.372 689.104 74.116C687.398 73.4333 686.032 73.092 685.008 73.092C681.68 73.092 678.736 74.4147 676.176 77.06C673.702 79.62 672.464 82.948 672.464 87.044C672.464 91.5667 672.294 95.3213 671.952 98.308C671.611 101.295 670.587 103.983 668.88 106.372C667.174 108.676 664.443 109.828 660.688 109.828Z"/>
<path d="M793.521 109.572C785.159 109.572 777.649 107.908 770.993 104.58C764.422 101.167 759.217 96.132 755.377 89.476C751.537 82.7347 749.617 74.5 749.617 64.772C749.617 56.9213 751.409 49.5827 754.993 42.756C758.577 35.9293 763.527 30.468 769.841 26.372C776.156 22.276 783.239 20.228 791.089 20.228C798.513 20.228 805.127 21.636 810.929 24.452C816.732 27.1827 821.212 30.9373 824.369 35.716C827.612 40.4947 829.233 45.828 829.233 51.716C829.233 55.4707 828.124 58.7133 825.905 61.444C823.772 64.1747 820.7 65.54 816.689 65.54C813.703 65.54 811.399 65.028 809.777 64.004C808.156 62.98 806.449 61.4013 804.657 59.268C802.865 57.1347 801.116 55.556 799.409 54.532C797.788 53.4227 795.399 52.868 792.241 52.868C788.231 52.868 784.775 54.404 781.873 57.476C779.057 60.4627 777.649 64.132 777.649 68.484C777.649 73.1773 778.844 77.1453 781.233 80.388C783.708 83.5453 787.036 85.124 791.217 85.124C794.46 85.124 797.02 84.6547 798.897 83.716C800.86 82.7773 802.908 81.412 805.041 79.62C806.833 78.084 808.455 76.932 809.905 76.164C811.441 75.396 813.319 75.012 815.537 75.012C818.951 75.012 821.639 76.0787 823.601 78.212C825.564 80.26 826.545 82.948 826.545 86.276C826.545 90.2013 825.095 93.956 822.193 97.54C819.377 101.124 815.452 104.025 810.417 106.244C805.383 108.463 799.751 109.572 793.521 109.572Z"/>
<path d="M862.492 109.956C856.348 110.041 850.844 108.761 845.98 106.116C841.201 103.471 837.447 99.844 834.716 95.236C832.071 90.5427 830.663 85.3373 830.492 79.62C830.407 73.9027 831.73 68.7827 834.46 64.26C837.191 59.7373 840.988 56.1533 845.852 53.508C850.802 50.8627 856.348 49.54 862.492 49.54C868.466 49.54 873.842 50.82 878.62 53.38C883.484 55.94 887.324 59.524 890.14 64.132C892.956 68.74 894.45 73.9027 894.62 79.62C894.706 85.1667 893.383 90.244 890.652 94.852C887.922 99.3747 884.082 103.001 879.132 105.732C874.268 108.463 868.722 109.871 862.492 109.956ZM862.876 91.268C865.18 91.268 867.186 90.372 868.892 88.58C870.599 86.788 871.452 84.6973 871.452 82.308C871.452 79.9187 870.599 77.8707 868.892 76.164C867.186 74.372 865.18 73.476 862.876 73.476C860.572 73.476 858.567 74.372 856.86 76.164C855.154 77.8707 854.3 79.9187 854.3 82.308C854.3 84.6973 855.154 86.788 856.86 88.58C858.567 90.372 860.572 91.268 862.876 91.268Z"/>
<path d="M929.468 109.828C923.239 109.828 917.778 108.292 913.084 105.22C908.391 102.063 904.764 97.7107 902.204 92.164C899.729 86.532 898.492 80.0467 898.492 72.708C898.492 65.54 899.644 59.908 901.948 55.812C904.252 51.716 907.452 49.668 911.548 49.668C918.802 49.668 922.428 53.38 922.428 60.804C922.428 62.34 922.386 63.7053 922.3 64.9C922.215 66.0093 922.13 66.9907 922.044 67.844C921.703 71.2573 921.532 73.988 921.532 76.036C921.532 79.7907 922.3 82.6493 923.836 84.612C925.372 86.5747 927.25 87.556 929.468 87.556C931.772 87.556 933.65 86.6173 935.1 84.74C936.636 82.7773 937.404 79.876 937.404 76.036C937.404 73.3053 937.276 70.788 937.02 68.484C936.935 67.716 936.849 66.6067 936.764 65.156C936.679 63.62 936.636 62.212 936.636 60.932C936.636 53.4227 940.263 49.668 947.516 49.668C951.612 49.668 954.77 51.716 956.988 55.812C959.292 59.8227 960.444 65.4547 960.444 72.708C960.444 84.0573 957.799 93.1027 952.508 99.844C947.218 106.5 939.538 109.828 929.468 109.828Z"/>
<path d="M1016.55 109.828C1013.48 109.828 1011.18 108.975 1009.64 107.268C1008.19 105.561 1007.29 103.471 1006.95 100.996C1006.61 98.5213 1006.44 95.3213 1006.44 91.396C1006.44 86.3613 1005.76 82.4787 1004.39 79.748C1003.03 77.0173 1000.81 75.652 997.736 75.652C994.92 75.652 992.787 77.0173 991.336 79.748C989.971 82.3933 989.288 86.0627 989.288 90.756C989.288 95.2787 989.16 98.692 988.904 100.996C988.648 103.3 987.795 105.348 986.344 107.14C984.894 108.847 982.504 109.7 979.176 109.7C974.312 109.7 970.899 106.585 968.936 100.356C966.973 94.0413 965.992 86.66 965.992 78.212C965.992 57.732 970.301 47.492 978.92 47.492C981.31 47.492 983.272 48.0893 984.808 49.284C986.344 50.3933 987.411 52.0147 988.008 54.148C989.118 52.9533 990.824 51.8867 993.128 50.948C995.518 50.0093 998.035 49.54 1000.68 49.54C1010.07 49.54 1017.06 52.9533 1021.67 59.78C1026.37 66.6067 1028.71 75.8653 1028.71 87.556C1028.71 94.468 1027.82 99.9293 1026.02 103.94C1024.23 107.865 1021.07 109.828 1016.55 109.828Z"/>
<path d="M1092.46 54.404C1092.46 58.8413 1090.37 61.8707 1086.18 63.492C1082 65.028 1076.29 65.8387 1069.03 65.924C1068.95 68.0573 1068.9 71.5133 1068.9 76.292C1068.9 81.156 1069.25 84.612 1069.93 86.66C1070.35 88.1107 1070.99 89.0493 1071.85 89.476C1072.79 89.9027 1074.15 90.2013 1075.94 90.372C1076.54 90.4573 1077.18 90.5853 1077.86 90.756C1078.63 90.8413 1079.49 90.9693 1080.42 91.14C1082.39 91.5667 1083.92 92.6333 1085.03 94.34C1086.14 95.9613 1086.7 98.052 1086.7 100.612C1086.7 103.513 1085.2 105.775 1082.22 107.396C1079.23 109.017 1075.13 109.828 1069.93 109.828C1065.15 109.828 1060.58 108.463 1056.23 105.732C1051.88 102.916 1048.89 99.1613 1047.27 94.468C1045.57 89.4333 1044.71 79.9187 1044.71 65.924C1038.74 65.7533 1033.92 64.9853 1030.25 63.62C1026.66 62.1693 1024.87 59.6093 1024.87 55.94C1024.87 51.332 1026.58 48.26 1029.99 46.724C1033.41 45.1027 1038.31 44.2493 1044.71 44.164C1044.97 37.3373 1046.03 31.6627 1047.91 27.14C1049.79 22.532 1053.16 20.228 1058.02 20.228C1062.97 20.228 1066.17 22.3613 1067.62 26.628C1069.16 30.8947 1069.84 36.74 1069.67 44.164C1077.44 44.0787 1083.15 44.676 1086.82 45.956C1090.58 47.236 1092.46 50.052 1092.46 54.404Z"/>
<path d="M1112.56 109.828C1107.1 109.828 1103.43 106.628 1101.56 100.228C1099.76 93.828 1098.87 84.996 1098.87 73.732C1098.87 68.612 1099.08 64.3453 1099.51 60.932C1100.02 57.4333 1101.17 54.4893 1102.96 52.1C1104.84 49.6253 1107.7 48.388 1111.54 48.388C1113.93 48.388 1116.02 48.9427 1117.81 50.052C1119.69 51.1613 1120.88 52.74 1121.4 54.788C1123.27 53.0813 1125.7 51.8013 1128.69 50.948C1131.68 50.0947 1134.88 49.668 1138.29 49.668C1141.02 49.668 1143.8 50.3507 1146.61 51.716C1149.51 53.0813 1151.9 54.9587 1153.78 57.348C1155.74 59.652 1156.72 62.1693 1156.72 64.9C1156.72 67.6307 1155.74 70.0627 1153.78 72.196C1151.9 74.244 1149.38 75.268 1146.23 75.268C1145.2 75.268 1144.22 75.14 1143.28 74.884C1142.43 74.628 1141.66 74.372 1140.98 74.116C1139.27 73.4333 1137.91 73.092 1136.88 73.092C1133.56 73.092 1130.61 74.4147 1128.05 77.06C1125.58 79.62 1124.34 82.948 1124.34 87.044C1124.34 91.5667 1124.17 95.3213 1123.83 98.308C1123.49 101.295 1122.46 103.983 1120.76 106.372C1119.05 108.676 1116.32 109.828 1112.56 109.828Z"/>
<path d="M1181.99 128.772C1177.39 128.772 1173.55 127.876 1170.47 126.084C1167.4 124.292 1165.87 121.647 1165.87 118.148C1165.87 115.332 1167.19 113.113 1169.83 111.492C1172.48 109.871 1175.59 109.145 1179.18 109.316C1182.93 109.487 1185.83 109.316 1187.88 108.804C1190.01 108.292 1191.64 107.353 1192.75 105.988C1184.89 105.988 1178.62 104.879 1173.93 102.66C1169.24 100.356 1165.82 96.8147 1163.69 92.036C1161.64 87.172 1160.62 80.772 1160.62 72.836C1160.62 66.0093 1161.64 60.5053 1163.69 56.324C1165.82 52.0573 1169.15 49.924 1173.67 49.924C1177.68 49.924 1180.63 51.076 1182.51 53.38C1184.47 55.5987 1185.45 58.5 1185.45 62.084L1185.32 67.716C1185.24 68.8253 1185.19 70.4467 1185.19 72.58C1185.19 76.676 1185.71 79.7907 1186.73 81.924C1187.75 83.972 1189.8 84.996 1192.87 84.996C1195.95 84.996 1197.99 83.972 1199.02 81.924C1200.04 79.7907 1200.55 76.7187 1200.55 72.708C1200.55 70.5747 1200.51 68.9533 1200.43 67.844L1200.3 62.34C1200.3 58.5 1201.24 55.4707 1203.11 53.252C1205.08 51.0333 1208.06 49.924 1212.07 49.924C1216.6 49.924 1219.92 52.0573 1222.06 56.324C1224.19 60.5907 1225.26 66.0947 1225.26 72.836C1225.26 82.9053 1223.81 92.164 1220.91 100.612C1218.09 108.975 1213.44 115.759 1206.95 120.964C1200.55 126.169 1192.23 128.772 1181.99 128.772Z"/>
</mask>
<path d="M58.4062 109.956C52.7742 109.956 47.3555 109.188 42.1502 107.652C37.0302 106.031 32.8489 103.812 29.6062 100.996C26.3635 98.0947 24.7422 94.8093 24.7422 91.14C24.7422 87.6413 25.8089 84.868 27.9422 82.82C30.0755 80.772 32.7635 79.748 36.0062 79.748C38.1395 79.748 39.9742 80.0467 41.5102 80.644C43.1315 81.156 44.8809 81.924 46.7582 82.948C48.1235 83.6307 49.2755 84.1853 50.2142 84.612C51.2382 84.9533 52.3049 85.124 53.4142 85.124C56.2302 85.124 57.6382 84.0147 57.6382 81.796C57.6382 80.9427 57.0409 80.2173 55.8462 79.62C54.6515 78.9373 52.6462 78.0413 49.8302 76.932C44.7955 74.9693 40.6995 73.0493 37.5422 71.172C32.6782 68.2707 29.3075 65.1133 27.4302 61.7C25.6382 58.2867 24.7422 54.02 24.7422 48.9C24.7422 43.9507 26.3209 39.3 29.4782 34.948C32.6355 30.5107 36.9449 26.9693 42.4062 24.324C47.8675 21.6787 53.8409 20.356 60.3262 20.356C66.6409 20.356 72.4009 21.3373 77.6062 23.3C82.8969 25.1773 87.0355 27.8227 90.0222 31.236C93.0942 34.564 94.6302 38.276 94.6302 42.372C94.6302 47.0653 93.2222 50.6067 90.4062 52.996C87.6755 55.3 84.6035 56.452 81.1902 56.452C78.3742 56.452 76.2409 56.2813 74.7902 55.94C73.4249 55.5987 72.0595 55.1293 70.6942 54.532C69.5849 54.1053 68.6462 53.8067 67.8782 53.636C67.1102 53.38 66.0435 53.252 64.6782 53.252C63.5689 53.252 62.5022 53.636 61.4782 54.404C60.5395 55.0867 60.0702 56.068 60.0702 57.348C60.0702 58.2867 60.6249 59.0973 61.7342 59.78C62.8435 60.3773 64.1235 60.932 65.5742 61.444C67.0249 61.956 68.0489 62.34 68.6462 62.596C76.5822 65.4973 82.4275 68.8253 86.1822 72.58C89.9369 76.2493 91.8142 81.028 91.8142 86.916C91.8142 94.1693 88.8702 99.844 82.9822 103.94C77.1795 107.951 68.9875 109.956 58.4062 109.956Z" fill="white"/>
<path d="M127.995 109.828C121.681 109.828 116.091 108.591 111.227 106.116C106.363 103.641 102.566 100.185 99.8352 95.748C97.1899 91.2253 95.8672 86.148 95.8672 80.516C95.8672 74.9693 97.1899 69.8493 99.8352 65.156C102.566 60.4627 106.321 56.708 111.099 53.892C115.878 51.076 121.297 49.668 127.355 49.668C132.817 49.668 137.638 50.7773 141.819 52.996C146.001 55.2147 149.201 58.1587 151.419 61.828C153.638 65.412 154.747 69.1667 154.747 73.092C154.747 79.492 152.315 84.1853 147.451 87.172C142.673 90.0733 136.955 91.524 130.299 91.524C125.862 91.524 122.107 90.9693 119.035 89.86C121.595 94.0413 125.819 96.132 131.707 96.132C134.097 96.132 136.657 95.8333 139.387 95.236C140.411 94.98 141.393 94.852 142.331 94.852C144.209 94.852 145.702 95.3213 146.811 96.26C148.006 97.1987 148.603 98.4787 148.603 100.1C148.603 102.745 146.982 105.049 143.739 107.012C140.497 108.889 135.249 109.828 127.995 109.828ZM119.419 74.244C120.187 75.4387 121.211 76.3347 122.491 76.932C123.857 77.444 125.35 77.7 126.971 77.7C128.849 77.7 130.47 77.2733 131.835 76.42C133.286 75.5667 134.011 74.4573 134.011 73.092C134.011 71.556 133.371 70.2333 132.091 69.124C130.897 68.0147 129.147 67.46 126.843 67.46C124.539 67.46 122.705 68.1853 121.339 69.636C120.059 71.0013 119.419 72.5373 119.419 74.244Z" fill="white"/>
<path d="M176.093 109.572C171.827 109.572 168.627 107.993 166.493 104.836C164.36 101.679 162.909 97.028 162.141 90.884C161.459 84.6547 161.117 75.9933 161.117 64.9C161.117 54.2333 161.373 45.9133 161.885 39.94C162.483 33.9667 163.848 29.188 165.981 25.604C168.2 22.02 171.613 20.228 176.221 20.228C180.829 20.228 184.2 22.02 186.333 25.604C188.552 29.188 189.917 33.9667 190.429 39.94C191.027 45.9133 191.325 54.2333 191.325 64.9C191.325 75.396 190.856 83.8867 189.917 90.372C189.064 96.772 187.528 101.593 185.309 104.836C183.091 107.993 180.019 109.572 176.093 109.572Z" fill="white"/>
<path d="M227.37 109.828C221.056 109.828 215.466 108.591 210.602 106.116C205.738 103.641 201.941 100.185 199.21 95.748C196.565 91.2253 195.242 86.148 195.242 80.516C195.242 74.9693 196.565 69.8493 199.21 65.156C201.941 60.4627 205.696 56.708 210.474 53.892C215.253 51.076 220.672 49.668 226.73 49.668C232.192 49.668 237.013 50.7773 241.194 52.996C245.376 55.2147 248.576 58.1587 250.794 61.828C253.013 65.412 254.122 69.1667 254.122 73.092C254.122 79.492 251.69 84.1853 246.826 87.172C242.048 90.0733 236.33 91.524 229.674 91.524C225.237 91.524 221.482 90.9693 218.41 89.86C220.97 94.0413 225.194 96.132 231.082 96.132C233.472 96.132 236.032 95.8333 238.762 95.236C239.786 94.98 240.768 94.852 241.706 94.852C243.584 94.852 245.077 95.3213 246.186 96.26C247.381 97.1987 247.978 98.4787 247.978 100.1C247.978 102.745 246.357 105.049 243.114 107.012C239.872 108.889 234.624 109.828 227.37 109.828ZM218.794 74.244C219.562 75.4387 220.586 76.3347 221.866 76.932C223.232 77.444 224.725 77.7 226.346 77.7C228.224 77.7 229.845 77.2733 231.21 76.42C232.661 75.5667 233.386 74.4573 233.386 73.092C233.386 71.556 232.746 70.2333 231.466 69.124C230.272 68.0147 228.522 67.46 226.218 67.46C223.914 67.46 222.08 68.1853 220.714 69.636C219.434 71.0013 218.794 72.5373 218.794 74.244Z" fill="white"/>
<path d="M289.352 109.7C283.891 109.7 278.728 108.377 273.864 105.732C269.086 103.001 265.246 99.332 262.344 94.724C259.443 90.116 257.992 84.9533 257.992 79.236C257.992 73.2627 259.4 68.0573 262.216 63.62C265.118 59.0973 268.915 55.6413 273.608 53.252C278.387 50.8627 283.507 49.668 288.968 49.668C294.174 49.668 298.867 50.692 303.048 52.74C307.23 54.788 310.472 57.476 312.776 60.804C315.08 64.0467 316.232 67.46 316.232 71.044C316.232 74.0307 315.294 76.3347 313.416 77.956C311.624 79.5773 308.936 80.388 305.352 80.388C303.475 80.388 302.024 80.0467 301 79.364C299.976 78.6813 298.91 77.6573 297.8 76.292C296.776 75.012 295.795 74.0733 294.856 73.476C294.003 72.7933 292.766 72.452 291.144 72.452C288.84 72.452 286.878 73.2627 285.256 74.884C283.635 76.42 282.824 78.4253 282.824 80.9C282.824 83.46 283.592 85.508 285.128 87.044C286.75 88.58 288.755 89.348 291.144 89.348C292.68 89.348 293.875 89.1347 294.728 88.708C295.582 88.2813 296.52 87.5987 297.544 86.66C298.739 85.636 299.848 84.9107 300.872 84.484C301.896 83.972 303.39 83.716 305.352 83.716C308.851 83.716 311.539 84.6547 313.416 86.532C315.294 88.4093 316.232 90.5853 316.232 93.06C316.232 95.9613 315.08 98.692 312.776 101.252C310.558 103.812 307.4 105.86 303.304 107.396C299.208 108.932 294.558 109.7 289.352 109.7Z" fill="white"/>
<path d="M382.581 54.404C382.581 58.8413 380.491 61.8707 376.309 63.492C372.128 65.028 366.411 65.8387 359.157 65.924C359.072 68.0573 359.029 71.5133 359.029 76.292C359.029 81.156 359.371 84.612 360.053 86.66C360.48 88.1107 361.12 89.0493 361.973 89.476C362.912 89.9027 364.277 90.2013 366.069 90.372C366.667 90.4573 367.307 90.5853 367.989 90.756C368.757 90.8413 369.611 90.9693 370.549 91.14C372.512 91.5667 374.048 92.6333 375.157 94.34C376.267 95.9613 376.821 98.052 376.821 100.612C376.821 103.513 375.328 105.775 372.341 107.396C369.355 109.017 365.259 109.828 360.053 109.828C355.275 109.828 350.709 108.463 346.357 105.732C342.005 102.916 339.019 99.1613 337.397 94.468C335.691 89.4333 334.837 79.9187 334.837 65.924C328.864 65.7533 324.043 64.9853 320.373 63.62C316.789 62.1693 314.997 59.6093 314.997 55.94C314.997 51.332 316.704 48.26 320.117 46.724C323.531 45.1027 328.437 44.2493 334.837 44.164C335.093 37.3373 336.16 31.6627 338.037 27.14C339.915 22.532 343.285 20.228 348.149 20.228C353.099 20.228 356.299 22.3613 357.749 26.628C359.285 30.8947 359.968 36.74 359.797 44.164C367.563 44.0787 373.28 44.676 376.949 45.956C380.704 47.236 382.581 50.052 382.581 54.404Z" fill="white"/>
<path d="M512.743 51.588C512.743 62.1693 510.183 70.6173 505.063 76.932C499.943 83.1613 492.903 87.3 483.943 89.348C484.029 90.5427 484.071 92.3773 484.071 94.852C484.071 99.6307 482.663 103.343 479.847 105.988C477.117 108.548 473.831 109.828 469.991 109.828C465.895 109.828 462.311 108.505 459.239 105.86C456.167 103.129 454.631 99.46 454.631 94.852C454.631 92.2067 454.674 90.2867 454.759 89.092C446.311 86.8733 439.613 82.7347 434.663 76.676C429.799 70.6173 427.367 62.7667 427.367 53.124C427.367 42.9693 429.074 34.9907 432.487 29.188C435.901 23.3853 440.935 20.484 447.591 20.484C452.37 20.484 456.167 21.9347 458.983 24.836C461.799 27.652 463.207 31.5773 463.207 36.612C463.207 37.9773 462.994 41.1347 462.567 46.084C462.226 49.156 462.055 51.076 462.055 51.844C462.055 55.428 462.653 58.1587 463.847 60.036C465.127 61.9133 467.175 62.852 469.991 62.852C472.807 62.852 474.813 61.9133 476.007 60.036C477.287 58.1587 477.927 55.428 477.927 51.844C477.927 50.9907 477.757 49.028 477.415 45.956C476.989 40.836 476.775 37.6787 476.775 36.484C476.775 31.5347 478.226 27.652 481.127 24.836C484.029 21.9347 487.826 20.484 492.519 20.484C499.175 20.484 504.21 23.3 507.623 28.932C511.037 34.564 512.743 42.116 512.743 51.588Z" fill="white"/>
<path d="M544.742 109.956C538.598 110.041 533.094 108.761 528.23 106.116C523.452 103.471 519.697 99.844 516.966 95.236C514.321 90.5427 512.913 85.3373 512.742 79.62C512.657 73.9027 513.98 68.7827 516.71 64.26C519.441 59.7373 523.238 56.1533 528.102 53.508C533.052 50.8627 538.598 49.54 544.742 49.54C550.716 49.54 556.092 50.82 560.87 53.38C565.734 55.94 569.574 59.524 572.39 64.132C575.206 68.74 576.7 73.9027 576.87 79.62C576.956 85.1667 575.633 90.244 572.902 94.852C570.172 99.3747 566.332 103.001 561.382 105.732C556.518 108.463 550.972 109.871 544.742 109.956ZM545.126 91.268C547.43 91.268 549.436 90.372 551.142 88.58C552.849 86.788 553.702 84.6973 553.702 82.308C553.702 79.9187 552.849 77.8707 551.142 76.164C549.436 74.372 547.43 73.476 545.126 73.476C542.822 73.476 540.817 74.372 539.11 76.164C537.404 77.8707 536.55 79.9187 536.55 82.308C536.55 84.6973 537.404 86.788 539.11 88.58C540.817 90.372 542.822 91.268 545.126 91.268Z" fill="white"/>
<path d="M611.718 109.828C605.489 109.828 600.028 108.292 595.334 105.22C590.641 102.063 587.014 97.7107 584.454 92.164C581.979 86.532 580.742 80.0467 580.742 72.708C580.742 65.54 581.894 59.908 584.198 55.812C586.502 51.716 589.702 49.668 593.798 49.668C601.052 49.668 604.678 53.38 604.678 60.804C604.678 62.34 604.636 63.7053 604.55 64.9C604.465 66.0093 604.38 66.9907 604.294 67.844C603.953 71.2573 603.782 73.988 603.782 76.036C603.782 79.7907 604.55 82.6493 606.086 84.612C607.622 86.5747 609.5 87.556 611.718 87.556C614.022 87.556 615.9 86.6173 617.35 84.74C618.886 82.7773 619.654 79.876 619.654 76.036C619.654 73.3053 619.526 70.788 619.27 68.484C619.185 67.716 619.099 66.6067 619.014 65.156C618.929 63.62 618.886 62.212 618.886 60.932C618.886 53.4227 622.513 49.668 629.766 49.668C633.862 49.668 637.02 51.716 639.238 55.812C641.542 59.8227 642.694 65.4547 642.694 72.708C642.694 84.0573 640.049 93.1027 634.758 99.844C629.468 106.5 621.788 109.828 611.718 109.828Z" fill="white"/>
<path d="M660.688 109.828C655.227 109.828 651.558 106.628 649.68 100.228C647.888 93.828 646.992 84.996 646.992 73.732C646.992 68.612 647.206 64.3453 647.632 60.932C648.144 57.4333 649.296 54.4893 651.088 52.1C652.966 49.6253 655.824 48.388 659.664 48.388C662.054 48.388 664.144 48.9427 665.936 50.052C667.814 51.1613 669.008 52.74 669.52 54.788C671.398 53.0813 673.829 51.8013 676.816 50.948C679.803 50.0947 683.003 49.668 686.416 49.668C689.147 49.668 691.92 50.3507 694.736 51.716C697.638 53.0813 700.027 54.9587 701.904 57.348C703.867 59.652 704.848 62.1693 704.848 64.9C704.848 67.6307 703.867 70.0627 701.904 72.196C700.027 74.244 697.51 75.268 694.352 75.268C693.328 75.268 692.347 75.14 691.408 74.884C690.555 74.628 689.787 74.372 689.104 74.116C687.398 73.4333 686.032 73.092 685.008 73.092C681.68 73.092 678.736 74.4147 676.176 77.06C673.702 79.62 672.464 82.948 672.464 87.044C672.464 91.5667 672.294 95.3213 671.952 98.308C671.611 101.295 670.587 103.983 668.88 106.372C667.174 108.676 664.443 109.828 660.688 109.828Z" fill="white"/>
<path d="M793.521 109.572C785.159 109.572 777.649 107.908 770.993 104.58C764.422 101.167 759.217 96.132 755.377 89.476C751.537 82.7347 749.617 74.5 749.617 64.772C749.617 56.9213 751.409 49.5827 754.993 42.756C758.577 35.9293 763.527 30.468 769.841 26.372C776.156 22.276 783.239 20.228 791.089 20.228C798.513 20.228 805.127 21.636 810.929 24.452C816.732 27.1827 821.212 30.9373 824.369 35.716C827.612 40.4947 829.233 45.828 829.233 51.716C829.233 55.4707 828.124 58.7133 825.905 61.444C823.772 64.1747 820.7 65.54 816.689 65.54C813.703 65.54 811.399 65.028 809.777 64.004C808.156 62.98 806.449 61.4013 804.657 59.268C802.865 57.1347 801.116 55.556 799.409 54.532C797.788 53.4227 795.399 52.868 792.241 52.868C788.231 52.868 784.775 54.404 781.873 57.476C779.057 60.4627 777.649 64.132 777.649 68.484C777.649 73.1773 778.844 77.1453 781.233 80.388C783.708 83.5453 787.036 85.124 791.217 85.124C794.46 85.124 797.02 84.6547 798.897 83.716C800.86 82.7773 802.908 81.412 805.041 79.62C806.833 78.084 808.455 76.932 809.905 76.164C811.441 75.396 813.319 75.012 815.537 75.012C818.951 75.012 821.639 76.0787 823.601 78.212C825.564 80.26 826.545 82.948 826.545 86.276C826.545 90.2013 825.095 93.956 822.193 97.54C819.377 101.124 815.452 104.025 810.417 106.244C805.383 108.463 799.751 109.572 793.521 109.572Z" fill="white"/>
<path d="M862.492 109.956C856.348 110.041 850.844 108.761 845.98 106.116C841.201 103.471 837.447 99.844 834.716 95.236C832.071 90.5427 830.663 85.3373 830.492 79.62C830.407 73.9027 831.73 68.7827 834.46 64.26C837.191 59.7373 840.988 56.1533 845.852 53.508C850.802 50.8627 856.348 49.54 862.492 49.54C868.466 49.54 873.842 50.82 878.62 53.38C883.484 55.94 887.324 59.524 890.14 64.132C892.956 68.74 894.45 73.9027 894.62 79.62C894.706 85.1667 893.383 90.244 890.652 94.852C887.922 99.3747 884.082 103.001 879.132 105.732C874.268 108.463 868.722 109.871 862.492 109.956ZM862.876 91.268C865.18 91.268 867.186 90.372 868.892 88.58C870.599 86.788 871.452 84.6973 871.452 82.308C871.452 79.9187 870.599 77.8707 868.892 76.164C867.186 74.372 865.18 73.476 862.876 73.476C860.572 73.476 858.567 74.372 856.86 76.164C855.154 77.8707 854.3 79.9187 854.3 82.308C854.3 84.6973 855.154 86.788 856.86 88.58C858.567 90.372 860.572 91.268 862.876 91.268Z" fill="white"/>
<path d="M929.468 109.828C923.239 109.828 917.778 108.292 913.084 105.22C908.391 102.063 904.764 97.7107 902.204 92.164C899.729 86.532 898.492 80.0467 898.492 72.708C898.492 65.54 899.644 59.908 901.948 55.812C904.252 51.716 907.452 49.668 911.548 49.668C918.802 49.668 922.428 53.38 922.428 60.804C922.428 62.34 922.386 63.7053 922.3 64.9C922.215 66.0093 922.13 66.9907 922.044 67.844C921.703 71.2573 921.532 73.988 921.532 76.036C921.532 79.7907 922.3 82.6493 923.836 84.612C925.372 86.5747 927.25 87.556 929.468 87.556C931.772 87.556 933.65 86.6173 935.1 84.74C936.636 82.7773 937.404 79.876 937.404 76.036C937.404 73.3053 937.276 70.788 937.02 68.484C936.935 67.716 936.849 66.6067 936.764 65.156C936.679 63.62 936.636 62.212 936.636 60.932C936.636 53.4227 940.263 49.668 947.516 49.668C951.612 49.668 954.77 51.716 956.988 55.812C959.292 59.8227 960.444 65.4547 960.444 72.708C960.444 84.0573 957.799 93.1027 952.508 99.844C947.218 106.5 939.538 109.828 929.468 109.828Z" fill="white"/>
<path d="M1016.55 109.828C1013.48 109.828 1011.18 108.975 1009.64 107.268C1008.19 105.561 1007.29 103.471 1006.95 100.996C1006.61 98.5213 1006.44 95.3213 1006.44 91.396C1006.44 86.3613 1005.76 82.4787 1004.39 79.748C1003.03 77.0173 1000.81 75.652 997.736 75.652C994.92 75.652 992.787 77.0173 991.336 79.748C989.971 82.3933 989.288 86.0627 989.288 90.756C989.288 95.2787 989.16 98.692 988.904 100.996C988.648 103.3 987.795 105.348 986.344 107.14C984.894 108.847 982.504 109.7 979.176 109.7C974.312 109.7 970.899 106.585 968.936 100.356C966.973 94.0413 965.992 86.66 965.992 78.212C965.992 57.732 970.301 47.492 978.92 47.492C981.31 47.492 983.272 48.0893 984.808 49.284C986.344 50.3933 987.411 52.0147 988.008 54.148C989.118 52.9533 990.824 51.8867 993.128 50.948C995.518 50.0093 998.035 49.54 1000.68 49.54C1010.07 49.54 1017.06 52.9533 1021.67 59.78C1026.37 66.6067 1028.71 75.8653 1028.71 87.556C1028.71 94.468 1027.82 99.9293 1026.02 103.94C1024.23 107.865 1021.07 109.828 1016.55 109.828Z" fill="white"/>
<path d="M1092.46 54.404C1092.46 58.8413 1090.37 61.8707 1086.18 63.492C1082 65.028 1076.29 65.8387 1069.03 65.924C1068.95 68.0573 1068.9 71.5133 1068.9 76.292C1068.9 81.156 1069.25 84.612 1069.93 86.66C1070.35 88.1107 1070.99 89.0493 1071.85 89.476C1072.79 89.9027 1074.15 90.2013 1075.94 90.372C1076.54 90.4573 1077.18 90.5853 1077.86 90.756C1078.63 90.8413 1079.49 90.9693 1080.42 91.14C1082.39 91.5667 1083.92 92.6333 1085.03 94.34C1086.14 95.9613 1086.7 98.052 1086.7 100.612C1086.7 103.513 1085.2 105.775 1082.22 107.396C1079.23 109.017 1075.13 109.828 1069.93 109.828C1065.15 109.828 1060.58 108.463 1056.23 105.732C1051.88 102.916 1048.89 99.1613 1047.27 94.468C1045.57 89.4333 1044.71 79.9187 1044.71 65.924C1038.74 65.7533 1033.92 64.9853 1030.25 63.62C1026.66 62.1693 1024.87 59.6093 1024.87 55.94C1024.87 51.332 1026.58 48.26 1029.99 46.724C1033.41 45.1027 1038.31 44.2493 1044.71 44.164C1044.97 37.3373 1046.03 31.6627 1047.91 27.14C1049.79 22.532 1053.16 20.228 1058.02 20.228C1062.97 20.228 1066.17 22.3613 1067.62 26.628C1069.16 30.8947 1069.84 36.74 1069.67 44.164C1077.44 44.0787 1083.15 44.676 1086.82 45.956C1090.58 47.236 1092.46 50.052 1092.46 54.404Z" fill="white"/>
<path d="M1112.56 109.828C1107.1 109.828 1103.43 106.628 1101.56 100.228C1099.76 93.828 1098.87 84.996 1098.87 73.732C1098.87 68.612 1099.08 64.3453 1099.51 60.932C1100.02 57.4333 1101.17 54.4893 1102.96 52.1C1104.84 49.6253 1107.7 48.388 1111.54 48.388C1113.93 48.388 1116.02 48.9427 1117.81 50.052C1119.69 51.1613 1120.88 52.74 1121.4 54.788C1123.27 53.0813 1125.7 51.8013 1128.69 50.948C1131.68 50.0947 1134.88 49.668 1138.29 49.668C1141.02 49.668 1143.8 50.3507 1146.61 51.716C1149.51 53.0813 1151.9 54.9587 1153.78 57.348C1155.74 59.652 1156.72 62.1693 1156.72 64.9C1156.72 67.6307 1155.74 70.0627 1153.78 72.196C1151.9 74.244 1149.38 75.268 1146.23 75.268C1145.2 75.268 1144.22 75.14 1143.28 74.884C1142.43 74.628 1141.66 74.372 1140.98 74.116C1139.27 73.4333 1137.91 73.092 1136.88 73.092C1133.56 73.092 1130.61 74.4147 1128.05 77.06C1125.58 79.62 1124.34 82.948 1124.34 87.044C1124.34 91.5667 1124.17 95.3213 1123.83 98.308C1123.49 101.295 1122.46 103.983 1120.76 106.372C1119.05 108.676 1116.32 109.828 1112.56 109.828Z" fill="white"/>
<path d="M1181.99 128.772C1177.39 128.772 1173.55 127.876 1170.47 126.084C1167.4 124.292 1165.87 121.647 1165.87 118.148C1165.87 115.332 1167.19 113.113 1169.83 111.492C1172.48 109.871 1175.59 109.145 1179.18 109.316C1182.93 109.487 1185.83 109.316 1187.88 108.804C1190.01 108.292 1191.64 107.353 1192.75 105.988C1184.89 105.988 1178.62 104.879 1173.93 102.66C1169.24 100.356 1165.82 96.8147 1163.69 92.036C1161.64 87.172 1160.62 80.772 1160.62 72.836C1160.62 66.0093 1161.64 60.5053 1163.69 56.324C1165.82 52.0573 1169.15 49.924 1173.67 49.924C1177.68 49.924 1180.63 51.076 1182.51 53.38C1184.47 55.5987 1185.45 58.5 1185.45 62.084L1185.32 67.716C1185.24 68.8253 1185.19 70.4467 1185.19 72.58C1185.19 76.676 1185.71 79.7907 1186.73 81.924C1187.75 83.972 1189.8 84.996 1192.87 84.996C1195.95 84.996 1197.99 83.972 1199.02 81.924C1200.04 79.7907 1200.55 76.7187 1200.55 72.708C1200.55 70.5747 1200.51 68.9533 1200.43 67.844L1200.3 62.34C1200.3 58.5 1201.24 55.4707 1203.11 53.252C1205.08 51.0333 1208.06 49.924 1212.07 49.924C1216.6 49.924 1219.92 52.0573 1222.06 56.324C1224.19 60.5907 1225.26 66.0947 1225.26 72.836C1225.26 82.9053 1223.81 92.164 1220.91 100.612C1218.09 108.975 1213.44 115.759 1206.95 120.964C1200.55 126.169 1192.23 128.772 1181.99 128.772Z" fill="white"/>
<path d="M58.4062 109.956C52.7742 109.956 47.3555 109.188 42.1502 107.652C37.0302 106.031 32.8489 103.812 29.6062 100.996C26.3635 98.0947 24.7422 94.8093 24.7422 91.14C24.7422 87.6413 25.8089 84.868 27.9422 82.82C30.0755 80.772 32.7635 79.748 36.0062 79.748C38.1395 79.748 39.9742 80.0467 41.5102 80.644C43.1315 81.156 44.8809 81.924 46.7582 82.948C48.1235 83.6307 49.2755 84.1853 50.2142 84.612C51.2382 84.9533 52.3049 85.124 53.4142 85.124C56.2302 85.124 57.6382 84.0147 57.6382 81.796C57.6382 80.9427 57.0409 80.2173 55.8462 79.62C54.6515 78.9373 52.6462 78.0413 49.8302 76.932C44.7955 74.9693 40.6995 73.0493 37.5422 71.172C32.6782 68.2707 29.3075 65.1133 27.4302 61.7C25.6382 58.2867 24.7422 54.02 24.7422 48.9C24.7422 43.9507 26.3209 39.3 29.4782 34.948C32.6355 30.5107 36.9449 26.9693 42.4062 24.324C47.8675 21.6787 53.8409 20.356 60.3262 20.356C66.6409 20.356 72.4009 21.3373 77.6062 23.3C82.8969 25.1773 87.0355 27.8227 90.0222 31.236C93.0942 34.564 94.6302 38.276 94.6302 42.372C94.6302 47.0653 93.2222 50.6067 90.4062 52.996C87.6755 55.3 84.6035 56.452 81.1902 56.452C78.3742 56.452 76.2409 56.2813 74.7902 55.94C73.4249 55.5987 72.0595 55.1293 70.6942 54.532C69.5849 54.1053 68.6462 53.8067 67.8782 53.636C67.1102 53.38 66.0435 53.252 64.6782 53.252C63.5689 53.252 62.5022 53.636 61.4782 54.404C60.5395 55.0867 60.0702 56.068 60.0702 57.348C60.0702 58.2867 60.6249 59.0973 61.7342 59.78C62.8435 60.3773 64.1235 60.932 65.5742 61.444C67.0249 61.956 68.0489 62.34 68.6462 62.596C76.5822 65.4973 82.4275 68.8253 86.1822 72.58C89.9369 76.2493 91.8142 81.028 91.8142 86.916C91.8142 94.1693 88.8702 99.844 82.9822 103.94C77.1795 107.951 68.9875 109.956 58.4062 109.956Z" stroke="#FF6161" stroke-width="40" mask="url(#path-1-outside-1_707_63)"/>
<path d="M127.995 109.828C121.681 109.828 116.091 108.591 111.227 106.116C106.363 103.641 102.566 100.185 99.8352 95.748C97.1899 91.2253 95.8672 86.148 95.8672 80.516C95.8672 74.9693 97.1899 69.8493 99.8352 65.156C102.566 60.4627 106.321 56.708 111.099 53.892C115.878 51.076 121.297 49.668 127.355 49.668C132.817 49.668 137.638 50.7773 141.819 52.996C146.001 55.2147 149.201 58.1587 151.419 61.828C153.638 65.412 154.747 69.1667 154.747 73.092C154.747 79.492 152.315 84.1853 147.451 87.172C142.673 90.0733 136.955 91.524 130.299 91.524C125.862 91.524 122.107 90.9693 119.035 89.86C121.595 94.0413 125.819 96.132 131.707 96.132C134.097 96.132 136.657 95.8333 139.387 95.236C140.411 94.98 141.393 94.852 142.331 94.852C144.209 94.852 145.702 95.3213 146.811 96.26C148.006 97.1987 148.603 98.4787 148.603 100.1C148.603 102.745 146.982 105.049 143.739 107.012C140.497 108.889 135.249 109.828 127.995 109.828ZM119.419 74.244C120.187 75.4387 121.211 76.3347 122.491 76.932C123.857 77.444 125.35 77.7 126.971 77.7C128.849 77.7 130.47 77.2733 131.835 76.42C133.286 75.5667 134.011 74.4573 134.011 73.092C134.011 71.556 133.371 70.2333 132.091 69.124C130.897 68.0147 129.147 67.46 126.843 67.46C124.539 67.46 122.705 68.1853 121.339 69.636C120.059 71.0013 119.419 72.5373 119.419 74.244Z" stroke="#FF6161" stroke-width="40" mask="url(#path-1-outside-1_707_63)"/>
<path d="M176.093 109.572C171.827 109.572 168.627 107.993 166.493 104.836C164.36 101.679 162.909 97.028 162.141 90.884C161.459 84.6547 161.117 75.9933 161.117 64.9C161.117 54.2333 161.373 45.9133 161.885 39.94C162.483 33.9667 163.848 29.188 165.981 25.604C168.2 22.02 171.613 20.228 176.221 20.228C180.829 20.228 184.2 22.02 186.333 25.604C188.552 29.188 189.917 33.9667 190.429 39.94C191.027 45.9133 191.325 54.2333 191.325 64.9C191.325 75.396 190.856 83.8867 189.917 90.372C189.064 96.772 187.528 101.593 185.309 104.836C183.091 107.993 180.019 109.572 176.093 109.572Z" stroke="#FF6161" stroke-width="40" mask="url(#path-1-outside-1_707_63)"/>
<path d="M227.37 109.828C221.056 109.828 215.466 108.591 210.602 106.116C205.738 103.641 201.941 100.185 199.21 95.748C196.565 91.2253 195.242 86.148 195.242 80.516C195.242 74.9693 196.565 69.8493 199.21 65.156C201.941 60.4627 205.696 56.708 210.474 53.892C215.253 51.076 220.672 49.668 226.73 49.668C232.192 49.668 237.013 50.7773 241.194 52.996C245.376 55.2147 248.576 58.1587 250.794 61.828C253.013 65.412 254.122 69.1667 254.122 73.092C254.122 79.492 251.69 84.1853 246.826 87.172C242.048 90.0733 236.33 91.524 229.674 91.524C225.237 91.524 221.482 90.9693 218.41 89.86C220.97 94.0413 225.194 96.132 231.082 96.132C233.472 96.132 236.032 95.8333 238.762 95.236C239.786 94.98 240.768 94.852 241.706 94.852C243.584 94.852 245.077 95.3213 246.186 96.26C247.381 97.1987 247.978 98.4787 247.978 100.1C247.978 102.745 246.357 105.049 243.114 107.012C239.872 108.889 234.624 109.828 227.37 109.828ZM218.794 74.244C219.562 75.4387 220.586 76.3347 221.866 76.932C223.232 77.444 224.725 77.7 226.346 77.7C228.224 77.7 229.845 77.2733 231.21 76.42C232.661 75.5667 233.386 74.4573 233.386 73.092C233.386 71.556 232.746 70.2333 231.466 69.124C230.272 68.0147 228.522 67.46 226.218 67.46C223.914 67.46 222.08 68.1853 220.714 69.636C219.434 71.0013 218.794 72.5373 218.794 74.244Z" stroke="#FF6161" stroke-width="40" mask="url(#path-1-outside-1_707_63)"/>
<path d="M289.352 109.7C283.891 109.7 278.728 108.377 273.864 105.732C269.086 103.001 265.246 99.332 262.344 94.724C259.443 90.116 257.992 84.9533 257.992 79.236C257.992 73.2627 259.4 68.0573 262.216 63.62C265.118 59.0973 268.915 55.6413 273.608 53.252C278.387 50.8627 283.507 49.668 288.968 49.668C294.174 49.668 298.867 50.692 303.048 52.74C307.23 54.788 310.472 57.476 312.776 60.804C315.08 64.0467 316.232 67.46 316.232 71.044C316.232 74.0307 315.294 76.3347 313.416 77.956C311.624 79.5773 308.936 80.388 305.352 80.388C303.475 80.388 302.024 80.0467 301 79.364C299.976 78.6813 298.91 77.6573 297.8 76.292C296.776 75.012 295.795 74.0733 294.856 73.476C294.003 72.7933 292.766 72.452 291.144 72.452C288.84 72.452 286.878 73.2627 285.256 74.884C283.635 76.42 282.824 78.4253 282.824 80.9C282.824 83.46 283.592 85.508 285.128 87.044C286.75 88.58 288.755 89.348 291.144 89.348C292.68 89.348 293.875 89.1347 294.728 88.708C295.582 88.2813 296.52 87.5987 297.544 86.66C298.739 85.636 299.848 84.9107 300.872 84.484C301.896 83.972 303.39 83.716 305.352 83.716C308.851 83.716 311.539 84.6547 313.416 86.532C315.294 88.4093 316.232 90.5853 316.232 93.06C316.232 95.9613 315.08 98.692 312.776 101.252C310.558 103.812 307.4 105.86 303.304 107.396C299.208 108.932 294.558 109.7 289.352 109.7Z" stroke="#FF6161" stroke-width="40" mask="url(#path-1-outside-1_707_63)"/>
<path d="M382.581 54.404C382.581 58.8413 380.491 61.8707 376.309 63.492C372.128 65.028 366.411 65.8387 359.157 65.924C359.072 68.0573 359.029 71.5133 359.029 76.292C359.029 81.156 359.371 84.612 360.053 86.66C360.48 88.1107 361.12 89.0493 361.973 89.476C362.912 89.9027 364.277 90.2013 366.069 90.372C366.667 90.4573 367.307 90.5853 367.989 90.756C368.757 90.8413 369.611 90.9693 370.549 91.14C372.512 91.5667 374.048 92.6333 375.157 94.34C376.267 95.9613 376.821 98.052 376.821 100.612C376.821 103.513 375.328 105.775 372.341 107.396C369.355 109.017 365.259 109.828 360.053 109.828C355.275 109.828 350.709 108.463 346.357 105.732C342.005 102.916 339.019 99.1613 337.397 94.468C335.691 89.4333 334.837 79.9187 334.837 65.924C328.864 65.7533 324.043 64.9853 320.373 63.62C316.789 62.1693 314.997 59.6093 314.997 55.94C314.997 51.332 316.704 48.26 320.117 46.724C323.531 45.1027 328.437 44.2493 334.837 44.164C335.093 37.3373 336.16 31.6627 338.037 27.14C339.915 22.532 343.285 20.228 348.149 20.228C353.099 20.228 356.299 22.3613 357.749 26.628C359.285 30.8947 359.968 36.74 359.797 44.164C367.563 44.0787 373.28 44.676 376.949 45.956C380.704 47.236 382.581 50.052 382.581 54.404Z" stroke="#FF6161" stroke-width="40" mask="url(#path-1-outside-1_707_63)"/>
<path d="M512.743 51.588C512.743 62.1693 510.183 70.6173 505.063 76.932C499.943 83.1613 492.903 87.3 483.943 89.348C484.029 90.5427 484.071 92.3773 484.071 94.852C484.071 99.6307 482.663 103.343 479.847 105.988C477.117 108.548 473.831 109.828 469.991 109.828C465.895 109.828 462.311 108.505 459.239 105.86C456.167 103.129 454.631 99.46 454.631 94.852C454.631 92.2067 454.674 90.2867 454.759 89.092C446.311 86.8733 439.613 82.7347 434.663 76.676C429.799 70.6173 427.367 62.7667 427.367 53.124C427.367 42.9693 429.074 34.9907 432.487 29.188C435.901 23.3853 440.935 20.484 447.591 20.484C452.37 20.484 456.167 21.9347 458.983 24.836C461.799 27.652 463.207 31.5773 463.207 36.612C463.207 37.9773 462.994 41.1347 462.567 46.084C462.226 49.156 462.055 51.076 462.055 51.844C462.055 55.428 462.653 58.1587 463.847 60.036C465.127 61.9133 467.175 62.852 469.991 62.852C472.807 62.852 474.813 61.9133 476.007 60.036C477.287 58.1587 477.927 55.428 477.927 51.844C477.927 50.9907 477.757 49.028 477.415 45.956C476.989 40.836 476.775 37.6787 476.775 36.484C476.775 31.5347 478.226 27.652 481.127 24.836C484.029 21.9347 487.826 20.484 492.519 20.484C499.175 20.484 504.21 23.3 507.623 28.932C511.037 34.564 512.743 42.116 512.743 51.588Z" stroke="#FF6161" stroke-width="40" mask="url(#path-1-outside-1_707_63)"/>
<path d="M544.742 109.956C538.598 110.041 533.094 108.761 528.23 106.116C523.452 103.471 519.697 99.844 516.966 95.236C514.321 90.5427 512.913 85.3373 512.742 79.62C512.657 73.9027 513.98 68.7827 516.71 64.26C519.441 59.7373 523.238 56.1533 528.102 53.508C533.052 50.8627 538.598 49.54 544.742 49.54C550.716 49.54 556.092 50.82 560.87 53.38C565.734 55.94 569.574 59.524 572.39 64.132C575.206 68.74 576.7 73.9027 576.87 79.62C576.956 85.1667 575.633 90.244 572.902 94.852C570.172 99.3747 566.332 103.001 561.382 105.732C556.518 108.463 550.972 109.871 544.742 109.956ZM545.126 91.268C547.43 91.268 549.436 90.372 551.142 88.58C552.849 86.788 553.702 84.6973 553.702 82.308C553.702 79.9187 552.849 77.8707 551.142 76.164C549.436 74.372 547.43 73.476 545.126 73.476C542.822 73.476 540.817 74.372 539.11 76.164C537.404 77.8707 536.55 79.9187 536.55 82.308C536.55 84.6973 537.404 86.788 539.11 88.58C540.817 90.372 542.822 91.268 545.126 91.268Z" stroke="#FF6161" stroke-width="40" mask="url(#path-1-outside-1_707_63)"/>
<path d="M611.718 109.828C605.489 109.828 600.028 108.292 595.334 105.22C590.641 102.063 587.014 97.7107 584.454 92.164C581.979 86.532 580.742 80.0467 580.742 72.708C580.742 65.54 581.894 59.908 584.198 55.812C586.502 51.716 589.702 49.668 593.798 49.668C601.052 49.668 604.678 53.38 604.678 60.804C604.678 62.34 604.636 63.7053 604.55 64.9C604.465 66.0093 604.38 66.9907 604.294 67.844C603.953 71.2573 603.782 73.988 603.782 76.036C603.782 79.7907 604.55 82.6493 606.086 84.612C607.622 86.5747 609.5 87.556 611.718 87.556C614.022 87.556 615.9 86.6173 617.35 84.74C618.886 82.7773 619.654 79.876 619.654 76.036C619.654 73.3053 619.526 70.788 619.27 68.484C619.185 67.716 619.099 66.6067 619.014 65.156C618.929 63.62 618.886 62.212 618.886 60.932C618.886 53.4227 622.513 49.668 629.766 49.668C633.862 49.668 637.02 51.716 639.238 55.812C641.542 59.8227 642.694 65.4547 642.694 72.708C642.694 84.0573 640.049 93.1027 634.758 99.844C629.468 106.5 621.788 109.828 611.718 109.828Z" stroke="#FF6161" stroke-width="40" mask="url(#path-1-outside-1_707_63)"/>
<path d="M660.688 109.828C655.227 109.828 651.558 106.628 649.68 100.228C647.888 93.828 646.992 84.996 646.992 73.732C646.992 68.612 647.206 64.3453 647.632 60.932C648.144 57.4333 649.296 54.4893 651.088 52.1C652.966 49.6253 655.824 48.388 659.664 48.388C662.054 48.388 664.144 48.9427 665.936 50.052C667.814 51.1613 669.008 52.74 669.52 54.788C671.398 53.0813 673.829 51.8013 676.816 50.948C679.803 50.0947 683.003 49.668 686.416 49.668C689.147 49.668 691.92 50.3507 694.736 51.716C697.638 53.0813 700.027 54.9587 701.904 57.348C703.867 59.652 704.848 62.1693 704.848 64.9C704.848 67.6307 703.867 70.0627 701.904 72.196C700.027 74.244 697.51 75.268 694.352 75.268C693.328 75.268 692.347 75.14 691.408 74.884C690.555 74.628 689.787 74.372 689.104 74.116C687.398 73.4333 686.032 73.092 685.008 73.092C681.68 73.092 678.736 74.4147 676.176 77.06C673.702 79.62 672.464 82.948 672.464 87.044C672.464 91.5667 672.294 95.3213 671.952 98.308C671.611 101.295 670.587 103.983 668.88 106.372C667.174 108.676 664.443 109.828 660.688 109.828Z" stroke="#FF6161" stroke-width="40" mask="url(#path-1-outside-1_707_63)"/>
<path d="M793.521 109.572C785.159 109.572 777.649 107.908 770.993 104.58C764.422 101.167 759.217 96.132 755.377 89.476C751.537 82.7347 749.617 74.5 749.617 64.772C749.617 56.9213 751.409 49.5827 754.993 42.756C758.577 35.9293 763.527 30.468 769.841 26.372C776.156 22.276 783.239 20.228 791.089 20.228C798.513 20.228 805.127 21.636 810.929 24.452C816.732 27.1827 821.212 30.9373 824.369 35.716C827.612 40.4947 829.233 45.828 829.233 51.716C829.233 55.4707 828.124 58.7133 825.905 61.444C823.772 64.1747 820.7 65.54 816.689 65.54C813.703 65.54 811.399 65.028 809.777 64.004C808.156 62.98 806.449 61.4013 804.657 59.268C802.865 57.1347 801.116 55.556 799.409 54.532C797.788 53.4227 795.399 52.868 792.241 52.868C788.231 52.868 784.775 54.404 781.873 57.476C779.057 60.4627 777.649 64.132 777.649 68.484C777.649 73.1773 778.844 77.1453 781.233 80.388C783.708 83.5453 787.036 85.124 791.217 85.124C794.46 85.124 797.02 84.6547 798.897 83.716C800.86 82.7773 802.908 81.412 805.041 79.62C806.833 78.084 808.455 76.932 809.905 76.164C811.441 75.396 813.319 75.012 815.537 75.012C818.951 75.012 821.639 76.0787 823.601 78.212C825.564 80.26 826.545 82.948 826.545 86.276C826.545 90.2013 825.095 93.956 822.193 97.54C819.377 101.124 815.452 104.025 810.417 106.244C805.383 108.463 799.751 109.572 793.521 109.572Z" stroke="#FF6161" stroke-width="40" mask="url(#path-1-outside-1_707_63)"/>
<path d="M862.492 109.956C856.348 110.041 850.844 108.761 845.98 106.116C841.201 103.471 837.447 99.844 834.716 95.236C832.071 90.5427 830.663 85.3373 830.492 79.62C830.407 73.9027 831.73 68.7827 834.46 64.26C837.191 59.7373 840.988 56.1533 845.852 53.508C850.802 50.8627 856.348 49.54 862.492 49.54C868.466 49.54 873.842 50.82 878.62 53.38C883.484 55.94 887.324 59.524 890.14 64.132C892.956 68.74 894.45 73.9027 894.62 79.62C894.706 85.1667 893.383 90.244 890.652 94.852C887.922 99.3747 884.082 103.001 879.132 105.732C874.268 108.463 868.722 109.871 862.492 109.956ZM862.876 91.268C865.18 91.268 867.186 90.372 868.892 88.58C870.599 86.788 871.452 84.6973 871.452 82.308C871.452 79.9187 870.599 77.8707 868.892 76.164C867.186 74.372 865.18 73.476 862.876 73.476C860.572 73.476 858.567 74.372 856.86 76.164C855.154 77.8707 854.3 79.9187 854.3 82.308C854.3 84.6973 855.154 86.788 856.86 88.58C858.567 90.372 860.572 91.268 862.876 91.268Z" stroke="#FF6161" stroke-width="40" mask="url(#path-1-outside-1_707_63)"/>
<path d="M929.468 109.828C923.239 109.828 917.778 108.292 913.084 105.22C908.391 102.063 904.764 97.7107 902.204 92.164C899.729 86.532 898.492 80.0467 898.492 72.708C898.492 65.54 899.644 59.908 901.948 55.812C904.252 51.716 907.452 49.668 911.548 49.668C918.802 49.668 922.428 53.38 922.428 60.804C922.428 62.34 922.386 63.7053 922.3 64.9C922.215 66.0093 922.13 66.9907 922.044 67.844C921.703 71.2573 921.532 73.988 921.532 76.036C921.532 79.7907 922.3 82.6493 923.836 84.612C925.372 86.5747 927.25 87.556 929.468 87.556C931.772 87.556 933.65 86.6173 935.1 84.74C936.636 82.7773 937.404 79.876 937.404 76.036C937.404 73.3053 937.276 70.788 937.02 68.484C936.935 67.716 936.849 66.6067 936.764 65.156C936.679 63.62 936.636 62.212 936.636 60.932C936.636 53.4227 940.263 49.668 947.516 49.668C951.612 49.668 954.77 51.716 956.988 55.812C959.292 59.8227 960.444 65.4547 960.444 72.708C960.444 84.0573 957.799 93.1027 952.508 99.844C947.218 106.5 939.538 109.828 929.468 109.828Z" stroke="#FF6161" stroke-width="40" mask="url(#path-1-outside-1_707_63)"/>
<path d="M1016.55 109.828C1013.48 109.828 1011.18 108.975 1009.64 107.268C1008.19 105.561 1007.29 103.471 1006.95 100.996C1006.61 98.5213 1006.44 95.3213 1006.44 91.396C1006.44 86.3613 1005.76 82.4787 1004.39 79.748C1003.03 77.0173 1000.81 75.652 997.736 75.652C994.92 75.652 992.787 77.0173 991.336 79.748C989.971 82.3933 989.288 86.0627 989.288 90.756C989.288 95.2787 989.16 98.692 988.904 100.996C988.648 103.3 987.795 105.348 986.344 107.14C984.894 108.847 982.504 109.7 979.176 109.7C974.312 109.7 970.899 106.585 968.936 100.356C966.973 94.0413 965.992 86.66 965.992 78.212C965.992 57.732 970.301 47.492 978.92 47.492C981.31 47.492 983.272 48.0893 984.808 49.284C986.344 50.3933 987.411 52.0147 988.008 54.148C989.118 52.9533 990.824 51.8867 993.128 50.948C995.518 50.0093 998.035 49.54 1000.68 49.54C1010.07 49.54 1017.06 52.9533 1021.67 59.78C1026.37 66.6067 1028.71 75.8653 1028.71 87.556C1028.71 94.468 1027.82 99.9293 1026.02 103.94C1024.23 107.865 1021.07 109.828 1016.55 109.828Z" stroke="#FF6161" stroke-width="40" mask="url(#path-1-outside-1_707_63)"/>
<path d="M1092.46 54.404C1092.46 58.8413 1090.37 61.8707 1086.18 63.492C1082 65.028 1076.29 65.8387 1069.03 65.924C1068.95 68.0573 1068.9 71.5133 1068.9 76.292C1068.9 81.156 1069.25 84.612 1069.93 86.66C1070.35 88.1107 1070.99 89.0493 1071.85 89.476C1072.79 89.9027 1074.15 90.2013 1075.94 90.372C1076.54 90.4573 1077.18 90.5853 1077.86 90.756C1078.63 90.8413 1079.49 90.9693 1080.42 91.14C1082.39 91.5667 1083.92 92.6333 1085.03 94.34C1086.14 95.9613 1086.7 98.052 1086.7 100.612C1086.7 103.513 1085.2 105.775 1082.22 107.396C1079.23 109.017 1075.13 109.828 1069.93 109.828C1065.15 109.828 1060.58 108.463 1056.23 105.732C1051.88 102.916 1048.89 99.1613 1047.27 94.468C1045.57 89.4333 1044.71 79.9187 1044.71 65.924C1038.74 65.7533 1033.92 64.9853 1030.25 63.62C1026.66 62.1693 1024.87 59.6093 1024.87 55.94C1024.87 51.332 1026.58 48.26 1029.99 46.724C1033.41 45.1027 1038.31 44.2493 1044.71 44.164C1044.97 37.3373 1046.03 31.6627 1047.91 27.14C1049.79 22.532 1053.16 20.228 1058.02 20.228C1062.97 20.228 1066.17 22.3613 1067.62 26.628C1069.16 30.8947 1069.84 36.74 1069.67 44.164C1077.44 44.0787 1083.15 44.676 1086.82 45.956C1090.58 47.236 1092.46 50.052 1092.46 54.404Z" stroke="#FF6161" stroke-width="40" mask="url(#path-1-outside-1_707_63)"/>
<path d="M1112.56 109.828C1107.1 109.828 1103.43 106.628 1101.56 100.228C1099.76 93.828 1098.87 84.996 1098.87 73.732C1098.87 68.612 1099.08 64.3453 1099.51 60.932C1100.02 57.4333 1101.17 54.4893 1102.96 52.1C1104.84 49.6253 1107.7 48.388 1111.54 48.388C1113.93 48.388 1116.02 48.9427 1117.81 50.052C1119.69 51.1613 1120.88 52.74 1121.4 54.788C1123.27 53.0813 1125.7 51.8013 1128.69 50.948C1131.68 50.0947 1134.88 49.668 1138.29 49.668C1141.02 49.668 1143.8 50.3507 1146.61 51.716C1149.51 53.0813 1151.9 54.9587 1153.78 57.348C1155.74 59.652 1156.72 62.1693 1156.72 64.9C1156.72 67.6307 1155.74 70.0627 1153.78 72.196C1151.9 74.244 1149.38 75.268 1146.23 75.268C1145.2 75.268 1144.22 75.14 1143.28 74.884C1142.43 74.628 1141.66 74.372 1140.98 74.116C1139.27 73.4333 1137.91 73.092 1136.88 73.092C1133.56 73.092 1130.61 74.4147 1128.05 77.06C1125.58 79.62 1124.34 82.948 1124.34 87.044C1124.34 91.5667 1124.17 95.3213 1123.83 98.308C1123.49 101.295 1122.46 103.983 1120.76 106.372C1119.05 108.676 1116.32 109.828 1112.56 109.828Z" stroke="#FF6161" stroke-width="40" mask="url(#path-1-outside-1_707_63)"/>
<path d="M1181.99 128.772C1177.39 128.772 1173.55 127.876 1170.47 126.084C1167.4 124.292 1165.87 121.647 1165.87 118.148C1165.87 115.332 1167.19 113.113 1169.83 111.492C1172.48 109.871 1175.59 109.145 1179.18 109.316C1182.93 109.487 1185.83 109.316 1187.88 108.804C1190.01 108.292 1191.64 107.353 1192.75 105.988C1184.89 105.988 1178.62 104.879 1173.93 102.66C1169.24 100.356 1165.82 96.8147 1163.69 92.036C1161.64 87.172 1160.62 80.772 1160.62 72.836C1160.62 66.0093 1161.64 60.5053 1163.69 56.324C1165.82 52.0573 1169.15 49.924 1173.67 49.924C1177.68 49.924 1180.63 51.076 1182.51 53.38C1184.47 55.5987 1185.45 58.5 1185.45 62.084L1185.32 67.716C1185.24 68.8253 1185.19 70.4467 1185.19 72.58C1185.19 76.676 1185.71 79.7907 1186.73 81.924C1187.75 83.972 1189.8 84.996 1192.87 84.996C1195.95 84.996 1197.99 83.972 1199.02 81.924C1200.04 79.7907 1200.55 76.7187 1200.55 72.708C1200.55 70.5747 1200.51 68.9533 1200.43 67.844L1200.3 62.34C1200.3 58.5 1201.24 55.4707 1203.11 53.252C1205.08 51.0333 1208.06 49.924 1212.07 49.924C1216.6 49.924 1219.92 52.0573 1222.06 56.324C1224.19 60.5907 1225.26 66.0947 1225.26 72.836C1225.26 82.9053 1223.81 92.164 1220.91 100.612C1218.09 108.975 1213.44 115.759 1206.95 120.964C1200.55 126.169 1192.23 128.772 1181.99 128.772Z" stroke="#FF6161" stroke-width="40" mask="url(#path-1-outside-1_707_63)"/>
</g>
<defs>
<filter id="filter0_d_707_63" x="0.742188" y="0.227997" width="1248.51" height="156.544" filterUnits="userSpaceOnUse" color-interpolation-filters="sRGB">
<feFlood flood-opacity="0" result="BackgroundImageFix"/>
<feColorMatrix in="SourceAlpha" type="matrix" values="0 0 0 0 0 0 0 0 0 0 0 0 0 0 0 0 0 0 127 0" result="hardAlpha"/>
<feOffset dy="4"/>
<feGaussianBlur stdDeviation="2"/>
<feComposite in2="hardAlpha" operator="out"/>
<feColorMatrix type="matrix" values="0 0 0 0 0 0 0 0 0 0 0 0 0 0 0 0 0 0 0.25 0"/>
<feBlend mode="normal" in2="BackgroundImageFix" result="effect1_dropShadow_707_63"/>
<feBlend mode="normal" in="SourceGraphic" in2="effect1_dropShadow_707_63" result="shape"/>
</filter>
</defs>
</svg>
