<svg width="1332" height="139" viewBox="0 0 1332 139" fill="none" xmlns="http://www.w3.org/2000/svg">
<g filter="url(#filter0_d_707_61)">
<mask id="path-1-outside-1_707_61" maskUnits="userSpaceOnUse" x="4.58789" y="0.571991" width="1323" height="130" fill="black">
<rect fill="white" x="4.58789" y="0.571991" width="1323" height="130"/>
<path d="M58.2519 110.3C52.6199 110.3 47.2012 109.532 41.9959 107.996C36.8759 106.375 32.6946 104.156 29.4519 101.34C26.2092 98.4387 24.5879 95.1533 24.5879 91.484C24.5879 87.9853 25.6546 85.212 27.7879 83.164C29.9212 81.116 32.6092 80.092 35.8519 80.092C37.9852 80.092 39.8199 80.3907 41.3559 80.988C42.9772 81.5 44.7266 82.268 46.6039 83.292C47.9692 83.9747 49.1212 84.5293 50.0599 84.956C51.0839 85.2973 52.1506 85.468 53.2599 85.468C56.0759 85.468 57.4839 84.3587 57.4839 82.14C57.4839 81.2867 56.8866 80.5613 55.6919 79.964C54.4972 79.2813 52.4919 78.3853 49.6759 77.276C44.6412 75.3133 40.5452 73.3933 37.3879 71.516C32.5239 68.6147 29.1532 65.4573 27.2759 62.044C25.4839 58.6307 24.5879 54.364 24.5879 49.244C24.5879 44.2947 26.1666 39.644 29.3239 35.292C32.4812 30.8547 36.7906 27.3133 42.2519 24.668C47.7132 22.0227 53.6866 20.7 60.1719 20.7C66.4866 20.7 72.2466 21.6813 77.4519 23.644C82.7426 25.5213 86.8812 28.1667 89.8679 31.58C92.9399 34.908 94.4759 38.62 94.4759 42.716C94.4759 47.4093 93.0679 50.9507 90.2519 53.34C87.5212 55.644 84.4492 56.796 81.0359 56.796C78.2199 56.796 76.0866 56.6253 74.6359 56.284C73.2706 55.9427 71.9052 55.4733 70.5399 54.876C69.4306 54.4493 68.4919 54.1507 67.7239 53.98C66.9559 53.724 65.8892 53.596 64.5239 53.596C63.4146 53.596 62.3479 53.98 61.3239 54.748C60.3852 55.4307 59.9159 56.412 59.9159 57.692C59.9159 58.6307 60.4706 59.4413 61.5799 60.124C62.6892 60.7213 63.9692 61.276 65.4199 61.788C66.8706 62.3 67.8946 62.684 68.4919 62.94C76.4279 65.8413 82.2732 69.1693 86.0279 72.924C89.7826 76.5933 91.6599 81.372 91.6599 87.26C91.6599 94.5133 88.7159 100.188 82.8279 104.284C77.0252 108.295 68.8332 110.3 58.2519 110.3Z"/>
<path d="M159.585 89.692C163.681 90.972 165.729 93.66 165.729 97.756C165.729 101.596 163.766 104.625 159.841 106.844C155.916 109.063 149.132 110.172 139.489 110.172C127.457 110.172 117.132 107.271 108.513 101.468C99.9796 95.6653 95.7129 84.1453 95.7129 66.908C95.7129 58.204 97.2062 50.3533 100.193 43.356C103.18 36.3587 107.617 30.812 113.505 26.716C119.478 22.62 126.774 20.572 135.393 20.572C146.913 20.572 155.02 22.364 159.713 25.948C164.406 29.4467 166.753 33.756 166.753 38.876C166.753 41.2653 166.156 43.484 164.961 45.532C163.766 47.4947 161.974 49.0307 159.585 50.14C157.537 51.164 154.892 51.676 151.649 51.676L148.193 51.548C147.51 51.4627 146.529 51.42 145.249 51.42C140.812 51.42 137.313 52.2307 134.753 53.852C132.193 55.388 130.444 57.7773 129.505 61.02C133.089 60.8493 136.332 60.764 139.233 60.764C147.852 60.764 153.441 61.02 156.001 61.532C158.902 62.1293 161.121 63.2813 162.657 64.988C164.278 66.6947 165.089 68.7 165.089 71.004C165.089 73.308 164.321 75.3133 162.785 77.02C161.249 78.6413 158.945 79.7507 155.873 80.348C153.484 80.86 147.681 81.116 138.465 81.116C134.71 81.116 132.065 81.0733 130.529 80.988C133.174 86.62 138.124 89.436 145.377 89.436C145.804 89.436 146.785 89.3507 148.321 89.18C150.369 89.0093 152.118 88.924 153.569 88.924C156.044 88.924 158.049 89.18 159.585 89.692Z"/>
<path d="M208.797 110.172C200.178 110.172 192.882 108.423 186.909 104.924C180.936 101.34 177.01 96.0067 175.133 88.924C174.365 86.0227 173.853 82.4813 173.597 78.3C173.341 74.1187 173.213 68.7853 173.213 62.3C173.213 49.5853 174.578 39.4733 177.309 31.964C180.125 24.3693 185.672 20.572 193.949 20.572C199.069 20.572 203.08 22.364 205.981 25.948C208.968 29.532 210.461 33.9693 210.461 39.26C210.461 44.892 209.992 50.908 209.053 57.308C208.114 63.708 206.792 71.4733 205.085 80.604C210.376 78.8973 216.178 78.044 222.493 78.044C229.064 78.044 234.525 79.2387 238.877 81.628C243.314 84.0173 245.533 87.9 245.533 93.276C245.533 98.4813 243.826 102.321 240.413 104.796C237 107.271 232.861 108.807 227.997 109.404C223.133 109.916 216.733 110.172 208.797 110.172Z"/>
<path d="M311.96 89.692C316.056 90.972 318.104 93.66 318.104 97.756C318.104 101.596 316.141 104.625 312.216 106.844C308.291 109.063 301.507 110.172 291.864 110.172C279.832 110.172 269.507 107.271 260.888 101.468C252.355 95.6653 248.088 84.1453 248.088 66.908C248.088 58.204 249.581 50.3533 252.568 43.356C255.555 36.3587 259.992 30.812 265.88 26.716C271.853 22.62 279.149 20.572 287.768 20.572C299.288 20.572 307.395 22.364 312.088 25.948C316.781 29.4467 319.128 33.756 319.128 38.876C319.128 41.2653 318.531 43.484 317.336 45.532C316.141 47.4947 314.349 49.0307 311.96 50.14C309.912 51.164 307.267 51.676 304.024 51.676L300.568 51.548C299.885 51.4627 298.904 51.42 297.624 51.42C293.187 51.42 289.688 52.2307 287.128 53.852C284.568 55.388 282.819 57.7773 281.88 61.02C285.464 60.8493 288.707 60.764 291.608 60.764C300.227 60.764 305.816 61.02 308.376 61.532C311.277 62.1293 313.496 63.2813 315.032 64.988C316.653 66.6947 317.464 68.7 317.464 71.004C317.464 73.308 316.696 75.3133 315.16 77.02C313.624 78.6413 311.32 79.7507 308.248 80.348C305.859 80.86 300.056 81.116 290.84 81.116C287.085 81.116 284.44 81.0733 282.904 80.988C285.549 86.62 290.499 89.436 297.752 89.436C298.179 89.436 299.16 89.3507 300.696 89.18C302.744 89.0093 304.493 88.924 305.944 88.924C308.419 88.924 310.424 89.18 311.96 89.692Z"/>
<path d="M368.242 109.916C359.879 109.916 352.37 108.252 345.714 104.924C339.143 101.511 333.938 96.476 330.098 89.82C326.258 83.0787 324.338 74.844 324.338 65.116C324.338 57.2653 326.13 49.9267 329.714 43.1C333.298 36.2733 338.247 30.812 344.562 26.716C350.877 22.62 357.959 20.572 365.81 20.572C373.234 20.572 379.847 21.98 385.65 24.796C391.453 27.5267 395.933 31.2813 399.09 36.06C402.333 40.8387 403.954 46.172 403.954 52.06C403.954 55.8147 402.845 59.0573 400.626 61.788C398.493 64.5187 395.421 65.884 391.41 65.884C388.423 65.884 386.119 65.372 384.498 64.348C382.877 63.324 381.17 61.7453 379.378 59.612C377.586 57.4787 375.837 55.9 374.13 54.876C372.509 53.7667 370.119 53.212 366.962 53.212C362.951 53.212 359.495 54.748 356.594 57.82C353.778 60.8067 352.37 64.476 352.37 68.828C352.37 73.5213 353.565 77.4893 355.954 80.732C358.429 83.8893 361.757 85.468 365.938 85.468C369.181 85.468 371.741 84.9987 373.618 84.06C375.581 83.1213 377.629 81.756 379.762 79.964C381.554 78.428 383.175 77.276 384.626 76.508C386.162 75.74 388.039 75.356 390.258 75.356C393.671 75.356 396.359 76.4227 398.322 78.556C400.285 80.604 401.266 83.292 401.266 86.62C401.266 90.5453 399.815 94.3 396.914 97.884C394.098 101.468 390.173 104.369 385.138 106.588C380.103 108.807 374.471 109.916 368.242 109.916Z"/>
<path d="M496.959 39.644C496.959 45.276 494.612 49.372 489.919 51.932C485.311 54.4067 477.759 55.9 467.263 56.412C467.604 60.508 467.775 65.7987 467.775 72.284C467.775 81.3293 467.263 88.5827 466.239 94.044C465.3 99.42 463.636 103.431 461.247 106.076C458.858 108.636 455.53 109.916 451.263 109.916C447.082 109.916 443.882 108.551 441.663 105.82C439.444 103.089 437.908 99.036 437.055 93.66C436.202 88.284 435.775 81.1587 435.775 72.284C435.775 66.3107 435.903 61.02 436.159 56.412C429.076 56.0707 423.359 55.3453 419.007 54.236C414.74 53.0413 411.583 51.292 409.535 48.988C407.487 46.684 406.463 43.5693 406.463 39.644C406.463 34.8653 408.084 31.1107 411.327 28.38C414.57 25.6493 419.434 23.7293 425.919 22.62C432.404 21.5107 440.895 20.956 451.391 20.956C461.972 20.956 470.548 21.5107 477.119 22.62C483.69 23.7293 488.639 25.6493 491.967 28.38C495.295 31.1107 496.959 34.8653 496.959 39.644Z"/>
<path d="M585.617 109.916C577.254 109.916 569.745 108.252 563.089 104.924C556.518 101.511 551.313 96.476 547.473 89.82C543.633 83.0787 541.713 74.844 541.713 65.116C541.713 57.2653 543.505 49.9267 547.089 43.1C550.673 36.2733 555.622 30.812 561.937 26.716C568.252 22.62 575.334 20.572 583.185 20.572C590.609 20.572 597.222 21.98 603.025 24.796C608.828 27.5267 613.308 31.2813 616.465 36.06C619.708 40.8387 621.329 46.172 621.329 52.06C621.329 55.8147 620.22 59.0573 618.001 61.788C615.868 64.5187 612.796 65.884 608.785 65.884C605.798 65.884 603.494 65.372 601.873 64.348C600.252 63.324 598.545 61.7453 596.753 59.612C594.961 57.4787 593.212 55.9 591.505 54.876C589.884 53.7667 587.494 53.212 584.337 53.212C580.326 53.212 576.87 54.748 573.969 57.82C571.153 60.8067 569.745 64.476 569.745 68.828C569.745 73.5213 570.94 77.4893 573.329 80.732C575.804 83.8893 579.132 85.468 583.313 85.468C586.556 85.468 589.116 84.9987 590.993 84.06C592.956 83.1213 595.004 81.756 597.137 79.964C598.929 78.428 600.55 77.276 602.001 76.508C603.537 75.74 605.414 75.356 607.633 75.356C611.046 75.356 613.734 76.4227 615.697 78.556C617.66 80.604 618.641 83.292 618.641 86.62C618.641 90.5453 617.19 94.3 614.289 97.884C611.473 101.468 607.548 104.369 602.513 106.588C597.478 108.807 591.846 109.916 585.617 109.916Z"/>
<path d="M698.241 20.828C703.02 20.828 706.689 22.492 709.249 25.82C711.894 29.148 713.686 34.012 714.625 40.412C715.564 46.7267 716.033 55.132 716.033 65.628C716.033 76.124 715.564 84.5293 714.625 90.844C713.686 97.0733 711.937 101.809 709.377 105.052C706.817 108.295 703.105 109.916 698.241 109.916C692.438 109.916 688.342 107.441 685.953 102.492C683.564 97.5427 682.156 89.8627 681.729 79.452C679.084 79.5373 674.732 79.58 668.673 79.58H662.017C661.505 89.9907 660.054 97.6707 657.665 102.62C655.276 107.569 651.18 110.044 645.377 110.044C640.513 110.044 636.801 108.423 634.241 105.18C631.681 101.937 629.932 97.2013 628.993 90.972C628.14 84.6573 627.713 76.2093 627.713 65.628C627.713 55.0467 628.14 46.5987 628.993 40.284C629.932 33.9693 631.681 29.1907 634.241 25.948C636.801 22.62 640.513 20.956 645.377 20.956C649.558 20.956 652.844 22.2787 655.233 24.924C657.622 27.484 659.286 31.2387 660.225 36.188C661.249 41.052 661.889 47.3667 662.145 55.132H671.233C675.926 55.132 679.382 55.1747 681.601 55.26C681.857 43.484 683.137 34.8227 685.441 29.276C687.83 23.644 692.097 20.828 698.241 20.828Z"/>
<path d="M742.431 110.428C736.714 110.428 732.106 107.655 728.607 102.108C725.194 96.476 723.188 88.8813 722.591 79.324C722.506 77.9587 722.463 75.9533 722.463 73.308C722.463 62.9827 724.17 53.852 727.583 45.916C730.996 37.8947 735.818 31.708 742.047 27.356C748.362 22.9187 755.7 20.7 764.063 20.7C772.426 20.7 779.722 22.9187 785.951 27.356C792.266 31.708 797.087 37.852 800.415 45.788C803.828 53.724 805.535 62.8973 805.535 73.308C805.535 75.9533 805.492 77.9587 805.407 79.324C804.81 89.052 802.804 96.6467 799.391 102.108C795.978 107.569 791.37 110.3 785.567 110.3C780.874 110.3 777.588 109.02 775.711 106.46C773.919 103.9 773.023 100.785 773.023 97.116C773.023 95.4093 773.151 93.916 773.407 92.636C768.97 92.8067 765.044 92.892 761.631 92.892C759.498 92.892 757.151 92.8067 754.591 92.636C754.847 93.916 754.975 95.4093 754.975 97.116C754.975 100.871 754.036 104.028 752.159 106.588C750.367 109.148 747.124 110.428 742.431 110.428ZM753.695 69.852C758.303 69.6813 761.674 69.596 763.807 69.596C766.111 69.596 769.482 69.6813 773.919 69.852C774.09 68.9133 774.175 67.5053 774.175 65.628C774.175 61.6173 773.322 58.3747 771.615 55.9C769.908 53.34 767.263 52.06 763.679 52.06C760.18 52.06 757.578 53.2973 755.871 55.772C754.164 58.2467 753.311 61.4467 753.311 65.372C753.311 66.8227 753.439 68.316 753.695 69.852Z"/>
<path d="M888.537 56.796C888.537 63.0253 887.598 68.5293 885.721 73.308C883.929 78.0867 881.369 82.0973 878.041 85.34C880.857 89.692 882.265 93.916 882.265 98.012C882.265 101.511 880.9 104.412 878.169 106.716C875.524 109.02 872.494 110.172 869.081 110.172C867.118 110.172 865.326 109.873 863.705 109.276C862.084 108.679 860.334 107.655 858.457 106.204C856.836 104.924 855.3 103.175 853.849 100.956C852.398 98.7373 851.246 96.4333 850.393 94.044C847.577 93.7027 844.761 92.9773 841.945 91.868C842.457 94.5987 842.713 96.6893 842.713 98.14C842.713 106.247 838.489 110.3 830.041 110.3C822.958 110.3 817.966 106.161 815.065 97.884C812.164 89.6067 810.713 79.4947 810.713 67.548C810.713 59.4413 812.164 51.8467 815.065 44.764C818.052 37.596 822.574 31.836 828.633 27.484C834.692 23.0467 842.073 20.828 850.777 20.828C857.774 20.828 864.132 22.3213 869.849 25.308C875.566 28.2093 880.089 32.3907 883.417 37.852C886.83 43.3133 888.537 49.628 888.537 56.796ZM840.665 62.812C840.665 65.7133 841.817 68.2733 844.121 70.492C846.425 72.6253 849.07 73.692 852.057 73.692C855.129 73.692 857.774 72.6253 859.993 70.492C862.297 68.2733 863.449 65.7133 863.449 62.812C863.449 59.8253 862.297 57.2653 859.993 55.132C857.774 52.9133 855.129 51.804 852.057 51.804C849.07 51.804 846.425 52.9133 844.121 55.132C841.817 57.3507 840.665 59.9107 840.665 62.812Z"/>
<path d="M912.431 110.428C906.714 110.428 902.106 107.655 898.607 102.108C895.194 96.476 893.188 88.8813 892.591 79.324C892.506 77.9587 892.463 75.9533 892.463 73.308C892.463 62.9827 894.17 53.852 897.583 45.916C900.996 37.8947 905.818 31.708 912.047 27.356C918.362 22.9187 925.7 20.7 934.063 20.7C942.426 20.7 949.722 22.9187 955.951 27.356C962.266 31.708 967.087 37.852 970.415 45.788C973.828 53.724 975.535 62.8973 975.535 73.308C975.535 75.9533 975.492 77.9587 975.407 79.324C974.81 89.052 972.804 96.6467 969.391 102.108C965.978 107.569 961.37 110.3 955.567 110.3C950.874 110.3 947.588 109.02 945.711 106.46C943.919 103.9 943.023 100.785 943.023 97.116C943.023 95.4093 943.151 93.916 943.407 92.636C938.97 92.8067 935.044 92.892 931.631 92.892C929.498 92.892 927.151 92.8067 924.591 92.636C924.847 93.916 924.975 95.4093 924.975 97.116C924.975 100.871 924.036 104.028 922.159 106.588C920.367 109.148 917.124 110.428 912.431 110.428ZM923.695 69.852C928.303 69.6813 931.674 69.596 933.807 69.596C936.111 69.596 939.482 69.6813 943.919 69.852C944.09 68.9133 944.175 67.5053 944.175 65.628C944.175 61.6173 943.322 58.3747 941.615 55.9C939.908 53.34 937.263 52.06 933.679 52.06C930.18 52.06 927.578 53.2973 925.871 55.772C924.164 58.2467 923.311 61.4467 923.311 65.372C923.311 66.8227 923.439 68.316 923.695 69.852Z"/>
<path d="M1025.87 109.916C1017.5 109.916 1009.99 108.252 1003.34 104.924C996.768 101.511 991.563 96.476 987.723 89.82C983.883 83.0787 981.963 74.844 981.963 65.116C981.963 57.2653 983.755 49.9267 987.339 43.1C990.923 36.2733 995.872 30.812 1002.19 26.716C1008.5 22.62 1015.58 20.572 1023.43 20.572C1030.86 20.572 1037.47 21.98 1043.27 24.796C1049.08 27.5267 1053.56 31.2813 1056.71 36.06C1059.96 40.8387 1061.58 46.172 1061.58 52.06C1061.58 55.8147 1060.47 59.0573 1058.25 61.788C1056.12 64.5187 1053.05 65.884 1049.03 65.884C1046.05 65.884 1043.74 65.372 1042.12 64.348C1040.5 63.324 1038.79 61.7453 1037 59.612C1035.21 57.4787 1033.46 55.9 1031.75 54.876C1030.13 53.7667 1027.74 53.212 1024.59 53.212C1020.58 53.212 1017.12 54.748 1014.22 57.82C1011.4 60.8067 1009.99 64.476 1009.99 68.828C1009.99 73.5213 1011.19 77.4893 1013.58 80.732C1016.05 83.8893 1019.38 85.468 1023.56 85.468C1026.81 85.468 1029.37 84.9987 1031.24 84.06C1033.21 83.1213 1035.25 81.756 1037.39 79.964C1039.18 78.428 1040.8 77.276 1042.25 76.508C1043.79 75.74 1045.66 75.356 1047.88 75.356C1051.3 75.356 1053.98 76.4227 1055.95 78.556C1057.91 80.604 1058.89 83.292 1058.89 86.62C1058.89 90.5453 1057.44 94.3 1054.54 97.884C1051.72 101.468 1047.8 104.369 1042.76 106.588C1037.73 108.807 1032.1 109.916 1025.87 109.916Z"/>
<path d="M1154.58 39.644C1154.58 45.276 1152.24 49.372 1147.54 51.932C1142.94 54.4067 1135.38 55.9 1124.89 56.412C1125.23 60.508 1125.4 65.7987 1125.4 72.284C1125.4 81.3293 1124.89 88.5827 1123.86 94.044C1122.93 99.42 1121.26 103.431 1118.87 106.076C1116.48 108.636 1113.15 109.916 1108.89 109.916C1104.71 109.916 1101.51 108.551 1099.29 105.82C1097.07 103.089 1095.53 99.036 1094.68 93.66C1093.83 88.284 1093.4 81.1587 1093.4 72.284C1093.4 66.3107 1093.53 61.02 1093.78 56.412C1086.7 56.0707 1080.98 55.3453 1076.63 54.236C1072.37 53.0413 1069.21 51.292 1067.16 48.988C1065.11 46.684 1064.09 43.5693 1064.09 39.644C1064.09 34.8653 1065.71 31.1107 1068.95 28.38C1072.19 25.6493 1077.06 23.7293 1083.54 22.62C1090.03 21.5107 1098.52 20.956 1109.02 20.956C1119.6 20.956 1128.17 21.5107 1134.74 22.62C1141.31 23.7293 1146.26 25.6493 1149.59 28.38C1152.92 31.1107 1154.58 34.8653 1154.58 39.644Z"/>
<path d="M1218.46 89.692C1222.56 90.972 1224.6 93.66 1224.6 97.756C1224.6 101.596 1222.64 104.625 1218.72 106.844C1214.79 109.063 1208.01 110.172 1198.36 110.172C1186.33 110.172 1176.01 107.271 1167.39 101.468C1158.85 95.6653 1154.59 84.1453 1154.59 66.908C1154.59 58.204 1156.08 50.3533 1159.07 43.356C1162.05 36.3587 1166.49 30.812 1172.38 26.716C1178.35 22.62 1185.65 20.572 1194.27 20.572C1205.79 20.572 1213.89 22.364 1218.59 25.948C1223.28 29.4467 1225.63 33.756 1225.63 38.876C1225.63 41.2653 1225.03 43.484 1223.84 45.532C1222.64 47.4947 1220.85 49.0307 1218.46 50.14C1216.41 51.164 1213.77 51.676 1210.52 51.676L1207.07 51.548C1206.39 51.4627 1205.4 51.42 1204.12 51.42C1199.69 51.42 1196.19 52.2307 1193.63 53.852C1191.07 55.388 1189.32 57.7773 1188.38 61.02C1191.96 60.8493 1195.21 60.764 1198.11 60.764C1206.73 60.764 1212.32 61.02 1214.88 61.532C1217.78 62.1293 1220 63.2813 1221.53 64.988C1223.15 66.6947 1223.96 68.7 1223.96 71.004C1223.96 73.308 1223.2 75.3133 1221.66 77.02C1220.12 78.6413 1217.82 79.7507 1214.75 80.348C1212.36 80.86 1206.56 81.116 1197.34 81.116C1193.59 81.116 1190.94 81.0733 1189.4 80.988C1192.05 86.62 1197 89.436 1204.25 89.436C1204.68 89.436 1205.66 89.3507 1207.2 89.18C1209.24 89.0093 1210.99 88.924 1212.44 88.924C1214.92 88.924 1216.92 89.18 1218.46 89.692Z"/>
<path d="M1307.41 56.796C1307.41 63.0253 1306.47 68.5293 1304.6 73.308C1302.8 78.0867 1300.24 82.0973 1296.92 85.34C1299.73 89.692 1301.14 93.916 1301.14 98.012C1301.14 101.511 1299.77 104.412 1297.04 106.716C1294.4 109.02 1291.37 110.172 1287.96 110.172C1285.99 110.172 1284.2 109.873 1282.58 109.276C1280.96 108.679 1279.21 107.655 1277.33 106.204C1275.71 104.924 1274.17 103.175 1272.72 100.956C1271.27 98.7373 1270.12 96.4333 1269.27 94.044C1266.45 93.7027 1263.64 92.9773 1260.82 91.868C1261.33 94.5987 1261.59 96.6893 1261.59 98.14C1261.59 106.247 1257.36 110.3 1248.92 110.3C1241.83 110.3 1236.84 106.161 1233.94 97.884C1231.04 89.6067 1229.59 79.4947 1229.59 67.548C1229.59 59.4413 1231.04 51.8467 1233.94 44.764C1236.93 37.596 1241.45 31.836 1247.51 27.484C1253.57 23.0467 1260.95 20.828 1269.65 20.828C1276.65 20.828 1283.01 22.3213 1288.72 25.308C1294.44 28.2093 1298.96 32.3907 1302.29 37.852C1305.71 43.3133 1307.41 49.628 1307.41 56.796ZM1259.54 62.812C1259.54 65.7133 1260.69 68.2733 1263 70.492C1265.3 72.6253 1267.95 73.692 1270.93 73.692C1274 73.692 1276.65 72.6253 1278.87 70.492C1281.17 68.2733 1282.32 65.7133 1282.32 62.812C1282.32 59.8253 1281.17 57.2653 1278.87 55.132C1276.65 52.9133 1274 51.804 1270.93 51.804C1267.95 51.804 1265.3 52.9133 1263 55.132C1260.69 57.3507 1259.54 59.9107 1259.54 62.812Z"/>
</mask>
<path d="M58.2519 110.3C52.6199 110.3 47.2012 109.532 41.9959 107.996C36.8759 106.375 32.6946 104.156 29.4519 101.34C26.2092 98.4387 24.5879 95.1533 24.5879 91.484C24.5879 87.9853 25.6546 85.212 27.7879 83.164C29.9212 81.116 32.6092 80.092 35.8519 80.092C37.9852 80.092 39.8199 80.3907 41.3559 80.988C42.9772 81.5 44.7266 82.268 46.6039 83.292C47.9692 83.9747 49.1212 84.5293 50.0599 84.956C51.0839 85.2973 52.1506 85.468 53.2599 85.468C56.0759 85.468 57.4839 84.3587 57.4839 82.14C57.4839 81.2867 56.8866 80.5613 55.6919 79.964C54.4972 79.2813 52.4919 78.3853 49.6759 77.276C44.6412 75.3133 40.5452 73.3933 37.3879 71.516C32.5239 68.6147 29.1532 65.4573 27.2759 62.044C25.4839 58.6307 24.5879 54.364 24.5879 49.244C24.5879 44.2947 26.1666 39.644 29.3239 35.292C32.4812 30.8547 36.7906 27.3133 42.2519 24.668C47.7132 22.0227 53.6866 20.7 60.1719 20.7C66.4866 20.7 72.2466 21.6813 77.4519 23.644C82.7426 25.5213 86.8812 28.1667 89.8679 31.58C92.9399 34.908 94.4759 38.62 94.4759 42.716C94.4759 47.4093 93.0679 50.9507 90.2519 53.34C87.5212 55.644 84.4492 56.796 81.0359 56.796C78.2199 56.796 76.0866 56.6253 74.6359 56.284C73.2706 55.9427 71.9052 55.4733 70.5399 54.876C69.4306 54.4493 68.4919 54.1507 67.7239 53.98C66.9559 53.724 65.8892 53.596 64.5239 53.596C63.4146 53.596 62.3479 53.98 61.3239 54.748C60.3852 55.4307 59.9159 56.412 59.9159 57.692C59.9159 58.6307 60.4706 59.4413 61.5799 60.124C62.6892 60.7213 63.9692 61.276 65.4199 61.788C66.8706 62.3 67.8946 62.684 68.4919 62.94C76.4279 65.8413 82.2732 69.1693 86.0279 72.924C89.7826 76.5933 91.6599 81.372 91.6599 87.26C91.6599 94.5133 88.7159 100.188 82.8279 104.284C77.0252 108.295 68.8332 110.3 58.2519 110.3Z" fill="white"/>
<path d="M159.585 89.692C163.681 90.972 165.729 93.66 165.729 97.756C165.729 101.596 163.766 104.625 159.841 106.844C155.916 109.063 149.132 110.172 139.489 110.172C127.457 110.172 117.132 107.271 108.513 101.468C99.9796 95.6653 95.7129 84.1453 95.7129 66.908C95.7129 58.204 97.2062 50.3533 100.193 43.356C103.18 36.3587 107.617 30.812 113.505 26.716C119.478 22.62 126.774 20.572 135.393 20.572C146.913 20.572 155.02 22.364 159.713 25.948C164.406 29.4467 166.753 33.756 166.753 38.876C166.753 41.2653 166.156 43.484 164.961 45.532C163.766 47.4947 161.974 49.0307 159.585 50.14C157.537 51.164 154.892 51.676 151.649 51.676L148.193 51.548C147.51 51.4627 146.529 51.42 145.249 51.42C140.812 51.42 137.313 52.2307 134.753 53.852C132.193 55.388 130.444 57.7773 129.505 61.02C133.089 60.8493 136.332 60.764 139.233 60.764C147.852 60.764 153.441 61.02 156.001 61.532C158.902 62.1293 161.121 63.2813 162.657 64.988C164.278 66.6947 165.089 68.7 165.089 71.004C165.089 73.308 164.321 75.3133 162.785 77.02C161.249 78.6413 158.945 79.7507 155.873 80.348C153.484 80.86 147.681 81.116 138.465 81.116C134.71 81.116 132.065 81.0733 130.529 80.988C133.174 86.62 138.124 89.436 145.377 89.436C145.804 89.436 146.785 89.3507 148.321 89.18C150.369 89.0093 152.118 88.924 153.569 88.924C156.044 88.924 158.049 89.18 159.585 89.692Z" fill="white"/>
<path d="M208.797 110.172C200.178 110.172 192.882 108.423 186.909 104.924C180.936 101.34 177.01 96.0067 175.133 88.924C174.365 86.0227 173.853 82.4813 173.597 78.3C173.341 74.1187 173.213 68.7853 173.213 62.3C173.213 49.5853 174.578 39.4733 177.309 31.964C180.125 24.3693 185.672 20.572 193.949 20.572C199.069 20.572 203.08 22.364 205.981 25.948C208.968 29.532 210.461 33.9693 210.461 39.26C210.461 44.892 209.992 50.908 209.053 57.308C208.114 63.708 206.792 71.4733 205.085 80.604C210.376 78.8973 216.178 78.044 222.493 78.044C229.064 78.044 234.525 79.2387 238.877 81.628C243.314 84.0173 245.533 87.9 245.533 93.276C245.533 98.4813 243.826 102.321 240.413 104.796C237 107.271 232.861 108.807 227.997 109.404C223.133 109.916 216.733 110.172 208.797 110.172Z" fill="white"/>
<path d="M311.96 89.692C316.056 90.972 318.104 93.66 318.104 97.756C318.104 101.596 316.141 104.625 312.216 106.844C308.291 109.063 301.507 110.172 291.864 110.172C279.832 110.172 269.507 107.271 260.888 101.468C252.355 95.6653 248.088 84.1453 248.088 66.908C248.088 58.204 249.581 50.3533 252.568 43.356C255.555 36.3587 259.992 30.812 265.88 26.716C271.853 22.62 279.149 20.572 287.768 20.572C299.288 20.572 307.395 22.364 312.088 25.948C316.781 29.4467 319.128 33.756 319.128 38.876C319.128 41.2653 318.531 43.484 317.336 45.532C316.141 47.4947 314.349 49.0307 311.96 50.14C309.912 51.164 307.267 51.676 304.024 51.676L300.568 51.548C299.885 51.4627 298.904 51.42 297.624 51.42C293.187 51.42 289.688 52.2307 287.128 53.852C284.568 55.388 282.819 57.7773 281.88 61.02C285.464 60.8493 288.707 60.764 291.608 60.764C300.227 60.764 305.816 61.02 308.376 61.532C311.277 62.1293 313.496 63.2813 315.032 64.988C316.653 66.6947 317.464 68.7 317.464 71.004C317.464 73.308 316.696 75.3133 315.16 77.02C313.624 78.6413 311.32 79.7507 308.248 80.348C305.859 80.86 300.056 81.116 290.84 81.116C287.085 81.116 284.44 81.0733 282.904 80.988C285.549 86.62 290.499 89.436 297.752 89.436C298.179 89.436 299.16 89.3507 300.696 89.18C302.744 89.0093 304.493 88.924 305.944 88.924C308.419 88.924 310.424 89.18 311.96 89.692Z" fill="white"/>
<path d="M368.242 109.916C359.879 109.916 352.37 108.252 345.714 104.924C339.143 101.511 333.938 96.476 330.098 89.82C326.258 83.0787 324.338 74.844 324.338 65.116C324.338 57.2653 326.13 49.9267 329.714 43.1C333.298 36.2733 338.247 30.812 344.562 26.716C350.877 22.62 357.959 20.572 365.81 20.572C373.234 20.572 379.847 21.98 385.65 24.796C391.453 27.5267 395.933 31.2813 399.09 36.06C402.333 40.8387 403.954 46.172 403.954 52.06C403.954 55.8147 402.845 59.0573 400.626 61.788C398.493 64.5187 395.421 65.884 391.41 65.884C388.423 65.884 386.119 65.372 384.498 64.348C382.877 63.324 381.17 61.7453 379.378 59.612C377.586 57.4787 375.837 55.9 374.13 54.876C372.509 53.7667 370.119 53.212 366.962 53.212C362.951 53.212 359.495 54.748 356.594 57.82C353.778 60.8067 352.37 64.476 352.37 68.828C352.37 73.5213 353.565 77.4893 355.954 80.732C358.429 83.8893 361.757 85.468 365.938 85.468C369.181 85.468 371.741 84.9987 373.618 84.06C375.581 83.1213 377.629 81.756 379.762 79.964C381.554 78.428 383.175 77.276 384.626 76.508C386.162 75.74 388.039 75.356 390.258 75.356C393.671 75.356 396.359 76.4227 398.322 78.556C400.285 80.604 401.266 83.292 401.266 86.62C401.266 90.5453 399.815 94.3 396.914 97.884C394.098 101.468 390.173 104.369 385.138 106.588C380.103 108.807 374.471 109.916 368.242 109.916Z" fill="white"/>
<path d="M496.959 39.644C496.959 45.276 494.612 49.372 489.919 51.932C485.311 54.4067 477.759 55.9 467.263 56.412C467.604 60.508 467.775 65.7987 467.775 72.284C467.775 81.3293 467.263 88.5827 466.239 94.044C465.3 99.42 463.636 103.431 461.247 106.076C458.858 108.636 455.53 109.916 451.263 109.916C447.082 109.916 443.882 108.551 441.663 105.82C439.444 103.089 437.908 99.036 437.055 93.66C436.202 88.284 435.775 81.1587 435.775 72.284C435.775 66.3107 435.903 61.02 436.159 56.412C429.076 56.0707 423.359 55.3453 419.007 54.236C414.74 53.0413 411.583 51.292 409.535 48.988C407.487 46.684 406.463 43.5693 406.463 39.644C406.463 34.8653 408.084 31.1107 411.327 28.38C414.57 25.6493 419.434 23.7293 425.919 22.62C432.404 21.5107 440.895 20.956 451.391 20.956C461.972 20.956 470.548 21.5107 477.119 22.62C483.69 23.7293 488.639 25.6493 491.967 28.38C495.295 31.1107 496.959 34.8653 496.959 39.644Z" fill="white"/>
<path d="M585.617 109.916C577.254 109.916 569.745 108.252 563.089 104.924C556.518 101.511 551.313 96.476 547.473 89.82C543.633 83.0787 541.713 74.844 541.713 65.116C541.713 57.2653 543.505 49.9267 547.089 43.1C550.673 36.2733 555.622 30.812 561.937 26.716C568.252 22.62 575.334 20.572 583.185 20.572C590.609 20.572 597.222 21.98 603.025 24.796C608.828 27.5267 613.308 31.2813 616.465 36.06C619.708 40.8387 621.329 46.172 621.329 52.06C621.329 55.8147 620.22 59.0573 618.001 61.788C615.868 64.5187 612.796 65.884 608.785 65.884C605.798 65.884 603.494 65.372 601.873 64.348C600.252 63.324 598.545 61.7453 596.753 59.612C594.961 57.4787 593.212 55.9 591.505 54.876C589.884 53.7667 587.494 53.212 584.337 53.212C580.326 53.212 576.87 54.748 573.969 57.82C571.153 60.8067 569.745 64.476 569.745 68.828C569.745 73.5213 570.94 77.4893 573.329 80.732C575.804 83.8893 579.132 85.468 583.313 85.468C586.556 85.468 589.116 84.9987 590.993 84.06C592.956 83.1213 595.004 81.756 597.137 79.964C598.929 78.428 600.55 77.276 602.001 76.508C603.537 75.74 605.414 75.356 607.633 75.356C611.046 75.356 613.734 76.4227 615.697 78.556C617.66 80.604 618.641 83.292 618.641 86.62C618.641 90.5453 617.19 94.3 614.289 97.884C611.473 101.468 607.548 104.369 602.513 106.588C597.478 108.807 591.846 109.916 585.617 109.916Z" fill="white"/>
<path d="M698.241 20.828C703.02 20.828 706.689 22.492 709.249 25.82C711.894 29.148 713.686 34.012 714.625 40.412C715.564 46.7267 716.033 55.132 716.033 65.628C716.033 76.124 715.564 84.5293 714.625 90.844C713.686 97.0733 711.937 101.809 709.377 105.052C706.817 108.295 703.105 109.916 698.241 109.916C692.438 109.916 688.342 107.441 685.953 102.492C683.564 97.5427 682.156 89.8627 681.729 79.452C679.084 79.5373 674.732 79.58 668.673 79.58H662.017C661.505 89.9907 660.054 97.6707 657.665 102.62C655.276 107.569 651.18 110.044 645.377 110.044C640.513 110.044 636.801 108.423 634.241 105.18C631.681 101.937 629.932 97.2013 628.993 90.972C628.14 84.6573 627.713 76.2093 627.713 65.628C627.713 55.0467 628.14 46.5987 628.993 40.284C629.932 33.9693 631.681 29.1907 634.241 25.948C636.801 22.62 640.513 20.956 645.377 20.956C649.558 20.956 652.844 22.2787 655.233 24.924C657.622 27.484 659.286 31.2387 660.225 36.188C661.249 41.052 661.889 47.3667 662.145 55.132H671.233C675.926 55.132 679.382 55.1747 681.601 55.26C681.857 43.484 683.137 34.8227 685.441 29.276C687.83 23.644 692.097 20.828 698.241 20.828Z" fill="white"/>
<path d="M742.431 110.428C736.714 110.428 732.106 107.655 728.607 102.108C725.194 96.476 723.188 88.8813 722.591 79.324C722.506 77.9587 722.463 75.9533 722.463 73.308C722.463 62.9827 724.17 53.852 727.583 45.916C730.996 37.8947 735.818 31.708 742.047 27.356C748.362 22.9187 755.7 20.7 764.063 20.7C772.426 20.7 779.722 22.9187 785.951 27.356C792.266 31.708 797.087 37.852 800.415 45.788C803.828 53.724 805.535 62.8973 805.535 73.308C805.535 75.9533 805.492 77.9587 805.407 79.324C804.81 89.052 802.804 96.6467 799.391 102.108C795.978 107.569 791.37 110.3 785.567 110.3C780.874 110.3 777.588 109.02 775.711 106.46C773.919 103.9 773.023 100.785 773.023 97.116C773.023 95.4093 773.151 93.916 773.407 92.636C768.97 92.8067 765.044 92.892 761.631 92.892C759.498 92.892 757.151 92.8067 754.591 92.636C754.847 93.916 754.975 95.4093 754.975 97.116C754.975 100.871 754.036 104.028 752.159 106.588C750.367 109.148 747.124 110.428 742.431 110.428ZM753.695 69.852C758.303 69.6813 761.674 69.596 763.807 69.596C766.111 69.596 769.482 69.6813 773.919 69.852C774.09 68.9133 774.175 67.5053 774.175 65.628C774.175 61.6173 773.322 58.3747 771.615 55.9C769.908 53.34 767.263 52.06 763.679 52.06C760.18 52.06 757.578 53.2973 755.871 55.772C754.164 58.2467 753.311 61.4467 753.311 65.372C753.311 66.8227 753.439 68.316 753.695 69.852Z" fill="white"/>
<path d="M888.537 56.796C888.537 63.0253 887.598 68.5293 885.721 73.308C883.929 78.0867 881.369 82.0973 878.041 85.34C880.857 89.692 882.265 93.916 882.265 98.012C882.265 101.511 880.9 104.412 878.169 106.716C875.524 109.02 872.494 110.172 869.081 110.172C867.118 110.172 865.326 109.873 863.705 109.276C862.084 108.679 860.334 107.655 858.457 106.204C856.836 104.924 855.3 103.175 853.849 100.956C852.398 98.7373 851.246 96.4333 850.393 94.044C847.577 93.7027 844.761 92.9773 841.945 91.868C842.457 94.5987 842.713 96.6893 842.713 98.14C842.713 106.247 838.489 110.3 830.041 110.3C822.958 110.3 817.966 106.161 815.065 97.884C812.164 89.6067 810.713 79.4947 810.713 67.548C810.713 59.4413 812.164 51.8467 815.065 44.764C818.052 37.596 822.574 31.836 828.633 27.484C834.692 23.0467 842.073 20.828 850.777 20.828C857.774 20.828 864.132 22.3213 869.849 25.308C875.566 28.2093 880.089 32.3907 883.417 37.852C886.83 43.3133 888.537 49.628 888.537 56.796ZM840.665 62.812C840.665 65.7133 841.817 68.2733 844.121 70.492C846.425 72.6253 849.07 73.692 852.057 73.692C855.129 73.692 857.774 72.6253 859.993 70.492C862.297 68.2733 863.449 65.7133 863.449 62.812C863.449 59.8253 862.297 57.2653 859.993 55.132C857.774 52.9133 855.129 51.804 852.057 51.804C849.07 51.804 846.425 52.9133 844.121 55.132C841.817 57.3507 840.665 59.9107 840.665 62.812Z" fill="white"/>
<path d="M912.431 110.428C906.714 110.428 902.106 107.655 898.607 102.108C895.194 96.476 893.188 88.8813 892.591 79.324C892.506 77.9587 892.463 75.9533 892.463 73.308C892.463 62.9827 894.17 53.852 897.583 45.916C900.996 37.8947 905.818 31.708 912.047 27.356C918.362 22.9187 925.7 20.7 934.063 20.7C942.426 20.7 949.722 22.9187 955.951 27.356C962.266 31.708 967.087 37.852 970.415 45.788C973.828 53.724 975.535 62.8973 975.535 73.308C975.535 75.9533 975.492 77.9587 975.407 79.324C974.81 89.052 972.804 96.6467 969.391 102.108C965.978 107.569 961.37 110.3 955.567 110.3C950.874 110.3 947.588 109.02 945.711 106.46C943.919 103.9 943.023 100.785 943.023 97.116C943.023 95.4093 943.151 93.916 943.407 92.636C938.97 92.8067 935.044 92.892 931.631 92.892C929.498 92.892 927.151 92.8067 924.591 92.636C924.847 93.916 924.975 95.4093 924.975 97.116C924.975 100.871 924.036 104.028 922.159 106.588C920.367 109.148 917.124 110.428 912.431 110.428ZM923.695 69.852C928.303 69.6813 931.674 69.596 933.807 69.596C936.111 69.596 939.482 69.6813 943.919 69.852C944.09 68.9133 944.175 67.5053 944.175 65.628C944.175 61.6173 943.322 58.3747 941.615 55.9C939.908 53.34 937.263 52.06 933.679 52.06C930.18 52.06 927.578 53.2973 925.871 55.772C924.164 58.2467 923.311 61.4467 923.311 65.372C923.311 66.8227 923.439 68.316 923.695 69.852Z" fill="white"/>
<path d="M1025.87 109.916C1017.5 109.916 1009.99 108.252 1003.34 104.924C996.768 101.511 991.563 96.476 987.723 89.82C983.883 83.0787 981.963 74.844 981.963 65.116C981.963 57.2653 983.755 49.9267 987.339 43.1C990.923 36.2733 995.872 30.812 1002.19 26.716C1008.5 22.62 1015.58 20.572 1023.43 20.572C1030.86 20.572 1037.47 21.98 1043.27 24.796C1049.08 27.5267 1053.56 31.2813 1056.71 36.06C1059.96 40.8387 1061.58 46.172 1061.58 52.06C1061.58 55.8147 1060.47 59.0573 1058.25 61.788C1056.12 64.5187 1053.05 65.884 1049.03 65.884C1046.05 65.884 1043.74 65.372 1042.12 64.348C1040.5 63.324 1038.79 61.7453 1037 59.612C1035.21 57.4787 1033.46 55.9 1031.75 54.876C1030.13 53.7667 1027.74 53.212 1024.59 53.212C1020.58 53.212 1017.12 54.748 1014.22 57.82C1011.4 60.8067 1009.99 64.476 1009.99 68.828C1009.99 73.5213 1011.19 77.4893 1013.58 80.732C1016.05 83.8893 1019.38 85.468 1023.56 85.468C1026.81 85.468 1029.37 84.9987 1031.24 84.06C1033.21 83.1213 1035.25 81.756 1037.39 79.964C1039.18 78.428 1040.8 77.276 1042.25 76.508C1043.79 75.74 1045.66 75.356 1047.88 75.356C1051.3 75.356 1053.98 76.4227 1055.95 78.556C1057.91 80.604 1058.89 83.292 1058.89 86.62C1058.89 90.5453 1057.44 94.3 1054.54 97.884C1051.72 101.468 1047.8 104.369 1042.76 106.588C1037.73 108.807 1032.1 109.916 1025.87 109.916Z" fill="white"/>
<path d="M1154.58 39.644C1154.58 45.276 1152.24 49.372 1147.54 51.932C1142.94 54.4067 1135.38 55.9 1124.89 56.412C1125.23 60.508 1125.4 65.7987 1125.4 72.284C1125.4 81.3293 1124.89 88.5827 1123.86 94.044C1122.93 99.42 1121.26 103.431 1118.87 106.076C1116.48 108.636 1113.15 109.916 1108.89 109.916C1104.71 109.916 1101.51 108.551 1099.29 105.82C1097.07 103.089 1095.53 99.036 1094.68 93.66C1093.83 88.284 1093.4 81.1587 1093.4 72.284C1093.4 66.3107 1093.53 61.02 1093.78 56.412C1086.7 56.0707 1080.98 55.3453 1076.63 54.236C1072.37 53.0413 1069.21 51.292 1067.16 48.988C1065.11 46.684 1064.09 43.5693 1064.09 39.644C1064.09 34.8653 1065.71 31.1107 1068.95 28.38C1072.19 25.6493 1077.06 23.7293 1083.54 22.62C1090.03 21.5107 1098.52 20.956 1109.02 20.956C1119.6 20.956 1128.17 21.5107 1134.74 22.62C1141.31 23.7293 1146.26 25.6493 1149.59 28.38C1152.92 31.1107 1154.58 34.8653 1154.58 39.644Z" fill="white"/>
<path d="M1218.46 89.692C1222.56 90.972 1224.6 93.66 1224.6 97.756C1224.6 101.596 1222.64 104.625 1218.72 106.844C1214.79 109.063 1208.01 110.172 1198.36 110.172C1186.33 110.172 1176.01 107.271 1167.39 101.468C1158.85 95.6653 1154.59 84.1453 1154.59 66.908C1154.59 58.204 1156.08 50.3533 1159.07 43.356C1162.05 36.3587 1166.49 30.812 1172.38 26.716C1178.35 22.62 1185.65 20.572 1194.27 20.572C1205.79 20.572 1213.89 22.364 1218.59 25.948C1223.28 29.4467 1225.63 33.756 1225.63 38.876C1225.63 41.2653 1225.03 43.484 1223.84 45.532C1222.64 47.4947 1220.85 49.0307 1218.46 50.14C1216.41 51.164 1213.77 51.676 1210.52 51.676L1207.07 51.548C1206.39 51.4627 1205.4 51.42 1204.12 51.42C1199.69 51.42 1196.19 52.2307 1193.63 53.852C1191.07 55.388 1189.32 57.7773 1188.38 61.02C1191.96 60.8493 1195.21 60.764 1198.11 60.764C1206.73 60.764 1212.32 61.02 1214.88 61.532C1217.78 62.1293 1220 63.2813 1221.53 64.988C1223.15 66.6947 1223.96 68.7 1223.96 71.004C1223.96 73.308 1223.2 75.3133 1221.66 77.02C1220.12 78.6413 1217.82 79.7507 1214.75 80.348C1212.36 80.86 1206.56 81.116 1197.34 81.116C1193.59 81.116 1190.94 81.0733 1189.4 80.988C1192.05 86.62 1197 89.436 1204.25 89.436C1204.68 89.436 1205.66 89.3507 1207.2 89.18C1209.24 89.0093 1210.99 88.924 1212.44 88.924C1214.92 88.924 1216.92 89.18 1218.46 89.692Z" fill="white"/>
<path d="M1307.41 56.796C1307.41 63.0253 1306.47 68.5293 1304.6 73.308C1302.8 78.0867 1300.24 82.0973 1296.92 85.34C1299.73 89.692 1301.14 93.916 1301.14 98.012C1301.14 101.511 1299.77 104.412 1297.04 106.716C1294.4 109.02 1291.37 110.172 1287.96 110.172C1285.99 110.172 1284.2 109.873 1282.58 109.276C1280.96 108.679 1279.21 107.655 1277.33 106.204C1275.71 104.924 1274.17 103.175 1272.72 100.956C1271.27 98.7373 1270.12 96.4333 1269.27 94.044C1266.45 93.7027 1263.64 92.9773 1260.82 91.868C1261.33 94.5987 1261.59 96.6893 1261.59 98.14C1261.59 106.247 1257.36 110.3 1248.92 110.3C1241.83 110.3 1236.84 106.161 1233.94 97.884C1231.04 89.6067 1229.59 79.4947 1229.59 67.548C1229.59 59.4413 1231.04 51.8467 1233.94 44.764C1236.93 37.596 1241.45 31.836 1247.51 27.484C1253.57 23.0467 1260.95 20.828 1269.65 20.828C1276.65 20.828 1283.01 22.3213 1288.72 25.308C1294.44 28.2093 1298.96 32.3907 1302.29 37.852C1305.71 43.3133 1307.41 49.628 1307.41 56.796ZM1259.54 62.812C1259.54 65.7133 1260.69 68.2733 1263 70.492C1265.3 72.6253 1267.95 73.692 1270.93 73.692C1274 73.692 1276.65 72.6253 1278.87 70.492C1281.17 68.2733 1282.32 65.7133 1282.32 62.812C1282.32 59.8253 1281.17 57.2653 1278.87 55.132C1276.65 52.9133 1274 51.804 1270.93 51.804C1267.95 51.804 1265.3 52.9133 1263 55.132C1260.69 57.3507 1259.54 59.9107 1259.54 62.812Z" fill="white"/>
<path d="M58.2519 110.3C52.6199 110.3 47.2012 109.532 41.9959 107.996C36.8759 106.375 32.6946 104.156 29.4519 101.34C26.2092 98.4387 24.5879 95.1533 24.5879 91.484C24.5879 87.9853 25.6546 85.212 27.7879 83.164C29.9212 81.116 32.6092 80.092 35.8519 80.092C37.9852 80.092 39.8199 80.3907 41.3559 80.988C42.9772 81.5 44.7266 82.268 46.6039 83.292C47.9692 83.9747 49.1212 84.5293 50.0599 84.956C51.0839 85.2973 52.1506 85.468 53.2599 85.468C56.0759 85.468 57.4839 84.3587 57.4839 82.14C57.4839 81.2867 56.8866 80.5613 55.6919 79.964C54.4972 79.2813 52.4919 78.3853 49.6759 77.276C44.6412 75.3133 40.5452 73.3933 37.3879 71.516C32.5239 68.6147 29.1532 65.4573 27.2759 62.044C25.4839 58.6307 24.5879 54.364 24.5879 49.244C24.5879 44.2947 26.1666 39.644 29.3239 35.292C32.4812 30.8547 36.7906 27.3133 42.2519 24.668C47.7132 22.0227 53.6866 20.7 60.1719 20.7C66.4866 20.7 72.2466 21.6813 77.4519 23.644C82.7426 25.5213 86.8812 28.1667 89.8679 31.58C92.9399 34.908 94.4759 38.62 94.4759 42.716C94.4759 47.4093 93.0679 50.9507 90.2519 53.34C87.5212 55.644 84.4492 56.796 81.0359 56.796C78.2199 56.796 76.0866 56.6253 74.6359 56.284C73.2706 55.9427 71.9052 55.4733 70.5399 54.876C69.4306 54.4493 68.4919 54.1507 67.7239 53.98C66.9559 53.724 65.8892 53.596 64.5239 53.596C63.4146 53.596 62.3479 53.98 61.3239 54.748C60.3852 55.4307 59.9159 56.412 59.9159 57.692C59.9159 58.6307 60.4706 59.4413 61.5799 60.124C62.6892 60.7213 63.9692 61.276 65.4199 61.788C66.8706 62.3 67.8946 62.684 68.4919 62.94C76.4279 65.8413 82.2732 69.1693 86.0279 72.924C89.7826 76.5933 91.6599 81.372 91.6599 87.26C91.6599 94.5133 88.7159 100.188 82.8279 104.284C77.0252 108.295 68.8332 110.3 58.2519 110.3Z" stroke="#FF6161" stroke-width="40" mask="url(#path-1-outside-1_707_61)"/>
<path d="M159.585 89.692C163.681 90.972 165.729 93.66 165.729 97.756C165.729 101.596 163.766 104.625 159.841 106.844C155.916 109.063 149.132 110.172 139.489 110.172C127.457 110.172 117.132 107.271 108.513 101.468C99.9796 95.6653 95.7129 84.1453 95.7129 66.908C95.7129 58.204 97.2062 50.3533 100.193 43.356C103.18 36.3587 107.617 30.812 113.505 26.716C119.478 22.62 126.774 20.572 135.393 20.572C146.913 20.572 155.02 22.364 159.713 25.948C164.406 29.4467 166.753 33.756 166.753 38.876C166.753 41.2653 166.156 43.484 164.961 45.532C163.766 47.4947 161.974 49.0307 159.585 50.14C157.537 51.164 154.892 51.676 151.649 51.676L148.193 51.548C147.51 51.4627 146.529 51.42 145.249 51.42C140.812 51.42 137.313 52.2307 134.753 53.852C132.193 55.388 130.444 57.7773 129.505 61.02C133.089 60.8493 136.332 60.764 139.233 60.764C147.852 60.764 153.441 61.02 156.001 61.532C158.902 62.1293 161.121 63.2813 162.657 64.988C164.278 66.6947 165.089 68.7 165.089 71.004C165.089 73.308 164.321 75.3133 162.785 77.02C161.249 78.6413 158.945 79.7507 155.873 80.348C153.484 80.86 147.681 81.116 138.465 81.116C134.71 81.116 132.065 81.0733 130.529 80.988C133.174 86.62 138.124 89.436 145.377 89.436C145.804 89.436 146.785 89.3507 148.321 89.18C150.369 89.0093 152.118 88.924 153.569 88.924C156.044 88.924 158.049 89.18 159.585 89.692Z" stroke="#FF6161" stroke-width="40" mask="url(#path-1-outside-1_707_61)"/>
<path d="M208.797 110.172C200.178 110.172 192.882 108.423 186.909 104.924C180.936 101.34 177.01 96.0067 175.133 88.924C174.365 86.0227 173.853 82.4813 173.597 78.3C173.341 74.1187 173.213 68.7853 173.213 62.3C173.213 49.5853 174.578 39.4733 177.309 31.964C180.125 24.3693 185.672 20.572 193.949 20.572C199.069 20.572 203.08 22.364 205.981 25.948C208.968 29.532 210.461 33.9693 210.461 39.26C210.461 44.892 209.992 50.908 209.053 57.308C208.114 63.708 206.792 71.4733 205.085 80.604C210.376 78.8973 216.178 78.044 222.493 78.044C229.064 78.044 234.525 79.2387 238.877 81.628C243.314 84.0173 245.533 87.9 245.533 93.276C245.533 98.4813 243.826 102.321 240.413 104.796C237 107.271 232.861 108.807 227.997 109.404C223.133 109.916 216.733 110.172 208.797 110.172Z" stroke="#FF6161" stroke-width="40" mask="url(#path-1-outside-1_707_61)"/>
<path d="M311.96 89.692C316.056 90.972 318.104 93.66 318.104 97.756C318.104 101.596 316.141 104.625 312.216 106.844C308.291 109.063 301.507 110.172 291.864 110.172C279.832 110.172 269.507 107.271 260.888 101.468C252.355 95.6653 248.088 84.1453 248.088 66.908C248.088 58.204 249.581 50.3533 252.568 43.356C255.555 36.3587 259.992 30.812 265.88 26.716C271.853 22.62 279.149 20.572 287.768 20.572C299.288 20.572 307.395 22.364 312.088 25.948C316.781 29.4467 319.128 33.756 319.128 38.876C319.128 41.2653 318.531 43.484 317.336 45.532C316.141 47.4947 314.349 49.0307 311.96 50.14C309.912 51.164 307.267 51.676 304.024 51.676L300.568 51.548C299.885 51.4627 298.904 51.42 297.624 51.42C293.187 51.42 289.688 52.2307 287.128 53.852C284.568 55.388 282.819 57.7773 281.88 61.02C285.464 60.8493 288.707 60.764 291.608 60.764C300.227 60.764 305.816 61.02 308.376 61.532C311.277 62.1293 313.496 63.2813 315.032 64.988C316.653 66.6947 317.464 68.7 317.464 71.004C317.464 73.308 316.696 75.3133 315.16 77.02C313.624 78.6413 311.32 79.7507 308.248 80.348C305.859 80.86 300.056 81.116 290.84 81.116C287.085 81.116 284.44 81.0733 282.904 80.988C285.549 86.62 290.499 89.436 297.752 89.436C298.179 89.436 299.16 89.3507 300.696 89.18C302.744 89.0093 304.493 88.924 305.944 88.924C308.419 88.924 310.424 89.18 311.96 89.692Z" stroke="#FF6161" stroke-width="40" mask="url(#path-1-outside-1_707_61)"/>
<path d="M368.242 109.916C359.879 109.916 352.37 108.252 345.714 104.924C339.143 101.511 333.938 96.476 330.098 89.82C326.258 83.0787 324.338 74.844 324.338 65.116C324.338 57.2653 326.13 49.9267 329.714 43.1C333.298 36.2733 338.247 30.812 344.562 26.716C350.877 22.62 357.959 20.572 365.81 20.572C373.234 20.572 379.847 21.98 385.65 24.796C391.453 27.5267 395.933 31.2813 399.09 36.06C402.333 40.8387 403.954 46.172 403.954 52.06C403.954 55.8147 402.845 59.0573 400.626 61.788C398.493 64.5187 395.421 65.884 391.41 65.884C388.423 65.884 386.119 65.372 384.498 64.348C382.877 63.324 381.17 61.7453 379.378 59.612C377.586 57.4787 375.837 55.9 374.13 54.876C372.509 53.7667 370.119 53.212 366.962 53.212C362.951 53.212 359.495 54.748 356.594 57.82C353.778 60.8067 352.37 64.476 352.37 68.828C352.37 73.5213 353.565 77.4893 355.954 80.732C358.429 83.8893 361.757 85.468 365.938 85.468C369.181 85.468 371.741 84.9987 373.618 84.06C375.581 83.1213 377.629 81.756 379.762 79.964C381.554 78.428 383.175 77.276 384.626 76.508C386.162 75.74 388.039 75.356 390.258 75.356C393.671 75.356 396.359 76.4227 398.322 78.556C400.285 80.604 401.266 83.292 401.266 86.62C401.266 90.5453 399.815 94.3 396.914 97.884C394.098 101.468 390.173 104.369 385.138 106.588C380.103 108.807 374.471 109.916 368.242 109.916Z" stroke="#FF6161" stroke-width="40" mask="url(#path-1-outside-1_707_61)"/>
<path d="M496.959 39.644C496.959 45.276 494.612 49.372 489.919 51.932C485.311 54.4067 477.759 55.9 467.263 56.412C467.604 60.508 467.775 65.7987 467.775 72.284C467.775 81.3293 467.263 88.5827 466.239 94.044C465.3 99.42 463.636 103.431 461.247 106.076C458.858 108.636 455.53 109.916 451.263 109.916C447.082 109.916 443.882 108.551 441.663 105.82C439.444 103.089 437.908 99.036 437.055 93.66C436.202 88.284 435.775 81.1587 435.775 72.284C435.775 66.3107 435.903 61.02 436.159 56.412C429.076 56.0707 423.359 55.3453 419.007 54.236C414.74 53.0413 411.583 51.292 409.535 48.988C407.487 46.684 406.463 43.5693 406.463 39.644C406.463 34.8653 408.084 31.1107 411.327 28.38C414.57 25.6493 419.434 23.7293 425.919 22.62C432.404 21.5107 440.895 20.956 451.391 20.956C461.972 20.956 470.548 21.5107 477.119 22.62C483.69 23.7293 488.639 25.6493 491.967 28.38C495.295 31.1107 496.959 34.8653 496.959 39.644Z" stroke="#FF6161" stroke-width="40" mask="url(#path-1-outside-1_707_61)"/>
<path d="M585.617 109.916C577.254 109.916 569.745 108.252 563.089 104.924C556.518 101.511 551.313 96.476 547.473 89.82C543.633 83.0787 541.713 74.844 541.713 65.116C541.713 57.2653 543.505 49.9267 547.089 43.1C550.673 36.2733 555.622 30.812 561.937 26.716C568.252 22.62 575.334 20.572 583.185 20.572C590.609 20.572 597.222 21.98 603.025 24.796C608.828 27.5267 613.308 31.2813 616.465 36.06C619.708 40.8387 621.329 46.172 621.329 52.06C621.329 55.8147 620.22 59.0573 618.001 61.788C615.868 64.5187 612.796 65.884 608.785 65.884C605.798 65.884 603.494 65.372 601.873 64.348C600.252 63.324 598.545 61.7453 596.753 59.612C594.961 57.4787 593.212 55.9 591.505 54.876C589.884 53.7667 587.494 53.212 584.337 53.212C580.326 53.212 576.87 54.748 573.969 57.82C571.153 60.8067 569.745 64.476 569.745 68.828C569.745 73.5213 570.94 77.4893 573.329 80.732C575.804 83.8893 579.132 85.468 583.313 85.468C586.556 85.468 589.116 84.9987 590.993 84.06C592.956 83.1213 595.004 81.756 597.137 79.964C598.929 78.428 600.55 77.276 602.001 76.508C603.537 75.74 605.414 75.356 607.633 75.356C611.046 75.356 613.734 76.4227 615.697 78.556C617.66 80.604 618.641 83.292 618.641 86.62C618.641 90.5453 617.19 94.3 614.289 97.884C611.473 101.468 607.548 104.369 602.513 106.588C597.478 108.807 591.846 109.916 585.617 109.916Z" stroke="#FF6161" stroke-width="40" mask="url(#path-1-outside-1_707_61)"/>
<path d="M698.241 20.828C703.02 20.828 706.689 22.492 709.249 25.82C711.894 29.148 713.686 34.012 714.625 40.412C715.564 46.7267 716.033 55.132 716.033 65.628C716.033 76.124 715.564 84.5293 714.625 90.844C713.686 97.0733 711.937 101.809 709.377 105.052C706.817 108.295 703.105 109.916 698.241 109.916C692.438 109.916 688.342 107.441 685.953 102.492C683.564 97.5427 682.156 89.8627 681.729 79.452C679.084 79.5373 674.732 79.58 668.673 79.58H662.017C661.505 89.9907 660.054 97.6707 657.665 102.62C655.276 107.569 651.18 110.044 645.377 110.044C640.513 110.044 636.801 108.423 634.241 105.18C631.681 101.937 629.932 97.2013 628.993 90.972C628.14 84.6573 627.713 76.2093 627.713 65.628C627.713 55.0467 628.14 46.5987 628.993 40.284C629.932 33.9693 631.681 29.1907 634.241 25.948C636.801 22.62 640.513 20.956 645.377 20.956C649.558 20.956 652.844 22.2787 655.233 24.924C657.622 27.484 659.286 31.2387 660.225 36.188C661.249 41.052 661.889 47.3667 662.145 55.132H671.233C675.926 55.132 679.382 55.1747 681.601 55.26C681.857 43.484 683.137 34.8227 685.441 29.276C687.83 23.644 692.097 20.828 698.241 20.828Z" stroke="#FF6161" stroke-width="40" mask="url(#path-1-outside-1_707_61)"/>
<path d="M742.431 110.428C736.714 110.428 732.106 107.655 728.607 102.108C725.194 96.476 723.188 88.8813 722.591 79.324C722.506 77.9587 722.463 75.9533 722.463 73.308C722.463 62.9827 724.17 53.852 727.583 45.916C730.996 37.8947 735.818 31.708 742.047 27.356C748.362 22.9187 755.7 20.7 764.063 20.7C772.426 20.7 779.722 22.9187 785.951 27.356C792.266 31.708 797.087 37.852 800.415 45.788C803.828 53.724 805.535 62.8973 805.535 73.308C805.535 75.9533 805.492 77.9587 805.407 79.324C804.81 89.052 802.804 96.6467 799.391 102.108C795.978 107.569 791.37 110.3 785.567 110.3C780.874 110.3 777.588 109.02 775.711 106.46C773.919 103.9 773.023 100.785 773.023 97.116C773.023 95.4093 773.151 93.916 773.407 92.636C768.97 92.8067 765.044 92.892 761.631 92.892C759.498 92.892 757.151 92.8067 754.591 92.636C754.847 93.916 754.975 95.4093 754.975 97.116C754.975 100.871 754.036 104.028 752.159 106.588C750.367 109.148 747.124 110.428 742.431 110.428ZM753.695 69.852C758.303 69.6813 761.674 69.596 763.807 69.596C766.111 69.596 769.482 69.6813 773.919 69.852C774.09 68.9133 774.175 67.5053 774.175 65.628C774.175 61.6173 773.322 58.3747 771.615 55.9C769.908 53.34 767.263 52.06 763.679 52.06C760.18 52.06 757.578 53.2973 755.871 55.772C754.164 58.2467 753.311 61.4467 753.311 65.372C753.311 66.8227 753.439 68.316 753.695 69.852Z" stroke="#FF6161" stroke-width="40" mask="url(#path-1-outside-1_707_61)"/>
<path d="M888.537 56.796C888.537 63.0253 887.598 68.5293 885.721 73.308C883.929 78.0867 881.369 82.0973 878.041 85.34C880.857 89.692 882.265 93.916 882.265 98.012C882.265 101.511 880.9 104.412 878.169 106.716C875.524 109.02 872.494 110.172 869.081 110.172C867.118 110.172 865.326 109.873 863.705 109.276C862.084 108.679 860.334 107.655 858.457 106.204C856.836 104.924 855.3 103.175 853.849 100.956C852.398 98.7373 851.246 96.4333 850.393 94.044C847.577 93.7027 844.761 92.9773 841.945 91.868C842.457 94.5987 842.713 96.6893 842.713 98.14C842.713 106.247 838.489 110.3 830.041 110.3C822.958 110.3 817.966 106.161 815.065 97.884C812.164 89.6067 810.713 79.4947 810.713 67.548C810.713 59.4413 812.164 51.8467 815.065 44.764C818.052 37.596 822.574 31.836 828.633 27.484C834.692 23.0467 842.073 20.828 850.777 20.828C857.774 20.828 864.132 22.3213 869.849 25.308C875.566 28.2093 880.089 32.3907 883.417 37.852C886.83 43.3133 888.537 49.628 888.537 56.796ZM840.665 62.812C840.665 65.7133 841.817 68.2733 844.121 70.492C846.425 72.6253 849.07 73.692 852.057 73.692C855.129 73.692 857.774 72.6253 859.993 70.492C862.297 68.2733 863.449 65.7133 863.449 62.812C863.449 59.8253 862.297 57.2653 859.993 55.132C857.774 52.9133 855.129 51.804 852.057 51.804C849.07 51.804 846.425 52.9133 844.121 55.132C841.817 57.3507 840.665 59.9107 840.665 62.812Z" stroke="#FF6161" stroke-width="40" mask="url(#path-1-outside-1_707_61)"/>
<path d="M912.431 110.428C906.714 110.428 902.106 107.655 898.607 102.108C895.194 96.476 893.188 88.8813 892.591 79.324C892.506 77.9587 892.463 75.9533 892.463 73.308C892.463 62.9827 894.17 53.852 897.583 45.916C900.996 37.8947 905.818 31.708 912.047 27.356C918.362 22.9187 925.7 20.7 934.063 20.7C942.426 20.7 949.722 22.9187 955.951 27.356C962.266 31.708 967.087 37.852 970.415 45.788C973.828 53.724 975.535 62.8973 975.535 73.308C975.535 75.9533 975.492 77.9587 975.407 79.324C974.81 89.052 972.804 96.6467 969.391 102.108C965.978 107.569 961.37 110.3 955.567 110.3C950.874 110.3 947.588 109.02 945.711 106.46C943.919 103.9 943.023 100.785 943.023 97.116C943.023 95.4093 943.151 93.916 943.407 92.636C938.97 92.8067 935.044 92.892 931.631 92.892C929.498 92.892 927.151 92.8067 924.591 92.636C924.847 93.916 924.975 95.4093 924.975 97.116C924.975 100.871 924.036 104.028 922.159 106.588C920.367 109.148 917.124 110.428 912.431 110.428ZM923.695 69.852C928.303 69.6813 931.674 69.596 933.807 69.596C936.111 69.596 939.482 69.6813 943.919 69.852C944.09 68.9133 944.175 67.5053 944.175 65.628C944.175 61.6173 943.322 58.3747 941.615 55.9C939.908 53.34 937.263 52.06 933.679 52.06C930.18 52.06 927.578 53.2973 925.871 55.772C924.164 58.2467 923.311 61.4467 923.311 65.372C923.311 66.8227 923.439 68.316 923.695 69.852Z" stroke="#FF6161" stroke-width="40" mask="url(#path-1-outside-1_707_61)"/>
<path d="M1025.87 109.916C1017.5 109.916 1009.99 108.252 1003.34 104.924C996.768 101.511 991.563 96.476 987.723 89.82C983.883 83.0787 981.963 74.844 981.963 65.116C981.963 57.2653 983.755 49.9267 987.339 43.1C990.923 36.2733 995.872 30.812 1002.19 26.716C1008.5 22.62 1015.58 20.572 1023.43 20.572C1030.86 20.572 1037.47 21.98 1043.27 24.796C1049.08 27.5267 1053.56 31.2813 1056.71 36.06C1059.96 40.8387 1061.58 46.172 1061.58 52.06C1061.58 55.8147 1060.47 59.0573 1058.25 61.788C1056.12 64.5187 1053.05 65.884 1049.03 65.884C1046.05 65.884 1043.74 65.372 1042.12 64.348C1040.5 63.324 1038.79 61.7453 1037 59.612C1035.21 57.4787 1033.46 55.9 1031.75 54.876C1030.13 53.7667 1027.74 53.212 1024.59 53.212C1020.58 53.212 1017.12 54.748 1014.22 57.82C1011.4 60.8067 1009.99 64.476 1009.99 68.828C1009.99 73.5213 1011.19 77.4893 1013.58 80.732C1016.05 83.8893 1019.38 85.468 1023.56 85.468C1026.81 85.468 1029.37 84.9987 1031.24 84.06C1033.21 83.1213 1035.25 81.756 1037.39 79.964C1039.18 78.428 1040.8 77.276 1042.25 76.508C1043.79 75.74 1045.66 75.356 1047.88 75.356C1051.3 75.356 1053.98 76.4227 1055.95 78.556C1057.91 80.604 1058.89 83.292 1058.89 86.62C1058.89 90.5453 1057.44 94.3 1054.54 97.884C1051.72 101.468 1047.8 104.369 1042.76 106.588C1037.73 108.807 1032.1 109.916 1025.87 109.916Z" stroke="#FF6161" stroke-width="40" mask="url(#path-1-outside-1_707_61)"/>
<path d="M1154.58 39.644C1154.58 45.276 1152.24 49.372 1147.54 51.932C1142.94 54.4067 1135.38 55.9 1124.89 56.412C1125.23 60.508 1125.4 65.7987 1125.4 72.284C1125.4 81.3293 1124.89 88.5827 1123.86 94.044C1122.93 99.42 1121.26 103.431 1118.87 106.076C1116.48 108.636 1113.15 109.916 1108.89 109.916C1104.71 109.916 1101.51 108.551 1099.29 105.82C1097.07 103.089 1095.53 99.036 1094.68 93.66C1093.83 88.284 1093.4 81.1587 1093.4 72.284C1093.4 66.3107 1093.53 61.02 1093.78 56.412C1086.7 56.0707 1080.98 55.3453 1076.63 54.236C1072.37 53.0413 1069.21 51.292 1067.16 48.988C1065.11 46.684 1064.09 43.5693 1064.09 39.644C1064.09 34.8653 1065.71 31.1107 1068.95 28.38C1072.19 25.6493 1077.06 23.7293 1083.54 22.62C1090.03 21.5107 1098.52 20.956 1109.02 20.956C1119.6 20.956 1128.17 21.5107 1134.74 22.62C1141.31 23.7293 1146.26 25.6493 1149.59 28.38C1152.92 31.1107 1154.58 34.8653 1154.58 39.644Z" stroke="#FF6161" stroke-width="40" mask="url(#path-1-outside-1_707_61)"/>
<path d="M1218.46 89.692C1222.56 90.972 1224.6 93.66 1224.6 97.756C1224.6 101.596 1222.64 104.625 1218.72 106.844C1214.79 109.063 1208.01 110.172 1198.36 110.172C1186.33 110.172 1176.01 107.271 1167.39 101.468C1158.85 95.6653 1154.59 84.1453 1154.59 66.908C1154.59 58.204 1156.08 50.3533 1159.07 43.356C1162.05 36.3587 1166.49 30.812 1172.38 26.716C1178.35 22.62 1185.65 20.572 1194.27 20.572C1205.79 20.572 1213.89 22.364 1218.59 25.948C1223.28 29.4467 1225.63 33.756 1225.63 38.876C1225.63 41.2653 1225.03 43.484 1223.84 45.532C1222.64 47.4947 1220.85 49.0307 1218.46 50.14C1216.41 51.164 1213.77 51.676 1210.52 51.676L1207.07 51.548C1206.39 51.4627 1205.4 51.42 1204.12 51.42C1199.69 51.42 1196.19 52.2307 1193.63 53.852C1191.07 55.388 1189.32 57.7773 1188.38 61.02C1191.96 60.8493 1195.21 60.764 1198.11 60.764C1206.73 60.764 1212.32 61.02 1214.88 61.532C1217.78 62.1293 1220 63.2813 1221.53 64.988C1223.15 66.6947 1223.96 68.7 1223.96 71.004C1223.96 73.308 1223.2 75.3133 1221.66 77.02C1220.12 78.6413 1217.82 79.7507 1214.75 80.348C1212.36 80.86 1206.56 81.116 1197.34 81.116C1193.59 81.116 1190.94 81.0733 1189.4 80.988C1192.05 86.62 1197 89.436 1204.25 89.436C1204.68 89.436 1205.66 89.3507 1207.2 89.18C1209.24 89.0093 1210.99 88.924 1212.44 88.924C1214.92 88.924 1216.92 89.18 1218.46 89.692Z" stroke="#FF6161" stroke-width="40" mask="url(#path-1-outside-1_707_61)"/>
<path d="M1307.41 56.796C1307.41 63.0253 1306.47 68.5293 1304.6 73.308C1302.8 78.0867 1300.24 82.0973 1296.92 85.34C1299.73 89.692 1301.14 93.916 1301.14 98.012C1301.14 101.511 1299.77 104.412 1297.04 106.716C1294.4 109.02 1291.37 110.172 1287.96 110.172C1285.99 110.172 1284.2 109.873 1282.58 109.276C1280.96 108.679 1279.21 107.655 1277.33 106.204C1275.71 104.924 1274.17 103.175 1272.72 100.956C1271.27 98.7373 1270.12 96.4333 1269.27 94.044C1266.45 93.7027 1263.64 92.9773 1260.82 91.868C1261.33 94.5987 1261.59 96.6893 1261.59 98.14C1261.59 106.247 1257.36 110.3 1248.92 110.3C1241.83 110.3 1236.84 106.161 1233.94 97.884C1231.04 89.6067 1229.59 79.4947 1229.59 67.548C1229.59 59.4413 1231.04 51.8467 1233.94 44.764C1236.93 37.596 1241.45 31.836 1247.51 27.484C1253.57 23.0467 1260.95 20.828 1269.65 20.828C1276.65 20.828 1283.01 22.3213 1288.72 25.308C1294.44 28.2093 1298.96 32.3907 1302.29 37.852C1305.71 43.3133 1307.41 49.628 1307.41 56.796ZM1259.54 62.812C1259.54 65.7133 1260.69 68.2733 1263 70.492C1265.3 72.6253 1267.95 73.692 1270.93 73.692C1274 73.692 1276.65 72.6253 1278.87 70.492C1281.17 68.2733 1282.32 65.7133 1282.32 62.812C1282.32 59.8253 1281.17 57.2653 1278.87 55.132C1276.65 52.9133 1274 51.804 1270.93 51.804C1267.95 51.804 1265.3 52.9133 1263 55.132C1260.69 57.3507 1259.54 59.9107 1259.54 62.812Z" stroke="#FF6161" stroke-width="40" mask="url(#path-1-outside-1_707_61)"/>
</g>
<defs>
<filter id="filter0_d_707_61" x="0.587891" y="0.571991" width="1330.82" height="137.856" filterUnits="userSpaceOnUse" color-interpolation-filters="sRGB">
<feFlood flood-opacity="0" result="BackgroundImageFix"/>
<feColorMatrix in="SourceAlpha" type="matrix" values="0 0 0 0 0 0 0 0 0 0 0 0 0 0 0 0 0 0 127 0" result="hardAlpha"/>
<feOffset dy="4"/>
<feGaussianBlur stdDeviation="2"/>
<feComposite in2="hardAlpha" operator="out"/>
<feColorMatrix type="matrix" values="0 0 0 0 0 0 0 0 0 0 0 0 0 0 0 0 0 0 0.25 0"/>
<feBlend mode="normal" in2="BackgroundImageFix" result="effect1_dropShadow_707_61"/>
<feBlend mode="normal" in="SourceGraphic" in2="effect1_dropShadow_707_61" result="shape"/>
</filter>
</defs>
</svg>
