<svg width="146" height="148" viewBox="0 0 146 148" fill="none" xmlns="http://www.w3.org/2000/svg">
<g filter="url(#filter0_d_372_1296)">
<path d="M118.739 52.5454C119.364 54.245 118.836 56.1399 117.488 57.351L109.03 65.0479C109.245 66.6693 109.362 68.3298 109.362 70.0098C109.362 71.6898 109.245 73.3503 109.03 74.9717L117.488 82.6685C118.836 83.8797 119.364 85.7746 118.739 87.4741C117.879 89.7988 116.844 92.0258 115.652 94.1747L114.734 95.757C113.445 97.9058 111.999 99.9375 110.417 101.852C109.264 103.258 107.35 103.727 105.631 103.18L94.7496 99.7226C92.1319 101.735 89.2407 103.415 86.1541 104.685L83.7123 115.839C83.3216 117.617 81.9541 119.023 80.1569 119.316C77.461 119.766 74.6871 120 71.8545 120C69.0219 120 66.2479 119.766 63.5521 119.316C61.7548 119.023 60.3874 117.617 59.9967 115.839L57.5548 104.685C54.4683 103.415 51.5771 101.735 48.9594 99.7226L38.0979 103.2C36.3788 103.747 34.4644 103.258 33.3118 101.871C31.7294 99.957 30.2839 97.9254 28.9945 95.7765L28.0764 94.1942C26.8847 92.0453 25.8494 89.8183 24.9898 87.4937C24.3647 85.7941 24.8922 83.8992 26.2401 82.688L34.6988 74.9912C34.4839 73.3503 34.3667 71.6898 34.3667 70.0098C34.3667 68.3298 34.4839 66.6693 34.6988 65.0479L26.2401 57.351C24.8922 56.1399 24.3647 54.245 24.9898 52.5454C25.8494 50.2207 26.8847 47.9937 28.0764 45.8449L28.9945 44.2626C30.2839 42.1137 31.7294 40.082 33.3118 38.1676C34.4644 36.7611 36.3788 36.2922 38.0979 36.8392L48.9789 40.2969C51.5966 38.2848 54.4878 36.6048 57.5743 35.335L60.0162 24.1805C60.4069 22.4028 61.7744 20.9963 63.5716 20.7033C66.2674 20.2344 69.0414 20 71.874 20C74.7066 20 77.4806 20.2344 80.1764 20.6837C81.9736 20.9768 83.3411 22.3833 83.7318 24.161L86.1737 35.3155C89.2602 36.5853 92.1514 38.2653 94.7691 40.2774L105.65 36.8197C107.369 36.2727 109.284 36.7611 110.436 38.1481C112.019 40.0625 113.464 42.0942 114.753 44.243L115.672 45.8254C116.863 47.9742 117.899 50.2012 118.758 52.5259L118.739 52.5454ZM71.874 85.6378C76.0188 85.6378 79.9939 83.9913 82.9247 81.0605C85.8555 78.1296 87.5021 74.1546 87.5021 70.0098C87.5021 65.865 85.8555 61.8899 82.9247 58.9591C79.9939 56.0282 76.0188 54.3817 71.874 54.3817C67.7292 54.3817 63.7541 56.0282 60.8233 58.9591C57.8925 61.8899 56.246 65.865 56.246 70.0098C56.246 74.1546 57.8925 78.1296 60.8233 81.0605C63.7541 83.9913 67.7292 85.6378 71.874 85.6378Z" fill="white"/>
<path d="M128.118 90.9421L128.121 90.9342L128.124 90.9262C130.245 85.1582 128.377 79.0302 124.202 75.2575L119.354 70.846C119.359 70.5681 119.362 70.2893 119.362 70.0098C119.362 69.7303 119.359 69.4515 119.354 69.1735L124.202 64.762C126.543 62.6469 128.159 59.7915 128.752 56.6743L130.36 55.0675L128.138 49.0579C127.091 46.2288 125.84 43.541 124.417 40.9757L124.37 40.8907L124.321 40.8066L123.403 39.2242L123.366 39.1609L123.328 39.0981C121.773 36.505 120.035 34.0648 118.144 31.7772L118.136 31.7671L118.127 31.7569C114.172 26.9968 107.91 25.6081 102.622 27.2893C102.621 27.2896 102.62 27.2898 102.619 27.2901C102.619 27.2902 102.618 27.2903 102.618 27.2904L96.361 29.2788C95.8812 28.9901 95.3957 28.7096 94.9048 28.4375L93.5005 22.0225L93.4987 22.0144C92.3119 16.6143 88.003 11.8371 81.807 10.8176C78.5738 10.2794 75.2545 10 71.874 10C68.503 10 65.1685 10.2779 61.8982 10.8442C55.7252 11.8787 51.4334 16.6463 50.2493 22.0339L50.2476 22.042L48.8432 28.457C48.3523 28.7292 47.8668 29.0097 47.387 29.2983L41.1299 27.31C41.1293 27.3098 41.1288 27.3096 41.1282 27.3094C41.1276 27.3092 41.127 27.309 41.1264 27.3088C35.9194 25.6535 29.6036 26.9331 25.5935 31.8093C23.7067 34.0933 21.9726 36.5293 20.4196 39.1176L20.3819 39.1804L20.3452 39.2438L19.427 40.8261L19.3782 40.9102L19.3311 40.9952C17.9085 43.5605 16.6565 46.2483 15.6105 49.0774L15.6075 49.0854L15.6046 49.0934C13.4829 54.8616 15.3515 60.9899 19.5266 64.7625L24.3742 69.1735C24.3692 69.4515 24.3667 69.7302 24.3667 70.0098C24.3667 70.2958 24.3693 70.581 24.3746 70.8652L19.5266 75.2766C15.3515 79.0492 13.4829 85.1774 15.6046 90.9457L15.6075 90.9537L15.6105 90.9617C16.6565 93.7908 17.9085 96.4786 19.3311 99.0439L19.3782 99.1289L19.427 99.2129L20.3451 100.795L20.3819 100.859L20.4196 100.921C21.9754 103.515 23.7131 105.955 25.6038 108.242L25.6123 108.252L25.6207 108.263C29.5772 113.024 35.8407 114.412 41.1299 112.729L41.1384 112.726L41.1469 112.724L47.3793 110.728C47.8553 111.015 48.3369 111.293 48.8237 111.563L50.228 117.978L50.2298 117.986C51.4165 123.385 55.7248 128.162 61.9201 129.182C65.1537 129.72 68.4735 130 71.8545 130C75.2354 130 78.5552 129.72 81.7889 129.182C87.9841 128.162 92.2924 123.385 93.4792 117.986L93.4809 117.978L94.8853 111.563C95.3762 111.29 95.8616 111.01 96.3415 110.721L102.599 112.71C102.6 112.71 102.601 112.71 102.602 112.711C107.809 114.366 114.125 113.086 118.135 108.21C120.022 105.926 121.756 103.49 123.309 100.902L123.347 100.839L123.383 100.776L124.301 99.1935L124.35 99.1094L124.397 99.0243C125.82 96.459 127.072 93.7712 128.118 90.9421ZM75.8536 73.9894C74.7982 75.0449 73.3667 75.6378 71.874 75.6378C70.3814 75.6378 68.9498 75.0449 67.8944 73.9894C66.8389 72.9339 66.246 71.5024 66.246 70.0098C66.246 68.5171 66.8389 67.0856 67.8944 66.0301C68.9498 64.9747 70.3814 64.3817 71.874 64.3817C73.3667 64.3817 74.7982 64.9747 75.8536 66.0301C76.9091 67.0856 77.5021 68.5171 77.5021 70.0098C77.5021 71.5024 76.9091 72.9339 75.8536 73.9894Z" stroke="#FF6161" stroke-width="20"/>
</g>
<defs>
<filter id="filter0_d_372_1296" x="0.719238" y="0" width="145.241" height="148" filterUnits="userSpaceOnUse" color-interpolation-filters="sRGB">
<feFlood flood-opacity="0" result="BackgroundImageFix"/>
<feColorMatrix in="SourceAlpha" type="matrix" values="0 0 0 0 0 0 0 0 0 0 0 0 0 0 0 0 0 0 127 0" result="hardAlpha"/>
<feOffset dy="4"/>
<feGaussianBlur stdDeviation="2"/>
<feComposite in2="hardAlpha" operator="out"/>
<feColorMatrix type="matrix" values="0 0 0 0 0 0 0 0 0 0 0 0 0 0 0 0 0 0 0.25 0"/>
<feBlend mode="normal" in2="BackgroundImageFix" result="effect1_dropShadow_372_1296"/>
<feBlend mode="normal" in="SourceGraphic" in2="effect1_dropShadow_372_1296" result="shape"/>
</filter>
</defs>
</svg>
