<svg width="532" height="119" viewBox="0 0 532 119" fill="none" xmlns="http://www.w3.org/2000/svg">
<path d="M103.901 69.864V74.984H12.637V69.864H7.517V5.992H12.637V0.871994H30.045V5.992H35.293V17.384H81.373V5.992H86.493V0.871994H103.901V5.992H109.149V69.864H103.901ZM81.373 51.944V40.04H35.293V51.944H81.373ZM5.981 89.448H110.685V94.568H115.933V109.288H110.685V114.408H5.981V109.288H0.733V94.568H5.981V89.448ZM190.772 38.76V43.24H154.676V48.616H194.74V53.096H199.348V63.208H194.74V67.688H132.148V63.208H127.54V29.416H132.148V24.936H168.244V19.816H132.148V15.336H127.54V5.352H132.148V0.871994H190.772V5.352H195.508V38.76H190.772ZM214.324 0.871994H232.116V5.992H237.108V69.864H232.116V74.984H214.324V69.864H209.204V5.992H214.324V0.871994ZM189.108 101.096H180.404V104.68H172.468V108.904H164.02V113.64H155.316V118.248H135.22V113.896H129.076V100.328H135.86V95.592H145.076V90.984H153.78V86.888H161.972V82.92H169.012V76.264H174.26V72.68H195.124V76.264H200.5V82.92H207.412V86.888H215.732V90.984H224.436V95.592H233.524V100.328H240.436V113.896H234.164V118.248H214.068V113.64H205.364V108.904H197.044V104.68H189.108V101.096ZM270.731 71.784V24.936H254.475V19.816H249.355V5.992H254.475V0.871994H318.219V5.992H323.467V19.816H318.219V24.936H302.091V71.784H307.211V77.16H312.843V83.048H318.731V89.32H324.235V107.624H319.371V113.128H304.011V107.624H298.891V102.248H293.899V97.256H289.547V92.648H283.915V97.256H279.563V102.248H274.571V107.624H269.451V113.128H253.451V107.624H248.587V89.32H254.091V83.048H259.979V77.16H265.611V71.784H270.731ZM356.491 0.871994V5.992H361.483V112.36H356.491V117.48H338.187V112.36H333.195V5.992H338.187V0.871994H356.491Z" fill="#FF9F99"/>
<path d="M480.738 53.224V57.192H445.666V61.928H484.706V66.28H489.058V75.368H484.706V79.72H378.21V75.368H373.858V66.28H378.21V61.928H417.25V57.192H383.458V52.456H379.106V5.48H383.458V0.871994H479.97V4.712H483.81V12.648H479.97V16.488H406.242V21.096H479.202V24.936H483.042V32.744H479.202V36.712H406.242V41.32H480.738V45.288H484.706V53.224H480.738ZM384.226 84.2H478.69V89.32H483.81V112.36H478.69V117.48H461.026V112.36H455.906V103.656H384.226V98.92H379.106V88.808H384.226V84.2ZM526.777 0.871994V5.48H531.769V75.24H527.033V79.848H508.345V75.24H503.737V5.48H508.729V0.871994H526.777ZM527.033 89.064V93.672H531.769V112.872H527.033V117.48H508.345V112.872H503.737V93.672H508.345V89.064H527.033Z" fill="#FF6161"/>
</svg>
