<svg width="63" height="61" viewBox="0 0 63 61" fill="none" xmlns="http://www.w3.org/2000/svg">
<path d="M34.5204 2.60914C33.8993 1.32022 32.587 0.5 31.1457 0.5C29.7045 0.5 28.4038 1.32022 27.7711 2.60914L20.2368 18.1113L3.41055 20.5954C2.00446 20.8063 0.832718 21.7906 0.399172 23.1381C-0.0343728 24.4856 0.31715 25.9737 1.32485 26.9697L13.5344 39.0504L10.6519 56.1227C10.4176 57.5288 11.0035 58.9583 12.1635 59.7902C13.3235 60.6222 14.8585 60.7276 16.124 60.0597L31.1574 52.0333L46.1909 60.0597C47.4564 60.7276 48.9914 60.6339 50.1514 59.7902C51.3114 58.9466 51.8973 57.5288 51.663 56.1227L48.7688 39.0504L60.9783 26.9697C61.986 25.9737 62.3493 24.4856 61.904 23.1381C61.4587 21.7906 60.2987 20.8063 58.8926 20.5954L42.0547 18.1113L34.5204 2.60914Z" fill="white"/>
</svg>
