<svg width="585" height="225" viewBox="0 0 585 225" fill="none" xmlns="http://www.w3.org/2000/svg">
<g filter="url(#filter0_d_966_57)">
<g filter="url(#filter1_d_966_57)">
<mask id="path-1-outside-1_966_57" maskUnits="userSpaceOnUse" x="4.69446" y="0.743988" width="577" height="136" fill="black">
<rect fill="white" x="4.69446" y="0.743988" width="577" height="136"/>
<path d="M69.7345 80.632H43.4945V100.856H69.7345V95.48H75.1105V86.136H69.7345V80.632ZM68.8385 35.832H43.4945V55.928H68.8385V50.552H74.2145V41.336H68.8385V35.832ZM91.6225 71.8H98.7905V78.968H105.062V106.232H98.7905V113.144H92.1345V120.056H84.8385V125.944H21.3505V119.288H14.6945V17.528H21.3505V10.872H84.8385V16.76H91.7505V23.544H98.1505V30.584H104.038V57.848H98.1505V65.016H91.6225V71.8Z"/>
<path d="M183.528 80.888V86.776H190.312V93.688H197.224V100.472H203.752V119.8H197.224V125.816H177.64V119.8H170.984V113.016H164.584V105.976H158.696V98.808H152.936V91.768H146.024V120.056H139.88V125.944H122.088V120.056H115.944V17.016H122.088V10.872H184.296V17.016H191.208V23.544H197.736V31.096H202.856V66.808H196.968V73.976H190.44V80.888H183.528ZM145.896 66.424H166.248V60.152H172.52V42.872H166.248V36.6H145.896V66.424Z"/>
<path d="M259.637 98.808H271.925V104.824H277.813V120.056H271.925V125.944H216.885V120.056H210.869V104.824H216.885V98.808H229.173V37.752H216.885V31.864H210.869V16.632H216.885V10.744H271.925V16.632H277.813V31.864H271.925V37.752H259.637V98.808Z"/>
<path d="M340.091 36.6H314.875V100.088H340.091V93.56H346.235V43.384H340.091V36.6ZM363.259 113.144V120.056H355.963V125.944H292.475V119.288H285.819V17.528H292.475V10.872H355.195V17.016H362.491V24.184H369.659V31.224H376.187V106.232H369.915V113.144H363.259Z"/>
<path d="M409.469 125.944V119.672H401.405V112.504H393.853V104.824H386.685V31.992H393.853V24.184H401.405V17.016H409.469V10.872H466.301V17.272H473.085V32.12H466.301V38.008H424.701V44.792H416.893V92.152H424.701V98.808H449.917V82.552H439.037V77.048H433.533V60.92H439.037V55.416H472.573V60.92H478.077V119.672H471.037V125.944H409.469Z"/>
<path d="M519.018 55.032H564.33V61.688H570.986V75.128H564.33V81.784H519.018V99.192H564.33V105.336H570.986V119.672H564.33V125.944H495.85V119.288H489.194V17.528H495.85V10.872H564.33V17.016H570.986V31.224H564.33V37.496H519.018V55.032Z"/>
</mask>
<path d="M69.7345 80.632H43.4945V100.856H69.7345V95.48H75.1105V86.136H69.7345V80.632ZM68.8385 35.832H43.4945V55.928H68.8385V50.552H74.2145V41.336H68.8385V35.832ZM91.6225 71.8H98.7905V78.968H105.062V106.232H98.7905V113.144H92.1345V120.056H84.8385V125.944H21.3505V119.288H14.6945V17.528H21.3505V10.872H84.8385V16.76H91.7505V23.544H98.1505V30.584H104.038V57.848H98.1505V65.016H91.6225V71.8Z" fill="url(#paint0_linear_966_57)"/>
<path d="M183.528 80.888V86.776H190.312V93.688H197.224V100.472H203.752V119.8H197.224V125.816H177.64V119.8H170.984V113.016H164.584V105.976H158.696V98.808H152.936V91.768H146.024V120.056H139.88V125.944H122.088V120.056H115.944V17.016H122.088V10.872H184.296V17.016H191.208V23.544H197.736V31.096H202.856V66.808H196.968V73.976H190.44V80.888H183.528ZM145.896 66.424H166.248V60.152H172.52V42.872H166.248V36.6H145.896V66.424Z" fill="url(#paint1_linear_966_57)"/>
<path d="M259.637 98.808H271.925V104.824H277.813V120.056H271.925V125.944H216.885V120.056H210.869V104.824H216.885V98.808H229.173V37.752H216.885V31.864H210.869V16.632H216.885V10.744H271.925V16.632H277.813V31.864H271.925V37.752H259.637V98.808Z" fill="url(#paint2_linear_966_57)"/>
<path d="M340.091 36.6H314.875V100.088H340.091V93.56H346.235V43.384H340.091V36.6ZM363.259 113.144V120.056H355.963V125.944H292.475V119.288H285.819V17.528H292.475V10.872H355.195V17.016H362.491V24.184H369.659V31.224H376.187V106.232H369.915V113.144H363.259Z" fill="url(#paint3_linear_966_57)"/>
<path d="M409.469 125.944V119.672H401.405V112.504H393.853V104.824H386.685V31.992H393.853V24.184H401.405V17.016H409.469V10.872H466.301V17.272H473.085V32.12H466.301V38.008H424.701V44.792H416.893V92.152H424.701V98.808H449.917V82.552H439.037V77.048H433.533V60.92H439.037V55.416H472.573V60.92H478.077V119.672H471.037V125.944H409.469Z" fill="url(#paint4_linear_966_57)"/>
<path d="M519.018 55.032H564.33V61.688H570.986V75.128H564.33V81.784H519.018V99.192H564.33V105.336H570.986V119.672H564.33V125.944H495.85V119.288H489.194V17.528H495.85V10.872H564.33V17.016H570.986V31.224H564.33V37.496H519.018V55.032Z" fill="url(#paint5_linear_966_57)"/>
<path d="M69.7345 80.632H43.4945V100.856H69.7345V95.48H75.1105V86.136H69.7345V80.632ZM68.8385 35.832H43.4945V55.928H68.8385V50.552H74.2145V41.336H68.8385V35.832ZM91.6225 71.8H98.7905V78.968H105.062V106.232H98.7905V113.144H92.1345V120.056H84.8385V125.944H21.3505V119.288H14.6945V17.528H21.3505V10.872H84.8385V16.76H91.7505V23.544H98.1505V30.584H104.038V57.848H98.1505V65.016H91.6225V71.8Z" stroke="#FF6161" stroke-width="20" mask="url(#path-1-outside-1_966_57)"/>
<path d="M183.528 80.888V86.776H190.312V93.688H197.224V100.472H203.752V119.8H197.224V125.816H177.64V119.8H170.984V113.016H164.584V105.976H158.696V98.808H152.936V91.768H146.024V120.056H139.88V125.944H122.088V120.056H115.944V17.016H122.088V10.872H184.296V17.016H191.208V23.544H197.736V31.096H202.856V66.808H196.968V73.976H190.44V80.888H183.528ZM145.896 66.424H166.248V60.152H172.52V42.872H166.248V36.6H145.896V66.424Z" stroke="#FF6161" stroke-width="20" mask="url(#path-1-outside-1_966_57)"/>
<path d="M259.637 98.808H271.925V104.824H277.813V120.056H271.925V125.944H216.885V120.056H210.869V104.824H216.885V98.808H229.173V37.752H216.885V31.864H210.869V16.632H216.885V10.744H271.925V16.632H277.813V31.864H271.925V37.752H259.637V98.808Z" stroke="#FF6161" stroke-width="20" mask="url(#path-1-outside-1_966_57)"/>
<path d="M340.091 36.6H314.875V100.088H340.091V93.56H346.235V43.384H340.091V36.6ZM363.259 113.144V120.056H355.963V125.944H292.475V119.288H285.819V17.528H292.475V10.872H355.195V17.016H362.491V24.184H369.659V31.224H376.187V106.232H369.915V113.144H363.259Z" stroke="#FF6161" stroke-width="20" mask="url(#path-1-outside-1_966_57)"/>
<path d="M409.469 125.944V119.672H401.405V112.504H393.853V104.824H386.685V31.992H393.853V24.184H401.405V17.016H409.469V10.872H466.301V17.272H473.085V32.12H466.301V38.008H424.701V44.792H416.893V92.152H424.701V98.808H449.917V82.552H439.037V77.048H433.533V60.92H439.037V55.416H472.573V60.92H478.077V119.672H471.037V125.944H409.469Z" stroke="#FF6161" stroke-width="20" mask="url(#path-1-outside-1_966_57)"/>
<path d="M519.018 55.032H564.33V61.688H570.986V75.128H564.33V81.784H519.018V99.192H564.33V105.336H570.986V119.672H564.33V125.944H495.85V119.288H489.194V17.528H495.85V10.872H564.33V17.016H570.986V31.224H564.33V37.496H519.018V55.032Z" stroke="#FF6161" stroke-width="20" mask="url(#path-1-outside-1_966_57)"/>
</g>
<g filter="url(#filter2_d_966_57)">
<mask id="path-2-outside-2_966_57" maskUnits="userSpaceOnUse" x="172.9" y="112.752" width="238" height="98" fill="black">
<rect fill="white" x="172.9" y="112.752" width="238" height="98"/>
<path d="M241.164 118.904V123.32H245.58V135.128H241.164V139.544H223.404V200.792H218.988V205.208H204.78V200.792H200.364V139.544H182.316V135.128H177.9V123.32H182.316V118.904H241.164Z"/>
<path d="M290.144 188.504V177.272H274.976V180.536H271.52V185.24H274.976V188.504H290.144ZM306.464 145.592H310.88V200.984H307.136V205.208H262.4V201.464H258.08V197.336H253.952V192.728H250.208V173.432H253.952V168.824H258.08V164.696H262.4V160.952H290.144V154.904H258.848V150.68H254.912V140.6H258.848V136.472H302.24V140.696H306.464V145.592Z"/>
<path d="M337.393 205.208H322.705V201.368H318.865V121.592H322.705V117.752H337.393V121.592H341.233V201.368H337.393V205.208Z"/>
<path d="M370.636 186.68V201.368H366.796V205.208H352.876V201.368H348.94V121.592H352.876V117.752H366.796V121.592H370.636V153.848H374.188V149.432H378.508V145.016H382.732V140.312H386.764V136.472H400.78V140.312H404.812V154.424H400.78V159.512H396.364V164.216H392.044V168.824H387.916V173.24H392.044V177.752H396.364V182.36H400.78V186.68H405.196V201.368H401.164V205.208H387.628V201.368H382.924V196.664H378.508V191.768H374.188V186.68H370.636Z"/>
</mask>
<path d="M241.164 118.904V123.32H245.58V135.128H241.164V139.544H223.404V200.792H218.988V205.208H204.78V200.792H200.364V139.544H182.316V135.128H177.9V123.32H182.316V118.904H241.164Z" fill="white"/>
<path d="M290.144 188.504V177.272H274.976V180.536H271.52V185.24H274.976V188.504H290.144ZM306.464 145.592H310.88V200.984H307.136V205.208H262.4V201.464H258.08V197.336H253.952V192.728H250.208V173.432H253.952V168.824H258.08V164.696H262.4V160.952H290.144V154.904H258.848V150.68H254.912V140.6H258.848V136.472H302.24V140.696H306.464V145.592Z" fill="white"/>
<path d="M337.393 205.208H322.705V201.368H318.865V121.592H322.705V117.752H337.393V121.592H341.233V201.368H337.393V205.208Z" fill="white"/>
<path d="M370.636 186.68V201.368H366.796V205.208H352.876V201.368H348.94V121.592H352.876V117.752H366.796V121.592H370.636V153.848H374.188V149.432H378.508V145.016H382.732V140.312H386.764V136.472H400.78V140.312H404.812V154.424H400.78V159.512H396.364V164.216H392.044V168.824H387.916V173.24H392.044V177.752H396.364V182.36H400.78V186.68H405.196V201.368H401.164V205.208H387.628V201.368H382.924V196.664H378.508V191.768H374.188V186.68H370.636Z" fill="white"/>
<path d="M241.164 118.904V123.32H245.58V135.128H241.164V139.544H223.404V200.792H218.988V205.208H204.78V200.792H200.364V139.544H182.316V135.128H177.9V123.32H182.316V118.904H241.164Z" stroke="#FF6161" stroke-width="10" mask="url(#path-2-outside-2_966_57)"/>
<path d="M290.144 188.504V177.272H274.976V180.536H271.52V185.24H274.976V188.504H290.144ZM306.464 145.592H310.88V200.984H307.136V205.208H262.4V201.464H258.08V197.336H253.952V192.728H250.208V173.432H253.952V168.824H258.08V164.696H262.4V160.952H290.144V154.904H258.848V150.68H254.912V140.6H258.848V136.472H302.24V140.696H306.464V145.592Z" stroke="#FF6161" stroke-width="10" mask="url(#path-2-outside-2_966_57)"/>
<path d="M337.393 205.208H322.705V201.368H318.865V121.592H322.705V117.752H337.393V121.592H341.233V201.368H337.393V205.208Z" stroke="#FF6161" stroke-width="10" mask="url(#path-2-outside-2_966_57)"/>
<path d="M370.636 186.68V201.368H366.796V205.208H352.876V201.368H348.94V121.592H352.876V117.752H366.796V121.592H370.636V153.848H374.188V149.432H378.508V145.016H382.732V140.312H386.764V136.472H400.78V140.312H404.812V154.424H400.78V159.512H396.364V164.216H392.044V168.824H387.916V173.24H392.044V177.752H396.364V182.36H400.78V186.68H405.196V201.368H401.164V205.208H387.628V201.368H382.924V196.664H378.508V191.768H374.188V186.68H370.636Z" stroke="#FF6161" stroke-width="10" mask="url(#path-2-outside-2_966_57)"/>
</g>
</g>
<defs>
<filter id="filter0_d_966_57" x="0.694458" y="0.743988" width="584.292" height="223.464" filterUnits="userSpaceOnUse" color-interpolation-filters="sRGB">
<feFlood flood-opacity="0" result="BackgroundImageFix"/>
<feColorMatrix in="SourceAlpha" type="matrix" values="0 0 0 0 0 0 0 0 0 0 0 0 0 0 0 0 0 0 127 0" result="hardAlpha"/>
<feOffset dy="10"/>
<feGaussianBlur stdDeviation="2"/>
<feComposite in2="hardAlpha" operator="out"/>
<feColorMatrix type="matrix" values="0 0 0 0 0 0 0 0 0 0 0 0 0 0 0 0 0 0 0.25 0"/>
<feBlend mode="normal" in2="BackgroundImageFix" result="effect1_dropShadow_966_57"/>
<feBlend mode="normal" in="SourceGraphic" in2="effect1_dropShadow_966_57" result="shape"/>
</filter>
<filter id="filter1_d_966_57" x="4.69446" y="0.743988" width="576.292" height="145.2" filterUnits="userSpaceOnUse" color-interpolation-filters="sRGB">
<feFlood flood-opacity="0" result="BackgroundImageFix"/>
<feColorMatrix in="SourceAlpha" type="matrix" values="0 0 0 0 0 0 0 0 0 0 0 0 0 0 0 0 0 0 127 0" result="hardAlpha"/>
<feOffset dy="10"/>
<feComposite in2="hardAlpha" operator="out"/>
<feColorMatrix type="matrix" values="0 0 0 0 1 0 0 0 0 0.379167 0 0 0 0 0.379167 0 0 0 1 0"/>
<feBlend mode="normal" in2="BackgroundImageFix" result="effect1_dropShadow_966_57"/>
<feBlend mode="normal" in="SourceGraphic" in2="effect1_dropShadow_966_57" result="shape"/>
</filter>
<filter id="filter2_d_966_57" x="172.9" y="112.752" width="237.297" height="102.456" filterUnits="userSpaceOnUse" color-interpolation-filters="sRGB">
<feFlood flood-opacity="0" result="BackgroundImageFix"/>
<feColorMatrix in="SourceAlpha" type="matrix" values="0 0 0 0 0 0 0 0 0 0 0 0 0 0 0 0 0 0 127 0" result="hardAlpha"/>
<feOffset dy="5"/>
<feComposite in2="hardAlpha" operator="out"/>
<feColorMatrix type="matrix" values="0 0 0 0 1 0 0 0 0 0.379167 0 0 0 0 0.379167 0 0 0 1 0"/>
<feBlend mode="normal" in2="BackgroundImageFix" result="effect1_dropShadow_966_57"/>
<feBlend mode="normal" in="SourceGraphic" in2="effect1_dropShadow_966_57" result="shape"/>
</filter>
<linearGradient id="paint0_linear_966_57" x1="292" y1="162" x2="292" y2="-24" gradientUnits="userSpaceOnUse">
<stop stop-color="#FF9F99"/>
<stop offset="1" stop-color="white"/>
</linearGradient>
<linearGradient id="paint1_linear_966_57" x1="292" y1="162" x2="292" y2="-24" gradientUnits="userSpaceOnUse">
<stop stop-color="#FF9F99"/>
<stop offset="1" stop-color="white"/>
</linearGradient>
<linearGradient id="paint2_linear_966_57" x1="292" y1="162" x2="292" y2="-24" gradientUnits="userSpaceOnUse">
<stop stop-color="#FF9F99"/>
<stop offset="1" stop-color="white"/>
</linearGradient>
<linearGradient id="paint3_linear_966_57" x1="292" y1="162" x2="292" y2="-24" gradientUnits="userSpaceOnUse">
<stop stop-color="#FF9F99"/>
<stop offset="1" stop-color="white"/>
</linearGradient>
<linearGradient id="paint4_linear_966_57" x1="292" y1="162" x2="292" y2="-24" gradientUnits="userSpaceOnUse">
<stop stop-color="#FF9F99"/>
<stop offset="1" stop-color="white"/>
</linearGradient>
<linearGradient id="paint5_linear_966_57" x1="292" y1="162" x2="292" y2="-24" gradientUnits="userSpaceOnUse">
<stop stop-color="#FF9F99"/>
<stop offset="1" stop-color="white"/>
</linearGradient>
</defs>
</svg>
