<svg width="556" height="79" viewBox="0 0 556 79" fill="none" xmlns="http://www.w3.org/2000/svg">
<mask id="path-1-outside-1_2208_86" maskUnits="userSpaceOnUse" x="0.777344" y="0.935547" width="555" height="78" fill="black">
<rect fill="white" x="0.777344" y="0.935547" width="555" height="78"/>
<path d="M34.9693 46.1996H21.2733V43.4475H17.8173V40.4395H14.3613V37.3035H10.7773V19.8315H14.3613V16.5675H17.6893V13.6235H20.8253V10.9355H49.4333V13.8795H52.8893V21.6235H49.4333V24.6315H29.3373V26.9355H26.9693V30.7755H29.3373V33.0795H43.2253V35.8955H46.6173V38.8395H50.1373V42.0395H53.7213V59.4476H50.1373V62.7116H46.7453V65.6555H43.6733V68.4076H14.8733V65.3996H11.5453V57.6555H14.8733V54.7115H34.9693V52.3436H37.3373V48.5676H34.9693V46.1996Z"/>
<path d="M73.8843 33.0155H96.5403V36.3435H99.8683V43.0635H96.5403V46.3915H73.8843V55.0956H96.5403V58.1675H99.8683V65.3355H96.5403V68.4715H62.3003V65.1436H58.9723V14.2635H62.3003V10.9355H96.5403V14.0075H99.8683V21.1115H96.5403V24.2475H73.8843V33.0155Z"/>
<path d="M120.02 54.6475H139.348V57.5915H142.42V65.5275H139.348V68.4715H107.732V65.5275H104.66V13.8795H107.604V10.9355H117.076V13.8795H120.02V54.6475Z"/>
<path d="M161.322 33.0155H183.978V36.3435H187.306V43.0635H183.978V46.3915H161.322V55.0956H183.978V58.1675H187.306V65.3355H183.978V68.4715H149.738V65.1436H146.41V14.2635H149.738V10.9355H183.978V14.0075H187.306V21.1115H183.978V24.2475H161.322V33.0155Z"/>
<path d="M211.041 28.0235H207.329V51.3835H211.041V54.8396H231.713V57.9756H235.105V65.2715H231.713V68.4715H203.297V65.3355H199.265V61.7515H195.489V57.9115H191.905V21.4955H195.489V17.5915H199.265V14.0075H203.297V10.9355H231.713V14.1355H235.105V21.4315H231.713V24.5035H211.041V28.0235Z"/>
<path d="M280.922 10.9355V13.8795H283.866V21.7515H280.922V24.6955H269.082V65.5275H266.138V68.4715H256.666V65.5275H253.722V24.6955H241.69V21.7515H238.746V13.8795H241.69V10.9355H280.922Z"/>
<path d="M329.594 46.1996H315.898V43.4475H312.442V40.4395H308.986V37.3035H305.402V19.8315H308.986V16.5675H312.314V13.6235H315.45V10.9355H344.058V13.8795H347.514V21.6235H344.058V24.6315H323.962V26.9355H321.594V30.7755H323.962V33.0795H337.85V35.8955H341.242V38.8395H344.762V42.0395H348.346V59.4476H344.762V62.7116H341.37V65.6555H338.298V68.4076H309.498V65.3996H306.17V57.6555H309.498V54.7115H329.594V52.3436H331.962V48.5676H329.594V46.1996Z"/>
<path d="M394.109 10.9355V13.8795H397.053V21.7515H394.109V24.6955H382.269V65.5275H379.325V68.4715H369.853V65.5275H366.909V24.6955H354.877V21.7515H351.933V13.8795H354.877V10.9355H394.109Z"/>
<path d="M433.227 38.8395V33.1435H429.899V28.5995H426.763V24.6315H422.411V28.5995H419.275V33.1435H415.947V38.8395H433.227ZM433.227 51.8955H415.947V65.5275H412.811V68.4715H404.107V65.5275H401.035V27.7675H404.363V22.5195H407.691V17.9755H410.955V14.2635H414.091V10.9355H435.019V14.2635H438.091V17.9755H441.355V22.5195H444.747V27.7675H448.139V65.5275H445.003V68.4715H436.299V65.5275H433.227V51.8955Z"/>
<path d="M464.985 68.4715V65.3355H460.953V61.7515H457.177V57.9115H453.593V21.4955H457.177V17.5915H460.953V14.0075H464.985V10.9355H493.401V14.1355H496.793V21.5595H493.401V24.5035H472.601V27.8955H468.697V51.5756H472.601V54.9035H485.209V46.7756H479.769V44.0235H477.017V35.9595H479.769V33.2075H496.537V35.9595H499.289V65.3355H495.769V68.4715H464.985Z"/>
<path d="M519.759 33.0155H542.415V36.3435H545.743V43.0635H542.415V46.3915H519.759V55.0956H542.415V58.1675H545.743V65.3355H542.415V68.4715H508.175V65.1436H504.847V14.2635H508.175V10.9355H542.415V14.0075H545.743V21.1115H542.415V24.2475H519.759V33.0155Z"/>
</mask>
<path d="M34.9693 46.1996H21.2733V43.4475H17.8173V40.4395H14.3613V37.3035H10.7773V19.8315H14.3613V16.5675H17.6893V13.6235H20.8253V10.9355H49.4333V13.8795H52.8893V21.6235H49.4333V24.6315H29.3373V26.9355H26.9693V30.7755H29.3373V33.0795H43.2253V35.8955H46.6173V38.8395H50.1373V42.0395H53.7213V59.4476H50.1373V62.7116H46.7453V65.6555H43.6733V68.4076H14.8733V65.3996H11.5453V57.6555H14.8733V54.7115H34.9693V52.3436H37.3373V48.5676H34.9693V46.1996Z" fill="white"/>
<path d="M73.8843 33.0155H96.5403V36.3435H99.8683V43.0635H96.5403V46.3915H73.8843V55.0956H96.5403V58.1675H99.8683V65.3355H96.5403V68.4715H62.3003V65.1436H58.9723V14.2635H62.3003V10.9355H96.5403V14.0075H99.8683V21.1115H96.5403V24.2475H73.8843V33.0155Z" fill="white"/>
<path d="M120.02 54.6475H139.348V57.5915H142.42V65.5275H139.348V68.4715H107.732V65.5275H104.66V13.8795H107.604V10.9355H117.076V13.8795H120.02V54.6475Z" fill="white"/>
<path d="M161.322 33.0155H183.978V36.3435H187.306V43.0635H183.978V46.3915H161.322V55.0956H183.978V58.1675H187.306V65.3355H183.978V68.4715H149.738V65.1436H146.41V14.2635H149.738V10.9355H183.978V14.0075H187.306V21.1115H183.978V24.2475H161.322V33.0155Z" fill="white"/>
<path d="M211.041 28.0235H207.329V51.3835H211.041V54.8396H231.713V57.9756H235.105V65.2715H231.713V68.4715H203.297V65.3355H199.265V61.7515H195.489V57.9115H191.905V21.4955H195.489V17.5915H199.265V14.0075H203.297V10.9355H231.713V14.1355H235.105V21.4315H231.713V24.5035H211.041V28.0235Z" fill="white"/>
<path d="M280.922 10.9355V13.8795H283.866V21.7515H280.922V24.6955H269.082V65.5275H266.138V68.4715H256.666V65.5275H253.722V24.6955H241.69V21.7515H238.746V13.8795H241.69V10.9355H280.922Z" fill="white"/>
<path d="M329.594 46.1996H315.898V43.4475H312.442V40.4395H308.986V37.3035H305.402V19.8315H308.986V16.5675H312.314V13.6235H315.45V10.9355H344.058V13.8795H347.514V21.6235H344.058V24.6315H323.962V26.9355H321.594V30.7755H323.962V33.0795H337.85V35.8955H341.242V38.8395H344.762V42.0395H348.346V59.4476H344.762V62.7116H341.37V65.6555H338.298V68.4076H309.498V65.3996H306.17V57.6555H309.498V54.7115H329.594V52.3436H331.962V48.5676H329.594V46.1996Z" fill="white"/>
<path d="M394.109 10.9355V13.8795H397.053V21.7515H394.109V24.6955H382.269V65.5275H379.325V68.4715H369.853V65.5275H366.909V24.6955H354.877V21.7515H351.933V13.8795H354.877V10.9355H394.109Z" fill="white"/>
<path d="M433.227 38.8395V33.1435H429.899V28.5995H426.763V24.6315H422.411V28.5995H419.275V33.1435H415.947V38.8395H433.227ZM433.227 51.8955H415.947V65.5275H412.811V68.4715H404.107V65.5275H401.035V27.7675H404.363V22.5195H407.691V17.9755H410.955V14.2635H414.091V10.9355H435.019V14.2635H438.091V17.9755H441.355V22.5195H444.747V27.7675H448.139V65.5275H445.003V68.4715H436.299V65.5275H433.227V51.8955Z" fill="white"/>
<path d="M464.985 68.4715V65.3355H460.953V61.7515H457.177V57.9115H453.593V21.4955H457.177V17.5915H460.953V14.0075H464.985V10.9355H493.401V14.1355H496.793V21.5595H493.401V24.5035H472.601V27.8955H468.697V51.5756H472.601V54.9035H485.209V46.7756H479.769V44.0235H477.017V35.9595H479.769V33.2075H496.537V35.9595H499.289V65.3355H495.769V68.4715H464.985Z" fill="white"/>
<path d="M519.759 33.0155H542.415V36.3435H545.743V43.0635H542.415V46.3915H519.759V55.0956H542.415V58.1675H545.743V65.3355H542.415V68.4715H508.175V65.1436H504.847V14.2635H508.175V10.9355H542.415V14.0075H545.743V21.1115H542.415V24.2475H519.759V33.0155Z" fill="white"/>
<path d="M34.9693 46.1996H21.2733V43.4475H17.8173V40.4395H14.3613V37.3035H10.7773V19.8315H14.3613V16.5675H17.6893V13.6235H20.8253V10.9355H49.4333V13.8795H52.8893V21.6235H49.4333V24.6315H29.3373V26.9355H26.9693V30.7755H29.3373V33.0795H43.2253V35.8955H46.6173V38.8395H50.1373V42.0395H53.7213V59.4476H50.1373V62.7116H46.7453V65.6555H43.6733V68.4076H14.8733V65.3996H11.5453V57.6555H14.8733V54.7115H34.9693V52.3436H37.3373V48.5676H34.9693V46.1996Z" stroke="#FF6161" stroke-width="20" mask="url(#path-1-outside-1_2208_86)"/>
<path d="M73.8843 33.0155H96.5403V36.3435H99.8683V43.0635H96.5403V46.3915H73.8843V55.0956H96.5403V58.1675H99.8683V65.3355H96.5403V68.4715H62.3003V65.1436H58.9723V14.2635H62.3003V10.9355H96.5403V14.0075H99.8683V21.1115H96.5403V24.2475H73.8843V33.0155Z" stroke="#FF6161" stroke-width="20" mask="url(#path-1-outside-1_2208_86)"/>
<path d="M120.02 54.6475H139.348V57.5915H142.42V65.5275H139.348V68.4715H107.732V65.5275H104.66V13.8795H107.604V10.9355H117.076V13.8795H120.02V54.6475Z" stroke="#FF6161" stroke-width="20" mask="url(#path-1-outside-1_2208_86)"/>
<path d="M161.322 33.0155H183.978V36.3435H187.306V43.0635H183.978V46.3915H161.322V55.0956H183.978V58.1675H187.306V65.3355H183.978V68.4715H149.738V65.1436H146.41V14.2635H149.738V10.9355H183.978V14.0075H187.306V21.1115H183.978V24.2475H161.322V33.0155Z" stroke="#FF6161" stroke-width="20" mask="url(#path-1-outside-1_2208_86)"/>
<path d="M211.041 28.0235H207.329V51.3835H211.041V54.8396H231.713V57.9756H235.105V65.2715H231.713V68.4715H203.297V65.3355H199.265V61.7515H195.489V57.9115H191.905V21.4955H195.489V17.5915H199.265V14.0075H203.297V10.9355H231.713V14.1355H235.105V21.4315H231.713V24.5035H211.041V28.0235Z" stroke="#FF6161" stroke-width="20" mask="url(#path-1-outside-1_2208_86)"/>
<path d="M280.922 10.9355V13.8795H283.866V21.7515H280.922V24.6955H269.082V65.5275H266.138V68.4715H256.666V65.5275H253.722V24.6955H241.69V21.7515H238.746V13.8795H241.69V10.9355H280.922Z" stroke="#FF6161" stroke-width="20" mask="url(#path-1-outside-1_2208_86)"/>
<path d="M329.594 46.1996H315.898V43.4475H312.442V40.4395H308.986V37.3035H305.402V19.8315H308.986V16.5675H312.314V13.6235H315.45V10.9355H344.058V13.8795H347.514V21.6235H344.058V24.6315H323.962V26.9355H321.594V30.7755H323.962V33.0795H337.85V35.8955H341.242V38.8395H344.762V42.0395H348.346V59.4476H344.762V62.7116H341.37V65.6555H338.298V68.4076H309.498V65.3996H306.17V57.6555H309.498V54.7115H329.594V52.3436H331.962V48.5676H329.594V46.1996Z" stroke="#FF6161" stroke-width="20" mask="url(#path-1-outside-1_2208_86)"/>
<path d="M394.109 10.9355V13.8795H397.053V21.7515H394.109V24.6955H382.269V65.5275H379.325V68.4715H369.853V65.5275H366.909V24.6955H354.877V21.7515H351.933V13.8795H354.877V10.9355H394.109Z" stroke="#FF6161" stroke-width="20" mask="url(#path-1-outside-1_2208_86)"/>
<path d="M433.227 38.8395V33.1435H429.899V28.5995H426.763V24.6315H422.411V28.5995H419.275V33.1435H415.947V38.8395H433.227ZM433.227 51.8955H415.947V65.5275H412.811V68.4715H404.107V65.5275H401.035V27.7675H404.363V22.5195H407.691V17.9755H410.955V14.2635H414.091V10.9355H435.019V14.2635H438.091V17.9755H441.355V22.5195H444.747V27.7675H448.139V65.5275H445.003V68.4715H436.299V65.5275H433.227V51.8955Z" stroke="#FF6161" stroke-width="20" mask="url(#path-1-outside-1_2208_86)"/>
<path d="M464.985 68.4715V65.3355H460.953V61.7515H457.177V57.9115H453.593V21.4955H457.177V17.5915H460.953V14.0075H464.985V10.9355H493.401V14.1355H496.793V21.5595H493.401V24.5035H472.601V27.8955H468.697V51.5756H472.601V54.9035H485.209V46.7756H479.769V44.0235H477.017V35.9595H479.769V33.2075H496.537V35.9595H499.289V65.3355H495.769V68.4715H464.985Z" stroke="#FF6161" stroke-width="20" mask="url(#path-1-outside-1_2208_86)"/>
<path d="M519.759 33.0155H542.415V36.3435H545.743V43.0635H542.415V46.3915H519.759V55.0956H542.415V58.1675H545.743V65.3355H542.415V68.4715H508.175V65.1436H504.847V14.2635H508.175V10.9355H542.415V14.0075H545.743V21.1115H542.415V24.2475H519.759V33.0155Z" stroke="#FF6161" stroke-width="20" mask="url(#path-1-outside-1_2208_86)"/>
</svg>
