<svg width="75" height="60" viewBox="0 0 75 60" fill="none" xmlns="http://www.w3.org/2000/svg">
<path d="M16.7756 0.359375C19.2474 0.359375 21.6179 1.34128 23.3657 3.08908C25.1135 4.83688 26.0954 7.20741 26.0954 9.67917C26.0954 12.1509 25.1135 14.5215 23.3657 16.2693C21.6179 18.0171 19.2474 18.999 16.7756 18.999C14.3039 18.999 11.9333 18.0171 10.1855 16.2693C8.43774 14.5215 7.45583 12.1509 7.45583 9.67917C7.45583 7.20741 8.43774 4.83688 10.1855 3.08908C11.9333 1.34128 14.3039 0.359375 16.7756 0.359375ZM59.6467 0.359375C62.1184 0.359375 64.489 1.34128 66.2368 3.08908C67.9846 4.83688 68.9665 7.20741 68.9665 9.67917C68.9665 12.1509 67.9846 14.5215 66.2368 16.2693C64.489 18.0171 62.1184 18.999 59.6467 18.999C57.1749 18.999 54.8044 18.0171 53.0566 16.2693C51.3088 14.5215 50.3269 12.1509 50.3269 9.67917C50.3269 7.20741 51.3088 4.83688 53.0566 3.08908C54.8044 1.34128 57.1749 0.359375 59.6467 0.359375ZM0 35.1572C0 28.2955 5.56858 22.7269 12.4303 22.7269H17.4047C19.257 22.7269 21.0161 23.1346 22.6005 23.8569C22.4491 24.6957 22.3792 25.5694 22.3792 26.4548C22.3792 30.905 24.3363 34.9009 27.4235 37.6385C27.4002 37.6385 27.3769 37.6385 27.3419 37.6385H2.48139C1.11838 37.6385 0 36.5202 0 35.1572ZM47.2164 37.6385C47.1931 37.6385 47.1698 37.6385 47.1349 37.6385C50.2337 34.9009 52.1792 30.905 52.1792 26.4548C52.1792 25.5694 52.0976 24.7073 51.9578 23.8569C53.5422 23.123 55.3013 22.7269 57.1536 22.7269H62.1281C68.9898 22.7269 74.5583 28.2955 74.5583 35.1572C74.5583 36.5318 73.44 37.6385 72.077 37.6385H47.2164ZM26.0954 26.4548C26.0954 23.4887 27.2737 20.6441 29.3711 18.5467C31.4684 16.4493 34.3131 15.271 37.2792 15.271C40.2453 15.271 43.0899 16.4493 45.1873 18.5467C47.2846 20.6441 48.4629 23.4887 48.4629 26.4548C48.4629 29.4209 47.2846 32.2655 45.1873 34.3629C43.0899 36.4603 40.2453 37.6385 37.2792 37.6385C34.3131 37.6385 31.4684 36.4603 29.3711 34.3629C27.2737 32.2655 26.0954 29.4209 26.0954 26.4548ZM14.9117 56.8956C14.9117 48.3214 21.8666 41.3665 30.4408 41.3665H44.1176C52.6918 41.3665 59.6467 48.3214 59.6467 56.8956C59.6467 58.6081 58.2604 60.0061 56.5362 60.0061H18.0222C16.3096 60.0061 14.9117 58.6197 14.9117 56.8956Z" fill="#D9D9D9"/>
</svg>
