<svg width="77" height="71" viewBox="0 0 77 71" fill="none" xmlns="http://www.w3.org/2000/svg">
<path fill-rule="evenodd" clip-rule="evenodd" d="M75.2301 37.0357H67.2729V69.4257C67.2923 69.8531 67.1154 70.2681 66.7862 70.5677C66.457 70.8672 66.0062 71.0233 65.5459 70.9971H49.6424C48.7873 70.9016 48.1708 70.1903 48.2542 69.3953V44.4159H28.8968V69.4257C28.9619 70.206 28.3564 70.8968 27.5196 70.9971H11.616C11.1497 71.0241 10.6933 70.864 10.3629 70.5576C10.0325 70.2511 9.85994 69.8278 9.88907 69.3953V37.0357H1.93185C1.24325 37.0357 0.543711 36.7113 0.543711 36.0726C0.193944 35.4339 0.193943 34.7851 0.893479 34.4708L37.5426 0.479008C38.2312 -0.159669 39.2696 -0.159669 39.6193 0.479008L76.2684 34.5012C76.9571 34.8256 76.957 35.4643 76.6182 36.103C76.2794 36.7417 75.9296 37.0661 75.2301 37.0661V37.0357Z" fill="#D9D9D9"/>
</svg>
