<svg width="81" height="82" viewBox="0 0 81 82" fill="none" xmlns="http://www.w3.org/2000/svg">
<path d="M71.9658 0H8.59259C3.87682 0 0.0422363 4.04822 0.0422363 9.02613V72.209C0.0422363 77.1869 3.87682 81.2351 8.59259 81.2351H71.9658C76.6816 81.2351 80.5161 77.1869 80.5161 72.209V9.02613C80.5161 4.04822 76.6816 0 71.9658 0ZM71.9658 72.209H8.59259C8.36324 72.209 8.20631 72.1368 8.13791 72.1368C8.10975 72.1368 8.09365 72.1458 8.08963 72.1729L8.04134 9.23373C8.06951 9.1886 8.25058 9.02613 8.59259 9.02613H71.9658C72.2837 9.03064 72.4567 9.15249 72.4688 9.06223L72.517 72.0014C72.4889 72.0465 72.3078 72.209 71.9658 72.209Z" fill="#D9D9D9"/>
<path d="M16.1367 18.043H40.2789V45.1213H16.1367V18.043ZM44.3026 54.1475H16.1367V63.1736H64.4211V54.1475H48.3263H44.3026ZM48.3263 36.0952H64.4211V45.1213H48.3263V36.0952ZM48.3263 18.043H64.4211V27.0691H48.3263V18.043Z" fill="#D9D9D9"/>
</svg>
