<svg width="73" height="50" viewBox="0 0 73 50" fill="none" xmlns="http://www.w3.org/2000/svg">
<path fill-rule="evenodd" clip-rule="evenodd" d="M67.7481 0H4.32489C1.91607 0.0270889 -0.0154752 1.71365 0.000581379 3.77584V6.44114C-0.0102726 6.72526 0.131334 6.99801 0.384963 7.1815L32.3656 29.6145C34.3774 31.2808 37.5706 31.2808 39.5824 29.6145L71.5631 7.15683C71.8167 6.97334 71.9584 6.70058 71.9475 6.41646V3.80875C72.0016 1.76918 70.1298 0.0715309 67.7481 0ZM0.0294093 12.1008C0.0273711 11.7492 0.26345 11.4284 0.634812 11.2782C1.01658 11.0952 1.49456 11.156 1.79757 11.4262L17.317 23.198C17.5473 23.3618 17.6752 23.6082 17.663 23.8643C17.6751 24.1219 17.5681 24.3731 17.3651 24.5635L1.84562 37.1086C1.56487 37.4041 1.08377 37.496 0.682861 37.3307C0.267898 37.1833 0.00887299 36.8259 0.0390186 36.4422V12.1008H0.0294093ZM0.0294093 42.5379C0.0343094 42.2752 0.15837 42.0244 0.375354 41.8386L19.9116 26.2335C20.3072 25.9033 20.9382 25.9033 21.3338 26.2335L29.5885 32.5265C33.1955 35.4308 38.8198 35.4308 42.4269 32.5265L50.6815 26.2335C51.0847 25.9196 51.7005 25.9196 52.1037 26.2335L71.6496 41.8057C71.8739 41.9872 71.9994 42.2408 71.9955 42.505V45.5404C72.0135 46.5375 71.568 47.4999 70.757 48.2157C69.946 48.9316 68.836 49.3423 67.6712 49.3574H4.32489C1.90317 49.3258 -0.0314982 47.6218 0.000581379 45.5487V42.5132L0.0294093 42.5379ZM72.034 36.434C72.0474 36.814 71.7938 37.1639 71.3901 37.3224C70.9861 37.4602 70.5247 37.3721 70.2274 37.1003L54.7079 24.5306C54.5049 24.3402 54.3979 24.089 54.41 23.8314C54.407 23.5696 54.5497 23.3222 54.7944 23.1651L70.3139 11.3604C70.6218 11.1197 71.076 11.0765 71.4382 11.2535C71.8182 11.4005 72.0678 11.7194 72.082 12.0761V36.4093L72.034 36.434Z" fill="#D9D9D9"/>
</svg>
