<svg width="64" height="83" viewBox="0 0 64 83" fill="none" xmlns="http://www.w3.org/2000/svg">
<path d="M20.3816 12.1265C20.3816 10.5637 20.6894 9.01633 21.2874 7.57256C21.8854 6.1288 22.7619 4.81697 23.867 3.71196C24.972 2.60695 26.2838 1.73041 27.7276 1.13239C29.1713 0.534363 30.7187 0.226563 32.2814 0.226562C33.8442 0.226563 35.3916 0.534363 36.8353 1.13239C38.2791 1.73041 39.5909 2.60695 40.6959 3.71196C41.801 4.81697 42.6775 6.1288 43.2755 7.57256C43.8735 9.01633 44.1813 10.5637 44.1813 12.1265C44.1813 13.6892 43.8735 15.2366 43.2755 16.6804C42.6775 18.1241 41.801 19.4359 40.6959 20.541C39.5909 21.646 38.2791 22.5225 36.8353 23.1205C35.3916 23.7186 33.8442 24.0264 32.2814 24.0264C30.7187 24.0264 29.1713 23.7186 27.7276 23.1205C26.2838 22.5225 24.972 21.646 23.867 20.541C22.7619 19.4359 21.8854 18.1241 21.2874 16.6804C20.6894 15.2366 20.3816 13.6892 20.3816 12.1265ZM1.82102 21.4646C3.96962 18.5061 8.10152 17.8615 11.06 20.0101L17.043 24.3569C21.4724 27.5798 26.8108 29.3152 32.2814 29.3152C37.7521 29.3152 43.0905 27.5798 47.5199 24.3569L53.5029 19.9936C56.4614 17.845 60.5933 18.5061 62.7419 21.448C64.8905 24.39 64.2294 28.5384 61.2874 30.687L55.3044 35.0503C53.0567 36.6865 50.6602 38.0583 48.148 39.1822V45.1817H16.4149V39.1822C13.9027 38.0748 11.5062 36.6865 9.25846 35.0503L3.27545 30.687C0.317009 28.5384 -0.327569 24.4065 1.82102 21.448V21.4646ZM16.6628 52.0076L26.6786 60.7673L22.3814 66.9156L26.3976 70.9318C28.9759 73.5101 28.9759 77.6916 26.3976 80.2864C23.8193 82.8812 19.6378 82.8647 17.043 80.2864L9.10971 72.3531C6.8289 70.0723 6.51487 66.5024 8.34944 63.8745L16.6463 52.0076H16.6628ZM37.9008 60.7673L47.9166 52.0076L56.2135 63.8745C58.048 66.5024 57.734 70.0723 55.4697 72.3366L47.5365 80.2699C44.9581 82.8482 40.7767 82.8482 38.1818 80.2699C35.587 77.6916 35.6035 73.5101 38.1818 70.9152L42.198 66.899L37.9008 60.7508V60.7673Z" fill="#D9D9D9"/>
</svg>
